<?xml version="1.0" encoding="utf-8"?>
<!-- Generator: Adobe Illustrator 19.1.0, SVG Export Plug-In . SVG Version: 6.00 Build 0)  -->
<svg version="1.1" id="Layer_1" xmlns="http://www.w3.org/2000/svg" xmlns:xlink="http://www.w3.org/1999/xlink" x="0px" y="0px"
	 viewBox="0 0 33 52" style="enable-background:new 0 0 33 52;" xml:space="preserve">
<path d="M32.5,52h-32C0.2,52,0,51.8,0,51.5v-5.9c0-0.3,0.2-0.5,0.5-0.5h32c0.3,0,0.5,0.2,0.5,0.5v5.9C33,51.8,32.8,52,32.5,52z
	 M31.5,32.8c-0.3,0.1-5,2-5.3,2.1c-0.3,0.1-0.6,0-0.7-0.3c-0.1-0.3-2.1-5.8-2.3-6.4c-0.7,0-12.8,0-13.5,0c-0.2,0.6-2.2,6.1-2.3,6.4
	c-0.1,0.3-0.4,0.4-0.7,0.3c-0.3-0.1-5-2-5.3-2.1c-0.3-0.1-0.4-0.4-0.3-0.7c0.3-0.9,9.3-25.7,9.7-27C11.9,2.6,13,0,16.5,0
	C20,0,21.1,2.5,22,5.1c0.4,1.1,9.5,26.3,9.8,27C31.9,32.3,31.8,32.6,31.5,32.8z M16.5,8.2L16.5,8.2l-4.6,13.8h9.2L16.5,8.2z"/>
</svg>
