<?xml version="1.0" encoding="utf-8"?>
<!-- Generator: Adobe Illustrator 19.1.0, SVG Export Plug-In . SVG Version: 6.00 Build 0)  -->
<svg version="1.1" id="Layer_1" xmlns="http://www.w3.org/2000/svg" xmlns:xlink="http://www.w3.org/1999/xlink" x="0px" y="0px"
	 viewBox="0 0 308 92" style="enable-background:new 0 0 308 92;" xml:space="preserve">
<g>
	<g>
		<path style="fill-rule:evenodd;clip-rule:evenodd;" d="M199.8,38.3c-6.9,0-10.8,4-11.8,11.9l-0.8,8.1c-0.3,3.4-1.9,5.3-4.9,5.7
			c-0.8,0-1.2,0.4-1.2,1.2v3.3c0,0.7,0.4,1.1,1.2,1.1c6.6,0,10.2-3.8,11-11.6l0.8-7.1c0.2-2.7,0.7-4.4,1.4-5.2
			c0.8-1,2.4-1.5,4.6-1.5h5.2v23.9c0,0.7,0.3,1.1,1.1,1.1h3.8c0.7,0,1.1-0.4,1.1-1.1V39.5c0-0.8-0.4-1.2-1.1-1.2H199.8L199.8,38.3z"
			/>
		<path style="fill-rule:evenodd;clip-rule:evenodd;" d="M157.2,56.2V39.5c0-0.8-0.4-1.2-1.2-1.2h-3.9c-0.7,0-1.1,0.4-1.1,1.2v18.7
			c0,7.7,3.6,11.6,11,11.6c3.6,0,6.9-1.3,10.1-3.9l0.7,2.7c0.3,0.5,0.7,0.6,1,0.6h2.7c0.8,0,1.2-0.3,1.2-1V39.5
			c0-0.8-0.5-1.2-1.3-1.2h-3.7c-0.8,0-1.2,0.4-1.2,1.2v20.1c-2.3,2.7-5.2,4.1-8.5,4.1C159.1,63.7,157.2,61.1,157.2,56.2L157.2,56.2z
			"/>
		<path style="fill-rule:evenodd;clip-rule:evenodd;" d="M146.4,55.2c0-9.5-5.2-14.3-15.7-14.3h-7.8v-9.4H141c0.8,0,1.1-0.5,1.2-1.3
			v-3.4c-0.1-0.8-0.4-1.3-1.2-1.3h-23.3c-0.8,0-1.2,0.5-1.2,1.3v29.5c0,8.8,4.2,13.2,12.5,13.2h1.1C141,69.4,146.4,64.7,146.4,55.2
			L146.4,55.2z M130.9,46.7c6,0,9,2.9,9,8.5c0,5.5-3,8.2-9,8.3h-2c-4-0.1-6.1-2.3-6.1-6.7V46.7H130.9L130.9,46.7z"/>
		<path style="fill-rule:evenodd;clip-rule:evenodd;" d="M301.9,50.7h-14.1V39.5c0-0.8-0.4-1.2-1.2-1.2h-3.8c-0.7,0-1,0.4-1,1.2
			v28.6c-0.1,0.7,0.3,1.1,1,1.1h3.8c0.8,0,1.2-0.4,1.2-1.1V56.2h14.1v11.9c0,0.7,0.5,1.1,1.2,1.1h3.7c0.8,0,1.2-0.4,1.2-1.1V39.5
			c0-0.8-0.4-1.2-1.2-1.2h-3.7c-0.8,0-1.2,0.4-1.2,1.2V50.7L301.9,50.7z"/>
		<path style="fill-rule:evenodd;clip-rule:evenodd;" d="M273.5,38.3h-3.8c-0.9,0-1.3,0.4-1.3,1.2v20.1c-2.3,2.7-5.1,4.1-8.5,4.1
			c-3.8,0-5.7-2.5-5.7-7.5V39.5c0-0.8-0.4-1.2-1.1-1.2h-3.8c-0.9,0-1.3,0.4-1.3,1.2v18.7c0,7.7,3.6,11.6,11,11.6
			c3.9,0,7.3-1.3,10.2-3.9l0.6,2.7c0.3,0.5,0.6,0.6,1,0.6h2.7c0.7,0,1.1-0.3,1.1-1V39.5C274.6,38.7,274.2,38.3,273.5,38.3
			L273.5,38.3z"/>
		<path style="fill-rule:evenodd;clip-rule:evenodd;" d="M274.4,26.7c0-0.8-0.4-1.3-1.2-1.3h-24c-0.9,0-1.3,0.5-1.3,1.3v3.4
			c0,0.8,0.5,1.3,1.3,1.3h24c0.8,0,1.2-0.5,1.2-1.3V26.7L274.4,26.7z"/>
		<path style="fill-rule:evenodd;clip-rule:evenodd;" d="M234.5,44.1c0.6,0.8,0.9,2.1,0.9,3.9v0.7l-6.8,0.3
			C220.8,49.6,217,53,217,59.3c0,6.9,3.9,10.4,11.7,10.4c2.8,0,5.5-0.7,7.9-2.3l0.5,1.1c0.5,0.5,0.8,0.6,1.1,0.6h2.4
			c0.6,0,0.9-0.3,0.9-1V48c0-7.2-4-10.8-12.1-10.8c-3.5,0-6.6,0.5-9.3,1.6c-0.5,0.4-0.7,0.8-0.7,1.1v3.4c0.1,0.5,0.3,0.8,0.5,1
			c0.5,0.1,0.8,0.1,1,0.1c2.5-1,5.3-1.4,8.5-1.4C231.9,43,233.6,43.4,234.5,44.1L234.5,44.1z M228.7,64c-3.5,0-5.2-1.6-5.2-4.7
			c-0.1-3.1,1.6-4.7,4.9-4.9l6.8-0.6l0.1,8.3C233.1,63.4,230.9,64,228.7,64L228.7,64z"/>
	</g>
	<path style="opacity:0.15;fill-rule:evenodd;clip-rule:evenodd;" d="M46.3,0C20.8,0,0.1,20.6,0.1,46c0,25.4,20.7,46,46.2,46
		c25.5,0,46.2-20.6,46.2-46C92.5,20.6,71.8,0,46.3,0z M46.4,1.5c13.4,0,25.4,5.8,33.6,15.1c-21.7-1.9-45.6-1.8-67.3,0
		C21,7.3,33,1.5,46.4,1.5z M46.4,91c-13.6,0-25.9-6-34.1-15.6c22,1.7,47.1,1.6,68.2,0C72.2,85,60,91,46.4,91z M2.5,56.2
		c-0.7-3.2-1.1-6.5-1.1-9.9c0-3.9,0.5-7.7,1.5-11.4c29.3-0.5,57.8-0.6,87,0c1,3.6,1.5,7.4,1.5,11.4c0,3.4-0.4,6.7-1.1,9.9
		C60.7,57,31.5,56.8,2.5,56.2z"/>
	<g>
		<path style="fill-rule:evenodd;clip-rule:evenodd;" d="M12.7,16.5c21.7-1.8,45.6-1.9,67.3,0C71.8,7.3,59.8,1.5,46.4,1.5
			C33,1.5,21,7.3,12.7,16.5L12.7,16.5z"/>
		<path style="fill-rule:evenodd;clip-rule:evenodd;" d="M80.5,75.4c-21.1,1.6-46.2,1.7-68.2,0C20.5,85,32.8,91,46.4,91
			C60,91,72.2,85,80.5,75.4L80.5,75.4z"/>
		<path style="fill-rule:evenodd;clip-rule:evenodd;" d="M2.9,34.9c29.3-0.5,57.8-0.6,87,0c1,3.6,1.5,7.4,1.5,11.4
			c0,3.4-0.4,6.7-1.1,9.9c-29.6,0.9-58.7,0.6-87.7,0c-0.7-3.2-1.1-6.5-1.1-9.9C1.4,42.3,1.9,38.5,2.9,34.9L2.9,34.9z"/>
	</g>
</g>
</svg>
