<?xml version="1.0" encoding="utf-8"?>
<!-- Generator: Adobe Illustrator 19.1.0, SVG Export Plug-In . SVG Version: 6.00 Build 0)  -->
<svg version="1.1" id="Layer_1" xmlns="http://www.w3.org/2000/svg" xmlns:xlink="http://www.w3.org/1999/xlink" x="0px" y="0px"
	 viewBox="0 0 56 52" style="enable-background:new 0 0 56 52;" xml:space="preserve">
<path d="M10.2,52c-1.7,0-3.4-1.1-3.9-2.9L0.2,28.8c-0.7-2.2,0.6-4.4,2.7-5.1l9.4-2.9v-17C12.3,1.7,14,0,16.1,0h36.1
	C54.3,0,56,1.7,56,3.8v21.7c0,2.1-1.7,3.8-3.8,3.8h-6.1l2.1,6.9c0.3,1,0.2,2.1-0.3,3.1c-0.5,1-1.4,1.7-2.4,2l-34,10.4
	C11,51.9,10.6,52,10.2,52z M4.1,36.2l3.8,12.4c0.4,1.3,1.8,2,3.1,1.6l34-10.4c1.3-0.4,2-1.8,1.6-3.1l0,0l-2.2-7.2h-4.9l0.8,2.5
	c0.1,0.2,0,0.4-0.1,0.6c-0.1,0.2-0.3,0.3-0.5,0.4l-28.5,8.8c-0.4,0.1-0.9-0.1-1-0.5l-0.9-3c-0.1-0.2,0-0.4,0.1-0.6
	c0.1-0.2,0.3-0.3,0.5-0.4l25.2-7.8h-9.4L4.1,36.2z M11.1,38.6l0.4,1.5l27-8.3l-0.4-1.5L11.1,38.6z M2.1,29.6l1.6,5.1l16.6-5.1h-3.9
	c-1.1,0-2.1-0.5-2.9-1.2c-0.5-0.5-0.9-1.2-1.1-2L2.1,29.6z M12.3,22.5l-9,2.7c-1.2,0.4-1.9,1.6-1.7,2.8l10.7-3.3V22.5z M14.6,27.2
	c0.4,0.4,0.9,0.6,1.5,0.6h36.1c1.2,0,2.2-1,2.2-2.2V3.8c0-1.2-1-2.2-2.2-2.2H16.1c-1.2,0-2.2,1-2.2,2.2v21.5c0,0,0,0,0,0v0.1
	C13.9,26.2,14.2,26.8,14.6,27.2z M51.3,21.2h-5.6c-0.4,0-0.8-0.4-0.8-0.8c0-0.4,0.4-0.8,0.8-0.8h5.6c0.4,0,0.8,0.4,0.8,0.8
	C52.1,20.9,51.7,21.2,51.3,21.2z M41.8,21.2h-5.6c-0.4,0-0.8-0.4-0.8-0.8c0-0.4,0.4-0.8,0.8-0.8h5.6c0.4,0,0.8,0.4,0.8,0.8
	C42.6,20.9,42.2,21.2,41.8,21.2z M32.3,21.2h-5.6c-0.4,0-0.8-0.4-0.8-0.8c0-0.4,0.4-0.8,0.8-0.8h5.6c0.4,0,0.8,0.4,0.8,0.8
	C33.1,20.9,32.7,21.2,32.3,21.2z M22.8,21.2h-5.6c-0.4,0-0.8-0.4-0.8-0.8c0-0.4,0.4-0.8,0.8-0.8h5.6c0.4,0,0.8,0.4,0.8,0.8
	C23.6,20.9,23.2,21.2,22.8,21.2z M21.5,15.5h-2.9c-1.2,0-2.1-1-2.1-2.1V11c0-1.2,1-2.1,2.1-2.1h2.9c1.2,0,2.1,1,2.1,2.1v2.4
	C23.6,14.6,22.6,15.5,21.5,15.5z M18.5,10.4c-0.3,0-0.5,0.2-0.5,0.5v2.4c0,0.3,0.2,0.5,0.5,0.5h2.9c0.3,0,0.5-0.2,0.5-0.5V11
	c0-0.3-0.2-0.5-0.5-0.5H18.5z"/>
</svg>
