<?xml version="1.0" encoding="utf-8"?>
<!-- Generator: Adobe Illustrator 19.1.0, SVG Export Plug-In . SVG Version: 6.00 Build 0)  -->
<svg version="1.1" id="Layer_1" xmlns="http://www.w3.org/2000/svg" xmlns:xlink="http://www.w3.org/1999/xlink" x="0px" y="0px"
	 viewBox="0 0 58 21" style="enable-background:new 0 0 58 21;" xml:space="preserve">
<path d="M55.1,7.7c-1.8,0-2.1,0.5-2.1,2v1.7c0,1.4,0.3,2,2.1,2c1.4,0,2.7-0.2,2.7-0.2l0.2,2.6c0,0-1.8,0.2-3.1,0.2
	c-3.3,0-4.9-0.9-4.9-4.1V9.2c0-2.9,1.3-4.1,4.9-4.1c1.4,0,2.9,0.2,2.9,0.2l-0.2,2.6C57.7,7.9,56.4,7.7,55.1,7.7z M45.8,7.9v7.8h-3.1
	V7.9h-3l-0.2-2.7H49l-0.2,2.7H45.8z M35.1,10.7H35l-1.7,4h-2l-1.9-4h-0.2L29,15.7H26l0.7-10.5h2.9l2.6,6h0.2l2.5-6h2.9l0.7,10.5h-3
	L35.1,10.7z M18.7,21H2.1C0.9,21,0,20.1,0,18.9V2.1C0,0.9,0.9,0,2.1,0h16.7c1.1,0,2.1,0.9,2.1,2.1v16.8C20.8,20.1,19.9,21,18.7,21z
	 M10.4,2.7c-2.6,0-5.6,5-5.6,9.3c0,3.1,1.7,6.2,5.6,6.2c3.9,0,5.6-3.1,5.6-6.2C16,7.7,13,2.7,10.4,2.7z"/>
</svg>
