<?xml version="1.0" encoding="utf-8"?>
<!-- Generator: Adobe Illustrator 19.1.0, SVG Export Plug-In . SVG Version: 6.00 Build 0)  -->
<svg version="1.1" id="Layer_1" xmlns="http://www.w3.org/2000/svg" xmlns:xlink="http://www.w3.org/1999/xlink" x="0px" y="0px"
	 viewBox="0 0 109 18" style="enable-background:new 0 0 109 18;" xml:space="preserve">
<path d="M109,13.5h-2.1l-2.1-3.2v3.2H103V7h1.9v3l2.1-3h1.8l-2.1,2.9L109,13.5z M100,10.6h-2.1v2.9H96V7h1.9v2.4h2.1V7h1.9v6.5H100
	V10.6z M89.6,11.6c0-0.9,0.5-1.6,1.4-1.9c0.4-0.1,0.8-0.2,1.1-0.3c0.3-0.1,0.7-0.1,1.2-0.2V9c0-0.9-0.5-1.1-1.2-1.1
	c-0.6,0-1.2,0.2-1.8,0.5l-0.1-1.2C91,7,91.8,6.8,92.6,6.8c0.5,0,0.9,0.1,1.3,0.2C94.6,7.2,95,7.8,95,8.4c0,0.1,0,0.4,0,0.7v4.1
	C93.4,13.8,89.6,14.2,89.6,11.6z M93.3,10.1c-0.8,0.1-2,0.2-2,1.4c0,1.4,1.5,1.1,2,0.9V10.1z M86,13.7c-1.6,0-2.5-0.9-2.9-2.1
	c-0.4-1-0.4-3.2-0.2-4.5c0.3-2,1.6-2.9,2.9-3.2c1.2-0.3,2.7-0.5,2.7-0.5l0.1,1.4c0,0-0.8,0.2-2.3,0.4c-1.5,0.2-2.2,1.1-2.2,2.8
	c1.1-1.6,3.4-1.1,4-0.5c0.4,0.4,0.7,0.8,0.8,1.3c0.1,0.5,0.2,1,0.2,1.4C89.2,12.3,88.2,13.7,86,13.7z M87.3,10.3
	c0-0.5-0.1-1.1-0.3-1.7c-0.2-0.5-0.6-0.8-1-0.8c-0.3,0-0.6,0.1-0.8,0.3c-0.4,0.4-0.5,1.1-0.5,1.8c0,0.8,0.3,2.6,1.3,2.6
	c0.3,0,0.6-0.1,0.8-0.4C87.2,11.7,87.3,11,87.3,10.3z M78.8,13.6c-1.2,0-1.9-0.1-1.9-0.1V7h1.9V9c0.4,0,0.6,0,0.7,0
	c0.9,0,1.5,0.1,1.9,0.4c0.5,0.4,0.8,1,0.8,1.7C82.2,13.2,80,13.6,78.8,13.6z M80.4,10.5c-0.2-0.3-0.6-0.4-1.1-0.4h-0.2H79
	c0,0-0.1,0-0.2,0v2.3c0,0,1.7,0.4,1.7-1.3C80.5,10.9,80.5,10.7,80.4,10.5z M76.2,11.5c0,0.8-0.5,1.4-1.1,1.7
	c-0.7,0.3-1.4,0.4-1.9,0.4c-0.6,0-1.2,0-1.8-0.3l0.2-1.1c0.4,0.3,0.9,0.4,1.4,0.4c0.9,0,1.5-0.4,1.4-1c0-0.3-0.1-0.5-0.3-0.7
	c-0.2-0.2-0.4-0.2-0.7-0.3c-0.3,0-0.5,0-0.6,0h-0.5v-1h0.1c0.7,0,1.8,0,1.8-0.9c0-0.7-0.7-0.9-1.1-0.9c-0.6,0-1.1,0.1-1.6,0.4
	l-0.1-1.1c0.7-0.3,1.4-0.4,2.1-0.4c1.5,0,2.5,0.6,2.4,1.7c0,0.8-0.7,1.3-1.2,1.5c0.3,0.1,0.6,0.2,0.8,0.3
	C76,10.6,76.2,11.1,76.2,11.5z M68.5,10.9H68l-1.4,2.6h-1.9l1.8-2.9C65.5,10.3,65,9.7,65,8.8c0-1.8,1.7-2,3.1-2
	c1.4,0,2.3,0.2,2.3,0.2v6.5h-1.8V10.9z M68.5,7.9c0,0-0.2,0-0.7,0c-0.5,0-1.1,0.2-1.1,0.9c0,0.7,0.4,1,1.3,1h0.5V7.9z M61,13.6
	c-1.3,0-2.3-0.1-2.3-0.1V7c0,0,0.9-0.2,2.3-0.2c0.7,0,1.5,0.1,2.1,0.3c0.3,0.1,0.6,0.3,0.7,0.6c0.1,0.2,0.2,0.5,0.2,0.8
	c0,0.7-0.4,1.2-1.2,1.5c1.1,0.1,1.5,0.8,1.5,1.5c0,0,0,0.1,0,0.1C64.4,13.3,62.4,13.6,61,13.6z M61.3,7.9c-0.5,0-0.7,0-0.7,0v1.8H61
	c0.9,0,1.3-0.3,1.3-1C62.4,8.4,62.2,7.9,61.3,7.9z M62.3,10.9c-0.2-0.1-0.4-0.2-0.6-0.2c-0.2,0-0.4,0-0.6,0h-0.5v1.9
	c0,0,0.2,0,0.5,0c0.8,0,1.5-0.3,1.5-1C62.5,11.3,62.5,11.1,62.3,10.9z M56.6,8c-1.3,0-1.8,1-1.8,2.2c0,1.2,0.5,2.3,1.8,2.3
	c0.4,0,0.7-0.1,1.1-0.3l0.1,1.2c-0.5,0.2-1,0.2-1.5,0.2c-2.2,0-3.4-1.3-3.4-3.4c0-2.1,1.3-3.4,3.4-3.4c0.6,0,1,0.1,1.5,0.3l-0.2,1.2
	C57.3,8.1,57,8,56.6,8z M50.3,8.8l-1.4,4.7h-1.5L46,8.8l-0.4,4.7h-1.5L44.8,7H47l1.4,4.4L49.7,7h2.2l0.6,6.5h-1.7L50.3,8.8z
	 M40.5,13.6c-2.2,0-3.1-1.4-3.1-3.4c0-2.1,1.1-3.4,3.3-3.4c0.8,0,1.4,0.2,1.9,0.5c0.5,0.3,0.8,0.8,0.9,1.3c0.2,0.5,0.2,1,0.2,1.5
	C43.7,12.4,42.8,13.6,40.5,13.6z M41.8,10.1c0-0.6-0.1-1.1-0.3-1.6c-0.2-0.5-0.6-0.7-1-0.7c-0.5,0-0.9,0.4-1.1,0.9
	c-0.2,0.5-0.2,1-0.2,1.4c0,0.8,0.2,2.5,1.3,2.5c0.5,0,0.9-0.4,1.1-1C41.8,11,41.8,10.6,41.8,10.1z M32.5,13.4v2.8h-1.9v-9
	c1.6-0.3,6.1-1.3,6.1,2.7c0,1-0.3,2-0.8,2.6C34.8,13.7,33.1,13.6,32.5,13.4z M32.5,7.9v4.3c0.3,0.1,2.3,0.9,2.3-2.2
	C34.8,7.6,33.1,7.8,32.5,7.9z M27.5,5.8h-2.9v7.7h-2v-9h6.9v9h-2V5.8z M14.9,7.7c0-3.1-1.2-4.5-4.1-4.5H3.2C3.8,1.3,5.5,0,7.5,0h6.2
	c2.4,0,4.4,2,4.4,4.4v6.2c0,2-1.4,3.7-3.2,4.2V7.7z M13.7,8.1c0,0.6-0.4,1.4-2,1.4h-1c0.1,0.2,0.1,0.4,0.1,0.7
	c0,0.8-0.6,1.5-1.9,1.5H6l-0.4-0.4v2.2h-1V8.4h1.5c1.8,0,2,1.3,2,1.6c0,0.3-0.1,0.5-0.2,0.8h1c0.6,0,0.8-0.3,0.8-0.6
	c0-0.5-0.6-0.7-1-0.9C7.9,9,7.5,8.7,7.5,8c0-0.5,0.3-1.4,1.6-1.4h1v-2h1.7c1,0,1.7,0.4,1.7,1.2c0,0.8-0.5,1-0.8,1.2v0
	C13.2,7,13.7,7.5,13.7,8.1z M6.1,9.2H5.6v1.7h0.5C6.7,10.9,7,10.4,7,10C7,9.6,6.7,9.2,6.1,9.2z M10.1,7.3H9.7H9.3
	c-0.6,0-0.7,0.3-0.7,0.5c0,0.4,0.3,0.6,0.7,0.7C9.5,8.7,9.8,8.8,10.1,9V7.7l0.4-0.4H10.1z M11.6,5.3h-0.5v1.3h0.5
	c0.7,0,0.8-0.4,0.8-0.6C12.4,5.8,12.3,5.3,11.6,5.3z M11.7,7.3h-0.6v1.4h0.6c0.6,0,0.9-0.3,0.9-0.7C12.6,7.7,12.4,7.3,11.7,7.3z
	 M7.3,14.8h7.5c-0.5,1.9-2.2,3.2-4.2,3.2H4.4C2,18,0,16,0,13.6V7.4c0-2,1.4-3.7,3.2-4.2v7.1C3.2,13.5,4.5,14.8,7.3,14.8z"/>
</svg>
