<?xml version="1.0" encoding="utf-8"?>
<!-- Generator: Adobe Illustrator 19.1.0, SVG Export Plug-In . SVG Version: 6.00 Build 0)  -->
<svg version="1.1" id="Layer_1" xmlns="http://www.w3.org/2000/svg" xmlns:xlink="http://www.w3.org/1999/xlink" x="0px" y="0px"
	 viewBox="0 0 113 28" style="enable-background:new 0 0 113 28;" xml:space="preserve">
<path d="M111.3,16.2l-1.5-1.7l1.7-1.5l1.5,1.7L111.3,16.2z M107.7,9.6l1.7-1.5l1.5,1.7l-1.7,1.5L107.7,9.6z M105.5,4.7l1.7-1.5
	l1.5,1.7L107,6.3L105.5,4.7z M102.6,1l-3.3,2.9l-2-2.1l-6.1,5.5l3.9,4.3L93.6,13l3.9,4.3l-1.5,1.3l5.5,6.1l3.3-3l2.8,3.2
	c-0.6,0.4-1.2,0.8-1.9,1.2c-2.1,1.2-4.4,1.8-7,1.8c-7.8,0-14.1-6.3-14.1-14c0-7.7,6.3-14,14.1-14c2.2,0,4.3,0.5,6.2,1.4
	c0.3,0.1,0.6,0.3,0.9,0.5L104.5,3L102.6,1z M69.1,23v-1.3c1.1,0,1.8-0.9,2.2-2l-3.1-8h1.8l2.1,5.9h0.1l1.8-5.9h1.7l-2.9,8
	C71.9,21.8,70.9,23,69.1,23z M64.8,18.6c0.9,0,1.7-0.3,2.6-0.8V19c-0.7,0.4-1.7,0.7-2.9,0.7c-2.7,0-3.8-1.7-3.8-4.2
	c0-2.4,1.2-4.2,3.7-4.2c2,0,3.3,1.3,3.3,3.9v0.6h-5.3C62.4,17.8,63.2,18.6,64.8,18.6z M66.1,14.8c-0.1-1.7-0.9-2.3-1.8-2.3
	c-1,0-1.7,0.8-1.9,2.3H66.1z M57.5,14.1c0-1.3-0.6-1.5-1.4-1.5c-0.6,0-1.5,0.3-2,0.6v6.3h-1.7v-7c0.7-0.4,2.3-1.2,4.1-1.2
	c1.9,0,2.7,0.8,2.7,2.4v5.8h-1.7V14.1z M47.2,19.8c-2.2,0-3.7-1.5-3.7-4.2c0-2.8,1.5-4.2,3.7-4.2c2.1,0,3.7,1.4,3.7,4.2
	C50.9,18.3,49.4,19.8,47.2,19.8z M47.2,12.5c-1.1,0-2,0.9-2,3.1c0,2.2,0.8,3.1,2,3.1s2-0.9,2-3.1C49.2,13.4,48.3,12.5,47.2,12.5z
	 M40,11.3h-0.1l-3.3,8.2h-1l-3.3-8h-0.1v8h-1.5V8.2h1.9l3.6,8.9h0.1l3.4-8.9h2v11.3H40V11.3z M25.1,19.8c-0.9,0-2.2-0.3-3.1-0.8V7.8
	l1.7-0.4V12c0.5-0.3,1.3-0.6,2.2-0.6c2,0,3.1,1.4,3.1,3.9C28.9,18.3,27.5,19.8,25.1,19.8z M25.4,12.6c-0.6,0-1.1,0.2-1.8,0.5v5.2
	c0.5,0.2,1.1,0.3,1.5,0.3c1.2,0,2.1-0.7,2.1-3.3C27.2,13.3,26.5,12.6,25.4,12.6z M17.7,18.6c0.9,0,1.7-0.3,2.6-0.8V19
	c-0.7,0.4-1.7,0.7-2.9,0.7c-2.7,0-3.8-1.7-3.8-4.2c0-2.4,1.2-4.2,3.7-4.2c2,0,3.3,1.3,3.3,3.9v0.6h-5.3
	C15.3,17.8,16.1,18.6,17.7,18.6z M19,14.8c-0.1-1.7-0.9-2.3-1.8-2.3c-1,0-1.7,0.8-1.9,2.3H19z M8.8,19.6l-2.2-8H6.5l-2.1,8H2.6
	L0,8.2h1.8l1.8,8.4h0.1l2.1-8.4h1.4l2.2,8.4h0.1l1.6-8.4h1.9l-2.6,11.3H8.8z M106.7,18.6l-2.3-2.5l2.5-2.2l2.3,2.5L106.7,18.6z
	 M107.1,11.1l-2.5,2.2l-2.3-2.5l2.5-2.2L107.1,11.1z M104.7,6.1l-2.5,2.2L100,5.8l2.5-2.2L104.7,6.1z M97.1,4.4l3,3.3l-3.4,3l-3-3.3
	L97.1,4.4z M105,19.2l-3.4,3l-3-3.3l3.4-3L105,19.2z M99.6,10.1l3,3.3l-3.4,3l-3-3.3L99.6,10.1z M109.2,18.9l2.3,2.5l-2.5,2.2
	l-2.3-2.5L109.2,18.9z"/>
</svg>
