<?xml version="1.0" encoding="utf-8"?>
<!-- Generator: Adobe Illustrator 19.0.1, SVG Export Plug-In . SVG Version: 6.00 Build 0)  -->
<svg version="1.1" id="Layer_1" xmlns="http://www.w3.org/2000/svg" xmlns:xlink="http://www.w3.org/1999/xlink" x="0px" y="0px"
	 viewBox="0 0 19 20" style="enable-background:new 0 0 19 20;" xml:space="preserve">
<path d="M17,18.5h-1.2l0.3,0.3c0.3,0.3,0.3,0.7,0,1C16,19.9,15.8,20,15.6,20s-0.4-0.1-0.5-0.2l-1.3-1.3H5.2l-1.3,1.3
	C3.8,19.9,3.6,20,3.4,20S3,19.9,2.9,19.8c-0.3-0.3-0.3-0.7,0-1l0.3-0.3H2c-1.1,0-2-0.9-2-2V6.7c0-1.1,0.9-2,2-2h5.9L7,3.8
	c-0.3-0.3-0.3-0.7,0-1s0.7-0.3,1,0l1.3,1.3l4-3.9c0.3-0.3,0.7-0.3,1,0s0.3,0.7,0,1l-3.5,3.5H17c1.1,0,2,0.9,2,2v9.8
	C19,17.6,18.1,18.5,17,18.5z M17,6.2H2c-0.3,0-0.6,0.3-0.6,0.6v9.8c0,0.3,0.3,0.6,0.6,0.6h2.9c0,0,0,0,0.1,0h9.2c0,0,0,0,0.1,0h2.8
	c0.3,0,0.6-0.3,0.6-0.6c0,0,0-9.5,0-9.8C17.7,6.4,17.3,6.2,17,6.2z M11.8,16.3H7.3c-0.4,0-0.7-0.3-0.7-0.7c0-0.4,0.3-0.7,0.7-0.7
	h4.5c0.4,0,0.7,0.3,0.7,0.7S12.2,16.3,11.8,16.3z M3.4,16.3c-0.2,0-0.4-0.1-0.5-0.2c-0.1-0.1-0.2-0.3-0.2-0.5c0-0.2,0.1-0.4,0.2-0.5
	c0.3-0.3,0.7-0.3,1,0c0.1,0.1,0.2,0.3,0.2,0.5c0,0.2-0.1,0.4-0.2,0.5C3.8,16.2,3.6,16.3,3.4,16.3z"/>
</svg>
