<?xml version="1.0" encoding="utf-8"?>
<!-- Generator: Adobe Illustrator 19.0.1, SVG Export Plug-In . SVG Version: 6.00 Build 0)  -->
<svg version="1.1" id="Layer_1" xmlns="http://www.w3.org/2000/svg" xmlns:xlink="http://www.w3.org/1999/xlink" x="0px" y="0px"
	 viewBox="0 0 19 19" style="enable-background:new 0 0 19 19;" xml:space="preserve">
<path d="M16.6,19H2.4C1.1,19,0,17.9,0,16.6V2.4C0,1.1,1.1,0,2.4,0h14.2C17.9,0,19,1.1,19,2.4v14.2C19,17.9,17.9,19,16.6,19z
	 M17.4,2.5c0-0.4-0.4-0.8-0.8-0.8H2.4C2,1.7,1.6,2.1,1.6,2.5v6.3h15.8V2.5z M17.4,10.3H1.6v6.3c0,0.4,0.4,0.8,0.8,0.8h14.2
	c0.4,0,0.8-0.4,0.8-0.8V10.3z M11.1,15.8H7.9c-1.3,0-2.4-1.1-2.4-2.4c0-0.4,0.4-0.8,0.8-0.8s0.8,0.4,0.8,0.8c0,0.4,0.4,0.8,0.8,0.8
	h3.2c0.4,0,0.8-0.4,0.8-0.8c0-0.4,0.4-0.8,0.8-0.8s0.8,0.4,0.8,0.8C13.5,14.8,12.4,15.8,11.1,15.8z M6.3,4.1c0.4,0,0.8,0.4,0.8,0.8
	s0.4,0.8,0.8,0.8h3.2c0.4,0,0.8-0.4,0.8-0.8s0.4-0.8,0.8-0.8s0.8,0.4,0.8,0.8c0,1.3-1.1,2.4-2.4,2.4H7.9c-1.3,0-2.4-1.1-2.4-2.4
	C5.5,4.4,5.9,4.1,6.3,4.1z"/>
</svg>
