<?xml version="1.0" encoding="utf-8"?>
<!-- Generator: Adobe Illustrator 19.1.0, SVG Export Plug-In . SVG Version: 6.00 Build 0)  -->
<svg version="1.1" id="Layer_1" xmlns="http://www.w3.org/2000/svg" xmlns:xlink="http://www.w3.org/1999/xlink" x="0px" y="0px"
	 viewBox="0 0 19 19" style="enable-background:new 0 0 19 19;" xml:space="preserve">
<path d="M9.5,19C4.3,19,0,14.7,0,9.5C0,4.3,4.3,0,9.5,0C14.7,0,19,4.3,19,9.5C19,14.7,14.7,19,9.5,19z M9.5,1.9
	c-4.2,0-7.6,3.4-7.6,7.6s3.4,7.6,7.6,7.6s7.6-3.4,7.6-7.6S13.7,1.9,9.5,1.9z M13,9.6L10.4,7v7.2c0,0.5-0.4,0.9-0.9,0.9
	c-0.5,0-0.9-0.4-0.9-0.9V7L6,9.6C5.6,10,5,10,4.6,9.6c-0.4-0.4-0.4-1,0-1.3l4.2-4.2c0,0,0,0,0.1-0.1c0,0,0,0,0,0c0,0,0,0,0,0
	c0.2-0.1,0.4-0.2,0.6-0.2S9.9,3.9,10.1,4c0,0,0,0,0,0c0,0,0,0,0,0c0,0,0,0,0.1,0.1c0,0,0,0,0,0l4.2,4.2c0.4,0.4,0.4,1,0,1.3
	C14,10,13.4,10,13,9.6z"/>
</svg>
