<?xml version="1.0" encoding="utf-8"?>
<!-- Generator: Adobe Illustrator 19.0.1, SVG Export Plug-In . SVG Version: 6.00 Build 0)  -->
<svg version="1.1" id="Layer_1" xmlns="http://www.w3.org/2000/svg" xmlns:xlink="http://www.w3.org/1999/xlink" x="0px" y="0px"
	 viewBox="0 0 67 67" style="enable-background:new 0 0 67 67;" xml:space="preserve">
<path d="M33.5,67C15,67,0,52,0,33.5S15,0,33.5,0S67,15,67,33.5S52,67,33.5,67z M33.5,6.6c-14.9,0-27,12.1-27,27s12.1,27,27,27
	s27-12.1,27-27C60.4,18.6,48.3,6.6,33.5,6.6z M35.8,48.8c-0.2,0.2-0.5,0.4-0.5,0.4s-0.4,0.3-0.5,0.3s-0.6,0.2-0.6,0.2
	s-0.3,0.1-0.6,0.1S33,49.7,33,49.7l-0.6-0.3l-0.6-0.2c0,0-0.2-0.1-0.3-0.2C31.4,48.9,21,38.5,21,38.5c-1.3-1.3-1.3-3.3,0-4.6
	c1.3-1.3,3.3-1.3,4.6,0l4.7,4.7V20.5c0-1.8,1.5-3.3,3.3-3.3s3.3,1.5,3.3,3.3v18.1l4.7-4.7c1.3-1.3,3.3-1.3,4.6,0s1.3,3.3,0,4.6
	L35.8,48.8z"/>
</svg>
