<?xml version="1.0" encoding="utf-8"?>
<!-- Generator: Adobe Illustrator 19.0.1, SVG Export Plug-In . SVG Version: 6.00 Build 0)  -->
<svg version="1.1" id="Layer_1" xmlns="http://www.w3.org/2000/svg" xmlns:xlink="http://www.w3.org/1999/xlink" x="0px" y="0px"
	 viewBox="0 0 12 12" style="enable-background:new 0 0 12 12;" xml:space="preserve">
<g>
	<path d="M5.4,0.2C5.1,0.5,5.1,1,5.4,1.3l5.3,5.2c0.3,0.3,0.8,0.3,1.1,0s0.3-0.8,0-1.1L6.5,0.2C6.2-0.1,5.7-0.1,5.4,0.2z"/>
	<path d="M5.4,11.8c0.3,0.3,0.8,0.3,1.1,0l5.3-5.2c0.3-0.3,0.3-0.8,0-1.1c-0.3-0.3-0.8-0.3-1.1,0l-5.2,5.1
		C5.2,10.9,5.2,11.4,5.4,11.8z"/>
	<path d="M0,6c0,0.4,0.3,0.8,0.7,0.7h10.5C11.7,6.6,12,6.3,12,6c0-0.4-0.3-0.7-0.8-0.7H0.8C0.3,5.3,0,5.6,0,6z"/>
</g>
</svg>
