<?xml version="1.0" encoding="utf-8"?>
<!-- Generator: Adobe Illustrator 19.1.0, SVG Export Plug-In . SVG Version: 6.00 Build 0)  -->
<svg version="1.1" id="Layer_1" xmlns="http://www.w3.org/2000/svg" xmlns:xlink="http://www.w3.org/1999/xlink" x="0px" y="0px"
	 viewBox="0 0 24 24" style="enable-background:new 0 0 24 24;" xml:space="preserve">
<path d="M12,0C5.4,0,0,5.4,0,12s5.4,12,12,12s12-5.4,12-12S18.6,0,12,0z M17.9,10l-5.7,5.9l-1.9,1.9c-0.3,0.3-0.5,0.3-0.8,0l0,0
	c0,0,0,0,0,0l-1.9-1.9l0,0l-2.4-2.5C5.1,13.2,5,13.1,5,12.9c0-0.2,0.1-0.3,0.2-0.4L7,10.6c0.1-0.1,0.2-0.2,0.4-0.2
	c0.2,0,0.3,0,0.4,0.1l2,2.1l5.2-5.4C15.2,7.1,15.4,7,15.5,7c0.2,0,0.3,0.1,0.4,0.2l1.9,1.9C17.9,9.2,18,9.3,18,9.5
	C18,9.7,18,9.9,17.9,10z"/>
</svg>
