<?xml version="1.0" encoding="utf-8"?>
<!-- Generator: Adobe Illustrator 19.0.1, SVG Export Plug-In . SVG Version: 6.00 Build 0)  -->
<svg version="1.1" id="Layer_1" xmlns="http://www.w3.org/2000/svg" xmlns:xlink="http://www.w3.org/1999/xlink" x="0px" y="0px"
	 viewBox="0 0 11 6" style="enable-background:new 0 0 11 6;" xml:space="preserve">
<path d="M10.8,1.1L6,5.7c0,0,0,0.1,0,0.1C5.8,5.9,5.7,6,5.5,6C5.3,6,5.1,5.9,5,5.8c0,0,0,0,0-0.1L0.2,1.1c-0.3-0.3-0.3-0.7,0-0.9
	c0.3-0.3,0.7-0.3,1,0l4.3,4.2l4.3-4.2c0.3-0.3,0.7-0.3,1,0C11,0.4,11,0.9,10.8,1.1z"/>
</svg>
