<?xml version="1.0" encoding="utf-8"?>
<!-- Generator: Adobe Illustrator 19.0.1, SVG Export Plug-In . SVG Version: 6.00 Build 0)  -->
<svg version="1.1" id="Layer_1" xmlns="http://www.w3.org/2000/svg" xmlns:xlink="http://www.w3.org/1999/xlink" x="0px" y="0px"
	 viewBox="0 0 213 213" style="enable-background:new 0 0 213 213;" xml:space="preserve">
<g id="Close">
	<path d="M131.8,106.5l75.9-75.9c7-7,7-18.3,0-25.3c-7-7-18.3-7-25.3,0l-75.9,75.9L30.6,5.2c-7-7-18.3-7-25.3,0c-7,7-7,18.3,0,25.3
		l75.9,75.9L5.2,182.4c-7,7-7,18.3,0,25.3c7,7,18.3,7,25.3,0l75.9-75.9l75.9,75.9c7,7,18.3,7,25.3,0s7-18.3,0-25.3L131.8,106.5z"/>
</g>
</svg>
