<?xml version="1.0" encoding="utf-8"?>
<!-- Generator: Adobe Illustrator 19.0.1, SVG Export Plug-In . SVG Version: 6.00 Build 0)  -->
<svg version="1.1" id="Layer_1" xmlns="http://www.w3.org/2000/svg" xmlns:xlink="http://www.w3.org/1999/xlink" x="0px" y="0px"
	 viewBox="0 0 323 158" style="enable-background:new 0 0 323 158;" xml:space="preserve">
<g>
	<path d="M174.5,137.5l2.6-21.1l2.7,21.1H174.5L174.5,137.5z M249.4,37.7V0.1H139.2v22.3h70.3l-70.3,13.8v16.1l70.1,15.3h-70.1v24.6
		h110.2V56.4l-50.2-9.6L249.4,37.7L249.4,37.7z M167.5,96.4l-11.2,61.5h15.6l1.1-8.4h8.3l1.1,8.4H199l-11.2-61.5H167.5L167.5,96.4z
		 M139.7,96.4h-16.5v61.5h30.9v-13.3h-14.4V96.4L139.7,96.4z M284.8,108.8h10.8v49.1H312v-49.1h10.8V96.4h-38L284.8,108.8
		L284.8,108.8z M104.7,121.7c0,1.8-1.1,2.5-2.8,2.5h-2.6V109h2.6c1.7,0,2.8,0.7,2.8,2.5V121.7L104.7,121.7z M104.8,96.5H82.9V158
		h16.4v-21.5h5.5c7.8,0,15.2-4.9,15.2-12.7v-14.6C120,101.5,112.6,96.5,104.8,96.5L104.8,96.5z M265.8,132.3h15.6v-11.6h-15.6v-11.8
		h16V96.5h-32.4V158h32.8v-12.9h-16.4V132.3L265.8,132.3z M231.3,125.9l-15.6-29.4h-14.2V158h14.7v-28.9l16.2,28.9h13.5V96.5h-14.6
		V125.9L231.3,125.9z M133.7,92.1v-92h-24.6v92H133.7L133.7,92.1z M33.5,105.3l5.9-51.8l3.9,51.9L33.5,105.3L33.5,105.3z M20.9,0.1
		L0,157.9h27.9l2.9-24.7H45l2,24.7h32.7L58.5,0H20.9V0.1z M305.7,74.1v-74H285v92h38v-18H305.7L305.7,74.1z M83.3,92.1V41.8l11,50.3
		h9v-92h-8.8v51l-9.2-51H74.4v92H83.3L83.3,92.1z M267,24.8l2.4,39h-5.2L267,24.8L267,24.8z M263.3,75.4h6.9l1,16.7h10.8l-8.7-92
		H261l-8.8,92h9.7L263.3,75.4L263.3,75.4z M317.1,70.8v-3.9l0,0l-1.5,3.9h-0.5l-1.5-3.9l0,0v3.9h-0.8v-4.7h1.2l1.4,3.6l1.4-3.6h1.2
		v4.7H317.1L317.1,70.8z M310.3,66.8v4.1h-0.8v-4.1H308v-0.6h3.7v0.6H310.3L310.3,66.8z"/>
</g>
</svg>
