<?xml version="1.0" encoding="utf-8"?>
<!-- Generator: Adobe Illustrator 19.0.1, SVG Export Plug-In . SVG Version: 6.00 Build 0)  -->
<svg version="1.1" id="Layer_1" xmlns="http://www.w3.org/2000/svg" xmlns:xlink="http://www.w3.org/1999/xlink" x="0px" y="0px"
	 viewBox="0 0 663 141" style="enable-background:new 0 0 663 141;" xml:space="preserve">
<path d="M306.2,120.2l-3.2,3.1c-2.2-2.4-4.6-3.5-7.4-3.5c-2.3,0-4.2,0.8-5.8,2.4c-1.6,1.6-2.4,3.6-2.4,5.9c0,1.6,0.3,3.1,1,4.4
	c0.7,1.3,1.7,2.3,3,3s2.7,1.1,4.3,1.1c1.3,0,2.5-0.3,3.6-0.8c1.1-0.5,2.3-1.4,3.6-2.8l3.1,3.3c-1.8,1.8-3.5,3-5,3.7
	c-1.6,0.7-3.4,1-5.4,1c-3.7,0-6.8-1.2-9.2-3.6c-2.4-2.4-3.6-5.5-3.6-9.3c0-2.4,0.5-4.6,1.6-6.5s2.6-3.4,4.7-4.6
	c2-1.2,4.2-1.7,6.5-1.7c2,0,3.9,0.4,5.7,1.3C303.3,117.4,304.9,118.6,306.2,120.2L306.2,120.2z"/>
<polygon points="329.5,115.4 334.5,115.4 334.5,125.7 346.1,125.7 346.1,115.4 350.8,115.4 350.8,141 346.1,141 346.1,130.4 
	334.5,130.4 334.5,141 329.5,141 "/>
<path d="M387.3,121.3l-4.2,9.1h8.1L387.3,121.3L387.3,121.3z M385.2,115.3L385.2,115.3h4.3l11.2,25.7h-5.2l-2.6-6.3h-11.4l-2.7,6.3
	h-4.9L385.2,115.3L385.2,115.3z"/>
<polygon points="423.5,115.4 428.6,115.4 441.5,132.4 441.5,115.4 446.2,115.4 446.2,141 441.5,141 428.5,123.1 428.5,141 
	423.5,141 "/>
<polygon points="471.3,115.4 476.4,115.4 489.3,132.4 489.3,115.4 493.9,115.4 493.9,141 489.3,141 476.3,123.1 476.3,141 
	471.3,141 "/>
<polygon points="518.9,115.3 538.2,115.3 538.2,119.5 523.9,119.5 523.9,125.7 536.6,125.7 536.6,130.4 523.9,130.4 523.9,136.4 
	538.2,136.4 538.2,141 518.9,141 "/>
<polygon points="562.2,115.4 567.2,115.4 567.2,136.3 580.3,136.3 580.3,141 562.2,141 "/>
<polygon points="634,127.3 634,120.4 631.4,120.4 631.4,119.5 637.8,119.5 637.8,120.4 635.1,120.4 635.1,127.3 "/>
<path d="M638.5,127.3v-7.8h1.6l1.9,5.5l0.4,1.2c0.1-0.3,0.2-0.7,0.4-1.3l1.9-5.4h1.4v7.8h-1v-6.6l-2.3,6.6h-1l-2.3-6.7v6.7
	L638.5,127.3L638.5,127.3z"/>
<path d="M55.1,16.2V0h33.6c27.4,0,52,14.9,52,48.3c0,32.2-30.4,46.1-47.7,46.1H61.9c7.7-4.8,12.1-10,14-15.3h17.2
	c15.4,0,30.2-11.7,30.2-30.9c0-20.3-12.7-33.2-30.2-33.2h-21v14C68.6,23.8,60.5,17.6,55.1,16.2L55.1,16.2z"/>
<polygon points="166.8,94.5 150.1,94.5 150.1,23.5 166.8,23.5 "/>
<path d="M232.8,30.7l-6.4,11.3c-6.9-5.8-29.8-11.3-29.8,0.7c0,13.3,38,5.8,38,32c0,23.1-33,28.2-56.9,10.9l7.5-10.9
	c6.8,6.8,34.3,15.6,34.3,1c0-14.1-38.3-6.2-38.3-32C181.1,21.5,211.5,16.1,232.8,30.7L232.8,30.7z"/>
<path d="M297.1,45.3c-11.2-14.6-38.8-12-38.8,14.3c0,25.7,29.9,27.8,39.3,13.7c2.1,2.1,7.8,7.6,9.9,9.7
	c-22.2,26.3-65.6,11.3-65.6-23.5c0-36.1,43.5-49.1,65.2-25.3L297.1,45.3L297.1,45.3z"/>
<path d="M350.2,82.1c-12.6,0-22-9.4-22-22.8c0-14.4,10.1-22.8,22-22.8c11.9,0,21.5,10.7,21.5,22.8C371.6,72.7,362,82.1,350.2,82.1
	L350.2,82.1z M349.6,22.3L349.6,22.3c-21,0-38.1,16.6-38.1,37s17,37,38.1,37c21,0,38.1-16.6,38.1-37
	C387.7,38.8,370.7,22.3,349.6,22.3L349.6,22.3z"/>
<polygon points="388.3,23.5 405.9,23.5 425,75.9 444.4,23.5 461.5,23.5 432.4,95.5 417.6,95.5 "/>
<path d="M479.3,52.7c3.9-22.9,33.9-22.9,36.6,0H479.3L479.3,52.7z M463,59.2L463,59.2c0,38.3,48.2,48.2,65.8,23.9l-9.7-8.5
	c-7.4,10.8-35.2,15.3-39.9-9.7h52.6C535.9,7.5,463,11.2,463,59.2L463,59.2z"/>
<path d="M544.1,23.5h16.6v12.1c0,0,7.9-10,21.7-11.3l5.5,13.6c-7.1,0-27.3,7.5-27.3,27.7v29h-16.5V23.5L544.1,23.5z"/>
<path d="M593.4,23.5h17.4l16.9,52.2L646,23.5h16.8c0,0-29.2,74.7-34.8,88.6c-4.3,10.9-10.5,15.6-24.4,15.6h-10.2V114h12.3
	c7.4,0,13.9-19.7,13.9-19.7L593.4,23.5L593.4,23.5z"/>
<path d="M-0.1,57.3c0,20.5,16.6,37,37.1,37s37.1-16.6,37.1-37s-16.6-37-37.1-37C16.4,20.3-0.1,36.8-0.1,57.3L-0.1,57.3z"/>
</svg>
