<?xml version="1.0" encoding="utf-8"?>
<!-- Generator: Adobe Illustrator 19.1.0, SVG Export Plug-In . SVG Version: 6.00 Build 0)  -->
<svg version="1.1" id="Layer_1" xmlns="http://www.w3.org/2000/svg" xmlns:xlink="http://www.w3.org/1999/xlink" x="0px" y="0px"
	 viewBox="0 0 83 82" style="enable-background:new 0 0 83 82;" xml:space="preserve">
<path d="M0,0c12.9,0,25.8,0,38.6,0c2.2,0,4.4-0.1,6.7,0.2C55,1,64.3,5.4,71.1,12.4c4.4,4.5,7.9,10,9.8,16c2,6.1,2.5,12.8,1.5,19.1
	c-1,6.1-3.4,11.9-6.9,16.9c-3.2,4.5-7.2,8.3-11.9,11.2C57.8,79.3,51,81.5,44,81.9C42.5,82,40.9,82,39.4,82C26.3,82,13.1,82,0,82
	C0,54.7,0,27.3,0,0L0,0z M37.6,24.2c-4.9,0.3-9.7,2.8-12.7,6.8c-2.2,2.9-3.4,6.6-3.4,10.2c0,3.8,1.4,7.6,3.8,10.5
	c2.6,3.2,6.5,5.4,10.5,6c4,0.6,8.2-0.2,11.6-2.3c3.2-1.9,5.7-4.9,7.1-8.4c1.2-3.2,1.4-6.8,0.6-10.1c-1-3.7-3.2-7.1-6.3-9.3
	C45.6,25.1,41.6,23.9,37.6,24.2L37.6,24.2z"/>
</svg>
