<?xml version="1.0" encoding="utf-8"?>
<!-- Generator: Adobe Illustrator 19.0.1, SVG Export Plug-In . SVG Version: 6.00 Build 0)  -->
<svg version="1.1" id="Layer_1" xmlns="http://www.w3.org/2000/svg" xmlns:xlink="http://www.w3.org/1999/xlink" x="0px" y="0px"
	 viewBox="0 0 577 234" style="enable-background:new 0 0 577 234;" xml:space="preserve">
<path style="enable-background:new    ;" d="M459.1,233.4c-47.6,0-88.6-27.9-107.2-68.1c0,0.8,0,1.6,0,2.5
	c0,17.8-9.5,36.6-24.5,47.1c-16.1,11.5-32.3,18.3-51.2,18.3h-95.7V3.4h102.1c15.9,0,29.1,5.7,42.2,15.1c14,9.9,23.8,28.3,23.8,45.2
	c0,5.4-0.3,10.2-0.9,14.7C363.8,32.7,407.6,0,459.1,0C524.2,0,577,52.2,577,116.7C577,181.1,524.2,233.4,459.1,233.4z M290.1,70.7
	c0-15.4-12.8-17.5-25-17.5h-25v39.7l25.6-0.1C282.6,92.8,291,84.6,290.1,70.7z M265.4,138.6h-25.3v42.2h27.8
	c6.4,0,13.4,0.3,18.6-3.9c4.6-3.3,8.1-10.9,8.1-16.6C293.9,142.5,280.8,138.6,265.4,138.6z M321.8,115.4
	c9.6,5.5,16.3,11.1,20.8,17.1c-0.7-5.2-1.1-10.4-1.1-15.8c0-7.8,0.8-15.4,2.2-22.8C339.7,103,332.7,109.8,321.8,115.4z M458.6,56
	c-33.9,0-61.3,27.2-61.3,60.7c0,33.5,27.4,60.7,61.3,60.7c33.9,0,61.3-27.2,61.3-60.7C519.9,83.2,492.4,56,458.6,56z M458.6,161.2
	c-24.8,0-45-19.9-45-44.5c0-24.6,20.1-44.5,45-44.5c24.8,0,45,19.9,45,44.5C503.5,141.3,483.4,161.2,458.6,161.2z M107.3,143.6H59.1
	v90H0V3h59.4v84.8h48.2V3h59.9v230.6h-60.2V143.6z M553.1,220.4c4,0,7.1,2.8,7.1,6.8c0,4-3.2,6.8-7.1,6.8s-7.1-2.8-7.1-6.8
	C545.9,223.2,549.1,220.4,553.1,220.4z M553.1,232.1c2.8,0,5-2.1,5-4.9c0-2.8-2.1-4.9-5-4.9c-2.9,0-5,2.1-5,4.9
	C548.1,230,550.2,232.1,553.1,232.1z M556.1,225.8c0,1.4-0.8,1.9-1.8,1.9l1.9,3.2H554l-1.7-3.1H552v3.1h-1.9v-7.3h2.8
	C554.9,223.5,556.1,224,556.1,225.8z M552,224.8v1.7h1.1c0.6,0,1-0.2,1-0.9c0-0.7-0.6-0.8-1.2-0.8H552z"/>
</svg>
