<?xml version="1.0" encoding="utf-8"?>
<!-- Generator: Adobe Illustrator 19.1.0, SVG Export Plug-In . SVG Version: 6.00 Build 0)  -->
<svg version="1.1" id="Layer_1" xmlns="http://www.w3.org/2000/svg" xmlns:xlink="http://www.w3.org/1999/xlink" x="0px" y="0px"
	 viewBox="0 0 459 77" style="enable-background:new 0 0 459 77;" xml:space="preserve">
<path d="M7.8,16.9C18.9,4,41.3,2.4,54.6,16.4c10.7,11.3,11.8,32.7,0,43.7C42.5,71.3,22,72.8,12.4,64C-1.1,51.5-5,31.7,7.8,16.9
	L7.8,16.9z"/>
<g>
	<path d="M385.2,25.4h-2c-4.3,0-7.9,3.5-7.9,7.9v13.9c0,4.3,3.5,7.9,7.9,7.9h2c4.3,0,7.9-3.5,7.9-7.9V33.3
		C393,28.9,389.5,25.4,385.2,25.4z"/>
	<path d="M193.9,25.4h-2c-4.3,0-7.9,3.5-7.9,7.9v13.9c0,4.3,3.5,7.9,7.9,7.9h2c4.3,0,7.9-3.5,7.9-7.9V33.3
		C201.8,28.9,198.2,25.4,193.9,25.4z"/>
	<path d="M227,25.3h-7.2v14.5h7.2c4,0,7.3-3.3,7.3-7.3l0,0C234.3,28.6,231,25.3,227,25.3z"/>
	<path d="M447.8,0h-354c-6.2,0-11.3,5.1-11.3,11.3v54.4c0,6.2,5.1,11.3,11.3,11.3h353.9c6.2,0,11.3-5.1,11.3-11.3V11.3
		C459.1,5.1,454,0,447.8,0z M120.2,47.1L120.2,47.1v0.1l0,0c0.2,4.5,4,8.1,8.5,8.1c3.5,0,6.7-0.3,10.2-0.9l0.9,5.3
		c-2.8,0.9-8.8,1.4-13,1.4c-5.7,0-12.1-5.3-12.7-13c0-0.3,0-0.5,0-0.8v-0.4v-11v-2c0-8.3,6.8-14.2,12.8-14.2c4.2,0,10.1,0.5,13,1.4
		l-0.9,5.3c-3.5-0.6-6.6-0.9-10.2-0.9c-4.6,0-8.4,3.7-8.5,8.3v0.1l0,0V34v0.1v0.1v0.1v0.1v0.1v0.1v0.1v0.1v0.1V35v0.1v0.1v0.1v0.1
		v0.1v0.1v0.1v0.1v0.1V36v0.1v0.1v0.1v0.1v0.1v0.1v0.1v0.1v0.1V37v0.1v0.1v0.1v0.1v0.1v0.1v0.1v0.1v0.1V38v0.1v0.1v0.1v0.1v0.1v0.1
		v0.1v0.1V39v0.1v0.1v0.1v0.1v0.1v0.1v0.1v0.1v0.1V40v0.1v0.1v0.1v0.1v0.1v0.1v0.1v0.1v0.1V41v0.1v0.1v0.1v0.1v0.1v0.1v0.1v0.1v0.1
		V42v0.1v0.1v0.1v0.1v0.1v0.1v0.1v0.1v0.1V43v0.1v0.1v0.1v0.1v0.1v0.1v0.1v0.1v0.1V44v0.1v0.1v0.1v0.1v0.1v0.1v0.1v0.1v0.1V45v0.1
		v0.1v0.1v0.1v0.1v0.1v0.1v0.1v0.1V46v0.1v0.1v0.1v0.1v0.1v0.1v0.1v0.1C120.2,46.8,120.2,47,120.2,47.1z M172.7,60.2
		c0,0.5-0.4,0.9-0.9,0.9h-4.9c-0.5,0-0.9-0.4-0.9-0.9v-34h-16.4v34c0,0.5-0.4,0.9-0.9,0.9h-4.9c-0.5,0-0.9-0.4-0.9-0.9v-35
		c0-2.7,2.2-4.8,4.8-4.8h0.6h0.3h18h0.1h0.1h0.9c2.7,0,4.8,2.2,4.8,4.8v35H172.7z M207.9,47.7c0,7.3-6,13.3-13.3,13.3h-3.4
		c-7.3,0-13.3-6-13.3-13.3V32.9c0-7.3,6-13.3,13.3-13.3h3.4c7.3,0,13.3,6,13.3,13.3V47.7z M240.1,32.6c0,6.8-5.5,12.3-12.3,12.3
		h-7.9v15.2c0,0.5-0.4,0.9-0.9,0.9H214c-0.5,0-0.9-0.4-0.9-0.9V21.1c0-0.5,0.4-0.9,0.9-0.9h3h1.9h8.7
		C234.5,20.3,240.1,25.8,240.1,32.6L240.1,32.6z M270.4,25.4c0,0.4-0.3,0.8-0.8,0.8h-10v34c0,0.5-0.4,0.9-0.9,0.9h-4.9
		c-0.5,0-0.9-0.4-0.9-0.9v-34h-10c-0.4,0-0.8-0.3-0.8-0.8v-4.3c0-0.4,0.3-0.8,0.8-0.8h26.7c0.4,0,0.8,0.3,0.8,0.8L270.4,25.4
		L270.4,25.4z M316.5,60.2c0,0.5-0.4,0.9-0.9,0.9h-4.9c-0.5,0-0.9-0.4-0.9-0.9v-34h-16.4v34c0,0.5-0.4,0.9-0.9,0.9h-4.9
		c-0.5,0-0.9-0.4-0.9-0.9v-35c0-2.7,2.2-4.8,4.8-4.8h0.6h0.3h18h0.1h0.1h0.9c2.7,0,4.8,2.2,4.8,4.8v35H316.5z M352.1,61.1h-5.2
		c-0.5,0-1-0.4-1.1-0.9l-9.6-35.4l-9.6,35.4c-0.1,0.5-0.6,0.9-1.1,0.9h-5.1c-0.5,0-0.7-0.4-0.6-0.9l10.5-36.6
		c0.7-3.1,3.8-3.2,5.1-3.2h1.5c1.5,0,4.3,0.2,5.2,3.6l10.4,36.2C352.8,60.7,352.5,61.1,352.1,61.1z M399.2,47.7
		c0,7.3-6,13.3-13.3,13.3h-3.4c-7.3,0-13.3-6-13.3-13.3v-4.6h-6.6v17.1c0,0.5-0.4,0.9-0.9,0.9h-4.9c-0.5,0-0.9-0.4-0.9-0.9V21.1
		c0-0.5,0.4-0.9,0.9-0.9h4.9c0.5,0,0.9,0.4,0.9,0.9v16h6.6v-4.2c0-7.3,6-13.3,13.3-13.3h3.4c7.3,0,13.3,6,13.3,13.3V47.7z
		 M409.6,47.1L409.6,47.1v0.1l0,0c0.2,4.5,4,8.1,8.5,8.1c3.5,0,6.7-0.3,10.2-0.9l0.9,5.3c-2.8,0.9-8.8,1.4-13,1.4
		c-5.7,0-12.1-5.3-12.7-13c0-0.3,0-0.5,0-0.8v-0.4v-11v-2c0-8.3,6.8-14.2,12.8-14.2c4.2,0,10.1,0.5,13,1.4l-0.9,5.3
		c-3.5-0.6-6.6-0.9-10.2-0.9c-4.6,0-8.4,3.7-8.5,8.3v0.1l0,0V34v0.1v0.1v0.1v0.1v0.1v0.1v0.1v0.1v0.1V35v0.1v0.1v0.1v0.1v0.1v0.1
		v0.1v0.1v0.1V36v0.1v0.1v0.1v0.1v0.1v0.1v0.1v0.1v0.1V37v0.1v0.1v0.1v0.1v0.1v0.1v0.1v0.1v0.1V38v0.1v0.1v0.1v0.1v0.1v0.1v0.1v0.1
		V39v0.1v0.1v0.1v0.1v0.1v0.1v0.1v0.1v0.1V40v0.1v0.1v0.1v0.1v0.1v0.1v0.1v0.1v0.1V41v0.1v0.1v0.1v0.1v0.1v0.1v0.1v0.1v0.1V42v0.1
		v0.1v0.1v0.1v0.1v0.1v0.1v0.1v0.1V43v0.1v0.1v0.1v0.1v0.1v0.1v0.1v0.1v0.1V44v0.1v0.1v0.1v0.1v0.1v0.1v0.1v0.1v0.1V45v0.1v0.1v0.1
		v0.1v0.1v0.1v0.1v0.1v0.1V46v0.1v0.1v0.1v0.1v0.1v0.1v0.1v0.1C409.6,46.8,409.6,47,409.6,47.1z"/>
</g>
</svg>
