<?xml version="1.0" encoding="utf-8"?>
<!-- Generator: Adobe Illustrator 19.0.1, SVG Export Plug-In . SVG Version: 6.00 Build 0)  -->
<svg version="1.1" id="Layer_1" xmlns="http://www.w3.org/2000/svg" xmlns:xlink="http://www.w3.org/1999/xlink" x="0px" y="0px"
	 viewBox="0 0 110 72" style="enable-background:new 0 0 110 72;" xml:space="preserve">
<path d="M49.2,46.1c0-1.3,1-2.3,2.3-2.3c1.3,0,2.3,1,2.3,2.3c0,1.3-1,2.3-2.3,2.3C50.2,48.4,49.2,47.3,49.2,46.1z M87.9,42.4H82V35
	h6c1.9,0,3.5,1.6,3.5,3.6C91.5,40.8,89.7,42.4,87.9,42.4z M88.9,56.9H82v-7.7h6.9c2.3,0,4,1.6,4,3.8C92.9,55.3,91.3,56.9,88.9,56.9z
	 M90.4,64.2c7.3,0,11.8-4.2,11.8-10.8c0-3.9-2-7.1-5.6-8.6c2.8-1.9,3.4-4.5,3.4-7.3c0-6.4-4.9-9.6-11.7-9.6H67.5V35h6v21.9h-6v7.3
	H90.4z M43.7,27.9H29.9v14.5h-8.4V27.9H7.7V35h6v21.9h-6v7.3h13.9v-15h8.4v15h13.9v-7.3h-5.8V35h5.8V27.9z M105.3,44.5
	c2.7,2,4.7,5.4,4.7,9.3c0,6-1.9,9.6-5.2,12.9C101.5,69.9,96,72,89.5,72H59.9v-8.5c4.6-1.7,8-6.2,8-11.4c0-5.2-3.3-9.7-8-11.4V13.7
	h7.7v6.8h7.5v-13H36.2v13h7.5v-6.8h7.6v27c-4.6,1.7-8,6.2-8,11.4c0,5.2,3.3,9.7,8,11.4V72H0V49.2h6.1v-6.8H0V20.1h28.3V0h54.8v20.1
	h3.8c5.7,0,11.2,1.3,14.7,3.9c3.8,2.8,6.2,6.9,6.2,12.5C107.8,38.9,107.3,42.4,105.3,44.5z"/>
</svg>
