<?xml version="1.0" encoding="utf-8"?>
<!-- Generator: Adobe Illustrator 19.1.0, SVG Export Plug-In . SVG Version: 6.00 Build 0)  -->
<svg version="1.1" id="Layer_1" xmlns="http://www.w3.org/2000/svg" xmlns:xlink="http://www.w3.org/1999/xlink" x="0px" y="0px"
	 viewBox="0 0 121 57" style="enable-background:new 0 0 121 57;" xml:space="preserve">
<path d="M121,8.2h-12.6v17.9H95.3V8.2v0H82.7v0v48.5l0,0h12.6l0,0V38.6h13.1v18.2H121V8.2L121,8.2z M26.7,52.1L14.1,57V38.4l-1.8,0
	L0,25.7l14.1,0.2V4.6L26.7,0l23.2,26.3l-5.5,12.3l-17.7-0.1V52.1L26.7,52.1z M33.3,26.1l-6.6-7.3V26L33.3,26.1L33.3,26.1z
	 M80.3,56.7H59.4l0,0H46.8l0,0V44.5v-4.1l6.5-14.6l-6.5-7.4V8.2h12.6h20.9v12.3H59.4v5.7h17.1v12.4H59.4v5.9h20.9V56.7L80.3,56.7z"
	/>
</svg>
