<?xml version="1.0" encoding="utf-8"?>
<!-- Generator: Adobe Illustrator 19.1.0, SVG Export Plug-In . SVG Version: 6.00 Build 0)  -->
<svg version="1.1" id="Layer_1" xmlns="http://www.w3.org/2000/svg" xmlns:xlink="http://www.w3.org/1999/xlink" x="0px" y="0px"
	 viewBox="0 0 469 177" style="enable-background:new 0 0 469 177;" xml:space="preserve">
<path d="M41.4,13.2c13.3-8.7,29.2-13.4,45.1-13c20.5-0.5,40.8,7.1,57,19.4c6.9,5.2,13.7,12,15,20.9c1.4,7.8-3.6,15.8-10.5,19.2
	c-5.2,2.5-11.6,2.6-16.7,0c-4.4-2-7.6-5.7-11.4-8.5c-7.3-5.6-15.7-10-24.9-11.4c-10.4-1.6-21.5,0.3-30.6,5.7
	c-14,8.3-24.1,23.5-24.7,40c-0.4,10,1.7,20.3,7.2,28.9c6.6,10.4,17,18.6,29,21.7c10.8,2.8,22.6,2.4,32.7-2.4
	c7.1-3.1,12.6-8.7,18.5-13.6c2.9-2.5,6.3-4.5,10.1-5.2c7.4-1.3,15.6,1.7,19.9,8.1c3.4,4.6,3.6,10.8,2.2,16.2
	c-2.4,7.7-8.3,13.5-14.5,18.4c-14.9,11.3-33.1,18.9-51.9,19.2c-9.3,0.3-18.8-0.4-27.8-3c-21.2-5.6-39.4-20-51.5-38.2
	c-9.9-14.9-14.3-33-13.6-50.8C0.5,74.4,2.5,64,6.6,54.3C13.8,37.5,26.4,23.3,41.4,13.2L41.4,13.2z M259,105.7l0.2,0.1
	c-0.2,16.6,0,33.1-0.1,49.8c0,6-1.9,12.3-6.5,16.4c-3.7,3.5-8.7,5.4-13.8,5c-5.3,0.3-10.5-2.2-14-6.1c-4-4.3-5.4-10.3-5.3-16
	c0-23.4,0-46.8,0-70.2c0-16.1,0-32.2,0-48.3c-10.7-0.1-21.4,0-32.1,0c-5.2,0-10.6-1.3-14.5-5c-7.2-6.5-7.3-19.2-0.3-25.9
	c3.3-3.3,8.1-5,12.7-5.1c35.8,0,71.7,0,107.4,0c6.9,0,13.8,4.1,16.6,10.5c1.6,3.3,1.4,7.1,1.2,10.7c-0.8,5.8-5,11-10.4,13.1
	c-3.2,1.3-6.6,1.6-10,1.6c-10.4,0-20.7,0-31.1,0C259,59.3,259.1,82.4,259,105.7L259,105.7z M348.9,84.4c-0.6,10.1,1.4,20.5,6.6,29.2
	c6.5,10.6,16.8,19,28.9,22.3c11.1,3,23.3,2.6,33.8-2.5c4.9-2.2,9-5.7,13.1-9.2c3.7-3.2,7.3-6.8,12-8.5c10.1-3.9,23,2.3,25.5,13.1
	c0.5,4.2,0.6,8.7-1.2,12.7c-2.9,6.7-8.3,11.9-13.9,16.2c-15.6,11.8-34.9,19.4-54.6,19c-11.1,0.2-22.2-1.5-32.6-5.5
	c-12.1-4.5-23-12-32.1-21.3c-12.6-12.6-21.5-29.1-24.1-46.9c-1.1-6.1-1-12.4-1-18.6c0.3-18,6.8-35.7,18-50
	c7.8-9.8,17.3-18.4,28.3-24.5c10.5-5.9,22.3-9.3,34.3-9.9c7-0.1,14.1-0.2,21,1c14,2.3,27.3,8,38.8,16.2c6.3,4.4,12.5,9.5,15.9,16.5
	c2.8,5.6,3.2,12.7-0.2,18.1c-3.4,5.9-10,9.7-16.8,9.6c-5.4,0.1-10.4-2.6-14.3-6.1c-6.8-6.1-14.6-11.3-23.4-14.1
	c-12.2-3.9-26.1-2.5-37.1,4C359.9,53.6,349.8,68.3,348.9,84.4L348.9,84.4z"/>
</svg>
