<?xml version="1.0" encoding="utf-8"?>
<!-- Generator: Adobe Illustrator 19.1.0, SVG Export Plug-In . SVG Version: 6.00 Build 0)  -->
<svg version="1.1" id="Layer_1" xmlns="http://www.w3.org/2000/svg" xmlns:xlink="http://www.w3.org/1999/xlink" x="0px" y="0px"
	 viewBox="0 0 200 26" enable-background="new 0 0 200 26" xml:space="preserve">
<path d="M97,0.1c-1.8,0.1-3.5,0.3-5.2,0.9c0,1.7,0,3.5,0,5.3c1.4-0.6,2.9-0.9,4.4-1.1c1.2-0.1,2.4-0.2,3.6,0.1
	c0.7,0.2,1.4,0.4,1.9,1c0.5,0.6,0.7,1.5,0.5,2.2c-0.1,0.7-0.6,1.2-1.1,1.6c-0.8,0.5-1.7,0.7-2.6,0.7c-1,0-2.1,0-3.1,0
	c0,1.4,0,2.9,0,4.3c1,0,2.1,0,3.1,0c0.9,0,1.9,0.1,2.7,0.5c0.6,0.3,1.1,0.9,1.3,1.5c0.2,0.7,0.1,1.5-0.2,2.2
	c-0.4,0.7-1.1,1.2-1.8,1.5c-1.3,0.5-2.8,0.5-4.1,0.4c-1.9-0.2-3.8-0.8-5.5-1.7c0,1.9,0,3.8,0,5.6c2.1,0.6,4.4,0.9,6.6,1
	c2.2,0.1,4.4-0.1,6.5-0.7c1.5-0.5,3-1.2,4.1-2.5c1-1.1,1.5-2.6,1.6-4c0.1-1.5-0.3-3.2-1.3-4.3c-1-1.1-2.4-1.7-3.8-2
	c0.2-0.1,0.5-0.2,0.7-0.3c1-0.3,1.9-0.9,2.6-1.6c0.9-1,1.4-2.3,1.4-3.6c0-1.4-0.4-2.9-1.3-4c-1-1.2-2.4-1.9-3.8-2.3
	C101.8,0,99.4-0.1,97,0.1L97,0.1z"/>
<path d="M7.1,0.4C6.3,3.2,5.5,6,4.8,8.8c5.8-2,11.5-4.1,17.3-6.1c0.2-0.7,0.4-1.5,0.7-2.2C17.5,0.4,12.3,0.4,7.1,0.4L7.1,0.4z"/>
<path d="M32.8,0.4c0,8.4,0,16.8,0,25.1c2.3,0,4.6,0,6.9,0c0-6.2,0-12.3,0-18.5c0,0,0.1,0.1,0.1,0.1c2.2,2.4,4.5,4.8,6.7,7.2
	c2.2-2.4,4.4-4.8,6.6-7.1c0.1-0.1,0.1-0.1,0.2-0.2c0,6.2,0,12.3,0,18.5c2.3,0,4.6,0,6.9,0c0-8.4,0-16.8,0-25.1c-2.6,0-5.3,0-7.9,0
	c-1.9,2.1-3.9,4.2-5.8,6.3c-1.9-2.1-3.9-4.2-5.8-6.3C38.1,0.4,35.4,0.4,32.8,0.4L32.8,0.4z"/>
<path d="M63,0.4c3.2,6,6.4,12.1,9.6,18.1c-1.4,2.3-2.8,4.7-4.3,7c2.5,0,5,0,7.5,0c4.4-8.4,8.7-16.8,13.1-25.1c-2.6,0-5.1,0-7.7,0
	c-1.7,3.9-3.4,7.9-5.1,11.8c-0.5-0.9-0.9-1.9-1.3-2.9c-1.3-3-2.7-6-4-9C68.1,0.4,65.6,0.4,63,0.4L63,0.4z"/>
<path d="M135.5,0.4c0,8.4,0,16.8,0,25.1c2.3,0,4.6,0,7,0c0-8.4,0-16.8,0-25.1C140.1,0.4,137.8,0.4,135.5,0.4L135.5,0.4z"/>
<path d="M147.2,0.4c0,8.4,0,16.8,0,25.1c2.3,0,4.6,0,7,0c0-4.3,0-8.7,0-13c0.2,0.2,0.4,0.5,0.6,0.8c2.8,4.1,5.6,8.2,8.3,12.3
	c2.9,0,5.9,0,8.8,0c-3.3-4.5-6.7-9-10-13.5c3.1-3.9,6.2-7.8,9.3-11.7c-2.8,0-5.5,0-8.3,0c-2,2.8-4,5.5-6.1,8.3
	c-0.9,1.2-1.7,2.4-2.6,3.5c0-3.9,0-7.9,0-11.8C151.8,0.4,149.5,0.4,147.2,0.4L147.2,0.4z"/>
<path d="M10.3,7.8c-1.7,5.9-3.4,11.9-5,17.8c3.4,0,6.9,0,10.3,0c2.1-7.3,4.2-14.6,6.2-22C17.9,5,14.1,6.4,10.3,7.8L10.3,7.8z"/>
<path d="M4.6,9.8C3,15,1.5,20.3,0,25.6c1.4,0,2.9,0,4.3,0c1.7-5.8,3.3-11.7,5-17.5C7.7,8.6,6.1,9.2,4.6,9.8L4.6,9.8z"/>
<path d="M97,0.1c2.4-0.1,4.8-0.1,7.1,0.6c1.4,0.4,2.9,1.2,3.8,2.3c0.9,1.1,1.3,2.6,1.3,4c0,1.3-0.5,2.7-1.4,3.6
	c-0.7,0.8-1.7,1.3-2.6,1.6c-0.2,0.1-0.5,0.1-0.7,0.3c1.4,0.3,2.8,0.9,3.8,2c1.1,1.2,1.5,2.8,1.3,4.3c-0.1,1.5-0.6,2.9-1.6,4
	c-1.1,1.2-2.5,2-4.1,2.5c-2.1,0.7-4.3,0.8-6.5,0.7c-2.2-0.1-4.4-0.4-6.6-1c0-1.9,0-3.8,0-5.6c1.7,0.9,3.6,1.5,5.5,1.7
	c1.4,0.1,2.8,0.1,4.1-0.4c0.7-0.3,1.4-0.8,1.8-1.5c0.3-0.7,0.4-1.5,0.2-2.2c-0.2-0.7-0.7-1.2-1.3-1.5c-0.8-0.4-1.8-0.5-2.7-0.5
	c-1,0-2.1,0-3.1,0c0-1.4,0-2.9,0-4.3c1,0,2.1,0,3.1,0c0.9,0,1.8-0.2,2.6-0.7c0.6-0.4,1-0.9,1.1-1.6c0.1-0.8,0-1.6-0.5-2.2
	c-0.5-0.6-1.2-0.8-1.9-1c-1.2-0.3-2.4-0.2-3.6-0.1c-1.5,0.2-3,0.5-4.4,1.1c0-1.8,0-3.5,0-5.3C93.5,0.4,95.3,0.2,97,0.1L97,0.1z"/>
<path d="M32.8,0.4c2.6,0,5.3,0,7.9,0c1.9,2.1,3.9,4.2,5.8,6.3c1.9-2.1,3.9-4.2,5.8-6.3c2.6,0,5.3,0,7.9,0c0,8.4,0,16.8,0,25.1
	c-2.3,0-4.6,0-6.9,0c0-6.2,0-12.3,0-18.5c-0.1,0-0.2,0.1-0.2,0.2c-2.2,2.4-4.4,4.8-6.6,7.1c-2.3-2.4-4.5-4.8-6.7-7.2
	c0,0-0.1-0.1-0.1-0.1c0,6.2,0,12.3,0,18.5c-2.3,0-4.6,0-6.9,0C32.8,17.2,32.8,8.8,32.8,0.4L32.8,0.4z"/>
<path d="M63,0.4c2.6,0,5.2,0,7.8,0c1.3,3,2.7,6,4,9c0.4,1,0.8,1.9,1.3,2.9c1.7-3.9,3.4-7.9,5.1-11.8c2.6,0,5.1,0,7.7,0
	c-4.3,8.4-8.7,16.8-13.1,25.2c-2.5,0-5,0-7.5,0c1.4-2.4,2.8-4.7,4.3-7C69.4,12.5,66.2,6.5,63,0.4L63,0.4z"/>
<path d="M132.9,14.9c-0.3-1.2-0.9-2.4-1.9-3.3c-1.2-1.2-2.7-1.8-4.3-2.1c-2-0.4-4-0.2-6.1-0.3c0-2.9,0-5.8,0-8.7c-2.3,0-4.6,0-7,0
	c0,8.4,0,16.8,0,25.1c2.9,0,5.8,0,8.7,0c1.9,0,3.7-0.1,5.5-0.6c1.4-0.4,2.7-1.1,3.6-2.2c0.9-1,1.4-2.4,1.6-3.7
	C133.2,17.7,133.2,16.2,132.9,14.9z M126.2,17.5c0,0.8-0.2,1.6-0.7,2.1c-0.5,0.6-1.3,0.9-2,1c-0.9,0.2-1.9,0.1-2.9,0.1
	c0-2.3,0-4.6,0-6.9c1,0,2.1-0.1,3.1,0.2c0.8,0.2,1.5,0.6,1.9,1.2C126.1,15.9,126.2,16.7,126.2,17.5z"/>
<path d="M135.5,0.4c2.3,0,4.6,0,7,0c0,8.4,0,16.8,0,25.1c-2.3,0-4.6,0-7,0C135.5,17.2,135.5,8.8,135.5,0.4L135.5,0.4z"/>
<path d="M147.2,0.4c2.3,0,4.6,0,7,0c0,3.9,0,7.9,0,11.8c0.9-1.1,1.7-2.3,2.6-3.5c2-2.8,4-5.5,6.1-8.3c2.8,0,5.5,0,8.3,0
	c-3.1,3.9-6.2,7.8-9.3,11.7c3.3,4.5,6.7,9,10,13.5c-2.9,0-5.9,0-8.8,0c-2.8-4.1-5.6-8.2-8.3-12.3c-0.2-0.3-0.3-0.5-0.6-0.8
	c0,4.3,0,8.7,0,13c-2.3,0-4.6,0-7,0C147.2,17.2,147.2,8.8,147.2,0.4L147.2,0.4z"/>
<path d="M190.3,0.4c-2.9,0-5.9,0-8.8,0c-3.1,8.4-6.3,16.8-9.4,25.1c2.3,0,4.7,0,7,0c0.7-1.8,1.3-3.6,1.9-5.4c3.1,0,6.3,0,9.5,0
	c0.6,1.8,1.2,3.6,1.9,5.4c2.5,0,5.1,0,7.6,0C196.8,17.2,193.5,8.8,190.3,0.4z M182.6,15.4c1.1-3.3,2.2-6.6,3.2-9.8
	c0.1,0,0.2,0.1,0.2,0.2c1,3.2,2,6.4,2.9,9.6C186.9,15.4,184.7,15.4,182.6,15.4z"/>
<path d="M7.1,0.4c5.2,0,10.4,0,15.5,0c-0.2,0.7-0.4,1.5-0.7,2.2C16.3,4.7,10.5,6.8,4.8,8.8C5.6,6,6.3,3.2,7.1,0.4L7.1,0.4z"/>
<path d="M10.3,7.8c3.8-1.4,7.7-2.7,11.5-4.1c-2.1,7.3-4.1,14.6-6.2,22c-3.4,0-6.9,0-10.3,0C6.9,19.6,8.6,13.7,10.3,7.8L10.3,7.8z"/>
<path d="M4.6,9.8c1.6-0.6,3.2-1.1,4.7-1.7c-1.7,5.8-3.3,11.7-5,17.5c-1.4,0-2.9,0-4.3,0C1.5,20.3,3,15,4.6,9.8L4.6,9.8z"/>
</svg>
