<?xml version="1.0" encoding="utf-8"?>
<!-- Generator: Adobe Illustrator 19.1.0, SVG Export Plug-In . SVG Version: 6.00 Build 0)  -->
<svg version="1.1" id="Layer_1" xmlns="http://www.w3.org/2000/svg" xmlns:xlink="http://www.w3.org/1999/xlink" x="0px" y="0px"
	 viewBox="0 0 276 276" enable-background="new 0 0 276 276" xml:space="preserve">
<path d="M139.7,0C64.1-1,0.6,59.3,0,137.1C-0.6,212.9,60.3,275.8,138.2,276c75.4-0.1,137.1-60.6,137.8-136.9
	C276.6,63.7,216.3,1.1,139.7,0z M120,169.4c0,10.1,0,19.9,0,29.9c-0.6-0.4-1-0.6-1.3-0.8c-5.7-4.3-11.4-8.5-17.2-12.7
	c-0.9-0.6-1.2-1.3-1.2-2.4c0.1-13.4,0.1-26.9,0.2-40.4c0-1.4-0.5-1.8-1.8-2c-9-0.8-18.1-0.9-27.1,0c-1.4,0.1-1.8,0.7-1.8,2.1
	c0.1,8.1,0,16.2,0,24.3c0,0.5,0,1.1,0,1.7c-6.6,0-13,0-19.6,0c0-0.9,0-1.7,0-2.6c0-16.8,0.1-33.7,0.1-50.6c0-7.3-4.2-12.3-11.5-13.5
	c-1.1-0.2-1.1-0.2-1.1-1.4c10.6,0,21.3,0,32.1,0c0,0.6,0,1.1,0,1.6c0,9.7,0,19.3,0,29c0,1.5,0.5,2.1,1.9,2.2
	c6.1,0.2,12.1,0.5,18.2,0.6c3.1,0,6.1-0.4,9.2-0.7c1.1-0.1,1.4-0.6,1.4-1.7c0-8.8,0-17.7,0-26.5c0-6.7-3.8-11.5-10.4-13
	c-0.7-0.2-1.4-0.3-2.2-0.4c0-0.5,0-0.8,0-1.2c10.7,0,21.3,0,32.1,0c0,10.8,0,21.6,0,32.8c1.2-1.4,2.2-2.5,3.2-3.5
	c7.3-7.5,16.4-11.3,26.6-12.7c11.2-1.5,22.2-0.2,33.1,2.2c0.4,0.1,0.9,0.7,0.9,1.1c0,8.1,0,16.3,0,24.4c0,0.1-0.1,0.3-0.3,1
	c-0.4-0.8-0.8-1.2-0.9-1.7c-1-4.6-2.7-8.8-5.7-12.4c-9.7-11.6-29.1-10.2-37.3,2.8c-5,7.9-6.3,16.8-5.3,25.9
	c0.9,8.1,4.3,15.1,10.6,20.5c9.6,8.3,23.4,9.3,35,2.5c2.1-1.2,4.1-2.7,6.3-4.2c0.4,0.4,1,0.9,1.6,1.3
	C173.5,191.9,133.4,190.5,120,169.4z M229.1,120.7c0,0.5-0.4,0.9-0.7,1.4c-0.2-0.5-0.6-0.9-0.7-1.4c-0.7-3.1-0.9-6.3-2.1-9.3
	c-2.5-6.4-9.1-9.8-16.1-8.7c0,20.2,0,40.6,0,61.3c-6.5-4.9-12.7-9.4-18.8-14.1c-0.4-0.3-0.7-1.2-0.7-1.8c0-14.5,0-28.9,0-43.5
	c0-0.6,0-1.2,0-2c-6.7-0.3-13.3,0.4-20.1,1.1c0-2.6,0-5,0-7.6c19.8,0,39.7,0,59.8,0c0,0.4,0.1,0.8,0.1,1.2
	C229.6,105.2,229.4,112.9,229.1,120.7z"/>
</svg>
