<?xml version="1.0" encoding="utf-8"?>
<!-- Generator: Adobe Illustrator 19.1.0, SVG Export Plug-In . SVG Version: 6.00 Build 0)  -->
<svg version="1.1" id="Layer_1" xmlns="http://www.w3.org/2000/svg" xmlns:xlink="http://www.w3.org/1999/xlink" x="0px" y="0px"
	 viewBox="0 0 85 85" enable-background="new 0 0 85 85" xml:space="preserve">
<path d="M42.5,0C19,0,0,19.1,0,42.5C0,66,19.1,85,42.5,85C66,85,85,65.9,85,42.5C85,19,65.9,0,42.5,0z M43.9,72.4c-1,0-2.1,0-3.1,0
	c0,0,0-0.1-0.1-0.1c-0.1-0.1-0.1-0.3-0.2-0.4c0.1-0.4,0.1-0.7,0.2-1.1c-0.1-0.3-0.2-0.6-0.3-0.9c-0.1-2.3-0.3-4.5-0.3-5.3
	c-0.1-0.8-0.6-1.3-0.5-2.1c0.2-0.8,0.6-0.9,0.6-1.9c0-0.9,0.5-5.9,0.6-7.1c0.1-1.2,0.5-2.5,0.5-3.1c0-0.6,0.1-3,0.9-2.2
	c0.8,0.8,0.4,1.3,1.6,2.7c1.2,1.4,0.5,1,1.2,3c0.6,1.9,1.4,2.1,1.6,3c0.2,0.8,0.5,3.8,0.6,4.3c0.1,0.5,0.2,1.4,0.3,2.4
	c0.1,0.9,0.3,1.2,0.3,2.1c0,1,0.1,1.7,0.4,2.5s0.1,1-0.3,1.9c-0.4,0.9,0,1.1,0.4,1.4c0,0.3,0.1,0.6,0.1,0.8v0.1
	C46.8,72.4,45.4,72.4,43.9,72.4z M45.4,38.2c0.5,0.6,1.1,1.1,1.4,1.6c0.3,0.5,0.7,0.8,1,1.2c0.2,0.4,0.4,0.8,0.4,1.2
	c0,0.4-0.4,0.9-0.6,1.4c-0.3-0.9-0.5-1.7-0.9-2.6C46.3,40.1,45.8,39.1,45.4,38.2z M61.2,73.7c-2.3-0.4-4.1-0.7-6-1.1
	c0,0,0-0.1-0.1-0.1c-0.2-0.1-0.3-0.2-0.5-0.3c-0.3-0.5-0.6-1.1-0.9-1.6c-0.5-1.1-1-2.2-1.4-3.4c-0.4-1.2-0.7-2-0.8-3.4
	c-0.1-1.4,0-4.5-0.1-5.6c-0.1-1-0.4-1.5-0.5-2.5c-0.2-1-0.4-3.1-0.5-3.7c-0.2-0.6,0.1-1.8-0.2-2.6c-0.4-0.8-1-1.3-0.2-1.5
	c0.7-0.2,1.3-1.3,1.4-1.8c0.1-0.6-0.4-2-0.5-3.1c-0.1-1-0.8-2.1-0.9-2.9c-0.1-0.8-0.1-2.5-0.4-4c-0.2-1.5-0.8-2.8-1.1-3.4
	c-0.3-0.5-0.7-0.5-0.7-1.5s0-2.2-0.3-3s0-2.7,0-3.5s0.2-0.9-0.4-1.6c-0.7-0.8-1.4-2-1.9-2.1c-0.5-0.2-1.7,0-2.1-0.3
	c-0.4-0.3-0.2-0.3,0.2-0.5c0.3-0.2,0.7-0.5,0.9-0.8c0.2-0.4,0.4-1.2,0.5-1.9c0-0.6,0.3-1.3,0.2-2.1c-0.1-0.8-0.2-1.5-0.9-2.2
	c-0.6-0.7-0.9-0.5-1.2-0.8c-0.3-0.2-1.3-0.4-2.1-0.2c-0.7,0.2-0.7,0.4-1,0.6c-0.3,0.2-1.1,0.8-1.2,1.3c-0.2,0.5,0,1.8-0.2,2.1
	c-0.2,0.3-0.7,0.8-0.6,1.4c0,0.6,0,1.9,0.6,2.5c0.5,0.4,0.4,0.6,0.4,1c0,0.5-0.3,0.4-1,0.3c-0.7-0.1-0.9,0.5-1.1,0.4
	s-0.9-0.3-1.3-0.3c-0.4,0-0.8,0.5-1.1,0.5c-0.3,0-0.7,0-1.2,0c0-0.5,0-0.9-0.2-1c-0.2-0.1-0.4,0.1-0.4,0.7c0,0.6-0.1,0.7-0.2,0.8
	c-0.3,0.4-0.6,0.8-1,0.9c-0.3,0.1-0.7,0.8-1,1c-0.3,0.2-0.4,0.9-0.6,1.1c-0.2,0.2-0.3,0.9-0.6,1.1c-0.3,0.2-0.2,1.2-0.4,1.4
	c-0.2,0.2-0.7,1.3-0.6,2s0.2,2.1,0.7,2.6c0.5,0.5,0.5,0.6,0.4,1.3c-0.2,0.7-0.4,1.2-0.1,1.8c0.3,0.5,0.4,0.7,0.4,1.2
	c0,0.5,0.1,0.8-0.3,0.8s-0.3,0.3-0.5,0.5c-0.2,0.2-0.6,0.8-0.1,1.3c0.5,0.5,0.6,0.7,0.7,0.8c0,0.5,0,1.1,0.4,1.3
	c0.4,0.2,0.2,1.1,0.7,1.7c0.4,0.4,0.2,1,1,1.3c0.4,0.1,0.2,1,0.1,1.3c-0.1,0.3,0,1.5,0.1,1.5s0.7,0,1,0.3c0.4,0.4,0.4,0.6,0.5,0.8
	c0,1.4,0,2.9,0,4.3c0.1,0,0.2,0,0.4,0c0.1-1.8,0.1-3.6,0.2-3.9c0.1-0.3,0.4-0.3,0.7-0.3c0.6,0,1.2-0.1,1.2,0.5
	c0,0.6,0.1,1.5,0.1,2.8c0,1.2,0.2,2.9,0,3.2c-0.2,0.3-0.1,1.6-0.3,1.9c-0.2,0.3-0.4,2.3-0.5,4.7c-0.1,2.4,0.4,4.1,0.4,5.1
	s0.2,2.2,0.3,3.3c0.1,0.6,0.2,1.2,0.2,1.8c0,0.2,0,0.3-0.1,0.5c0,0,0,0.1-0.1,0.1c-3.9,0.3-7.8,0.6-11.7,1.1
	c-10.7-6.3-17.8-18-17.8-31.2c0-20.2,16.4-36.6,36.6-36.6s36.6,16.4,36.6,36.6C79.1,55.9,71.9,67.5,61.2,73.7z"/>
</svg>
