<?xml version="1.0" encoding="utf-8"?>
<!-- Generator: Adobe Illustrator 19.0.1, SVG Export Plug-In . SVG Version: 6.00 Build 0)  -->
<svg version="1.1" id="Layer_1" xmlns="http://www.w3.org/2000/svg" xmlns:xlink="http://www.w3.org/1999/xlink" x="0px" y="0px"
	 viewBox="0 0 400 92" style="enable-background:new 0 0 400 92;" xml:space="preserve">
<path d="M307.1,0v92H400V0H307.1z M364.3,81.7h-17.2V39.4l17.2-8.6V81.7z M364.3,26.8l-34.5,17.3V25.5l34.5-17.3V26.8z"/>
<g>
	<path d="M247.8,37.4c0,2,0.5,3.5,1.6,4.7c1.1,1.2,2.5,1.8,4.2,1.8h6.5V30.7h-6.5c-1.7,0-3.1,0.6-4.2,1.8
		C248.4,33.8,247.8,35.5,247.8,37.4z"/>
	<path d="M46,30.8h-6.4V44H46c1.7,0,3-0.6,4.1-1.8c1-1.2,1.5-2.8,1.5-4.7c0-2-0.5-3.5-1.5-4.7C49,31.4,47.6,30.8,46,30.8z"/>
	<path d="M86.3,29.8c-5.7,0-8.6,4-8.6,11.9v8.8c0,7.9,2.9,11.9,8.6,11.9c5.8,0,8.7-3.9,8.7-11.9v-8.8C94.9,33.8,92,29.8,86.3,29.8z"
		/>
	<path d="M0,0v91.9h299.8V0H0z M57.9,48.2c-2.9,3-6.8,4.5-11.5,4.5h-6.7v17.8H29V21.8h17.3c4.7,0,8.6,1.5,11.5,4.6
		c2.9,3,4.4,6.7,4.4,10.9C62.1,41.7,60.7,45.3,57.9,48.2z M105.4,51.3c0,6.5-1.8,11.4-5.4,14.9c-3.6,3.4-8.2,5.2-13.8,5.2
		c-5.5,0-10.1-1.7-13.7-5.2c-3.6-3.5-5.4-8.4-5.4-14.9V41c0-6.4,1.8-11.4,5.4-14.9c3.6-3.5,8.2-5.2,13.7-5.2
		c5.6,0,10.2,1.8,13.8,5.2c3.6,3.5,5.4,8.4,5.4,14.9V51.3z M125.2,59.7c1.6,1.9,3.9,2.8,6.9,2.8c4.2,0,8.2-0.6,11.9-1.9l2,8.7
		c-4.6,1.5-9.2,2.2-14,2.2c-5.9,0-10.7-1.7-14.4-5.1c-3.6-3.4-5.5-8.4-5.5-14.9V41c0-6.5,1.8-11.4,5.5-14.9
		c3.6-3.4,8.4-5.1,14.4-5.1c4.7,0,9.4,0.8,14,2.2l-2,8.6c-4-1.2-8-1.9-11.9-1.9c-6.2,0-9.3,4-9.3,11.9v8.7
		C122.8,54.7,123.6,57.8,125.2,59.7z M165.2,59.7c1.6,1.9,3.9,2.8,6.9,2.8c4.2,0,8.2-0.6,11.9-1.9l2,8.7c-4.6,1.5-9.3,2.2-14,2.2
		c-5.9,0-10.7-1.7-14.3-5.1c-3.6-3.4-5.5-8.4-5.5-14.9V41c0-6.5,1.8-11.4,5.5-14.9c3.6-3.4,8.4-5.1,14.3-5.1c4.7,0,9.4,0.8,14,2.2
		l-2,8.6c-4-1.2-8-1.9-11.9-1.9c-6.2,0-9.3,4-9.3,11.9v8.7C162.8,54.7,163.6,57.8,165.2,59.7z M230.1,70.5h-10.5V49.7
		c0-2.6,0.1-5.1,0.3-7.6l-17.9,28.4h-8.6V21.8H204v21.1c0,2.2-0.1,4.7-0.2,7.4l17.9-28.5h8.5L230.1,70.5L230.1,70.5z M270.6,70.5
		h-10.5V52.7h-4l-7.7,17.8h-11.8l9-19.3c-2.7-1.2-4.8-3-6.2-5.5c-1.5-2.5-2.2-5.2-2.2-8.2c0-4.3,1.5-7.9,4.4-10.9s6.8-4.6,11.5-4.6
		h17.6L270.6,70.5L270.6,70.5z"/>
</g>
</svg>
