<?xml version="1.0" encoding="utf-8"?>
<!-- Generator: Adobe Illustrator 19.1.0, SVG Export Plug-In . SVG Version: 6.00 Build 0)  -->
<svg version="1.1" id="Layer_1" xmlns="http://www.w3.org/2000/svg" xmlns:xlink="http://www.w3.org/1999/xlink" x="0px" y="0px"
	 viewBox="0 0 500 206" enable-background="new 0 0 500 206" xml:space="preserve">
<g>
	<path d="M499.9,33c0,19.3,0,38.7,0,58c-17.1,0-34.2,0-51.7,0c0,2.6,0,4.4,0,6.2c0,34.3,0,68.6,0,102.9c0,2-0.2,4-0.3,6
		c-20.3,0-40.7,0-61,0c0-38.2,0-76.4,0-114.4c-17.4,0-34,0-50.7,0c-0.2,1.1-0.4,1.9-0.4,2.7c0,37.3,0.1,74.6,0.1,111.7
		c-20.3,0-40.7,0-61,0c-0.1-2-0.2-4-0.2-6c0-20-0.2-40,0.1-59.9c0.1-4.5-1.4-5.7-5.7-5.6c-13.3,0.2-26.6,0.2-40-0.1
		c-4.1-0.1-5,1.4-5,5.2c0.2,14.8,0.1,29.6,0.1,44.5c0,7.3-0.2,14.6-0.4,21.9c-19.7,0-39.3,0-59,0c0-38.7,0-77.4,0-116.5
		c-15.9,0-30.8,0.2-45.8-0.1c-4.5-0.1-6,1-5.9,5.8c0.2,35,0.1,70,0.1,104.9c0,2-0.2,4-0.4,5.9c-20.3,0-40.7,0-61,0
		c0.1-1.7,0.3-3.3,0.3-5c0-35.8,0-71.5,0-107.2c0-1.3-0.1-2.5-0.3-4.4c-2.8,0-5.2,0-7.7,0C29.4,89.3,14.6,89.1-0.1,89
		c0-19.3,0-38.7,0-58c2.2-0.1,4.3-0.2,6.5-0.2c50.2,0,100.5,0,150.7,0c3,0,5.9,0,9.8,0c0-10.6,0-20.7,0-30.8c19,0,38,0,57,0
		c0.1,2,0.3,4,0.4,6c0,20.2,0,40.3,0,60.5c0,1.8,0,3.5,0,5.3c17.1,0,33.5,0,50.4,0c0-2.2,0-4,0-5.8c0.1-22,0.2-44,0.2-65.9
		c19.7,0,39.3,0,59,0c0,10.7,0,21.4,0,32.6c3,0,5,0,6.9,0c50.9,0,101.8,0,152.6,0C495.7,32.6,497.9,32.9,499.9,33z"/>
</g>
</svg>
