<?xml version="1.0" encoding="UTF-8"?>
<!DOCTYPE svg PUBLIC "-//W3C//DTD SVG 1.1//EN" "http://www.w3.org/Graphics/SVG/1.1/DTD/svg11.dtd">
<!-- Creator: CorelDRAW X7 -->
<?xml-stylesheet href="vk-channel.css" type="text/css"?>
<svg xmlns="http://www.w3.org/2000/svg" xml:space="preserve" width="100.183mm" height="57.1541mm" version="1.1" style="shape-rendering:geometricPrecision; text-rendering:geometricPrecision; image-rendering:optimizeQuality; fill-rule:evenodd; clip-rule:evenodd"
viewBox="0 0 9504 5422"
 xmlns:xlink="http://www.w3.org/1999/xlink">
 <g id="Слой_x0020_1">
  <metadata id="CorelCorpID_0Corel-Layer"/>
  <path class="fil0" d="M4650 5399l568 0c0,0 172,-19 259,-113 81,-87 78,-250 78,-250 0,0 -11,-762 343,-874 349,-111 797,737 1271,1062 359,247 632,193 632,193l1269 -18c0,0 664,-41 349,-563 -26,-42 -183,-386 -944,-1092 -795,-738 -689,-619 270,-1897 584,-778 817,-1253 744,-1456 -69,-194 -499,-143 -499,-143l-1429 9c0,0 -106,-14 -184,33 -77,46 -126,153 -126,153 0,0 -227,602 -528,1114 -637,1081 -891,1138 -995,1071 -242,-157 -182,-628 -182,-964 0,-1047 159,-1483 -309,-1596 -155,-38 -270,-63 -667,-67 -510,-5 -941,2 -1186,121 -162,80 -288,257 -211,268 94,12 308,57 421,212 147,199 142,646 142,646 0,0 84,1233 -197,1386 -192,105 -457,-109 -1024,-1090 -290,-502 -510,-1057 -510,-1057 0,0 -42,-104 -118,-159 -91,-67 -219,-89 -219,-89l-1358 9c0,0 -204,6 -279,95 -67,79 -5,242 -5,242 0,0 1063,2487 2267,3740 1104,1150 2357,1074 2357,1074l0 0z"/>
 </g>
</svg>
