<svg id="Layer_1" xmlns="http://www.w3.org/2000/svg" viewBox="0 0 19 20"><path d="M17 18.5h-1.2l.3.3c.3.3.3.7 0 1-.1.1-.3.2-.5.2s-.4-.1-.5-.2l-1.3-1.3H5.2l-1.3 1.3c-.1.1-.3.2-.5.2s-.4-.1-.5-.2c-.3-.3-.3-.7 0-1l.3-.3H2c-1.1 0-2-.9-2-2V6.7c0-1.1.9-2 2-2h5.9L7 3.8c-.3-.3-.3-.7 0-1s.7-.3 1 0l1.3 1.3 4-3.9c.3-.3.7-.3 1 0s.3.7 0 1l-3.5 3.5H17c1.1 0 2 .9 2 2v9.8c0 1.1-.9 2-2 2zm0-12.3H2c-.3 0-.6.3-.6.6v9.8c0 .3.3.6.6.6H17.1c.3 0 .6-.3.6-.6V6.8c0-.4-.4-.6-.7-.6zm-5.2 10.1H7.3c-.4 0-.7-.3-.7-.7 0-.4.3-.7.7-.7h4.5c.4 0 .7.3.7.7s-.3.7-.7.7zm-8.4 0c-.2 0-.4-.1-.5-.2-.1-.1-.2-.3-.2-.5s.1-.4.2-.5c.3-.3.7-.3 1 0 .1.1.2.3.2.5s-.1.4-.2.5c-.1.1-.3.2-.5.2z"/></svg>