<svg id="Layer_1" xmlns="http://www.w3.org/2000/svg" viewBox="0 0 74 74"><path d="M37 74C16.6 74 0 57.4 0 37S16.6 0 37 0s37 16.6 37 37-16.6 37-37 37zm0-70.9C18.3 3.1 3.1 18.3 3.1 37S18.3 70.9 37 70.9 70.9 55.7 70.9 37 55.7 3.1 37 3.1zm24.5 19.3c-.3.2-.6.3-.9.3-.5 0-1-.2-1.3-.7-5-7.5-13.3-11.9-22.3-11.9-.9 0-1.5-.7-1.5-1.5S36.1 7 37 7c10 0 19.3 4.9 24.9 13.2.5.7.3 1.7-.4 2.2zM49.1 37c0 6.7-5.4 12.1-12.1 12.1S24.9 43.7 24.9 37 30.3 24.9 37 24.9 49.1 30.3 49.1 37zM28 37c0 5 4.1 9 9 9s9-4.1 9-9-4.1-9-9-9-9 4-9 9zm10.5 28.5c0 .9-.7 1.5-1.5 1.5-9.8 0-19-4.8-24.6-12.8-.5-.7-.3-1.7.4-2.1.7-.5 1.7-.3 2.1.4C19.9 59.7 28.2 64 37 64c.9-.1 1.5.6 1.5 1.5z"/></svg>