<?xml version="1.0" encoding="utf-8"?>
<!-- Generator: Adobe Illustrator 19.0.1, SVG Export Plug-In . SVG Version: 6.00 Build 0)  -->
<svg version="1.1" id="Layer_1" xmlns="http://www.w3.org/2000/svg" xmlns:xlink="http://www.w3.org/1999/xlink" x="0px" y="0px"
	 viewBox="0 0 495 113" style="enable-background:new 0 0 495 113;" xml:space="preserve">
<path d="M306.7,45.9c0,2.4,0.7,4.4,2,5.8c1.3,1.5,3.1,2.2,5.2,2.2h8.1V37.8h-8.1c-2.1,0-3.8,0.8-5.1,2.2
	C307.4,41.6,306.7,43.5,306.7,45.9z"/>
<path d="M106.7,36.7c-7.1,0-10.6,4.9-10.6,14.6V62c0,9.7,3.5,14.6,10.6,14.6s10.7-4.9,10.7-14.6V51.3
	C117.4,41.6,113.8,36.7,106.7,36.7z"/>
<path d="M0,0v112.8h370.9V0H0z M71.5,59.2c-3.6,3.7-8.3,5.5-14.3,5.5h-8.3v21.9h-13V26.9h21.3c5.8,0,10.6,1.9,14.2,5.6
	s5.4,8.2,5.4,13.5C76.9,51.1,75.1,55.6,71.5,59.2z M130.4,63c0,8-2.2,14.1-6.7,18.3c-4.5,4.2-10.1,6.4-17,6.4
	c-6.8,0-12.5-2.1-17-6.4C85.2,77,83,70.9,83,63V50.4c0-7.9,2.2-14,6.7-18.3c4.5-4.3,10.1-6.5,17-6.5s12.6,2.2,17,6.5
	c4.5,4.3,6.7,10.4,6.7,18.3V63z M154.9,73.2c2,2.3,4.8,3.4,8.5,3.4c5.2,0,10.1-0.8,14.7-2.4l2.5,10.7c-5.7,1.8-11.4,2.7-17.3,2.7
	c-7.3,0-13.2-2.1-17.7-6.3c-4.5-4.2-6.7-10.3-6.7-18.3V50.2c0-8,2.2-14.1,6.7-18.3c4.5-4.2,10.4-6.3,17.7-6.3
	c5.8,0,11.6,0.9,17.3,2.8L178.1,39c-5-1.5-9.9-2.3-14.7-2.3c-7.7,0-11.5,4.9-11.5,14.6v10.7C152,67.1,152.9,70.8,154.9,73.2z
	 M204.4,73.2c2,2.3,4.8,3.4,8.5,3.4c5.2,0,10.1-0.8,14.7-2.4l2.5,10.7c-5.7,1.8-11.4,2.7-17.3,2.7c-7.3,0-13.2-2.1-17.7-6.3
	c-4.5-4.2-6.7-10.3-6.7-18.3V50.2c0-8,2.2-14.1,6.7-18.3c4.5-4.2,10.4-6.3,17.7-6.3c5.8,0,11.6,0.9,17.3,2.8L227.6,39
	c-5-1.5-9.9-2.3-14.7-2.3c-7.7,0-11.5,4.9-11.5,14.6v10.7C201.5,67.1,202.4,70.8,204.4,73.2z M284.9,86.5h-13V61
	c0-3.2,0.1-6.3,0.4-9.4l-22,34.9h-10.8V26.8h13v25.9c0,2.7-0.1,5.8-0.3,9.1l22.1-35.1h10.5v59.8H284.9z M335,86.5h-13V64.6h-5
	l-9.6,21.9h-14.5l11.2-23.7c-3.3-1.5-5.9-3.7-7.7-6.8c-1.8-3.1-2.7-6.5-2.7-10.2c0-5.2,1.8-9.8,5.4-13.5c3.6-3.8,8.4-5.6,14.2-5.6
	H335V86.5z"/>
<path d="M56.8,37.8h-7.9v16.1h7.9c2.1,0,3.7-0.7,5-2.2c1.3-1.5,1.9-3.4,1.9-5.8c0-2.4-0.6-4.4-1.9-5.8
	C60.6,38.6,58.9,37.8,56.8,37.8z"/>
<path d="M380,0v113h115V0H380z M434.6,9.4V31c-4.4,0.8-7.7,4.1-7.7,8.2c0,0.5,0,0.9,0.1,1.4h-22.8c-0.1-0.8-0.1-1.5-0.1-2.3
	C404.1,23.1,417.5,10.6,434.6,9.4z M470.3,99.1h-44.8l23.4-20.7h21.5v20.7H470.3z M467.7,52.6c-2.3,4.2-14.1,17.3-23.8,25.9
	l-23.4,20.7h-17.3V82.6c12.8-11.3,25.9-22.4,38.4-34.1c2.3-2.2,4.5-5,4.5-9.5c0-4.1-3.4-7.5-7.8-8.2V9.2c18.1,0.4,32.6,13.2,32.6,29
	C470.8,43.2,470.1,48.3,467.7,52.6z"/>
</svg>
