<?xml version="1.0" encoding="utf-8"?>
<!-- Generator: Adobe Illustrator 19.1.0, SVG Export Plug-In . SVG Version: 6.00 Build 0)  -->
<svg version="1.1" id="Layer_1" xmlns="http://www.w3.org/2000/svg" xmlns:xlink="http://www.w3.org/1999/xlink" x="0px" y="0px"
	 viewBox="0 0 336 359" style="enable-background:new 0 0 336 359;" xml:space="preserve">
<g>
	<polygon points="263,322.7 264.9,322.7 263.9,306.3 	"/>
	<polygon points="195.8,322.7 197.7,322.7 196.8,306.3 	"/>
	<path d="M205.1,244.1c2.9,0,5.3-2.5,5.3-5.6V126l-10.5,5.8v106.7C199.8,241.5,202.2,244.1,205.1,244.1z"/>
	<path d="M0,0v359h336V0H0z M247.1,73.3c0-21.4,13.9-38.8,30.8-38.8c17,0,30.8,17.5,30.8,38.8v28.2l-25.9,14V49.9
		c0-3.1-2.4-5.6-5.3-5.6s-5.3,2.5-5.3,5.6v188.6c0,3.1,2.4,5.6,5.3,5.6s5.3-2.5,5.3-5.6v-92.8l25.9-11.8v86
		c0,21.4-13.9,38.8-30.8,38.8l0,0c-17,0-30.8-17.5-30.8-38.8V73.3z M174.6,134.1l1.1-0.7l-0.1-0.7c0,0,22.1-12.2,34.7-20V49.8
		c0-3.1-2.4-5.6-5.3-5.6s-5.3,2.5-5.3,5.6V98l-25.2,13.6V73.2c0-21.4,13.9-38.8,30.8-38.8c17,0,30.8,17.5,30.8,38.8V185
		c-0.9-1.1-2-1.8-3.1-1.9c-8.5-0.6-8.2,3.4-2.8,5.7c3.6,1.5-8.9,2.8-9.1,4.3c-0.2,2.6,9.5,0.2,8.2,3.3c-0.9,2.3-4.9,3-6.4,5.4
		c-0.4,0.6,0.3,4.3,2.1,5.6c1,0.7-5.5-1.3-5.6-0.1c-0.3,3.2,1.7,7,0.8,8.7c-1.6,3.1-5.5,0.6-5.9,4.8c-0.1,1.1,5.6,0.8,5.5,2
		c-0.1,0.9-4.6,1.4-5.8,4.9c-1,2.7,2.4,8.8,1.4,9.9c-2.8,3.1,0.4,1.6,0.7,2.1c1,1.7,2.6,2.3,2.4,3.5c-1,5.2-4.8,2.6-4.3,6.4
		c0.3,2.7,4.4,2.7,5,4.9c-4.2,2.7-8.9,4.2-13.9,4.2l0,0c-17,0-30.8-17.5-30.8-38.8L174.6,134.1L174.6,134.1z M100.2,39.4h0.7h25.2
		h13.4h25.9v7.7v207.5h-25.9V47.1h-13.3v207.5h-25.9V39.4H100.2z M29.5,73.3c0-21.4,13.9-38.8,30.8-38.8S91.1,52,91.1,73.3v28.2
		l-25.9,14V49.9c0-3.1-2.4-5.6-5.3-5.6c-2.9,0-5.3,2.5-5.3,5.6v188.6c0,3.1,2.4,5.6,5.3,5.6c2.9,0,5.3-2.5,5.3-5.6v-92.8L91.1,134
		v86c0,21.4-13.9,38.8-30.8,38.8l0,0c-17,0-30.8-17.5-30.8-38.8V73.3z M42.5,297.3h-3.7v47.8h-6.7v-47.8h-3.7v-7.2h14.1V297.3z
		 M72.6,345.1h-13v-55h13v7.1h-6.3V312H72v6.7h-5.7V338h6.4L72.6,345.1L72.6,345.1z M107.1,345.1h-6.5v-47.8h-2.3v41.4
		c0,4.7-1.7,7.1-5,7.1c-1.5,0-2.8-0.2-3.9-0.6v-7.7c0.5,0.3,1,0.5,1.6,0.5c0.5,0,0.8-0.2,1-0.6c0.2-0.4,0.2-1.4,0.2-3v-44.1h15v54.8
		H107.1z M137.5,345.1h-13v-55h13v7.1h-6.3V312h5.7v6.7h-5.7V338h6.4v7.1H137.5z M164.3,345.1l-3.7-21.6v21.6h-6.2v-55h6.2v19.2
		l2.3-13.7c0.7-3.9,2.1-5.8,4.2-5.8c1.3,0,2.4,0.1,3,0.5v7.3c-1.2,0-1.9,1.3-2.4,3.9l-2.2,13.1l5.9,30.6h-7.1V345.1z M199.4,345.1
		l-1.1-14.8h-3l-1.1,14.8h-6.7l5-55h8.4l5,55H199.4z M238,345.1h-6.7v-26.4h-1.9v26.4h-6.7v-55h6.7V312h1.9v-21.9h6.7V345.1z
		 M266.6,345.1l-1.1-14.8h-3l-1.1,14.8h-6.6l5-55h8.5l5,55H266.6z M307.6,345.1h-6.5v-47.8h-2.3v41.4c0,4.7-1.7,7.1-5,7.1
		c-1.5,0-2.8-0.2-3.9-0.6v-7.7c0.5,0.3,1,0.5,1.5,0.5s0.8-0.2,1-0.6c0.1-0.4,0.2-1.4,0.2-3v-44.1h15L307.6,345.1L307.6,345.1z
		 M309.1,284.9H29.9v-6h279.2V284.9z"/>
</g>
</svg>
