<?xml version="1.0" encoding="utf-8"?>
<!-- Generator: Adobe Illustrator 19.1.0, SVG Export Plug-In . SVG Version: 6.00 Build 0)  -->
<svg version="1.1" id="Layer_1" xmlns="http://www.w3.org/2000/svg" xmlns:xlink="http://www.w3.org/1999/xlink" x="0px" y="0px"
	 viewBox="0 0 488 170" style="enable-background:new 0 0 488 170;" xml:space="preserve">
<path d="M463.1,24.8c-16-16-37.4-24.8-60-24.8c-46.8,0.1-84.8,38.3-84.7,85.2c0.1,46.9,38.2,84.9,85,84.8c17.2,0,33.2-5.2,46.6-14.1
	l-23.4-23.3c-6.1,4.4-14.1,6.9-23.3,6.9c-21.4,0-35.7-12.6-35.8-31.4l-0.2-69.2h18.2l0.2,69.2c0,12,12.3,13.2,17.5,13.2
	c5.3,0,17.6-1.3,17.5-13.3l-0.1-69.2h18.2l0.1,69.2c0,3.5-0.5,6.8-1.5,9.8l26.5,26.5c-4.2,4.3-8.9,8.2-13.9,11.6
	c22.9-15.2,38.1-41.4,38-70.9C488,62.2,479.2,40.9,463.1,24.8z"/>
<path d="M23.8,74.7c0,1.3-0.8,2-3.2,2c-0.3,0-1.5,0-1.9,0v-4.3h2.6c1.9,0,2.5,1,2.5,2.1V74.7L23.8,74.7z M23.7,67.8L23.7,67.8
	c0,1-0.5,1.8-2.4,1.8h-2.6v-4c0.3,0,1.4,0,1.8,0c2.4,0,3.2,0.6,3.2,1.9V67.8L23.7,67.8z M27.6,74.8L27.6,74.8v-0.3
	c0-1.6-0.8-2.8-2.1-3.4c1.2-0.6,1.9-1.9,1.9-3.4v-0.4c0-3.7-3-4.8-7.3-4.8c-1.5,0-3.4,0.1-4.1,0.3c-0.9,0.1-1.2,0.5-1.2,1.5v14.1
	c0,1,0.3,1.4,1.3,1.5c0.9,0.2,2.7,0.3,4.2,0.3C24.4,80,27.6,78.8,27.6,74.8L27.6,74.8z M12.6,65.4L12.6,65.4V63
	c0-0.2-0.2-0.4-0.5-0.4H0.5C0.2,62.6,0,62.8,0,63v2.4c0,0.2,0.2,0.4,0.5,0.4h3.8v13.5c0,0.2,0.2,0.4,0.5,0.4h3
	c0.2,0,0.5-0.2,0.5-0.4V65.8h3.8C12.4,65.8,12.6,65.6,12.6,65.4L12.6,65.4z M127.3,112.3L127.3,112.3v-6.4c0-0.8-0.7-1.4-1.4-1.4
	h-14.1c-3.3,0-4.5-1.1-4.6-4.7v-7.4h18.1c0.7,0,1.4-0.6,1.4-1.4v-6.5c0-0.7-0.6-1.3-1.4-1.3h-18.1v-6.3c0-3.6,1.3-4.7,4.5-4.7h14.1
	c0.8,0,1.4-0.6,1.4-1.4v-6.5c0-0.9-0.4-1.3-1.4-1.4c-2.4-0.4-5.9-0.9-13.4-0.9c-9.1,0-17,2.3-16.9,14.9v22.9
	c0,12.6,7.9,14.9,17,14.9c7.5,0,11.1-0.6,13.5-0.9C126.9,113.6,127.3,113.2,127.3,112.3L127.3,112.3z M178.4,112.6L178.4,112.6
	l-0.1-48.9c0-0.8-0.6-1.3-1.4-1.3H168c-0.8,0-1.4,0.6-1.4,1.4V82h-17.2V63.7c0-0.8-0.6-1.4-1.4-1.4h-9c-0.8,0-1.4,0.6-1.4,1.4
	l0.1,48.9c0,0.7,0.6,1.3,1.4,1.3h9c0.8,0,1.4-0.6,1.4-1.4V92.1h17.1v20.4c0,0.8,0.6,1.4,1.4,1.3h8.9
	C177.8,113.9,178.4,113.3,178.4,112.6L178.4,112.6z M256.7,78.8L256.7,78.8c0,4.8-2.8,7.1-9.2,7.1c-0.8,0-5,0-5.8-0.1V71.5
	c0.9-0.1,4.8-0.2,5.8-0.2c6.1,0,9.3,1.9,9.3,6.9v0.6H256.7z M268.4,78.8L268.4,78.8v-0.6c0-13.1-10.3-16.6-21.1-16.6
	c-5.2,0-10.8,0.4-14.3,0.9c-2.2,0.3-3.1,1-3.1,3.3l0.1,46.8c0,0.7,0.6,1.3,1.4,1.3h9c0.8,0,1.4-0.6,1.4-1.4v-17
	c1.8,0.1,4.1,0.2,5.8,0.2C258.2,95.6,268.4,91.9,268.4,78.8L268.4,78.8z M222.8,70.6L222.8,70.6v-7.1c0-0.7-0.7-1.3-1.5-1.3
	l-34.7,0.1c-0.8,0-1.4,0.5-1.4,1.3v7.1c0,0.8,0.6,1.3,1.4,1.3h11.5l0.1,40.6c0,0.7,0.6,1.4,1.4,1.4h9c0.8,0,1.4-0.6,1.4-1.4
	L209.9,72h11.4C222.1,71.9,222.8,71.3,222.8,70.6L222.8,70.6z M89.5,114.7L89.5,114.7L89.5,114.7L89.5,114.7v-8.8
	c0-0.7-0.6-1.3-1.4-1.3H84l-0.1-40.8c0-0.8-0.6-1.4-1.3-1.4h-9.2c-0.7,0-1.2,0.6-1.2,1.4l0.1,40.8l-12.5-0.1c-3.3,0-4.6-1.1-4.6-4.7
	l-0.1-35.9c0-0.8-0.6-1.4-1.4-1.4h-9c-0.8,0-1.4,0.6-1.4,1.4v35.9c0,12.6,7.9,14.9,17,14.9c3,0,14.4-0.2,19.8-0.4v8.2
	c0,1,0.4,1.7,1.1,1.7h5.7c0.7,0,1.3-0.6,1.5-1.6c0.5-1.9,0.9-4.8,0.9-7.7l0,0v-0.2H89.5z"/>
</svg>
