<?xml version="1.0" encoding="utf-8"?>
<!-- Generator: Adobe Illustrator 19.1.0, SVG Export Plug-In . SVG Version: 6.00 Build 0)  -->
<svg version="1.1" id="Layer_1" xmlns="http://www.w3.org/2000/svg" xmlns:xlink="http://www.w3.org/1999/xlink" x="0px" y="0px"
	 viewBox="0 0 473 134" style="enable-background:new 0 0 473 134;" xml:space="preserve">
<g>
	<path d="M70.5,0c5.7,16.9,11.1,34.1,16.8,51c17.7,0,35.5,0,53.2,0c-1.1,1.3-2.6,2.1-3.9,3.1c-3.6,2.6-7.2,5.4-10.8,7.9
		c-15.7-0.2-31.5,0-47.2-0.1c-2.8-8.5-5.3-17.1-8.2-25.6c-2.7,8.6-5.7,17-8.4,25.6c-15.6,0-31.2,0-46.8,0c-4.9-3.3-9.4-7-14.2-10.3
		c0.4-0.1,0.9-0.2,1.3-0.3c-0.8-0.1-1.5-0.2-2.3-0.4c1.4-0.1,2.7-0.1,4.1-0.1c16.5,0,33.1,0,49.6,0C59.4,34.1,64.7,16.9,70.5,0
		L70.5,0z M216.4,51c11.7,0.1,23.4,0,35.1,0c2.7,0,6,0.9,6.9,3.8c1.1,3.5,0.3,7.3,0.5,11c-0.1,4,1,9.2-3,11.7
		c3.8,2.1,3.1,7.1,3.1,10.7c-0.3,4,0.7,8.1-0.8,11.9c-1.4,2.9-5.1,3.1-7.8,3.3c-11.3-0.1-22.7,0.2-34-0.1
		C216.4,85.9,216.4,68.5,216.4,51L216.4,51z M225.8,59.3c-0.1,4.6,0,9.1,0,13.7c7.9-0.1,15.9,0.3,23.8-0.2c0.3-4.3,0.2-8.6,0.1-12.9
		c-0.8-0.3-1.7-0.6-2.6-0.6C240.1,59.3,232.9,59.3,225.8,59.3L225.8,59.3z M225.8,81.6c0,4.5,0,8.9,0,13.4
		c7.9-0.1,15.9,0.3,23.8-0.2c0.3-4.3,0.3-8.7,0-13C241.8,81.4,233.7,81.7,225.8,81.6L225.8,81.6z M269.9,51.1c13.1,0,26.2,0,39.3,0
		c0,2.7,0,5.5,0,8.2c-9.9,0-19.9,0.1-29.8,0c-0.1,4.6,0,9.1,0,13.7c8.1,0.1,16.1,0,24.2,0c0,2.8,0,5.5,0,8.3c-8.1,0-16.1,0-24.2,0
		c-0.1,4.5,0,9.1,0,13.6c10,0.1,19.9-0.1,29.9,0.1c0,2.8,0,5.6,0,8.4c-10.4-0.1-20.7,0-31.1,0c-2.7,0-5.5,0.1-8.2-0.2
		C269.9,85.9,269.8,68.5,269.9,51.1L269.9,51.1z M443.6,51c4.1,0.1,8.3,0,12.4,0c5.7,17.4,11.3,35,17,52.4c-3.3,0.2-6.7,0.4-10,0
		c-0.9-3.5-2.1-6.8-3.1-10.2c-6.8,0-13.6,0-20.4,0c-0.8,3.4-2.1,6.7-2.9,10.1c-3.3,0.4-6.7,0.2-10.1,0.2
		C432.1,85.9,438,68.5,443.6,51L443.6,51z M443.8,79.8c-0.5,1.6-1.1,3.2-1.3,4.8c5-0.1,9.9,0,14.9-0.1c-2.7-8.1-4.9-16.3-7.6-24.4
		C447.7,66.7,445.8,73.3,443.8,79.8L443.8,79.8z M165.1,52.4c1.6-1.1,3.7-1.3,5.6-1.3c9,0,18,0,27,0c2.7,0,6.2,0.6,7.3,3.6
		c1.3,3.8,0.5,7.9,0.7,11.8c0,3.8,0.7,8.7-3,11.2c2.2,1.3,3,3.9,3,6.3c0,3.9,0,7.8,0,11.7c-0.1,2-0.3,4.2-1.6,5.8
		c-2,1.9-4.9,2-7.5,2.1c-8.4,0-16.8,0-25.3,0c-2.8-0.2-6.7-0.4-7.9-3.5c-1.3-3.9-0.4-8.1-0.7-12.1c3.1-0.4,6.3-0.3,9.4-0.1
		c0,2.3-0.1,4.6,0.1,6.9c5.1,0.5,10.3,0.1,15.4,0.2c2.9-0.1,5.8,0.2,8.6-0.3c0.2-4.3,0.1-8.6,0-12.9c-5.2-0.7-10.5,0.1-15.8-0.4
		c0.1-2.8,0-5.7,0.1-8.5c5.2-0.1,10.4,0.3,15.6-0.2c0.2-4,0.2-8,0.1-12c0.1-1.3-1.5-1.5-2.5-1.5c-6.3,0-12.7,0-19,0
		c-0.9-0.1-1.8,0.3-2.6,0.7c0,2.2,0,4.5,0,6.7c-3.1,0-6.2,0.1-9.4,0c0.1-3.1,0-6.2,0-9.3C162.8,55.5,163.5,53.5,165.1,52.4
		L165.1,52.4z M316.7,55.5c0.7-3.1,4-4.4,6.8-4.4c9.3-0.1,18.7,0,28,0c2.7,0,6.2,0.7,7.2,3.6c0.8,2.5,0.3,5.2,0.4,7.8
		c-0.1,3.5,0.1,7.1-0.1,10.6c-0.1,1.9-1.2,3.5-2.9,4.4c1.8,1.1,3,3,2.9,5.1c0,5,0.1,10.1,0,15.1c0,2.1-1.3,4.2-3.3,4.9
		c-1.7,0.6-3.6,0.8-5.4,0.9c-8.2,0-16.5,0-24.7,0c-2,0-4.1-0.3-6-0.9c-1.9-0.7-3-2.8-3.2-4.7c-0.2-3.3-0.1-6.7-0.2-10
		c3.1-0.2,6.3-0.2,9.4,0c0,2.3-0.1,4.7,0.1,7c2.9,0.3,5.8,0.1,8.8,0.1c5,0,10,0.3,15-0.1c0.5-2.1,0.3-4.3,0.3-6.5s0.1-4.4-0.3-6.6
		c-5.2-0.2-10.4,0-15.6-0.1c0-2.9-0.3-5.8,0.1-8.7c5.1,0,10.3,0.4,15.4-0.2c0-3.8,0.1-7.6,0-11.4c-0.1-0.7,0.1-2.1-1.1-1.9
		c-7.5-0.2-15.1-0.2-22.6,0c-0.6,2.4-0.1,4.9-0.5,7.3c-3.1,0-6.1,0-9.2,0C316.5,63,316.2,59.2,316.7,55.5L316.7,55.5z M372.7,84.3
		c1.8-11.1,3.4-22.3,5.4-33.3c12.3,0.2,24.7,0,37,0.1c0,14.6,0,29.3,0,44c1.9,0,3.8,0,5.8,0.1c0,6.1,0,12.2,0,18.4
		c-3.1,0.3-6.2-0.1-9.3,0c-0.2-3.3-0.1-6.6-0.1-10c-12.6,0-25.2-0.1-37.8,0.1c0.1,3.3,0,6.5,0.1,9.8c-3.1,0.4-6.2,0.1-9.3,0.1
		c-0.3-6.1,0-12.3-0.1-18.4c2.2-0.2,4.5,0.2,6.5-0.9C371.9,91,372.1,87.6,372.7,84.3L372.7,84.3z M386.2,59.3
		c-1.7,10.4-3.5,20.8-5.3,31.3c-0.2,1.5-0.7,2.9-1.1,4.4c8.7,0.1,17.3,0,26,0c0-11.9,0-23.8,0-35.8
		C399.3,59.3,392.8,59.3,386.2,59.3L386.2,59.3z"/>
	<path d="M163.8,21c3.5,0,7,0,10.5,0c0,0.6,0,1.3,0,1.9c-1.3,0-2.7-0.1-4,0.1c-0.2,3.6-0.1,7.2-0.2,10.8c-0.7-0.1-1.3-0.1-2-0.2
		c0-3.6,0-7.2,0-10.7c-1.4,0-2.9-0.1-4.3-0.1C163.8,22.3,163.8,21.7,163.8,21L163.8,21z M198.6,21.1c3.1-0.1,6.3,0,9.4-0.1
		c0,0.6,0,1.3,0,1.9c-2.4,0-4.9,0-7.3,0c0,1.1,0,2.3,0,3.4c1.9,0.1,3.9,0.1,5.8,0c0,0.5,0,1.5,0,2c-1.9,0-3.9,0-5.8,0
		c0,1.2,0,2.3,0,3.4c2.4,0,4.8,0,7.3,0v1.9h-9.4C198.6,29.5,198.7,25.3,198.6,21.1L198.6,21.1z M234.9,21c3,0,6,0,9,0
		c0,4.2,0,8.4,0,12.7c-0.7,0-1.5,0-2.2-0.1c0.1-3.6,0-7.1,0-10.7c-1.7,0-3.3,0-5,0c-0.5,3.5-1,7-1.8,10.5c-1.1,0.3-2.3,0.4-3.4,0.2
		c0-0.6,0-1.2,0.1-1.8c0.4,0,1.1-0.1,1.5-0.1C233.9,28.2,234.4,24.6,234.9,21L234.9,21z M268.9,21c3.1,0,6.3,0,9.4,0
		c0,0.6,0,1.3,0,1.9c-2.4,0-4.9,0-7.3,0c0,1.1-0.1,2.2-0.1,3.4l6.1,0.1c-0.1,0.7-0.3,1.3-0.4,2c-1.9-0.1-3.8-0.1-5.7,0
		c0,1.2,0,2.3,0,3.5c2.4,0,4.8,0,7.2,0l0.1,1.9h-9.5C268.9,29.4,268.9,25.2,268.9,21L268.9,21z M303.1,21.1h2.1v5.3h2l3.9-5.3h2.5
		c-1.5,2.1-3.1,4-4.6,6.2l4.7,6.4h-2.6c-1.4-1.7-2.7-3.7-4.2-5.4c-0.6,0-1.2,0-1.8,0v5.4H303L303.1,21.1L303.1,21.1z M341.6,21
		c1,0,2,0,3,0c1.2,4.3,2.8,8.5,4,12.7c-0.8,0-1.5-0.1-2.3-0.1c-0.2-0.8-0.5-1.7-0.7-2.5c-1.7,0-3.3,0-5,0c-0.3,0.9-0.6,1.7-0.8,2.6
		c-0.8,0-1.5,0-2.3,0C339,29.5,340.3,25.3,341.6,21L341.6,21z M343.1,23.1c-0.6,2-1.2,4.1-1.9,6c1.3,0,2.6,0,3.9,0
		C344.4,27.1,343.8,25.1,343.1,23.1L343.1,23.1z M382.2,21.1c0.7,0,1.4,0,2.1,0c0,4.2,0,8.5,0,12.7c-0.7,0-1.4,0.1-2.1,0.1
		c0-1.9,0-3.7,0-5.6c-2.3,0-4.6,0-6.9,0c0,1.8,0,3.7,0,5.5c-0.5,0-1.6,0-2.1,0c0-4.3,0-8.5,0-12.8c0.5,0,1.6,0,2.2,0
		c0,1.8,0,3.5,0,5.3c2.3,0.1,4.5,0.1,6.8,0.1C382.2,24.6,382.2,22.8,382.2,21.1L382.2,21.1z M412.9,21c1,0,2,0,3,0l4,12.7h-2.3
		c-0.2-0.8-0.5-1.8-0.8-2.6c-1.7,0-3.3,0-5,0c-0.3,0.9-0.5,1.8-0.8,2.7h-2.3L412.9,21L412.9,21z M414.2,23.4
		c-0.7,1.9-1.2,3.8-1.7,5.7c1.2,0,2.4,0,3.5,0L414.2,23.4L414.2,23.4z M447.1,21.1c3,0,6-0.1,9,0c0,4.2,0,8.5,0,12.7
		c-0.5,0-1.6,0-2.1,0c0-3.6,0.1-7.3,0-10.9c-1.7,0-3.3,0-5,0c-0.4,3.1-0.9,6.2-1.5,9.3c-0.4,1.8-1.4,1.5-3.6,1.4
		c0-0.6,0-1.2,0.1-1.8c0.4,0,1.2-0.1,1.5-0.1C446.1,28.2,446.5,24.6,447.1,21.1L447.1,21.1z M30.1,73.2c9.4-0.2,18.8-0.1,28.2-0.1
		c-3.2,10.3-6.8,20.6-10.1,30.9c7.2-4.9,14.2-9.9,21.3-15c0.5-0.4,1.2-1,1.8-0.3c7,5.1,13.7,10.4,20.8,15.3
		c-3.3-10.2-6.5-20.5-9.8-30.7c6.5-0.4,13.1-0.1,19.6-0.2c3,0,6.1-0.1,9.1,0.1c-4.2,3.2-8.5,6.4-12.8,9.4c0.1,0.6,0.1,1.3,0.3,1.9
		c5.3,16.4,10.5,32.8,15.8,49.4c-14.2-10-28.1-20.3-42.2-30.3c-0.9-0.9-2.2-0.5-3.1,0.2c-13.9,10.1-27.9,20.1-41.8,30.2
		c5.2-16.4,10.4-32.7,15.7-49.2c0.2-0.8,0.9-1.9-0.1-2.4C38.4,79.3,34.3,76.1,30.1,73.2L30.1,73.2z"/>
</g>
</svg>
