<?xml version="1.0" encoding="utf-8"?>
<!-- Generator: Adobe Illustrator 19.0.1, SVG Export Plug-In . SVG Version: 6.00 Build 0)  -->
<svg version="1.1" id="Layer_1" xmlns="http://www.w3.org/2000/svg" xmlns:xlink="http://www.w3.org/1999/xlink" x="0px" y="0px"
	 viewBox="0 0 100 100" style="enable-background:new 0 0 100 100;" xml:space="preserve">
<g>
	<path d="M30.7,27.1h-6.9c-2.6,0-4,0.5-4,2.7v2.5c0,2.2,1.4,2.7,4,2.7h1.6c1,0,1.4,0.5,1.4,2v32.7c0,2.7,0.5,4,2.6,4h2.6
		c2.2,0,2.6-1.4,2.6-4V29.8C34.7,27.6,33.4,27.1,30.7,27.1z"/>
	<path d="M77.9,4.4C75,1.5,71.3,0,66.8,0H33.2C28.7,0,25,1.5,22.1,4.4L4.3,22.1C1.5,24.9,0,28.6,0,32.7v34.2c0,4.7,1.6,8.3,4.8,11.4
		l16.9,16.9c3.3,3.3,7,4.8,11.8,4.8h33.1c4.6,0,8.4-1.4,11.8-4.8l16.9-16.9c3.1-3.1,4.8-6.8,4.8-11.4V32.7c0-4.1-1.5-7.8-4.3-10.6
		L77.9,4.4z M93.4,44.4c0,1.1-0.5,1.7-1.6,1.7h-5.1v-3.6c0-2.7-0.4-4-2.6-4h-2.3c-2.3,0-2.6,1.4-2.6,4v3.6h-3.6c-2.6,0-4,0.4-4,2.7
		v2.4c0,2.3,1.4,2.7,4,2.7h3.6v3.6c0,2.7,0.4,4,2.6,4h2.3c2.3,0,2.6-1.4,2.6-4v-3.6h5.1c1,0,1.5,0.5,1.6,1.5v11.5
		c0,2.8-0.8,4.9-2.8,6.8L73.8,90.6c-2,2-4.2,2.9-6.9,2.9H33.1c-2.7,0-4.9-0.9-6.9-2.9L9.4,73.7c-2-2-2.9-4-2.8-6.8V33.5
		c0-2.8,0.9-5.2,3-7.3L26.7,8.8c1.7-1.7,3.9-2.3,6.4-2.3h33.7c2.5,0,4.7,0.5,6.4,2.3l17.2,17.4c2,2,3,4.5,3,7.3V44.4z"/>
	<path d="M63.6,49.5c4.2-3.1,4.3-6.3,4.3-8.9v-2.6c-0.5-8.6-3.3-11.8-13.2-11.8c-9.9,0-12.8,3.3-13.2,11.8v2.6
		c0,2.6,0.1,5.8,4.3,8.9c-5.1,2-5.4,6.3-5.4,12c0,8.4,2.9,12.6,14.4,12.8c11.4-0.2,14.4-4.4,14.4-12.8
		C69.1,55.8,68.7,51.5,63.6,49.5z M54.7,33.3c4.2,0,5.8,1.5,5.8,6.6c0,4.9-1.7,6.6-5.8,6.6c-4.2,0-5.8-1.7-5.8-6.6
		C48.9,34.8,50.5,33.3,54.7,33.3z M54.7,67.1c-4.8,0-6.6-1.9-6.6-6.7c0-4.8,1.7-7,6.6-7c4.8,0,6.6,2.2,6.6,7
		C61.3,65.2,59.5,67.1,54.7,67.1z"/>
</g>
</svg>
