<?xml version="1.0" encoding="utf-8"?>
<!-- Generator: Adobe Illustrator 19.0.1, SVG Export Plug-In . SVG Version: 6.00 Build 0)  -->
<svg version="1.1" id="Layer_1" xmlns="http://www.w3.org/2000/svg" xmlns:xlink="http://www.w3.org/1999/xlink" x="0px" y="0px"
	 viewBox="0 0 100 100" style="enable-background:new 0 0 100 100;" xml:space="preserve">
<g>
	<path d="M54.7,45.9c-1.9,0-3.8,0.2-5.7,0.5c-0.8,0.2-1.4-0.2-1.4-1.1v-1.5c0-7.1,0.5-9.7,6.5-9.7c5.1,0,6.3,0.3,6.3,4
		c0,1.5,1.1,2,2.8,2H65c2.1,0,3-0.5,3-2.6c0-8.9-3.9-11.2-12.7-11.2c-13.8,0-15.4,5.6-15.4,23.3c0.1,17.1-0.9,24.7,14.6,24.7
		c9.8,0,14.2-3.3,14.2-15.8C68.6,48.3,63.8,45.9,54.7,45.9z M54.5,66.8c-5.4,0-7-1.5-7-6v-7.2c1.9-0.5,3.9-0.9,6.1-0.9
		c5.8,0,7.1,1.5,7.1,6.8C60.8,64.4,60.1,66.8,54.5,66.8z"/>
	<path d="M30.3,27.2h-6.9c-2.6,0-4,0.5-4,2.7v2.5c0,2.2,1.4,2.7,4,2.7H25c1,0,1.4,0.5,1.4,2v32.7c0,2.7,0.5,4,2.6,4h2.6
		c2.2,0,2.6-1.4,2.6-4V29.9C34.3,27.7,32.9,27.2,30.3,27.2z"/>
	<path d="M77.8,4.5c-2.9-2.9-6.7-4.4-11.1-4.4H33.1c-4.5,0-8.2,1.5-11.1,4.4L4.2,22.2C1.4,25-0.1,28.7-0.1,32.8V67
		c0,4.7,1.6,8.3,4.8,11.4l16.9,16.9c3.3,3.3,7,4.8,11.8,4.8h33.1c4.6,0,8.4-1.4,11.8-4.8l16.9-16.9c3.1-3.1,4.8-6.8,4.8-11.4V32.8
		c0-4.1-1.5-7.8-4.3-10.6L77.8,4.5z M93.3,44.5c0,1.1-0.5,1.7-1.6,1.7h-5.1v-3.6c0-2.7-0.4-4-2.6-4h-2.3c-2.3,0-2.6,1.4-2.6,4v3.6
		h-3.6c-2.6,0-4,0.4-4,2.7v2.4c0,2.3,1.4,2.7,4,2.7h3.6v3.6c0,2.7,0.4,4,2.6,4H84c2.3,0,2.6-1.4,2.6-4v-3.6h5.1c1,0,1.5,0.5,1.6,1.5
		V67c0,2.8-0.8,4.9-2.8,6.8L73.7,90.7c-2,2-4.2,2.9-6.9,2.9H33c-2.7,0-4.9-0.9-6.9-2.9L9.3,73.8c-2-2-2.9-4-2.8-6.8V33.6
		c0-2.8,0.9-5.2,3-7.3L26.6,8.9c1.7-1.7,3.9-2.3,6.4-2.3h33.7c2.5,0,4.7,0.5,6.4,2.3l17.2,17.4c2,2,3,4.5,3,7.3V44.5z"/>
</g>
</svg>
