<svg id="Layer_1" xmlns="http://www.w3.org/2000/svg" viewBox="0 0 192 254"><path d="M189.8 220.5c-13.2 0-25.3-2.8-35.6-7.3l12.6-7.9-13.8-.8 2-14.1-11.8 8.2-6.7-12.4-1.4 14.1c-8.1-7.9-13.2-17.5-14-27.9l18.5 8.7-8.1-14.4 15.4-7-15.7-6.5 7.6-14.7-17.7 9.3v-23.1l18.8 9-8.1-14.4 15.4-7-15.7-6.5 7.6-14.7-18 9.3v-13-3.1-1.7l24.1 3.1-14.6-13.5 14.9-13.8-20.2-1.7 3.1-19.7L111 55c-2.5-3.1-5.3-6.2-8.7-8.7L126 24.5l-26.1 3.1-1.1-27-19.1 19.1L62 0l3.1 31c-3.4-.6-6.7-.6-10.4-.6-23 0-42.9 9.6-54.7 24.2 3.1 0 5.9.3 8.7.6l3.4 18.6 9.5-16.4c1.1.3 2.2.6 3.4.8l-1.1 19.2 13.8-14.7c.8.6 1.7.8 2.8 1.4l-5.3 17.2 15.7-9.9c5.9 5.4 9.3 11.6 9.3 18.3 0 4.8-1.7 9.6-5.1 13.5l-13.5-7.6 5.6 15.2c-1.1.8-2 1.4-3.1 2l-13.2-13 1.7 18.6c-1.1.6-2.2.8-3.6 1.4L19.2 104l-2.5 18.9c-2.2.3-4.5.8-6.7 1.1 7.6 5.9 16.8 10.4 27.2 12.7v21.7H10.7l3.6 5.6-5.3 3.2-2 1.4 2.2 1.4 5.1 3.1-3.6 5.6h26.4c0 12.1 5.1 23.1 13.5 30.7v40.8l5.6-3.7 4.5 7.3 4.5-7.3 5.6 3.7v-30.4c2.8.6 5.3.8 8.1.8h2v29.6l5.6-3.7L91 254l4.5-7.3 5.6 3.7v-25.9c11.8 6.8 26.4 11 42.7 11 18.8 0 35.9-5.6 48.3-14.7-.9-.3-1.8-.3-2.3-.3zM87 81.5c.3-.3 1.7-4.8.3-9.3-1.4-4.5-5.6-7.3-5.6-7.3s-2 4.8-.6 9.3c1.7 4.2 5.6 7 5.9 7.3-.6.3-.8.3-1.4.6-9.3 3.1-19.1-2-22.2-11.3l33.4-11c2.9 8.7-1.4 18-9.8 21.7z" opacity=".2" fill="#fff"/></svg>