<?xml version="1.0" encoding="utf-8"?>
<!-- Generator: Adobe Illustrator 19.0.1, SVG Export Plug-In . SVG Version: 6.00 Build 0)  -->
<svg version="1.1" id="Layer_1" xmlns="http://www.w3.org/2000/svg" xmlns:xlink="http://www.w3.org/1999/xlink" x="0px" y="0px"
	 viewBox="0 0 19 19" style="enable-background:new 0 0 19 19;" xml:space="preserve">
<path d="M15.5,12.1c-1.1,0-2.1,0.5-2.7,1.3l-5.9-3C6.9,10.1,7,9.8,7,9.5c0-0.3-0.1-0.7-0.2-1l5.9-3c0.6,0.8,1.6,1.4,2.8,1.4
	c1.9,0,3.5-1.5,3.5-3.5C19,1.5,17.4,0,15.5,0C13.6,0,12,1.5,12,3.5c0,0.3,0.1,0.6,0.1,0.9l-5.9,3C5.6,6.6,4.6,6,3.5,6
	C1.6,6,0,7.6,0,9.5C0,11.4,1.6,13,3.5,13c1.1,0,2.1-0.6,2.8-1.4l5.9,3c-0.1,0.3-0.2,0.6-0.2,1c0,1.9,1.6,3.5,3.5,3.5
	c1.9,0,3.5-1.5,3.5-3.5C19,13.6,17.4,12.1,15.5,12.1z"/>
</svg>
