<?xml version="1.0" encoding="utf-8"?>
<!-- Generator: Adobe Illustrator 19.0.1, SVG Export Plug-In . SVG Version: 6.00 Build 0)  -->
<svg version="1.1" id="Layer_1" xmlns="http://www.w3.org/2000/svg" xmlns:xlink="http://www.w3.org/1999/xlink" x="0px" y="0px"
	 viewBox="0 0 215 377" style="enable-background:new 0 0 215 377;" xml:space="preserve">
<g>
	<path d="M107.5,194.6c52.9,0,95.8-43.7,95.8-97.3S160.4,0,107.5,0S11.7,43.7,11.7,97.3C11.7,150.9,54.6,194.6,107.5,194.6z
		 M107.5,57c21.8,0,39.7,18.1,39.7,40.3s-17.8,40.3-39.7,40.3c-21.8,0-39.7-18.1-39.7-40.3S85.7,57,107.5,57z"/>
	<path d="M146.3,273.9c19.5-4.5,38.3-12.4,55.7-23.4c13.1-8.4,17.1-26,8.8-39.3c-8.3-13.4-25.5-17.4-38.7-9
		c-39.2,25.1-89.8,25.1-129,0c-13.2-8.4-30.4-4.4-38.7,9c-8.3,13.3-4.3,30.9,8.8,39.3c17.4,11.1,36.1,18.9,55.7,23.4l-53.7,54.4
		c-11,11.1-11,29.2,0,40.3c5.5,5.6,12.7,8.4,19.8,8.4c7.2,0,14.4-2.8,19.8-8.4l52.6-53.4l52.7,53.4c11,11.1,28.7,11.1,39.7,0
		c11-11.1,11-29.2,0-40.3L146.3,273.9z"/>
</g>
</svg>
