<?xml version="1.0" encoding="utf-8"?>
<!-- Generator: Adobe Illustrator 19.1.0, SVG Export Plug-In . SVG Version: 6.00 Build 0)  -->
<svg version="1.1" id="Layer_1" xmlns="http://www.w3.org/2000/svg" xmlns:xlink="http://www.w3.org/1999/xlink" x="0px" y="0px"
	 viewBox="0 0 56 54" style="enable-background:new 0 0 56 54;" xml:space="preserve">
<g>
	<path d="M53.7,11.5c-2.3,0-4.6,2.3-9.3,2.3c-4.6,0-7-2.3-9.3-2.3c-1.1,0-2.3,1.2-2.3,2.3v16.1c0,5.1,2.3,11.5,11.6,11.5
		C53.7,41.4,56,35,56,29.9V13.8C56,12.7,54.7,11.5,53.7,11.5z M36.2,22.4c0-1.6,1.3-2.9,2.9-2.9c1.6,0,2.9,1.3,2.9,2.9
		s-1.3,2.9-2.9,2.9C37.5,25.3,36.2,24,36.2,22.4z M44.4,36.8c-5.8,0-7-4.6-7-4.6h13.9C51.3,32.2,50.2,36.8,44.4,36.8z M49.6,25.3
		c-1.6,0-2.9-1.3-2.9-2.9s1.3-2.9,2.9-2.9c1.6,0,2.9,1.3,2.9,2.9C52.5,24,51.2,25.3,49.6,25.3z"/>
	<path d="M26.3,29.8c0.6,0.1,1.2,0.1,1.8,0.1c0.8,0,1.6,0,2.3-0.1V23h-9.3c0,0,1.2-4.6,7-4.6c1.2,0,1.6,0.2,2.3,0.4v-5
		c0-2.1,0.9-3.9,2.3-4.6c2.3-1.2,3.3-0.7,4.6,0c2.3,1.2,2.3,1.2,2.3,1.2V2.3c0-1.2-1.2-2.3-2.3-2.3c-2.3,0-4.6,2.3-9.3,2.3
		c-4.6,0-7-2.3-9.3-2.3l0,0c-1.1,0-2.3,1.2-2.3,2.3v16.1c0,2,0.4,4.3,1.4,6.3c0.4,0.2,0.8,0.4,1.2,0.6C22,26.6,24.3,28.2,26.3,29.8z
		 M22.9,8.1c1.6,0,2.9,1.3,2.9,2.9s-1.3,2.9-2.9,2.9c-1.6,0-2.9-1.3-2.9-2.9C20,9.3,21.3,8.1,22.9,8.1z"/>
	<path d="M11.3,25c-5.1,0-9.3,2.5-10.4,4.7c-1.6,3.1-1.2,6.3,1.9,7.9s4.3,3.2,3.1,5.5c-1.6,3.1-0.4,6.7,2.7,8.3
		c3.7,1.9,7,2.6,9.9,2.6c5.2,0,8.9-2.5,10.7-6c4.8-9.4-1.5-16.5-10.9-21.3C16,25.5,13.6,25,11.3,25z M7.8,33.7
		c-0.4,0.8-1.2,1.2-2,1.2c-0.3,0-0.7-0.1-1-0.2c-1.1-0.6-1.5-1.9-1-2.9c0.4-0.8,1.2-1.2,2-1.2c0.3,0,0.7,0.1,1,0.2
		C8,31.3,8.4,32.6,7.8,33.7z M13.9,47.1c-0.5,0.9-1.4,1.4-2.4,1.4c-0.4,0-0.8-0.1-1.2-0.3C9,47.6,8.5,46,9.1,44.7
		c0.5-0.9,1.4-1.4,2.4-1.4c0.4,0,0.8,0.1,1.2,0.3C14,44.2,14.5,45.8,13.9,47.1z M15.8,31.8c-0.4,0.8-1.2,1.2-2,1.2
		c-0.3,0-0.7-0.1-1-0.2c-1.1-0.6-1.5-1.9-1-2.9c0.4-0.8,1.2-1.2,2-1.2c0.3,0,0.7,0.1,1,0.2C15.9,29.4,16.3,30.7,15.8,31.8z
		 M22.9,39.3c0.4-0.8,1.2-1.2,2-1.2c0.3,0,0.7,0.1,1,0.2c1.1,0.6,1.5,1.9,1,2.9c-0.4,0.8-1.2,1.2-2,1.2c-0.3,0-0.7-0.1-1-0.2
		C22.7,41.7,22.3,40.4,22.9,39.3z M20.1,31.8c0.3,0,0.7,0.1,1,0.2c1.1,0.5,1.5,1.9,1,2.9c-0.4,0.8-1.2,1.2-2,1.2
		c-0.3,0-0.7-0.1-1-0.2c-1.1-0.6-1.5-1.9-1-2.9C18.5,32.2,19.3,31.8,20.1,31.8z"/>
</g>
</svg>
