<?xml version="1.0" encoding="utf-8"?>
<!-- Generator: Adobe Illustrator 19.1.0, SVG Export Plug-In . SVG Version: 6.00 Build 0)  -->
<svg version="1.1" id="Layer_1" xmlns="http://www.w3.org/2000/svg" xmlns:xlink="http://www.w3.org/1999/xlink" x="0px" y="0px"
	 viewBox="0 0 74 36" style="enable-background:new 0 0 74 36;" xml:space="preserve">
<path d="M73.3,2.4c-0.7-0.7-1.7-1.2-3.1-1.7c-1.4-0.5-2.8-0.7-4-0.7c-1.6,0-3,0.4-4.3,1.3c-1.1,0.7-2,1.8-2.9,3.2
	c-0.6,0.9-1.3,2.3-2.1,4c-1,1.9-1.7,3.3-2.2,4c-0.8,1.2-1.6,2.2-2.4,3c-1,0.9-2.1,1.7-3.4,2.3c-0.4,0.2-0.8,0.3-1.1,0.4
	c-0.3,0.1-0.8,0.1-1.4,0.1h-1.1c-1.4,0-3.4-0.7-6.1-2.1c-2.7-1.4-4.7-2.1-5.9-2.1c-0.7,0-1.3,0.1-1.9,0.2c-0.6,0.1-1.2,0.4-1.7,0.7
	c-2.9,1.7-5.2,3.6-6.8,5.7c-1.6,2.1-3.3,4.9-5,8.2c-1.1,1.2-2.9,2.1-5.4,2.6s-6.3,0.7-11.6,0.7c-0.5,0-0.8,0.2-0.8,0.6
	c0,0.3,0.2,0.5,0.5,0.6c2.2,0.8,4.3,0.8,6.1,1.2c1.8,0.4,3.5,0.4,5,0.4c2.4,0,4.6-0.4,6.8-1.3c1.3-0.5,3.1-0.6,5.2-1.9
	c0.7-0.4,1.3-0.7,1.8-1c0.7-0.4,1.3-0.7,1.8-0.8v4.8L27,35.3c0,0.3,0.2,0.5,0.7,0.5h1.2c0.6,0,1.1,0,1.5,0.1c0.4,0,0.8,0.1,0.9,0.1
	c0.4,0.1,0.6,0,0.7-0.3c0.1-0.3,0.1-0.5,0.1-0.7v-1c-0.2-0.9-0.4-1.8-0.6-2.7v-1.2h3.7c0.5,0,1,0,1.7-0.1c0.6-0.1,1.3-0.2,2-0.4v1
	c0,0.1,0,0.8,0.1,2c0.1,1.2,0.1,2,0.1,2.4c0,0.4,0.2,0.7,0.6,0.7H43c0.5,0,0.8-0.2,0.8-0.6v-0.9c0-0.4,0-0.8-0.1-1L43,30v-1.2
	c1.6-0.3,3-0.6,4.3-1.1s2.5-1.1,3.6-1.7c1.4-0.9,2.7-1.9,3.8-3c1.1-1.2,2.3-2.6,3.5-4.2c0.7-0.9,1.2-2,1.6-3.5c0.2-0.6,0.5-2,1-4.2
	c0.3-1.5,0.6-2.6,0.8-3.2c0.3-1.1,0.8-2,1.2-2.7c0.9-1.1,2.2-1.7,3.8-1.7c0.5,0,1.2,0.3,1.9,0.8c1.6,1.2,2.5,1.8,2.9,1.8
	c0.5,0,1-0.2,1.5-0.6s0.8-0.9,1-1.5C74.1,3.4,73.9,2.8,73.3,2.4z M72.2,3.4c-0.2,0-0.3-0.2-0.3-0.3c0-0.2,0.2-0.3,0.3-0.3
	c0.2,0,0.3,0.2,0.3,0.3C72.5,3.3,72.4,3.4,72.2,3.4z"/>
</svg>
