<?xml version="1.0" encoding="utf-8"?>
<!-- Generator: Adobe Illustrator 19.1.0, SVG Export Plug-In . SVG Version: 6.00 Build 0)  -->
<svg version="1.1" id="Layer_1" xmlns="http://www.w3.org/2000/svg" xmlns:xlink="http://www.w3.org/1999/xlink" x="0px" y="0px"
	 viewBox="0 0 57 58" style="enable-background:new 0 0 57 58;" xml:space="preserve">
<g>
	<path d="M52.7,17.1H28.4l9.2-15.7c0.2-0.5,0-1.1-0.5-1.3c-0.5-0.2-1.1,0-1.3,0.5l-9.4,16L21.1,5.8c-0.2-0.5-0.8-0.7-1.3-0.4
		c-0.5,0.2-0.7,0.8-0.4,1.3l5.2,10.4H4.3C1.9,17.1,0,19,0,21.4v32.2C0,56,1.9,58,4.3,58h48.3c2.4,0,4.3-2,4.3-4.4V21.4
		C57,19,55.1,17.1,52.7,17.1z M47.4,21.8h4.7c0.5,0,1,0.4,1,1c0,0.5-0.4,1-1,1h-4.7c-0.5,0-1-0.4-1-1C46.4,22.3,46.8,21.8,47.4,21.8
		z M33.8,37L33.8,37l0.4,0.1c0,0.3,0,0.5-0.1,0.8c-0.1,1.5-0.5,2.8-1,4c-1,2.1-2.7,3.4-4.6,3.4c-2.9,0-5.2-3.1-5.6-7.2
		c0,0,2.3-0.4,3.6-0.9c0,0,2.4-0.8,5.4-3c0,0,0,0,0.1,0c0,0,0.1,0.1,0.1,0.2c0.3,0.4,0.8,1.8-0.2,2.4L33.8,37z M24.9,44.7
		c1,1,2.3,1.6,3.6,1.6c1.3,0,2.5-0.6,3.6-1.6l-0.7,1.6c0.2-0.4,1.2-0.5,2.3-0.5c-0.2,1.1-1.4,2-3.1,2.4l-2,3.2l-2-3.2
		c-1.4-0.3-2.5-1-3-1.8c1.1,0.1,2.1,0.3,2.4,0.7L24.9,44.7z M41.2,53c-0.4-3.3-2.7-6.1-5.9-7.1c1.4,0.2,2.7,0.4,2.7,0.4
		c-2.9-1.6-2.8-7.4-2.8-7.4c0.5-11.2-6.8-10.6-6.8-10.6v0v0c0,0-7.3-0.6-6.8,10.6c0,0,0.1,5.8-2.8,7.4c0,0,0.8-0.1,1.8-0.1
		c-2.7,1.2-4.6,3.8-5,6.9H6c-1.4,0-2.6-1.2-2.6-2.6V24.5c0-1.4,1.1-2.6,2.6-2.6h34.2c1.4,0,2.6,1.2,2.6,2.6v26.1l0,0
		C42.9,51.7,42.2,52.6,41.2,53z M45.8,40.9c-0.7,0-1.3-0.6-1.3-1.3s0.6-1.3,1.3-1.3c0.7,0,1.3,0.6,1.3,1.3
		C47,40.3,46.5,40.9,45.8,40.9z M49.7,40.9c-0.7,0-1.3-0.6-1.3-1.3s0.6-1.3,1.3-1.3c0.7,0,1.3,0.6,1.3,1.3
		C51,40.3,50.4,40.9,49.7,40.9z M49.7,34.5c-2,0-3.6-1.6-3.6-3.7l0,0l0,0c0-2,1.6-3.7,3.6-3.7c2,0,3.6,1.6,3.6,3.7l0,0l0,0
		C53.4,32.9,51.7,34.5,49.7,34.5z M53.7,40.9c-0.7,0-1.3-0.6-1.3-1.3s0.6-1.3,1.3-1.3s1.3,0.6,1.3,1.3C55,40.3,54.4,40.9,53.7,40.9z
		"/>
	<path d="M11.3,29.6c0.8,0,1.6-1.1,1.7-2.1c0,0,0-0.8-0.5-0.8c0,0-2.1,0.4-2.4-0.5c0,0-0.4,0.4-0.5,1.2
		C9.7,28.4,10.4,29.6,11.3,29.6z M12.9,27.2L12.9,27.2L12.9,27.2L12.9,27.2z"/>
	<path d="M17.4,23.7H5.2c-0.5,0-0.8,0.4-0.8,0.8v9.4c0,0.5,0.4,0.8,0.8,0.8h12.2c0.5,0,0.8-0.4,0.8-0.8v-9.4
		C18.2,24.1,17.9,23.7,17.4,23.7z M11.3,25.2c1.1,0,2,0.9,2,2c0,1.1-0.9,2.8-2,2.8c-1.1,0-2-1.7-2-2.8C9.3,26.1,10.2,25.2,11.3,25.2
		z M12.5,33.3h-2.5c-1.3,0-2.4,0.1-2.4-1.3c0-1.3,1-2.3,2.2-2.4c0,0.4,0.7,0.8,1.4,0.8c0.8,0,1.4-0.4,1.4-0.8
		c1.2,0.1,2.2,1.1,2.2,2.4C14.9,33.4,13.9,33.3,12.5,33.3z"/>
	<path d="M29.2,27.2L29.2,27.2L29.2,27.2L29.2,27.2z"/>
</g>
</svg>
