<?xml version="1.0" encoding="utf-8"?>
<!-- Generator: Adobe Illustrator 19.1.0, SVG Export Plug-In . SVG Version: 6.00 Build 0)  -->
<svg version="1.1" id="Layer_1" xmlns="http://www.w3.org/2000/svg" xmlns:xlink="http://www.w3.org/1999/xlink" x="0px" y="0px"
	 viewBox="0 0 58 56" style="enable-background:new 0 0 58 56;" xml:space="preserve">
<g>
	<path d="M58,22.1c0,0.9-0.5,2-1.7,2.9l-13.5,9.9c0,0-0.1,0.1-0.1,0.2c-0.1,0.1-0.1,0.3-0.1,0.4c0,0,0,0.1,0,0.1l5.2,16
		C48,52,48,52.5,48,53c0,0.7-0.2,1.3-0.6,1.8c-0.5,0.8-1.4,1.2-2.3,1.2h0c-0.8,0-1.6-0.3-2.3-0.9l-13.5-10c0,0,0,0-0.1,0
		c-0.1,0-0.2,0-0.3,0c-0.2,0-0.4,0.1-0.4,0.1l-13.5,9.9c-0.7,0.5-1.5,0.9-2.3,0.9c-0.9,0-1.8-0.4-2.3-1.2c-0.4-0.5-0.6-1.2-0.6-1.8
		c0-0.5,0.1-1,0.3-1.5l5.2-16c0,0,0,0,0-0.1c0-0.2-0.2-0.6-0.2-0.6L1.7,24.9C0.5,24,0,22.9,0,22.1c0-0.3,0.1-0.7,0.1-0.9
		c0.2-0.7,1.2-2.2,3.4-2.1l16.7,0c0,0,0.2,0,0.3-0.2c0.2-0.1,0.3-0.3,0.2-0.3l5.1-16C26.6,0.6,28.2,0,29,0v0.9l0,0
		c-0.6,0-1.7,0.3-2.2,2l-5.1,16c-0.2,0.5-0.9,1-1.4,1L3.6,20C1.7,20,1.1,21,1,21.5c-0.2,0.6-0.3,1.7,1.2,2.8l13.5,9.9
		c0.4,0.3,0.7,1.2,0.5,1.7l-5.2,16c-0.3,1-0.3,1.9,0.2,2.5c0.4,0.5,1,0.8,1.6,0.8c0.6,0,1.2-0.2,1.8-0.7l13.5-9.9
		c0.2-0.2,0.5-0.2,0.9-0.2c0.3,0,0.7,0.1,0.9,0.2l13.5,9.9c0.6,0.5,1.2,0.7,1.8,0.7c0.6,0,1.2-0.3,1.6-0.8c0.5-0.6,0.5-1.5,0.2-2.5
		l-5.2-16c-0.2-0.5,0.1-1.4,0.5-1.7l13.5-9.9c1.5-1.1,1.4-2.2,1.2-2.8C56.9,21,56.4,20,54.5,20l-16.7,0c-0.5,0-1.2-0.5-1.4-1
		l-5.1-16c-0.6-1.8-1.6-2-2.2-2l0,0l0,0V0c0.8-0.1,2.5,0.6,3.1,2.6l5.1,16c0,0,0.1,0.2,0.2,0.3c0.2,0.1,0.3,0.2,0.3,0.2l16.7,0
		c2.2,0,3.2,1.4,3.4,2.1C57.9,21.4,58,21.7,58,22.1z M55.3,23.6l-13.5,9.9C41.1,34,40.7,35.2,41,36l5.2,16c0.2,0.8,0.2,1.4-0.1,1.8
		c-0.2,0.3-0.6,0.5-0.9,0.5c-0.4,0-0.8-0.2-1.3-0.5l-13.5-9.9c-0.3-0.3-0.8-0.4-1.4-0.4c-0.5,0-1,0.2-1.3,0.4l-13.5,9.9
		c-0.5,0.4-0.9,0.5-1.3,0.5c-0.4,0-0.7-0.2-0.9-0.5c-0.3-0.4-0.3-1-0.1-1.8L17,36c0.3-0.9-0.1-2.1-0.8-2.6L2.7,23.6
		c-1-0.7-1.1-1.4-0.9-1.8c0.1-0.4,0.6-0.9,1.8-0.9l16.7,0c0.9,0,1.9-0.8,2.2-1.6l5.1-16.1c0.4-1.2,1-1.5,1.5-1.5
		c0.5,0,1.1,0.3,1.5,1.5l5.1,16c0.3,0.9,1.3,1.6,2.2,1.6l16.7,0c1.3,0,1.7,0.5,1.8,0.9C56.4,22.2,56.4,22.8,55.3,23.6z M38.7,31.1
		c0-5.4-4.3-9.8-9.7-9.8s-9.7,4.4-9.7,9.8s4.3,9.8,9.7,9.8C34.4,40.9,38.7,36.5,38.7,31.1z M32.9,31v4.2c0,0.2-0.2,0.3-0.3,0.3h-1
		v0.6c0,0.2-0.2,0.3-0.3,0.3h-5.1c-0.2,0-0.3-0.2-0.3-0.3v-0.6h-1c-0.2,0-0.3-0.2-0.3-0.3v-4v0c0,0,0,0,0,0V31
		c-1-0.5-1.7-1.6-1.7-2.8c0-1.8,1.4-3.2,3.1-3.2c1.2,0,2.3,0.7,2.8,1.7c0.5-1,1.6-1.7,2.8-1.7c1.7,0,3.1,1.4,3.1,3.2
		C34.6,29.4,33.9,30.5,32.9,31z M36.5,31.3V34c0,0.2-0.2,0.3-0.3,0.3l-2.6-0.6c-0.2,0-0.3-0.2-0.3-0.4v-1.1c0-0.2,0.2-0.4,0.3-0.4
		l2.6-0.6C36.4,31,36.5,31.1,36.5,31.3z M24.2,32.5v0.9c0,0.2-0.2,0.3-0.3,0.3h-0.2V34c0,0.2-0.2,0.3-0.3,0.3h-0.5
		c-0.2,0-0.3-0.2-0.3-0.3v-2c0-0.2,0.2-0.3,0.3-0.3h0.5c0.2,0,0.3,0.2,0.3,0.3v0.2h0.2C24,32.2,24.2,32.4,24.2,32.5z"/>
</g>
</svg>
