<?xml version="1.0" encoding="utf-8"?>
<!-- Generator: Adobe Illustrator 19.1.0, SVG Export Plug-In . SVG Version: 6.00 Build 0)  -->
<svg version="1.1" id="Layer_1" xmlns="http://www.w3.org/2000/svg" xmlns:xlink="http://www.w3.org/1999/xlink" x="0px" y="0px"
	 viewBox="0 0 48 54" style="enable-background:new 0 0 48 54;" xml:space="preserve">
<g>
	<path d="M25,7.4c1.5,0,2.7,1.2,2.7,2.7s-1.2,2.7-2.7,2.7s-2.7-1.2-2.7-2.7C22.3,8.6,23.5,7.4,25,7.4z"/>
	<path d="M13.4,8.4c1,0,1.8,0.8,1.8,1.8S14.4,12,13.4,12s-1.8-0.8-1.8-1.8C11.6,9.2,12.4,8.4,13.4,8.4z"/>
	<path d="M14,21.5l0.2,10.4c0,0.4,0.3,0.7,0.7,0.7s0.7-0.3,0.7-0.7V15.2c0-0.3,0.1-0.6,0.4-0.6c0.3,0,0.4,0.3,0.4,0.6v0.9l0,0v5.5
		c0,0.3,0.3,0.6,0.6,0.6c0.3,0,0.6-0.3,0.6-0.6l0-7.3c0-0.8-0.7-1.5-1.5-1.5h-1.2l-1.5,1.6L12,12.8h-1.3c-0.8,0-1.5,0.6-1.5,1.5
		l0,7.3c0,0.3,0.3,0.6,0.6,0.6c0.3,0,0.6-0.3,0.6-0.6l0-6.4c0-0.3,0-0.6,0.3-0.6c0.3,0,0.3,0.3,0.3,0.6v16.7c0,0.4,0.3,0.7,0.7,0.7
		s0.7-0.3,0.7-0.7l0.2-10.4l0,0c0-0.4,0.2-0.8,0.6-0.8C13.8,20.8,14,21.1,14,21.5L14,21.5z M13.4,17.9c-0.1,0-0.2-0.1-0.2-0.2
		c0-0.1,0.1-0.2,0.2-0.2s0.2,0.1,0.2,0.2S13.5,17.9,13.4,17.9z M13.4,16.7c-0.1,0-0.2-0.1-0.2-0.2c0-0.1,0.1-0.2,0.2-0.2
		s0.2,0.1,0.2,0.2C13.6,16.6,13.5,16.7,13.4,16.7z M13.4,15.5c-0.1,0-0.2-0.1-0.2-0.2c0-0.1,0.1-0.2,0.2-0.2s0.2,0.1,0.2,0.2
		C13.6,15.4,13.5,15.5,13.4,15.5z"/>
	<path d="M26.7,46.6c0.6,0,1.1-0.5,1.1-1.1v-14c1.1,0,1.9,0,2,0c0.6,0,1.1-0.5,1.1-1.1l-2.4-5.9v-7.1c0-0.5,0.1-0.9,0.6-0.9
		c0.5,0,0.6,0.4,0.6,0.9v1.3l0,0v6.2c0,0.5,0.4,0.9,0.9,0.9c0.5,0,0.9-0.3,0.9-1v-8.8c0-1.2-1-2.2-2.2-2.2h-1.4c0,0,0,0,0,0
		c0,0.2-0.2,0.4-0.4,0.4c-0.1,0-0.2,0-0.3-0.1l0,0c0.1,0.1,0.1,0.2,0.1,0.3c0,0.2-0.2,0.4-0.4,0.4c-0.2,0-0.3-0.1-0.4-0.3
		c0.2,0.3,0,0.5-0.2,0.6c-0.3,0.1-0.6-0.2-0.6-0.4c0,0,0.1,0.5-0.4,0.5c-0.5,0-0.5-0.5-0.5-0.5c0,0.2-0.2,0.5-0.5,0.4
		c-0.4-0.1-0.3-0.5-0.3-0.5c-0.1,0.2-0.2,0.3-0.4,0.3c-0.2,0-0.4-0.2-0.4-0.4c0-0.1,0-0.1,0.1-0.2l0,0c-0.1,0.1-0.2,0.1-0.3,0.1
		c-0.2,0-0.4-0.2-0.4-0.4c0-0.1,0.1-0.3,0.2-0.3h-1.5c-1.2,0-2.2,1-2.2,2.2v2.6c0,0,0,0.1,0,0.1v5.9c0,0.5,0.4,0.9,0.9,0.9
		c0.8,0,0.9-0.7,0.9-0.7c0,0,0-7.3,0-7.3c0-0.5,0-0.9,0.5-0.9c0.5,0,0.5,0.4,0.5,0.9v7.1h0l-2.3,5.9c0,0.6,0.5,1.1,1.1,1.1
		c0.2,0,1.1,0,2.4,0v14c0,0.6,0.5,1.1,1.1,1.1c0.6,0,1.1-0.5,1.1-1.1v-14c0.3,0,0.6,0,0.8,0v14C25.6,46.1,26.1,46.6,26.7,46.6z"/>
	<path d="M28.4,37.9v7.6c0,1-0.8,1.7-1.7,1.7c-0.6,0-1.2-0.3-1.5-0.8c-0.3,0.5-0.9,0.8-1.5,0.8c-1,0-1.7-0.8-1.7-1.7V33.9l-5.7-3.5
		v1.6c0,0.8-0.6,1.4-1.4,1.4c-0.8,0-1.4-0.6-1.4-1.4l0-1.9h-0.3l0,1.9c0,0.8-0.6,1.4-1.4,1.4c-0.8,0-1.4-0.6-1.4-1.4V30H6.5
		l11.6,19.9h29.7L28.4,37.9z"/>
	<path d="M1.6,8.8l0.5,1L3.2,10l-0.8,0.8l0.2,1.1l-1-0.5l-1,0.5l0.2-1.1L0,10l1.1-0.2L1.6,8.8z"/>
	<path d="M8.5,0l0.7,1.4l1.5,0.2L9.6,2.7l0.3,1.5L8.5,3.5L7.1,4.2l0.3-1.5L6.3,1.6l1.5-0.2L8.5,0z"/>
	<path d="M37.8,12.7l0.7,1.4l1.5,0.2l-1.1,1.1l0.3,1.5l-1.4-0.7l-1.4,0.7l0.3-1.5l-1.1-1.1l1.5-0.2L37.8,12.7z"/>
	<path d="M18.4,50.9H48V54H18.4V50.9z"/>
	<path d="M6.2,30.8l11.2,19.9v3L6.2,32.7V30.8z"/>
</g>
</svg>
