<?xml version="1.0" encoding="utf-8"?>
<!-- Generator: Adobe Illustrator 19.1.0, SVG Export Plug-In . SVG Version: 6.00 Build 0)  -->
<svg version="1.1" id="Layer_1" xmlns="http://www.w3.org/2000/svg" xmlns:xlink="http://www.w3.org/1999/xlink" x="0px" y="0px"
	 viewBox="0 0 50 50" style="enable-background:new 0 0 50 50;" xml:space="preserve">
<g>
	<path d="M26.4,23.6c0.8,0.8,0.8,2,0,2.8c-0.8,0.8-2,0.8-2.8,0c-0.8-0.8-0.8-2,0-2.8C24.4,22.9,25.6,22.9,26.4,23.6z"/>
	<path d="M35.7,35.1l-7.7-13c0-0.1-0.1-0.1-0.2-0.2l-12.9-7.6c-0.2-0.1-0.5-0.1-0.6,0.1c-0.2,0.2-0.2,0.4-0.1,0.6l7.6,12.9
		c0,0.1,0.1,0.1,0.2,0.2l13,7.8c0.1,0,0.2,0.1,0.3,0.1c0,0,0,0,0,0c0.3,0,0.5-0.2,0.5-0.5C35.9,35.3,35.8,35.2,35.7,35.1z
		 M22.7,27.3l-6.5-11.1l11.1,6.5l6.6,11.2L22.7,27.3z"/>
	<path d="M26.4,23.6c0.8,0.8,0.8,2,0,2.8c-0.8,0.8-2,0.8-2.8,0c-0.8-0.8-0.8-2,0-2.8C24.4,22.9,25.6,22.9,26.4,23.6z"/>
	<path d="M35.7,35.1l-7.7-13c0-0.1-0.1-0.1-0.2-0.2l-12.9-7.6c-0.2-0.1-0.5-0.1-0.6,0.1c-0.2,0.2-0.2,0.4-0.1,0.6l7.6,12.9
		c0,0.1,0.1,0.1,0.2,0.2l13,7.8c0.1,0,0.2,0.1,0.3,0.1c0,0,0,0,0,0c0.3,0,0.5-0.2,0.5-0.5C35.9,35.3,35.8,35.2,35.7,35.1z
		 M22.7,27.3l-6.5-11.1l11.1,6.5l6.6,11.2L22.7,27.3z"/>
	<path d="M26.4,26.4c-0.8,0.8-2,0.8-2.8,0c-0.8-0.8-0.8-2,0-2.8c0.8-0.8,2-0.8,2.8,0C27.1,24.4,27.1,25.6,26.4,26.4z"/>
	<path d="M35.7,35.1l-7.7-13c0-0.1-0.1-0.1-0.2-0.2l-12.9-7.6c-0.2-0.1-0.5-0.1-0.6,0.1c-0.2,0.2-0.2,0.4-0.1,0.6l7.6,12.9
		c0,0.1,0.1,0.1,0.2,0.2l13,7.8c0.1,0,0.2,0.1,0.3,0.1c0,0,0,0,0,0c0.3,0,0.5-0.2,0.5-0.5C35.9,35.3,35.8,35.2,35.7,35.1z
		 M22.7,27.3l-6.5-11.1l11.1,6.5l6.6,11.2L22.7,27.3z"/>
	<path d="M25,0C11.2,0,0,11.2,0,25s11.2,25,25,25s25-11.2,25-25S38.8,0,25,0z M25.6,45.3V43c0-0.3-0.2-0.5-0.5-0.5
		c-0.3,0-0.5,0.2-0.5,0.5v2.3C13.7,45.1,5,36.4,4.7,25.7h2.6c0.3,0,0.5-0.2,0.5-0.5s-0.2-0.5-0.5-0.5H4.7c0.2-10.9,9-19.7,19.9-20
		v2.7c0,0.3,0.2,0.5,0.5,0.5c0.3,0,0.5-0.2,0.5-0.5V4.7c10.8,0.3,19.6,9.1,19.8,20h-2.5c-0.3,0-0.5,0.2-0.5,0.5s0.2,0.5,0.5,0.5h2.5
		C45,36.4,36.3,45,25.6,45.3z"/>
</g>
</svg>
