<svg id="Layer_1" xmlns="http://www.w3.org/2000/svg" viewBox="0 0 373 319"><path d="M265.8 57.9c0-1.2 0-2.4-.4-3.6-2.9-11.2-7.8-19.2-11.9-24.4C225.3-5.3 166.3.3 162.2.3h-.4C157.3.3 102-4.9 75 29.1c-6.5 8.4-10.2 17.6-11.9 25.2-.4 1.2-.4 3.6-.4 4.8l12.7 225.1-2.5 27.6c.8 2.4 2.5 2 3.7 2.8 6.9 5.6 20.4 4.4 24.9 4 .8 0 1.6 0 2.5-.4 4.1 0 16.8.4 23.7-4.8 2-1.6 2.9-1.6 3.7-3.2l-1.2-12.4c-1.6-8 5.7-13.6 14.7-13.6h38c9.4 0 16.4 5.6 15.5 14l-1.2 13.2c.8 2.4 2.5 2 3.7 3.2 7 5.6 20.4 4.4 24.9 4h2.5c4.1 0 16.8.4 23.7-4.8 2-1.6 2.9-1.6 3.7-3.2-.8-9.6-1.6-19.2-2.5-28.8l12.6-223.9zm-102.3 90.4c-31.9 0-57.7-25.2-57.7-56s25.8-56 57.7-56c31.9 0 57.7 25.2 57.7 56s-25.9 56-57.7 56zm0-89.2c-18.8 0-34.3 14.8-34.3 33.2 0 18.4 15.5 33.2 34.3 33.2s34.3-14.8 34.3-33.2c0-18.4-15.5-33.2-34.3-33.2zm13.5 57.1c-2.9 0-5.7-2.4-5.7-5.2 0-2.8 2.5-5.2 5.7-5.2 2.9 0 5.7 2.4 5.7 5.2 0 2.9-2.5 5.2-5.7 5.2zm0-21.1c-7 0-12.7-5.6-12.7-12 0-6.8 5.7-12 12.7-12 6.9 0 12.7 5.6 12.7 12-.1 6.4-5.8 12-12.7 12zm-39.7 49.2c-1.6-.8-3.3-1.6-5.7-1.6-3.7 0-7.8 1.6-11 2.8-5.3 2.4-8.2 6.8-11.4 11.2-2 3.2-4.1 6.4-7 8.8-.8.8-1.6 1.6-2.5 2.4-5.3 5.6-9 12.8-12.3 19.6-3.3 6.4-7 13.2-11.9 18.8-7 7.2-11.9 15.6-17.2 23.6-5.3 8.4-10.6 16.8-17.6 24.4-10.3 10.7-22.6 19.1-35.3 24.3-3.7 1.6-5.7 4.4-5.3 7.6 0 3.2 2 6 5.3 7.2 6.9 2.4 13.5 3.2 20.4 3.2h2.5c10.6-.4 30.3-3.2 41.3-15.6 1.2-1.6 3.7-4 6.5-6.4 3.3-3.2 6.5-6.4 8.2-8.4 12.3-14.4 23.7-20.8 39.2-26.4 3.3-1.2 5.3-4.4 5.3-7.6-.9-27.1 2.4-63.1 8.5-87.9zm-108 147.9c-5.3.4-9.8-1.2-10.2-4.4-.4-2.8 3.7-6 9-6.4 5.3-.4 9.8 1.2 10.2 4.4 0 3.2-3.7 6-9 6.4zm28.2-8.8c-6.1 2-11.9.8-13.1-2.8-1.2-3.6 2.5-8 8.6-10s11.9-.8 13.1 2.8c1.2 3.2-2.5 8-8.6 10zm24.5-18c-2.5 3.2-7.4 4-11 1.6-3.7-2.4-4.5-7.2-2-10.4s7.4-4 11-1.6c3.6 2.5 4.5 7.2 2 10.4zM368.9 98.7c-11.4-3.6-21.7-4.8-31.1-4-14.3 1.6-27 8.4-33.5 18.8-3.3 5.6-5.3 11.6-6.9 17.6-1.2 4.8-2.9 10-4.9 14.4-3.3 6.8-8.6 12.4-15.1 16.8s-14.3 6.8-21.7 7.2h-2.5c-6.9 0-13.9-1.6-20-4.8-6.9-3.6-12.7-8.8-16.8-14.8-7.4 12.8-14.7 25.2-22.1 38-1.6 2.8-3.3 5.6-4.1 8.8-1.2 5.6.4 13.6 8.6 20.8 4.9 4 11 7.2 20 10 12.3 4 25.8 7.2 40.9 9.2 13.5 2 28.6 3.2 40.5-4 12.7-7.6 18.4-22.4 23.3-38 4.5-14.4 9-28.8 13.5-42.8 5.3-17.2 12.7-36.4 29.4-43.6.8-.4 1.6-.8 2.5-1.2.4 0 .8-.4 1.2-.4 2-.8 2.9-2.4 2.9-4.4-1.7-2-2.5-3.2-4.1-3.6zm-93.7 131.6c-6.5.8-12.7-2-13.1-6-.4-4 4.5-8.4 11.4-9.2 6.5-.8 12.7 2 13.1 6 .4 4.4-4.5 8.4-11.4 9.2zm28.6-15.2c-2.5 3.2-7 4-10.2 1.6-3.3-2.4-4.1-7.2-2-10.4 2.5-3.2 6.9-4 10.2-1.6 3.2 2.4 4 6.8 2 10.4zm13.5-20.8c-2.5 5.2-7.4 8.4-11 6.4-3.7-1.6-4.9-7.6-2.5-12.8 2.5-5.2 7.4-8.4 11-6.4 3.7 1.6 5 7.2 2.5 12.8zm11.5-29.6c-1.2 5.6-5.7 9.6-9.8 8.4-4.1-1.2-6.1-6.4-4.5-12 1.2-5.6 5.7-9.6 9.8-8.4 3.7.8 5.8 6.4 4.5 12zm0-21.2c-3.7.4-7.4-1.6-7.8-4.8-.4-2.8 2.5-5.6 6.5-6 3.7-.4 7.4 1.6 7.8 4.8.1 2.8-2.8 5.6-6.5 6zm14.3-23.2c-4.5 4.4-10.2 5.6-13.1 2.8-2.9-2.8-1.2-8.4 3.3-12.4s10.2-5.6 13.1-2.8c2.9 2.4 1.2 8-3.3 12.4z"/></svg>