<svg id="Layer_1" xmlns="http://www.w3.org/2000/svg" viewBox="0 0 353 338"><path d="M239.9 189.3c21.9 0 51-8.1 81.8-39 35-35.3 33.2-65.9 29-80.9-5.5-19.7-21-35-40.6-39.9-12.1-3-23.7-2.2-33.7.1.9-18.7-.3-29.5-.3-29.5H76.7s-1.2 10.8-.2 29.5c-10-2.3-21.6-3.1-33.7-.1-19.5 4.9-35 20.2-40.6 39.9-4.2 15-6 45.5 29.1 80.9 30.7 30.9 59.8 39 81.7 39 6.5 0 12.3-.7 17.5-1.8 16.6 18.3 30.9 30.4 30.9 62.4 0 55.7-33.5 60.9-33.5 60.9H90.4V338h170.4v-27.3H225s-33.5-5.1-33.5-60.9c0-31.9 14.3-44 30.9-62.4 5.2 1.2 11 1.9 17.5 1.9zm18.7-64.1c7.9-25 12.5-47.6 15.1-66.5 8.1-3.1 18.9-5.6 29.9-2.8 10 2.5 18 10.4 20.9 20.7 4.5 16.1-3.4 35.4-22.1 54.2-23.2 23.4-44.5 30.1-60.2 30.8 5.9-9.5 11.7-21.3 16.4-36.4zm-208 5.8C31.9 112.1 24 92.9 28.5 76.8 31.4 66.5 39.3 58.6 49.4 56c11-2.7 21.8-.3 29.9 2.8 2.6 18.8 7.1 41.3 15.1 66.5 4.8 15.1 10.4 26.8 16.4 36.5-15.8-.7-36.9-7.5-60.2-30.8zm125-12.6l-34.3 18 6.6-38.2-27.7-27.1 38.4-5.6 17.1-34.8 17.1 34.8 38.4 5.6-27.7 27.1 6.5 38.2-34.4-18z"/></svg>