<?xml version="1.0" encoding="utf-8"?>
<!-- Generator: Adobe Illustrator 19.0.1, SVG Export Plug-In . SVG Version: 6.00 Build 0)  -->
<svg version="1.1" id="Layer_1" xmlns="http://www.w3.org/2000/svg" xmlns:xlink="http://www.w3.org/1999/xlink" x="0px" y="0px"
	 viewBox="0 0 373 319" style="enable-background:new 0 0 373 319;" xml:space="preserve">
<g>
	<path d="M265.8,57.9c0-1.2,0-2.4-0.4-3.6c-2.9-11.2-7.8-19.2-11.9-24.4C225.3-5.3,166.3,0.3,162.2,0.3c0,0,0,0-0.4,0
		c-4.5,0-59.8-5.2-86.8,28.8c-6.5,8.4-10.2,17.6-11.9,25.2c-0.4,1.2-0.4,3.6-0.4,4.8l12.7,225.1l0,0l-2.5,27.6
		c0.8,2.4,2.5,2,3.7,2.8c6.9,5.6,20.4,4.4,24.9,4c0.8,0,1.6,0,2.5-0.4c4.1,0,16.8,0.4,23.7-4.8c2-1.6,2.9-1.6,3.7-3.2l-1.2-12.4
		c-1.6-8,5.7-13.6,14.7-13.6h38c9.4,0,16.4,5.6,15.5,14l-1.2,13.2c0.8,2.4,2.5,2,3.7,3.2c7,5.6,20.4,4.4,24.9,4c0.8,0,1.6,0,2.5,0
		c4.1,0,16.8,0.4,23.7-4.8c2-1.6,2.9-1.6,3.7-3.2c-0.8-9.6-1.6-19.2-2.5-28.8L265.8,57.9z M163.5,148.3c-31.9,0-57.7-25.2-57.7-56
		s25.8-56,57.7-56c31.9,0,57.7,25.2,57.7,56C221.2,123.1,195.3,148.3,163.5,148.3z M163.5,59.1c-18.8,0-34.3,14.8-34.3,33.2
		c0,18.4,15.5,33.2,34.3,33.2s34.3-14.8,34.3-33.2C197.8,73.9,182.3,59.1,163.5,59.1z M177,116.2c-2.9,0-5.7-2.4-5.7-5.2
		c0-2.8,2.5-5.2,5.7-5.2c2.9,0,5.7,2.4,5.7,5.2C182.7,113.9,180.2,116.2,177,116.2z M177,95.1c-7,0-12.7-5.6-12.7-12
		c0-6.8,5.7-12,12.7-12c6.9,0,12.7,5.6,12.7,12C189.6,89.5,183.9,95.1,177,95.1z M137.3,144.3c-1.6-0.8-3.3-1.6-5.7-1.6
		c-3.7,0-7.8,1.6-11,2.8c-5.3,2.4-8.2,6.8-11.4,11.2c-2,3.2-4.1,6.4-7,8.8c-0.8,0.8-1.6,1.6-2.5,2.4l0,0c-5.3,5.6-9,12.8-12.3,19.6
		c-3.3,6.4-7,13.2-11.9,18.8c-7,7.2-11.9,15.6-17.2,23.6c-5.3,8.4-10.6,16.8-17.6,24.4C30.4,265,18.1,273.4,5.4,278.6
		c-3.7,1.6-5.7,4.4-5.3,7.6c0,3.2,2,6,5.3,7.2c6.9,2.4,13.5,3.2,20.4,3.2c0.8,0,1.6,0,2.5,0c10.6-0.4,30.3-3.2,41.3-15.6
		c1.2-1.6,3.7-4,6.5-6.4c3.3-3.2,6.5-6.4,8.2-8.4c12.3-14.4,23.7-20.8,39.2-26.4c3.3-1.2,5.3-4.4,5.3-7.6
		C127.9,205.1,131.2,169.1,137.3,144.3z M29.3,292.2c-5.3,0.4-9.8-1.2-10.2-4.4c-0.4-2.8,3.7-6,9-6.4c5.3-0.4,9.8,1.2,10.2,4.4
		C38.3,289,34.6,291.8,29.3,292.2z M57.5,283.4c-6.1,2-11.9,0.8-13.1-2.8c-1.2-3.6,2.5-8,8.6-10s11.9-0.8,13.1,2.8
		C67.3,276.6,63.6,281.4,57.5,283.4z M82,265.4c-2.5,3.2-7.4,4-11,1.6c-3.7-2.4-4.5-7.2-2-10.4c2.5-3.2,7.4-4,11-1.6
		C83.6,257.5,84.5,262.2,82,265.4z M368.9,98.7c-11.4-3.6-21.7-4.8-31.1-4c-14.3,1.6-27,8.4-33.5,18.8c-3.3,5.6-5.3,11.6-6.9,17.6
		c-1.2,4.8-2.9,10-4.9,14.4c-3.3,6.8-8.6,12.4-15.1,16.8c-6.5,4.4-14.3,6.8-21.7,7.2c-0.8,0-1.6,0-2.5,0c-6.9,0-13.9-1.6-20-4.8
		c-6.9-3.6-12.7-8.8-16.8-14.8c-7.4,12.8-14.7,25.2-22.1,38c-1.6,2.8-3.3,5.6-4.1,8.8c-1.2,5.6,0.4,13.6,8.6,20.8
		c4.9,4,11,7.2,20,10c12.3,4,25.8,7.2,40.9,9.2c13.5,2,28.6,3.2,40.5-4c12.7-7.6,18.4-22.4,23.3-38c4.5-14.4,9-28.8,13.5-42.8
		c5.3-17.2,12.7-36.4,29.4-43.6c0.8-0.4,1.6-0.8,2.5-1.2c0.4,0,0.8-0.4,1.2-0.4c2-0.8,2.9-2.4,2.9-4.4
		C371.3,100.3,370.5,99.1,368.9,98.7z M275.2,230.3c-6.5,0.8-12.7-2-13.1-6c-0.4-4,4.5-8.4,11.4-9.2c6.5-0.8,12.7,2,13.1,6
		C287,225.5,282.1,229.5,275.2,230.3z M303.8,215.1c-2.5,3.2-7,4-10.2,1.6c-3.3-2.4-4.1-7.2-2-10.4c2.5-3.2,6.9-4,10.2-1.6
		C305,207.1,305.8,211.5,303.8,215.1z M317.3,194.3c-2.5,5.2-7.4,8.4-11,6.4c-3.7-1.6-4.9-7.6-2.5-12.8c2.5-5.2,7.4-8.4,11-6.4
		C318.5,183.1,319.8,188.7,317.3,194.3z M328.8,164.7c-1.2,5.6-5.7,9.6-9.8,8.4c-4.1-1.2-6.1-6.4-4.5-12c1.2-5.6,5.7-9.6,9.8-8.4
		C328,153.5,330.1,159.1,328.8,164.7z M328.8,143.5c-3.7,0.4-7.4-1.6-7.8-4.8c-0.4-2.8,2.5-5.6,6.5-6c3.7-0.4,7.4,1.6,7.8,4.8
		C335.4,140.3,332.5,143.1,328.8,143.5z M343.1,120.3c-4.5,4.4-10.2,5.6-13.1,2.8c-2.9-2.8-1.2-8.4,3.3-12.4
		c4.5-4,10.2-5.6,13.1-2.8C349.3,110.3,347.6,115.9,343.1,120.3z"/>
</g>
</svg>
