<?xml version="1.0" encoding="utf-8"?>
<!-- Generator: Adobe Illustrator 19.0.1, SVG Export Plug-In . SVG Version: 6.00 Build 0)  -->
<svg version="1.1" id="Layer_1" xmlns="http://www.w3.org/2000/svg" xmlns:xlink="http://www.w3.org/1999/xlink" x="0px" y="0px"
	 viewBox="0 0 439 478" style="enable-background:new 0 0 439 478;" xml:space="preserve">
<g>
	<path d="M193.5,191.1c0.3,0.2,0.7,0.3,1,0.3c0.3,0,0.7-0.1,1-0.3l78.9-44.8c0.6-0.3,1-1,1-1.7c0-0.7-0.4-1.3-1-1.7L195.5,98
		c-0.6-0.3-1.3-0.3-1.9,0s-1,1-1,1.7v89.7C192.5,190.1,192.9,190.7,193.5,191.1z"/>
	<path d="M0,0v289h164.1c0-1.4-0.1-2.7-0.1-4.2c0-4.6,0.4-8.9,1.2-12.8H17V17h405v255H265.7c0.8,3.9,1.2,8.2,1.2,12.8
		c0,1.4,0,2.8-0.1,4.2H439V0H0z"/>
	<path d="M305.3,478l-0.1-65.6c0-12.9-2.8-30.8-27.4-37.3c-18.8-5-26.5-8.3-26.6-21.3c-0.1-8.7,2.6-15.6,6.1-24.3
		c4.5-11.4,9.7-24.4,9.7-44.6c0-39-30.8-53.2-51.5-53.2S164,245.8,164,284.8c0,20.2,5.2,33.2,9.7,44.6c3.5,8.7,6.2,15.6,6.1,24.3
		c-0.2,13-7.7,16.3-26.5,21.3c-24.6,6.5-27.3,24.4-27.3,37.3V478h17v-65.6c0-12.9,3.6-18,14.7-21c16.5-4.4,39-10.3,39.3-37.4
		c0.1-11.9-3.7-21.4-7.3-30.6c-4.2-10.5-8.5-21.4-8.5-38.4c0-35.9,34-36.3,34.4-36.3S250,249,250,284.9c0,17-4.3,27.9-8.5,38.4
		c-3.7,9.1-7.4,18.6-7.3,30.6c0.4,27.1,22.8,33,39.2,37.4c11.1,3,14.6,8.1,14.6,21V478H305.3z"/>
</g>
</svg>
