<svg id="Layer_1" xmlns="http://www.w3.org/2000/svg" viewBox="0 0 215 377"><path d="M107.5 194.6c52.9 0 95.8-43.7 95.8-97.3S160.4 0 107.5 0 11.7 43.7 11.7 97.3c0 53.6 42.9 97.3 95.8 97.3zm0-137.6c21.8 0 39.7 18.1 39.7 40.3s-17.8 40.3-39.7 40.3c-21.8 0-39.7-18.1-39.7-40.3S85.7 57 107.5 57zM146.3 273.9c19.5-4.5 38.3-12.4 55.7-23.4 13.1-8.4 17.1-26 8.8-39.3-8.3-13.4-25.5-17.4-38.7-9-39.2 25.1-89.8 25.1-129 0-13.2-8.4-30.4-4.4-38.7 9-8.3 13.3-4.3 30.9 8.8 39.3 17.4 11.1 36.1 18.9 55.7 23.4l-53.7 54.4c-11 11.1-11 29.2 0 40.3 5.5 5.6 12.7 8.4 19.8 8.4 7.2 0 14.4-2.8 19.8-8.4l52.6-53.4 52.7 53.4c11 11.1 28.7 11.1 39.7 0 11-11.1 11-29.2 0-40.3l-53.5-54.4z"/></svg>