<svg id="Layer_1" xmlns="http://www.w3.org/2000/svg" viewBox="0 0 308 92"><g fill-rule="evenodd" clip-rule="evenodd"><path d="M199.8 38.3c-6.9 0-10.8 4-11.8 11.9l-.8 8.1c-.3 3.4-1.9 5.3-4.9 5.7-.8 0-1.2.4-1.2 1.2v3.3c0 .7.4 1.1 1.2 1.1 6.6 0 10.2-3.8 11-11.6l.8-7.1c.2-2.7.7-4.4 1.4-5.2.8-1 2.4-1.5 4.6-1.5h5.2v23.9c0 .7.3 1.1 1.1 1.1h3.8c.7 0 1.1-.4 1.1-1.1V39.5c0-.8-.4-1.2-1.1-1.2h-10.4zM157.2 56.2V39.5c0-.8-.4-1.2-1.2-1.2h-3.9c-.7 0-1.1.4-1.1 1.2v18.7c0 7.7 3.6 11.6 11 11.6 3.6 0 6.9-1.3 10.1-3.9l.7 2.7c.3.5.7.6 1 .6h2.7c.8 0 1.2-.3 1.2-1V39.5c0-.8-.5-1.2-1.3-1.2h-3.7c-.8 0-1.2.4-1.2 1.2v20.1c-2.3 2.7-5.2 4.1-8.5 4.1-3.9 0-5.8-2.6-5.8-7.5zM146.4 55.2c0-9.5-5.2-14.3-15.7-14.3h-7.8v-9.4H141c.8 0 1.1-.5 1.2-1.3v-3.4c-.1-.8-.4-1.3-1.2-1.3h-23.3c-.8 0-1.2.5-1.2 1.3v29.5c0 8.8 4.2 13.2 12.5 13.2h1.1c10.9-.1 16.3-4.8 16.3-14.3zm-15.5-8.5c6 0 9 2.9 9 8.5 0 5.5-3 8.2-9 8.3h-2c-4-.1-6.1-2.3-6.1-6.7V46.7h8.1zM301.9 50.7h-14.1V39.5c0-.8-.4-1.2-1.2-1.2h-3.8c-.7 0-1 .4-1 1.2v28.6c-.1.7.3 1.1 1 1.1h3.8c.8 0 1.2-.4 1.2-1.1V56.2h14.1v11.9c0 .7.5 1.1 1.2 1.1h3.7c.8 0 1.2-.4 1.2-1.1V39.5c0-.8-.4-1.2-1.2-1.2h-3.7c-.8 0-1.2.4-1.2 1.2v11.2zM273.5 38.3h-3.8c-.9 0-1.3.4-1.3 1.2v20.1c-2.3 2.7-5.1 4.1-8.5 4.1-3.8 0-5.7-2.5-5.7-7.5V39.5c0-.8-.4-1.2-1.1-1.2h-3.8c-.9 0-1.3.4-1.3 1.2v18.7c0 7.7 3.6 11.6 11 11.6 3.9 0 7.3-1.3 10.2-3.9l.6 2.7c.3.5.6.6 1 .6h2.7c.7 0 1.1-.3 1.1-1V39.5c0-.8-.4-1.2-1.1-1.2zM274.4 26.7c0-.8-.4-1.3-1.2-1.3h-24c-.9 0-1.3.5-1.3 1.3v3.4c0 .8.5 1.3 1.3 1.3h24c.8 0 1.2-.5 1.2-1.3v-3.4zM234.5 44.1c.6.8.9 2.1.9 3.9v.7l-6.8.3c-7.8.6-11.6 4-11.6 10.3 0 6.9 3.9 10.4 11.7 10.4 2.8 0 5.5-.7 7.9-2.3l.5 1.1c.5.5.8.6 1.1.6h2.4c.6 0 .9-.3.9-1V48c0-7.2-4-10.8-12.1-10.8-3.5 0-6.6.5-9.3 1.6-.5.4-.7.8-.7 1.1v3.4c.1.5.3.8.5 1 .5.1.8.1 1 .1 2.5-1 5.3-1.4 8.5-1.4 2.5 0 4.2.4 5.1 1.1zM228.7 64c-3.5 0-5.2-1.6-5.2-4.7-.1-3.1 1.6-4.7 4.9-4.9l6.8-.6.1 8.3c-2.2 1.3-4.4 1.9-6.6 1.9z"/><path d="M46.3 0C20.8 0 .1 20.6.1 46s20.7 46 46.2 46c25.5 0 46.2-20.6 46.2-46S71.8 0 46.3 0zm.1 1.5c13.4 0 25.4 5.8 33.6 15.1-21.7-1.9-45.6-1.8-67.3 0C21 7.3 33 1.5 46.4 1.5zm0 89.5c-13.6 0-25.9-6-34.1-15.6 22 1.7 47.1 1.6 68.2 0C72.2 85 60 91 46.4 91zM2.5 56.2c-.7-3.2-1.1-6.5-1.1-9.9 0-3.9.5-7.7 1.5-11.4 29.3-.5 57.8-.6 87 0 1 3.6 1.5 7.4 1.5 11.4 0 3.4-.4 6.7-1.1 9.9-29.6.8-58.8.6-87.8 0z" opacity=".15"/><g><path d="M12.7 16.5c21.7-1.8 45.6-1.9 67.3 0-8.2-9.2-20.2-15-33.6-15-13.4 0-25.4 5.8-33.7 15zM80.5 75.4c-21.1 1.6-46.2 1.7-68.2 0C20.5 85 32.8 91 46.4 91c13.6 0 25.8-6 34.1-15.6zM2.9 34.9c29.3-.5 57.8-.6 87 0 1 3.6 1.5 7.4 1.5 11.4 0 3.4-.4 6.7-1.1 9.9-29.6.9-58.7.6-87.7 0-.7-3.2-1.1-6.5-1.1-9.9-.1-4 .4-7.8 1.4-11.4z"/></g></g></svg>