<svg id="Layer_1" xmlns="http://www.w3.org/2000/svg" viewBox="0 0 58 21"><path d="M55.1 7.7c-1.8 0-2.1.5-2.1 2v1.7c0 1.4.3 2 2.1 2 1.4 0 2.7-.2 2.7-.2l.2 2.6s-1.8.2-3.1.2c-3.3 0-4.9-.9-4.9-4.1V9.2c0-2.9 1.3-4.1 4.9-4.1 1.4 0 2.9.2 2.9.2l-.2 2.6c.1 0-1.2-.2-2.5-.2zm-9.3.2v7.8h-3.1V7.9h-3l-.2-2.7H49l-.2 2.7h-3zm-10.7 2.8H35l-1.7 4h-2l-1.9-4h-.2l-.2 5h-3l.7-10.5h2.9l2.6 6h.2l2.5-6h2.9l.7 10.5h-3l-.4-5zM18.7 21H2.1C.9 21 0 20.1 0 18.9V2.1C0 .9.9 0 2.1 0h16.7c1.1 0 2.1.9 2.1 2.1v16.8c-.1 1.2-1 2.1-2.2 2.1zM10.4 2.7c-2.6 0-5.6 5-5.6 9.3 0 3.1 1.7 6.2 5.6 6.2 3.9 0 5.6-3.1 5.6-6.2 0-4.3-3-9.3-5.6-9.3z"/></svg>