<svg id="Layer_1" xmlns="http://www.w3.org/2000/svg" viewBox="0 0 109 18"><path d="M109 13.5h-2.1l-2.1-3.2v3.2H103V7h1.9v3l2.1-3h1.8l-2.1 2.9 2.3 3.6zm-9-2.9h-2.1v2.9H96V7h1.9v2.4h2.1V7h1.9v6.5H100v-2.9zm-10.4 1c0-.9.5-1.6 1.4-1.9.4-.1.8-.2 1.1-.3.3-.1.7-.1 1.2-.2V9c0-.9-.5-1.1-1.2-1.1-.6 0-1.2.2-1.8.5l-.1-1.2c.8-.2 1.6-.4 2.4-.4.5 0 .9.1 1.3.2.7.2 1.1.8 1.1 1.4v4.8c-1.6.6-5.4 1-5.4-1.6zm3.7-1.5c-.8.1-2 .2-2 1.4 0 1.4 1.5 1.1 2 .9v-2.3zM86 13.7c-1.6 0-2.5-.9-2.9-2.1-.4-1-.4-3.2-.2-4.5.3-2 1.6-2.9 2.9-3.2 1.2-.3 2.7-.5 2.7-.5l.1 1.4s-.8.2-2.3.4c-1.5.2-2.2 1.1-2.2 2.8 1.1-1.6 3.4-1.1 4-.5.4.4.7.8.8 1.3.1.5.2 1 .2 1.4.1 2.1-.9 3.5-3.1 3.5zm1.3-3.4c0-.5-.1-1.1-.3-1.7-.2-.5-.6-.8-1-.8-.3 0-.6.1-.8.3-.4.4-.5 1.1-.5 1.8 0 .8.3 2.6 1.3 2.6.3 0 .6-.1.8-.4.4-.4.5-1.1.5-1.8zm-8.5 3.3c-1.2 0-1.9-.1-1.9-.1V7h1.9v2h.7c.9 0 1.5.1 1.9.4.5.4.8 1 .8 1.7 0 2.1-2.2 2.5-3.4 2.5zm1.6-3.1c-.2-.3-.6-.4-1.1-.4H79h-.2v2.3s1.7.4 1.7-1.3c0-.2 0-.4-.1-.6zm-4.2 1c0 .8-.5 1.4-1.1 1.7-.7.3-1.4.4-1.9.4-.6 0-1.2 0-1.8-.3l.2-1.1c.4.3.9.4 1.4.4.9 0 1.5-.4 1.4-1 0-.3-.1-.5-.3-.7-.2-.2-.4-.2-.7-.3h-1.1v-1h.1c.7 0 1.8 0 1.8-.9 0-.7-.7-.9-1.1-.9-.6 0-1.1.1-1.6.4l-.1-1.1c.7-.3 1.4-.4 2.1-.4 1.5 0 2.5.6 2.4 1.7 0 .8-.7 1.3-1.2 1.5.3.1.6.2.8.3.5.4.7.9.7 1.3zm-7.7-.6H68l-1.4 2.6h-1.9l1.8-2.9c-1-.3-1.5-.9-1.5-1.8 0-1.8 1.7-2 3.1-2 1.4 0 2.3.2 2.3.2v6.5h-1.8v-2.6zm0-3h-.7c-.5 0-1.1.2-1.1.9s.4 1 1.3 1h.5V7.9zM61 13.6c-1.3 0-2.3-.1-2.3-.1V7s.9-.2 2.3-.2c.7 0 1.5.1 2.1.3.3.1.6.3.7.6.1.2.2.5.2.8 0 .7-.4 1.2-1.2 1.5 1.1.1 1.5.8 1.5 1.5v.1c.1 1.7-1.9 2-3.3 2zm.3-5.7h-.7v1.8h.4c.9 0 1.3-.3 1.3-1 .1-.3-.1-.8-1-.8zm1 3c-.2-.1-.4-.2-.6-.2h-1.1v1.9h.5c.8 0 1.5-.3 1.5-1-.1-.3-.1-.5-.3-.7zM56.6 8c-1.3 0-1.8 1-1.8 2.2 0 1.2.5 2.3 1.8 2.3.4 0 .7-.1 1.1-.3l.1 1.2c-.5.2-1 .2-1.5.2-2.2 0-3.4-1.3-3.4-3.4 0-2.1 1.3-3.4 3.4-3.4.6 0 1 .1 1.5.3l-.2 1.2c-.3-.2-.6-.3-1-.3zm-6.3.8l-1.4 4.7h-1.5L46 8.8l-.4 4.7h-1.5l.7-6.5H47l1.4 4.4L49.7 7h2.2l.6 6.5h-1.7l-.5-4.7zm-9.8 4.8c-2.2 0-3.1-1.4-3.1-3.4 0-2.1 1.1-3.4 3.3-3.4.8 0 1.4.2 1.9.5s.8.8.9 1.3c.2.5.2 1 .2 1.5 0 2.3-.9 3.5-3.2 3.5zm1.3-3.5c0-.6-.1-1.1-.3-1.6-.2-.5-.6-.7-1-.7-.5 0-.9.4-1.1.9-.2.5-.2 1-.2 1.4 0 .8.2 2.5 1.3 2.5.5 0 .9-.4 1.1-1 .2-.6.2-1 .2-1.5zm-9.3 3.3v2.8h-1.9v-9c1.6-.3 6.1-1.3 6.1 2.7 0 1-.3 2-.8 2.6-1.1 1.2-2.8 1.1-3.4.9zm0-5.5v4.3c.3.1 2.3.9 2.3-2.2 0-2.4-1.7-2.2-2.3-2.1zm-5-2.1h-2.9v7.7h-2v-9h6.9v9h-2V5.8zM14.9 7.7c0-3.1-1.2-4.5-4.1-4.5H3.2C3.8 1.3 5.5 0 7.5 0h6.2c2.4 0 4.4 2 4.4 4.4v6.2c0 2-1.4 3.7-3.2 4.2V7.7zm-1.2.4c0 .6-.4 1.4-2 1.4h-1c.1.2.1.4.1.7 0 .8-.6 1.5-1.9 1.5H6l-.4-.4v2.2h-1V8.4h1.5c1.8 0 2 1.3 2 1.6 0 .3-.1.5-.2.8h1c.6 0 .8-.3.8-.6 0-.5-.6-.7-1-.9C7.9 9 7.5 8.7 7.5 8c0-.5.3-1.4 1.6-1.4h1v-2h1.7c1 0 1.7.4 1.7 1.2 0 .8-.5 1-.8 1.2.5 0 1 .5 1 1.1zM6.1 9.2h-.5v1.7h.5c.6 0 .9-.5.9-.9s-.3-.8-.9-.8zm4-1.9h-.8c-.6 0-.7.3-.7.5 0 .4.3.6.7.7.2.2.5.3.8.5V7.7l.4-.4h-.4zm1.5-2h-.5v1.3h.5c.7 0 .8-.4.8-.6 0-.2-.1-.7-.8-.7zm.1 2h-.6v1.4h.6c.6 0 .9-.3.9-.7 0-.3-.2-.7-.9-.7zm-4.4 7.5h7.5c-.5 1.9-2.2 3.2-4.2 3.2H4.4C2 18 0 16 0 13.6V7.4c0-2 1.4-3.7 3.2-4.2v7.1c0 3.2 1.3 4.5 4.1 4.5z"/></svg>