<svg id="Layer_1" xmlns="http://www.w3.org/2000/svg" viewBox="0 0 49 47"><path d="M14.9 29.5L.1 21c0 .4 0 .9-.1 1.3 0 1.6.1 3.2.4 4.8.6 2.8 1.6 5.4 3 7.8 1.8 3 4.2 5.6 7 7.6 1.9 1.3 4 2.4 6.2 3.2 1 .3 2 .6 3 .8 1.4.3 2.9.5 4.4.5h1.4c.8 0 1.6-.1 2.4-.2 3.4-.4 6.7-1.6 9.7-3.4 2.8-1.7 5.3-4 7.2-6.7 2-2.8 3.4-6 4.1-9.5.1-.4.2-.9.2-1.3.2-1.1.2-2.2.2-3.4v-.6c0-1-.1-2-.3-3-.4-2.6-1.2-5.1-2.4-7.5L14.9 29.5zm0-6.2L1.1 15.4c-.2.6-.4 1.2-.5 1.8-.1.3-.1.6-.2.8l14.5 8.3L45 9.1c-.3-.4-.6-.9-.9-1.3-.1-.2-.3-.4-.4-.6-.1-.1-.2-.2-.2-.3L14.9 23.3zm0-6.1L3.2 10.5 2 12.9l12.9 7.4L41.5 5c-.7-.7-1.4-1.3-2.2-1.8l-24.4 14zm0-6.2L6.4 6.1c-.6.7-1.2 1.4-1.7 2.1l10.2 5.9 22-12.6C36 .9 35 .5 34 0L14.9 11z"/></svg>