<svg id="Layer_1" xmlns="http://www.w3.org/2000/svg" viewBox="0 0 94 97"><path d="M61.2 0H38.1C27.8 0 20.7 2.3 14.3 7.6c-5 4.4-8 10.7-8 16.9 0 9.6 7.3 19.9 20.9 19.9 1.3 0 2.7-.1 4-.3l-.2.5c-.5 1.3-1.1 2.5-1.1 4.5 0 3.8 1.8 6.1 3.6 8.3l.2.3h-.4c-5.6.4-16 1.1-23.6 5.8C.7 68.8 0 76.6 0 78.9 0 87.9 8.4 97 27.1 97c21.7 0 33.1-12 33.1-23.9 0-8.8-5.1-13.1-10.6-17.7L45 51.8c-1.4-1.2-3.2-2.7-3.2-5.4s1.8-4.4 3.3-6l.2-.2c5-3.9 10.6-8.4 10.6-18 0-9.7-6-14.7-8.9-17.1h7.7c.1 0 .2 0 .3-.1L61.6.8c.2-.1.3-.3.2-.6-.2-.1-.4-.2-.6-.2zm-28 91.7c-13.2 0-22.1-6.2-22.1-15.4 0-6 3.6-10.4 10.8-13 5.7-1.9 13.2-2 13.2-2 1.3 0 1.9 0 2.9.1 9.3 6.6 13.7 10.1 13.7 16.7 0 8.4-7.1 13.6-18.5 13.6zm-.1-50.9c-11.1 0-15.7-14.7-15.7-22.5 0-4 .9-7.1 2.8-9.4 2-2.5 5.5-4.2 8.8-4.2 10.2 0 15.8 13.8 15.8 23.3 0 1.5 0 6.1-3.1 9.2-2.2 2.2-5.6 3.6-8.6 3.6zM93.5 45.3H81.4V33.2c0-.3-.2-.5-.5-.5h-5.2c-.3 0-.5.2-.5.5v12.1H63c-.3 0-.5.2-.5.5v5.3c0 .3.2.5.5.5h12.1v12.2c0 .3.2.5.5.5h5.2c.3 0 .5-.2.5-.5V51.6h12.2c.3 0 .5-.2.5-.5v-5.3c0-.3-.2-.5-.5-.5z"/></svg>