<svg id="Layer_1" xmlns="http://www.w3.org/2000/svg" viewBox="0 0 275 275"><path d="M243.1 65.8c0 9.6-7.8 17.3-17.3 17.3h-16.5c-9.6 0-17.3-7.8-17.3-17.3V49.3c0-9.6 7.8-17.3 17.3-17.3h16.5c9.6 0 17.3 7.8 17.3 17.3v16.5zm0 159.8c0 9.6-8.9 17.3-18.5 17.3H51.1c-9.6 0-19.1-7.8-19.1-17.3V139c0-9.6 9.6-17.5 19.1-17.5h9.8c.7 0 1.3.1 1.9.2 3.6.7 6 3.3 6.2 6.7 0 .6 0 1.2-.1 1.8-.1.4.9.8.9 1.2-.3 2.5.4 5 .4 7.5 0 37.8 29.4 68.6 67.2 69.3-.4 0-1.3.1-1.7.1.4 0 .6-.1 1-.1s.7.1 1.2.1c38.4 0 69.3-31 69.3-69.4 0-2.5-.2-5.1-.5-7.5-.1-.4 0-.8-.1-1.2-.1-.6-.1-1.2-.1-1.8.2-3.4 2.6-6 6.2-6.7.6-.1 1.2-.2 1.9-.2h9.8c9.6 0 18.5 7.9 18.5 17.5v86.7h.2zM103.2 139s2.7-34.6 34.7-34.6 34.7 34.6 34.7 34.6 1 34.6-34.7 34.6c-35.8.1-34.7-34.6-34.7-34.6zM240.3 0H34.7C15.5 0 0 15.5 0 34.6v205.7C0 259.5 15.5 275 34.7 275h205.7c19.1 0 34.7-15.5 34.7-34.6V34.6C275 15.5 259.5 0 240.3 0"/></svg>