<svg id="Layer_1" xmlns="http://www.w3.org/2000/svg" viewBox="0 0 397 397"><path d="M367.5 0H29.3C13.2 0 0 12.8 0 28.6v339.8C0 384.2 13.1 397 29.3 397h338.3c16.2 0 29.4-12.8 29.4-28.6V28.6C396.9 12.8 383.7 0 367.5 0zM117.7 338.3H58.8V148.9h58.9v189.4zM88.3 123c-18.9 0-34.1-15.3-34.1-34.1s15.2-34.1 34.1-34.1c18.8 0 34.1 15.3 34.1 34.1S107.1 123 88.3 123zm249.9 215.3h-58.8v-92.1c0-22-.4-50.2-30.6-50.2-30.6 0-35.3 23.9-35.3 48.6v93.7h-58.8V148.9h56.4v25.9h.8c7.8-14.9 27.1-30.6 55.7-30.6 59.6 0 70.6 39.2 70.6 90.2v103.9z"/></svg>