<svg id="Layer_1" xmlns="http://www.w3.org/2000/svg" viewBox="0 0 311 262"><path d="M302.4 4.8c-12.3 7.6-26 13.1-40.6 16.1C250.2 8 233.6.1 215.2.1c-35.3 0-63.8 29.6-63.8 66.2 0 5.2.6 10.2 1.7 15.1-53-2.8-100.1-29.1-131.6-69.2-5.4 9.7-8.5 21-8.5 33.2 0 23 11.3 43.2 28.4 55.1-10.5-.4-20.3-3.3-28.9-8.3v.8c0 32.1 22 58.8 51.2 64.9-5.3 1.5-11 2.3-16.8 2.3-4.1 0-8.1-.4-12-1.2 8.1 26.3 31.7 45.4 59.6 46-21.8 17.7-49.4 28.3-79.3 28.3-5.2 0-10.2-.3-15.2-.9 28.3 18.8 61.8 29.7 97.8 29.7 117.4 0 181.5-100.8 181.5-188.2l-.2-8.6c12.5-9.3 23.4-20.9 31.9-34.2-11.5 5.3-23.7 8.8-36.7 10.4 13.2-8.4 23.3-21.3 28.1-36.7z"/></svg>