<svg id="Layer_1" xmlns="http://www.w3.org/2000/svg" viewBox="0 0 328 410"><path d="M305.2 217.8c-15.2-16.4-35.5-27.3-60.8-32.6V183c17.6-7.3 31.4-18.8 41.4-34.4s15-33.4 15-53.4c0-17.2-3.6-32.5-10.9-45.7-7.3-13.2-18.2-23.8-32.9-31.6-13.6-7.3-28.1-12.2-43.6-14.4C197.8 1.1 175 0 144.9 0H0v410h164.1c28.4 0 51.9-2.6 70.3-7.7s35.4-13.8 50.8-25.9c13-10.1 23.4-22.8 31.1-38.3 7.7-15.4 11.6-33.3 11.6-53.7.1-28-7.5-50.1-22.7-66.6zm-113.8-78.3c-3.1 6.8-8.8 12.1-17.1 16-7.5 3.5-14.8 5.4-21.9 5.8-7.1.4-19.4.6-37 .6h-12.9V75.1h7.2c18.3 0 32.2.1 41.4.4 9.3.3 17.3 1.9 24.1 4.8 7.2 3.1 12.4 8.2 15.8 15.1 3.4 7 5.1 13.8 5.1 20.4 0 9.1-1.6 17-4.7 23.7zM215.5 309c-4.3 7.8-11.1 13.7-20.5 17.8-10.6 4.6-21.1 7.1-31.4 7.4-10.3.4-28.8.6-55.6.6h-5.5V232h19c18.3 0 33 .1 43.9.4 10.9.3 19.5 1.6 25.7 4 10.3 3.7 18 9.1 23.1 16.2 5.1 7.2 7.7 17.1 7.7 29.7 0 10-2.1 18.8-6.4 26.7z"/></svg>