<?xml version="1.0" encoding="utf-8"?>
<!-- Generator: Adobe Illustrator 19.0.1, SVG Export Plug-In . SVG Version: 6.00 Build 0)  -->
<svg version="1.1" id="Layer_1" xmlns="http://www.w3.org/2000/svg" xmlns:xlink="http://www.w3.org/1999/xlink" x="0px" y="0px"
	 viewBox="0 0 16 16" style="enable-background:new 0 0 16 16;" xml:space="preserve">
<path d="M16,8c0,0.3-0.2,0.6-0.5,0.8l-6.9,6.9c-0.4,0.4-1,0.4-1.4,0c-0.4-0.4-0.4-1,0-1.4L12.6,9H1C0.4,9,0,8.6,0,8c0-0.6,0.4-1,1-1
	h11.6L7.3,1.7c-0.4-0.4-0.4-1,0-1.4c0.4-0.4,1-0.4,1.4,0l6.9,6.9c0,0,0.1,0,0.1,0.1c0,0,0,0.1,0.1,0.1C15.9,7.6,16,7.8,16,8z"/>
</svg>
