<?xml version="1.0" encoding="utf-8"?>
<!-- Generator: Adobe Illustrator 19.1.0, SVG Export Plug-In . SVG Version: 6.00 Build 0)  -->
<svg version="1.1" id="Layer_1" xmlns="http://www.w3.org/2000/svg" xmlns:xlink="http://www.w3.org/1999/xlink" x="0px" y="0px"
	 viewBox="0 0 20 11" enable-background="new 0 0 20 11" xml:space="preserve">
<path d="M20,5.5C20,5.5,20,5.6,20,5.5C20,5.6,20,5.6,20,5.5C20,5.6,20,5.6,20,5.5C20,5.6,20,5.6,20,5.5C20,5.6,20,5.6,20,5.5
	c0,0.2-0.1,0.4-0.2,0.5c-0.2,0.2-0.4,0.5-0.7,0.7c-1.2,1.2-2.7,2.3-4.2,3.1c-1,0.5-2.1,0.9-3.2,1.1c-1.2,0.2-2.4,0.2-3.7,0
	C5.9,10.4,4,9.3,2.4,8C1.6,7.4,0.8,6.8,0.2,6c-0.3-0.3-0.3-0.7,0-1c0.2-0.2,0.4-0.5,0.7-0.7C2.1,3.1,3.6,2,5.1,1.2
	c1-0.5,2.1-0.9,3.2-1.1c1.2-0.2,2.4-0.2,3.7,0c2.1,0.4,4,1.5,5.7,2.8c0.8,0.6,1.5,1.3,2.2,2C19.9,5.1,20,5.2,20,5.4c0,0,0,0,0,0
	c0,0,0,0,0,0c0,0,0,0,0,0C20,5.4,20,5.4,20,5.5C20,5.5,20,5.5,20,5.5C20,5.5,20,5.5,20,5.5C20,5.5,20,5.5,20,5.5z M10,1.8
	c-2.1,0-3.8,1.7-3.8,3.7c0,2.1,1.7,3.7,3.8,3.7c2.1,0,3.8-1.7,3.8-3.7C13.8,3.4,12.1,1.8,10,1.8z M10,6.7c-0.7,0-1.3-0.6-1.3-1.2
	c0-0.7,0.6-1.2,1.3-1.2c0.7,0,1.3,0.6,1.3,1.2C11.3,6.2,10.7,6.7,10,6.7z"/>
</svg>
