<?xml version="1.0" encoding="utf-8"?>
<!-- Generator: Adobe Illustrator 19.1.0, SVG Export Plug-In . SVG Version: 6.00 Build 0)  -->
<svg version="1.1" id="Layer_1" xmlns="http://www.w3.org/2000/svg" xmlns:xlink="http://www.w3.org/1999/xlink" x="0px" y="0px"
	 viewBox="0 0 40 40" style="enable-background:new 0 0 40 40;" xml:space="preserve">
<path d="M37.3,10C31.8,0.5,19.6-2.8,10,2.7C0.5,8.2-2.8,20.5,2.7,30c5.5,9.6,17.7,12.8,27.3,7.3C39.6,31.8,42.9,19.6,37.3,10z
	 M28,33.9c-7.7,4.4-17.4,1.8-21.9-5.9C1.7,20.4,4.4,10.6,12,6.2c7.7-4.4,17.4-1.8,21.9,5.9C38.3,19.7,35.7,29.5,28,33.9z M27.2,19.2
	l-10.5-6.1c-1-0.6-1.7-0.1-1.7,1l0.1,12.1c0,1.1,0.8,1.6,1.7,1l10.4-6C28.2,20.7,28.2,19.8,27.2,19.2z"/>
</svg>
