<?xml version="1.0" encoding="utf-8"?>
<!-- Generator: Adobe Illustrator 19.0.1, SVG Export Plug-In . SVG Version: 6.00 Build 0)  -->
<svg version="1.1" id="Layer_1" xmlns="http://www.w3.org/2000/svg" xmlns:xlink="http://www.w3.org/1999/xlink" x="0px" y="0px"
	 viewBox="0 0 94 97" style="enable-background:new 0 0 94 97;" xml:space="preserve">
<g>
	<g>
		<path d="M61.2,0H38.1C27.8,0,20.7,2.3,14.3,7.6c-5,4.4-8,10.7-8,16.9c0,9.6,7.3,19.9,20.9,19.9c1.3,0,2.7-0.1,4-0.3L31,44.6
			c-0.5,1.3-1.1,2.5-1.1,4.5c0,3.8,1.8,6.1,3.6,8.3l0.2,0.3l-0.4,0c-5.6,0.4-16,1.1-23.6,5.8C0.7,68.8,0,76.6,0,78.9
			C0,87.9,8.4,97,27.1,97c21.7,0,33.1-12,33.1-23.9c0-8.8-5.1-13.1-10.6-17.7L45,51.8c-1.4-1.2-3.2-2.7-3.2-5.4c0-2.7,1.8-4.4,3.3-6
			l0.2-0.2c5-3.9,10.6-8.4,10.6-18c0-9.7-6-14.7-8.9-17.1h7.7c0.1,0,0.2,0,0.3-0.1l6.6-4.2c0.2-0.1,0.3-0.3,0.2-0.6
			C61.6,0.1,61.4,0,61.2,0z M33.2,91.7c-13.2,0-22.1-6.2-22.1-15.4c0-6,3.6-10.4,10.8-13c5.7-1.9,13.2-2,13.2-2c1.3,0,1.9,0,2.9,0.1
			c9.3,6.6,13.7,10.1,13.7,16.7C51.7,86.5,44.6,91.7,33.2,91.7z M33.1,40.8c-11.1,0-15.7-14.7-15.7-22.5c0-4,0.9-7.1,2.8-9.4
			c2-2.5,5.5-4.2,8.8-4.2c10.2,0,15.8,13.8,15.8,23.3c0,1.5,0,6.1-3.1,9.2C39.5,39.4,36.1,40.8,33.1,40.8z"/>
		<path d="M93.5,45.3H81.4V33.2c0-0.3-0.2-0.5-0.5-0.5h-5.2c-0.3,0-0.5,0.2-0.5,0.5v12.1H63c-0.3,0-0.5,0.2-0.5,0.5v5.3
			c0,0.3,0.2,0.5,0.5,0.5h12.1v12.2c0,0.3,0.2,0.5,0.5,0.5h5.2c0.3,0,0.5-0.2,0.5-0.5V51.6h12.2c0.3,0,0.5-0.2,0.5-0.5v-5.3
			C94,45.5,93.8,45.3,93.5,45.3z"/>
	</g>
</g>
</svg>
