<?xml version="1.0" encoding="utf-8"?>
<!-- Generator: Adobe Illustrator 19.0.1, SVG Export Plug-In . SVG Version: 6.00 Build 0)  -->
<svg version="1.1" id="Layer_1" xmlns="http://www.w3.org/2000/svg" xmlns:xlink="http://www.w3.org/1999/xlink" x="0px" y="0px"
	 viewBox="0 0 311 262" style="enable-background:new 0 0 311 262;" xml:space="preserve">
<g>
	<path d="M302.4,4.8c-12.3,7.6-26,13.1-40.6,16.1C250.2,8,233.6,0.1,215.2,0.1c-35.3,0-63.8,29.6-63.8,66.2c0,5.2,0.6,10.2,1.7,15.1
		c-53-2.8-100.1-29.1-131.6-69.2C16.1,21.9,13,33.2,13,45.4c0,23,11.3,43.2,28.4,55.1c-10.5-0.4-20.3-3.3-28.9-8.3V93
		c0,32.1,22,58.8,51.2,64.9c-5.3,1.5-11,2.3-16.8,2.3c-4.1,0-8.1-0.4-12-1.2c8.1,26.3,31.7,45.4,59.6,46
		c-21.8,17.7-49.4,28.3-79.3,28.3C10,233.3,5,233,0,232.4c28.3,18.8,61.8,29.7,97.8,29.7c117.4,0,181.5-100.8,181.5-188.2l-0.2-8.6
		c12.5-9.3,23.4-20.9,31.9-34.2c-11.5,5.3-23.7,8.8-36.7,10.4C287.5,33.1,297.6,20.2,302.4,4.8z"/>
</g>
</svg>
