<?xml version="1.0" encoding="utf-8"?>
<!-- Generator: Adobe Illustrator 19.0.1, SVG Export Plug-In . SVG Version: 6.00 Build 0)  -->
<svg version="1.1" id="Layer_1" xmlns="http://www.w3.org/2000/svg" xmlns:xlink="http://www.w3.org/1999/xlink" x="0px" y="0px"
	 viewBox="0 0 192 402" style="enable-background:new 0 0 192 402;" xml:space="preserve">
<path d="M186.1,0h-60.9C65.2,0,14.4,45.5,14.4,134c0,53.1,24.6,92.2,68.4,111.5L1.1,393.4c-2.7,4.8,0,8.6,4.3,8.6h38
	c3.2,0,5.4-1.1,6.4-3.8L124.1,253h26.7v145.3c0,1.6,1.6,3.8,3.7,3.8h33.2c3.2,0,4.3-1.6,4.3-4.3V5.4C192,1.6,189.9,0,186.1,0z
	 M150.8,218.6h-22.4c-35.3,0-69.5-25.7-69.5-90.1c0-67,32.1-94.3,64.7-94.3h27.3L150.8,218.6L150.8,218.6z"/>
</svg>
