<?xml version="1.0" encoding="utf-8"?>
<!-- Generator: Adobe Illustrator 19.1.0, SVG Export Plug-In . SVG Version: 6.00 Build 0)  -->
<svg version="1.1" id="Layer_1" xmlns="http://www.w3.org/2000/svg" xmlns:xlink="http://www.w3.org/1999/xlink" x="0px" y="0px"
	 viewBox="0 0 192 254" style="enable-background:new 0 0 192 254;" xml:space="preserve">
<path style="opacity:0.2;fill:#FFFFFF;enable-background:new    ;" d="M189.8,220.5c-13.2,0-25.3-2.8-35.6-7.3l12.6-7.9l-13.8-0.8
	l2-14.1l-11.8,8.2l-6.7-12.4l-1.4,14.1c-8.1-7.9-13.2-17.5-14-27.9l18.5,8.7l-8.1-14.4l15.4-7l-15.7-6.5l7.6-14.7l-17.7,9.3v-12.1
	l0,0v-11l18.8,9l-8.1-14.4l15.4-7l-15.7-6.5l7.6-14.7l-18,9.3v-13c0-1.1,0-2.3,0-3.1c0-0.6,0-1.1,0-1.7l24.1,3.1l-14.6-13.5
	l14.9-13.8l-20.2-1.7l3.1-19.7l-17.4,18c-2.5-3.1-5.3-6.2-8.7-8.7L126,24.5l-26.1,3.1L98.8,0.6L79.7,19.7L62,0l3.1,31
	c-3.4-0.6-6.7-0.6-10.4-0.6c-23,0-42.9,9.6-54.7,24.2c3.1,0,5.9,0.3,8.7,0.6l3.4,18.6l9.5-16.4c1.1,0.3,2.2,0.6,3.4,0.8l-1.1,19.2
	l13.8-14.7c0.8,0.6,1.7,0.8,2.8,1.4l-5.3,17.2l15.7-9.9c5.9,5.4,9.3,11.6,9.3,18.3c0,4.8-1.7,9.6-5.1,13.5l-13.5-7.6l5.6,15.2
	c-1.1,0.8-2,1.4-3.1,2l-13.2-13l1.7,18.6c-1.1,0.6-2.2,0.8-3.6,1.4l-9.8-15.8l-2.5,18.9c-2.2,0.3-4.5,0.8-6.7,1.1
	c7.6,5.9,16.8,10.4,27.2,12.7v21.7H20.8h-2.5h-2.8h-4.8l3.6,5.6L9,167.2l-2,1.4l2.2,1.4l5.1,3.1l-3.6,5.6h4.8h2.8h2.5h16.3l0,0
	c0,12.1,5.1,23.1,13.5,30.7v30.7v10.1l5.6-3.7l4.5,7.3l4.5-7.3l5.6,3.7v-10.1v-20.3c2.8,0.6,5.3,0.8,8.1,0.8c0.6,0,1.4,0,2,0v19.5
	v10.1l5.6-3.7L91,254l4.5-7.3l5.6,3.7v-10.1v-15.8c11.8,6.8,26.4,11,42.7,11c18.8,0,35.9-5.6,48.3-14.7
	C191.2,220.5,190.3,220.5,189.8,220.5z M87,81.5c0.3-0.3,1.7-4.8,0.3-9.3c-1.4-4.5-5.6-7.3-5.6-7.3s-2,4.8-0.6,9.3
	C82.8,78.4,86.7,81.2,87,81.5c-0.6,0.3-0.8,0.3-1.4,0.6c-9.3,3.1-19.1-2-22.2-11.3l33.4-11C99.7,68.5,95.4,77.8,87,81.5z"/>
</svg>
