<?xml version="1.0" encoding="utf-8"?>
<!-- Generator: Adobe Illustrator 19.1.0, SVG Export Plug-In . SVG Version: 6.00 Build 0)  -->
<svg version="1.1" id="Layer_1" xmlns="http://www.w3.org/2000/svg" xmlns:xlink="http://www.w3.org/1999/xlink" x="0px" y="0px"
	 viewBox="0 0 30 30" style="enable-background:new 0 0 30 30;" xml:space="preserve">
<path style="opacity:0.5;fill:#A9A9A9;enable-background:new    ;" d="M15,0C6.8,0,0,6.8,0,15s6.8,15,15,15s15-6.7,15-15
	S23.2,0,15,0z M3,15C3,8.4,8.4,3,15,3c2.7,0,5.2,0.9,7.4,2.6L5.6,22.4C3.9,20.2,3,17.7,3,15z M15,27c-2.7,0-5.2-0.9-7.3-2.5
	L24.5,7.7C26.1,9.8,27,12.3,27,15C27,21.6,21.6,27,15,27z"/>
</svg>
