<?xml version="1.0" encoding="utf-8"?>
<!-- Generator: Adobe Illustrator 19.1.0, SVG Export Plug-In . SVG Version: 6.00 Build 0)  -->
<svg version="1.1" id="Layer_1" xmlns="http://www.w3.org/2000/svg" xmlns:xlink="http://www.w3.org/1999/xlink" x="0px" y="0px"
	 viewBox="0 0 110 16" style="enable-background:new 0 0 110 16;" xml:space="preserve">
<path d="M52,2.3h-4.1v11.4h1.9v-4H52c3.5,0,4.2-2,4.2-3.7C56.3,3.6,54.8,2.3,52,2.3 M52,7.9h-2.2V4.1H52c1.6,0,2.3,0.6,2.3,1.9
	C54.3,7.3,53.6,7.9,52,7.9 M16.8,9.7c0,0-0.9,0-1.5,0c-1.2,0-2,0.3-2,1.2c0,0.8,0.6,1.3,1.8,1.3c0.8,0,1.2-0.1,1.7-0.2V9.7z
	 M18.7,13.4c-1,0.3-2.1,0.5-3.6,0.5c-2.1,0-3.6-0.9-3.6-3c0-1.7,1.3-2.7,3.8-2.7h1.6V7.7c0-0.9-0.6-1.2-1.8-1.2
	c-1.1,0-2,0.3-2.6,0.5c-0.2-0.6-0.4-1.1-0.5-1.7c1-0.4,2-0.6,3.3-0.6c2.1,0,3.5,0.8,3.5,3.3V13.4z M20.4,11.4
	c0.7,0.4,1.6,0.6,2.6,0.6c1,0,1.6-0.2,1.6-0.8c0-1.7-4.7-0.4-4.7-3.9c0-1.9,1.7-2.7,3.4-2.7c1.1,0,2.1,0.3,2.8,0.7l-0.5,1.7
	c-0.6-0.4-1.4-0.7-2.2-0.7c-0.9,0-1.6,0.2-1.6,0.8c0,1.7,4.7,0.4,4.7,3.7c0,2-1.7,2.8-3.6,2.8c-1.2,0-2.2-0.3-3-0.7L20.4,11.4z
	 M62.2,9.7c0,0-0.9,0-1.5,0c-1.2,0-2,0.3-2,1.2c0,0.8,0.6,1.3,1.8,1.3c0.8,0,1.2-0.1,1.7-0.2V9.7z M64,13.4c-1,0.3-2.2,0.5-3.6,0.5
	c-2.1,0-3.6-0.9-3.6-3c0-1.7,1.3-2.7,3.8-2.7h1.6V7.7c0-0.9-0.6-1.2-1.8-1.2c-1.1,0-2,0.3-2.6,0.5c-0.2-0.6-0.4-1.1-0.5-1.7
	c0.9-0.4,1.9-0.6,3.3-0.6C62.6,4.7,64,5.6,64,8L64,13.4L64,13.4z M65.8,11.4c0.7,0.4,1.6,0.6,2.6,0.6c1,0,1.6-0.2,1.6-0.8
	c0-1.7-4.7-0.4-4.7-3.9c0-1.9,1.7-2.7,3.4-2.7c1.1,0,2.1,0.3,2.8,0.7L71,7.2c-0.6-0.4-1.4-0.7-2.2-0.7c-0.9,0-1.6,0.2-1.6,0.8
	c0,1.7,4.7,0.4,4.7,3.7c0,2-1.7,2.8-3.6,2.8c-1.2,0-2.2-0.3-3-0.7L65.8,11.4z M73.3,11.4c0.7,0.4,1.6,0.6,2.6,0.6
	c1,0,1.6-0.2,1.6-0.8c0-1.7-4.7-0.4-4.7-3.9c0-1.9,1.7-2.7,3.4-2.7c1.1,0,2.1,0.3,2.8,0.7l-0.5,1.7c-0.6-0.4-1.4-0.7-2.2-0.7
	c-0.9,0-1.6,0.2-1.6,0.8c0,1.7,4.7,0.4,4.7,3.7c0,2-1.7,2.8-3.6,2.8c-1.2,0-2.2-0.3-3-0.7L73.3,11.4z M34.9,8.6h3.9
	c0-1.4-0.8-2.1-1.9-2.1C35.7,6.5,34.9,7.1,34.9,8.6 M40.7,10h-5.9c0.1,1.4,0.9,2.1,2.4,2.1c1,0,1.8-0.2,2.4-0.4l0.5,1.7
	c-0.8,0.3-1.8,0.5-2.9,0.5c-2.6,0-4.3-1.3-4.3-4.6c0-3.3,1.5-4.6,3.9-4.6c2.3,0,3.9,1.3,3.9,4.4L40.7,10L40.7,10z M42,5.3
	c0.9-0.3,1.8-0.6,3-0.6c0.8,0,1.4,0.1,2,0.2l-0.6,1.7c-0.4-0.1-0.9-0.2-1.4-0.2c-0.5,0-1,0.1-1.3,0.2v7H42V5.3z M10.2,2.3v11.4H8.3
	V5.8l-3,4.9H4.9l-3-4.9v7.9H0V2.3h1.9l3.3,5.3l3.3-5.3L10.2,2.3L10.2,2.3z M30.7,12.1c0.5,0,0.9-0.1,1.3-0.2l0.4,1.7
	c-0.5,0.2-1.1,0.3-1.7,0.3c-1.8,0-3.1-0.8-3.1-3.2V2.3h1.9v2.6h2.9v1.8h-2.9v3.9C29.4,11.7,29.9,12.1,30.7,12.1 M79.8,4.9h0.9v0.2
	h-0.3v1h-0.2v-1h-0.4L79.8,4.9L79.8,4.9z M80.8,4.9H81l0.3,0.5l0.3-0.5h0.2v1.1h-0.2V5.2l-0.3,0.5L81,5.2v0.8h-0.2L80.8,4.9
	L80.8,4.9z"/>
<path style="opacity:0.4;" d="M84.5,8c0,4.4,3.5,8,7.9,8c4.3,0,7.9-3.6,7.9-8c0-4.4-3.5-8-7.9-8C88,0,84.5,3.6,84.5,8"/>
<g>
	<g>
		<path id="SVGID_1_" d="M94.3,8c0,4.4,3.5,8,7.9,8c4.3,0,7.9-3.6,7.9-8c0-4.4-3.5-8-7.9-8C97.8,0,94.3,3.6,94.3,8"/>
	</g>
</g>
</svg>
