<?xml version="1.0" encoding="utf-8"?>
<!-- Generator: Adobe Illustrator 19.1.0, SVG Export Plug-In . SVG Version: 6.00 Build 0)  -->
<svg version="1.1" id="Layer_1" xmlns="http://www.w3.org/2000/svg" xmlns:xlink="http://www.w3.org/1999/xlink" x="0px" y="0px"
	 viewBox="0 0 99 19" style="enable-background:new 0 0 99 19;" xml:space="preserve">
<path d="M97.6,15.1c-0.6,0-1.2-0.2-1.6-0.8l-4-5.6l0,6.3h-2l0-7.6c0-0.9,0.6-1.5,1.4-1.5c0.8,0,1.2,0.3,1.6,0.8l4,5.5L97,6h2v7.6
	C99,14.6,98.4,15.1,97.6,15.1z M83.8,15.1h-0.7c-3.2,0-4.5-1.5-4.5-4.6c0-3.2,1.3-4.6,4.5-4.6h0.7c3.3,0,4.5,1.5,4.5,4.6
	C88.3,13.6,87,15.1,83.8,15.1z M83.8,7.7h-0.7c-2,0-2.5,0.9-2.5,2.8c0,1.8,0.6,2.7,2.4,2.7h0.7c1.9,0,2.4-0.9,2.4-2.7
	C86.2,8.6,85.7,7.7,83.8,7.7z M71.6,6.8v2.4H77V11h-5.4V15h-2.1V6.1c0-1,0.5-1.5,1.3-1.5h7v2h-6C71.6,6.5,71.6,6.6,71.6,6.8z
	 M65.2,13h-4.4L60,15h-2.3l3.5-8c0.4-0.8,0.9-1.2,1.7-1.2c0.8,0,1.4,0.5,1.7,1.3l3.5,7.9H66L65.2,13z M63.1,8
	C63.1,7.8,63,7.8,63,7.8c-0.1,0-0.1,0-0.2,0.2l-1.3,3.2h3L63.1,8z M55.4,15l-3.2,0c-3.1,0-4.5-1.4-4.5-4.5c0-3.2,1.3-4.5,4.5-4.5
	h4.2v1.9h-4.2c-2,0-2.5,0.8-2.5,2.6c0,1.8,0.7,2.6,2.4,2.6l2.2,0c0.1,0,0.2-0.1,0.2-0.2v-2.7h2.1v3.4C56.6,14.4,56.1,15,55.4,15z
	 M38.5,13.5V7.5c0-0.9,0.5-1.5,1.2-1.5H46v1.9h-5.4c-0.1,0-0.2,0.1-0.2,0.2v1.3h5v1.8h-5v1.6c0,0.1,0,0.2,0.2,0.2h5.5V15h-6.5
	C38.9,15,38.5,14.5,38.5,13.5z M34.2,6.8l-2.9,6.9c-0.4,0.9-0.9,1.4-1.8,1.4c-0.8,0-1.4-0.5-1.8-1.4l-2.9-6.8V15h-2.1V6.6
	c0-1.5,0.7-2.2,1.9-2.2c1,0,1.6,0.6,2.1,1.7l2.8,6.8l2.8-6.8c0.5-1.1,1.1-1.7,2.1-1.7c1.2,0,1.9,0.7,1.9,2.2V15h-2.1V6.8z M11,19
	H9.1v-8c0-0.1,0-0.1,0.1-0.1l1.3,0c0.4,0,0.7-0.3,0.7-0.8v-10c4.6,0.6,8.2,4.6,8.2,9.4C19.3,14.4,15.7,18.5,11,19z M16.5,14.4
	c0.5,0,1-0.5,1-1c0-0.6-0.4-1-1-1c-0.6,0-1,0.5-1,1C15.5,14,15.9,14.4,16.5,14.4z M13.8,14.4c0.6,0,1-0.5,1-1c0-0.6-0.4-1-1-1
	c-0.6,0-1,0.5-1,1C12.8,14,13.2,14.4,13.8,14.4z M11.1,12.4c-0.6,0-1,0.5-1,1c0,0.6,0.4,1,1,1c0.6,0,1-0.5,1-1
	C12.1,12.9,11.6,12.4,11.1,12.4z M8.7,9.8c-0.4,0-0.7,0.3-0.7,0.8v8.3C3.4,18.2,0,14.3,0,9.5C0,4.3,4.2,0,9.4,0C9.6,0,9.8,0,10,0
	v9.7c0,0.1,0,0.1-0.1,0.1L8.7,9.8z M7.8,5.9C7.2,5.9,6.7,6.4,6.7,7c0,0.6,0.5,1.1,1.1,1.1S8.9,7.7,8.9,7C8.9,6.4,8.4,5.9,7.8,5.9z"
	/>
</svg>
