<?xml version="1.0" encoding="utf-8"?>
<!-- Generator: Adobe Illustrator 19.1.0, SVG Export Plug-In . SVG Version: 6.00 Build 0)  -->
<svg version="1.1" id="Layer_1" xmlns="http://www.w3.org/2000/svg" xmlns:xlink="http://www.w3.org/1999/xlink" x="0px" y="0px"
	 viewBox="0 0 49 47" style="enable-background:new 0 0 49 47;" xml:space="preserve">
<path d="M14.9,29.5L0.1,21c0,0.4,0,0.9-0.1,1.3c0,1.6,0.1,3.2,0.4,4.8C1,29.9,2,32.5,3.4,34.9c1.8,3,4.2,5.6,7,7.6
	c1.9,1.3,4,2.4,6.2,3.2c1,0.3,2,0.6,3,0.8c1.4,0.3,2.9,0.5,4.4,0.5h1.4c0.8,0,1.6-0.1,2.4-0.2c3.4-0.4,6.7-1.6,9.7-3.4
	c2.8-1.7,5.3-4,7.2-6.7c2-2.8,3.4-6,4.1-9.5c0.1-0.4,0.2-0.9,0.2-1.3c0.2-1.1,0.2-2.2,0.2-3.4c0-0.2,0-0.4,0-0.6c0-1-0.1-2-0.3-3
	c-0.4-2.6-1.2-5.1-2.4-7.5L14.9,29.5z M14.9,23.3L1.1,15.4c-0.2,0.6-0.4,1.2-0.5,1.8c-0.1,0.3-0.1,0.6-0.2,0.8l14.5,8.3L45,9.1
	c-0.3-0.4-0.6-0.9-0.9-1.3c-0.1-0.2-0.3-0.4-0.4-0.6c-0.1-0.1-0.2-0.2-0.2-0.3L14.9,23.3z M14.9,17.2L3.2,10.5
	c-0.4,0.8-0.8,1.6-1.2,2.4l12.9,7.4L41.5,5c-0.7-0.7-1.4-1.3-2.2-1.8L14.9,17.2z M14.9,11L6.4,6.1C5.8,6.8,5.2,7.5,4.7,8.2l10.2,5.9
	l22-12.6C36,0.9,35,0.5,34,0L14.9,11z"/>
</svg>
