<?xml version="1.0" encoding="utf-8"?>
<!-- Generator: Adobe Illustrator 19.1.0, SVG Export Plug-In . SVG Version: 6.00 Build 0)  -->
<svg version="1.1" id="Layer_1" xmlns="http://www.w3.org/2000/svg" xmlns:xlink="http://www.w3.org/1999/xlink" x="0px" y="0px"
	 viewBox="0 0 105 26" style="enable-background:new 0 0 105 26;" xml:space="preserve">
<path d="M97.3,26H44.4V0h52.8l7.7,13L97.3,26z M95.7,2.2H47v21.6h48.8l6.4-10.8L95.7,2.2z M90.8,13.4L88,16.7v0.6h-1.1v-5.8H88v3.9
	l2.8-3.3v-0.6h1.1v5.8h-1.1V13.4z M82.8,17.3h-1.1v-5.8h3.8v0.9h-2.8V17.3z M77.7,17.3h-2v-5.8h1.1v2h1.1c0.8,0,1.5,0.2,1.9,0.6
	c0.5,0.4,0.5,1,0.5,1.4c0,0.7-0.3,1.1-0.5,1.3C79.3,17.3,78.5,17.3,77.7,17.3z M78.9,14.7c-0.3-0.2-0.8-0.2-1.1-0.2h-0.9v2h1
	c0.3,0,0.7,0,1-0.2c0.2-0.1,0.4-0.4,0.4-0.8C79.2,15,79,14.8,78.9,14.7z M72.7,14.7h-2.8v2.7h-1.1v-5.8h1.1v2.2h2.8v-2.2h1.1v5.8
	h-1.1V14.7z M63.6,16.1c0.4,0.4,0.8,0.4,1.2,0.4c0.4,0,1,0,1.7-0.6l0.7,0.6c-0.5,0.5-1.1,0.9-2.3,0.9c-0.7,0-1.5-0.1-2.1-0.8
	c-0.5-0.5-0.9-1.3-0.9-2.2c0-0.8,0.3-1.7,0.9-2.3c0.5-0.5,1.1-0.8,1.9-0.8c0.7,0,1.3,0.2,1.8,0.6c0.7,0.7,0.9,1.8,0.9,2.6H63
	C63,15.2,63.2,15.8,63.6,16.1z M66,13.8c0-0.4-0.2-0.8-0.5-1.1c-0.3-0.3-0.7-0.4-1-0.4c-0.4,0-0.7,0.1-1,0.3
	c-0.3,0.2-0.5,0.7-0.6,1.1H66z M59.8,17.3h-6v1.9h-1.1v-2.9h1c0.2-0.4,0.7-1.2,0.9-2.3c0.2-1,0.3-2.2,0.3-3.9V8.7h5v7.6h1.1v2.9
	h-1.1V17.3z M58.6,9.7H56V10c0,2.2-0.2,3.4-0.4,4.2c-0.2,0.8-0.4,1.4-0.8,2.1h3.8V9.7z M36.1,19.2c-1.8,0-3-1.5-3-4.1c0-3,1.3-5,3-5
	c0.4,0,0.9,0.1,1.7,0.4c0.1,0.1,0.2,0.1,0.2,0.2c0,0.1,0,0.1-0.1,0.2l-0.5,0.8c-0.1,0.1-0.1,0.1-0.2,0.1c-0.1,0-0.1,0-0.1-0.1
	c-0.5-0.4-0.8-0.5-1-0.5c-0.9,0-1.5,1.8-1.5,3.5c0,2,0.7,3.3,2,3.3c0.7,0,1.2-0.2,1.3-0.2c0.1,0,0.1,0,0.1,0.1l0.1,0.6
	c0,0.1,0,0.1-0.1,0.2C37.7,18.9,36.9,19.2,36.1,19.2z M31.6,19c-0.2,0-0.4-0.1-0.5-0.3l-2-4.1c0-0.1-0.1-0.1-0.1-0.2v4.4
	c0,0.1,0,0.1-0.1,0.1h-1.2c-0.1,0-0.1-0.1-0.1-0.1v-8.5c0-0.1,0.1-0.1,0.1-0.1h1.2c0.1,0,0.1,0.1,0.1,0.1v3.8
	c0.1-0.1,0.2-0.2,0.3-0.4l1.6-3.2c0.1-0.2,0.2-0.3,0.5-0.3h1c0.1,0,0.1,0.1,0.1,0.1l-2.1,3.8l2.5,4.7c0,0.1,0,0.1-0.1,0.1H31.6z
	 M22.5,14.9v0.4c0,1.5,0.6,2.7,2,2.7c0.7,0,1.2-0.2,1.3-0.2c0.1,0,0.1,0,0.1,0.1l0.1,0.6c0,0.1,0,0.1-0.1,0.2
	c-0.4,0.2-1.2,0.6-2,0.6c-1.8,0-3-1.6-3-4.2c0-2.6,0.9-4.9,2.8-4.9c1.4,0,2.4,1.4,2.4,4.1V15h-2.6C23.2,15,22.5,14.9,22.5,14.9z
	 M24.7,13.3c-0.1-1.3-0.4-2.1-1-2.1c-0.6,0-1,0.7-1.2,2.2c0,0.3,0,0.5,0,0.5s0.6-0.1,1-0.1h1.2C24.7,13.9,24.7,13.6,24.7,13.3z
	 M19.2,20.7c-0.1,0-0.1-0.1-0.1-0.1V19h-3.8v1.4c0,0.1-0.1,0.3-0.3,0.3h-0.9c-0.1,0-0.1,0-0.1-0.1V18c0-0.1,0-0.1,0.1-0.1h0.4
	c1.1-2,1.3-4.8,1.3-6.9v-0.6c0-0.1,0.1-0.1,0.1-0.1h3.6c0.1,0,0.1,0,0.1,0.1v7.2c0,0.2,0.1,0.3,0.3,0.3h0.2c0.1,0,0.1,0.1,0.1,0.1
	v2.4c0,0.2-0.1,0.3-0.2,0.3H19.2z M18.2,11.4h-1.1c0,0.3,0,0.8-0.1,1.2c-0.1,2.1-0.5,3.8-1.4,5.3h2.6V11.4z M11.8,19
	c-0.1,0-0.1-0.1-0.1-0.1v-4h-2v4C9.6,19,9.5,19,9.5,19H8.3c-0.1,0-0.1-0.1-0.1-0.1v-8.4c0-0.1,0.1-0.1,0.1-0.1h1.1
	c0.1,0,0.1,0,0.1,0.1v3.3h2v-3.3c0-0.1,0.1-0.1,0.1-0.1h1.1c0.1,0,0.1,0.1,0.1,0.1v8.4c0,0.1,0,0.1-0.1,0.1H11.8z M5.1,19
	C5.1,19,5,18.9,5,18.9v-4.7H4.1l-2.5,4.7C1.6,19,1.5,19,1.4,19H0.2C0,19-0.1,18.9,0,18.7l2.7-4.8c-1.5-0.6-2.3-1.9-2.3-3.6
	C0.5,7.5,2.2,6,4.2,6h2C6.3,6,6.4,6,6.4,6.2v12.7c0,0.1,0,0.1-0.1,0.1H5.1z M5,7.1H4.1C3,7.1,2,8,2,10.2c0,2.1,1.1,2.9,2.3,2.9H5
	V7.1z"/>
</svg>
