<?xml version="1.0" encoding="utf-8"?>
<!-- Generator: Adobe Illustrator 19.0.1, SVG Export Plug-In . SVG Version: 6.00 Build 0)  -->
<svg version="1.1" id="Layer_1" xmlns="http://www.w3.org/2000/svg" xmlns:xlink="http://www.w3.org/1999/xlink" x="0px" y="0px"
	 viewBox="0 0 234 145" style="enable-background:new 0 0 234 145;" xml:space="preserve">
<path d="M105.7,0.1c15.5-1.3,28.8,6.3,40.2,16.4c11.6,10.3,24.3,18.5,39.3,22.8c6.3,1.9,13.2,2,19.5,3.9c6.6,2,13.4,4.3,19.3,7.8
	c10,5.9,13.1,16.4,7,26.1c-4.6,7.3-10.5,14.3-17.2,19.6c-22.5,18.2-48.9,28.3-76.3,36.4c-24.1,7.2-48.8,11.3-73.9,11.8
	c-15.4,0.3-30.8-0.7-45.5-6.6c-19.7-8-23.5-22.5-9.8-38.7c5.1-6,11.3-11.4,17.8-15.9c7.5-5.2,13.4-11.5,17.6-19.2
	c5.2-9.7,10-19.4,14.8-29.3c6.5-13.3,14.7-25,29.3-30.3C93.4,2.7,99.4,0.7,105.7,0.1z M193.9,100.9c12-7.2,23.2-13.9,30.2-25.6
	c4.8-8.1,2.9-15.5-5.2-20.3c-3.1-1.9-6.5-3.6-10-4.3c-9.3-1.6-18.7-3.5-28-3.6c-32.3-0.3-63.6,6.1-94.2,16.1
	C64.5,70.3,43,79,24.3,93.3c-5.3,4.1-10.3,9.1-14.1,14.6c-5.9,8.5-3.6,17.2,5.8,21.4c7,3.2,14.8,4.8,22.3,6.3
	c5.2,1.1,10.6,0.9,16.8,1.3c-6.5-8.7-6.6-12.7,0.9-18.8c6.6-5.5,13.9-10.3,21.6-14.1c24.8-12.1,51.5-18.4,79-19.8
	c9.5-0.5,19.2,1.1,28.5,3C192.6,88.8,194.4,92.6,193.9,100.9z M77.3,138.1c20.1-0.6,37.6-3.7,54.6-8.8c13.7-4.1,26.9-9.4,40.1-14.7
	c4.4-1.7,8.4-4.9,11.9-8.1c3.9-3.5,2.8-6.7-2.1-8.5c-1.1-0.4-2.2-0.8-3.4-0.8c-10.1,0.3-20.3-0.1-30.2,1.1
	c-23.7,3-46.8,9.3-68.8,19.1c-5.7,2.6-11.2,6-16.1,9.8c-4.6,3.6-3.5,8,2.3,9.3C70.1,137.7,74.8,137.8,77.3,138.1z M112.3,22.1
	c-1,0.7-4.3,2-4.8,4s1.4,5.2,3.2,6.9c3.6,3.3,10.2,3.7,12.9,1.1c1.2-1.2,1.9-3.5,1.6-5.2C124.6,25.2,118.8,22,112.3,22.1z
	 M96.5,32.7c-0.1-3.6-2.8-5.8-6.4-4.9c-5,1.3-8.4,4.6-9.8,9.7c-0.9,3.4,1.4,6.4,4.9,6.5C90.2,44.1,96.6,37.8,96.5,32.7z M147.4,35
	c2.2-1.2,3.8-1.5,4.3-2.5c0.4-0.9,0.1-2.6-0.6-3.5c-3.7-4.9-8.9-7.3-14.8-8.2c-1.1-0.2-3.1,0.6-3.3,1.4c-0.4,1.2,0,3.3,0.8,3.9
	C138.2,29.3,142.9,32.2,147.4,35z M72.1,39.6c-0.4-0.7-0.7-2.3-1.6-2.7c-1-0.4-3-0.2-3.6,0.5c-3.5,4.3-6.8,8.8-9.8,13.4
	c-0.5,0.7,0,2.9,0.8,3.5c0.7,0.6,2.6,0.5,3.6,0C66.9,51.2,70,46.2,72.1,39.6z"/>
</svg>
