<?xml version="1.0" encoding="utf-8"?>
<!-- Generator: Adobe Illustrator 19.0.1, SVG Export Plug-In . SVG Version: 6.00 Build 0)  -->
<svg version="1.1" id="Layer_1" xmlns="http://www.w3.org/2000/svg" xmlns:xlink="http://www.w3.org/1999/xlink" x="0px" y="0px"
	 viewBox="0 0 100 100" style="enable-background:new 0 0 100 100;" xml:space="preserve">
<g>
	<g>
		<path d="M31.8,27.1h-6.9c-2.6,0-4,0.5-4,2.7v2.5c0,2.2,1.4,2.7,4,2.7h1.6c1,0,1.4,0.5,1.4,2v32.7c0,2.7,0.5,4,2.6,4h2.6
			c2.2,0,2.6-1.4,2.6-4V29.8C35.8,27.6,34.4,27.1,31.8,27.1z"/>
		<path d="M77.9,4.4C75,1.5,71.3,0,66.8,0H33.2C28.7,0,25,1.5,22.1,4.4L4.3,22.1C1.5,24.9,0,28.6,0,32.7v34.2
			c0,4.7,1.6,8.3,4.8,11.4l16.9,16.9c3.3,3.3,7,4.8,11.8,4.8h33.1c4.6,0,8.4-1.4,11.8-4.8l16.9-16.9c3.1-3.1,4.8-6.8,4.8-11.4V32.7
			c0-4.1-1.5-7.8-4.3-10.6L77.9,4.4z M93.4,44.4c0,1.1-0.5,1.7-1.6,1.7h-5.1v-3.6c0-2.7-0.4-4-2.6-4h-2.3c-2.3,0-2.6,1.4-2.6,4v3.6
			h-3.6c-2.6,0-4,0.4-4,2.7v2.4c0,2.3,1.4,2.7,4,2.7h3.6v3.6c0,2.7,0.4,4,2.6,4h2.3c2.3,0,2.6-1.4,2.6-4v-3.6h5.1
			c1,0,1.5,0.5,1.6,1.5v11.5c0,2.8-0.8,4.9-2.8,6.8L73.8,90.6c-2,2-4.2,2.9-6.9,2.9H33.1c-2.7,0-4.9-0.9-6.9-2.9L9.4,73.7
			c-2-2-2.9-4-2.8-6.8V33.5c0-2.8,0.9-5.2,3-7.3L26.7,8.8c1.7-1.7,3.9-2.3,6.4-2.3h33.7c2.5,0,4.7,0.5,6.4,2.3l17.2,17.4
			c2,2,3,4.5,3,7.3V44.4z"/>
	</g>
	<g>
		<path d="M68.2,41.4c0-10.4-1-15.3-13.7-15.3c-8.9,0-12.7,2-12.7,11.2c0,2,0.8,2.6,3,2.6h1.8c1.7,0,2.8-0.3,2.8-1.8
			c0-3.8,1.4-4.2,5.1-4.2c3.9,0,5.7,0.4,5.7,5.8c0,8.3-6.1,8.5-11.6,10.8c-6.4,2.7-7.4,7.7-7.4,14.8v4.5c0,3.3,1.4,3.9,4.2,3.9h18.4
			c2.8,0,4.2-0.5,4.2-3v-2.3c0-2.3-1.4-2.8-4.2-2.8H50.5c-1.1,0-1.4-0.5-1.4-1.7v-2.5C49.1,53.3,68.2,58.3,68.2,41.4z"/>
	</g>
</g>
</svg>
