<?xml version="1.0" encoding="utf-8"?>
<!-- Generator: Adobe Illustrator 19.1.0, SVG Export Plug-In . SVG Version: 6.00 Build 0)  -->
<svg version="1.1" id="Layer_1" xmlns="http://www.w3.org/2000/svg" xmlns:xlink="http://www.w3.org/1999/xlink" x="0px" y="0px"
	 viewBox="0 0 72 72" enable-background="new 0 0 72 72" xml:space="preserve">
<path d="M35.9,0C16.2,0,0,16.2,0,35.8C0,55.9,15.9,72,35.9,72C56,72,72,56.1,72,36.1C72.1,16.2,55.9,0,35.9,0z M20.1,56.6
	c0,0.7,0,1.5,0,2.5c-3.5-2.2-5.9-5-7.9-8.1c-6.9-10.5-5.5-25.2,3.3-34.2C24.8,7.2,39,5.1,50.2,11.7c0.9,0.5,1.5,0.8,0.5,2
	C43.5,22.4,36.4,31,29.1,39.4c-0.3,0.3-0.4,0.7-0.6,1c-0.2-0.1-0.4-0.2-0.5-0.4c0-5.9-0.1-11.7,0-17.6c0-1.7-0.5-2.1-2.1-2
	c-1.2,0.1-2.5,0.1-3.7,0c-1.8-0.2-2.3,0.4-2.3,2.2C20.1,34,20.1,45.2,20.1,56.6z M36.3,64.2c-5.3,0.1-10.2-1.3-14.6-4
	c-0.9-0.5-1.4-0.8-0.5-1.9c7.4-8.7,14.7-17.4,22.1-26.2c0.2-0.2,0.3-0.6,0.5-0.9c0.2,0.1,0.3,0.2,0.5,0.3c0,2.5,0,5.1,0,7.6
	c0,2.2-0.1,4.5,0,6.7c0.1,1.9-0.9,4.6,0.4,5.6c1.2,1,3.8,0.2,5.7,0.4c1.4,0.1,1.7-0.5,1.6-1.7c-0.1-3.7,0-7.3,0-10.9
	c0-8,0-15.9,0-23.9c0-0.6,0-1.3,0-2.3c5.1,3.5,8.4,7.9,10.5,13.2C69.3,44.4,55.9,63.9,36.3,64.2z"/>
</svg>
