<?xml version="1.0" encoding="utf-8"?>
<!-- Generator: Adobe Illustrator 19.1.0, SVG Export Plug-In . SVG Version: 6.00 Build 0)  -->
<svg version="1.1" id="Layer_1" xmlns="http://www.w3.org/2000/svg" xmlns:xlink="http://www.w3.org/1999/xlink" x="0px" y="0px"
	 viewBox="0 0 200 37" enable-background="new 0 0 200 37" xml:space="preserve">
<path d="M84.7,0H4.2C1.9,0,0,1.9,0,4.1v28.7C0,35.1,1.9,37,4.2,37h80.4L84.7,0z M26,31H13.3H8v-4.3V7h5v20h13V31z M33,31h-5v-5h5V31
	z M33,24h-5V7h5V24z M56,11H44v6h10v4H44v10h-5V10.8V7h5.3H56V11z M65,31h-5v-4.3V10.8V7h5h13v4H65v6h12v4H65v6h14v4H65z"/>
<path opacity="0.7" d="M195.8,0H84.7l-0.1,37h111.2c2.3,0,4.2-1.9,4.2-4.1V4.2C200,1.9,198.1,0,195.8,0z M111.8,30.3L111.8,30.3
	h-4.9l0,0h-0.3L96.1,14.9v15.3l0,0h-4.9l0,0V7.5l0,0l0,0l0,0h4.9l0,0h0.3l10.4,15.3V7.5l0,0h4.9l0,0L111.8,30.3L111.8,30.3
	L111.8,30.3z M135.6,30.3H122l0,0h-4.9l0,0v-3.8V11.2V7.4l0,0h4.9l0,0h13v3.8h-13v5.6h12v3.8h-12v5.9h13.5V30.3z M163.1,30.3h-0.4
	H158h-0.4l-4.8-16.8L148,30.3h-0.4h-4.7h-0.4l-5.8-22.8h5.1l3.8,15.4l4.4-15.4h0.6h4.5h0.6l4.4,15.4l3.8-15.4h5.1L163.1,30.3z
	 M188.9,27.2c-0.8,1.1-1.9,2-3.3,2.5c-1.4,0.5-3.2,0.8-5.3,0.8c-3.1,0-5.5-0.7-7.1-2s-2.6-3.5-3-6h4.9c0.3,1.5,0.8,2.4,1.7,3.1
	c0.9,0.7,2.1,1,3.6,1c1.6,0,2.8-0.3,3.6-0.9c0.8-0.6,1.2-1.3,1.2-2.2c0-0.5-0.2-1-0.5-1.4c-0.3-0.4-0.9-0.7-1.8-1
	c-0.6-0.2-1.9-0.5-3.9-1c-2.6-0.6-4.5-1.4-5.6-2.3c-1.5-1.2-2.2-2.8-2.2-4.6c0-1.1,0.4-2.2,1.1-3.2s1.7-1.8,3-2.3
	c1.3-0.5,2.9-0.8,4.8-0.8c3.1,0,5.4,0.6,6.9,1.9c1.6,1.3,2.4,2.9,2.4,5l-5,0c-0.2-1.2-0.6-1.8-1.3-2.3c-0.7-0.5-1.7-0.8-3.1-0.8
	c-1.4,0-2.6,0.3-3.3,0.8c-0.5,0.3-0.8,0.8-0.8,1.4c0,0.5,0.3,1,0.7,1.4c0.6,0.5,2.1,1,4.5,1.5c2.4,0.5,4.2,1.1,5.3,1.6
	c1.2,0.6,2,1.3,2.7,2.3c0.6,1,1,2.2,1,3.6C190.1,24.9,189.7,26.1,188.9,27.2z"/>
</svg>
