<?xml version="1.0" encoding="UTF-8"?>
<!DOCTYPE svg PUBLIC "-//W3C//DTD SVG 1.1//EN" "http://www.w3.org/Graphics/SVG/1.1/DTD/svg11.dtd">
<!-- Creator: CorelDRAW X7 -->
<?xml-stylesheet href="matchtv-channel.css" type="text/css"?>
<svg xmlns="http://www.w3.org/2000/svg" xml:space="preserve" width="96.18mm" height="26.075mm" version="1.1" style="shape-rendering:geometricPrecision; text-rendering:geometricPrecision; image-rendering:optimizeQuality; fill-rule:evenodd; clip-rule:evenodd"
viewBox="0 0 9618 2608"
 xmlns:xlink="http://www.w3.org/1999/xlink">
 <g id="Слой_x0020_1">
  <metadata id="CorelCorpID_0Corel-Layer"/>
  <g id="g3828">
  </g>
  <path id="rect3034" class="fil0" d="M3469 0l-753 1215 0 -1215 -805 0 -546 725 -556 -721 0 -4 -4 0 -805 0 0 2566 809 0 0 -1369 553 721 546 -710 0 1358 826 0 336 -543 854 0 0 543 808 0 0 -1834 431 0 0 1834 808 0 0 -1834 406 0 0 1060 0 235 1236 0 0 539 808 0 0 -2566 -808 0 0 1295 -431 0 0 -1295 -3713 0zm5281 0l0 1568 809 -486 0 -1082 -809 0zm-4826 648l0 647 -399 0 399 -647z"/>
  <g id="_861269135632">
   <polygon class="fil0" points="9237,2104 9289,2104 9307,2086 9307,1988 9237,1988 "/>
   <path class="fil0" d="M9149 1670c-259,0 -469,210 -469,469 0,259 210,469 469,469 259,0 469,-210 469,-469 0,-259 -210,-469 -469,-469zm-7 318l-70 0 0 357 -63 0 0 -357 -70 0 0 -56 203 0 0 56zm228 112l-35 35 35 35 0 158 -18 17 -178 0 0 -409 178 0 18 17 0 147z"/>
   <polygon class="fil0" points="9237,2160 9237,2286 9307,2286 9307,2181 9289,2160 "/>
  </g>
 </g>
</svg>
