<?xml version="1.0" encoding="utf-8"?>
<!-- Generator: Adobe Illustrator 19.1.0, SVG Export Plug-In . SVG Version: 6.00 Build 0)  -->
<svg version="1.1" id="Layer_1" xmlns="http://www.w3.org/2000/svg" xmlns:xlink="http://www.w3.org/1999/xlink" x="0px" y="0px"
	 viewBox="0 0 246 246" style="enable-background:new 0 0 246 246;" xml:space="preserve">
<path d="M75.9,9.4l19.7,47.4c8.5-3.5,17.8-5.5,27.4-5.5s18.9,1.9,27.2,5.4L170,9.3C155.5,3.3,139.7,0,123,0S90.4,3.3,75.9,9.4
	L75.9,9.4z"/>
<path d="M170,236.7l-19.7-47.4c-8.4,3.5-17.6,5.4-27.2,5.4c-9.8,0-19.1-2-27.4-5.5l-19.7,47.4c14.6,6.1,30.4,9.4,47.2,9.4
	C139.7,246,155.5,242.7,170,236.7L170,236.7z"/>
<path d="M9.3,169.8l47.6-19.1c-3.6-8.5-5.6-17.9-5.6-27.8s2-19.3,5.6-27.8L9.5,75.6C3.4,90.2,0,106.2,0,123.1
	C0.1,139.6,3.4,155.3,9.3,169.8L9.3,169.8z"/>
<path d="M189.1,150.9l47.6,19.1c6-14.5,9.3-30.3,9.3-46.9c0-16.9-3.4-32.9-9.6-47.6L189,95c3.6,8.6,5.6,18,5.6,27.9
	C194.7,132.9,192.7,142.3,189.1,150.9L189.1,150.9z"/>
<path d="M75.8,236.6l19.7-47.4C78.1,182,64.2,168,56.9,150.7L9.3,169.8C21.8,200,45.8,224.1,75.8,236.6L75.8,236.6z"/>
<path d="M150.3,189.3l19.7,47.4c30.1-12.5,54.3-36.6,66.8-66.9l-47.6-19C181.8,168.2,167.8,182.1,150.3,189.3L150.3,189.3z"/>
<path d="M9.6,75.5L57,95.1c7.3-17.4,21.3-31.2,38.6-38.4L75.9,9.4C46,21.8,22.2,45.6,9.6,75.5L9.6,75.5z"/>
<path d="M189.1,95.1l47.4-19.7C223.9,45.6,200,21.7,170,9.3l-19.7,47.4C167.8,63.9,181.7,77.8,189.1,95.1L189.1,95.1z"/>
<path d="M105.2,140.7c0,0.3-0.1,0.4-0.3,0.5c-0.2,0-0.4,0.1-0.5,0.1H94.2c-0.2,0-0.4-0.1-0.5-0.3c-0.1-0.2-0.2-0.4-0.2-0.7v-15.1
	c0-0.2,0-0.3,0-0.4s-0.1-0.1-0.3-0.1c-0.1,0-0.3,0.1-0.5,0.4l-3.8,5.3c-0.3,0.4-0.5,0.6-0.7,0.7c-0.2,0.1-0.4,0.2-0.7,0.2h-3
	c-0.3,0-0.5-0.1-0.7-0.2s-0.4-0.4-0.7-0.7l-3.8-5.3c-0.2-0.3-0.4-0.4-0.5-0.4c-0.2,0-0.3,0-0.3,0.1c0,0,0,0.2,0,0.4v15.1
	c0,0.3-0.1,0.5-0.2,0.7c-0.1,0.2-0.3,0.3-0.5,0.3H67.7c-0.2,0-0.4,0-0.5-0.1c-0.2,0-0.3-0.2-0.3-0.5V107c0-0.5,0.2-0.8,0.5-1.2
	c0.4-0.3,0.8-0.5,1.3-0.5h6.8c0.8,0,1.4,0.1,1.8,0.4c0.4,0.3,0.8,0.7,1.2,1.2l7.1,10.7c0.2,0.4,0.4,0.5,0.6,0.5s0.4-0.2,0.6-0.5
	l7.1-10.7c0.3-0.5,0.7-0.9,1.2-1.2c0.4-0.3,1-0.4,1.8-0.4h6.8c0.5,0,0.9,0.2,1.3,0.5c0.4,0.3,0.5,0.7,0.5,1.2v33.6H105.2z
	 M111.5,106.2c0-0.3,0.1-0.5,0.3-0.7c0.2-0.2,0.4-0.3,0.7-0.3h9.5c0.3,0,0.5,0.1,0.7,0.3c0.2,0.2,0.3,0.4,0.3,0.7v13.7
	c0,0.2,0,0.4,0.1,0.4c0.1,0,0.1,0,0.2,0c0.1,0,0.1,0,0.2,0c0.1,0,0.2-0.2,0.3-0.4l8.7-13.3c0.2-0.4,0.5-0.7,0.8-0.9
	c0.3-0.3,0.7-0.4,1.2-0.4h8.5c0.5,0,0.9,0.2,1.3,0.5s0.5,0.7,0.5,1.2v33.1c0,0.3-0.1,0.5-0.3,0.7c-0.2,0.2-0.5,0.3-0.8,0.3h-9.5
	c-0.3,0-0.5-0.1-0.8-0.3c-0.2-0.2-0.3-0.4-0.3-0.7v-13.3c0-0.3-0.1-0.4-0.3-0.4h0.1c-0.1,0-0.1,0-0.2,0s-0.1,0.1-0.3,0.3l-8.6,13.3
	c-0.2,0.3-0.4,0.5-0.7,0.7c-0.3,0.2-0.6,0.3-1,0.3h-8.9c-0.5,0-0.9-0.2-1.3-0.5c-0.4-0.3-0.5-0.7-0.5-1.2L111.5,106.2L111.5,106.2z
	 M182.4,117.7c0,2.5-0.5,4.6-1.6,6.2c-1,1.6-2.4,2.9-4,3.9c-1.6,1-3.4,1.6-5.4,2c-2,0.4-3.8,0.6-5.6,0.6c-0.5,0-1,0-1.4,0
	c-0.4,0-1,0-1.7-0.1v10c0,0.3-0.1,0.5-0.3,0.7c-0.2,0.2-0.4,0.3-0.7,0.3h-10c-0.3,0-0.5-0.1-0.8-0.2c-0.2-0.1-0.3-0.3-0.3-0.6v-30.8
	c0-0.7,0.1-1.4,0.2-1.8c0.1-0.5,0.3-0.9,0.6-1.2c0.3-0.3,0.6-0.5,1.1-0.7c0.5-0.2,1-0.3,1.7-0.4c0.7-0.1,1.4-0.2,2.4-0.2
	c0.9-0.1,1.9-0.1,2.9-0.2c1-0.1,2.1-0.1,3.1-0.1c1.1,0,2,0,2.9,0c1.9,0,3.8,0.2,5.8,0.6c2,0.4,3.8,1,5.4,2c1.6,0.9,3,2.2,4,3.8
	C181.7,113,182.3,115.1,182.4,117.7L182.4,117.7L182.4,117.7z M170.4,117.4c0-1.1-0.4-1.9-1.2-2.4c-0.8-0.5-1.9-0.7-3.2-0.7h-3.2
	v6.5h3.2c1.3,0,2.4-0.3,3.2-0.8c0.8-0.5,1.2-1.3,1.2-2.3L170.4,117.4L170.4,117.4z"/>
</svg>
