<?xml version="1.0" encoding="utf-8"?>
<!-- Generator: Adobe Illustrator 19.1.0, SVG Export Plug-In . SVG Version: 6.00 Build 0)  -->
<svg version="1.1" id="Layer_1" xmlns="http://www.w3.org/2000/svg" xmlns:xlink="http://www.w3.org/1999/xlink" x="0px" y="0px"
	 viewBox="0 0 182 228" style="enable-background:new 0 0 182 228;" xml:space="preserve">
<g>
	<path d="M17.2,0c9.5,0,17.2,7.7,17.2,17.2s-7.7,17.2-17.2,17.2S0,26.7,0,17.2S7.7,0,17.2,0L17.2,0z M17.2,73.9
		c9.5,0,17.2,7.7,17.2,17.2s-7.7,17.2-17.2,17.2S0,100.6,0,91.1C0,81.6,7.7,73.9,17.2,73.9L17.2,73.9z M17.2,110.8
		c9.5,0,17.2,7.7,17.2,17.2c0,9.5-7.7,17.2-17.2,17.2S0,137.5,0,128C0,118.5,7.7,110.8,17.2,110.8L17.2,110.8z M17.2,36.9
		c9.5,0,17.2,7.7,17.2,17.2s-7.7,17.2-17.2,17.2S0,63.7,0,54.1S7.7,36.9,17.2,36.9L17.2,36.9z"/>
	<path d="M54.1,36.9c9.5,0,17.2,7.7,17.2,17.2s-7.7,17.2-17.2,17.2s-17.2-7.7-17.2-17.2C36.9,44.6,44.6,36.9,54.1,36.9L54.1,36.9z
		 M54.1,73.9c9.5,0,17.2,7.7,17.2,17.2s-7.7,17.2-17.2,17.2s-17.2-7.7-17.2-17.2C36.9,81.6,44.6,73.9,54.1,73.9L54.1,73.9z
		 M54.1,110.8c9.5,0,17.2,7.7,17.2,17.2c0,9.5-7.7,17.2-17.2,17.2s-17.2-7.7-17.2-17.2C36.9,118.5,44.6,110.8,54.1,110.8L54.1,110.8
		z"/>
	<path d="M164.8,0c-9.5,0-17.2,7.7-17.2,17.2s7.7,17.2,17.2,17.2S182,26.7,182,17.2C181.9,7.7,174.3,0,164.8,0L164.8,0z M164.8,73.9
		c-9.5,0-17.2,7.7-17.2,17.2s7.7,17.2,17.2,17.2s17.2-7.7,17.2-17.2C181.9,81.6,174.3,73.9,164.8,73.9L164.8,73.9z M164.8,110.8
		c-9.5,0-17.2,7.7-17.2,17.2c0,9.5,7.7,17.2,17.2,17.2S182,137.5,182,128C181.9,118.5,174.3,110.8,164.8,110.8L164.8,110.8z
		 M164.8,36.9c-9.5,0-17.2,7.7-17.2,17.2s7.7,17.2,17.2,17.2S182,63.7,182,54.1C181.9,44.6,174.3,36.9,164.8,36.9L164.8,36.9z"/>
	<path d="M127.9,36.9c-9.5,0-17.2,7.7-17.2,17.2s7.7,17.2,17.2,17.2s17.2-7.7,17.2-17.2C145,44.6,137.4,36.9,127.9,36.9L127.9,36.9z
		 M127.9,73.9c-9.5,0-17.2,7.7-17.2,17.2s7.7,17.2,17.2,17.2s17.2-7.7,17.2-17.2C145,81.6,137.4,73.9,127.9,73.9L127.9,73.9z
		 M127.9,110.8c-9.5,0-17.2,7.7-17.2,17.2c0,9.5,7.7,17.2,17.2,17.2s17.2-7.7,17.2-17.2C145,118.5,137.4,110.8,127.9,110.8
		L127.9,110.8z"/>
	<path d="M91,73.9c9.5,0,17.2,7.7,17.2,17.2s-7.7,17.2-17.2,17.2s-17.2-7.7-17.2-17.2C73.8,81.6,81.5,73.9,91,73.9L91,73.9z
		 M91,110.8c9.5,0,17.2,7.7,17.2,17.2c0,9.5-7.7,17.2-17.2,17.2s-17.2-7.7-17.2-17.2C73.8,118.5,81.5,110.8,91,110.8L91,110.8z"/>
	<path d="M20.4,197.7v20c0,5.5-4.5,10.1-10.1,10.1l0,0c-5.5,0-10.1-4.5-10.1-10.1v-44.6c0-5.1,3.9-9.4,8.8-10c3.2-0.5,6.6,0.5,9,3
		l14.3,15l14.3-15c2.4-2.5,5.8-3.5,9-3c4.9,0.7,8.7,4.9,8.7,10v44.6c0,5.5-4.5,10.1-10.1,10.1l0,0c-5.5,0-10.1-4.5-10.1-10.1v-20
		l-5.4,5.6c-3.3,3.5-9.5,3.7-13.1,0L20.4,197.7L20.4,197.7z M179,210.7l-12.1-14.9l12.2-15.1c0.4-0.4,0.8-0.9,1.1-1.3l0,0l0,0
		c1.1-1.6,1.7-3.6,1.7-5.6l0,0c0-5.5-4.5-10.1-10.1-10.1h-11.3h-11h-11.3c-5.5,0-10.1,4.5-10.1,10.1l0,0c0,5.5,4.5,10.1,10.1,10.1
		h11.3h2.3l-4.4,5c-3.3,3.7-3.3,10.2,0,13.9l4.4,5h-2.3h-11.3c-5.5,0-10.1,4.5-10.1,10.1l0,0c0,5.5,4.5,10.1,10.1,10.1h11.3h11h11.3
		c5.5,0,10.1-4.5,10.1-10.1l0,0C182,215,180.8,212.5,179,210.7L179,210.7z M96.6,178.5l-9.3-11.7c-3.4-4.3-9.8-5.1-14.2-1.7l0,0
		c-4.3,3.4-5.1,9.8-1.7,14.2l14.9,18.9v19.5c0,5.5,4.5,10.1,10.1,10.1l0,0c5.5,0,10.1-4.5,10.1-10.1v-20l15.9-18
		c3.7-4.2,3.3-10.6-0.9-14.2l0,0c-4.2-3.7-10.6-3.3-14.2,0.9L96.6,178.5L96.6,178.5z"/>
</g>
</svg>
