<?xml version="1.0" encoding="utf-8"?>
<!-- Generator: Adobe Illustrator 19.1.0, SVG Export Plug-In . SVG Version: 6.00 Build 0)  -->
<svg version="1.1" id="Layer_1" xmlns="http://www.w3.org/2000/svg" xmlns:xlink="http://www.w3.org/1999/xlink" x="0px" y="0px"
	 viewBox="0 0 202 37" enable-background="new 0 0 202 37" xml:space="preserve">
<polyline fill="none" points="0,33.6 0,3.4 30.8,3.4 30.8,33.6 0,33.6 "/>
<path fill="#0A0A0A" d="M5.5,9.4c4.8-5.5,14.4-6.2,20.2-0.2c4.6,4.8,5.1,14,0,18.7c-5.2,4.8-14,5.4-18.2,1.7
	C1.7,24.2,0,15.8,5.5,9.4L5.5,9.4z"/>
<path fill="none" stroke="#000000" stroke-width="4.252" stroke-miterlimit="22.9256" d="M42.6,2h152.5c2.7,0,4.9,2.2,4.9,4.8v23.3
	c0,2.7-2.2,4.8-4.9,4.8H42.6c-2.7,0-4.9-2.2-4.9-4.8V6.8C37.7,4.2,39.9,2,42.6,2L42.6,2z"/>
<polygon fill="none" points="66.6,19.4 70.3,19.4 68.4,12.6 "/>
<path fill="#070707" d="M71.1,12.2c-0.4-1.5-1.6-1.5-2.2-1.5h-0.6c-0.6,0-1.9,0-2.2,1.4l-4.5,15.7L61.3,28c0,0.1,0.1,0.2,0.3,0.2
	h2.2c0.2,0,0.4-0.2,0.5-0.4l1.5-5.5h5.3l1.5,5.5c0,0.2,0.3,0.4,0.5,0.4h2.2c0.2,0,0.3-0.2,0.3-0.4L71.1,12.2z M66.6,19.4l1.9-6.9
	l1.9,6.9H66.6z"/>
<path fill="#070707" d="M59.4,10.7h-2.1c-0.2,0-0.4,0.2-0.4,0.4v7h-7.1v-7c0-0.2-0.2-0.4-0.4-0.4h-2.1c-0.2,0-0.4,0.2-0.4,0.4v16.7
	c0,0.2,0.2,0.4,0.4,0.4h2.1c0.2,0,0.4-0.2,0.4-0.4v-7h7.1v7c0,0.2,0.2,0.4,0.4,0.4h2.1c0.2,0,0.4-0.2,0.4-0.4V11.1
	C59.8,10.8,59.6,10.7,59.4,10.7z"/>
<path fill="#070707" d="M115.3,13H114v-1.9c0-0.2-0.2-0.4-0.4-0.4h-2.1c-0.2,0-0.4,0.2-0.4,0.4V13h-1.3c-3.2,0-5.8,2.6-5.8,5.8v0.5
	c0,3.2,2.6,5.8,5.8,5.8h1.3v2.7c0,0.2,0.2,0.4,0.4,0.4h2.1c0.2,0,0.4-0.2,0.4-0.4v-2.7h1.3c3.2,0,5.8-2.6,5.8-5.8v-0.5
	C121.1,15.6,118.5,13,115.3,13z M111.2,22.5h-0.7c-1.8,0-3.3-1.5-3.4-3.3v-0.3c0-1.8,1.5-3.3,3.4-3.3h0.7V22.5z M118.1,19.1
	c0,1.8-1.5,3.3-3.4,3.3H114v-7h0.7c1.9,0,3.4,1.5,3.4,3.3V19.1z"/>
<path fill="#070707" d="M95.9,10.7h-2.1c-0.2,0-0.4,0.2-0.4,0.4v14.5h-1h-0.5h-3.5V11.1c0-0.2-0.2-0.4-0.4-0.4h-2.1
	c-0.2,0-0.4,0.2-0.4,0.4v14.5h-2h-2.9V11.1c0-0.2-0.2-0.4-0.4-0.4H78c-0.2,0-0.4,0.2-0.4,0.4v15c0,1.1,0.9,2.1,2.1,2.1h0.3H80h3.3
	H86h5.9h0.5h1.3h0h0h0.4c1.1,0,2.1-0.9,2.1-2.1v-15C96.3,10.8,96.1,10.7,95.9,10.7z"/>
<path fill="#070707" d="M147.7,10.6h-11.5c-0.2,0-0.3,0.1-0.3,0.3v1.8c0,0.2,0.1,0.3,0.3,0.3h4.3v14.6c0,0.2,0.2,0.4,0.4,0.4h2.1
	c0.2,0,0.4-0.2,0.4-0.4V13.2h4.3c0.2,0,0.3-0.1,0.3-0.3V11C148,10.8,147.9,10.6,147.7,10.6z"/>
<path fill="#070707" d="M171.8,10.4h-1.5c-3.1,0-5.7,2.6-5.7,5.7v6.3c0,3.1,2.5,5.7,5.7,5.7h1.5c3.1,0,5.7-2.6,5.7-5.7v-6.3
	C177.6,13,175,10.4,171.8,10.4z M174.9,22.2c0,1.9-1.6,3.4-3.4,3.4h-0.9c-1.9,0-3.4-1.5-3.4-3.4v-6c0-1.9,1.6-3.4,3.4-3.4h0.9
	c1.9,0,3.4,1.5,3.4,3.4V22.2z"/>
<path fill="#070707" d="M133.8,10.7h-2.2c-0.2,0-0.4,0.2-0.5,0.4l-2.8,7.5l-3.1-7.6c-0.1-0.2-0.3-0.3-0.5-0.3h-2.2
	c-0.2,0-0.3,0.2-0.2,0.4l4.7,11.1l-0.7,2.1c-0.3,0.9-1.6,1.1-2.5,1.2V28c1.2,0.1,3.8,0.1,4.5-1.8l5.8-15.2v-0.2
	C134,10.8,133.9,10.7,133.8,10.7z"/>
<path fill="#070707" d="M192.4,27.7L188,12.2c-0.4-1.5-1.6-1.5-2.2-1.5h-0.6c-0.6,0-1.9,0-2.2,1.4l-4.5,15.7c0,0.2,0,0.4,0.3,0.4
	h2.2c0.2,0,0.4-0.2,0.5-0.4l4.1-15.2l4.1,15.2c0,0.2,0.3,0.4,0.5,0.4h2.2c0.1,0,0.2-0.1,0.3-0.2L192.4,27.7z"/>
<path fill="#070707" d="M156.9,17.6h-3.4v-4.4h6.9v0c0.2,0,0.3-0.1,0.3-0.3V11c0-0.2-0.1-0.3-0.3-0.3h-7.2h-2.1
	c-0.2,0-0.4,0.2-0.4,0.4v16.7c0,0.2,0.2,0.4,0.4,0.4h1.3h0.8h3.8c2.9,0,5.3-2.4,5.3-5.3S159.9,17.6,156.9,17.6z M156.6,26h-3.1v-6.3
	h3.1c1.7,0,3.1,1.4,3.1,3.1S158.4,26,156.6,26z"/>
</svg>
