<?xml version="1.0" encoding="utf-8"?>
<!-- Generator: Adobe Illustrator 19.1.0, SVG Export Plug-In . SVG Version: 6.00 Build 0)  -->
<svg version="1.1" id="Layer_1" xmlns="http://www.w3.org/2000/svg" xmlns:xlink="http://www.w3.org/1999/xlink" x="0px" y="0px"
	 viewBox="0 0 200 26" enable-background="new 0 0 200 26" xml:space="preserve">
<path d="M54.1,0.5c4.7-1.2,10.3-0.3,13.3,3.8c3.2,4.4,2.5,11.3-2,14.7c-4.4,3.2-11,3.1-15.3-0.1c-4.3-3.3-5-10-2-14.3
	C49.6,2.4,51.8,1.1,54.1,0.5L54.1,0.5z M54.8,5.1c-2.8,2.1-3.2,6.4-1.6,9.3c1.2,2.4,4.4,3.4,6.8,2.3c4.2-2.1,4.7-8.7,1-11.5
	C59.3,3.8,56.6,3.8,54.8,5.1L54.8,5.1z M108.4,0.4c1.9,0,3.8,0,5.7,0c0,3.2,0,6.4,0,9.6c2.3-3.2,4.7-6.4,7-9.6c2.3,0,4.6,0,6.8,0
	c-2.6,3.1-5,6.4-7.6,9.5c2.7,3.7,5.4,7.4,8.2,11c-2.4,0-4.8,0-7.2,0c-2.3-3.6-4.7-7.1-7.2-10.6c0,3.6,0,7.1,0,10.6
	c-1.9,0-3.8,0-5.7,0C108.4,14.1,108.4,7.2,108.4,0.4L108.4,0.4z M130.4,0.3c1.9,0,3.7,0,5.6,0c0,4.5,0,9.1,0,13.7
	c2.7-4.5,5.4-9.1,8.1-13.7c2.1,0,4.2,0,6.3,0c0,6.8,0,13.7,0,20.6c-1.9,0-3.7,0-5.6,0c0-4.4,0-8.7,0-13.1c-2.7,4.3-5.2,8.7-7.8,13.1
	c-2.2,0-4.4,0-6.6,0C130.4,14.1,130.4,7.2,130.4,0.3L130.4,0.3z M154.1,0.4c1.9,0,3.8,0,5.7,0c0,2.6,0,5.2,0,7.8c2.9,0,5.8,0,8.7,0
	c0-2.6,0-5.2,0-7.8c1.9,0,3.8,0,5.7,0c0,6.8,0,13.7,0,20.6c-1.9,0-3.8,0-5.7,0c0-2.9,0-5.8,0-8.7c-2.9,0-5.8,0-8.7,0
	c0,2.9,0,5.8,0,8.7c-1.9,0-3.8,0-5.7,0C154.1,14.1,154.1,7.2,154.1,0.4L154.1,0.4z M184.9,0.4c3.9-0.9,8.5-0.4,11.6,2.2
	c4.8,4,4.7,12.4-0.4,16.2c-4.5,3.4-11.3,3.3-15.6-0.3c-4.6-3.8-4.7-11.7-0.3-15.6C181.5,1.7,183.1,0.9,184.9,0.4L184.9,0.4z
	 M185.9,4.7c-4.8,2.6-3.9,11.6,1.9,12.4c4.5,0.7,7.4-4.7,6.1-8.5C193.2,5.1,189,3,185.9,4.7L185.9,4.7z M24.5,16.9
	c2.4-5.1,2-10.9,2.3-16.5c5.3,0,10.6,0,15.9,0c0,5.5,0,11,0,16.5c0.7,0,1.3,0,2,0c0,3,0,6,0,9c-1.9,0.2-3.7,0.2-5.6,0
	c0-1.6,0-3.3,0-4.9c-3.7,0-7.4,0-11.1,0c0,1.6,0,3.3,0,4.9c-1.9,0.1-3.7,0.1-5.5,0c0-3,0-6,0-9C23,16.9,24,16.9,24.5,16.9L24.5,16.9
	z M30.4,16.9c2.2,0,4.3,0,6.5,0c0-4.1,0-8.3,0-12.5c-1.6,0-3.1,0-4.7,0C32,8.6,31.7,12.8,30.4,16.9L30.4,16.9z M72.5,0.4
	c2.2,0,4.3,0,6.5,0c1.6,1.7,3.1,3.4,4.7,5.1c1.6-1.7,3.1-3.4,4.7-5.1c2.1,0,4.3,0,6.4,0c0,6.8,0,13.7,0,20.5c-1.9,0-3.8,0-5.6,0
	c0-5.1,0-10.1,0-15.2c-1.8,2-3.6,4.1-5.5,6c-1.8-2-3.7-4.1-5.5-6.1c0,5.1,0,10.1,0,15.2c-1.9,0-3.8,0-5.7,0
	C72.5,14.1,72.5,7.2,72.5,0.4L72.5,0.4z"/>
<path d="M3.8,7.2c0.7-2.3,1.3-4.5,2-6.8c4.2,0,8.4,0,12.7,0c-0.2,0.5-0.5,1.4-0.7,1.9C13.1,3.8,8.5,5.6,3.8,7.2L3.8,7.2z"/>
<path d="M8.3,6.4c3.1-1.1,6.2-2.2,9.3-3.4c-1.6,6-3.4,12-5,18c-2.8,0-5.6,0-8.4,0C5.6,16.1,7,11.2,8.3,6.4L8.3,6.4z"/>
<path d="M3.6,8C5,7.5,6.3,7.1,7.5,6.6c-1.4,4.8-2.7,9.5-4,14.3c-1.2,0-2.3,0-3.5,0v-0.7C1.4,16.2,2.4,12.1,3.6,8L3.6,8z"/>
</svg>
