<?xml version="1.0" encoding="utf-8"?>
<!-- Generator: Adobe Illustrator 19.1.0, SVG Export Plug-In . SVG Version: 6.00 Build 0)  -->
<svg version="1.1" id="Layer_1" xmlns="http://www.w3.org/2000/svg" xmlns:xlink="http://www.w3.org/1999/xlink" x="0px" y="0px"
	 viewBox="0 0 363 86" style="enable-background:new 0 0 363 86;" xml:space="preserve">
<path style="fill-rule:evenodd;clip-rule:evenodd;" d="M90,1.1h47.8v14.2h-16.3v58.1h-15.1V15.3H90V1.1L90,1.1z M148.5,1.1h5h10.1
	h12.9c12.7,0,23,10.4,23,23V27c0,12.7-10.4,23-23,23h-12.9v23.4h-15.1V1.1L148.5,1.1z M163.6,14.7v21.7h9.7c6,0,10.8-4.9,10.8-10.8
	v0c0-6-4.9-10.8-10.8-10.8H163.6L163.6,14.7z"/>
<path style="opacity:0.7;fill-rule:evenodd;clip-rule:evenodd;" d="M37.3,11.3C58,11.3,74.7,28,74.7,48.6C74.7,69.3,58,86,37.3,86
	C16.7,86,0,69.3,0,48.6C0,28,16.7,11.3,37.3,11.3L37.3,11.3z M37.3,27.4c11.7,0,21.2,9.5,21.2,21.2c0,11.7-9.5,21.2-21.2,21.2
	c-11.7,0-21.2-9.5-21.2-21.2C16.1,36.9,25.6,27.4,37.3,27.4L37.3,27.4z"/>
<path style="fill-rule:evenodd;clip-rule:evenodd;" d="M49,0c20.6,0,37.3,16.7,37.3,37.3c0,20.6-16.7,37.3-37.3,37.3
	S11.6,57.9,11.6,37.3C11.6,16.7,28.3,0,49,0L49,0z M49,16.1c11.7,0,21.2,9.5,21.2,21.2c0,11.7-9.5,21.2-21.2,21.2S27.7,49,27.7,37.3
	C27.7,25.6,37.2,16.1,49,16.1L49,16.1z"/>
<path style="fill-rule:evenodd;clip-rule:evenodd;" d="M68.6,69.1c-5.7,3.5-12.4,5.6-19.6,5.6c-9.1,0-17.5-3.3-24-8.7
	c3.5,2.5,7.7,3.9,12.3,3.9c8.8,0,16.3-5.3,19.5-12.9c7.8-3.1,13.4-10.8,13.4-19.7c0-4.4-1.3-8.5-3.6-11.9c5.1,6.4,8.1,14.4,8.1,23.2
	C74.7,56.2,72.4,63.2,68.6,69.1L68.6,69.1z M19.7,60.5c-5.1-6.4-8.1-14.4-8.1-23.2c0-7.5,2.2-14.6,6.1-20.4
	c5.7-3.5,12.4-5.6,19.6-5.6c9.1,0,17.5,3.3,24,8.7c-3.5-2.5-7.7-3.9-12.3-3.9c-8.8,0-16.3,5.3-19.5,12.9
	C21.6,32,16.1,39.7,16.1,48.6C16.1,53,17.4,57.1,19.7,60.5L19.7,60.5z"/>
<path d="M345,46.7h-7.5V31.3h7.5v2.3h-3.9V37h3.7l0,2.3h-3.7v5h3.9V46.7L345,46.7z M328.8,46.7h-3.6V31.3h3.6v7.1l1.9-3.8v-3.3h3.6
	v15.5h-3.6v-7.9l-1.9,3.8V46.7L328.8,46.7z M316.3,46.7h-3.6V31.3h3.6V37h1.9v-5.7h3.6v15.5h-3.6v-7.3h-1.9V46.7L316.3,46.7z
	 M309.6,46.7h-7.5V31.3h7.5v2.3h-3.9V37h3.7l0,2.3h-3.7v5h3.9V46.7L309.6,46.7z M294.1,44.1V33.9h-1.4c0,0.3,0,0.9-0.1,1.6
	c0,0.7-0.1,1.6-0.1,2.7c-0.1,1.1-0.1,2.1-0.2,3c-0.1,0.9-0.1,1.4-0.1,1.6c0,0.3-0.1,0.5-0.2,0.8c-0.1,0.3-0.3,0.4-0.4,0.5H294.1
	L294.1,44.1z M296,46.7h-5.6v2.5h-3v-5.1c0.1,0,0.3-0.1,0.6-0.2c0.3-0.1,0.5-0.3,0.8-0.6c0.3-0.3,0.4-0.7,0.5-1.2
	c0-0.3,0.1-1.4,0.2-3.2c0.1-1.8,0.2-3.3,0.2-4.7c0.1-1.4,0.1-2.4,0.1-3.1h7.9v12.9h1.4v5.1h-3V46.7L296,46.7z M278.6,46.7H275V31.3
	h3.6v7.1l1.9-3.8v-3.3h3.6v15.5h-3.6v-7.9l-1.9,3.8V46.7L278.6,46.7z M266.3,33.5v4.1c0.6,0,1-0.1,1.2-0.1c0.2,0,0.4-0.2,0.5-0.5
	c0.1-0.3,0.2-0.8,0.2-1.4c0-0.5,0-0.9-0.1-1.2c-0.1-0.3-0.2-0.5-0.5-0.6C267.3,33.5,266.8,33.5,266.3,33.5L266.3,33.5z M266.3,39.7
	v4.8c0.6,0,1-0.1,1.3-0.3c0.3-0.2,0.4-0.5,0.5-0.8c0.1-0.3,0.1-0.8,0.1-1.4c0-0.7-0.1-1.2-0.2-1.5c-0.1-0.3-0.3-0.5-0.5-0.6
	C267.2,39.8,266.8,39.7,266.3,39.7L266.3,39.7z M262.6,46.7V31.3h3.6c1.3,0,2.3,0.1,3,0.2c0.7,0.1,1.3,0.5,1.8,1
	c0.5,0.5,0.7,1.4,0.7,2.6c0,2.1-0.9,3.3-2.6,3.5v0.1c0.7,0,1.3,0.2,1.6,0.5c0.4,0.3,0.6,0.7,0.7,1.3c0.1,0.5,0.2,1.2,0.2,2
	c0,1.4-0.2,2.4-0.6,3c-0.4,0.6-0.9,1-1.6,1.2c-0.7,0.2-1.8,0.2-3.3,0.2H262.6L262.6,46.7z M259.5,46.7h-7.5V31.3h7.5v2.3h-3.9V37
	h3.7l0,2.3h-3.7v5h3.9V46.7L259.5,46.7z M248.7,31.3v15.5h-3.5V33.9h-1.4c0,0.7-0.1,1.8-0.2,3.2c-0.1,1.4-0.2,3-0.3,4.6
	c-0.1,1.6-0.2,2.6-0.3,2.9c-0.2,0.9-0.6,1.4-1.2,1.7c-0.7,0.3-1.4,0.5-2.1,0.5c-0.2,0-0.4,0-0.5,0c-0.1,0-0.2,0-0.3,0v-2.3
	c0.2,0,0.4-0.1,0.7-0.3c0.3-0.2,0.5-0.7,0.6-1.4c0-0.4,0.1-1.3,0.2-2.7c0.1-1.4,0.2-3,0.2-4.9c0.1-1.9,0.2-3.2,0.2-3.9H248.7
	L248.7,31.3z M236.1,46.7h-7.5V31.3h7.5v2.3h-3.9V37h3.7l0,2.3h-3.7v5h3.9V46.7L236.1,46.7z M219.6,33.6h-2.5v-2.3h8.6v2.3h-2.5
	v13.1h-3.6V33.6L219.6,33.6z"/>
<path d="M363,21.5h-7.5V6.1h7.5v2.3h-3.9v3.4h3.7l0,2.3h-3.7v5h3.9V21.5L363,21.5z M346.8,9.5v8.7c0,0.8,0.3,1.2,1,1.2s1-0.4,1-1.2
	V9.5c0-0.8-0.3-1.2-1-1.2S346.8,8.7,346.8,9.5L346.8,9.5z M352.3,10.3v7c0,3-1.5,4.5-4.6,4.5c-3,0-4.6-1.5-4.6-4.5v-7
	c0-1.1,0.2-2,0.6-2.7c0.4-0.7,1-1.1,1.6-1.4c0.7-0.3,1.5-0.4,2.3-0.4c0.9,0,1.6,0.1,2.3,0.4c0.7,0.3,1.2,0.7,1.6,1.4
	C352.1,8.3,352.3,9.2,352.3,10.3L352.3,10.3z M334.3,21.5h-3.6V6.1h3.6v5.7h1.9V6.1h3.6v15.5h-3.6v-7.3h-1.9V21.5L334.3,21.5z
	 M321.8,21.5h-3.6V6.1h3.6v5.7h1.9V6.1h3.6v15.5h-3.6v-7.3h-1.9V21.5L321.8,21.5z M315.1,21.5h-7.5V6.1h7.5v2.3h-3.9v3.4h3.7l0,2.3
	h-3.7v5h3.9V21.5L315.1,21.5z M298.9,8.3v4.1c0.6,0,1-0.1,1.2-0.1c0.2,0,0.4-0.2,0.5-0.5c0.1-0.3,0.2-0.8,0.2-1.4
	c0-0.5,0-0.9-0.1-1.2c-0.1-0.3-0.2-0.5-0.5-0.6C299.9,8.4,299.5,8.3,298.9,8.3L298.9,8.3z M298.9,14.6v4.8c0.6,0,1-0.1,1.3-0.3
	c0.3-0.2,0.4-0.5,0.5-0.8c0.1-0.3,0.1-0.8,0.1-1.4c0-0.7-0.1-1.2-0.2-1.5c-0.1-0.3-0.3-0.5-0.5-0.6
	C299.8,14.6,299.4,14.6,298.9,14.6L298.9,14.6z M295.3,21.5V6.1h3.6c1.3,0,2.3,0.1,3,0.2c0.7,0.1,1.3,0.5,1.8,1
	c0.5,0.5,0.7,1.4,0.7,2.6c0,2.1-0.9,3.3-2.6,3.5v0.1c0.7,0,1.3,0.2,1.6,0.5c0.4,0.3,0.6,0.7,0.7,1.3c0.1,0.5,0.2,1.2,0.2,2
	c0,1.4-0.2,2.4-0.6,3c-0.4,0.6-0.9,1-1.6,1.2c-0.7,0.2-1.8,0.2-3.3,0.2H295.3L295.3,21.5z M286.2,8.4h-2.5V6.1h8.6v2.3h-2.5v13.1
	h-3.6V8.4L286.2,8.4z M277.4,15.5h3.6v2c0,2.9-1.5,4.3-4.6,4.3c-3,0-4.5-1.5-4.5-4.5v-7c0-3,1.5-4.5,4.5-4.5c1.5,0,2.6,0.3,3.4,0.9
	c0.8,0.6,1.2,1.7,1.2,3.2v1.7h-3.6V9.5c0-0.4-0.1-0.7-0.2-0.9c-0.1-0.2-0.4-0.3-0.7-0.3c-0.7,0-1,0.4-1,1.2v8.7
	c0,0.8,0.3,1.2,0.9,1.2c0.7,0,1-0.4,1-1.2L277.4,15.5L277.4,15.5z M268.7,21.5h-7.5V6.1h7.5v2.3h-3.9v3.4h3.7l0,2.3h-3.7v5h3.9V21.5
	L268.7,21.5z M241.7,21.5V6.1h3.6v12.7h1.9V6.1l3.6,0v12.8h1.9V6.1h3.6V19h1.8v5.1h-3v-2.5L241.7,21.5L241.7,21.5z M233,14.6v4.8
	c0.6,0,1-0.1,1.3-0.3c0.3-0.2,0.4-0.5,0.5-0.8c0.1-0.3,0.1-0.8,0.1-1.4c0-0.7-0.1-1.2-0.2-1.5c-0.1-0.3-0.3-0.5-0.5-0.6
	C233.9,14.6,233.5,14.6,233,14.6L233,14.6z M236.5,8.6l-3.5,0v3.7c0.2,0,0.4,0,0.7,0c1.5,0,2.6,0.2,3.3,0.7c0.7,0.5,1.1,1.1,1.3,1.7
	c0.2,0.7,0.2,1.4,0.2,2.4c0,1.4-0.2,2.4-0.6,3c-0.4,0.6-0.9,1-1.6,1.2c-0.7,0.2-1.8,0.2-3.3,0.2h-3.6V6.1h7.2L236.5,8.6L236.5,8.6z
	 M220.6,9.5v8.7c0,0.8,0.3,1.2,1,1.2s1-0.4,1-1.2V9.5c0-0.8-0.3-1.2-1-1.2S220.6,8.7,220.6,9.5L220.6,9.5z M226.1,10.3v7
	c0,3-1.5,4.5-4.6,4.5s-4.6-1.5-4.6-4.5v-7c0-1.1,0.2-2,0.6-2.7c0.4-0.7,1-1.1,1.6-1.4c0.7-0.3,1.5-0.4,2.3-0.4
	c0.9,0,1.6,0.1,2.3,0.4c0.7,0.3,1.2,0.7,1.6,1.4C225.9,8.3,226.1,9.2,226.1,10.3L226.1,10.3z"/>
<path d="M283,72.7h-3.6V57.3h3.6v7.1l1.9-3.8v-3.3h3.6v15.5h-3.6v-7.9l-1.9,3.8V72.7L283,72.7z M270.6,72.7H267V57.3h3.6v7.1
	l1.9-3.8v-3.3h3.6v15.5h-3.6v-7.9l-1.9,3.8V72.7L270.6,72.7z M260.3,66.7h3.6v2c0,2.9-1.5,4.3-4.6,4.3c-3,0-4.5-1.5-4.5-4.5v-7
	c0-3,1.5-4.5,4.5-4.5c1.5,0,2.6,0.3,3.4,0.9c0.8,0.6,1.2,1.7,1.2,3.2v1.7h-3.6v-2.1c0-0.4-0.1-0.7-0.2-0.9c-0.1-0.2-0.4-0.3-0.7-0.3
	c-0.7,0-1,0.4-1,1.2v8.7c0,0.8,0.3,1.2,0.9,1.2c0.7,0,1-0.4,1-1.2L260.3,66.7L260.3,66.7z M248,66.7h3.6v2c0,2.9-1.5,4.3-4.6,4.3
	c-3,0-4.5-1.5-4.5-4.5v-7c0-3,1.5-4.5,4.5-4.5c1.5,0,2.6,0.3,3.4,0.9c0.8,0.6,1.2,1.7,1.2,3.2v1.7H248v-2.1c0-0.4-0.1-0.7-0.2-0.9
	c-0.1-0.2-0.4-0.3-0.7-0.3c-0.7,0-1,0.4-1,1.2v8.7c0,0.8,0.3,1.2,0.9,1.2c0.7,0,1-0.4,1-1.2L248,66.7L248,66.7z M233.7,60.7v8.7
	c0,0.8,0.3,1.2,1,1.2c0.6,0,1-0.4,1-1.2v-8.7c0-0.8-0.3-1.2-1-1.2C234,59.4,233.7,59.9,233.7,60.7L233.7,60.7z M239.2,61.5v7
	c0,3-1.5,4.5-4.6,4.5c-3,0-4.6-1.5-4.6-4.5v-7c0-1.1,0.2-2,0.6-2.7c0.4-0.7,1-1.1,1.6-1.4c0.7-0.3,1.5-0.4,2.3-0.4
	c0.9,0,1.6,0.1,2.3,0.4c0.7,0.3,1.2,0.7,1.6,1.4C239,59.5,239.2,60.4,239.2,61.5L239.2,61.5z M221.4,59.5v5.1h0.6
	c0.4,0,0.7-0.1,0.9-0.2c0.2-0.2,0.3-0.4,0.4-0.7c0.1-0.3,0.1-0.8,0.1-1.5c0-0.7,0-1.2-0.1-1.5c-0.1-0.3-0.2-0.6-0.4-0.8
	c-0.2-0.2-0.5-0.2-0.9-0.2H221.4L221.4,59.5z M221.4,72.7h-3.6V57.3h4.4c1.6,0,2.7,0.2,3.5,0.7c0.8,0.5,1.2,1.3,1.2,2.6v2.8
	c0,1.1-0.4,1.9-1.2,2.5c-0.8,0.6-1.8,0.9-3,0.9h-1.3V72.7L221.4,72.7z"/>
</svg>
