<?xml version="1.0" encoding="utf-8"?>
<!-- Generator: Adobe Illustrator 19.1.0, SVG Export Plug-In . SVG Version: 6.00 Build 0)  -->
<svg version="1.1" id="Layer_1" xmlns="http://www.w3.org/2000/svg" xmlns:xlink="http://www.w3.org/1999/xlink" x="0px" y="0px"
	 viewBox="0 0 400 189" style="enable-background:new 0 0 400 189;" xml:space="preserve">
<path d="M400.3,152.3c0-0.4,0-0.9,0-1.3c-1.5-2.6-3.5-4.9-5.6-7.2c-2.9-3.1-5.7-6.2-8.6-9.3c-9.8-10.5-20.6-19.7-33-27.1
	c-15.3-9.1-31.6-16-48.4-21.8c-10-3.5-20.2-6.3-30.6-8.3c-7.3-1.3-13.6-0.2-19.3,4.4c-3.1,2.5-6.4,4.8-9.6,7.1
	c-5.4,3.9-11,7.6-17.5,9.9c-11.5,4-23.2,3.8-34.9,0.7c-8.5-2.2-16.2-6-22.4-12.3c-4.8-4.9-7.8-10.8-10.7-16.9
	c-1.4-3.1-2.6-6.3-4.5-9.1c-3.7,0-7.4,0-11.2,0c-0.5,0.1-0.9,0.2-1.4,0.2c-7.8,0.7-14.9,3.4-21.1,8.3c-6,4.7-11.2,10.2-16.6,15.6
	c-1.8,1.8-3.6,3.4-3.1,6.2c0,0.2-0.1,0.4-0.1,0.6c-1.3,3.4-2.8,6.7-5.2,9.5c-4.2,4.9-10,7.2-16,8.7c-10.2,2.7-20.7,3.4-31.2,2.6
	c-13.7-1-24.9-6.9-33.4-17.7c-4.6-5.9-7.9-12.5-11-19.2c-0.6-1.4-1.3-2.8-2.3-4c-0.3-0.5-0.7-1.1-1.4-0.9c-0.8,0.2-0.8,1-0.9,1.6
	c-0.1,1-0.1,1.9,0,2.9c0.6,8.2,3.3,15.7,7.3,22.8c6.1,10.9,15.2,18.8,26,24.9c8.6,4.9,18,8,27.3,11.3c7.5,2.6,15.1,4.9,22.5,7.7
	c7.5,2.9,13.5,7.6,17.2,14.9c1,1.9,1.2,4.1,2.5,5.8c1,1.3,1.8,2.9,2.8,4.3c4.8,7,11,12.4,18.5,16.3c7.8,4.1,16.3,5.5,25,5.8
	c11.8,0.5,23.5-0.8,35.1-2.8c16.7-2.9,33.1-7.1,49.4-11.5c21.7-5.9,43.3-12.4,65.2-17.6c13.8-3.3,27.7-6,41.9-6.8
	c16.8-1,33.5-0.6,50.2,1.4C394.2,152.3,397.2,153,400.3,152.3z"/>
<path d="M227.6,0.4c4.7-0.4,9.7-0.6,14.2,1.2c8.6,2.7,14.9,10.7,16.1,19.6c1.4,7.5-0.9,15.7-6.4,21.1c-3.5,3.7-8.3,6-13.3,7.1
	c-4.1,0.8-8.3,0.7-12.4,1.3c0.5,5.8,0.9,11.5,1.3,17.3c-5,0.2-10,0.7-15,1c-1.5-22.4-3-44.8-4.6-67.1C214.1,1.4,220.8,1,227.6,0.4
	L227.6,0.4z M223.3,14.8c0.6,7.4,1,14.8,1.6,22.2c4.5-0.8,9.6,0.3,13.5-2.6c3.6-2.5,5-7.4,4-11.6c-0.8-4.3-4.5-8-9-8.4
	C230,14.1,226.7,14.5,223.3,14.8L223.3,14.8z M306,1.3c5.2,0.3,10.4,0.7,15.5,1.1c-1,13.7-2,27.5-2.9,41.3c2.8,0.3,5.6,0.4,8.5,0.6
	c1.1-13.8,1.9-27.5,3-41.3c5.2,0.5,10.3,0.8,15.5,1.1c-1,13.7-1.9,27.5-2.9,41.2c2.6,0.3,5.1,0.5,7.7,0.6
	c-1.2,8.6-2.5,17.2-3.7,25.8h-0.6c-3.4-0.4-6.8-0.7-10.2-0.8c-0.3-4.8-0.6-9.7-0.9-14.5c-10.9-1-21.8-1.6-32.7-2.4
	C303.7,36.4,304.8,18.8,306,1.3L306,1.3z M121.6,3.7c13.3-0.4,26.6-1.1,39.9-1.4c0.1,11.7,0.9,23.4,1.2,35.2
	c0.3,5.8,0.3,11.6,0.7,17.5c-5.4,0-10.7,0.4-16.1,0.3c-0.1-12.6-0.9-25.2-1.1-37.8c-2.7,0-5.4,0.2-8.2,0.2
	c0.4,12.7,0.8,25.4,1.4,38.1c-5.3,0.3-10.6,0.3-15.8,0.6C122.8,38.8,122.2,21.2,121.6,3.7L121.6,3.7z M169.6,10.8
	c3.6-5.1,10-7.7,16.2-7.6c6.9-0.2,14.2,3.2,17.5,9.5c3.1,5.7,2.2,12.4,2.3,18.6c-9.4,0-18.9,0-28.3,0c0.2,3.4-0.7,7.2,1.6,10
	c2.7,4.3,9.1,4.9,13,1.9c2.3-2,2.2-5.2,2.4-8c3.7,0,7.4,0,11.1,0c-0.1,2.7-0.1,5.5-1.1,7.9c-1.5,3.6-3.8,7-7.2,8.9
	c-3.6,2.4-8.1,3.1-12.4,3c-6.9-0.1-13.9-4.1-16.7-10.5c-2.7-6.1-1.9-12.9-2-19.4C165.8,20.1,166.7,14.9,169.6,10.8L169.6,10.8z
	 M178.2,18.2c-1.3,2.3-0.6,5.1-0.8,7.7c5.7,0,11.3,0,17,0c-0.2-2.7,0.5-5.8-1.1-8.2c-1.4-2.8-4.5-4.7-7.7-4.4
	C182.4,13.1,179.4,15.3,178.2,18.2L178.2,18.2z M271.7,5c7-3,15.6-2.4,21.7,2.1c3.9,2.8,6.3,7.5,6.9,12.2c0.4,3.9,0.2,7.9,0.2,11.9
	c-9.4,0-18.9,0-28.3,0c0.2,3.3-0.6,7.2,1.7,10c2.7,4.3,9.3,5,13.1,1.8c2.2-1.9,2.2-5.1,2.3-7.9c3.8,0,7.5,0,11.3,0
	c-0.2,4.3-1,8.8-3.6,12.3c-4.2,6-12.1,8.2-19,7.4c-4.6-0.5-8.9-2.6-12.1-5.9c-2.7-3.2-4.5-7.2-4.6-11.4c-0.2-5.8-0.1-11.6,0-17.5
	C261.7,13.7,265.6,7.5,271.7,5L271.7,5z M273.8,16.9c-2.1,2.5-1.6,6-1.7,9c5.7,0,11.5,0.1,17.2-0.1c-0.1-2.2,0.1-4.4-0.5-6.5
	c-0.7-2.3-2.3-4.3-4.5-5.3C280.8,12.1,275.9,13.5,273.8,16.9L273.8,16.9z"/>
</svg>
