<?xml version="1.0" encoding="utf-8"?>
<!-- Generator: Adobe Illustrator 19.1.0, SVG Export Plug-In . SVG Version: 6.00 Build 0)  -->
<svg version="1.1" id="Layer_1" xmlns="http://www.w3.org/2000/svg" xmlns:xlink="http://www.w3.org/1999/xlink" x="0px" y="0px"
	 viewBox="0 0 509 116" style="enable-background:new 0 0 509 116;" xml:space="preserve">
<path d="M58.6,38.7h-8.1v16.5h8.1c2.1,0,3.8-0.8,5.1-2.3c1.3-1.5,2-3.5,2-6s-0.7-4.5-2-6C62.4,39.5,60.7,38.7,58.6,38.7z"/>
<path d="M109.8,37.5c-7.3,0-10.9,5-10.9,14.9v11.1c0,10,3.6,14.9,10.9,14.9c7.3,0,11-5,11-14.9V52.4
	C120.8,42.5,117.2,37.5,109.8,37.5z"/>
<path d="M315.5,46.9c0,2.5,0.7,4.5,2,6c1.4,1.5,3.1,2.3,5.3,2.3h8.3V38.7h-8.3c-2.1,0-3.9,0.8-5.3,2.3
	C316.2,42.6,315.5,44.5,315.5,46.9z"/>
<path d="M0.1-0.1v115.9h381.4V-0.1H0.1z M73.6,60.7c-3.7,3.8-8.6,5.7-14.7,5.7h-8.6v22.4H37.1V27.4h22c6,0,10.9,1.9,14.6,5.8
	c3.7,3.9,5.6,8.5,5.6,13.9C79.2,52.3,77.3,56.9,73.6,60.7z M134.3,64.6c0,8.2-2.3,14.5-6.9,18.8c-4.6,4.4-10.4,6.6-17.5,6.6
	c-7,0-12.9-2.2-17.5-6.6c-4.6-4.4-6.9-10.7-6.9-18.7v-13c0-8.1,2.3-14.4,6.9-18.8c4.6-4.4,10.4-6.7,17.5-6.7c7.1,0,13,2.2,17.5,6.7
	c4.6,4.4,6.9,10.7,6.9,18.8V64.6z M159.5,75c2,2.4,5,3.5,8.8,3.5c5.3,0,10.4-0.8,15.1-2.5l2.5,11c-5.8,1.9-11.7,2.8-17.8,2.8
	c-7.5,0-13.6-2.2-18.2-6.5c-4.6-4.3-6.9-10.6-6.9-18.7V51.3c0-8.2,2.3-14.5,6.9-18.7c4.6-4.3,10.7-6.5,18.2-6.5c6,0,11.9,1,17.8,2.8
	l-2.5,10.9c-5.1-1.6-10.1-2.4-15.1-2.4c-7.9,0-11.9,5-11.9,14.9v11C156.4,68.8,157.4,72.6,159.5,75z M210.3,75c2,2.4,5,3.5,8.8,3.5
	c5.4,0,10.4-0.8,15.1-2.5l2.6,11c-5.8,2-11.8,2.9-17.8,2.9c-7.5,0-13.6-2.2-18.2-6.5c-4.6-4.3-6.9-10.6-6.9-18.7V51.4
	c0-8.2,2.3-14.5,6.9-18.7s10.7-6.5,18.2-6.5c6,0,11.9,1,17.8,2.8l-2.6,10.9c-5.1-1.6-10.1-2.4-15.1-2.4c-7.9,0-11.8,5-11.8,14.9v11
	C207.3,68.8,208.3,72.6,210.3,75z M293,88.7h-13.4V62.6c0-3.3,0.1-6.5,0.4-9.7l-22.7,35.8h-10.9V27.3h13.4v26.6
	c0,2.8-0.1,5.9-0.3,9.4l22.7-36H293V88.7z M344.5,88.7h-13.4V66.3H326l-9.8,22.4h-14.9l11.5-24.3c-3.4-1.5-6.1-3.9-7.9-7
	c-1.9-3.2-2.8-6.7-2.8-10.5c0-5.4,1.9-10,5.6-13.9s8.6-5.8,14.6-5.8h22.3L344.5,88.7L344.5,88.7z"/>
<path d="M390.9-0.2v116h118.2v-116H390.9z M424.3,27.4v14.3c-2.9,0.5-5.1,2.7-5.1,5.4c0,0.3,0,0.6,0.1,0.9h-15.1
	c0-0.5-0.1-1-0.1-1.5C404.1,36.4,413,28.2,424.3,27.4z M447.8,86.5h-29.6l15.4-13.7h14.2V86.5z M446,55.9c-1.5,2.8-9.3,11.4-15.7,17
	L415,86.6h-11.4V75.7C412,68.3,420.7,61,429,53.3c1.5-1.4,3-3.3,3-6.3c0-2.7-2.2-4.9-5.2-5.4V27.4c11.9,0.2,21.5,8.7,21.5,19
	C448.1,49.7,447.6,53,446,55.9z M479.6,74h-27.2v-12h27.2V74z M496.6,86.5h-13.1V47l13.1-15.3V86.5z M469.4,58.4h-16.2l28.6-31.8
	h14.9L469.4,58.4z"/>
</svg>
