<?xml version="1.0" encoding="utf-8"?>
<!-- Generator: Adobe Illustrator 19.1.0, SVG Export Plug-In . SVG Version: 6.00 Build 0)  -->
<svg version="1.1" id="Layer_1" xmlns="http://www.w3.org/2000/svg" xmlns:xlink="http://www.w3.org/1999/xlink" x="0px" y="0px"
	 viewBox="0 0 200 45" enable-background="new 0 0 200 45" xml:space="preserve">
<path d="M153.6,0v45h46.4V0H153.6z M182,40.5h-8.5v-21l8.5-4.3V40.5z M182.2,13.4l-17.3,8.7v-9.4L182.2,4V13.4z"/>
<g>
	<path d="M76.4,13.7c-1.4,0-2.6,0.4-3.5,1.4c-1.1,1.2-1.5,2.9-1.5,4.5v6c0,1.6,0.3,3.3,1.5,4.5c0.9,1,2.2,1.3,3.5,1.3
		c1.4,0,2.6-0.4,3.5-1.3c1.1-1.2,1.5-2.9,1.5-4.5v-6c0-1.6-0.3-3.3-1.5-4.5C79,14.1,77.8,13.7,76.4,13.7z"/>
	<path d="M101.6,14h-4.3v7h4.3c2.2,0,2.8-1.6,2.8-3.5C104.4,15.5,103.8,14,101.6,14z"/>
	<path d="M-0.1,0v44.9h150.3V0H-0.1z M25.3,30c0.9,1,2.2,1.4,3.5,1.4c2.3,0,4.8-0.5,7.1-1.1l0.5-0.2l1.1,4.8L37.1,35
		c-2.7,0.7-5.5,1.3-8.3,1.3s-5.3-0.8-7.3-2.8c-2.1-2-3-4.6-3-7.6V19c0-2.9,0.9-5.6,3-7.6c2-1.9,4.6-2.7,7.3-2.7
		c2.8,0,5.6,0.5,8.3,1.3l0.5,0.2L36.5,15l-0.5-0.2c-2.3-0.6-4.7-1.1-7.1-1.1c-1.3,0-2.6,0.3-3.5,1.3c-1.1,1.1-1.5,2.9-1.5,4.5v6.1
		C23.9,27.1,24.2,28.8,25.3,30z M61.4,36H56V14.5h-8.8V36h-5.5V9.1h3.1l0,0h15l0,0h1.6V36z M86.8,26c0,3-0.9,5.5-3.1,7.6
		c-2,1.9-4.5,2.8-7.3,2.8s-5.3-0.8-7.3-2.8c-2.1-2-3.1-4.6-3.1-7.6v-6.8c0-2.9,0.9-5.5,3.1-7.6c2-1.9,4.6-2.8,7.3-2.8
		c2.8,0,5.3,0.9,7.3,2.8c2.2,2,3.1,4.6,3.1,7.6V26z M107.7,23.4c-1.6,1.8-3.7,2.5-6.1,2.5h-4.3V36h-5.4V9.1h9.7
		c2.4,0,4.5,0.7,6.1,2.5c1.5,1.7,2.2,3.7,2.2,5.9C109.8,19.7,109.2,21.7,107.7,23.4z M131.8,14h-6.9v22h-5.4V14h-7.1v-5h19.5
		L131.8,14z"/>
</g>
</svg>
