<?xml version="1.0" encoding="utf-8"?>
<!-- Generator: Adobe Illustrator 19.1.0, SVG Export Plug-In . SVG Version: 6.00 Build 0)  -->
<svg version="1.1" id="Layer_1" xmlns="http://www.w3.org/2000/svg" xmlns:xlink="http://www.w3.org/1999/xlink" x="0px" y="0px"
	 viewBox="0 0 204 236" enable-background="new 0 0 204 236" xml:space="preserve">
<path fill="#050506" d="M163.3,218.2c0,4,0,8,0,12c0,4.8-2.7,6.6-7.4,5.1c-0.9-0.3-1.4-0.7-1.4-1.7s0-2,0-3c0-11.1,0-11-11.5-10.2
	c-2.3,0.2-2.8,0.9-2.7,3c0.1,2.5-0.3,5,0.1,7.5c0.5,3.9-1,4.5-4.6,4.6c-3.8,0.1-4.7-1.1-4.5-4.7c0.3-9,0.3-18,0-27
	c-0.2-4,1.7-4.2,4.7-4.1c2.7,0.1,4.6-0.1,4.5,3.8c-0.1,9.9,0.1,9.8,10.1,9.9c3.3,0,4.5-0.9,4-4.1c-0.2-1.3,0-2.7,0-4
	c0-5.3,2-6.7,7.2-5.5c2,0.5,1.6,1.8,1.6,3C163.3,207.9,163.3,213.1,163.3,218.2z"/>
<path fill="#060607" d="M20.2,199.1c0.7,0.1,2.8,0,4.6,0.7c1.7,0.7,5.3,0.1,4.2,3.4c-0.9,2.5-1.9,6-6.6,3.8c-4.2-2-8.2-0.7-11,3.1
	c-2.9,4-2.7,11.3,0.5,15c3.3,3.9,7.7,4.4,11.7,2.2c4.4-2.4,4.7,1.1,5.8,3.2c1.7,3.1-1.7,3-3,3.7c-7,3.3-15.6,1.9-20.9-3.2
	c-5.2-5-7-14.1-4.1-21.3C4.1,203,10.5,199.1,20.2,199.1z"/>
<path fill="#080809" d="M42,221.1c0-2,0-4,0-6c0-7.4,0-7.6-7.2-7.9c-3.4-0.1-2.6-2.2-2.7-4c-0.1-1.9-0.2-3.6,2.7-3.5
	c7.7,0.2,15.3,0.1,23,0c3,0,2.5,1.9,2.5,3.7c0,1.7,0.6,3.5-2.4,3.8c-7.2,0.6-7.2,0.8-7.2,8.3c0,5.5-0.2,11,0.1,16.5
	c0.2,3.9-2.1,3.3-4.4,3.3c-2.2,0-4.8,0.9-4.4-3.2C42.3,228.5,42,224.8,42,221.1z"/>
<path fill="#050506" d="M104.5,0C55-0.9,16.1,39.7,17,85.2c0,46.9,37.6,84.5,83.7,85.4c43.7,0.9,86.6-33.3,87.4-85.1
	C188.6,39.5,149.9,0.8,104.5,0z M180,69.7c2.6,12.1,2.6,12-9.7,12.4c-4.3,0.1-8.6,0.6-12.9,0.8l0,0l0,0c-2.3,0.3-4.7,0.6-7,1l0,0
	c-2,0.3-4,0.7-6,1l0,0c-2,0.4-4,0.8-6,1.2l0,0l0,0c-2.2,0.7-4.4,1.4-6.6,2c-1.5,0.4-2.7,0.1-2.2-1.9l0,0c-0.8-9.2-0.8-9.2,8.1-12
	c0.5-0.1,1-0.1,1.5-0.1c2.5-1.6,5.4-2.2,8.2-3l0,0c1.5-1.1,3.1-1.8,5-1.9c1-0.4,2-0.7,2.9-1.1c2.5-1.4,5.2-2.5,8.1-2.9
	c1.7-0.7,3.3-1.5,5-2.1C177.8,59.7,177.8,59.7,180,69.7z M151.4,23.9L151.4,23.9c2.8,1.4,5,3.7,6.9,6.1l0,0c3,2.2,5.1,5.1,6.9,8.3
	l0,0c4.7,4.6,7.2,10.5,10,16.3c0.9,1.8,0.1,2.7-1.6,3.3c-3.1,1-6.2,2.1-9.4,3.1c-1.2,0.8-2.5,1.3-4,1.3c-1.5,1-3.2,1.8-5.1,1.7
	c-1.6,0.9-3.1,2-5,2l0,0c-1.7,0.6-3.3,1.3-5,1.9l0,0c-2,0.7-4,1.4-6,2.1l0,0l0,0c-1.2,0.8-2.5,1.3-4,1.3l0,0c-2.2,1.3-4.5,2.2-7,2.7
	c-3.1-0.1-2.7-3.3-4.2-4.8c-4.9-5.1-4.9-5.1-0.8-10.8c2.7-3.7,5.4-7.5,8.1-11.2l0,0c1-1.3,1.9-2.7,2.9-4l0,0c1-1.3,1.9-2.7,2.9-4
	l0,0c1.1-1.6,2.2-3.3,3.3-4.9l0,0c0.8-1.1,1.6-2.2,2.4-3.2c0.9-1.3,1.7-2.6,2.6-3.8C147.5,26,146.8,20.2,151.4,23.9z M126.5,123.2
	L126.5,123.2c5.7,5.3,5.8,5.4-1.1,8.7c-7.9,3.8-16.2,5.9-25.1,5.2c-5.9-0.3-11.7-1-17-3.8c-4.6-1.3-8.7-3.7-12.2-6.9l0,0
	c-2.8-1.5-5-3.6-6.9-6l0,0c-2.1-2-4-4.2-5.2-6.9c-2-2-3.1-4.4-3.9-7.1c-2.3-4-3.7-8.4-3.9-13c-0.3-1.1-0.6-2.3-0.8-3.4
	c-0.4-2.2,0-3.3,2.8-2.8c18.9,2.9,36.9,8.5,53,19.3l0,0c1.6,0.6,3,1.4,4.1,2.8l0,0c1.3,0.3,2.3,1,2.9,2.1l0,0
	c0.7,0.6,1.4,1.1,2.2,1.7l0,0c1.2,0.5,2.2,1.1,2.8,2.3c1.4,1.3,2.9,2.6,4.3,3.9l0,0C124.2,120.2,125.5,121.5,126.5,123.2z
	 M52.4,70.9c0.8-2.2,2.2-2.1,3.8-0.7c1.7,0.7,3.3,1.3,5,2c4.2,1.4,8.3,2.7,12.5,4.1c1.9,0.6,3.2,1.6,2.3,3.9l0,0l0,0
	c-0.3,2.6,0.6,5.3-0.8,7.8c-1.4,0.2-2.9,0.6-4.1-0.6l0,0c-2-0.5-4-1-6-1.5c-3-0.6-6-1.2-8.9-1.8l0,0l0,0c-6.3-0.3-6.7-0.9-5-6.9
	C50.8,74.9,51.6,72.9,52.4,70.9z M101.1,55.9c0,2.1-0.9,3-2.9,3.2c-0.7,0-1.3,0.2-2,0.2c-3,0.1-5.6,4-8.5,1.7
	c-2.3-1.8-3.7-4.7-5.2-7.2c-1.1-1.8-3-3.1-3.4-5.4l0,0c-6.2-7.2-6-7.7,4.1-11.1c4.7-2.7,10.1-3,15.3-3.9c2-0.4,2.6,0.7,2.6,2.6
	C101,42.6,101,49.2,101.1,55.9z M75,49.3c2.5,3.4,4.7,7.1,7.6,10.2c3.6,3.8-3,10.6-3.5,11.7l0,0l0,0c-1.5,6-4.5,1.5-6.9,1l0,0l0,0
	c-2.1-0.4-4.2-0.8-6-2.1l0,0l0,0c-2.3-0.8-4.7-1.6-7-2.4c-5.7-1.9-5.9-2-2.6-7.2c1.4-2.2,2.4-4.8,4.6-6.4c1.1-1.8,2.3-3.6,4.1-4.9
	c2.1-1.7,3.1-5.1,6.8-4C73,46.6,74,47.9,75,49.3z M99.8,98.8c-5.4-3-10.9-5.7-16.9-7.4c-3.8-1.1-4.4-3.4-4.3-6.6
	c0.4-12.7,10.9-23,23.6-23.1c13.2-0.1,24.1,11.1,23.8,24.3c-0.1,2.7-0.9,4.3-3.5,5.1c-6,1.9-11.8,4.5-17.3,7.5
	C103.3,99.8,101.8,99.9,99.8,98.8z M104.1,48.8c-0.1-4,0.1-8-0.1-11.9c-0.1-2.8,0.7-3.8,3.7-3.3c7,1,13.5,2.9,19.4,6.8l0,0
	c4.3,0.8,3.7,2.7,1.1,5c-3.2,4.8-6.6,9.5-9.7,14.3c-1.5,2.3-2.9,2.9-5.2,1.4c-0.4-0.3-0.9-0.5-1.4-0.6c-2.5-0.8-6-0.7-7.3-2.4
	C102.8,55.7,104.2,52,104.1,48.8z M24.8,69.8c7.9-37.1,40-63.4,78-63.5c14.1,0.3,27.9,4,40.6,11.6c2.8,1.7,2.8,2.8,0.9,5.2
	c-3.3,4.2-6.4,8.5-9.2,13c-1.7,2.7-3,2.8-5.7,1.3c-32.1-17.9-71.8-0.7-80.7,34.9c0,0.2-0.1,0.3-0.2,0.5c-1,3.3,0.3,8.2-2.3,9.7
	c-2.5,1.5-6.7-0.1-10.2-0.4c-0.7,0-1.3-0.1-2-0.1C22.3,81.7,22.3,81.7,24.8,69.8z M135.6,156.8c-47.4,22.8-105-8.7-111.5-60.9
	c-1.4-11.2-1.4-11.2,9.5-10.9c4.1,0.4,9-0.4,12.2,1.5c3.3,1.9,1.7,7.1,2.6,10.9c8.2,35.9,48.9,54.1,81,35.8c3.6-2.1,5.1-1.3,6.8,1.8
	c1.3,2.5,2.9,4.8,4.2,7.4C146,154.1,146.6,151.5,135.6,156.8z M180.3,96.4c-0.1,2,0.3,4.1-1,5.9c0,2.5-0.6,4.9-2,7.1
	c-1.6,2.4-0.6,5.8-3,7.9c-0.8,2.9-2,5.5-4.1,7.7c-3.7,7.8-9.3,14-16.1,19.2l0,0l0,0c-1.3,2.7-4.2,3.6-6.2,5.5
	c-1.6-1.3-1.9-2.9-2.4-4.5c-1.2-1.1-1.4-2.6-1.9-4l0,0l0,0c-0.7-1.3-1.4-2.7-2.2-4l0,0c-4.7-7.5-10.3-14.3-16.3-20.8l0,0
	c-1.4-0.6-2.3-1.6-3.1-2.8c-1.1-0.5-2.3-1-2.9-2.3l0,0c-1.3-1.1-2.6-2.1-3.9-3.2l0,0l0,0c-1.4-0.9-2.7-1.9-4.1-2.8l0,0
	c-1.5-0.9-3-1.9-5-3.2c2.4-2,4.7-3,7.1-3.8c4.2-1.9,8.3-4.2,13-5.1c6.7-2.6,13.6-4.5,20.8-5.2l0,0c3.2-1.7,6.9-0.5,10.2-1.8l0,0l0,0
	c1.3-0.1,2.5-0.2,3.8-0.2c0.2-0.1,0.5-0.2,0.7-0.3c3.1-1.1,6.3-0.5,9.5-0.6l0,0l0,0c2,0,4,0,6,0l0,0l0,0c4.7-2.1,4.3,1,3.9,3.9
	C181.2,91.7,181.7,94.1,180.3,96.4z"/>
<path fill="#050506" d="M190.9,201.8c-1-2.7-3.1-2.1-4.9-2c-2,0-4.3-0.8-5.4,2.1c-4.1,11-8.3,21.9-12.5,33c6.8,0.9,6.8,0.9,10.5-4.3
	c0.3-0.4,0.6-1,1-1c3.8-0.1,7.6-0.3,11.4-0.1c2.4,0.1,2,2.7,2.6,4.2c0.6,1.5,1.7,1.8,3.2,1.7c2.1-0.1,4.3,0,7.2,0
	C199.4,223.7,195.1,212.8,190.9,201.8z M181.4,222.1c1.4-3.9,2.5-7.2,3.7-10.4c0.1-0.3,0.4-0.5,0.7-0.8c1.2,3.7,2.5,7.4,3.8,11.3
	C186.7,222.1,184.3,222.1,181.4,222.1z"/>
<path fill="#050506" d="M113.5,201.8c-1.2-3-3.5-1.9-5.4-2s-3.9-0.5-4.9,2.2c-4,10.9-8.2,21.7-12.5,33c7.4,0.5,7.4,0.5,10.5-4.4
	c0.2-0.4,0.6-1,0.9-1c3.8-0.1,7.6-0.3,11.5-0.2c2.5,0.1,2.1,2.6,2.7,4.1c0.6,1.5,1.6,1.9,3.1,1.8c2.2-0.1,4.5,0,7.3,0
	C122.2,223.7,117.8,212.8,113.5,201.8z M104.2,222c1.2-3.6,2.4-7.1,4-11.7c1.6,4.4,2.8,7.9,4.2,11.7C109.5,222,107,222,104.2,222z"
	/>
<path fill="#050506" d="M91.7,210.4c-0.3-6-4.2-9.9-11.1-10.5c-4.3-0.4-8.6,0-12.9-0.2c-2.4-0.1-2.6,1.2-2.6,3.1
	c0.1,4.8,0,9.6,0,14.5c0,4.5,0.3,9-0.1,13.5c-0.3,3.7,0.7,4.7,4.5,4.7c3.7,0,5.2-1,4.6-4.7c-0.2-1.5,0.1-3-0.1-4.5
	c-0.3-2.4,0.7-3.2,3.1-3c1.5,0.1,3,0,4.5-0.3C88.6,221.5,92.1,217.2,91.7,210.4z M76.6,216.7c-5,0.2-1.3-3.8-2.8-5.2
	c0.9-2-1.7-5.6,3.1-5.3c3.4,0.3,6,1.4,6,5.1C83,215.5,80.1,216.5,76.6,216.7z"/>
</svg>
