<?xml version="1.0" encoding="utf-8"?>
<!-- Generator: Adobe Illustrator 19.1.0, SVG Export Plug-In . SVG Version: 6.00 Build 0)  -->
<svg version="1.1" id="Layer_1" xmlns="http://www.w3.org/2000/svg" xmlns:xlink="http://www.w3.org/1999/xlink" x="0px" y="0px"
	 viewBox="0 0 269 173" enable-background="new 0 0 269 173" xml:space="preserve">
<path d="M265.9,39c-0.5-4.3-1.6-8.4-3.1-12.2c-1.7-4.8-4.4-9-8-12.5c-3.5-3.6-7.6-6.4-12.3-8.1c-3.7-1.6-7.8-2.7-12-3.2
	c-29.8-3.7-60.7-4.6-93.6,0c-3.6,0.5-7.1,1.4-10.4,2.7c-6.2,1.9-11.6,5.6-15.7,10.6c-2.6,3-4.7,6.4-6.1,10.2
	c-1.6,3.9-2.7,8.1-3.3,12.5c-3.7,30.2-4.6,61.5,0,94.9c0.5,3.7,1.4,7.3,2.7,10.6c1.6,5.4,4.6,10.1,8.6,14c3.8,4,8.5,7.1,13.8,8.7
	c3.3,1.3,6.8,2.2,10.5,2.7c32.9,4.6,63.8,3.7,93.6,0c4.3-0.5,8.5-1.7,12.3-3.3c3.8-1.4,7.1-3.5,10.1-6.2c4.9-4.2,8.6-9.6,10.4-15.9
	c1.2-3.3,2.1-6.9,2.6-10.5C270.5,100.5,269.6,69.2,265.9,39z M251.5,133.9c-1.1,5.5-2.2,11.5-5.7,14.9c-2.4,2.5-6,3.9-9.8,4.7
	c-4.8,1-11.2,1.7-16.2,2.4c-21.2,2.8-48.4,2.8-69.6,0.5c-6.2-0.7-14.8-1.6-20.8-3.2c-3.1-0.8-5.9-2.1-8.3-4.5c-1.8-1.7-3-4-3.8-6.5
	c-1.5-4.7-2.6-13-3.2-18.1c-2.5-19.7-3-45.6-0.8-67.1c0.7-6.6,1.7-14.5,2.8-21.1c0.8-4.4,2.1-8.7,5-11.5c3.5-3.6,9.4-4.7,14.9-5.7
	c20.6-3.9,53.3-5,79-2.1c6.2,0.4,16.9,1.5,22.9,3.5c2.8,0.9,5.3,2.3,7.3,4.2c2.7,2.7,4.3,5.8,5.2,9.2c1.5,5.4,2.4,13.9,3.1,19.4
	C256.5,79,255.5,112.8,251.5,133.9z"/>
<path d="M207.5,33.1c2.7,0.2,5.2,0.4,7.4,0.5v-0.2c9.6,0.7,14.6,1.3,17.3,4.1c2.8,2.7,3.4,7.7,4.1,17.3h-0.2
	c0.2,2.2,0.3,4.7,0.5,7.4c0.3,4.2,0.5,8.4,0.7,12.6c0.2,1-6.3,7-9.7,10.3c2,2.1,9.8,9.5,9.7,11.2c-0.1,4.5-0.4,9.1-0.7,13.6
	c-0.2,2.7-0.4,5.2-0.5,7.4h0.2c-0.7,9.6-1.3,14.6-4.1,17.3c-2.7,2.8-7.7,3.4-17.3,4.1v-0.2c-2.2,0.2-4.7,0.3-7.4,0.5
	c-16.1,1.2-31.7,1.2-47.8,0c-2.7-0.2-5.2-0.4-7.4-0.5v0.2c-9.6-0.7-14.6-1.3-17.3-4.1c-2.8-2.7-3.4-7.7-4.1-17.3h0.2
	c-0.2-2.2-0.3-4.7-0.5-7.4l-0.1-1c22.9,2.8,48.4,1.2,74.6-1.7v-7c-16.1-0.2-35.3-2.1-43.3-4.2V75.8c12.2-2.1,28.6-3.1,43.3-3.2v-9.1
	c-25.8-2.5-50.8-3.2-74.5-1.2v-0.2c0.2-2.7,0.4-5.2,0.5-7.4h-0.2c0.7-9.6,1.3-14.6,4.1-17.3c2.7-2.8,7.7-3.4,17.3-4.1v0.2
	c2.2-0.2,4.7-0.3,7.4-0.5C175.8,31.9,191.4,31.9,207.5,33.1L207.5,33.1z"/>
<path d="M16.5,146.1h10.2V116c11.1,0,16.8-0.7,16.5-10H0c-0.5,9.7,6.3,10,16.5,10V146.1L16.5,146.1z M54.3,146.1H74
	c6.7,0,12.1-5.5,12.1-12.1l0,0c0-4.1-2.1-7.8-5.2-10c1-1.7,1.5-3.8,1.5-5.9l0,0c0-6.7-5.5-12.1-12.1-12.1h-16h-2h-7.6v40H54.3
	L54.3,146.1L54.3,146.1z M54.3,130.4h18.2c2,0,3.7,1.6,3.7,3.7l0,0c0,2-1.6,3.7-3.7,3.7H54.3V130.4L54.3,130.4z M54.3,115.1H70
	c2.9,0,4.2,3.6,2,5.5c-0.5,0.5-1.3,0.8-2,0.8H54.3V115.1L54.3,115.1z"/>
</svg>
