<?xml version="1.0" encoding="UTF-8"?>
<!DOCTYPE svg PUBLIC "-//W3C//DTD SVG 1.1//EN" "http://www.w3.org/Graphics/SVG/1.1/DTD/svg11.dtd">
<!-- Creator: CorelDRAW X7 -->
<?xml-stylesheet href="youtube-channel.css" type="text/css"?>
<svg xmlns="http://www.w3.org/2000/svg" xml:space="preserve" width="176.75mm" height="73.7577mm" version="1.1" style="shape-rendering:geometricPrecision; text-rendering:geometricPrecision; image-rendering:optimizeQuality; fill-rule:evenodd; clip-rule:evenodd"
viewBox="0 0 17427 7272"
 xmlns:xlink="http://www.w3.org/1999/xlink">
 <g id="Слой_x0020_1">
  <metadata id="CorelCorpID_0Corel-Layer"/>
  <path class="fil0" d="M17323 1569c0,0 -101,-713 -413,-1026 -395,-412 -837,-414 -1040,-438 -1454,-105 -3634,-105 -3634,-105l-4 0c0,0 -2181,0 -3634,105 -203,24 -646,26 -1041,438 -311,313 -413,1026 -413,1026 0,0 -103,837 -103,1673l0 785c0,836 103,1673 103,1673 0,0 102,713 413,1026 395,412 914,399 1145,442 831,80 3532,104 3532,104 0,0 2182,-3 3636,-108 203,-24 645,-26 1040,-438 312,-313 413,-1026 413,-1026 0,0 104,-837 104,-1673l0 -785c0,-836 -104,-1673 -104,-1673z"/>
  <path class="fil0" d="M6504 5885l-660 0 0 -382c-251,287 -463,432 -695,432 -203,0 -344,-96 -415,-269 -43,-106 -73,-270 -73,-511l0 -2783 661 0 0 2609c0,147 0,208 0,243 15,98 57,134 141,134 126,0 241,-110 381,-308l0 -2678 660 0 0 3513z"/>
  <path class="fil0" d="M3513 4842c35,347 -73,520 -278,520 -205,0 -313,-173 -278,-520l0 -1392c-35,-347 73,-511 278,-511 205,0 313,164 278,511l0 1392zm661 -1322c0,-376 -75,-657 -209,-835 -176,-240 -452,-339 -730,-339 -315,0 -555,99 -731,339 -135,178 -208,463 -208,838l0 1249c0,373 64,631 200,807 175,240 461,367 739,367 278,0 568,-127 744,-367 133,-176 195,-434 195,-807l0 -1252z"/>
  <path class="fil0" d="M1565 3972l0 1913 -695 0 0 -1913c0,0 -721,-2345 -870,-2783l730 0 489 1833 485 -1833 731 0 -870 2783z"/>
  <path class="fil1" d="M15304 3345c0,-326 90,-414 300,-414 209,0 292,96 292,418l0 380 -592 0 0 -384zm1254 905l0 -711c0,-371 -73,-643 -205,-819 -177,-238 -427,-364 -743,-364 -322,0 -572,126 -755,364 -133,176 -211,463 -211,835l0 1217c0,369 85,628 219,802 182,237 433,356 762,356 329,0 588,-124 762,-377 77,-111 126,-238 147,-377 6,-63 23,-207 23,-410l0 -98 -661 0c0,252 1,403 -5,437 -36,168 -126,253 -281,253 -216,0 -308,-162 -306,-483l0 -625 1254 0z"/>
  <path class="fil1" d="M13565 4876c0,348 -82,482 -263,482 -104,0 -223,-54 -329,-159l1 -2110c105,-103 224,-158 328,-158 181,0 263,102 263,450l0 1495zm74 -2525c-232,0 -462,143 -666,393l1 -1520 -626 0 0 4661 626 0 1 -350c210,260 440,395 664,395 250,0 434,-134 518,-393 42,-147 69,-374 69,-695l0 -1392c0,-329 -42,-554 -84,-694 -84,-260 -253,-405 -503,-405z"/>
  <path class="fil1" d="M11826 5885l-661 0 0 -382c-250,287 -463,432 -694,432 -203,0 -344,-96 -415,-269 -43,-106 -73,-270 -73,-511l0 -2748 661 0 0 2574c0,147 0,208 0,243 15,98 56,134 140,134 127,0 241,-110 381,-308l0 -2643 661 0 0 3478z"/>
  <polygon class="fil1" points="9322,5885 8626,5885 8626,1885 7896,1885 7896,1225 10087,1224 10087,1885 9322,1885 "/>
 </g>
</svg>
