<svg xmlns="http://www.w3.org/2000/svg" xmlns:xlink="http://www.w3.org/1999/xlink" preserveAspectRatio="xMidYMid" width="280" height="496" viewBox="0 0 280 496">
  <defs>
    <style>
      .cls-1 {
        fill: url(#linear-gradient-1);
        fill-rule: evenodd;
      }
    </style>

    <linearGradient id="linear-gradient-1" gradientUnits="userSpaceOnUse" x1="140" y1="496" x2="140">
      <stop offset="0"/>
      <stop offset="1" stop-color="#454545"/>
    </linearGradient>
  </defs>
  <path d="M139.000,496.000 C139.000,495.667 139.000,495.333 139.000,495.000 C127.590,484.047 119.158,469.289 109.000,457.000 C86.057,429.244 64.138,402.549 42.000,374.000 C32.680,361.981 22.298,350.457 13.000,338.000 C9.048,332.705 5.010,327.950 0.000,322.000 C93.324,322.000 186.676,322.000 280.000,322.000 C280.000,322.667 280.000,323.333 280.000,324.000 L139.000,496.000 ZM139.000,356.000 C134.667,356.000 130.333,356.000 126.000,356.000 C126.000,361.999 126.000,368.001 126.000,374.000 C122.144,375.322 115.386,375.073 110.000,375.000 C110.000,368.667 110.000,362.333 110.000,356.000 C105.334,356.000 100.666,356.000 96.000,356.000 C96.000,372.998 96.000,390.002 96.000,407.000 C99.127,408.079 104.414,408.065 109.000,408.000 C110.742,402.877 110.078,393.752 110.000,387.000 C115.333,387.000 120.667,387.000 126.000,387.000 C126.000,393.999 126.000,401.001 126.000,408.000 C130.333,408.000 134.667,408.000 139.000,408.000 C139.000,390.668 139.000,373.332 139.000,356.000 ZM195.000,371.000 C190.859,355.144 173.516,355.545 153.000,356.000 C153.000,373.332 153.000,390.668 153.000,408.000 C175.593,408.772 188.155,407.085 195.000,392.000 C197.137,387.291 198.489,375.724 195.000,371.000 ZM177.000,395.000 C173.334,395.000 169.666,395.000 166.000,395.000 C166.000,386.001 166.000,376.999 166.000,368.000 C172.266,367.879 175.816,368.891 180.000,370.000 C186.798,380.932 184.682,387.094 177.000,395.000 ZM264.189,308.241 L263.896,295.887 L263.812,295.887 L257.889,299.955 L257.499,299.955 L251.782,295.887 L251.699,295.887 L251.115,308.241 L244.971,308.241 L244.894,279.995 L246.641,279.995 L258.067,292.685 L269.203,279.995 L270.991,279.995 L270.334,308.241 L264.189,308.241 ZM226.956,279.995 L226.956,296.890 C226.956,303.783 223.717,308.990 215.331,308.990 C206.945,308.990 203.707,303.783 203.707,296.890 L203.707,279.995 L209.810,279.995 L209.810,295.804 C209.810,299.288 210.142,304.195 215.331,304.195 C220.521,304.195 220.853,299.288 220.853,295.804 L220.853,279.995 L226.956,279.995 ZM173.469,285.187 L173.469,280.000 L177.181,280.000 L177.181,279.995 L183.283,279.995 L183.283,280.000 L186.575,280.000 L186.575,285.187 L183.283,285.187 L183.283,302.781 L186.575,302.781 L186.575,307.969 L183.283,307.969 L183.283,308.241 L177.181,308.241 L177.181,307.969 L173.469,307.969 L173.469,302.781 L177.181,302.781 L177.181,285.187 L173.469,285.187 ZM150.129,279.995 L151.918,279.995 L151.260,308.241 L145.116,308.241 L144.822,295.887 L144.739,295.887 L138.815,299.955 L138.425,299.955 L132.709,295.887 L132.626,295.887 L132.041,308.241 L125.897,308.241 L125.821,279.995 L127.568,279.995 L138.994,292.685 L150.129,279.995 ZM104.949,303.446 L104.949,308.241 L88.509,308.241 L88.509,279.995 L104.949,279.995 L104.949,284.790 L94.612,284.790 L94.612,291.009 L104.576,291.009 L104.576,295.804 L94.612,295.804 L94.612,303.446 L104.949,303.446 ZM48.989,308.241 L48.989,279.995 L57.251,279.995 C63.437,279.995 67.713,282.467 67.713,288.499 C67.713,292.095 65.512,295.691 61.319,296.328 L70.162,308.241 L62.772,308.241 L55.175,296.853 L55.092,296.853 L55.092,308.241 L48.989,308.241 ZM55.881,292.994 C59.244,292.994 61.610,292.095 61.610,288.648 C61.610,285.165 59.161,284.490 55.922,284.490 L55.092,284.490 L55.092,292.994 L55.881,292.994 ZM225.000,185.000 C227.364,189.732 233.680,189.726 236.000,195.000 C246.389,218.615 251.191,244.450 261.000,268.000 C244.002,268.000 226.998,268.000 210.000,268.000 C202.334,246.335 194.666,224.665 187.000,203.000 C161.003,203.000 134.997,203.000 109.000,203.000 C109.000,202.667 109.000,202.333 109.000,202.000 C111.896,198.908 112.947,193.917 113.000,188.000 C112.667,188.000 112.333,188.000 112.000,188.000 C112.000,187.667 112.000,187.333 112.000,187.000 C111.000,187.000 110.000,187.000 109.000,187.000 C109.000,185.667 109.000,184.333 109.000,183.000 C116.532,179.829 133.068,175.659 134.000,166.000 C130.827,164.030 128.633,161.445 126.000,159.000 C126.000,157.667 126.000,156.333 126.000,155.000 C140.665,155.000 155.335,155.000 170.000,155.000 C170.000,154.333 170.000,153.667 170.000,153.000 C165.905,147.541 165.834,139.903 163.000,133.000 C157.556,119.739 152.024,104.510 147.000,91.000 C144.521,84.333 144.124,76.115 140.000,71.000 C140.000,71.667 140.000,72.333 140.000,73.000 C135.316,79.139 135.168,88.254 132.000,96.000 C125.471,111.962 111.657,141.067 111.000,160.000 C114.758,162.268 118.191,164.571 119.000,170.000 C113.652,173.130 94.892,180.831 93.000,186.000 C96.546,187.670 97.575,187.939 98.000,193.000 C92.955,199.713 92.215,209.487 89.000,218.000 C85.700,226.739 81.294,237.259 78.000,246.000 C76.593,249.734 73.016,266.530 71.000,268.000 C54.002,268.000 36.998,268.000 20.000,268.000 C20.000,267.333 20.000,266.667 20.000,266.000 C25.634,258.408 26.473,246.365 30.000,237.000 C35.592,222.153 44.469,205.566 47.000,189.000 C44.521,187.598 43.132,186.952 42.000,184.000 C50.513,179.315 61.006,175.296 68.000,169.000 C68.000,168.333 68.000,167.667 68.000,167.000 C62.810,163.826 59.830,160.876 60.000,152.000 C67.628,141.466 69.166,124.746 74.000,112.000 C82.979,88.324 91.375,62.380 101.000,39.000 C105.333,26.001 109.667,12.999 114.000,-0.000 C131.665,-0.000 149.335,-0.000 167.000,-0.000 C168.004,7.785 172.359,15.561 175.000,22.000 C179.715,33.496 182.621,45.317 187.000,56.000 C196.666,79.583 202.672,104.185 212.000,127.000 C215.635,135.890 216.012,144.362 220.000,153.000 C224.175,162.043 240.971,164.278 243.000,172.000 C236.766,175.462 229.871,179.241 224.000,183.000 C224.631,184.754 224.193,183.971 225.000,185.000 ZM30.144,288.761 C30.144,294.755 26.532,297.677 20.139,297.677 L17.108,297.677 L17.108,308.241 L11.006,308.241 L11.006,279.995 L19.309,279.995 C25.868,279.995 30.144,282.355 30.144,288.761 ZM18.188,284.565 L17.108,284.565 L17.108,293.106 L18.354,293.106 C21.966,293.106 23.917,292.395 23.917,288.723 C23.917,285.090 21.592,284.565 18.188,284.565 Z" class="cls-1"/>
</svg>
