<svg xmlns="http://www.w3.org/2000/svg" xmlns:xlink="http://www.w3.org/1999/xlink" preserveAspectRatio="xMidYMid" width="360" height="422" viewBox="0 0 360 422">
  <defs>
    <style>
      .cls-1 {
        fill: #ca1b52;
        fill-rule: evenodd;
      }
    </style>
  </defs>
  <path d="M349.344,421.114 C349.344,413.870 349.344,406.624 349.344,399.380 C349.189,399.380 349.035,399.380 348.880,399.380 C348.880,399.538 348.880,399.695 348.880,399.853 C344.711,406.939 340.540,414.028 336.371,421.114 C332.819,421.114 329.266,421.114 325.714,421.114 C325.714,408.201 325.714,395.284 325.714,382.371 C329.266,382.371 332.819,382.371 336.371,382.371 C336.371,389.615 336.371,396.861 336.371,404.105 C336.525,404.105 336.680,404.105 336.834,404.105 C336.834,403.948 336.834,403.790 336.834,403.633 C340.510,399.751 343.312,393.077 346.100,388.514 C347.035,386.983 347.800,383.128 349.344,382.371 C352.895,382.371 356.448,382.371 360.000,382.371 C360.000,395.284 360.000,408.201 360.000,421.114 C356.448,421.114 352.895,421.114 349.344,421.114 ZM350.270,368.000 C350.270,372.418 346.785,376.000 342.486,376.000 C338.188,376.000 334.703,372.418 334.703,368.000 C334.703,363.582 338.188,360.000 342.486,360.000 C346.785,360.000 350.270,363.582 350.270,368.000 ZM180.000,360.000 L0.000,360.000 L0.000,0.000 L180.000,0.000 C279.411,0.000 360.000,80.589 360.000,180.000 C360.000,279.411 279.411,360.000 180.000,360.000 ZM167.000,102.000 C125.579,102.000 92.000,135.579 92.000,177.000 C92.000,218.421 125.579,252.000 167.000,252.000 C208.421,252.000 242.000,218.421 242.000,177.000 C242.000,135.579 208.421,102.000 167.000,102.000 ZM19.459,382.371 C20.370,382.930 21.770,382.442 23.166,382.844 C26.706,383.863 31.375,386.279 33.359,388.986 C34.740,390.870 36.263,393.321 37.066,395.601 C38.469,399.585 37.847,404.513 36.602,407.885 C31.205,422.506 19.405,421.418 0.000,421.114 C0.000,408.359 0.000,395.599 0.000,382.844 C4.930,381.162 13.605,382.332 19.459,382.371 ZM11.120,406.467 C13.289,409.745 17.727,409.920 21.776,408.830 C22.774,407.375 23.918,406.985 24.556,405.050 C26.223,402.982 25.135,399.767 24.556,397.490 C22.122,395.838 21.000,394.201 17.143,393.711 C16.676,394.038 15.290,394.319 14.826,394.656 C11.157,395.695 8.179,402.024 11.120,406.467 ZM55.598,383.316 C57.392,382.557 60.007,382.892 61.622,381.899 C75.084,381.955 87.406,395.080 81.081,409.775 C78.509,415.750 72.694,419.971 65.792,421.587 C51.297,424.978 39.117,407.070 44.942,393.711 C46.808,389.430 51.297,385.138 55.598,383.316 ZM65.328,409.775 C66.908,408.322 68.683,408.345 69.498,405.995 C73.004,402.389 69.804,395.711 66.255,394.656 C65.086,393.700 63.378,393.666 61.158,393.711 C60.661,394.066 60.720,393.995 59.768,394.183 C56.841,397.122 55.036,397.743 55.135,404.105 C58.008,407.766 58.466,409.911 65.328,409.775 ZM110.734,401.743 C111.106,401.260 110.898,401.613 111.197,400.798 C113.803,398.541 117.159,391.225 119.073,388.041 C119.919,386.635 120.500,383.106 121.853,382.371 C125.405,382.371 128.958,382.371 132.510,382.371 C132.510,395.284 132.510,408.201 132.510,421.114 C128.958,421.114 125.405,421.114 121.853,421.114 C121.853,414.658 121.853,408.199 121.853,401.743 C121.699,401.743 121.544,401.743 121.390,401.743 C121.390,402.058 121.390,402.373 121.390,402.688 C114.781,410.069 120.631,411.562 105.174,411.192 C104.349,407.790 101.997,405.201 100.541,402.215 C100.386,402.215 100.232,402.215 100.077,402.215 C100.077,408.514 100.077,414.815 100.077,421.114 C96.525,421.114 92.973,421.114 89.421,421.114 C89.421,408.201 89.421,395.284 89.421,382.371 C92.973,382.371 96.525,382.371 100.077,382.371 C103.629,388.828 107.182,395.286 110.734,401.743 ZM150.579,390.876 C151.294,389.192 152.662,383.006 153.822,382.371 C157.683,382.371 161.545,382.371 165.405,382.371 C166.304,386.170 168.625,389.906 170.039,393.238 C172.906,400.000 174.579,406.322 177.452,413.082 C178.514,415.582 180.154,417.918 180.695,421.114 C166.488,421.114 152.277,421.114 138.069,421.114 C138.069,420.799 138.069,420.484 138.069,420.169 C140.548,417.296 141.132,412.600 142.703,408.830 C145.117,403.033 148.137,396.627 150.579,390.876 ZM165.405,411.192 C165.405,411.035 165.405,410.877 165.405,410.720 C162.375,407.135 162.533,400.483 159.382,397.018 C157.579,401.737 155.053,406.164 153.822,411.192 C157.683,411.192 161.545,411.192 165.405,411.192 ZM196.911,382.371 C196.911,391.820 196.911,401.271 196.911,410.720 C199.228,410.720 201.545,410.720 203.861,410.720 C203.861,404.578 203.861,398.435 203.861,392.293 C207.258,392.293 210.657,392.293 214.054,392.293 C215.582,396.945 214.556,405.149 214.517,410.720 C216.679,410.720 218.842,410.720 221.004,410.720 C221.004,401.271 221.004,391.820 221.004,382.371 C224.556,382.371 228.108,382.371 231.660,382.371 C231.660,395.284 231.660,408.201 231.660,421.114 C216.527,421.114 201.388,421.114 186.255,421.114 C186.255,408.359 186.255,395.599 186.255,382.844 C188.868,381.940 193.526,382.334 196.911,382.371 ZM251.583,392.766 C255.289,392.766 258.997,392.766 262.703,392.766 C262.703,389.301 262.703,385.836 262.703,382.371 C266.254,382.371 269.807,382.371 273.359,382.371 C273.359,395.284 273.359,408.201 273.359,421.114 C269.807,421.114 266.254,421.114 262.703,421.114 C262.703,414.658 262.703,408.199 262.703,401.743 C258.997,401.743 255.289,401.743 251.583,401.743 C251.583,408.199 251.583,414.658 251.583,421.114 C248.031,421.114 244.478,421.114 240.927,421.114 C240.927,408.201 240.927,395.284 240.927,382.371 C244.324,382.371 247.722,382.371 251.120,382.371 C251.966,384.913 251.619,389.445 251.583,392.766 ZM293.282,404.105 C293.436,404.105 293.591,404.105 293.745,404.105 C293.745,403.948 293.745,403.790 293.745,403.633 C297.915,396.546 302.085,389.458 306.255,382.371 C309.807,382.371 313.359,382.371 316.911,382.371 C316.911,395.284 316.911,408.201 316.911,421.114 C313.359,421.114 309.807,421.114 306.255,421.114 C306.255,413.870 306.255,406.624 306.255,399.380 C306.100,399.380 305.946,399.380 305.792,399.380 C305.792,399.538 305.792,399.695 305.792,399.853 C302.344,403.488 299.576,409.737 296.988,414.027 C295.910,415.815 295.031,420.186 293.282,421.114 C289.730,421.114 286.177,421.114 282.625,421.114 C282.625,408.201 282.625,395.284 282.625,382.371 C286.177,382.371 289.730,382.371 293.282,382.371 C293.282,389.615 293.282,396.861 293.282,404.105 Z" class="cls-1"/>
</svg>
