<svg xmlns="http://www.w3.org/2000/svg" xmlns:xlink="http://www.w3.org/1999/xlink" preserveAspectRatio="xMidYMid" width="654" height="265" viewBox="0 0 654 265">
  <defs>
    <style>
      .cls-1 {
        fill: #ab1a1a;
        fill-rule: evenodd;
      }
    </style>
  </defs>
  <path d="M301.728,48.498 C301.728,64.993 301.728,81.492 301.728,97.987 C301.728,102.024 302.702,113.985 301.085,116.304 C299.392,121.076 293.583,119.600 288.223,120.803 C283.253,121.918 277.760,121.543 272.467,122.731 C266.816,123.999 259.348,125.024 254.138,123.695 C253.398,122.574 252.003,121.529 251.566,120.160 C251.566,113.948 251.566,107.734 251.566,101.522 C251.566,85.884 251.566,70.242 251.566,54.604 C245.225,55.357 234.645,58.660 231.308,53.640 C229.824,51.408 230.343,46.632 230.343,43.035 C230.343,34.612 228.483,13.754 233.237,10.579 C236.946,8.102 246.089,9.167 251.244,8.008 C266.315,4.619 283.124,5.254 298.191,1.902 C300.013,1.795 301.835,1.688 303.657,1.581 C307.397,0.749 317.240,-1.201 320.378,0.938 C322.862,2.632 322.629,6.342 322.629,10.579 C322.629,17.969 322.629,25.362 322.629,32.752 C322.629,35.284 323.435,40.588 322.307,42.393 C320.831,47.695 308.170,48.090 301.728,48.498 ZM217.159,11.864 C221.606,11.824 222.184,13.828 224.233,16.042 C224.874,25.271 224.555,35.846 224.555,45.606 C224.555,62.101 224.555,78.600 224.555,95.095 C224.555,102.271 224.555,109.449 224.555,116.625 C224.555,119.791 225.051,124.058 223.912,126.266 C221.913,130.143 217.272,129.023 212.336,130.122 C205.535,131.637 198.271,131.108 191.113,132.693 C187.046,133.594 182.009,134.249 177.930,133.336 C177.246,132.321 175.887,131.511 175.357,130.443 C174.186,128.080 175.012,122.568 175.036,119.517 C174.929,119.517 174.821,119.517 174.714,119.517 C174.714,119.732 174.714,119.946 174.714,120.160 C171.510,123.728 169.916,134.023 165.389,135.585 C162.902,137.432 157.957,136.401 154.456,137.192 C146.219,139.053 136.655,138.870 128.410,140.727 C126.578,141.139 119.825,141.888 118.442,141.048 C115.311,140.271 114.139,137.758 114.262,133.657 C116.029,131.454 116.920,128.713 118.442,126.266 C122.434,119.851 126.226,113.195 130.340,106.663 C132.287,103.572 137.765,96.753 138.379,93.167 C122.477,89.058 118.203,62.485 125.516,45.606 C131.930,30.805 145.471,23.578 162.174,18.934 C170.855,17.756 179.538,16.577 188.219,15.399 C195.250,13.805 202.697,14.365 209.442,12.828 C211.933,12.261 215.256,13.080 217.159,11.864 ZM61.206,76.778 C57.562,77.206 53.917,77.635 50.273,78.063 C50.273,94.986 50.273,111.914 50.273,128.837 C50.273,133.827 51.331,145.469 49.308,148.439 C46.374,152.748 30.148,151.793 23.584,153.260 C19.457,154.182 14.927,153.867 10.400,154.866 C9.099,155.153 6.737,156.008 4.934,155.509 C2.675,154.884 1.875,153.065 0.432,151.653 C-0.226,142.320 0.111,131.632 0.111,121.767 C0.111,104.844 0.111,87.916 0.111,70.993 C0.111,64.031 0.111,57.067 0.111,50.105 C0.111,47.455 -0.385,43.387 0.754,41.750 C2.828,35.657 18.689,37.274 25.835,35.644 C41.030,32.179 57.934,33.028 73.103,29.539 C77.542,28.518 82.174,28.877 86.287,27.932 C88.002,27.825 89.717,27.718 91.432,27.611 C95.293,26.741 105.540,24.821 108.474,26.646 C113.100,29.524 111.368,46.507 111.368,54.283 C111.368,73.241 111.368,92.204 111.368,111.162 C111.368,120.657 112.438,132.846 110.403,140.727 C109.500,141.316 108.760,142.511 107.831,142.976 C97.221,144.369 86.607,145.761 75.997,147.154 C73.509,147.714 66.541,148.483 65.064,147.475 C59.686,145.726 61.206,136.751 61.206,129.801 C61.206,112.128 61.206,94.450 61.206,76.778 ZM646.433,82.883 C649.821,82.776 652.388,83.993 653.186,86.418 C653.885,87.322 654.232,90.387 653.829,92.202 C652.855,96.597 653.605,101.583 652.543,106.342 C649.584,119.603 651.282,135.183 648.363,148.439 C647.396,152.829 648.372,164.359 646.433,167.078 C645.039,171.304 641.504,170.212 636.787,171.255 C632.769,172.144 628.295,171.885 623.925,172.862 C618.174,174.148 610.610,175.197 605.275,173.826 C604.640,172.843 603.456,172.073 603.024,170.934 C601.119,165.921 602.650,158.550 601.416,152.938 C598.347,138.976 599.968,122.232 596.914,108.270 C596.914,107.092 596.914,105.913 596.914,104.735 C595.931,100.257 594.762,91.981 598.200,89.632 C601.081,87.664 605.749,88.618 609.776,87.704 C618.011,85.834 627.579,86.031 635.822,84.169 C639.055,83.438 643.886,84.499 646.433,82.883 ZM522.957,202.427 C522.438,206.685 521.131,213.933 518.134,215.923 C515.033,217.983 509.422,216.926 505.271,217.851 C499.451,219.149 493.084,218.732 486.943,220.101 C482.125,221.175 475.678,222.155 470.865,221.065 C470.132,219.974 469.098,219.530 468.614,218.173 C466.864,216.008 469.648,208.442 470.544,206.283 C474.766,196.105 477.920,184.823 481.798,174.469 C488.467,156.660 493.554,138.409 500.127,120.803 C502.007,115.765 504.380,103.087 508.165,100.558 C511.241,98.502 516.534,99.597 520.706,98.630 C526.484,97.289 532.873,97.800 539.035,96.380 C544.659,95.084 552.130,94.072 557.363,95.416 C561.686,102.414 563.623,111.325 567.010,119.517 C572.533,132.876 576.915,147.295 582.444,160.651 C584.201,164.894 584.874,168.928 586.624,173.183 C588.832,178.551 590.431,184.271 592.734,189.894 C594.583,194.407 597.243,198.840 595.950,204.676 C594.841,205.404 594.031,206.756 592.734,207.247 C589.733,207.568 586.731,207.890 583.730,208.211 C576.317,209.882 567.657,209.760 560.257,211.424 C557.314,212.086 548.916,213.028 546.752,211.746 C543.693,209.933 542.772,204.116 541.928,200.177 C541.714,200.177 541.500,200.177 541.285,200.177 C539.956,201.002 537.950,200.412 536.141,200.820 C532.152,201.718 527.437,202.374 522.957,202.427 ZM465.077,177.361 C469.916,177.086 470.618,178.542 473.116,181.217 C473.663,187.152 470.459,192.692 468.614,197.606 C464.634,208.209 461.556,219.050 457.681,229.420 C456.057,233.768 454.604,242.927 451.250,245.166 C448.796,246.805 445.002,245.990 441.604,246.773 C434.908,248.316 423.782,250.020 417.487,248.380 C416.984,247.613 415.949,246.906 415.558,246.131 C413.989,243.025 414.895,233.590 414.915,229.099 C401.304,230.813 387.689,232.527 374.077,234.240 C371.456,234.845 359.787,236.205 358.000,235.526 C356.143,234.821 355.408,232.971 354.141,231.670 C353.049,205.361 353.820,177.544 353.820,150.689 C353.820,143.941 353.820,137.191 353.820,130.443 C353.820,126.639 353.549,122.729 355.106,120.482 C357.161,117.515 361.829,118.539 366.039,117.589 C371.007,116.468 376.503,116.854 381.795,115.661 C387.622,114.348 395.228,113.403 400.766,114.054 C401.772,115.353 403.461,116.109 403.982,117.911 C403.982,124.123 403.982,130.337 403.982,136.549 C403.982,152.615 403.982,168.686 403.982,184.752 C407.764,184.784 411.531,184.168 414.915,183.467 C414.915,160.867 414.915,138.261 414.915,115.661 C416.147,114.043 416.307,112.221 418.452,111.484 C420.862,109.659 425.616,110.648 429.063,109.877 C437.305,108.034 446.861,108.188 455.109,106.342 C459.083,105.452 463.051,106.305 464.113,109.234 C466.004,111.355 465.077,123.007 465.077,127.230 C465.077,143.939 465.077,160.652 465.077,177.361 ZM339.993,120.482 C342.555,120.430 343.724,120.969 345.459,121.446 C346.209,122.410 346.960,123.374 347.710,124.338 C348.387,126.065 348.031,128.881 348.032,131.086 C348.032,136.763 348.032,142.441 348.032,148.118 C348.032,168.575 348.032,189.039 348.032,209.496 C348.032,216.017 349.400,233.765 346.102,236.490 C343.838,238.361 341.001,237.627 337.420,238.418 C330.006,240.056 321.383,239.965 313.947,241.632 C311.469,242.187 304.475,242.963 303.014,241.953 C298.865,240.627 299.155,236.531 299.155,231.027 C299.155,223.315 299.155,215.601 299.155,207.890 C299.048,207.890 298.941,207.890 298.834,207.890 C298.834,207.997 298.834,208.104 298.834,208.211 C296.759,210.494 295.981,213.856 294.332,216.566 C290.598,222.703 287.136,229.395 283.399,235.526 C281.482,238.672 280.261,244.136 276.968,245.809 C275.493,246.559 274.028,246.024 272.145,246.452 C266.359,247.767 259.940,247.322 253.816,248.701 C249.688,249.631 244.531,249.945 240.311,250.629 C238.252,250.964 235.603,251.283 234.202,250.308 C228.305,248.279 230.343,231.457 230.343,223.314 C230.343,202.214 230.343,181.108 230.343,160.008 C230.343,154.827 229.217,141.347 230.665,137.513 C231.346,135.708 232.974,134.908 234.202,133.657 C245.026,132.265 255.854,130.872 266.679,129.479 C271.583,128.378 277.152,128.459 278.576,132.372 C279.818,134.015 279.219,138.648 279.219,141.369 C279.219,148.974 279.219,156.581 279.219,164.186 C279.326,164.186 279.434,164.186 279.541,164.186 C279.541,163.971 279.541,163.757 279.541,163.543 C282.078,160.945 283.068,156.766 285.007,153.581 C288.611,147.660 292.013,141.180 295.618,135.264 C297.372,132.387 298.342,127.782 301.085,125.945 C303.582,124.272 307.612,125.131 311.053,124.338 C317.632,122.821 325.395,122.946 331.954,121.446 C334.600,120.840 337.971,121.748 339.993,120.482 ZM163.460,177.361 C167.104,176.933 170.749,176.504 174.393,176.076 C174.363,165.475 173.555,153.649 174.714,143.619 C175.745,142.830 176.418,141.327 177.608,140.727 C188.111,139.334 198.617,137.942 209.120,136.549 C211.686,135.976 219.079,135.119 220.696,136.228 C226.587,138.153 224.555,155.157 224.555,163.221 C224.555,184.322 224.555,205.428 224.555,226.528 C224.555,231.709 225.681,245.189 224.233,249.023 C223.552,250.828 221.924,251.628 220.696,252.879 C209.872,254.271 199.044,255.664 188.219,257.057 C183.890,258.031 177.350,258.375 175.357,255.450 C173.895,253.303 174.393,248.701 174.393,245.166 C174.393,237.241 174.393,229.312 174.393,221.386 C174.285,221.386 174.178,221.386 174.071,221.386 C171.434,222.978 166.369,221.330 163.781,222.993 C162.725,224.687 163.460,229.596 163.460,231.991 C163.460,239.917 163.460,247.845 163.460,255.771 C162.228,257.389 162.067,259.212 159.923,259.949 C157.448,261.779 152.451,260.771 148.990,261.555 C144.895,262.483 140.279,262.149 135.806,263.162 C129.874,264.506 122.264,265.451 116.513,264.769 C115.663,263.669 114.202,262.920 113.619,261.555 C112.772,259.574 113.297,255.750 113.297,253.200 C113.297,246.881 113.297,240.560 113.297,234.240 C113.297,215.925 113.297,197.604 113.297,179.289 C113.297,169.984 112.276,158.068 114.262,150.367 C115.168,149.781 115.905,148.583 116.835,148.118 C120.103,146.482 126.362,147.414 130.340,146.511 C134.456,145.577 139.079,145.913 143.523,144.904 C148.736,143.722 155.243,143.030 160.244,143.619 C161.307,144.990 162.920,145.860 163.460,147.797 C163.460,157.650 163.460,167.507 163.460,177.361 ZM641.289,176.718 C643.851,176.666 645.020,177.206 646.755,177.682 C647.578,178.917 648.881,179.920 649.327,181.539 C649.327,189.786 649.327,198.036 649.327,206.283 C649.327,210.648 649.463,215.728 648.684,219.137 C647.464,219.936 646.594,221.528 645.147,222.029 C636.680,222.993 628.211,223.957 619.744,224.921 C614.853,226.028 608.296,226.969 603.345,225.885 C602.488,224.921 601.630,223.957 600.773,222.993 C600.290,216.395 600.451,208.579 600.451,201.462 C600.451,195.453 600.231,188.361 601.416,183.788 C602.564,183.059 603.573,181.678 604.953,181.217 C607.418,181.003 609.884,180.789 612.349,180.575 C618.141,179.255 624.923,179.295 630.677,178.004 C633.990,177.261 638.723,178.372 641.289,176.718 Z" class="cls-1"/>
</svg>
