<svg id="Layer_1" xmlns="http://www.w3.org/2000/svg" viewBox="0 0 663 141"><path d="M306.2 120.2l-3.2 3.1c-2.2-2.4-4.6-3.5-7.4-3.5-2.3 0-4.2.8-5.8 2.4-1.6 1.6-2.4 3.6-2.4 5.9 0 1.6.3 3.1 1 4.4.7 1.3 1.7 2.3 3 3s2.7 1.1 4.3 1.1c1.3 0 2.5-.3 3.6-.8s2.3-1.4 3.6-2.8l3.1 3.3c-1.8 1.8-3.5 3-5 3.7-1.6.7-3.4 1-5.4 1-3.7 0-6.8-1.2-9.2-3.6-2.4-2.4-3.6-5.5-3.6-9.3 0-2.4.5-4.6 1.6-6.5s2.6-3.4 4.7-4.6c2-1.2 4.2-1.7 6.5-1.7 2 0 3.9.4 5.7 1.3 2 .8 3.6 2 4.9 3.6zM329.5 115.4h5v10.3h11.6v-10.3h4.7V141h-4.7v-10.6h-11.6V141h-5zM387.3 121.3l-4.2 9.1h8.1l-3.9-9.1zm-2.1-6h4.3l11.2 25.7h-5.2l-2.6-6.3h-11.4l-2.7 6.3h-4.9l11.3-25.7zM423.5 115.4h5.1l12.9 17v-17h4.7V141h-4.7l-13-17.9V141h-5zM471.3 115.4h5.1l12.9 17v-17h4.6V141h-4.6l-13-17.9V141h-5zM518.9 115.3h19.3v4.2h-14.3v6.2h12.7v4.7h-12.7v6h14.3v4.6h-19.3zM562.2 115.4h5v20.9h13.1v4.7h-18.1zM634 127.3v-6.9h-2.6v-.9h6.4v.9h-2.7v6.9zM638.5 127.3v-7.8h1.6l1.9 5.5.4 1.2c.1-.3.2-.7.4-1.3l1.9-5.4h1.4v7.8h-1v-6.6l-2.3 6.6h-1l-2.3-6.7v6.7h-1zM55.1 16.2V0h33.6c27.4 0 52 14.9 52 48.3 0 32.2-30.4 46.1-47.7 46.1H61.9c7.7-4.8 12.1-10 14-15.3h17.2c15.4 0 30.2-11.7 30.2-30.9 0-20.3-12.7-33.2-30.2-33.2h-21v14c-3.5-5.2-11.6-11.4-17-12.8zM166.8 94.5h-16.7v-71h16.7zM232.8 30.7L226.4 42c-6.9-5.8-29.8-11.3-29.8.7 0 13.3 38 5.8 38 32 0 23.1-33 28.2-56.9 10.9l7.5-10.9c6.8 6.8 34.3 15.6 34.3 1 0-14.1-38.3-6.2-38.3-32-.1-22.2 30.3-27.6 51.6-13zM297.1 45.3c-11.2-14.6-38.8-12-38.8 14.3 0 25.7 29.9 27.8 39.3 13.7 2.1 2.1 7.8 7.6 9.9 9.7-22.2 26.3-65.6 11.3-65.6-23.5 0-36.1 43.5-49.1 65.2-25.3l-10 11.1zM350.2 82.1c-12.6 0-22-9.4-22-22.8 0-14.4 10.1-22.8 22-22.8s21.5 10.7 21.5 22.8c-.1 13.4-9.7 22.8-21.5 22.8zm-.6-59.8c-21 0-38.1 16.6-38.1 37s17 37 38.1 37c21 0 38.1-16.6 38.1-37 0-20.5-17-37-38.1-37zM388.3 23.5h17.6L425 75.9l19.4-52.4h17.1l-29.1 72h-14.8zM479.3 52.7c3.9-22.9 33.9-22.9 36.6 0h-36.6zM463 59.2c0 38.3 48.2 48.2 65.8 23.9l-9.7-8.5c-7.4 10.8-35.2 15.3-39.9-9.7h52.6c4.1-57.4-68.8-53.7-68.8-5.7zM544.1 23.5h16.6v12.1s7.9-10 21.7-11.3l5.5 13.6c-7.1 0-27.3 7.5-27.3 27.7v29h-16.5V23.5zM593.4 23.5h17.4l16.9 52.2L646 23.5h16.8s-29.2 74.7-34.8 88.6c-4.3 10.9-10.5 15.6-24.4 15.6h-10.2V114h12.3c7.4 0 13.9-19.7 13.9-19.7l-26.2-70.8z"/><path d="M-.1 57.3c0 20.5 16.6 37 37.1 37s37.1-16.6 37.1-37-16.6-37-37.1-37c-20.6 0-37.1 16.5-37.1 37z"/></svg>