<svg id="Layer_1" xmlns="http://www.w3.org/2000/svg" viewBox="0 0 577 234"><path d="M459.1 233.4c-47.6 0-88.6-27.9-107.2-68.1v2.5c0 17.8-9.5 36.6-24.5 47.1-16.1 11.5-32.3 18.3-51.2 18.3h-95.7V3.4h102.1c15.9 0 29.1 5.7 42.2 15.1 14 9.9 23.8 28.3 23.8 45.2 0 5.4-.3 10.2-.9 14.7C363.8 32.7 407.6 0 459.1 0 524.2 0 577 52.2 577 116.7c0 64.4-52.8 116.7-117.9 116.7zm-169-162.7c0-15.4-12.8-17.5-25-17.5h-25v39.7l25.6-.1c16.9 0 25.3-8.2 24.4-22.1zm-24.7 67.9h-25.3v42.2h27.8c6.4 0 13.4.3 18.6-3.9 4.6-3.3 8.1-10.9 8.1-16.6-.7-17.8-13.8-21.7-29.2-21.7zm56.4-23.2c9.6 5.5 16.3 11.1 20.8 17.1-.7-5.2-1.1-10.4-1.1-15.8 0-7.8.8-15.4 2.2-22.8-4 9.1-11 15.9-21.9 21.5zM458.6 56c-33.9 0-61.3 27.2-61.3 60.7s27.4 60.7 61.3 60.7 61.3-27.2 61.3-60.7S492.4 56 458.6 56zm0 105.2c-24.8 0-45-19.9-45-44.5s20.1-44.5 45-44.5c24.8 0 45 19.9 45 44.5-.1 24.6-20.2 44.5-45 44.5zm-351.3-17.6H59.1v90H0V3h59.4v84.8h48.2V3h59.9v230.6h-60.2v-90zm445.8 76.8c4 0 7.1 2.8 7.1 6.8s-3.2 6.8-7.1 6.8-7.1-2.8-7.1-6.8c-.1-4 3.1-6.8 7.1-6.8zm0 11.7c2.8 0 5-2.1 5-4.9 0-2.8-2.1-4.9-5-4.9s-5 2.1-5 4.9c0 2.8 2.1 4.9 5 4.9zm3-6.3c0 1.4-.8 1.9-1.8 1.9l1.9 3.2H554l-1.7-3.1h-.3v3.1h-1.9v-7.3h2.8c2-.1 3.2.4 3.2 2.2zm-4.1-1v1.7h1.1c.6 0 1-.2 1-.9s-.6-.8-1.2-.8h-.9z"/></svg>