<svg id="Layer_1" xmlns="http://www.w3.org/2000/svg" viewBox="0 0 559 215"><path d="M178 23.6C196.2 9.2 219 .3 242.3.1c24.1-1 48.2 6.9 67.6 21.3 14.2 10.5 25.4 24.8 32.9 40.7 1.5 3.2 3 6.4 4.8 9.5-5.5 7.3-.9 18.4-8.1 24.7-4.3-6.6-2.7-15.1-6.7-21.8-2.2-3.6-6.9-3.2-10.5-3-2.6.1-5.5 1.8-5.8 4.6-.5 5.4 1.1 10.7 2.9 15.7 2.3 5.6 5.1 11.3 10.1 14.9 1.2 1.2 3.5 2 3.1 4-2.1 2.7-5.4 4.3-7 7.4-.5 4 3.2 7.3 6.9 8 3.6.9 7.1-1.2 9.6-3.6 4.4-4.3 7.8-9.6 11-14.8-.1 15.6-3.5 31.4-10.2 45.5-8.5 17.7-21.7 33.1-38.1 44-14.9 9.6-32 15.9-49.7 17.4-9.5.4-19 .5-28.4-1.2-20.3-3.6-39.4-13.3-54.6-27.1-10.8-10.6-20.2-23.1-25.7-37.3-2-7.4-4.8-14.7-5.8-22.3-1.1-8.5-2.7-17.2-1.6-25.8.8-6.1 1.2-12.2 1.9-18.2.9-4.6 2.4-9.1 4.1-13.5 6.6-17.8 18-33.9 33-45.6zm-20.2 53.7c-4.1.6-7.7 3.9-8.1 8.1-1.5 13.4-.9 26.9 0 40.3.3 2.9.5 6.1 2.5 8.4 3 2.7 7.4 2.5 11.2 2.5 3.4-.1 7.9-.8 9-4.6 1.8-6 .1-12.6 1.4-18.7 1.8-.4 4.4-1.5 5.5.7 4 5.6 2.2 13.3 6.1 18.9 2.9 3.4 7.8 3.8 11.9 3.9 4.3 0 9 .2 12.8-2.2 3.4-2.3 4-7.3 2.2-10.7-3.6-6.1-11.7-7.5-15.4-13.6-1.4-2-1.4-4.8.1-6.8 3.8-5.4 10.3-8.8 12.7-15.2 1-3.1 1-7.8-2.7-9-5.4-1.2-11.4-1.5-16.6.6-6.6 3.6-5.7 12.4-10.5 17.5-1.3 1.7-3.6 1.1-5.5 1.4-1.2-3.2-1.3-6.6-1.2-10-.1-2.7.4-6-1.8-8.1-3.2-3.9-8.9-4-13.6-3.4zm57.2 5.3c-3.3 3.5.5 10.1 5.1 9 4.7-1 9.1-3.2 14-2.5 0 .7-.1 2.1-.1 2.7-7.3 2.1-16.5.2-21.8 6.9-2.8 5.4-1.9 13.2 3.5 16.8 5.8 3.9 13.6 2.5 19.2-1.2 3.7 4.1 10.1 4.5 14.6 1.7 2.2-4.4 1.4-9.4 1.6-14.1-.2-6 0-12.7-4.1-17.6-4.1-4.7-10.8-5.4-16.6-5.3-5.3.1-11.4-.3-15.4 3.6zm75.4 6.6c-3.5 1-5.8 4.2-9.1 5.5-3-.8-3.8-5.1-7.1-5.6-4.3-.9-9-1-13.2.6-3.6 1.5-5.4 5.6-5.8 9.3-.7 7-.5 14-1 21 .6 12-.1 24 1 36 .4 2.9.5 6.2 2.9 8.3 2.2 2.7 6 2.7 9.2 3 4.5.1 10.1-.4 12.4-4.9 1.3-6.1-.8-12.7 1.7-18.6 3.6 2 6.7 5.1 10.8 6.2 7.5 2 15.9-.2 21.3-5.8 6.3-5.5 8.6-14.1 9.2-22.2.5-9.3-1.7-19.2-7.9-26.4-6-6.7-16-8.9-24.4-6.4zm-64.7 13.1c3.1-2.2 6.7-3.1 10.5-3.1-.4 2.8-.9 6.5-4 7.6-2 1-4.2.1-6.2-.4-.2-1.3-.2-2.7-.3-4.1zm60.1 5.4c4.3-1.4 8.8 1.3 10.6 5.3 2.3 5.8 1.9 13.6-3.4 17.6-3.5 2.2-8.9 1.8-11.5-1.7-3.3-4-3.2-9.8-1.8-14.6 1-2.9 2.9-5.9 6.1-6.6z"/><path d="M475.7 33.1c17.3-2.1 35.2 2.2 49.6 11.8 16.9 11.1 29 29.3 32.5 49.3 2.9 15.3.6 31.3-5.9 45.4-6.3 12.9-16 24.2-28.3 31.6-15.2 9.5-33.9 13.2-51.5 10.3-16.8-2.7-32.8-11.3-44-24.2-1.2-1.3-2.5-2.6-4-3.7 8.4-7.9 15.3-17.7 18.5-28.9.4-1.4-.4-2.8-.6-4.2 3.6-1.4 7.8-3 9.5-6.8 2-4.6-3-10.4-7.8-7.9.4-.9.8-1.8 1.2-2.8 2.6-.1 6.2.7 7.6-2 2.2-3.5 1-7.9-.9-11.2-2.9-5.1-8.5-8.1-14-9.5-1.8-7.5-7.5-12.9-12.7-18.2.7-1.2 1.4-2.3 2.2-3.4C439.3 44.5 457 35 475.7 33.1zm34.1 47.1c-3.2.3-5.5 3.2-5.7 6.3-1 9.4-.8 19-.4 28.4.2 5.3.8 11.1 4.1 15.5 4.6 3.7 10.9 3.9 16.6 4 6.4.3 13.2-1.2 18.2-5.4 6.4-5.8 7.3-15.3 6-23.4-1.3-7.7-8.1-14.6-16.1-14.7-4.3-.5-7.8 2.4-11.2 4.6-.6-3.8-.2-7.8-.7-11.6-1.6-4.2-7.1-4.2-10.8-3.7zm-47 17.3c-4.6 5.9-7.3 13-10.3 19.8-1.9 5.1-4.1 10.2-4.1 15.7-.2 3.6 3.7 5.6 6.8 5.8 4 .4 9.1.4 11.5-3.3 2.9-8.3 2.4-18 7.4-25.5 5.3 7.6 5.1 17.3 8.8 25.5 2.3 4.5 8.2 3.5 12.3 3.2 3.5 0 6.5-3.1 5.9-6.6-.6-10-5-19.4-10-28-3.1-4.6-6.6-10.1-12.5-11.2-5.5-1.1-12.1-.1-15.8 4.6zM144.5 146c-7.4-20.1-9.5-42.5-3.7-63.4-.7 6.1-1.1 12.2-1.9 18.2-1.1 8.6.5 17.3 1.6 25.8 1 7.7 3.9 14.9 5.8 22.3-.7-.8-1.3-1.8-1.8-2.9zm379.2-41.8c3.9-2 8.3 2 8.3 6 .8 4.3-1.4 10.2-6.6 9.7-7-1.3-7.9-12.6-1.7-15.7z"/><path d="M342.7 62.1c21.9-21.2 60.2-21.1 82.1 0 5.1 5.3 10.8 10.7 12.7 18.2-6.7-.4-14.1-.2-19.5 4.4-9.7 7.3-10.5 23.7-1.2 31.7 6.8 5.8 16.6 6.2 25 4.1.2 1.4 1 2.8.6 4.2-3.1 11.2-10.1 21-18.5 28.9-10.6 9.9-25.3 15.2-39.7 15.3-15.2.3-30.2-5.6-41.6-15.5 6.7-14.2 10.1-29.9 10.2-45.5 4.7-9.9 9.4-20.6 8.6-31.8-1.4-6.3-9.3-4.8-14-4.4-1.6-3.2-3.2-6.4-4.7-9.6zm35 27.4c-7.5 1.3-14.6 5.7-18.6 12.3-4.3 7.1-5 16.1-2.6 24 2.9 9.4 11.8 16.3 21.4 17.5 7.9.9 16.3.3 23.6-3.1 3.5-1.8 6.8-5.1 7.2-9.2-.2-3.7-2.1-8.6-6.4-8.7-6.9-1.3-11.8 6.6-18.8 4.6-5.8-1.9-7-9.4-5.7-14.6.7-4 4.4-7.2 8.5-6.8 4.9-.3 8.4 3.9 13 4.8 4.3.5 8.5-3.2 8.7-7.5.8-3.9-1.7-7.6-5-9.5-7.6-4.5-16.8-4.7-25.3-3.8zm-357-7.9c7.9-1.3 16.4 1.2 22.1 6.9 8.9 8.2 9.9 23.1 2.8 32.8-4.2 5.9-11.1 9.9-18.4 10.3-8.3.8-16.9-2.9-21.9-9.5-5.6-7-6.9-17.1-3.3-25.4 3.1-7.9 10.5-13.6 18.7-15.1zm406.6 13.7c1.6-1.7 3.3-3.9 6-3.8 2.7-.4 5.5 1.5 5.6 4.4-3.9.2-7.9.8-11.6-.6zm-.4 8.1c5.9-.6 11.9-.8 17.8-.3-.4.9-.8 1.8-1.2 2.8-3.9 1.7-8.3 4.7-12.6 2.7-2.3-.9-3-3.3-4-5.2zM82.8 66.4c6.8-5.3 15-8.6 23.5-9.9 8.4-.5 17.1-1 25.1 2.1 4.8 1.9 9.4 4.2 13.4 7.5 0 .8.1 2.3.1 3.1-1.6 4.4-3.1 8.9-4.1 13.5-5.7 20.7-3.7 43.2 3.7 63.4.2.8.5 2.3.6 3.1-12.2 8.8-28.5 12.7-43.2 8.8-11.6-2.7-21.9-10.1-29.1-19.4-12.7-16.2-13.7-40.3-2.9-57.7 3.4-5.8 8.2-10.2 12.9-14.5z"/></svg>