<svg id="Layer_1" xmlns="http://www.w3.org/2000/svg" viewBox="0 0 200 26"><path d="M97 .1c-1.8.1-3.5.3-5.2.9v5.3c1.4-.6 2.9-.9 4.4-1.1 1.2-.1 2.4-.2 3.6.1.7.2 1.4.4 1.9 1s.7 1.5.5 2.2c-.1.7-.6 1.2-1.1 1.6-.8.5-1.7.7-2.6.7h-3.1v4.3h3.1c.9 0 1.9.1 2.7.5.6.3 1.1.9 1.3 1.5.2.7.1 1.5-.2 2.2-.4.7-1.1 1.2-1.8 1.5-1.3.5-2.8.5-4.1.4-1.9-.2-3.8-.8-5.5-1.7v5.6c2.1.6 4.4.9 6.6 1 2.2.1 4.4-.1 6.5-.7 1.5-.5 3-1.2 4.1-2.5 1-1.1 1.5-2.6 1.6-4 .1-1.5-.3-3.2-1.3-4.3-1-1.1-2.4-1.7-3.8-2 .2-.1.5-.2.7-.3 1-.3 1.9-.9 2.6-1.6.9-1 1.4-2.3 1.4-3.6 0-1.4-.4-2.9-1.3-4-1-1.2-2.4-1.9-3.8-2.3-2.4-.8-4.8-.9-7.2-.7zM7.1.4C6.3 3.2 5.5 6 4.8 8.8c5.8-2 11.5-4.1 17.3-6.1.2-.7.4-1.5.7-2.2C17.5.4 12.3.4 7.1.4zM32.8.4v25.1h6.9V7l.1.1c2.2 2.4 4.5 4.8 6.7 7.2 2.2-2.4 4.4-4.8 6.6-7.1l.2-.2v18.5h6.9V.4h-7.9c-1.9 2.1-3.9 4.2-5.8 6.3-1.9-2.1-3.9-4.2-5.8-6.3h-7.9zM63 .4c3.2 6 6.4 12.1 9.6 18.1-1.4 2.3-2.8 4.7-4.3 7h7.5C80.2 17.1 84.5 8.7 88.9.4h-7.7c-1.7 3.9-3.4 7.9-5.1 11.8-.5-.9-.9-1.9-1.3-2.9-1.3-3-2.7-6-4-9-2.7.1-5.2.1-7.8.1zM135.5.4v25.1h7V.4h-7zM147.2.4v25.1h7v-13c.2.2.4.5.6.8 2.8 4.1 5.6 8.2 8.3 12.3h8.8c-3.3-4.5-6.7-9-10-13.5L171.2.4h-8.3c-2 2.8-4 5.5-6.1 8.3-.9 1.2-1.7 2.4-2.6 3.5V.4h-7zM10.3 7.8c-1.7 5.9-3.4 11.9-5 17.8h10.3c2.1-7.3 4.2-14.6 6.2-22-3.9 1.4-7.7 2.8-11.5 4.2zM4.6 9.8C3 15 1.5 20.3 0 25.6h4.3c1.7-5.8 3.3-11.7 5-17.5-1.6.5-3.2 1.1-4.7 1.7z"/><path d="M97 .1c2.4-.1 4.8-.1 7.1.6 1.4.4 2.9 1.2 3.8 2.3.9 1.1 1.3 2.6 1.3 4 0 1.3-.5 2.7-1.4 3.6-.7.8-1.7 1.3-2.6 1.6-.2.1-.5.1-.7.3 1.4.3 2.8.9 3.8 2 1.1 1.2 1.5 2.8 1.3 4.3-.1 1.5-.6 2.9-1.6 4-1.1 1.2-2.5 2-4.1 2.5-2.1.7-4.3.8-6.5.7-2.2-.1-4.4-.4-6.6-1v-5.6c1.7.9 3.6 1.5 5.5 1.7 1.4.1 2.8.1 4.1-.4.7-.3 1.4-.8 1.8-1.5.3-.7.4-1.5.2-2.2-.2-.7-.7-1.2-1.3-1.5-.8-.4-1.8-.5-2.7-.5h-3.1v-4.3h3.1c.9 0 1.8-.2 2.6-.7.6-.4 1-.9 1.1-1.6.1-.8 0-1.6-.5-2.2-.5-.6-1.2-.8-1.9-1-1.2-.3-2.4-.2-3.6-.1-1.5.2-3 .5-4.4 1.1V.9C93.5.4 95.3.2 97 .1zM32.8.4h7.9c1.9 2.1 3.9 4.2 5.8 6.3 1.9-2.1 3.9-4.2 5.8-6.3h7.9v25.1h-6.9V7c-.1 0-.2.1-.2.2-2.2 2.4-4.4 4.8-6.6 7.1-2.3-2.4-4.5-4.8-6.7-7.2l-.1-.1v18.5h-6.9V.4zM63 .4h7.8c1.3 3 2.7 6 4 9 .4 1 .8 1.9 1.3 2.9 1.7-3.9 3.4-7.9 5.1-11.8h7.7c-4.3 8.4-8.7 16.8-13.1 25.2h-7.5c1.4-2.4 2.8-4.7 4.3-7C69.4 12.5 66.2 6.5 63 .4zM132.9 14.9c-.3-1.2-.9-2.4-1.9-3.3-1.2-1.2-2.7-1.8-4.3-2.1-2-.4-4-.2-6.1-.3V.5h-7v25.1h8.7c1.9 0 3.7-.1 5.5-.6 1.4-.4 2.7-1.1 3.6-2.2.9-1 1.4-2.4 1.6-3.7.2-1.4.2-2.9-.1-4.2zm-6.7 2.6c0 .8-.2 1.6-.7 2.1-.5.6-1.3.9-2 1-.9.2-1.9.1-2.9.1v-6.9c1 0 2.1-.1 3.1.2.8.2 1.5.6 1.9 1.2.5.7.6 1.5.6 2.3zM135.5.4h7v25.1h-7V.4zM147.2.4h7v11.8c.9-1.1 1.7-2.3 2.6-3.5 2-2.8 4-5.5 6.1-8.3h8.3l-9.3 11.7c3.3 4.5 6.7 9 10 13.5h-8.8c-2.8-4.1-5.6-8.2-8.3-12.3-.2-.3-.3-.5-.6-.8v13h-7V.4zM190.3.4h-8.8c-3.1 8.4-6.3 16.8-9.4 25.1h7c.7-1.8 1.3-3.6 1.9-5.4h9.5c.6 1.8 1.2 3.6 1.9 5.4h7.6c-3.2-8.3-6.5-16.7-9.7-25.1zm-7.7 15c1.1-3.3 2.2-6.6 3.2-9.8.1 0 .2.1.2.2 1 3.2 2 6.4 2.9 9.6h-6.3zM7.1.4h15.5c-.2.7-.4 1.5-.7 2.2-5.6 2.1-11.4 4.2-17.1 6.2C5.6 6 6.3 3.2 7.1.4zM10.3 7.8c3.8-1.4 7.7-2.7 11.5-4.1-2.1 7.3-4.1 14.6-6.2 22H5.3c1.6-6.1 3.3-12 5-17.9zM4.6 9.8c1.6-.6 3.2-1.1 4.7-1.7-1.7 5.8-3.3 11.7-5 17.5H0C1.5 20.3 3 15 4.6 9.8z"/></svg>