<svg id="Layer_1" xmlns="http://www.w3.org/2000/svg" viewBox="0 0 182 228"><path d="M17.2 0c9.5 0 17.2 7.7 17.2 17.2s-7.7 17.2-17.2 17.2S0 26.7 0 17.2 7.7 0 17.2 0zm0 73.9c9.5 0 17.2 7.7 17.2 17.2s-7.7 17.2-17.2 17.2S0 100.6 0 91.1s7.7-17.2 17.2-17.2zm0 36.9c9.5 0 17.2 7.7 17.2 17.2s-7.7 17.2-17.2 17.2S0 137.5 0 128s7.7-17.2 17.2-17.2zm0-73.9c9.5 0 17.2 7.7 17.2 17.2s-7.7 17.2-17.2 17.2S0 63.7 0 54.1s7.7-17.2 17.2-17.2zM54.1 36.9c9.5 0 17.2 7.7 17.2 17.2s-7.7 17.2-17.2 17.2-17.2-7.7-17.2-17.2 7.7-17.2 17.2-17.2zm0 37c9.5 0 17.2 7.7 17.2 17.2s-7.7 17.2-17.2 17.2-17.2-7.7-17.2-17.2 7.7-17.2 17.2-17.2zm0 36.9c9.5 0 17.2 7.7 17.2 17.2s-7.7 17.2-17.2 17.2-17.2-7.7-17.2-17.2 7.7-17.2 17.2-17.2zM164.8 0c-9.5 0-17.2 7.7-17.2 17.2s7.7 17.2 17.2 17.2S182 26.7 182 17.2C181.9 7.7 174.3 0 164.8 0zm0 73.9c-9.5 0-17.2 7.7-17.2 17.2s7.7 17.2 17.2 17.2 17.2-7.7 17.2-17.2c-.1-9.5-7.7-17.2-17.2-17.2zm0 36.9c-9.5 0-17.2 7.7-17.2 17.2s7.7 17.2 17.2 17.2S182 137.5 182 128c-.1-9.5-7.7-17.2-17.2-17.2zm0-73.9c-9.5 0-17.2 7.7-17.2 17.2s7.7 17.2 17.2 17.2S182 63.7 182 54.1c-.1-9.5-7.7-17.2-17.2-17.2zM127.9 36.9c-9.5 0-17.2 7.7-17.2 17.2s7.7 17.2 17.2 17.2 17.2-7.7 17.2-17.2c-.1-9.5-7.7-17.2-17.2-17.2zm0 37c-9.5 0-17.2 7.7-17.2 17.2s7.7 17.2 17.2 17.2 17.2-7.7 17.2-17.2c-.1-9.5-7.7-17.2-17.2-17.2zm0 36.9c-9.5 0-17.2 7.7-17.2 17.2s7.7 17.2 17.2 17.2 17.2-7.7 17.2-17.2c-.1-9.5-7.7-17.2-17.2-17.2zM91 73.9c9.5 0 17.2 7.7 17.2 17.2s-7.7 17.2-17.2 17.2-17.2-7.7-17.2-17.2S81.5 73.9 91 73.9zm0 36.9c9.5 0 17.2 7.7 17.2 17.2s-7.7 17.2-17.2 17.2-17.2-7.7-17.2-17.2 7.7-17.2 17.2-17.2zM20.4 197.7v20c0 5.5-4.5 10.1-10.1 10.1-5.5 0-10.1-4.5-10.1-10.1v-44.6c0-5.1 3.9-9.4 8.8-10 3.2-.5 6.6.5 9 3l14.3 15 14.3-15c2.4-2.5 5.8-3.5 9-3 4.9.7 8.7 4.9 8.7 10v44.6c0 5.5-4.5 10.1-10.1 10.1-5.5 0-10.1-4.5-10.1-10.1v-20l-5.4 5.6c-3.3 3.5-9.5 3.7-13.1 0l-5.2-5.6zm158.6 13l-12.1-14.9 12.2-15.1c.4-.4.8-.9 1.1-1.3 1.1-1.6 1.7-3.6 1.7-5.6 0-5.5-4.5-10.1-10.1-10.1h-33.6c-5.5 0-10.1 4.5-10.1 10.1 0 5.5 4.5 10.1 10.1 10.1H151.8l-4.4 5c-3.3 3.7-3.3 10.2 0 13.9l4.4 5H138.2c-5.5 0-10.1 4.5-10.1 10.1 0 5.5 4.5 10.1 10.1 10.1h33.6c5.5 0 10.1-4.5 10.1-10.1.1-2.9-1.1-5.4-2.9-7.2zm-82.4-32.2l-9.3-11.7c-3.4-4.3-9.8-5.1-14.2-1.7-4.3 3.4-5.1 9.8-1.7 14.2l14.9 18.9v19.5c0 5.5 4.5 10.1 10.1 10.1 5.5 0 10.1-4.5 10.1-10.1v-20l15.9-18c3.7-4.2 3.3-10.6-.9-14.2-4.2-3.7-10.6-3.3-14.2.9l-10.7 12.1z"/></svg>