<svg id="Layer_1" xmlns="http://www.w3.org/2000/svg" viewBox="0 0 200 26"><path d="M54.1.5C58.8-.7 64.4.2 67.4 4.3c3.2 4.4 2.5 11.3-2 14.7-4.4 3.2-11 3.1-15.3-.1-4.3-3.3-5-10-2-14.3 1.5-2.2 3.7-3.5 6-4.1zm.7 4.6c-2.8 2.1-3.2 6.4-1.6 9.3 1.2 2.4 4.4 3.4 6.8 2.3 4.2-2.1 4.7-8.7 1-11.5-1.7-1.4-4.4-1.4-6.2-.1zM108.4.4h5.7V10c2.3-3.2 4.7-6.4 7-9.6h6.8c-2.6 3.1-5 6.4-7.6 9.5 2.7 3.7 5.4 7.4 8.2 11h-7.2c-2.3-3.6-4.7-7.1-7.2-10.6v10.6h-5.7V.4zm22-.1h5.6V14c2.7-4.5 5.4-9.1 8.1-13.7h6.3v20.6h-5.6V7.8c-2.7 4.3-5.2 8.7-7.8 13.1h-6.6V.3zm23.7.1h5.7v7.8h8.7V.4h5.7V21h-5.7v-8.7h-8.7V21h-5.7V.4zm30.8 0c3.9-.9 8.5-.4 11.6 2.2 4.8 4 4.7 12.4-.4 16.2-4.5 3.4-11.3 3.3-15.6-.3-4.6-3.8-4.7-11.7-.3-15.6 1.3-1.2 2.9-2 4.7-2.5zm1 4.3c-4.8 2.6-3.9 11.6 1.9 12.4 4.5.7 7.4-4.7 6.1-8.5-.7-3.5-4.9-5.6-8-3.9zM24.5 16.9c2.4-5.1 2-10.9 2.3-16.5h15.9v16.5h2v9c-1.9.2-3.7.2-5.6 0V21H28v4.9c-1.9.1-3.7.1-5.5 0v-9h2zm5.9 0h6.5V4.4h-4.7c-.2 4.2-.5 8.4-1.8 12.5zM72.5.4H79c1.6 1.7 3.1 3.4 4.7 5.1 1.6-1.7 3.1-3.4 4.7-5.1h6.4v20.5h-5.6V5.7c-1.8 2-3.6 4.1-5.5 6-1.8-2-3.7-4.1-5.5-6.1v15.2h-5.7V.4zM3.8 7.2c.7-2.3 1.3-4.5 2-6.8h12.7c-.2.5-.5 1.4-.7 1.9-4.7 1.5-9.3 3.3-14 4.9zM8.3 6.4c3.1-1.1 6.2-2.2 9.3-3.4-1.6 6-3.4 12-5 18H4.2C5.6 16.1 7 11.2 8.3 6.4zM3.6 8c1.4-.5 2.7-.9 3.9-1.4-1.4 4.8-2.7 9.5-4 14.3H0v-.7c1.4-4 2.4-8.1 3.6-12.2z"/></svg>