<svg id="Layer_1" xmlns="http://www.w3.org/2000/svg" viewBox="0 0 85 85"><path d="M42.5 0C19 0 0 19.1 0 42.5 0 66 19.1 85 42.5 85 66 85 85 65.9 85 42.5 85 19 65.9 0 42.5 0zm1.4 72.4h-3.1s0-.1-.1-.1c-.1-.1-.1-.3-.2-.4.1-.4.1-.7.2-1.1l-.3-.9c-.1-2.3-.3-4.5-.3-5.3-.1-.8-.6-1.3-.5-2.1.2-.8.6-.9.6-1.9 0-.9.5-5.9.6-7.1.1-1.2.5-2.5.5-3.1 0-.6.1-3 .9-2.2.8.8.4 1.3 1.6 2.7 1.2 1.4.5 1 1.2 3 .6 1.9 1.4 2.1 1.6 3 .2.8.5 3.8.6 4.3.1.5.2 1.4.3 2.4.1.9.3 1.2.3 2.1 0 1 .1 1.7.4 2.5s.1 1-.3 1.9c-.4.9 0 1.1.4 1.4 0 .3.1.6.1.8v.1h-4.5zm1.5-34.2c.5.6 1.1 1.1 1.4 1.6.3.5.7.8 1 1.2.2.4.4.8.4 1.2 0 .4-.4.9-.6 1.4-.3-.9-.5-1.7-.9-2.6-.4-.9-.9-1.9-1.3-2.8zm15.8 35.5c-2.3-.4-4.1-.7-6-1.1 0 0 0-.1-.1-.1-.2-.1-.3-.2-.5-.3-.3-.5-.6-1.1-.9-1.6-.5-1.1-1-2.2-1.4-3.4-.4-1.2-.7-2-.8-3.4-.1-1.4 0-4.5-.1-5.6-.1-1-.4-1.5-.5-2.5-.2-1-.4-3.1-.5-3.7-.2-.6.1-1.8-.2-2.6-.4-.8-1-1.3-.2-1.5.7-.2 1.3-1.3 1.4-1.8.1-.6-.4-2-.5-3.1-.1-1-.8-2.1-.9-2.9-.1-.8-.1-2.5-.4-4-.2-1.5-.8-2.8-1.1-3.4-.3-.5-.7-.5-.7-1.5s0-2.2-.3-3 0-2.7 0-3.5.2-.9-.4-1.6c-.7-.8-1.4-2-1.9-2.1-.5-.2-1.7 0-2.1-.3-.4-.3-.2-.3.2-.5.3-.2.7-.5.9-.8.2-.4.4-1.2.5-1.9 0-.6.3-1.3.2-2.1-.1-.8-.2-1.5-.9-2.2-.6-.7-.9-.5-1.2-.8-.3-.2-1.3-.4-2.1-.2-.7.2-.7.4-1 .6-.3.2-1.1.8-1.2 1.3-.2.5 0 1.8-.2 2.1-.2.3-.7.8-.6 1.4 0 .6 0 1.9.6 2.5.5.4.4.6.4 1 0 .5-.3.4-1 .3-.7-.1-.9.5-1.1.4s-.9-.3-1.3-.3-.8.5-1.1.5H33c0-.5 0-.9-.2-1-.2-.1-.4.1-.4.7s-.1.7-.2.8c-.3.4-.6.8-1 .9-.3.1-.7.8-1 1-.3.2-.4.9-.6 1.1-.2.2-.3.9-.6 1.1-.3.2-.2 1.2-.4 1.4-.2.2-.7 1.3-.6 2s.2 2.1.7 2.6c.5.5.5.6.4 1.3-.2.7-.4 1.2-.1 1.8.3.5.4.7.4 1.2s.1.8-.3.8-.3.3-.5.5-.6.8-.1 1.3.6.7.7.8c0 .5 0 1.1.4 1.3.4.2.2 1.1.7 1.7.4.4.2 1 1 1.3.4.1.2 1 .1 1.3-.1.3 0 1.5.1 1.5s.7 0 1 .3c.4.4.4.6.5.8v4.3h.4c.1-1.8.1-3.6.2-3.9.1-.3.4-.3.7-.3.6 0 1.2-.1 1.2.5s.1 1.5.1 2.8c0 1.2.2 2.9 0 3.2-.2.3-.1 1.6-.3 1.9-.2.3-.4 2.3-.5 4.7-.1 2.4.4 4.1.4 5.1s.2 2.2.3 3.3c.1.6.2 1.2.2 1.8 0 .2 0 .3-.1.5 0 0 0 .1-.1.1-3.9.3-7.8.6-11.7 1.1C13.1 67.3 6 55.6 6 42.4 6 22.2 22.4 5.8 42.6 5.8s36.6 16.4 36.6 36.6c-.1 13.5-7.3 25.1-18 31.3z"/></svg>