<svg id="Layer_1" xmlns="http://www.w3.org/2000/svg" viewBox="0 0 381 87"><path d="M293 .7v86.2h88V.7h-88zM359.6 72c-4.2 1.2-9.5 1.3-12.6-2.2-2.4-2.5-2.8-6.1-3.3-9.3-.4-3-.4-6-1-8.9-.9-3.5-4.4-5.8-7.9-6.2.8-.4 1.5-1.2 2.5-.9 3.4.2 6.9.8 9.9 2.5 1.8 1 3.2 2.8 3.5 4.8.4 4.5-.9 9 .3 13.4.8 3.1 4.2 5.5 7.4 4.5 4.9-.9 7.9-5.9 8.2-10.5.4-.2 1.1-.6 1.5-.8.4 5.7-2.9 11.8-8.5 13.6zm5-53.6c-2.9 1.8-4.5 5-6.2 7.8-2.6 4.6-5.4 9-8.7 13.1-3.6 3.9-9.4 5.2-14.5 4-1.4 6.6-3.6 13-6.8 18.9-2.6 4.7-6.9 8.7-12.2 9.8-3.5.6-7.6 1-10.6-1.2-3.1-2-4.5-5.9-4.1-9.3.4-5.1 4.2-9.3 8.9-11 1.9-.6 4.5-1.6 6 .3-4.9.5-9.9 3.1-12.1 7.7-1.7 3.6-1.1 8.5 2.1 10.9 2.8 2.3 7.1 2.1 9.9-.1 2.3-1.8 3.8-4.4 5.1-7 2.6-5.4 4.3-11.2 6-17 1.8-6.7 3.3-13.5 6.5-19.7 1.5-2.9 3.8-5.4 6.7-6.8-5.4 1.5-11.1 1.7-16.7.8-4-.6-8.4-1.1-12.2.9-3.9 1.6-5.7 7.2-2.9 10.5 2.9 3.1 8.8 2.2 9.9-2.2 1.7 1.5-.1 3.5-1.5 4.4-4.2 2.5-10.6.5-12.2-4.2-1.7-4.9.8-10.5 5.4-12.8 3.3-1.8 7.1-1.8 10.8-1.4 4.8.4 9.3 2.4 14.1 2.6 2.8.4 5.5.1 8.2-.4 1.8.9-.9 2.2-1.4 3.3-3.8 6.8-5.1 14.5-6.8 22 3.5-.6 7.1-1.6 9.6-4.3 5.1-5.7 9-12.2 14.2-17.9 3-3.4 7.6-4.8 12.1-4.2 0 .4.1 1.1.2 1.4-2.3-.3-4.8-.3-6.8 1.1zM55.9 29.5c-.7-.5-1.4-.8-2.2-1s-1.5-.3-2.2-.2c-.9 0-1.7 0-2.3.1-.6.1-1.1.1-1.4.2v12.9h3c1.6 0 3-.3 4.1-.9s2-1.4 2.6-2.4.9-2.2.9-3.5c0-1.4-.2-2.5-.7-3.3-.6-.7-1.1-1.4-1.8-1.9zM232.5 37c-.2-.9-.4-1.7-.5-2.7-.2-.9-.4-1.8-.5-2.7-.2-.9-.4-1.7-.5-2.4h-.2c-.2.7-.3 1.6-.5 2.4-.2.9-.4 1.8-.5 2.7-.2.9-.4 1.8-.5 2.7-.2.9-.3 1.6-.5 2.3l-2.3 9.6h8.8l-2.2-9.6c-.2-.7-.4-1.5-.6-2.3z"/><path d="M0 0v87h284.8V0H0zm59.6 68.4c-.2-.5-.5-1.2-.8-2.3-.3-1.1-.7-2.4-1.1-3.9-.4-1.5-.8-3.3-1.1-5.2-.4-1.9-.8-3.5-1.4-4.5-.5-1.1-1.3-1.8-2.1-2.3-.9-.4-1.9-.6-3.2-.6h-2.2v18.7H36.4V21.1c1.2-.2 2.5-.4 3.9-.5 1.4-.1 3-.3 4.6-.4 1.6-.1 3.3-.1 5-.1 1.1 0 2.4 0 3.8.1s2.8.3 4.3.6 2.9.7 4.3 1.3c1.4.6 2.6 1.4 3.7 2.4s2 2.3 2.6 3.9c.7 1.6 1 3.4 1 5.6 0 1.9-.4 3.6-1.1 5.2-.7 1.6-1.7 2.9-3 4.1-1.2 1.1-2.6 2-4.2 2.6v.2c1.1.4 2.1 1.1 2.9 1.9.8.8 1.5 1.8 2 3s1 2.6 1.4 4.1c.3 1.3.7 2.7 1 4 .3 1.4.7 2.7 1 4 .3 1.3.6 2.4.9 3.3.3 1 .5 1.7.8 2.2l-11.7-.2zm53.8-20.2c0 4.6-.7 8.5-2.1 11.5-1.4 3.1-3.5 5.4-6.2 7-2.7 1.6-6.1 2.4-10.1 2.4-6.1 0-10.6-1.8-13.5-5.3-3-3.5-4.4-8.7-4.4-15.7V20.4h11.4v29c0 2.5.3 4.5.8 6.1.5 1.6 1.3 2.7 2.3 3.5 1 .7 2.2 1.1 3.6 1.1s2.7-.3 3.7-1.1c1-.7 1.8-1.9 2.3-3.4.5-1.6.8-3.6.8-6.2v-29h11.4v27.8zm36.9 11.9c-.8 1.8-2.1 3.4-3.7 4.8-1.6 1.3-3.6 2.4-6 3.1-2.3.7-5 1.1-8.1 1.1-1.7 0-3.3-.1-4.9-.4-1.6-.2-3-.5-4.3-.9-1.3-.4-2.3-.8-3.1-1.2l1.9-9.1c.9.4 1.9.9 3.1 1.2 1.2.4 2.4.7 3.7.9 1.3.2 2.7.3 4 .4 1.6 0 2.9-.2 4-.6 1-.4 1.8-1 2.4-1.7.5-.7.8-1.6.8-2.5 0-1-.3-1.8-.8-2.6-.5-.7-1.3-1.5-2.4-2.1-1.1-.7-2.5-1.4-4.2-2.1-3.9-1.8-6.9-3.8-8.9-6.1-2-2.4-3-5-3-7.8 0-2.1.4-4 1.2-5.7.8-1.8 1.9-3.3 3.5-4.6 1.5-1.3 3.4-2.4 5.7-3.1 2.2-.7 4.8-1.1 7.7-1.1 1.6 0 3.1.1 4.4.3 1.3.2 2.6.4 3.6.8 1.1.3 2 .7 2.8 1.1l-2.1 9c-.6-.3-1.3-.6-2.2-.9-.9-.3-1.8-.6-2.9-.8-1.1-.2-2.3-.3-3.7-.3-1.5 0-2.7.2-3.6.6-1 .4-1.7.9-2.2 1.6-.5.7-.7 1.4-.7 2.2 0 .9.2 1.7.8 2.3.5.7 1.4 1.3 2.6 2 1.2.7 2.8 1.5 4.8 2.3 2.6 1.1 4.8 2.4 6.4 3.9 1.7 1.4 2.9 3 3.6 4.7.8 1.7 1.2 3.6 1.2 5.6-.2 1.9-.6 3.9-1.4 5.7zm35.8 0c-.8 1.8-2.1 3.4-3.7 4.8-1.6 1.3-3.6 2.4-6 3.1-2.3.7-5 1.1-8.1 1.1-1.7 0-3.3-.1-4.9-.4-1.6-.2-3-.5-4.3-.9-1.3-.4-2.3-.8-3.1-1.2l1.9-9.1c.9.4 1.9.9 3.1 1.2 1.2.4 2.4.7 3.7.9 1.3.2 2.7.3 4 .4 1.6 0 2.9-.2 4-.6 1-.4 1.8-1 2.4-1.7.5-.7.8-1.6.8-2.5 0-1-.3-1.8-.8-2.6-.5-.7-1.3-1.5-2.4-2.1-1.1-.7-2.5-1.4-4.2-2.1-3.9-1.8-6.9-3.8-8.9-6.1-2-2.4-3-5-3-7.8 0-2.1.4-4 1.2-5.7.8-1.8 1.9-3.3 3.5-4.6 1.5-1.3 3.4-2.4 5.7-3.1 2.2-.7 4.8-1.1 7.7-1.1 1.6 0 3.1.1 4.4.3 1.3.2 2.6.4 3.6.8 1.1.3 2 .7 2.8 1.1l-2.1 9c-.6-.3-1.3-.6-2.2-.9-.9-.3-1.8-.6-2.9-.8-1.1-.2-2.3-.3-3.7-.3-1.5 0-2.7.2-3.6.6-1 .4-1.7.9-2.2 1.6s-.7 1.4-.7 2.2c0 .9.2 1.7.8 2.3.5.7 1.4 1.3 2.6 2 1.2.7 2.8 1.5 4.8 2.3 2.6 1.1 4.8 2.4 6.4 3.9 1.7 1.4 2.9 3 3.6 4.7.8 1.7 1.2 3.6 1.2 5.6-.1 1.9-.6 3.9-1.4 5.7zm19.4 8.3h-11.4v-48h11.4v48zm34 0l-2.9-11.1h-11.5l-2.7 11.1h-11.5l13.2-48h14.4l12.8 48h-11.8z"/></svg>