<svg id="Layer_1" xmlns="http://www.w3.org/2000/svg" viewBox="0 0 509 116"><path d="M58.6 38.7h-8.1v16.5h8.1c2.1 0 3.8-.8 5.1-2.3 1.3-1.5 2-3.5 2-6s-.7-4.5-2-6c-1.3-1.4-3-2.2-5.1-2.2zM109.8 37.5c-7.3 0-10.9 5-10.9 14.9v11.1c0 10 3.6 14.9 10.9 14.9 7.3 0 11-5 11-14.9V52.4c0-9.9-3.6-14.9-11-14.9zM315.5 46.9c0 2.5.7 4.5 2 6 1.4 1.5 3.1 2.3 5.3 2.3h8.3V38.7h-8.3c-2.1 0-3.9.8-5.3 2.3-1.3 1.6-2 3.5-2 5.9z"/><path d="M.1-.1v115.9h381.4V-.1H.1zm73.5 60.8c-3.7 3.8-8.6 5.7-14.7 5.7h-8.6v22.4H37.1V27.4h22c6 0 10.9 1.9 14.6 5.8 3.7 3.9 5.6 8.5 5.6 13.9-.1 5.2-2 9.8-5.7 13.6zm60.7 3.9c0 8.2-2.3 14.5-6.9 18.8-4.6 4.4-10.4 6.6-17.5 6.6-7 0-12.9-2.2-17.5-6.6-4.6-4.4-6.9-10.7-6.9-18.7v-13c0-8.1 2.3-14.4 6.9-18.8 4.6-4.4 10.4-6.7 17.5-6.7s13 2.2 17.5 6.7c4.6 4.4 6.9 10.7 6.9 18.8v12.9zM159.5 75c2 2.4 5 3.5 8.8 3.5 5.3 0 10.4-.8 15.1-2.5l2.5 11c-5.8 1.9-11.7 2.8-17.8 2.8-7.5 0-13.6-2.2-18.2-6.5S143 72.7 143 64.6V51.3c0-8.2 2.3-14.5 6.9-18.7 4.6-4.3 10.7-6.5 18.2-6.5 6 0 11.9 1 17.8 2.8l-2.5 10.9c-5.1-1.6-10.1-2.4-15.1-2.4-7.9 0-11.9 5-11.9 14.9v11c0 5.5 1 9.3 3.1 11.7zm50.8 0c2 2.4 5 3.5 8.8 3.5 5.4 0 10.4-.8 15.1-2.5l2.6 11c-5.8 2-11.8 2.9-17.8 2.9-7.5 0-13.6-2.2-18.2-6.5s-6.9-10.6-6.9-18.7V51.4c0-8.2 2.3-14.5 6.9-18.7s10.7-6.5 18.2-6.5c6 0 11.9 1 17.8 2.8l-2.6 10.9c-5.1-1.6-10.1-2.4-15.1-2.4-7.9 0-11.8 5-11.8 14.9v11c0 5.4 1 9.2 3 11.6zM293 88.7h-13.4V62.6c0-3.3.1-6.5.4-9.7l-22.7 35.8h-10.9V27.3h13.4v26.6c0 2.8-.1 5.9-.3 9.4l22.7-36H293v61.4zm51.5 0h-13.4V66.3H326l-9.8 22.4h-14.9l11.5-24.3c-3.4-1.5-6.1-3.9-7.9-7-1.9-3.2-2.8-6.7-2.8-10.5 0-5.4 1.9-10 5.6-13.9s8.6-5.8 14.6-5.8h22.3l-.1 61.5zM390.9-.2v116h118.2V-.2H390.9zm33.4 27.6v14.3c-2.9.5-5.1 2.7-5.1 5.4 0 .3 0 .6.1.9h-15.1c0-.5-.1-1-.1-1.5 0-10.1 8.9-18.3 20.2-19.1zm23.5 59.1h-29.6l15.4-13.7h14.2v13.7zM446 55.9c-1.5 2.8-9.3 11.4-15.7 17L415 86.6h-11.4V75.7C412 68.3 420.7 61 429 53.3c1.5-1.4 3-3.3 3-6.3 0-2.7-2.2-4.9-5.2-5.4V27.4c11.9.2 21.5 8.7 21.5 19-.2 3.3-.7 6.6-2.3 9.5zM479.6 74h-27.2V62h27.2v12zm17 12.5h-13.1V47l13.1-15.3v54.8zm-27.2-28.1h-16.2l28.6-31.8h14.9l-27.3 31.8z"/></svg>