<svg id="Layer_1" xmlns="http://www.w3.org/2000/svg" viewBox="0 0 400 92"><path d="M307.1 0v92H400V0h-92.9zm57.2 81.7h-17.2V39.4l17.2-8.6v50.9zm0-54.9l-34.5 17.3V25.5l34.5-17.3v18.6zM247.8 37.4c0 2 .5 3.5 1.6 4.7 1.1 1.2 2.5 1.8 4.2 1.8h6.5V30.7h-6.5c-1.7 0-3.1.6-4.2 1.8-1 1.3-1.6 3-1.6 4.9zM46 30.8h-6.4V44H46c1.7 0 3-.6 4.1-1.8 1-1.2 1.5-2.8 1.5-4.7 0-2-.5-3.5-1.5-4.7-1.1-1.4-2.5-2-4.1-2zM86.3 29.8c-5.7 0-8.6 4-8.6 11.9v8.8c0 7.9 2.9 11.9 8.6 11.9 5.8 0 8.7-3.9 8.7-11.9v-8.8c-.1-7.9-3-11.9-8.7-11.9z"/><path d="M0 0v91.9h299.8V0H0zm57.9 48.2c-2.9 3-6.8 4.5-11.5 4.5h-6.7v17.8H29V21.8h17.3c4.7 0 8.6 1.5 11.5 4.6 2.9 3 4.4 6.7 4.4 10.9-.1 4.4-1.5 8-4.3 10.9zm47.5 3.1c0 6.5-1.8 11.4-5.4 14.9-3.6 3.4-8.2 5.2-13.8 5.2-5.5 0-10.1-1.7-13.7-5.2-3.6-3.5-5.4-8.4-5.4-14.9V41c0-6.4 1.8-11.4 5.4-14.9 3.6-3.5 8.2-5.2 13.7-5.2 5.6 0 10.2 1.8 13.8 5.2 3.6 3.5 5.4 8.4 5.4 14.9v10.3zm19.8 8.4c1.6 1.9 3.9 2.8 6.9 2.8 4.2 0 8.2-.6 11.9-1.9l2 8.7c-4.6 1.5-9.2 2.2-14 2.2-5.9 0-10.7-1.7-14.4-5.1-3.6-3.4-5.5-8.4-5.5-14.9V41c0-6.5 1.8-11.4 5.5-14.9 3.6-3.4 8.4-5.1 14.4-5.1 4.7 0 9.4.8 14 2.2l-2 8.6c-4-1.2-8-1.9-11.9-1.9-6.2 0-9.3 4-9.3 11.9v8.7c0 4.2.8 7.3 2.4 9.2zm40 0c1.6 1.9 3.9 2.8 6.9 2.8 4.2 0 8.2-.6 11.9-1.9l2 8.7c-4.6 1.5-9.3 2.2-14 2.2-5.9 0-10.7-1.7-14.3-5.1-3.6-3.4-5.5-8.4-5.5-14.9V41c0-6.5 1.8-11.4 5.5-14.9 3.6-3.4 8.4-5.1 14.3-5.1 4.7 0 9.4.8 14 2.2l-2 8.6c-4-1.2-8-1.9-11.9-1.9-6.2 0-9.3 4-9.3 11.9v8.7c0 4.2.8 7.3 2.4 9.2zm64.9 10.8h-10.5V49.7c0-2.6.1-5.1.3-7.6L202 70.5h-8.6V21.8H204v21.1c0 2.2-.1 4.7-.2 7.4l17.9-28.5h8.5l-.1 48.7zm40.5 0h-10.5V52.7h-4l-7.7 17.8h-11.8l9-19.3c-2.7-1.2-4.8-3-6.2-5.5-1.5-2.5-2.2-5.2-2.2-8.2 0-4.3 1.5-7.9 4.4-10.9s6.8-4.6 11.5-4.6h17.6l-.1 48.5z"/></svg>