<svg id="Layer_1" xmlns="http://www.w3.org/2000/svg" viewBox="0 0 336 359"><path d="M263 322.7h1.9l-1-16.4zM195.8 322.7h1.9l-.9-16.4zM205.1 244.1c2.9 0 5.3-2.5 5.3-5.6V126l-10.5 5.8v106.7c-.1 3 2.3 5.6 5.2 5.6z"/><path d="M0 0v359h336V0H0zm247.1 73.3c0-21.4 13.9-38.8 30.8-38.8 17 0 30.8 17.5 30.8 38.8v28.2l-25.9 14V49.9c0-3.1-2.4-5.6-5.3-5.6s-5.3 2.5-5.3 5.6v188.6c0 3.1 2.4 5.6 5.3 5.6s5.3-2.5 5.3-5.6v-92.8l25.9-11.8v86c0 21.4-13.9 38.8-30.8 38.8-17 0-30.8-17.5-30.8-38.8V73.3zm-72.5 60.8l1.1-.7-.1-.7s22.1-12.2 34.7-20V49.8c0-3.1-2.4-5.6-5.3-5.6s-5.3 2.5-5.3 5.6V98l-25.2 13.6V73.2c0-21.4 13.9-38.8 30.8-38.8 17 0 30.8 17.5 30.8 38.8V185c-.9-1.1-2-1.8-3.1-1.9-8.5-.6-8.2 3.4-2.8 5.7 3.6 1.5-8.9 2.8-9.1 4.3-.2 2.6 9.5.2 8.2 3.3-.9 2.3-4.9 3-6.4 5.4-.4.6.3 4.3 2.1 5.6 1 .7-5.5-1.3-5.6-.1-.3 3.2 1.7 7 .8 8.7-1.6 3.1-5.5.6-5.9 4.8-.1 1.1 5.6.8 5.5 2-.1.9-4.6 1.4-5.8 4.9-1 2.7 2.4 8.8 1.4 9.9-2.8 3.1.4 1.6.7 2.1 1 1.7 2.6 2.3 2.4 3.5-1 5.2-4.8 2.6-4.3 6.4.3 2.7 4.4 2.7 5 4.9-4.2 2.7-8.9 4.2-13.9 4.2-17 0-30.8-17.5-30.8-38.8l.1-85.8zm-74.4-94.7H165.4v215.2h-25.9V47.1h-13.3v207.5h-25.9V39.4h-.1zM29.5 73.3c0-21.4 13.9-38.8 30.8-38.8S91.1 52 91.1 73.3v28.2l-25.9 14V49.9c0-3.1-2.4-5.6-5.3-5.6s-5.3 2.5-5.3 5.6v188.6c0 3.1 2.4 5.6 5.3 5.6s5.3-2.5 5.3-5.6v-92.8L91.1 134v86c0 21.4-13.9 38.8-30.8 38.8-17 0-30.8-17.5-30.8-38.8V73.3zm13 224h-3.7v47.8h-6.7v-47.8h-3.7v-7.2h14.1v7.2zm30.1 47.8h-13v-55h13v7.1h-6.3V312H72v6.7h-5.7V338h6.4l-.1 7.1zm34.5 0h-6.5v-47.8h-2.3v41.4c0 4.7-1.7 7.1-5 7.1-1.5 0-2.8-.2-3.9-.6v-7.7c.5.3 1 .5 1.6.5.5 0 .8-.2 1-.6.2-.4.2-1.4.2-3v-44.1h15v54.8h-.1zm30.4 0h-13v-55h13v7.1h-6.3V312h5.7v6.7h-5.7V338h6.4v7.1h-.1zm26.8 0l-3.7-21.6v21.6h-6.2v-55h6.2v19.2l2.3-13.7c.7-3.9 2.1-5.8 4.2-5.8 1.3 0 2.4.1 3 .5v7.3c-1.2 0-1.9 1.3-2.4 3.9l-2.2 13.1 5.9 30.6h-7.1v-.1zm35.1 0l-1.1-14.8h-3l-1.1 14.8h-6.7l5-55h8.4l5 55h-6.5zm38.6 0h-6.7v-26.4h-1.9v26.4h-6.7v-55h6.7V312h1.9v-21.9h6.7v55zm28.6 0l-1.1-14.8h-3l-1.1 14.8h-6.6l5-55h8.5l5 55h-6.7zm41 0h-6.5v-47.8h-2.3v41.4c0 4.7-1.7 7.1-5 7.1-1.5 0-2.8-.2-3.9-.6v-7.7c.5.3 1 .5 1.5.5s.8-.2 1-.6c.1-.4.2-1.4.2-3v-44.1h15v54.8zm1.5-60.2H29.9v-6h279.2v6z"/></svg>