<svg id="Layer_1" xmlns="http://www.w3.org/2000/svg" viewBox="0 0 200 45"><path d="M153.6 0v45H200V0h-46.4zM182 40.5h-8.5v-21l8.5-4.3v25.3zm.2-27.1l-17.3 8.7v-9.4L182.2 4v9.4zM76.4 13.7c-1.4 0-2.6.4-3.5 1.4-1.1 1.2-1.5 2.9-1.5 4.5v6c0 1.6.3 3.3 1.5 4.5.9 1 2.2 1.3 3.5 1.3 1.4 0 2.6-.4 3.5-1.3 1.1-1.2 1.5-2.9 1.5-4.5v-6c0-1.6-.3-3.3-1.5-4.5-.9-1-2.1-1.4-3.5-1.4zM101.6 14h-4.3v7h4.3c2.2 0 2.8-1.6 2.8-3.5 0-2-.6-3.5-2.8-3.5z"/><path d="M-.1 0v44.9h150.3V0H-.1zm25.4 30c.9 1 2.2 1.4 3.5 1.4 2.3 0 4.8-.5 7.1-1.1l.5-.2 1.1 4.8-.4.1c-2.7.7-5.5 1.3-8.3 1.3s-5.3-.8-7.3-2.8c-2.1-2-3-4.6-3-7.6V19c0-2.9.9-5.6 3-7.6 2-1.9 4.6-2.7 7.3-2.7 2.8 0 5.6.5 8.3 1.3l.5.2-1.1 4.8-.5-.2c-2.3-.6-4.7-1.1-7.1-1.1-1.3 0-2.6.3-3.5 1.3-1.1 1.1-1.5 2.9-1.5 4.5v6.1c0 1.5.3 3.2 1.4 4.4zm36.1 6H56V14.5h-8.8V36h-5.5V9.1H61.4V36zm25.4-10c0 3-.9 5.5-3.1 7.6-2 1.9-4.5 2.8-7.3 2.8s-5.3-.8-7.3-2.8C67 31.6 66 29 66 26v-6.8c0-2.9.9-5.5 3.1-7.6 2-1.9 4.6-2.8 7.3-2.8 2.8 0 5.3.9 7.3 2.8 2.2 2 3.1 4.6 3.1 7.6V26zm20.9-2.6c-1.6 1.8-3.7 2.5-6.1 2.5h-4.3V36h-5.4V9.1h9.7c2.4 0 4.5.7 6.1 2.5 1.5 1.7 2.2 3.7 2.2 5.9-.1 2.2-.7 4.2-2.2 5.9zm24.1-9.4h-6.9v22h-5.4V14h-7.1V9h19.5l-.1 5z"/></svg>