<?xml-stylesheet href="vk-channel.css" type="text/css"?><svg xmlns="http://www.w3.org/2000/svg" width="378.644" height="216.015" viewBox="0 0 9504 5422" shape-rendering="geometricPrecision" text-rendering="geometricPrecision" image-rendering="optimizeQuality" fill-rule="evenodd" clip-rule="evenodd"><path class="fil0" d="M4650 5399h568s172-19 259-113c81-87 78-250 78-250s-11-762 343-874c349-111 797 737 1271 1062 359 247 632 193 632 193l1269-18s664-41 349-563c-26-42-183-386-944-1092-795-738-689-619 270-1897 584-778 817-1253 744-1456-69-194-499-143-499-143l-1429 9s-106-14-184 33c-77 46-126 153-126 153s-227 602-528 1114c-637 1081-891 1138-995 1071-242-157-182-628-182-964 0-1047 159-1483-309-1596-155-38-270-63-667-67-510-5-941 2-1186 121-162 80-288 257-211 268 94 12 308 57 421 212 147 199 142 646 142 646s84 1233-197 1386c-192 105-457-109-1024-1090-290-502-510-1057-510-1057s-42-104-118-159c-91-67-219-89-219-89l-1358 9s-204 6-279 95c-67 79-5 242-5 242s1063 2487 2267 3740c1104 1150 2357 1074 2357 1074z" id="Слой_x0020_1"/></svg>