<?xml version="1.0" encoding="utf-8"?>
<!-- Generator: Adobe Illustrator 19.0.1, SVG Export Plug-In . SVG Version: 6.00 Build 0)  -->
<svg version="1.1" id="Layer_1" xmlns="http://www.w3.org/2000/svg" xmlns:xlink="http://www.w3.org/1999/xlink" x="0px" y="0px"
	 viewBox="0 0 175 350" style="enable-background:new 0 0 175 350;" xml:space="preserve">
<g>
	<path d="M39.1,67.8c0,8.8,0.3,51.9,0.3,51.9H0.2V175l38.9-0.1l0.3,175.1h78.4V174.9l50.2-0.1c0,0,3.8-24.2,6.1-55.1
		c-6.7,0-56.3,0-56.3,0s-1.3-38.2-1.3-44.2s8.4-14.1,16.7-14.1c8.3,0,25.9,0,42,0c0-8,0-35.7,0-61.4c-21.6,0-46.3,0-57.1,0
		C37.2,0.1,39.1,59,39.1,67.8z"/>
</g>
</svg>
