<?xml version="1.0" encoding="utf-8"?>
<!-- Generator: Adobe Illustrator 19.0.1, SVG Export Plug-In . SVG Version: 6.00 Build 0)  -->
<svg version="1.1" id="Layer_1" xmlns="http://www.w3.org/2000/svg" xmlns:xlink="http://www.w3.org/1999/xlink" x="0px" y="0px"
	 viewBox="0 0 275 275" style="enable-background:new 0 0 275 275;" xml:space="preserve">
<g>
	<path d="M243.1,65.8c0,9.6-7.8,17.3-17.3,17.3h-16.5c-9.6,0-17.3-7.8-17.3-17.3V49.3c0-9.6,7.8-17.3,17.3-17.3h16.5
		c9.6,0,17.3,7.8,17.3,17.3V65.8L243.1,65.8z M243.1,225.6c0,9.6-8.9,17.3-18.5,17.3H51.1c-9.6,0-19.1-7.8-19.1-17.3V139
		c0-9.6,9.6-17.5,19.1-17.5c0,0,4.4,0,9.8,0c0.7,0,1.3,0.1,1.9,0.2c3.6,0.7,6,3.3,6.2,6.7c0,0.6,0,1.2-0.1,1.8
		c-0.1,0.4,0.9,0.8,0.9,1.2c-0.3,2.5,0.4,5,0.4,7.5l0,0c0,37.8,29.4,68.6,67.2,69.3c-0.4,0-1.3,0.1-1.7,0.1c0.4,0,0.6-0.1,1-0.1
		c0.4,0,0.7,0.1,1.2,0.1c38.4,0,69.3-31,69.3-69.4c0-2.5-0.2-5.1-0.5-7.5c-0.1-0.4,0-0.8-0.1-1.2c-0.1-0.6-0.1-1.2-0.1-1.8
		c0.2-3.4,2.6-6,6.2-6.7c0.6-0.1,1.2-0.2,1.9-0.2h9.8c9.6,0,18.5,7.9,18.5,17.5v86.7H243.1z M103.2,139c0,0,2.7-34.6,34.7-34.6
		s34.7,34.6,34.7,34.6s1,34.6-34.7,34.6C102.1,173.7,103.2,139,103.2,139z M240.3,0H34.7C15.5,0,0,15.5,0,34.6v205.7
		C0,259.5,15.5,275,34.7,275h205.7c19.1,0,34.7-15.5,34.7-34.6V34.6C275,15.5,259.5,0,240.3,0"/>
</g>
</svg>
