<?xml version="1.0" encoding="utf-8"?>
<!-- Generator: Adobe Illustrator 19.0.1, SVG Export Plug-In . SVG Version: 6.00 Build 0)  -->
<svg version="1.1" id="Layer_1" xmlns="http://www.w3.org/2000/svg" xmlns:xlink="http://www.w3.org/1999/xlink" x="0px" y="0px"
	 viewBox="0 0 328 410" style="enable-background:new 0 0 328 410;" xml:space="preserve">
<g>
	<path d="M305.2,217.8c-15.2-16.4-35.5-27.3-60.8-32.6V183c17.6-7.3,31.4-18.8,41.4-34.4s15-33.4,15-53.4c0-17.2-3.6-32.5-10.9-45.7
		c-7.3-13.2-18.2-23.8-32.9-31.6c-13.6-7.3-28.1-12.2-43.6-14.4C197.8,1.1,175,0,144.9,0H0v410h164.1c28.4,0,51.9-2.6,70.3-7.7
		c18.4-5.1,35.4-13.8,50.8-25.9c13-10.1,23.4-22.8,31.1-38.3c7.7-15.4,11.6-33.3,11.6-53.7C328,256.4,320.4,234.3,305.2,217.8z
		 M191.4,139.5c-3.1,6.8-8.8,12.1-17.1,16c-7.5,3.5-14.8,5.4-21.9,5.8c-7.1,0.4-19.4,0.6-37,0.6h-12.9V75.1h7.2
		c18.3,0,32.2,0.1,41.4,0.4c9.3,0.3,17.3,1.9,24.1,4.8c7.2,3.1,12.4,8.2,15.8,15.1c3.4,7,5.1,13.8,5.1,20.4
		C196.1,124.9,194.5,132.8,191.4,139.5z M215.5,309c-4.3,7.8-11.1,13.7-20.5,17.8c-10.6,4.6-21.1,7.1-31.4,7.4
		c-10.3,0.4-28.8,0.6-55.6,0.6h-5.5V232h19c18.3,0,33,0.1,43.9,0.4c10.9,0.3,19.5,1.6,25.7,4c10.3,3.7,18,9.1,23.1,16.2
		c5.1,7.2,7.7,17.1,7.7,29.7C221.9,292.3,219.8,301.1,215.5,309z"/>
</g>
</svg>
