<?xml version="1.0" encoding="utf-8"?>
<!-- Generator: Adobe Illustrator 19.0.1, SVG Export Plug-In . SVG Version: 6.00 Build 0)  -->
<svg version="1.1" id="Layer_1" xmlns="http://www.w3.org/2000/svg" xmlns:xlink="http://www.w3.org/1999/xlink" x="0px" y="0px"
	 viewBox="0 0 420 360" style="enable-background:new 0 0 420 360;" xml:space="preserve">
<g>
	<path d="M299.2,65.4c0-1.4,0-2.7-0.5-4.1c-3.2-12.6-8.8-21.7-13.4-27.6C253.5-5.9,187.1,0.4,182.5,0.4c0,0,0,0-0.5,0
		c-5.1,0-67.3-5.9-97.7,32.5C77,42.3,72.9,52.7,71,61.3c-0.5,1.4-0.5,4.1-0.5,5.4l14.3,254l0,0L82,351.9c0.9,2.7,2.8,2.3,4.2,3.2
		c7.8,6.3,23.1,5,28.2,4.5c0.9,0,1.8,0,2.8-0.5c4.6,0,18.9,0.5,26.8-5.4c2.3-1.8,3.2-1.8,4.2-3.6l-1.4-14c-1.8-9,6.5-15.4,16.6-15.4
		h42.8c10.6,0,18.5,6.3,17.5,15.8l-1.4,14.9c0.9,2.7,2.8,2.3,4.2,3.6c7.8,6.3,23.1,5,28.2,4.5c0.9,0,1.8,0,2.8,0
		c4.6,0,18.9,0.5,26.8-5.4c2.3-1.8,3.2-1.8,4.2-3.6c-0.9-10.8-1.8-21.7-2.8-32.5L299.2,65.4z M183.9,167.3c-36,0-65-28.5-65-63.1
		c0-34.8,29.1-63.1,65-63.1s65,28.5,65,63.1C248.9,138.9,219.9,167.3,183.9,167.3z M183.9,66.7c-21.2,0-38.7,16.7-38.7,37.5
		s17.5,37.5,38.7,37.5c21.2,0,38.7-16.7,38.7-37.5S205.1,66.7,183.9,66.7z M199.1,131.2c-3.2,0-6.5-2.7-6.5-5.9
		c0-3.2,2.8-5.9,6.5-5.9c3.2,0,6.5,2.7,6.5,5.9C205.6,128.5,202.8,131.2,199.1,131.2z M199.1,107.3c-7.8,0-14.3-6.3-14.3-13.5
		c0-7.7,6.5-13.6,14.3-13.6s14.3,6.3,14.3,13.6S207,107.3,199.1,107.3z M154.5,162.8c-1.8-0.9-3.7-1.8-6.5-1.8
		c-4.2,0-8.8,1.8-12.5,3.2c-6,2.7-9.2,7.7-12.9,12.6c-2.3,3.6-4.6,7.2-7.8,9.9c-0.9,0.9-1.8,1.8-2.8,2.7l0,0
		c-6,6.3-10.2,14.5-13.8,22.1c-3.7,7.2-7.8,14.9-13.4,21.2c-7.8,8.1-13.4,17.6-19.4,26.6c-6,9.5-12,19-19.8,27.6
		c-11.5,12.2-25.4,21.7-39.6,27.6c-4.2,1.8-6.5,5-6,8.6c0,3.6,2.3,6.8,6,8.1c7.8,2.7,15.2,3.6,23.1,3.6c0.9,0,1.8,0,2.8,0
		c12-0.5,34.2-3.6,46.5-17.6c1.4-1.8,4.2-4.5,7.4-7.2c3.7-3.6,7.4-7.2,9.2-9.5c13.8-16.3,26.8-23.5,44.2-29.8c3.7-1.4,6-5,6-8.6
		C143.8,231.4,147.5,190.7,154.5,162.8z M32.7,329.8c-6,0.5-11.1-1.4-11.5-5c-0.5-3.2,4.2-6.8,10.2-7.2c6-0.5,11.1,1.4,11.5,5
		C42.9,326.1,38.7,329.3,32.7,329.8z M64.6,319.8c-6.9,2.3-13.4,0.9-14.8-3.2c-1.4-4.1,2.8-9,9.7-11.3s13.4-0.9,14.8,3.2
		C75.6,312.1,71.5,317.6,64.6,319.8z M92.1,299.5c-2.8,3.6-8.3,4.5-12.5,1.8c-4.2-2.7-5.1-8.1-2.3-11.7c2.8-3.6,8.3-4.5,12.5-1.8
		C94,290.5,94.9,295.9,92.1,299.5z M415.3,111.3c-12.9-4.1-24.5-5.4-35.1-4.5c-16.2,1.8-30.5,9.5-37.7,21.2
		c-3.7,6.3-6,13.1-7.8,19.9c-1.4,5.4-3.2,11.3-5.5,16.3c-3.7,7.7-9.7,14-17.1,19s-16.2,7.7-24.5,8.1c-0.9,0-1.8,0-2.8,0
		c-7.8,0-15.7-1.8-22.6-5.4c-7.8-4.1-14.3-9.9-18.9-16.7c-8.3,14.5-16.6,28.5-24.9,42.8c-1.8,3.2-3.7,6.3-4.6,9.9
		c-1.4,6.3,0.5,15.4,9.7,23.5c5.5,4.5,12.5,8.1,22.6,11.3c13.8,4.5,29.1,8.1,46.1,10.4c15.2,2.3,32.3,3.6,45.6-4.5
		c14.3-8.6,20.8-25.3,26.3-42.8c5.1-16.3,10.2-32.5,15.2-48.2c6-19.4,14.3-41.1,33.2-49.1c0.9-0.5,1.8-0.9,2.8-1.4
		c0.5,0,0.9-0.5,1.4-0.5c2.3-0.9,3.2-2.7,3.2-5C418,113.1,417.1,111.8,415.3,111.3z M309.7,259.8c-7.4,0.9-14.3-2.3-14.8-6.8
		c-0.5-4.5,5.1-9.5,12.9-10.4c7.4-0.9,14.3,2.3,14.8,6.8C323.1,254.4,317.5,258.9,309.7,259.8z M342,242.7
		c-2.8,3.6-7.8,4.5-11.5,1.8c-3.7-2.7-4.6-8.1-2.3-11.7c2.8-3.6,7.8-4.5,11.5-1.8C343.4,233.6,344.3,238.6,342,242.7z M357.2,219.2
		c-2.8,5.9-8.3,9.5-12.5,7.2c-4.2-1.8-5.5-8.6-2.8-14.5c2.8-5.9,8.3-9.5,12.5-7.2C358.6,206.5,360,212.9,357.2,219.2z M370.1,185.8
		c-1.4,6.3-6.5,10.8-11.1,9.5c-4.6-1.4-6.9-7.2-5.1-13.6c1.4-6.3,6.5-10.8,11.1-9.5C369.2,173.2,371.5,179.5,370.1,185.8z
		 M370.1,161.9c-4.2,0.5-8.3-1.8-8.8-5.4c-0.5-3.2,2.8-6.3,7.4-6.8c4.2-0.5,8.3,1.8,8.8,5.4C377.5,158.3,374.3,161.5,370.1,161.9z
		 M386.2,135.7c-5.1,5-11.5,6.3-14.8,3.2c-3.2-3.2-1.4-9.5,3.7-14c5.1-4.5,11.5-6.3,14.8-3.2C393.1,124.4,391.3,130.8,386.2,135.7z"
		/>
</g>
</svg>
