<?xml version="1.0" encoding="utf-8"?>
<!-- Generator: Adobe Illustrator 19.0.1, SVG Export Plug-In . SVG Version: 6.00 Build 0)  -->
<svg version="1.1" id="Layer_1" xmlns="http://www.w3.org/2000/svg" xmlns:xlink="http://www.w3.org/1999/xlink" x="0px" y="0px"
	 viewBox="0 0 322 328" style="enable-background:new 0 0 322 328;" xml:space="preserve">
<g>
	<path d="M297.5,96.5h-137l52.2-88.8c1.2-2.8-0.1-6.1-2.9-7.3c-2.8-1.2-6,0.1-7.2,2.9l-53.2,90.6l-30.3-61.4
		c-1.3-2.7-4.7-3.9-7.4-2.5c-2.7,1.4-3.8,4.7-2.5,7.4l29.2,59.1h-114C11,96.5,0,107.5,0,121.2v182.1C0,316.9,11,328,24.5,328h273.1
		c13.5,0,24.5-11.1,24.5-24.7V121.2C322,107.5,311,96.5,297.5,96.5z M267.6,123.5h26.6c3,0,5.5,2.5,5.5,5.5c0,3-2.5,5.5-5.5,5.5
		h-26.6c-3,0-5.5-2.5-5.5-5.5C262.1,126,264.6,123.5,267.6,123.5z M190.9,209.4h0.2l2,0.4c0,1.6-0.1,3.1-0.4,4.7
		c-0.6,8.3-2.7,16-5.9,22.5c-5.8,11.7-15.2,19.4-25.8,19.4c-16.2,0-29.5-17.7-31.6-40.7c0,0,12.8-2.1,20.4-5.2
		c0,0,13.8-4.7,30.7-16.9c0.1-0.1,0.2-0.1,0.3-0.2c0,0,0.3,0.4,0.7,1.2c1.5,2.5,4.6,10.1-1.3,13.5L190.9,209.4z M140.5,252.6
		c5.8,5.9,12.9,9.3,20.5,9.3c7.4,0,14.3-3.3,20.1-8.9l-4.2,8.9c1.4-2.4,6.8-3,13-2.8c-1,6.1-8.1,11.2-17.8,13.4l-11.1,18l-11.1-18.1
		c-8-1.8-14.2-5.6-16.7-10.3c6.5,0.6,12,1.8,13.4,4.1L140.5,252.6z M232.9,299.9c-2.3-18.9-15.5-34.5-33-40.1
		c8.2,0.9,15.4,2.3,15.4,2.3c-16.4-9.1-15.9-41.6-15.9-41.6c2.9-63.1-38.3-59.8-38.3-59.8v0.1v-0.1c0,0-41.2-3.3-38.3,59.8
		c0,0,0.4,32.6-15.9,41.6c0,0,4.4-0.3,10.3-0.4c-15.3,6.9-26.3,21.7-28.1,39.2H34.1c-8.1,0-14.6-6.6-14.6-14.7V138.3
		c0-8.1,6.5-14.7,14.6-14.7h193.4c8.1,0,14.6,6.6,14.6,14.7v147.9l0,0C242.1,292.4,238.3,297.7,232.9,299.9z M258.5,231.2
		c-4,0-7.3-3.3-7.3-7.3c0-4,3.3-7.3,7.3-7.3c4,0,7.3,3.3,7.3,7.3C265.7,227.9,262.5,231.2,258.5,231.2z M280.9,231.2
		c-4,0-7.3-3.3-7.3-7.3c0-4,3.3-7.3,7.3-7.3s7.3,3.3,7.3,7.3C288.2,227.9,284.9,231.2,280.9,231.2z M280.9,195.2
		c-11.4,0-20.6-9.3-20.6-20.8l0,0l0,0c0-11.5,9.2-20.8,20.6-20.8s20.6,9.3,20.6,20.8l0,0l0,0C301.5,185.9,292.2,195.2,280.9,195.2z
		 M303.2,231.2c-4,0-7.3-3.3-7.3-7.3c0-4,3.3-7.3,7.3-7.3s7.3,3.3,7.3,7.3C310.5,227.9,307.3,231.2,303.2,231.2z"/>
	<path d="M63.9,167.6c4.8,0,8.8-6.5,9.7-11.7c0-0.1,0.2-4.7-3.1-4.4c0,0-11.6,2.3-13.3-2.8c0,0-2.5,2.1-3,6.7
		C54.8,160.7,58.9,167.6,63.9,167.6z M72.9,153.8L72.9,153.8L72.9,153.8L72.9,153.8z"/>
	<path d="M98.2,134.1H29.6c-2.6,0-4.7,2.1-4.7,4.7v52.9c0,2.6,2.1,4.7,4.7,4.7h68.7c2.6,0,4.7-2.1,4.7-4.7v-52.9
		C102.9,136.3,100.8,134.1,98.2,134.1z M63.9,142.4c6.2,0,11.3,5.1,11.3,11.3c0,6.3-5,15.7-11.3,15.7c-6.2,0-11.3-9.4-11.3-15.7
		C52.6,147.5,57.7,142.4,63.9,142.4z M70.8,188.3H56.9c-7.5,0-13.5,0.4-13.5-7.1c0-7.1,5.4-12.9,12.3-13.6c0.1,2.5,3.7,4.5,8.2,4.5
		s8.1-2,8.2-4.5c6.9,0.6,12.3,6.5,12.3,13.6C84.3,188.7,78.3,188.3,70.8,188.3z"/>
	<path d="M164.9,153.8L164.9,153.8L164.9,153.8L164.9,153.8z"/>
</g>
</svg>
