<?xml version="1.0" encoding="utf-8"?>
<!-- Generator: Adobe Illustrator 19.0.1, SVG Export Plug-In . SVG Version: 6.00 Build 0)  -->
<svg version="1.1" id="Layer_1" xmlns="http://www.w3.org/2000/svg" xmlns:xlink="http://www.w3.org/1999/xlink" x="0px" y="0px"
	 viewBox="0 0 476 243" style="enable-background:new 0 0 476 243;" xml:space="preserve">
<g>
	<path d="M366.8,84.8l-24.3,6.7c-0.1,0-0.3,0-0.4,0c-5.4,0.9-7.8,0.6-10.9-3h-0.1c-2.7-3.2-6.4-5.2-10.4-5.7v-0.1l-38.2-6.2
		c-0.5-0.1-0.9-0.1-1.4-0.1l-44.1,3l0.2,11.1l43.5,1.8l14.7,2.4l-28,18.2c-0.4,0.3-0.8,0.7-1.2,1l-39.8,13.4
		c-1.5,0.5-2.8,1.3-3.9,2.5l-27.6,28l14.3,13.9l25.9-26.3l19.2-6.4l-20.8,17.7c-0.3,0.3-0.6,0.6-0.9,0.9l-33.7,37.3l14.9,13.2
		l33.2-36.9l35.7-30.6c0.7-0.3,1.5-0.7,2.1-1.2l41.7-27.1l44.8-12.4c0.5-0.1,0.9-0.3,1.4-0.5l38.8-20.5l-4.7-10.1L366.8,84.8z"/>
	<path d="M354.1,82.6c9.4-4.4,13.5-15.6,9-25c-4.4-9.3-15.7-13.4-25.2-8.9c-9.4,4.4-13.4,15.6-9,25C333.5,83,344.7,87,354.1,82.6z"
		/>
	<path d="M429.4,20c-10.1,2.5-16.3,12.7-13.8,22.7c2.5,10.1,12.7,16.2,22.9,13.7c10.1-2.5,16.3-12.7,13.7-22.7
		C449.7,23.6,439.5,17.5,429.4,20z"/>
	<path d="M282.2,97.6l0.4-0.2l-0.4-0.1C282.2,97.4,282.2,97.5,282.2,97.6z"/>
	<path d="M467.4,0H8.2C3.8,0,0.3,3.5,0.3,7.8V243h15.8v-26.1c5.1,0.1,12.6,0.2,22.1,0.3c0.1,6.2,0.3,11.5,0.4,15.7
		c0.2,6.4,0.3,10.1,0.3,10.1s0.1-3.7,0.3-10.1c0.1-4.2,0.2-9.5,0.4-15.7c8.4,0.1,18.3,0.2,29.3,0.4c0.1,6,0.3,11.2,0.4,15.3
		c0.2,6.4,0.3,10.1,0.3,10.1s0.1-3.7,0.3-10.1c0.1-4.1,0.2-9.2,0.4-15.3c3.2,0,6.4,0.1,9.8,0.1c6.2,0,12.6,0.1,19.4,0.1
		c0.1,5.9,0.3,11,0.4,15c0.2,6.4,0.3,10.1,0.3,10.1s0.1-3.7,0.3-10.1c0.1-4,0.2-9.1,0.4-15c9.3,0.1,19.2,0.1,29.3,0.2
		c0.1,5.8,0.3,10.9,0.4,14.8c0.2,6.4,0.3,10.1,0.3,10.1s0.1-3.7,0.3-10.1c0.1-4,0.2-9,0.4-14.8c7.2,0,14.6,0.1,22.2,0.1
		c2.3,0,4.7,0,7.1,0c0.1,5.8,0.3,10.7,0.4,14.7c0.2,6.4,0.3,10.1,0.3,10.1s0.1-3.7,0.3-10.1c0.1-3.9,0.2-8.9,0.4-14.7
		c9.6,0,19.4,0,29.3,0.1c0.1,5.7,0.3,10.7,0.4,14.6c0.2,6.4,0.3,10.1,0.3,10.1s0.1-3.7,0.3-10.1c0.1-3.9,0.2-8.8,0.4-14.6
		c9.7,0,19.5,0.1,29.3,0.1c0.1,5.7,0.3,10.6,0.4,14.5c0.2,6.4,0.3,10.1,0.3,10.1s0.1-3.7,0.3-10.1c0.1-3.9,0.2-8.8,0.4-14.5
		c4.9,0,9.7,0,14.6,0s9.7,0,14.6,0c0.1,5.7,0.3,10.6,0.4,14.5c0.2,6.4,0.3,10.1,0.3,10.1s0.1-3.7,0.3-10.1c0.1-3.9,0.2-8.8,0.3-14.5
		c9.8,0,19.7-0.1,29.3-0.1c0.1,5.7,0.3,10.7,0.4,14.6c0.2,6.4,0.3,10.1,0.3,10.1s0.1-3.7,0.3-10.1c0.1-3.9,0.2-8.8,0.4-14.6
		c9.9,0,19.7-0.1,29.3-0.1c0.1,5.8,0.3,10.7,0.4,14.7c0.2,6.4,0.3,10.1,0.3,10.1s0.1-3.7,0.3-10.1c0.1-3.9,0.2-8.9,0.4-14.7
		c2.4,0,4.8,0,7.1,0c7.5-0.1,14.9-0.1,22.2-0.1c0.1,5.8,0.3,10.9,0.4,14.8c0.2,6.4,0.3,10.1,0.3,10.1s0.1-3.7,0.3-10.1
		c0.1-4,0.2-9,0.4-14.8c10.1-0.1,20-0.1,29.3-0.2c0.1,5.9,0.3,11,0.4,15c0.2,6.4,0.3,10.1,0.3,10.1s0.1-3.7,0.3-10.1
		c0.1-4,0.2-9.1,0.4-15c6.7,0,13.2-0.1,19.5-0.1c3.4,0,6.6-0.1,9.8-0.1c0.1,6,0.3,11.2,0.4,15.3c0.2,6.4,0.3,10.1,0.3,10.1
		s0.1-3.7,0.3-10.1c0.1-4.1,0.2-9.3,0.4-15.3c11-0.1,20.9-0.3,29.3-0.4c0.1,6.2,0.3,11.5,0.4,15.7c0.2,6.4,0.3,10.1,0.3,10.1
		s0.1-3.7,0.3-10.1c0.1-4.2,0.2-9.5,0.4-15.7c9.4-0.1,16.8-0.2,22.1-0.3V243h15.8V7.8C475.2,3.5,471.7,0,467.4,0z M16.1,60.2
		c5,0.1,12.3,0.2,21.6,0.3c-0.1,6.9-0.2,14.2-0.2,21.8c0,1.2,0,2.4,0,3.6c-9,0.1-16.3,0.2-21.3,0.3v-26H16.1z M16.1,86.3
		c5,0.1,12.2,0.1,21.3,0.3c0,8.3-0.1,16.8-0.1,25.4c-9,0.1-16.2,0.2-21.2,0.3V86.3z M16.1,112.4c5,0.1,12.1,0.1,21.2,0.3
		c0,4.2,0,8.5-0.1,12.7c0,4.2,0,8.5,0.1,12.7c-9,0.1-16.2,0.2-21.2,0.3V112.4z M16.1,138.6c5,0.1,12.1,0.2,21.2,0.3
		c0,8.7,0.1,17.2,0.1,25.4c-9,0.1-16.3,0.2-21.3,0.3V138.6z M16.1,164.7c5,0.1,12.2,0.1,21.4,0.3c0,1.2,0,2.4,0,3.6
		c0,7.6,0.1,14.9,0.2,21.8c-9.2,0.1-16.5,0.2-21.6,0.3V164.7z M16.1,216.7v-26c5,0.1,12.4,0.1,21.6,0.3c0.1,5.3,0.2,10.4,0.2,15.2
		c0,3.6,0.1,7.1,0.2,10.3C28.7,216.6,21.3,216.7,16.1,216.7z M37.9,44.6c-0.1,4.7-0.1,9.8-0.2,15.2c-9.2,0.1-16.5,0.2-21.6,0.3v-26
		c5.1,0.1,12.6,0.2,22,0.3C38,37.5,38,41,37.9,44.6z M38.5,17.9c-0.1,4.2-0.2,9.5-0.4,15.7c-9.4,0.1-16.8,0.2-22,0.3V15.7h22.5
		C38.5,16.4,38.5,17.1,38.5,17.9z M39.5,216.5c0.1-3.2,0.1-6.6,0.2-10.2c0.1-4.7,0.1-9.8,0.2-15.1c8.2,0.1,17.8,0.2,28.4,0.3
		c0.1,5.2,0.2,10.2,0.2,14.8c0,3.5,0.1,6.8,0.2,9.9C57.8,216.2,47.9,216.3,39.5,216.5z M67.9,137.7c-10.3,0.1-19.6,0.2-27.6,0.3
		c0-4.2,0-8.4,0.1-12.7c0-4.2,0-8.5-0.1-12.7c8,0.1,17.3,0.2,27.6,0.3c0,4.1,0,8.2-0.1,12.3C67.9,129.5,67.9,133.6,67.9,137.7z
		 M40.3,111.9c0-8.6-0.1-17.1-0.1-25.4c8,0.1,17.5,0.2,27.8,0.3c0,8-0.1,16.3-0.1,24.7C57.6,111.7,48.3,111.8,40.3,111.9z
		 M40.3,138.9c8,0.1,17.3,0.2,27.6,0.3c0,8.4,0.1,16.7,0.1,24.7c-10.4,0.1-19.8,0.2-27.8,0.3C40.2,156,40.3,147.5,40.3,138.9z
		 M68,165.4c0,1.1,0,2.2,0,3.2c0,7.5,0.1,14.6,0.2,21.4c-10.6,0.1-20.2,0.3-28.4,0.3c0.1-6.9,0.2-14.2,0.2-21.8c0-1.2,0-2.4,0-3.6
		C48.2,165.1,57.7,165.2,68,165.4z M68.1,82.2c0,1.1,0,2.2,0,3.2c-10.4,0.1-19.8,0.2-27.8,0.3c0-1.2,0-2.4,0-3.6
		c0-7.6-0.1-14.9-0.2-21.8c8.1,0.1,17.8,0.2,28.4,0.3C68.2,67.5,68.1,74.7,68.1,82.2z M39.9,59.7c-0.1-5.3-0.2-10.4-0.2-15.1
		c0-3.6-0.1-7-0.2-10.2c8.3,0.1,18.3,0.2,29.2,0.4c-0.1,3.1-0.1,6.4-0.2,9.9c-0.1,4.6-0.1,9.6-0.2,14.8
		C57.7,59.5,48.1,59.6,39.9,59.7z M69.1,17.9c-0.1,4.1-0.2,9.3-0.4,15.3c-11,0.1-20.9,0.3-29.3,0.4c-0.1-6.2-0.3-11.5-0.4-15.7
		c0-0.8,0-1.6-0.1-2.3H69C69.2,16.4,69.1,17.1,69.1,17.9z M79.9,216c-3.4,0-6.6,0.1-9.8,0.1c0.1-3.1,0.1-6.4,0.2-9.9
		c0-4.6,0.1-9.6,0.2-14.8c3.1,0,6.2,0.1,9.4,0.1c6,0,12.4,0.1,19,0.1c0.1,5.1,0.2,10,0.2,14.5c0,3.4,0.1,6.6,0.2,9.6
		C92.6,215.9,86.2,215.9,79.9,216z M98.5,137.5c-6.4,0-12.6,0.1-18.6,0.1c-3.1,0-6.1,0.1-9,0.1c0-4.1,0-8.2,0.1-12.3
		c0-4.1,0-8.2-0.1-12.3c2.9,0,5.9,0.1,9,0.1c5.9,0,12.1,0.1,18.6,0.1c0,4,0,8-0.1,12.1C98.5,129.4,98.5,133.5,98.5,137.5z
		 M79.9,111.4c-3.1,0-6.1,0.1-9,0.1c0-8.4-0.1-16.6-0.1-24.6c3,0,6,0.1,9.1,0.1c5.9,0,12.2,0.1,18.7,0.1c0,7.9-0.1,15.9-0.1,24.2
		C92.1,111.4,85.9,111.4,79.9,111.4z M70.9,139.3c2.9,0,5.9,0.1,9,0.1c5.9,0,12.1,0.1,18.6,0.1c0,8.2,0.1,16.3,0.1,24.1
		c-6.5,0-12.7,0.1-18.7,0.1c-3.1,0.1-6.1,0.1-9.1,0.1C70.9,155.9,70.9,147.6,70.9,139.3z M79.9,85.3c-3.1,0-6.1,0.1-9.1,0.1
		c0-1.1,0-2.2,0-3.2c0-7.5-0.1-14.6-0.2-21.4c3,0,6.1,0.1,9.4,0.1c6,0,12.3,0.1,19,0.1c-0.1,6.7-0.2,13.8-0.2,21.2c0,1,0,2,0,3
		C92.2,85.2,86,85.3,79.9,85.3z M70.8,168.6c0-1.1,0-2.1,0-3.2c3,0,6,0.1,9.1,0.1c5.9,0,12.2,0.1,18.7,0.1c0,1,0,2,0,3
		c0,7.4,0.1,14.5,0.2,21.2c-6.5,0-12.9,0.1-19,0.1c-3.2,0-6.3,0.1-9.4,0.1C70.7,183.1,70.8,176.1,70.8,168.6z M99.2,44.6
		c0,4.5-0.1,9.4-0.2,14.5c-6.6,0-12.9,0.1-19,0.1c-3.2,0-6.3,0.1-9.4,0.1c-0.1-5.2-0.2-10.2-0.2-14.8c0-3.5-0.1-6.8-0.2-9.9
		c3.2,0,6.4,0.1,9.8,0.1c6.1,0,12.6,0.1,19.4,0.1C99.3,38,99.2,41.2,99.2,44.6z M99.7,17.9c-0.1,4-0.2,9.1-0.4,15
		c-6.7,0-13.2,0.1-19.4,0.1c-3.4,0-6.6,0.1-9.8,0.1c-0.1-6-0.3-11.2-0.4-15.3c0-0.8,0-1.6-0.1-2.3h30.1
		C99.8,16.4,99.8,17.1,99.7,17.9z M100.8,215.8c0.1-3,0.1-6.2,0.2-9.6c0.1-4.5,0.1-9.4,0.2-14.5c9,0.1,18.6,0.1,28.4,0.2
		c0.1,5,0.2,9.9,0.2,14.3c0,3.3,0.1,6.5,0.2,9.4C119.8,215.7,110,215.8,100.8,215.8z M129.1,137.3c-9.5,0.1-18.8,0.1-27.6,0.2
		c0-4,0-8,0.1-12.1c0-4,0-8-0.1-12.1c8.8,0.1,18.1,0.1,27.6,0.2c0,3.9,0,7.9-0.1,11.9C129.1,129.4,129.1,133.3,129.1,137.3z
		 M101.5,111.3c0-8.2-0.1-16.3-0.1-24.1c8.9,0.1,18.2,0.1,27.8,0.2c0,7.7-0.1,15.7-0.1,23.8C119.6,111.2,110.3,111.2,101.5,111.3z
		 M101.5,139.5c8.8,0.1,18.1,0.1,27.6,0.2c0,8.1,0.1,16,0.1,23.7c-9.6,0.1-19,0.1-27.8,0.2C101.5,155.8,101.5,147.7,101.5,139.5z
		 M101.4,85.2c0-1,0-2,0-3c0-7.4-0.1-14.4-0.2-21.2c9,0.1,18.5,0.1,28.3,0.2c-0.1,6.6-0.2,13.7-0.2,21c0,0.9,0,1.9,0,2.8
		C119.7,85,110.3,85.1,101.4,85.2z M101.4,168.6c0-1,0-2,0-3c8.9,0.1,18.2,0.1,27.9,0.2c0,0.9,0,1.9,0,2.8c0,7.3,0.1,14.3,0.2,21
		c-9.8,0.1-19.3,0.1-28.4,0.2C101.3,183,101.4,176,101.4,168.6z M101.1,59.1c-0.1-5.1-0.2-10-0.2-14.5c0-3.4-0.1-6.6-0.2-9.6
		c9.3,0.1,19.1,0.1,29.2,0.2c-0.1,3-0.1,6.1-0.2,9.4c0,4.5-0.1,9.3-0.2,14.3C119.7,59,110.2,59,101.1,59.1z M130.3,17.9
		c-0.1,4-0.2,9-0.4,14.8c-10.1,0.1-20,0.1-29.3,0.2c-0.1-5.9-0.3-11-0.4-15c0-0.8,0-1.6-0.1-2.3h30.1
		C130.4,16.4,130.4,17.1,130.3,17.9z M153.5,215.5c-7.5,0.1-14.9,0.1-22.1,0.1c0.1-3,0.1-6.1,0.2-9.4c0-4.5,0.1-9.3,0.2-14.3
		c7.1,0.1,14.3,0.1,21.8,0.1c2.2,0,4.4,0,6.7,0c0.1,5,0.2,9.7,0.2,14.2c0,3.3,0.1,6.3,0.2,9.3C158.2,215.5,155.8,215.5,153.5,215.5z
		 M132.2,113.5c6.9,0,14,0.1,21.3,0.1c2,0,4.2,0,6.2,0c0,3.9,0,7.8-0.1,11.7c0,3.9,0,7.8,0.1,11.7c-2.1,0-4.2,0-6.2,0
		c-7.2,0.1-14.3,0.1-21.4,0.1c0-3.9,0-7.9,0.1-11.9C132.2,121.4,132.2,117.5,132.2,113.5z M153.5,139.8c2.1,0,4.2,0,6.2,0
		c0,7.9,0.1,15.8,0.1,23.4c-2.1,0-4.3,0-6.4,0c-7.3,0-14.4,0.1-21.5,0.1c0-7.7,0.1-15.7,0.1-23.7
		C139.1,139.7,146.2,139.8,153.5,139.8z M159.8,111c-2.1,0-4.2,0-6.2,0c-7.2,0-14.3,0.1-21.4,0.1c0-8.1-0.1-16-0.1-23.7
		c7,0,14.1,0.1,21.5,0.1c2.1,0,4.2,0,6.4,0C159.8,95.2,159.8,103,159.8,111z M153.5,84.8c-7.3,0-14.4,0.1-21.5,0.1
		c0-0.9,0-1.9,0-2.8c0-7.3-0.1-14.3-0.2-21c7.1,0,14.3,0.1,21.7,0.1c2.2,0,4.4,0,6.6,0c-0.1,6.6-0.2,13.6-0.2,20.8
		c0,0.9,0,1.7,0,2.6C157.8,84.8,155.6,84.8,153.5,84.8z M132,168.6c0-0.9,0-1.9,0-2.8c7,0.1,14.1,0.1,21.5,0.1c2.1,0,4.3,0,6.4,0
		c0,0.9,0,1.8,0,2.6c0,7.2,0.1,14.2,0.2,20.8c-2.2,0-4.4,0-6.6,0c-7.4,0-14.6,0.1-21.7,0.1C131.9,182.8,132,175.9,132,168.6z
		 M153.5,58.8c-7.4,0.1-14.6,0.1-21.8,0.1c-0.1-5-0.2-9.8-0.2-14.3c0-3.3-0.1-6.5-0.2-9.4c7.2,0,14.5,0.1,22.1,0.1c2.3,0,4.7,0,7,0
		c-0.1,2.9-0.1,6-0.2,9.2c-0.1,4.4-0.1,9.2-0.2,14.2C158,58.7,155.7,58.8,153.5,58.8z M161,17.9c-0.1,3.9-0.2,8.9-0.4,14.7
		c-2.4,0-4.8,0-7.1,0c-7.5,0-14.9,0.1-22.2,0.1c-0.1-5.8-0.3-10.9-0.4-14.8c0-0.8-0.1-1.6-0.1-2.3h30.1C161,16.4,161,17.1,161,17.9z
		 M405.9,15.7c0,0.7-0.1,1.5-0.1,2.3c-0.1,4.1-0.2,9.2-0.4,15.3c-3.2,0-6.4-0.1-9.8-0.1c-6.2,0-12.6-0.1-19.4-0.1
		c-0.1-5.9-0.3-11-0.4-15c0-0.8-0.1-1.6-0.1-2.3L405.9,15.7L405.9,15.7z M405.4,34.7c-0.1,3.1-0.1,6.4-0.2,9.9
		c-0.1,4.6-0.1,9.6-0.2,14.8c-3.1,0-6.2-0.1-9.4-0.1c-6,0-12.4-0.1-19-0.1c-0.1-5.1-0.2-10-0.2-14.5c0-3.4-0.1-6.6-0.2-9.6
		c6.7,0,13.2-0.1,19.4-0.1C399,34.8,402.2,34.8,405.4,34.7z M375.3,15.7c0,0.7-0.1,1.5-0.1,2.3c-0.1,4-0.2,9.1-0.4,15
		c-9.3-0.1-19.1-0.1-29.3-0.2c-0.1-5.8-0.3-10.9-0.4-14.8c0-0.8,0-1.6-0.1-2.3H375.3L375.3,15.7z M344.6,15.7c0,0.7-0.1,1.5-0.1,2.3
		c-0.1,4-0.2,9-0.4,14.8c-7.2,0-14.6-0.1-22.2-0.1c-2.3,0-4.7,0-7.1,0c-0.1-5.8-0.3-10.7-0.4-14.7c0-0.8-0.1-1.6-0.1-2.3L344.6,15.7
		L344.6,15.7z M314,15.7c0,0.7-0.1,1.5-0.1,2.3c-0.1,3.9-0.2,8.9-0.4,14.7c-9.6,0-19.4,0-29.3-0.1c-0.1-5.7-0.3-10.7-0.4-14.6
		c0-0.8,0-1.6-0.1-2.3H314z M313.5,35.4c-0.1,2.9-0.1,6-0.2,9.2c-0.1,4.4-0.1,9.2-0.2,14.1c-9.3,0-18.8,0-28.4-0.1
		c-0.1-4.9-0.1-9.7-0.2-14.1c0-3.2-0.1-6.3-0.2-9.2C294.3,35.4,304,35.4,313.5,35.4z M283.4,15.7c0,0.7,0,1.5-0.1,2.3
		c-0.1,3.9-0.2,8.8-0.4,14.6c-9.6,0-19.5,0-29.3-0.1c-0.1-5.7-0.3-10.6-0.4-14.5c0-0.8,0-1.6-0.1-2.3H283.4z M282.9,35.4
		c-0.1,2.9-0.1,5.9-0.2,9.2c0,4.4-0.1,9.2-0.2,14.1c-9.4,0-18.9-0.1-28.4-0.1c-0.1-4.9-0.2-9.6-0.2-14c0-3.2-0.1-6.2-0.2-9.1
		C263.6,35.5,273.3,35.5,282.9,35.4z M252.8,15.7c0,0.7-0.1,1.5-0.1,2.3c-0.1,3.9-0.2,8.8-0.4,14.5c-4.9,0-9.7,0-14.6,0
		s-9.7,0-14.6,0c-0.1-5.7-0.3-10.6-0.4-14.5c0-0.8,0-1.6-0.1-2.3H252.8z M252.3,35.5c-0.1,2.9-0.1,5.9-0.2,9.1
		c-0.1,4.4-0.1,9.1-0.2,14c-4.7,0-9.4,0-14.2,0c-4.7,0-9.4,0-14.2,0c-0.1-4.9-0.2-9.6-0.2-14c0-3.2-0.1-6.2-0.2-9.1
		c4.8,0,9.7,0,14.5,0C242.6,35.5,247.5,35.5,252.3,35.5z M222.3,15.7c0,0.7,0,1.5-0.1,2.3c-0.1,3.9-0.2,8.8-0.4,14.5
		c-9.8,0-19.6,0-29.3,0.1c-0.1-5.7-0.3-10.7-0.4-14.6c0-0.8,0-1.6-0.1-2.3H222.3z M193.3,84.7c0-0.8,0-1.7,0-2.5
		c0-7.2-0.1-14.1-0.2-20.7c9.3,0,18.9,0,28.3,0.1c-0.1,6.6-0.2,13.5-0.2,20.6c0,0.8,0,1.6,0,2.5C211.7,84.7,202.5,84.7,193.3,84.7z
		 M221,87.7c0,7.5-0.1,15.3-0.1,23.1c-9.2,0-18.5,0-27.6,0.1c0-7.9-0.1-15.7-0.1-23.2C202.5,87.7,211.7,87.7,221,87.7z M193,58.7
		c-0.1-4.9-0.2-9.7-0.2-14.1c0-3.2-0.1-6.3-0.2-9.2c9.6,0,19.4,0,29.2,0.1c-0.1,2.9-0.1,5.9-0.2,9.1c0,4.4-0.1,9.1-0.2,14
		C211.8,58.6,202.4,58.6,193,58.7z M161.6,17.9c0-0.8,0-1.6-0.1-2.3h30.1c0,0.7,0,1.5-0.1,2.3c-0.1,3.9-0.2,8.9-0.4,14.6
		c-9.9,0-19.7,0-29.3,0.1C161.8,26.8,161.7,21.9,161.6,17.9z M190.4,137c-9.3,0-18.6,0-27.6,0.1c0-3.9,0-7.8,0.1-11.7
		c0-3.9,0-7.8-0.1-11.7c9,0,18.3,0.1,27.6,0.1c0,3.9,0,7.7-0.1,11.6C190.3,129.3,190.4,133.2,190.4,137z M162.8,110.9
		c0-7.9-0.1-15.8-0.1-23.4c9.1,0,18.4,0,27.8,0.1c0,7.6-0.1,15.4-0.1,23.3C181,110.9,171.8,110.9,162.8,110.9z M162.7,84.8
		c0-0.9,0-1.7,0-2.6c0-7.2-0.1-14.2-0.2-20.8c9.3,0,18.8,0,28.3,0.1c-0.1,6.6-0.2,13.5-0.2,20.7c0,0.8,0,1.7,0,2.5
		C181,84.7,171.8,84.8,162.7,84.8z M190.5,166.1c0,0.8,0,1.7,0,2.5c0,7.2,0.1,14.1,0.2,20.7c-9.6,0-19.1,0-28.3,0.1
		c0.1-6.6,0.2-13.5,0.2-20.8c0-0.9,0-1.7,0-2.6C171.8,166,181,166.1,190.5,166.1z M162.4,58.7c-0.1-4.9-0.2-9.7-0.2-14.1
		c0-3.3-0.1-6.3-0.2-9.2c9.5,0,19.3,0,29.2,0.1c-0.1,2.9-0.1,5.9-0.2,9.2c0,4.4-0.1,9.2-0.2,14.1C181.1,58.7,171.7,58.7,162.4,58.7z
		 M162,215.5c0.1-2.9,0.1-6,0.2-9.2c0-4.4,0.1-9.2,0.2-14.1c9.3,0,18.8,0.1,28.4,0.1c0.1,4.9,0.2,9.7,0.2,14.1
		c0,3.2,0.1,6.3,0.2,9.2C181.2,215.4,171.5,215.4,162,215.5z M253.8,215.3c0.1-2.9,0.1-5.9,0.2-9.1c0.1-4.4,0.1-9.1,0.2-14
		c9.5,0,19.1-0.1,28.4-0.1c0.1,4.9,0.2,9.7,0.2,14.1c0,3.2,0.1,6.3,0.2,9.2C273.3,215.4,263.6,215.3,253.8,215.3z M284.4,215.4
		c0.1-2.9,0.1-5.9,0.2-9.2c0-4.4,0.1-9.2,0.2-14.1c9.6,0,19.1-0.1,28.4-0.1c0.1,5,0.2,9.7,0.2,14.1c0,3.3,0.1,6.3,0.2,9.2
		C304,215.4,294.3,215.4,284.4,215.4z M284.8,189.2c0.1-6.6,0.2-13.5,0.2-20.7c0-0.8,0-1.7,0-2.5c9.4,0,18.7-0.1,27.9-0.1
		c0,0.9,0,1.7,0,2.6c0,7.2,0.1,14.2,0.2,20.8C303.9,189.3,294.5,189.3,284.8,189.2z M322,215.5c-2.3,0-4.7,0-7,0
		c0.1-2.9,0.1-6,0.2-9.3c0.1-4.4,0.1-9.2,0.2-14.2c2.2,0,4.5,0,6.7,0c7.4-0.1,14.6-0.1,21.8-0.1c0.1,5,0.2,9.9,0.2,14.3
		c0,3.3,0.1,6.4,0.2,9.4C337,215.6,329.6,215.5,322,215.5z M322,166c7.3-0.1,14.4-0.1,21.5-0.1c0,0.9,0,1.9,0,2.8
		c0,7.3,0.1,14.3,0.2,20.9c-7.1,0-14.3-0.1-21.7-0.1c-2.2,0-4.4,0-6.6,0c0.1-6.6,0.2-13.6,0.2-20.8c0-0.9,0-1.7,0-2.6
		C317.8,166,319.9,166,322,166z M315.6,163.3c0-7.6,0.1-15.5,0.1-23.4c2.1,0,4.2,0,6.2,0c7.2,0,14.3-0.1,21.4-0.1
		c0,8.1,0.1,16,0.1,23.7c-7,0-14.1-0.1-21.5-0.1C319.9,163.3,317.8,163.3,315.6,163.3z M345.6,215.6c0.1-3,0.1-6.1,0.2-9.4
		c0-4.5,0.1-9.3,0.2-14.3c9.8-0.1,19.4-0.1,28.4-0.2c0.1,5.1,0.2,10,0.2,14.5c0,3.4,0.1,6.6,0.2,9.6
		C365.5,215.8,355.7,215.7,345.6,215.6z M346.4,113.5c9.5-0.1,18.8-0.1,27.6-0.2c0,4,0,8-0.1,12.1c0,4,0,8,0.1,12.1
		c-8.8-0.1-18.1-0.1-27.6-0.2c0-3.9,0.1-7.9,0.1-11.9C346.4,121.4,346.4,117.5,346.4,113.5z M374,139.5c0,8.2,0.1,16.3,0.1,24.1
		c-8.9-0.1-18.2-0.1-27.8-0.2c0-7.7,0.1-15.7,0.1-23.7C355.9,139.6,365.2,139.6,374,139.5z M374.1,165.7c0,1,0,2,0,3
		c0,7.4,0.1,14.4,0.2,21.1c-9-0.1-18.6-0.1-28.4-0.2c0.1-6.6,0.2-13.7,0.2-21c0-0.9,0-1.9,0-2.8
		C355.9,165.8,365.3,165.7,374.1,165.7z M395.6,215.9c-6.2,0-12.6-0.1-19.4-0.1c0.1-3,0.1-6.2,0.2-9.6c0.1-4.5,0.1-9.4,0.2-14.5
		c6.6,0,12.9-0.1,19-0.1c3.2,0,6.3-0.1,9.4-0.1c0.1,5.2,0.2,10.2,0.2,14.8c0,3.5,0.1,6.8,0.2,9.9C402.2,216,399,216,395.6,215.9z
		 M377,113.3c6.4,0,12.6-0.1,18.6-0.1c3.1,0,6.1-0.1,9-0.1c0,4.1,0,8.2-0.1,12.3c0,4.1,0,8.2,0.1,12.3c-2.9,0-5.9-0.1-9-0.1
		c-5.9,0-12.1-0.1-18.6-0.1c0-4,0-8,0.1-12.1C377.1,121.4,377,117.3,377,113.3z M395.6,139.4c3.1,0,6.1-0.1,9-0.1
		c0,8.4,0.1,16.6,0.1,24.6c-3,0-6-0.1-9.1-0.1c-5.9,0-12.2-0.1-18.7-0.1c0-7.9,0.1-15.9,0.1-24.1
		C383.4,139.4,389.6,139.4,395.6,139.4z M395.6,165.5c3.1,0,6.2-0.1,9.1-0.1c0,1.1,0,2.2,0,3.2c0,7.5,0.1,14.6,0.2,21.4
		c-3,0-6.1-0.1-9.4-0.1c-6-0.1-12.3-0.1-19-0.1c0.1-6.7,0.2-13.8,0.2-21.2c0-1,0-2,0-3C383.3,165.6,389.6,165.6,395.6,165.5z
		 M406.8,216.1c0.1-3.1,0.1-6.4,0.2-9.9c0.1-4.6,0.1-9.6,0.2-14.8c10.6-0.1,20.2-0.2,28.4-0.3c0.1,5.3,0.2,10.4,0.2,15.1
		c0,3.6,0.1,7,0.2,10.2C427.7,216.3,417.8,216.2,406.8,216.1z M435.2,138.1c-8-0.1-17.3-0.2-27.6-0.3c0-4.1,0-8.2,0.1-12.3
		c0-4.1,0-8.2-0.1-12.3c10.3-0.1,19.6-0.2,27.6-0.3c0,4.2,0,8.4-0.1,12.7C435.2,129.6,435.2,133.9,435.2,138.1z M407.6,111.6
		c0-8.4-0.1-16.7-0.1-24.7c10.4-0.1,19.8-0.2,27.8-0.3c0,8.2-0.1,16.7-0.1,25.4C427.3,111.8,417.9,111.7,407.6,111.6z M407.6,139.2
		c10.3-0.1,19.6-0.2,27.6-0.3c0,8.6,0.1,17.1,0.1,25.4c-8-0.1-17.4-0.2-27.8-0.3C407.5,155.9,407.6,147.6,407.6,139.2z M435.4,165
		c0,1.2,0,2.4,0,3.6c0,7.6,0.1,14.9,0.2,21.8c-8.2-0.1-17.8-0.2-28.4-0.3c0.1-6.8,0.2-13.9,0.2-21.4c0-1.1,0-2.2,0-3.2
		C417.9,165.2,427.3,165.1,435.4,165z M459.5,216.7c-5.1-0.1-12.6-0.2-22-0.3c0.1-3.2,0.1-6.6,0.2-10.3c0.1-4.7,0.1-9.8,0.2-15.2
		c9.2-0.1,16.5-0.2,21.6-0.3V216.7z M459.5,190.6c-5-0.1-12.3-0.1-21.6-0.3c0.1-6.9,0.2-14.2,0.3-21.8c0-1.2,0-2.4,0-3.6
		c9-0.1,16.3-0.2,21.3-0.3V190.6z M459.5,164.5c-5-0.1-12.2-0.1-21.3-0.3c0-8.3,0.1-16.8,0.1-25.4c9-0.1,16.2-0.2,21.2-0.3
		L459.5,164.5L459.5,164.5z M459.5,138.4c-5-0.1-12.1-0.1-21.2-0.3c0-4.2,0-8.5,0.1-12.7c0-4.2-0.1-8.5-0.1-12.7
		c9-0.1,16.2-0.2,21.2-0.3V138.4z M459.5,112.2c-5-0.1-12.1-0.2-21.2-0.3c0-8.6-0.1-17.2-0.1-25.4c9-0.1,16.3-0.2,21.3-0.3
		L459.5,112.2L459.5,112.2z M459.5,33.9c-0.7,0-1.5,0-2.3,0c0,0.1,0,0.2,0,0.3c0.8,0,1.5,0,2.3,0v26c-4-0.1-9.6-0.1-16.3-0.2
		c-0.5,0.2-1.1,0.4-1.6,0.6c7.5-0.1,13.6-0.2,18.1-0.2v26c-5-0.1-12.2-0.1-21.3-0.3c0-1.2,0-2.4,0-3.6c0-7.3-0.1-14.3-0.2-21
		c-0.8,0.1-1.5,0.2-2.3,0.3c-0.1,6.6-0.2,13.5-0.2,20.7c0,1.2,0,2.4,0,3.6c-7.5-0.1-16.2-0.2-25.8-0.3l-4.8,2.5
		c0,7.7-0.1,15.6-0.1,23.6c-2.9,0-5.9-0.1-9-0.1c-5.9,0-12.1-0.1-18.6-0.1c0-2.9,0-5.8,0-8.7l-1.9,1c-0.4,0.2-0.7,0.3-1.1,0.4
		c0,2.4,0,4.8,0,7.2c-8.1-0.1-16.5-0.1-25.4-0.2l-8.8,2.4c1.2,0,2.4,0,3.5,0c0,3.9,0,7.9-0.1,11.9c0,4,0,7.9,0.1,11.9
		c-6.9,0-14-0.1-21.3-0.1c-2.1,0-4.2,0-6.2,0c0-3.9,0-7.8,0.1-11.7c0-0.1,0-0.3,0-0.4l-3.1,2c0,3.4,0,6.7,0,10.1
		c-5.1,0-10.3,0-15.5,0l-4.4,2.9c6.7,0,13.3,0,19.9-0.1c0,7.9,0.1,15.8,0.1,23.4c-9.1,0-18.4,0-27.8-0.1c0-6,0.1-12.2,0.1-18.4
		l-3,2.5c0,5.4,0.1,10.7,0.1,15.9c-6.1,0-12.3,0-18.6-0.1l-3.5,3c7.4,0,14.7,0,22.1-0.1c0,0.8,0,1.7,0,2.5c0,7.2,0.1,14.1,0.2,20.7
		c-9.3,0-18.9,0-28.3-0.1c0.1-5.8,0.2-11.9,0.2-18.2l-2.7,2.3c0,5.5,0.1,10.8,0.2,15.9c-4.7,0-9.4,0-14.1,0c-0.2,0-0.4,0-0.6,0
		l-2.8,3.1c1.1,0,2.3,0,3.4,0c4.7,0,9.5,0,14.2,0c0.1,4.9,0.2,9.6,0.2,14c0,3.2,0.1,6.2,0.2,9.1c-4.8,0-9.7,0-14.5,0
		c-4.9,0-9.7,0-14.5,0c0.1-2.9,0.1-5.9,0.2-9.1c0-0.6,0-1.2,0-1.8l-1.8,2c0,3.1,0.1,6.1,0.2,8.9c-9.8,0-19.6,0-29.2,0.1
		c0.1-2.9,0.1-5.9,0.2-9.2c0-3.3,0.1-6.8,0.1-10.4l-0.7-0.6l0.7-0.8c0-0.7,0-1.5,0-2.2c0.7,0,1.3,0,2,0l2.6-2.9c-1.5,0-3,0-4.6,0
		c0.1-6.6,0.2-13.5,0.2-20.7c0-0.8,0-1.7,0-2.5c1.2,0,2.4,0,3.6,0l-3-2.9c-0.2,0-0.4,0-0.6,0c0-0.2,0-0.4,0-0.6l-2.8-2.7
		c0,1.1,0,2.2,0,3.3c-9.4,0-18.7,0-27.8,0.1c0-7.6,0.1-15.4,0.1-23.4c9,0,18.3,0.1,27.6,0.1c0,5.3,0,10.4,0.1,15.6l2.9-2.9
		c0-4.2,0-8.4,0.1-12.6c4.1,0,8.2,0,12.3,0l2.9-3c-5.1,0-10.2,0-15.2,0c0-3.9,0-7.7,0.1-11.6c0-3.9,0-7.8-0.1-11.6
		c9.1,0,18.4,0,27.6,0.1c0,3.7,0,7.3-0.1,11c1-0.7,2-1.3,3.1-1.7c0-3.1,0-6.2,0-9.3c4.6,0,9.2,0,13.7,0s9.1,0,13.6,0l9-3
		c-2,0-3.9,0-5.9,0c0-5,0-9.9-0.1-14.8l-2.9-0.1c0,4.9-0.1,9.9-0.1,14.9c-4.6,0-9.2,0-13.8,0c-4.6,0-9.2,0-13.8,0
		c0-7.8-0.1-15.6-0.1-23.1c2.8,0,5.7,0,8.5,0v-3.1c-2.8,0-5.7,0-8.5,0c0-0.8,0-1.7,0-2.5c0-7.2-0.1-14.1-0.2-20.6
		c4.7,0,9.4,0,14.1,0c4.7,0,9.4,0,14.1,0c-0.1,3.9-0.1,8-0.1,12.2l2.6-0.2c0-4.1-0.1-8.1-0.2-12c9.5,0,19,0,28.3-0.1
		c-0.1,3.4-0.1,6.8-0.1,10.3c0.3,0,0.6,0,0.9,0.1l1.7,0.3c0-3.7-0.1-7.2-0.1-10.7c9.6,0,19.1,0,28.3-0.1c-0.1,4.9-0.1,10-0.2,15.3
		l2.7,0.4c0-5.4-0.1-10.7-0.2-15.7c2.2,0,4.4,0,6.6,0c0.3,0,0.5,0,0.8,0c0.2-0.9,0.4-1.8,0.7-2.7c-0.5,0-1,0-1.5,0
		c-2.2,0-4.4,0-6.6,0c-0.1-5-0.2-9.7-0.2-14.2c0-3.3-0.1-6.3-0.2-9.2c2.3,0,4.7,0,7,0c7.5,0,14.9-0.1,22.1-0.1
		c-0.1,2.3-0.1,4.7-0.1,7.2c0.6,0,1.1-0.1,1.7-0.1c0-2.5-0.1-4.9-0.1-7.1c10.1-0.1,19.9-0.1,29.2-0.2c-0.1,3-0.1,6.2-0.2,9.6
		c0,4.5-0.1,9.4-0.2,14.5c-1.8,0-3.8,0-5.6,0c0.2,0.7,0.4,1.4,0.5,2.1c1.7,0,3.4,0,5.1,0c-0.1,5-0.1,10.3-0.2,15.7l2.6-1
		c0-5-0.1-10-0.2-14.7c6.5,0,12.9-0.1,19-0.1c3.2,0,6.3-0.1,9.4-0.1c0,1.3,0,2.6-0.1,3.9l2.4-0.9c0-1,0-2,0-3
		c7.1-0.1,13.7-0.2,19.8-0.2c-0.9-0.3-1.8-0.6-2.7-1c-5.3-0.1-11-0.1-17.1-0.2c-0.1-5.2-0.2-10.2-0.2-14.8c0-3.5-0.1-6.8-0.2-9.9
		c1.3,0,2.4,0,3.7,0c0.1-0.5,0.2-0.9,0.3-1.4c-1.3,0-2.6,0-4,0c-0.1-6-0.3-11.2-0.4-15.3c0-0.8-0.1-1.6-0.1-2.3h21.1
		c0.3-0.1,0.5-0.2,0.8-0.2c1.9-0.5,3.8-0.7,5.7-0.7c2.2,0,4.3,0.4,6.3,0.9h19.2L459.5,33.9L459.5,33.9L459.5,33.9z"/>
</g>
</svg>
