<svg id="Layer_1" xmlns="http://www.w3.org/2000/svg" viewBox="0 0 23 19"><path d="M19.9 14.3v-1.6c1.6 0 2.3-.8 2.3-.8s.8 0 .8.8c0 1.6-3.1 1.6-3.1 1.6zm0-3.1V9.6c1.6 0 2.3-.8 2.3-.8s.8 0 .8.8c0 1.5-3.1 1.6-3.1 1.6zm0-3.2c-1.7 0-3.1-.7-3.1-1.6s1.4-1.6 3.1-1.6 3.1.7 3.1 1.6S21.6 8 19.9 8zM6.1 5.6C6.1 4.7 7.5 4 9.2 4s3.1.7 3.1 1.6-1.4 1.6-3.1 1.6-3.1-.7-3.1-1.6zm9.2.8v-4h-13v6.3H13s-1.5.8-1.5 2.4H2.3v1.6h9.2v2.4H2.3v1.6h9.2V19H2.3C0 19 0 16.7 0 16.7v-4V2.4S0 0 2.3 0h13s2.3 0 2.3 2.4V4c-2.3.1-2.3 2.4-2.3 2.4zm.8 3.2c1.7 0 3.1.7 3.1 1.6s-1.4 1.6-3.1 1.6-3.1-.7-3.1-1.6 1.4-1.6 3.1-1.6zm-2.3 4s.7.8 2.3.8c1.6 0 2.3-.8 2.3-.8s.8 0 .8.8c0 1.5-3.1 1.6-3.1 1.6S13 16 13 14.4c0-.8.8-.8.8-.8zm0 3.1s.7.8 2.3.8c1.6 0 2.3-.8 2.3-.8s.8 0 .8.8c0 1.5-3.1 1.6-3.1 1.6s-3.1 0-3.1-1.6c0-.8.8-.8.8-.8zm8.4-1.6s.8 0 .8.8c0 1.5-3.1 1.6-3.1 1.6v-1.6c1.6 0 2.3-.8 2.3-.8z"/></svg>