<svg id="Layer_1" xmlns="http://www.w3.org/2000/svg" viewBox="0 0 22 22"><path d="M12.7 11.6c-.6 0-1.2.5-1.2 1.2 0 .6.5 1.2 1.2 1.2.6 0 1.2-.5 1.2-1.2s-.5-1.2-1.2-1.2zm-3.4-1.2c.6 0 1.2-.5 1.2-1.2 0-.6-.5-1.2-1.2-1.2-.6 0-1.2.5-1.2 1.2s.5 1.2 1.2 1.2zm3.4-2.3c-.6 0-1.2.5-1.2 1.2 0 .6.5 1.2 1.2 1.2.6 0 1.2-.5 1.2-1.2s-.5-1.2-1.2-1.2zm1.2-5.8H8.1v2.3h5.8V2.3zm2.3 8.1c.6 0 1.2-.5 1.2-1.2 0-.6-.5-1.2-1.2-1.2-.6 0-1.2.5-1.2 1.2.1.7.6 1.2 1.2 1.2zm0 3.5c.6 0 1.2-.5 1.2-1.2 0-.6-.5-1.2-1.2-1.2-.6 0-1.2.5-1.2 1.2.1.7.6 1.2 1.2 1.2zm-6.9 0c.6 0 1.2-.5 1.2-1.2 0-.6-.5-1.2-1.2-1.2-.6 0-1.2.5-1.2 1.2s.5 1.2 1.2 1.2zm-3.5 3.5c.6 0 1.2-.5 1.2-1.2 0-.6-.5-1.2-1.2-1.2s-1.2.5-1.2 1.2c0 .6.6 1.2 1.2 1.2zM19.7 2.3h-1.2v2.3h1.2v15.1H2.3V4.6h1.2V2.3H2.3C1 2.3 0 3.4 0 4.6v15.1C0 21 1 22 2.3 22h17.4c1.3 0 2.3-1 2.3-2.3V4.6c0-1.2-1-2.3-2.3-2.3zM5.8 13.9c.6 0 1.2-.5 1.2-1.2 0-.6-.5-1.2-1.2-1.2s-1.2.5-1.2 1.2.6 1.2 1.2 1.2zm0-3.5c.6 0 1.2-.5 1.2-1.2C7 8.6 6.5 8 5.8 8s-1.2.6-1.2 1.3c0 .6.6 1.1 1.2 1.1zm3.5 7c.6 0 1.2-.5 1.2-1.2 0-.6-.5-1.2-1.2-1.2-.6 0-1.2.5-1.2 1.2 0 .6.5 1.2 1.2 1.2zM5.8 4.6c.6 0 1.2-.5 1.2-1.2V1.2C6.9.5 6.4 0 5.8 0S4.6.5 4.6 1.2v2.3c0 .6.6 1.1 1.2 1.1zm10.4 0c.6 0 1.2-.5 1.2-1.2V1.2c0-.6-.5-1.2-1.2-1.2-.6 0-1.2.5-1.2 1.2v2.3c.1.6.6 1.1 1.2 1.1z"/></svg>