<svg id="Capa_1" xmlns="http://www.w3.org/2000/svg" viewBox="0 0 212.982 212.982"><path d="M131.804 106.49l75.936-75.935c6.99-6.99 6.99-18.323 0-25.312-6.99-6.99-18.322-6.99-25.312 0L106.49 81.18 30.555 5.242c-6.99-6.99-18.322-6.99-25.312 0-6.99 6.99-6.99 18.323 0 25.312L81.18 106.49 5.24 182.427c-6.99 6.99-6.99 18.323 0 25.312 6.99 6.99 18.322 6.99 25.312 0L106.49 131.8l75.938 75.937c6.99 6.99 18.322 6.99 25.312 0 6.99-6.99 6.99-18.323 0-25.313l-75.936-75.936z" fill-rule="evenodd" clip-rule="evenodd" id="Close"/></svg>