<svg id="Layer_1" xmlns="http://www.w3.org/2000/svg" viewBox="0 0 19 19"><path d="M16.6 19H2.4C1.1 19 0 17.9 0 16.6V2.4C0 1.1 1.1 0 2.4 0h14.2C17.9 0 19 1.1 19 2.4v14.2c0 1.3-1.1 2.4-2.4 2.4zm.8-16.5c0-.4-.4-.8-.8-.8H2.4c-.4 0-.8.4-.8.8v6.3h15.8V2.5zm0 7.8H1.6v6.3c0 .4.4.8.8.8h14.2c.4 0 .8-.4.8-.8v-6.3zm-6.3 5.5H7.9c-1.3 0-2.4-1.1-2.4-2.4 0-.4.4-.8.8-.8s.8.4.8.8.4.8.8.8h3.2c.4 0 .8-.4.8-.8s.4-.8.8-.8.8.4.8.8c0 1.4-1.1 2.4-2.4 2.4zM6.3 4.1c.4 0 .8.4.8.8s.4.8.8.8h3.2c.4 0 .8-.4.8-.8s.4-.8.8-.8.8.4.8.8c0 1.3-1.1 2.4-2.4 2.4H7.9c-1.3 0-2.4-1.1-2.4-2.4 0-.5.4-.8.8-.8z"/></svg>