<svg id="Layer_1" xmlns="http://www.w3.org/2000/svg" viewBox="0 0 324 163.1"><path d="M78.5 74.6h.3c0 2.4 0 5.5-.1 9.6v9.5h13.8V46.6H91L67.2 70.2 43.3 46.6h-1.7v46.9h13.8v-19h.2l10.7 10.6H68l10.5-10.5zM113.8 83.3v-8.5h17V65h-17v-7.1h19.6V47.6H99.5v45.9h34.8V83.2l-20.5.1zM174.2 57.9V47.7H140v45.9h14.3V57.9h19.9zM213.2 93.6l-23.4-47h-1.7l-24 47h13.7l2.4-5.2h16.7l2.3 5.2h14zm-24.4-23.1l4.1 9.1h-8.6l4.2-9.1h.3zM245.5 47.4h-35.8V51h15.9v42.4h4.3V51h15.7v-3.6zM282.4 80.1c0 2.6-.9 4.9-2.6 6.8s-4.7 3-8.9 3h-13.8V70.6h13c7.5 0 12.3 3.8 12.3 9.5zm-12-29.1c5.8 0 9.3 3.2 9.3 7.8 0 6.7-6.3 8.1-10 8.1h-12.6V51h13.3zm6.9 17.4c4.2-1.9 6.6-5.9 6.6-9.8 0-7.4-5.7-11.1-14.1-11.1h-17v46.1h18.8c4.4 0 7.9-1.1 10.8-3.6 2.8-2.5 4.2-5.6 4.2-9.7 0-5.3-2.9-10-9.3-11.7v-.2z" fill="#fff" stroke="#fff" stroke-miterlimit="10"/><path d="M7.5 7.5h309v125.3l-152.7 22.7L7.5 132.8V7.5z" fill="none" stroke="#fff" stroke-width="15" stroke-miterlimit="10"/></svg>