<svg id="Layer_1" xmlns="http://www.w3.org/2000/svg" viewBox="0 0 13 16"><path d="M12.7 3.8c-.1.2-.4.2-.5.2-.2 0-.4-.1-.6-.2-1.3-1.3-3.1-2.1-5.1-2.1s-3.7.7-5 2.1c-.3.3-.8.3-1.2 0S0 3 .3 2.6C1.9 1 4.1 0 6.5 0s4.5.9 6.2 2.6c.4.4.4.8 0 1.2zm-6.2-.2c1.6 0 3 .6 4.1 1.7.3.3.3.8 0 1.2s-.8.3-1.2 0c-.8-.8-1.9-1.2-3-1.2-1.2 0-2.2.5-3 1.2-.1.2-.3.3-.5.3s-.4-.1-.6-.2c-.3-.3-.3-.8 0-1.2 1.1-1.2 2.6-1.8 4.2-1.8zM3 8.9c.3-.3.8-.3 1.2 0l2.3 2.3 2.3-2.3c.3-.3.8-.3 1.2 0 .3.3.3.8 0 1.2l-2.3 2.3 2.3 2.3c.3.3.3.8 0 1.2-.2 0-.5.1-.7.1s-.4-.1-.6-.2l-2.3-2.3-2.3 2.3c-.1.1-.3.2-.5.2s-.4-.1-.6-.2c-.3-.3-.3-.8 0-1.2l2.3-2.3L3 10.1c-.3-.4-.3-.8 0-1.2z"/></svg>