<svg id="Layer_1" xmlns="http://www.w3.org/2000/svg" viewBox="0 0 40 40"><path d="M30 37.3C20.4 42.9 8.2 39.6 2.7 30S.4 8.2 10 2.7 31.8.5 37.3 10c5.5 9.6 2.3 21.8-7.3 27.3zM33.9 12C29.4 4.4 19.7 1.7 12 6.2 4.4 10.6 1.7 20.4 6.1 28c4.4 7.7 14.2 10.3 21.9 5.9 7.7-4.5 10.3-14.2 5.9-21.9zm-10.2 5.9c-.9 0-1.7-.4-2.2-1.1l-4.8 2.4c.1.3.1.5.1.8 0 .3 0 .5-.1.7l4.8 2.4c.5-.6 1.3-1.1 2.2-1.1 1.6 0 2.8 1.3 2.8 2.8 0 1.5-1.3 2.8-2.8 2.8-1.6 0-2.8-1.3-2.8-2.8 0-.3.1-.5.1-.8l-4.8-2.4c-.5.7-1.3 1.1-2.3 1.1-1.6 0-2.8-1.3-2.8-2.8s1.3-2.8 2.8-2.8c.9 0 1.7.4 2.2 1.1l4.8-2.4c-.1-.2-.1-.5-.1-.7 0-1.5 1.3-2.8 2.8-2.8 1.6 0 2.8 1.3 2.8 2.8.1 1.6-1.1 2.8-2.7 2.8z"/></svg>