<svg id="Layer_1" xmlns="http://www.w3.org/2000/svg" viewBox="0 0 20 11"><path d="M20 5.5s0 .1 0 0c0 .1 0 .1 0 0 0 .1 0 .1 0 0 0 .1 0 .1 0 0 0 .1 0 .1 0 0 0 .2-.1.4-.2.5-.2.2-.4.5-.7.7-1.2 1.2-2.7 2.3-4.2 3.1-1 .5-2.1.9-3.2 1.1-1.2.2-2.4.2-3.7 0-2.1-.5-4-1.6-5.6-2.9C1.6 7.4.8 6.8.2 6c-.3-.3-.3-.7 0-1 .2-.2.4-.5.7-.7C2.1 3.1 3.6 2 5.1 1.2 6.1.7 7.2.3 8.3.1c1.2-.2 2.4-.2 3.7 0 2.1.4 4 1.5 5.7 2.8.8.6 1.5 1.3 2.2 2 0 .2.1.3.1.5v.1zM10 1.8c-2.1 0-3.8 1.7-3.8 3.7 0 2.1 1.7 3.7 3.8 3.7 2.1 0 3.8-1.7 3.8-3.7 0-2.1-1.7-3.7-3.8-3.7zm0 4.9c-.7 0-1.3-.6-1.3-1.2 0-.7.6-1.2 1.3-1.2.7 0 1.3.6 1.3 1.2 0 .7-.6 1.2-1.3 1.2z"/></svg>