<svg id="Layer_1" xmlns="http://www.w3.org/2000/svg" viewBox="0 0 19 19"><path d="M9.5 19C4.3 19 0 14.7 0 9.5S4.3 0 9.5 0 19 4.3 19 9.5 14.7 19 9.5 19zm0-17.7C5 1.3 1.3 5 1.3 9.5s3.7 8.2 8.2 8.2 8.2-3.7 8.2-8.2S14 1.3 9.5 1.3zm3.4 9.4l.4 3c0 .2-.1.5-.3.6-.1.1-.6.1-.7 0L9.5 13s-2.8 1.2-2.9 1.3-.6.1-.7 0c-.2-.1-.3-.4-.3-.6l.4-3-2.1-2.2c-.2-.2-.2-.4-.2-.7.1-.2.3-.4.5-.5l3-.6L8.7 4c.1-.2.4-.4.7-.4.3 0 .5.2.6.4l1.5 2.7 3 .6c.2 0 .4.2.5.5.1.2 0 .5-.2.7l-1.9 2.2zm-2-3L9.5 5.1 8.1 7.7l-2.8.6 1.9 2-.4 2.8 2.7-1.2 2.7 1.2-.4-2.8 1.9-2-2.8-.6z"/></svg>