<svg id="Layer_1" xmlns="http://www.w3.org/2000/svg" viewBox="0 0 40 40"><path d="M20 40C9 40 0 31 0 20S9 0 20 0s20 9 20 20-9 20-20 20zm0-36.6C10.9 3.4 3.4 10.9 3.4 20c0 9.1 7.4 16.6 16.6 16.6S36.6 29.1 36.6 20c0-9.1-7.5-16.6-16.6-16.6zm6.7 25.2c0 .8-.6 1.3-1.4 1.3H14.7c-.8 0-1.3-.6-1.3-1.3V16h-1.2v-2.2c0-.8.6-1.4 1.4-1.4h2.7v-1.7c0-.3.3-.6.6-.6h6.3c.3 0 .6.3.6.6v1.7h2.7c.8 0 1.4.6 1.4 1.4V16h-1.2v12.6zm-12.1 0c0 .1 0 .1.1.1h10.7c.1 0 .1 0 .1-.1V16H14.6v12.6zm8-17.3h-5.2v1.1h5.2v-1.1zm4 2.5c0-.1 0-.1-.1-.1h-13c-.1 0-.1 0-.1.1v1h13.2v-1zm-4.3 3.6h1.2v10.2h-1.2V17.4zm-2.9 0h1.2v10.2h-1.2V17.4zm-2.9 0h1.2v10.2h-1.2V17.4z"/></svg>