<svg id="Layer_1" xmlns="http://www.w3.org/2000/svg" viewBox="0 0 70 70"><path d="M65.3 17.5C55.6.8 34.2-5 17.5 4.7S-5 35.8 4.7 52.5C14.4 69.2 35.8 75 52.5 65.3 69.2 55.6 75 34.2 65.3 17.5zM49 59.2C35.6 66.9 18.5 62.3 10.8 49 3.1 35.6 7.7 18.5 21 10.8 34.4 3.1 51.5 7.7 59.2 21 67 34.4 62.4 51.5 49 59.2zm-1.4-25.6L29.3 22.9c-1.7-1-3-.2-3 1.7l.1 21.2c0 1.9 1.4 2.7 3 1.7L47.6 37c1.7-.9 1.7-2.4 0-3.4z"/><path d="M65.3 17.5C55.6.8 34.2-5 17.5 4.7S-5 35.8 4.7 52.5C14.4 69.2 35.8 75 52.5 65.3 69.2 55.6 75 34.2 65.3 17.5zM49 59.2C35.6 66.9 18.5 62.3 10.8 49 3.1 35.6 7.7 18.5 21 10.8 34.4 3.1 51.5 7.7 59.2 21 67 34.4 62.4 51.5 49 59.2zm-1.4-25.6L29.3 22.9c-1.7-1-3-.2-3 1.7l.1 21.2c0 1.9 1.4 2.7 3 1.7L47.6 37c1.7-.9 1.7-2.4 0-3.4z"/></svg>