<?xml version="1.0" encoding="utf-8"?>
<!-- Generator: Adobe Illustrator 19.1.0, SVG Export Plug-In . SVG Version: 6.00 Build 0)  -->
<svg version="1.1" id="Layer_1" xmlns="http://www.w3.org/2000/svg" xmlns:xlink="http://www.w3.org/1999/xlink" x="0px" y="0px"
	 viewBox="0 0 24 24" style="enable-background:new 0 0 24 24;" xml:space="preserve">
<path style="fill:#FFFFFF;" d="M12,0C5.4,0,0,5.4,0,12s5.4,12,12,12s12-5.4,12-12S18.6,0,12,0z M19.5,9.7l-6.7,6.7l-2.2,2.2
	c-0.3,0.3-0.6,0.3-1,0l0,0c0,0,0,0,0,0l-2.2-2.2c0,0,0,0,0,0l-2.8-2.8c-0.1-0.1-0.2-0.3-0.2-0.5c0-0.2,0.1-0.3,0.2-0.5l2.2-2.2
	c0.1-0.1,0.3-0.2,0.5-0.2c0.2,0,0.4,0,0.5,0.2l2.4,2.4l6.2-6.2c0.1-0.1,0.3-0.2,0.5-0.2c0.2,0,0.3,0.1,0.5,0.2l2.2,2.2
	c0.1,0.1,0.2,0.3,0.2,0.5C19.7,9.4,19.6,9.5,19.5,9.7z"/>
</svg>
