<svg id="Layer_1" xmlns="http://www.w3.org/2000/svg" viewBox="0 0 421 216"><path d="M325 75.2l-21.6 6h-.4c-4.8.8-6.9.5-9.7-2.7h-.1c-2.4-2.9-5.7-4.6-9.2-5v-.1l-33.9-5.5c-.4-.1-.8-.1-1.2-.1l-39.1 2.7.1 9.9 38.6 1.6 13.1 2.1-24.8 16.2c-.4.3-.7.6-1.1.9L200.5 113c-1.3.4-2.5 1.2-3.5 2.2L172.6 140l12.7 12.3 22.9-23.4 17-5.7-18.4 15.8c-.3.3-.6.5-.8.8L176.1 173l13.2 11.8 29.5-32.8 31.7-27.1c.6-.3 1.3-.6 1.9-1l37-24.1 39.7-11c.4-.1.8-.3 1.2-.4l34.5-18.2-4.2-9-35.6 14z"/><path d="M313.8 73.3c8.4-3.9 12-13.9 8-22.2-4-8.3-14-11.9-22.3-7.9-8.4 3.9-11.9 13.9-8 22.2 3.9 8.3 13.9 11.9 22.3 7.9zM380.4 17.6c-9 2.2-14.5 11.3-12.2 20.2 2.2 8.9 11.3 14.4 20.3 12.2 9-2.2 14.5-11.3 12.2-20.2-2.2-8.9-11.3-14.4-20.3-12.2zM250.1 86.6l.3-.2-.3-.1v.3z"/><path d="M414-.2H7.2c-3.9 0-7 3.1-7 7v209h14v-23.2c4.6.1 11.2.1 19.5.2.1 5.5.3 10.2.3 13.9.2 5.7.3 9 .3 9s.1-3.3.3-9c.1-3.7.2-8.4.3-13.9 7.4.1 16.2.2 25.9.3.1 5.4.3 10 .3 13.6.2 5.7.3 9 .3 9s.1-3.3.3-9c.1-3.6.2-8.2.3-13.6 2.8 0 5.7.1 8.7.1 5.5 0 11.2.1 17.2.1.1 5.3.3 9.8.3 13.4.2 5.7.3 9 .3 9s.1-3.3.3-9c.1-3.6.2-8.1.3-13.4 8.3.1 16.9.1 26 .2.1 5.2.3 9.7.3 13.2.2 5.7.3 9 .3 9s.1-3.3.3-9c.1-3.5.2-8 .3-13.2 6.4 0 13 .1 19.7.1h6.3c.1 5.1.2 9.6.3 13 .2 5.7.3 9 .3 9s.1-3.3.3-9c.1-3.5.2-7.9.3-13 8.5 0 17.2 0 26 .1.1 5.1.2 9.5.3 13 .2 5.7.3 9 .3 9s.1-3.3.3-9c.1-3.5.2-7.9.3-13 8.6 0 17.3 0 26 .1.1 5.1.2 9.4.3 12.9.2 5.7.3 9 .3 9s.1-3.3.3-9c.1-3.5.2-7.8.3-12.9h26c.1 5.1.3 9.4.3 12.9.2 5.7.3 9 .3 9s.1-3.3.3-9c.1-3.5.2-7.8.3-12.9 8.7 0 17.4-.1 26-.1.1 5.1.2 9.5.3 13 .2 5.7.3 9 .3 9s.1-3.3.3-9c.1-3.5.2-7.9.3-13 8.8 0 17.5-.1 26-.1.1 5.1.2 9.5.3 13 .2 5.7.3 9 .3 9s.1-3.3.3-9c.1-3.5.2-7.9.3-13h6.3c6.7 0 13.3-.1 19.7-.1.1 5.2.3 9.7.3 13.2.2 5.7.3 9 .3 9s.1-3.3.3-9c.1-3.5.2-8 .3-13.2 9-.1 17.7-.1 26-.2.1 5.3.3 9.8.3 13.4.2 5.7.3 9 .3 9s.1-3.3.3-9c.1-3.6.2-8.1.3-13.4 6 0 11.7-.1 17.2-.1 3 0 5.9-.1 8.7-.1.1 5.4.3 10 .3 13.6.2 5.7.3 9 .3 9s.1-3.3.3-9c.1-3.6.2-8.2.3-13.6 9.8-.1 18.5-.2 25.9-.3.1 5.5.3 10.2.3 13.9.2 5.7.3 9 .3 9s.1-3.3.3-9c.1-3.7.2-8.4.3-13.9 8.3-.1 15-.2 19.5-.3v23.3h14.1V6.8c-.6-3.9-3.8-7-7.7-7zM14.2 53.3c4.5.1 11 .1 19.1.2-.1 6.1-.2 12.6-.2 19.4v3.2c-8 .1-14.5.2-18.9.2v-23zm0 23.3c4.4.1 10.9.1 18.9.2 0 7.3-.1 14.9-.1 22.6-8 .1-14.4.2-18.8.2v-23zm0 23.2c4.4.1 10.8.1 18.8.2 0 3.8 0 7.5-.1 11.3 0 3.8 0 7.6.1 11.3-8 .1-14.4.2-18.8.2v-23zm0 23.2c4.4.1 10.8.1 18.8.2 0 7.7.1 15.3.1 22.6-8 .1-14.5.2-18.9.2v-23zm0 23.2c4.4.1 10.9.1 18.9.2v3.2c0 6.8.1 13.3.2 19.4-8.2.1-14.7.2-19.1.2v-23zm0 46.2v-23.1c4.5.1 11 .1 19.1.2.1 4.7.2 9.3.2 13.5 0 3.2.1 6.3.2 9.1-8.3.2-14.9.3-19.5.3zm19.4-153c-.1 4.2-.1 8.8-.2 13.5-8.2.1-14.7.2-19.1.2v-23c4.5.1 11.2.1 19.5.2-.1 2.9-.2 5.9-.2 9.1zm.5-23.6c-.1 3.7-.2 8.4-.3 13.9-8.3.1-15 .2-19.5.2V13.7h19.9c-.1.7-.1 1.4-.1 2.1zm.9 176.4c.1-2.8.1-5.9.2-9.1.1-4.2.1-8.7.2-13.5 7.3.1 15.7.2 25.2.3.1 4.6.1 9.1.2 13.2 0 3.1.1 6 .2 8.8-9.8.1-18.6.2-26 .3zm25.2-69.9c-9.1.1-17.4.2-24.5.3 0-3.8 0-7.5.1-11.3 0-3.8 0-7.5-.1-11.3 7.1.1 15.3.2 24.5.3 0 3.7 0 7.3-.1 11 0 3.7.1 7.3.1 11zm-24.5-23c0-7.7-.1-15.2-.1-22.6 7.1.1 15.4.2 24.7.3 0 7.1-.1 14.5-.1 22-9.2.1-17.4.2-24.5.3zm0 24c7.1.1 15.3.2 24.5.3 0 7.5.1 14.8.1 22-9.2.1-17.5.2-24.7.3 0-7.5.1-14.9.1-22.6zm24.6 23.4v2.9c0 6.7.1 13 .2 19.1-9.4.1-17.9.2-25.1.3.1-6.1.2-12.6.2-19.4v-3.2c7.2.1 15.5.2 24.7.3zm0-73.7v2.9c-9.2.1-17.5.2-24.7.3V73c0-6.8-.1-13.2-.2-19.4 7.2.1 15.7.2 25.1.3-.1 6-.2 12.4-.2 19.1zM35.4 52.9c-.1-4.7-.2-9.3-.2-13.5 0-3.2-.1-6.3-.2-9.1 7.4.1 16.1.2 25.9.3-.1 2.8-.1 5.7-.2 8.8-.1 4.1-.1 8.5-.2 13.2-9.4.1-17.9.2-25.1.3zm25.9-37.1c-.1 3.6-.2 8.2-.3 13.6-9.8.1-18.5.2-25.9.3-.1-5.5-.3-10.2-.3-13.9 0-.7 0-1.4-.1-2h26.7c-.1.6-.1 1.3-.1 2zm9.6 175.9c-3 0-5.9.1-8.7.1.1-2.7.1-5.7.2-8.8 0-4.1.1-8.5.2-13.1 2.7 0 5.5.1 8.4.1 5.4 0 11 .1 16.8.1.1 4.5.1 8.9.2 12.9 0 3 .1 5.9.1 8.6-6 .1-11.8.1-17.2.1zM87.2 122c-5.7 0-11.2.1-16.5.1-2.7 0-5.4.1-8 .1 0-3.6 0-7.3.1-10.9 0-3.7 0-7.3-.1-11 2.6 0 5.2.1 8 .1 5.2 0 10.8.1 16.5.1 0 3.6 0 7.2-.1 10.7.1 3.7.1 7.3.1 10.8zM70.9 98.9c-2.7 0-5.4.1-8 .1 0-7.4-.1-14.8-.1-21.9 2.6 0 5.3.1 8.1.1 5.3 0 10.8.1 16.6.1 0 7-.1 14.2-.1 21.5-5.8 0-11.3 0-16.5.1zm-8 24.7c2.6 0 5.3.1 8 .1 5.3 0 10.8.1 16.5.1 0 7.3.1 14.5.1 21.5-5.7 0-11.3.1-16.6.1-2.8 0-5.5.1-8.1.1 0-7.2 0-14.4.1-21.9zm8-47.9c-2.8 0-5.5.1-8.1.1v-2.9c0-6.6-.1-13-.2-19 2.7 0 5.5.1 8.3.1 5.4 0 11 .1 16.8.1-.1 6-.2 12.3-.2 18.8v2.7c-5.8 0-11.4.1-16.6.1zm-8.2 73.9v-2.9c2.6 0 5.3.1 8.1.1 5.3 0 10.8.1 16.6.1v2.6c0 6.6.1 12.9.2 18.8-5.8 0-11.5.1-16.8.1-2.9 0-5.6.1-8.3.1.1-5.9.2-12.2.2-18.9zM87.8 39.4c0 4-.1 8.4-.2 12.9-5.8 0-11.5.1-16.8.1-2.9 0-5.6.1-8.3.1-.1-4.6-.1-9-.2-13.1 0-3.1-.1-6-.2-8.8 2.8 0 5.7.1 8.7.1 5.5 0 11.2.1 17.2.1-.1 2.8-.2 5.6-.2 8.6zm.5-23.6c-.1 3.6-.2 8.1-.3 13.4-6 0-11.7.1-17.2.1-3 0-5.9.1-8.7.1-.1-5.4-.3-10-.3-13.6 0-.7 0-1.4-.1-2h26.7c-.1.6-.1 1.3-.1 2zm.9 175.8c.1-2.7.1-5.5.2-8.5 0-4 .1-8.4.2-12.9 8 .1 16.5.1 25.2.2.1 4.5.1 8.8.2 12.7 0 3 .1 5.7.1 8.4-9 0-17.6.1-25.9.1zm25.2-69.7c-8.5.1-16.6.1-24.5.2 0-3.6 0-7.1.1-10.7 0-3.6 0-7.2-.1-10.7 7.8.1 16 .1 24.5.2 0 3.5 0 7-.1 10.6 0 3.3.1 6.9.1 10.4zM89.9 98.8c0-7.3-.1-14.5-.1-21.4 7.9.1 16.1.1 24.7.2 0 6.9-.1 14-.1 21.1-8.5 0-16.7 0-24.5.1zm0 25c7.8.1 16 .1 24.5.2 0 7.2.1 14.2.1 21.1-8.6.1-16.8.1-24.7.2 0-7.1.1-14.2.1-21.5zm-.1-48.2V73c0-6.6-.1-12.8-.2-18.8 8 .1 16.4.1 25.1.2-.1 5.9-.2 12.2-.2 18.6v2.5c-8.6 0-16.8 0-24.7.1zm0 74V147c7.9.1 16.1.1 24.7.2v2.5c0 6.5.1 12.7.2 18.7-8.7.1-17.1.1-25.1.2.1-6.1.2-12.4.2-19zm-.2-97.3c-.1-4.5-.1-8.9-.2-12.9 0-3-.1-5.9-.1-8.5 8.2.1 16.9.1 25.9.2-.1 2.6-.1 5.4-.1 8.4 0 4-.1 8.3-.2 12.7-8.9 0-17.3.1-25.3.1zm25.8-36.5c-.1 3.5-.2 8-.3 13.2-9 .1-17.7.1-25.9.2-.1-5.3-.3-9.8-.3-13.4 0-.7 0-1.4-.1-2h26.7c0 .6 0 1.3-.1 2zM136 191.3c-6.7 0-13.2.1-19.6.1.1-2.6.1-5.4.1-8.4 0-4 .1-8.3.2-12.7 6.3 0 12.7.1 19.3.1h5.9c.1 4.4.1 8.7.2 12.6 0 2.9.1 5.6.1 8.2-2 .1-4.2.1-6.2.1zm-18.9-90.5c6.2 0 12.5.1 18.9.1h5.5c0 3.5 0 6.9-.1 10.4 0 3.5 0 7 .1 10.4H136c-6.4 0-12.7.1-18.9.1 0-3.5 0-7 .1-10.5-.1-3.5-.1-7-.1-10.5zm18.9 23.3h5.6c0 7.1.1 14 .1 20.8H136c-6.5 0-12.8.1-19 .1 0-6.9.1-13.9.1-21.1 6.1.2 12.4.2 18.9.2zm5.5-25.7h-5.6c-6.4 0-12.7.1-18.9.1 0-7.2-.1-14.2-.1-21.1 6.2 0 12.5.1 19 .1h5.7c0 6.9 0 13.9-.1 20.9zM136 75.3c-6.5 0-12.8.1-19 .1v-2.5c0-6.5-.1-12.7-.2-18.6 6.3 0 12.7.1 19.2.1h5.9c-.1 5.9-.2 12.1-.2 18.5v2.3c-1.9.1-3.9.1-5.7.1zm-19.1 74.3v-2.5c6.2 0 12.6.1 19 .1h5.7v2.3c0 6.4.1 12.6.2 18.5h-5.9c-6.6 0-13 .1-19.2.1.1-5.7.2-12 .2-18.5zM136 52c-6.6 0-13 .1-19.3.1-.1-4.5-.1-8.8-.2-12.7 0-3-.1-5.7-.1-8.4 6.4 0 12.9.1 19.6.1h6.2c-.1 2.6-.1 5.3-.1 8.2 0 3.9-.1 8.2-.2 12.6-2 .1-4 .1-5.9.1zm6.6-36.2c-.1 3.5-.2 7.9-.3 13H136c-6.7 0-13.2.1-19.7.1-.1-5.2-.3-9.7-.3-13.2 0-.7 0-1.4-.1-2h26.7v2.1zm216.9-2c0 .6-.1 1.3-.1 2-.1 3.6-.2 8.2-.3 13.6-2.8 0-5.7-.1-8.7-.1-5.5 0-11.2-.1-17.2-.1-.1-5.3-.3-9.8-.3-13.4 0-.7-.1-1.4-.1-2h26.7zm-.4 16.8c-.1 2.8-.1 5.7-.2 8.8-.1 4.1-.1 8.5-.2 13.1-2.7 0-5.5-.1-8.3-.1-5.4 0-11-.1-16.8-.1-.1-4.5-.1-8.9-.2-12.9 0-3-.1-5.9-.1-8.6 5.9 0 11.7-.1 17.2-.1 2.9 0 5.8 0 8.6-.1zm-26.6-16.8c0 .6 0 1.3-.1 2-.1 3.6-.2 8.1-.3 13.4-8.3-.1-16.9-.1-26-.2-.1-5.2-.3-9.7-.3-13.2 0-.7 0-1.4-.1-2h26.8zm-27.2 0c0 .6 0 1.3-.1 2-.1 3.5-.2 8-.3 13.2-6.4 0-13-.1-19.7-.1h-6.3c-.1-5.1-.2-9.5-.3-13 0-.7-.1-1.4-.1-2l26.8-.1zm-27.1 0c0 .6 0 1.3-.1 2-.1 3.5-.2 7.9-.3 13-8.5 0-17.2 0-26-.1-.1-5.1-.3-9.5-.3-13 0-.7 0-1.4-.1-2l26.8.1zm-.4 17.4c-.1 2.6-.1 5.3-.1 8.2 0 3.9-.1 8.2-.2 12.6-8.3 0-16.7 0-25.2-.1-.1-4.4-.1-8.6-.2-12.5 0-2.9-.1-5.6-.1-8.2h25.8zm-26.7-17.4c0 .6 0 1.3-.1 2-.1 3.5-.2 7.9-.3 13-8.6 0-17.2 0-26-.1-.1-5.1-.2-9.4-.3-12.9 0-.7 0-1.4-.1-2h26.8zm-.4 17.5c-.1 2.6-.1 5.3-.1 8.2 0 3.9-.1 8.1-.2 12.5-8.3 0-16.7 0-25.2-.1-.1-4.4-.1-8.6-.2-12.5 0-2.8-.1-5.5-.1-8.1h25.8zM224 13.8c0 .6 0 1.3-.1 2-.1 3.5-.2 7.8-.3 12.9h-26c-.1-5.1-.2-9.4-.3-12.9 0-.7 0-1.4-.1-2H224zm-.4 17.5c-.1 2.6-.1 5.2-.1 8.1-.1 3.9-.1 8.1-.2 12.5h-25.2c-.1-4.4-.1-8.6-.2-12.5 0-2.8-.1-5.5-.1-8.1h12.9c4.2.1 8.6 0 12.9 0zm-26.7-17.5c0 .6 0 1.3-.1 2-.1 3.5-.2 7.8-.3 12.9-8.7 0-17.4 0-26 .1-.1-5.1-.2-9.5-.3-13 0-.7 0-1.4-.1-2h26.8zm-25.8 61.4V73c0-6.4-.1-12.6-.2-18.4 8.3 0 16.7 0 25.1.1-.1 5.8-.2 12-.2 18.4v2.2c-8.2-.1-16.5-.1-24.7-.1zm24.7 2.7c0 6.7-.1 13.6-.1 20.6-8.2 0-16.4 0-24.5.1 0-7-.1-13.9-.1-20.7 8.2-.1 16.5-.1 24.7 0zm-24.9-26c-.1-4.4-.1-8.6-.2-12.5 0-2.9-.1-5.6-.1-8.2 8.5 0 17.2 0 25.8.1-.1 2.5-.1 5.2-.1 8.1 0 3.9-.1 8.1-.2 12.5h-25.2zm-27.8-36.1c0-.7 0-1.4-.1-2h26.7c0 .6 0 1.3-.1 2-.1 3.5-.2 7.9-.3 13-8.8 0-17.5 0-26 .1 0-5.2-.1-9.6-.2-13.1zm25.5 105.8c-8.3 0-16.4 0-24.4.1v-10.4-10.4c8 0 16.2 0 24.4.1 0 3.4 0 6.9-.1 10.3.1 3.4.1 6.9.1 10.3zm-24.4-23.2c0-7.1-.1-14-.1-20.8 8.1 0 16.3 0 24.7.1 0 6.7-.1 13.7-.1 20.7h-24.5zm-.1-23.1V73c0-6.4-.1-12.6-.2-18.5 8.2 0 16.6 0 25.1.1-.1 5.8-.2 12-.2 18.4v2.3c-8.4-.1-16.6-.1-24.7 0zm24.6 72.1v2.3c0 6.4.1 12.6.2 18.4-8.5 0-16.9 0-25.1.1.1-5.9.2-12.1.2-18.5v-2.3c8.2-.1 16.4 0 24.7 0zM143.8 52c-.1-4.4-.1-8.7-.2-12.6 0-2.9-.1-5.6-.1-8.2 8.5 0 17.1 0 25.9.1-.1 2.6-.1 5.3-.1 8.2 0 3.9-.1 8.1-.2 12.5h-25.3zm-.3 139.3c.1-2.6.1-5.3.1-8.2 0-3.9.1-8.2.2-12.6 8.3 0 16.7 0 25.2.1.1 4.4.1 8.6.2 12.5 0 2.9.1 5.6.1 8.2h-25.8zm81.4-.1c.1-2.5.1-5.2.1-8.1 0-3.9.1-8.1.2-12.5 8.5 0 16.9 0 25.2-.1.1 4.4.1 8.6.2 12.5 0 2.9.1 5.6.1 8.2h-25.8zm27.1 0c.1-2.6.1-5.3.1-8.1 0-3.9.1-8.1.2-12.5 8.5 0 16.9 0 25.2-.1.1 4.4.1 8.6.2 12.6 0 2.9.1 5.6.1 8.2-8.5 0-17.1 0-25.8-.1zm.4-23.1c.1-5.9.2-12 .2-18.4v-2.3c8.4 0 16.6 0 24.7-.1v2.3c0 6.4.1 12.6.2 18.5h-25.1zm32.9 23.2h-6.2c.1-2.6.1-5.3.1-8.2.1-3.9.1-8.2.2-12.6h5.9c6.6 0 13-.1 19.3-.1.1 4.5.1 8.8.2 12.7 0 3 .1 5.7.1 8.4-6.4-.1-12.9-.1-19.6-.2zm0-44c6.5-.1 12.8-.1 19-.1v2.5c0 6.5.1 12.7.2 18.6-6.3 0-12.7-.1-19.2-.1h-5.9c.1-5.9.2-12.1.2-18.5v-2.3c1.9-.1 3.8-.1 5.7-.1zm-5.7-2.4c0-6.8.1-13.8.1-20.8h5.6c6.4 0 12.7-.1 18.9-.1 0 7.2.1 14.2.1 21.1-6.2 0-12.5-.1-19-.1-1.9-.1-3.8-.1-5.7-.1zm26.6 46.5c.1-2.6.1-5.4.1-8.4 0-4 .1-8.3.2-12.7 8.7-.1 17.2-.1 25.2-.2.1 4.5.1 8.9.2 12.9 0 3 .1 5.9.1 8.5-8.2.1-16.8 0-25.8-.1zm.7-90.7c8.5-.1 16.6-.1 24.4-.2 0 3.6 0 7.1-.1 10.7 0 3.6 0 7.2.1 10.7-7.8-.1-16-.1-24.5-.2 0-3.5 0-7 .1-10.6v-10.4zm24.5 23.1c0 7.3.1 14.5.1 21.4-7.9-.1-16.1-.1-24.7-.2 0-6.9.1-13.9.1-21.1 8.5 0 16.7 0 24.5-.1zm.1 23.2v2.6c0 6.6.1 12.8.2 18.8-8-.1-16.4-.1-25.1-.2.1-5.9.2-12.2.2-18.6v-2.5c8.5 0 16.8 0 24.7-.1zm18.9 44.7c-5.5 0-11.2-.1-17.2-.1.1-2.7.1-5.5.1-8.6.1-4 .1-8.4.2-12.9 5.8 0 11.5-.1 16.8-.1 2.9 0 5.6-.1 8.3-.1.1 4.6.1 9 .2 13.1 0 3.1.1 6 .2 8.8-2.7 0-5.6 0-8.6-.1zM334 100.6c5.7 0 11.2-.1 16.5-.1 2.7 0 5.4-.1 8-.1 0 3.6 0 7.3-.1 10.9 0 3.7 0 7.3.1 10.9-2.6 0-5.2-.1-8-.1-5.3 0-10.8-.1-16.5-.1 0-3.6 0-7.1.1-10.7 0-3.6 0-7.2-.1-10.7zm16.4 23.1c2.7 0 5.4-.1 8-.1 0 7.4.1 14.8.1 21.9-2.6 0-5.3-.1-8.1-.1-5.3 0-10.8-.1-16.6-.1 0-7 .1-14.2.1-21.5 5.8 0 11.3 0 16.5-.1zm0 23.2c2.8 0 5.5-.1 8.1-.1v2.9c0 6.6.1 13 .2 19-2.7 0-5.5-.1-8.3-.1-5.4 0-11-.1-16.8-.1.1-6 .2-12.3.2-18.8v-2.6c5.8-.2 11.3-.2 16.6-.2zm10 45c.1-2.7.1-5.7.2-8.8.1-4.1.1-8.5.2-13.2 9.4-.1 17.9-.2 25.2-.3.1 4.7.2 9.3.2 13.5 0 3.2.1 6.3.2 9.1-7.6-.1-16.3-.2-26-.3zm25.2-69.3c-7.1-.1-15.3-.2-24.5-.3 0-3.7 0-7.3.1-11 0-3.7 0-7.3-.1-11 9.1-.1 17.4-.2 24.5-.3 0 3.8 0 7.5-.1 11.3 0 3.8 0 7.5.1 11.3zM361.1 99c0-7.5-.1-14.8-.1-22 9.2-.1 17.5-.2 24.7-.3 0 7.3-.1 14.9-.1 22.6-7.1-.1-15.3-.2-24.5-.3zm0 24.6c9.1-.1 17.4-.2 24.5-.3 0 7.7.1 15.2.1 22.6-7.1-.1-15.4-.2-24.7-.3 0-7.3.1-14.6.1-22zm24.6 22.8v3.2c0 6.8.1 13.2.2 19.4-7.3-.1-15.7-.2-25.2-.3.1-6 .2-12.4.2-19.1v-2.9c9.3-.1 17.6-.2 24.8-.3zm21.3 46c-4.5-.1-11.2-.1-19.5-.2.1-2.9.1-5.9.2-9.1.1-4.2.1-8.8.2-13.5 8.2-.1 14.7-.2 19.1-.2v23zm0-23.1c-4.5-.1-11-.1-19.1-.2.1-6.1.2-12.6.2-19.4v-3.2c8-.1 14.5-.2 18.9-.2v23zm0-23.3c-4.4-.1-10.9-.1-18.9-.2 0-7.3.1-14.9.1-22.6 8-.1 14.4-.2 18.8-.2v23zm0-23.2c-4.4-.1-10.8-.1-18.8-.2 0-3.8 0-7.5.1-11.3 0-3.8 0-7.5-.1-11.3 8-.1 14.4-.2 18.8-.2v23zm0-23.2c-4.4-.1-10.8-.1-18.8-.2 0-7.7-.1-15.3-.1-22.6 8-.1 14.5-.2 18.9-.2v23zm0-69.7h-2v.2h2v23c-3.6 0-8.5-.1-14.5-.2l-1.5.6c6.7-.1 12.1-.2 16-.2v23.1c-4.4-.1-10.8-.1-18.9-.2V73c0-6.5-.1-12.7-.2-18.7-.7.1-1.3.2-2 .2-.1 5.9-.2 12-.2 18.4v3.2c-6.7-.1-14.4-.2-22.9-.3l-4.3 2.3c0 6.8-.1 13.8-.1 21-2.6 0-5.3-.1-8-.1-5.3 0-10.8-.1-16.5-.1v-7.7l-1.7.9c-.3.2-.6.3-1 .4v6.4c-7.2 0-14.7-.1-22.5-.1l-7.8 2.2h3.1c0 3.5 0 7-.1 10.5 0 3.5 0 7 .1 10.5-6.2 0-12.5-.1-18.9-.1h-5.5c0-3.5 0-6.9.1-10.4v-.4l-2.8 1.8v9h-13.7l-3.9 2.5h17.6c0 7.1.1 14 .1 20.8-8.1 0-16.3 0-24.7-.1 0-5.3.1-10.8.1-16.4l-2.6 2.3c0 4.8.1 9.5.1 14.1h-16.5l-3.1 2.7h19.6v2.2c0 6.4.1 12.6.2 18.4-8.3 0-16.7 0-25.1-.1.1-5.2.2-10.6.2-16.2l-2.4 2c0 4.9.1 9.6.2 14.1h-13.1l-2.5 2.8H223c.1 4.3.1 8.6.2 12.5 0 2.8.1 5.5.1 8.1h-25.8c.1-2.5.1-5.2.1-8.1v-1.6l-1.6 1.8c0 2.8.1 5.4.1 7.9-8.7 0-17.3 0-25.9.1.1-2.6.1-5.3.1-8.2s.1-6.1.1-9.3l-.6-.5.6-.7v-2h1.8l2.3-2.6h-4c.1-5.8.2-12 .2-18.4v-2.2h3.2l-2.7-2.6h-.5v-.5l-2.5-2.4v2.9c-8.3 0-16.6 0-24.7.1 0-6.8.1-13.7.1-20.8 8 0 16.2 0 24.5.1 0 4.7 0 9.3.1 13.8l2.6-2.6c0-3.7 0-7.5.1-11.2h10.9l2.6-2.7h-13.5c0-3.4 0-6.9.1-10.3 0-3.5 0-6.9-.1-10.3 8.1 0 16.2 0 24.4.1v9.8c.9-.6 1.8-1.1 2.8-1.6v-8.2H222.4l8-2.7h-5.2c0-4.5 0-8.8-.1-13.2L223 85c0 4.4 0 8.8-.1 13.3h-24.4c0-7-.1-13.9-.1-20.5h7.6V75h-7.6v-2.2c0-6.4-.1-12.5-.2-18.4h25.1c-.1 3.5-.1 7.1-.1 10.8l2.3-.2c0-3.6-.1-7.2-.1-10.7 8.4 0 16.8 0 25.1-.1-.1 3-.1 6.1-.1 9.2.3 0 .5 0 .8.1l1.5.3c0-3.2-.1-6.4-.1-9.5 8.5 0 16.9 0 25.1-.1-.1 4.4-.1 8.9-.2 13.6l2.4.4c0-4.8-.1-9.5-.2-14H286.3l.6-2.4h-7.2c-.1-4.4-.1-8.7-.2-12.6 0-2.9-.1-5.6-.1-8.2h6.2c6.7 0 13.2-.1 19.6-.1-.1 2-.1 4.2-.1 6.4.5 0 1-.1 1.5-.1 0-2.2-.1-4.3-.1-6.3 9-.1 17.6-.1 25.9-.2-.1 2.7-.1 5.5-.1 8.5 0 4-.1 8.4-.2 12.9h-5c.2.6.3 1.2.5 1.9h4.5c-.1 4.5-.1 9.2-.2 14l2.3-.9c0-4.5-.1-8.9-.2-13.1 5.8 0 11.4-.1 16.8-.1 2.9 0 5.6-.1 8.3-.1v3.4l2.1-.8v-2.6c6.3-.1 12.2-.1 17.6-.2l-2.4-.9c-4.7-.1-9.7-.1-15.2-.2-.1-4.6-.1-9.1-.2-13.2 0-3.1-.1-6-.1-8.8h3.3l.3-1.2H361c-.1-5.4-.3-10-.3-13.6 0-.7-.1-1.4-.1-2h18.7c.2-.1.4-.1.7-.2 1.7-.4 3.4-.6 5.1-.6 1.9 0 3.8.3 5.6.8h17l-.7 16.2z"/></svg>