<svg id="Layer_1" xmlns="http://www.w3.org/2000/svg" viewBox="0 0 344 332"><path d="M176.5 251.1L136 236.5c-2.2-1-4.9-.1-6 2.1-1.1 2.2-.1 4.9 2.1 5.9l43.9 16.2 43.7-16c2.3-.9 3.5-3.4 2.6-5.7-.9-2.3-3.4-3.5-5.8-2.6l-40 14.7zM175.7 71.7c-38 0-59.8 23.8-59.8 65.1s47.8 88.6 59.8 88.6 59.8-47.2 59.8-88.6c.1-41.3-21.8-65.1-59.8-65.1zm0 134.6c-11.5-8.8-41.9-40.5-41.9-69.4 0-31.5 14.1-47.3 41.9-47.3s41.9 15.9 41.9 47.3c0 29-30.4 60.7-41.9 69.4z"/><path d="M172.6-.2C77.8-.2.6 74.3.6 165.8s77.2 166 172 166 172-74.5 172-166c0-91.6-77.1-166-172-166zm110.4 269c-4.6-31.1-23.1-59.5-64.4-59.5-5 0-9.1 4-9.1 9s4.1 9 9.1 9c41.6 0 47.2 37.9 47.5 56-25.9 19.2-58.3 30.7-93.4 30.7-35.2 0-67.5-11.5-93.5-30.7.3-18.2 5.9-56 47.5-56 5 0 9-4 9-9s-4-9-9-9c-41.3 0-59.9 28.5-64.4 59.5-26.9-26.7-43.5-62.9-43.5-103 0-81.6 69-148 153.9-148s153.9 66.4 153.9 148c-.1 40-16.7 76.3-43.6 103z"/></svg>