<?xml version="1.0" encoding="utf-8"?>
<!-- Generator: Adobe Illustrator 19.0.1, SVG Export Plug-In . SVG Version: 6.00 Build 0)  -->
<svg version="1.1" id="Layer_1" xmlns="http://www.w3.org/2000/svg" xmlns:xlink="http://www.w3.org/1999/xlink" x="0px" y="0px"
	 viewBox="0 0 530 258" style="enable-background:new 0 0 530 258;" xml:space="preserve">
<path d="M525.6,17.4c-4.7-4.8-12.1-8.8-22.3-12c-10.2-3.3-19.8-4.9-29-4.9c-11.4,0-21.6,3.1-30.5,9.4c-7.7,5.3-14.5,12.9-20.5,22.9
	c-4.2,6.8-9.3,16.3-15.2,28.6c-6.9,13.8-12.1,23.4-15.6,29c-5.9,8.8-11.8,15.9-17.5,21.4c-6.9,6.5-15.1,11.9-24.5,16.2
	c-3,1.5-5.7,2.4-8.2,2.8c-2.5,0.4-5.8,0.6-10,0.6h-7.8c-9.9,0-24.5-5-43.9-15c-19.3-10-33.5-15-42.4-15c-4.7,0-9.2,0.5-13.6,1.5
	c-4.3,1-8.4,2.6-12.1,4.9c-21.1,12.1-37.4,25.7-48.9,40.9c-11.5,15.2-23.6,34.8-36.2,58.6c-8.2,8.8-21,15-38.5,18.5
	s-45.3,5.3-83.3,5.3c-3.7,0-5.6,1.4-5.6,4.3c0,2.2,1.1,3.6,3.3,4.3c16.1,6,30.7,5.6,43.7,8.4c13,2.8,25.1,3.1,36.2,3.1
	c16.9,0,33.1-3.1,48.7-9.2c9.4-3.7,21.9-4.3,37.5-13.5c5-2.7,9.3-5,13-7c5.2-2.7,9.5-4.7,13-5.9v34.7l-1.5,3c0,2.5,1.6,3.7,4.8,3.7
	h8.5c4.2,0,7.8,0.2,11,0.5c3.2,0.3,5.4,0.6,6.6,0.9c2.7,0.5,4.3-0.2,4.8-2c0.5-1.8,0.7-3.6,0.7-5.3v-7.3c-1.5-6.3-3-12.8-4.5-19.4
	V216h26.2c3.4,0,7.4-0.3,12-0.8c4.6-0.5,9.4-1.4,14.6-2.6v7.4c0,1,0.2,5.8,0.7,14.6c0.5,8.7,0.7,14.6,0.7,17.5
	c0,3.2,1.5,4.8,4.5,4.8h23.8c3.7,0,5.6-1.5,5.6-4.5v-6.7c0-3-0.1-5.4-0.4-7.1l-5.1-23.1v-8.6c11.2-1.8,21.3-4.4,30.5-7.9
	c9.2-3.5,17.8-7.6,26-12.4c9.9-6.3,19-13.5,27.1-21.8c8.2-8.3,16.5-18.3,24.9-30.1c4.7-6.3,8.6-14.5,11.5-24.8
	c1.5-4.5,3.8-14.5,7.1-30.1c2.5-10.8,4.5-18.4,5.9-22.9c2.5-8,5.5-14.4,8.9-19.2c6.4-8,15.6-12,27.5-12c3.7,0,8.3,2,13.7,6
	c11.4,8.5,18.2,12.8,20.5,12.8c3.7,0,7.3-1.5,10.8-4.5c3.5-3,5.8-6.5,7.1-10.5C531.3,24.6,529.8,20.6,525.6,17.4z M517.4,25
	c-1.4,0-2.5-1.1-2.5-2.5c0-1.4,1.1-2.5,2.5-2.5s2.5,1.1,2.5,2.5C519.9,23.8,518.8,25,517.4,25z"/>
</svg>
