<?xml version="1.0" encoding="utf-8"?>
<!-- Generator: Adobe Illustrator 19.0.1, SVG Export Plug-In . SVG Version: 6.00 Build 0)  -->
<svg version="1.1" id="Layer_1" xmlns="http://www.w3.org/2000/svg" xmlns:xlink="http://www.w3.org/1999/xlink" x="0px" y="0px"
	 viewBox="0 0 393 410" style="enable-background:new 0 0 393 410;" xml:space="preserve">
<path d="M378.3-0.5v10.6c0,6.4-4.8,11.6-10.8,11.6h-20.8c-6,0-10.8-5.2-10.8-11.6V-0.5h-278v10.6c0,6.4-4.9,11.6-10.8,11.6H26.3
	c-6,0-10.8-5.2-10.8-11.6V-0.5H0.2v410h15.3c0-0.1,0-0.2,0-0.2v-11c0-6.4,4.9-11.6,10.8-11.6H47c6,0,10.8,5.2,10.8,11.6v11
	c0,0.1,0,0.2,0,0.2h278c0-0.1,0-0.2,0-0.2v-11c0-6.4,4.9-11.6,10.8-11.6h20.8c6,0,10.8,5.2,10.8,11.6v11c0,0.1,0,0.2,0,0.2h15v-410
	H378.3z M57.8,352.2c0,6.4-4.9,11.6-10.8,11.6H26.2c-6,0-10.8-5.2-10.8-11.6v-11c0-6.4,4.9-11.6,10.8-11.6H47
	c6,0,10.8,5.2,10.8,11.6V352.2z M57.8,295.2c0,6.4-4.9,11.6-10.8,11.6H26.2c-6,0-10.8-5.2-10.8-11.6v-11c0-6.4,4.9-11.6,10.8-11.6
	H47c6,0,10.8,5.2,10.8,11.6V295.2z M57.8,238.2c0,6.4-4.9,11.6-10.8,11.6H26.2c-6,0-10.8-5.2-10.8-11.6v-11
	c0-6.4,4.9-11.6,10.8-11.6H47c6,0,10.8,5.2,10.8,11.6V238.2z M57.8,181.2c0,6.4-4.9,11.6-10.8,11.6H26.2c-6,0-10.8-5.2-10.8-11.6
	v-11c0-6.4,4.9-11.6,10.8-11.6H47c6,0,10.8,5.2,10.8,11.6V181.2z M57.8,124.2c0,6.4-4.9,11.6-10.8,11.6H26.2
	c-6,0-10.8-5.2-10.8-11.6v-11c0-6.4,4.9-11.6,10.8-11.6H47c6,0,10.8,5.2,10.8,11.6V124.2z M57.8,67.2c0,6.4-4.9,11.6-10.8,11.6H26.2
	c-6,0-10.8-5.2-10.8-11.6v-11c0-6.4,4.9-11.6,10.8-11.6H47c6,0,10.8,5.2,10.8,11.6V67.2z M318.6,370.7c0,7.5-4.8,16.3-12.4,16.3H90
	c-7.7,0-15.3-8.8-15.3-16.3V229.5c0-7.5,7.6-10.9,15.3-10.9h216.2c7.7,0,12.4,3.4,12.4,10.9V370.7L318.6,370.7z M318.6,176.1
	c0,7.2-5.7,14.4-13.7,14.4H88.2c-8,0-13.5-7.2-13.5-14.4V33.3c0-7.2,5.5-11.3,13.5-11.3h216.7c8,0,13.7,4.1,13.7,11.3V176.1z
	 M378.3,352.2c0,6.4-4.8,11.6-10.8,11.6h-20.8c-6,0-10.8-5.2-10.8-11.6v-11c0-6.4,4.9-11.6,10.8-11.6h20.8c6,0,10.8,5.2,10.8,11.6
	V352.2z M378.3,295.2c0,6.4-4.8,11.6-10.8,11.6h-20.8c-6,0-10.8-5.2-10.8-11.6v-11c0-6.4,4.9-11.6,10.8-11.6h20.8
	c6,0,10.8,5.2,10.8,11.6V295.2z M378.3,238.2c0,6.4-4.8,11.6-10.8,11.6h-20.8c-6,0-10.8-5.2-10.8-11.6v-11c0-6.4,4.9-11.6,10.8-11.6
	h20.8c6,0,10.8,5.2,10.8,11.6V238.2z M378.3,181.2c0,6.4-4.8,11.6-10.8,11.6h-20.8c-6,0-10.8-5.2-10.8-11.6v-11
	c0-6.4,4.9-11.6,10.8-11.6h20.8c6,0,10.8,5.2,10.8,11.6V181.2z M378.3,124.2c0,6.4-4.8,11.6-10.8,11.6h-20.8
	c-6,0-10.8-5.2-10.8-11.6v-11c0-6.4,4.9-11.6,10.8-11.6h20.8c6,0,10.8,5.2,10.8,11.6V124.2z M378.3,67.2c0,6.4-4.8,11.6-10.8,11.6
	h-20.8c-6,0-10.8-5.2-10.8-11.6v-11c0-6.4,4.9-11.6,10.8-11.6h20.8c6,0,10.8,5.2,10.8,11.6V67.2z"/>
</svg>
