<svg xmlns="http://www.w3.org/2000/svg" xmlns:xlink="http://www.w3.org/1999/xlink" preserveAspectRatio="xMidYMid" width="955.062" height="482.063" viewBox="0 0 955.062 482.063">
  <defs>
    <style>
      .cls-1 {
        fill: #fff;
        fill-rule: evenodd;
      }
    </style>
  </defs>
  <path d="M622.800,60.590 C645.682,57.205 668.572,53.819 691.455,50.434 C784.181,48.035 859.181,101.170 859.279,190.080 C969.886,240.779 999.088,392.329 869.450,443.982 C817.356,464.739 753.153,439.782 701.626,449.060 C672.982,454.218 640.922,462.524 595.031,466.969 C563.911,464.506 545.666,457.523 518.545,449.060 C492.913,448.087 453.528,480.275 419.031,481.969 C376.257,484.069 339.298,455.595 325.293,451.599 C273.703,452.941 211.876,488.372 142.212,469.373 C-73.133,410.641 -46.901,93.775 241.381,121.527 C321.306,-96.969 563.217,42.111 622.800,60.590 Z" class="cls-1"/>
</svg>
