<svg id="Layer_1" xmlns="http://www.w3.org/2000/svg" viewBox="0 0 234 145"><path d="M105.7.1c15.5-1.3 28.8 6.3 40.2 16.4 11.6 10.3 24.3 18.5 39.3 22.8 6.3 1.9 13.2 2 19.5 3.9 6.6 2 13.4 4.3 19.3 7.8 10 5.9 13.1 16.4 7 26.1-4.6 7.3-10.5 14.3-17.2 19.6-22.5 18.2-48.9 28.3-76.3 36.4-24.1 7.2-48.8 11.3-73.9 11.8-15.4.3-30.8-.7-45.5-6.6-19.7-8-23.5-22.5-9.8-38.7 5.1-6 11.3-11.4 17.8-15.9 7.5-5.2 13.4-11.5 17.6-19.2 5.2-9.7 10-19.4 14.8-29.3 6.5-13.3 14.7-25 29.3-30.3C93.4 2.7 99.4.7 105.7.1zm88.2 100.8c12-7.2 23.2-13.9 30.2-25.6 4.8-8.1 2.9-15.5-5.2-20.3-3.1-1.9-6.5-3.6-10-4.3-9.3-1.6-18.7-3.5-28-3.6-32.3-.3-63.6 6.1-94.2 16.1C64.5 70.3 43 79 24.3 93.3c-5.3 4.1-10.3 9.1-14.1 14.6-5.9 8.5-3.6 17.2 5.8 21.4 7 3.2 14.8 4.8 22.3 6.3 5.2 1.1 10.6.9 16.8 1.3-6.5-8.7-6.6-12.7.9-18.8 6.6-5.5 13.9-10.3 21.6-14.1 24.8-12.1 51.5-18.4 79-19.8 9.5-.5 19.2 1.1 28.5 3 7.5 1.6 9.3 5.4 8.8 13.7zM77.3 138.1c20.1-.6 37.6-3.7 54.6-8.8 13.7-4.1 26.9-9.4 40.1-14.7 4.4-1.7 8.4-4.9 11.9-8.1 3.9-3.5 2.8-6.7-2.1-8.5-1.1-.4-2.2-.8-3.4-.8-10.1.3-20.3-.1-30.2 1.1-23.7 3-46.8 9.3-68.8 19.1-5.7 2.6-11.2 6-16.1 9.8-4.6 3.6-3.5 8 2.3 9.3 4.5 1.2 9.2 1.3 11.7 1.6zm35-116c-1 .7-4.3 2-4.8 4s1.4 5.2 3.2 6.9c3.6 3.3 10.2 3.7 12.9 1.1 1.2-1.2 1.9-3.5 1.6-5.2-.6-3.7-6.4-6.9-12.9-6.8zM96.5 32.7c-.1-3.6-2.8-5.8-6.4-4.9-5 1.3-8.4 4.6-9.8 9.7-.9 3.4 1.4 6.4 4.9 6.5 5 .1 11.4-6.2 11.3-11.3zm50.9 2.3c2.2-1.2 3.8-1.5 4.3-2.5.4-.9.1-2.6-.6-3.5-3.7-4.9-8.9-7.3-14.8-8.2-1.1-.2-3.1.6-3.3 1.4-.4 1.2 0 3.3.8 3.9 4.4 3.2 9.1 6.1 13.6 8.9zm-75.3 4.6c-.4-.7-.7-2.3-1.6-2.7-1-.4-3-.2-3.6.5-3.5 4.3-6.8 8.8-9.8 13.4-.5.7 0 2.9.8 3.5.7.6 2.6.5 3.6 0 5.4-3.1 8.5-8.1 10.6-14.7z"/></svg>