<svg id="Layer_1" xmlns="http://www.w3.org/2000/svg" viewBox="0 0 100 100"><path d="M49.3 26.1c-14.8 0-15.2 7.1-15.2 26.4 0 15.1 1.7 21.9 15.2 21.9 14.2 0 15.2-7.6 15.2-24.4 0-16.7-1-23.9-15.2-23.9zm7.3 29.4c0 7.8-.3 11.1-7.3 11.1S42 63.4 42 55.7V45.1c0-7.8.3-11.1 7.3-11.1s7.3 3.2 7.3 10.9v10.6z"/><path d="M77.9 4.4C75 1.5 71.3 0 66.8 0H33.2C28.7 0 25 1.5 22.1 4.4L4.3 22.1C1.5 24.9 0 28.6 0 32.7v34.2c0 4.7 1.6 8.3 4.8 11.4l16.9 16.9c3.3 3.3 7 4.8 11.8 4.8h33.1c4.6 0 8.4-1.4 11.8-4.8l16.9-16.9c3.1-3.1 4.8-6.8 4.8-11.4V32.7c0-4.1-1.5-7.8-4.3-10.6L77.9 4.4zm15.5 40c0 1.1-.5 1.7-1.6 1.7h-5.1v-3.6c0-2.7-.4-4-2.6-4h-2.3c-2.3 0-2.6 1.4-2.6 4v3.6h-3.6c-2.6 0-4 .4-4 2.7v2.4c0 2.3 1.4 2.7 4 2.7h3.6v3.6c0 2.6.4 4 2.6 4h2.3c2.3 0 2.6-1.4 2.6-4v-3.6h5.1c1 0 1.5.5 1.6 1.5v11.5c0 2.8-.8 4.9-2.8 6.8L73.8 90.6c-2 2-4.2 2.9-6.9 2.9H33.1c-2.7 0-4.9-.9-6.9-2.9L9.4 73.7c-2-2-2.9-4-2.8-6.8V33.5c0-2.8.9-5.2 3-7.3L26.7 8.8c1.7-1.7 3.9-2.3 6.4-2.3h33.7c2.5 0 4.7.5 6.4 2.3l17.2 17.4c2 2 3 4.5 3 7.3v10.9z"/></svg>