<?xml version="1.0" encoding="utf-8"?>
<!-- Generator: Adobe Illustrator 19.0.1, SVG Export Plug-In . SVG Version: 6.00 Build 0)  -->
<svg version="1.1" id="Layer_1" xmlns="http://www.w3.org/2000/svg" xmlns:xlink="http://www.w3.org/1999/xlink" x="0px" y="0px"
	 viewBox="0 0 23 19" style="enable-background:new 0 0 23 19;" xml:space="preserve">
<path d="M19.9,14.3v-1.6c1.6,0,2.3-0.8,2.3-0.8s0.8,0,0.8,0.8C23,14.3,19.9,14.3,19.9,14.3z M19.9,11.2V9.6
	c1.6,0,2.3-0.8,2.3-0.8s0.8,0,0.8,0.8C23,11.1,19.9,11.2,19.9,11.2z M19.9,8c-1.7,0-3.1-0.7-3.1-1.6s1.4-1.6,3.1-1.6S23,5.5,23,6.4
	S21.6,8,19.9,8z M6.1,5.6C6.1,4.7,7.5,4,9.2,4s3.1,0.7,3.1,1.6s-1.4,1.6-3.1,1.6S6.1,6.5,6.1,5.6z M15.3,6.4V4.8V2.4h-13v6.3H13
	c0,0-1.5,0.8-1.5,2.4H2.3v1.6h9.2v2.4H2.3v1.6h9.2V19c0,0-6.4,0-9.2,0C0,19,0,16.7,0,16.7v-4C0,10.8,0,2.4,0,2.4s0-2.4,2.3-2.4
	c2.7,0,13,0,13,0s2.3,0,2.3,2.4V4C15.3,4.1,15.3,6.4,15.3,6.4z M16.1,9.6c1.7,0,3.1,0.7,3.1,1.6s-1.4,1.6-3.1,1.6S13,12.1,13,11.2
	S14.4,9.6,16.1,9.6z M13.8,13.6c0,0,0.7,0.8,2.3,0.8c1.6,0,2.3-0.8,2.3-0.8s0.8,0,0.8,0.8c0,1.5-3.1,1.6-3.1,1.6S13,16,13,14.4
	C13,13.6,13.8,13.6,13.8,13.6z M13.8,16.7c0,0,0.7,0.8,2.3,0.8c1.6,0,2.3-0.8,2.3-0.8s0.8,0,0.8,0.8c0,1.5-3.1,1.6-3.1,1.6
	s-3.1,0-3.1-1.6C13,16.7,13.8,16.7,13.8,16.7z M22.2,15.1c0,0,0.8,0,0.8,0.8c0,1.5-3.1,1.6-3.1,1.6v-1.6
	C21.5,15.9,22.2,15.1,22.2,15.1z"/>
</svg>
