<?xml version="1.0" encoding="utf-8"?>
<!-- Generator: Adobe Illustrator 19.0.1, SVG Export Plug-In . SVG Version: 6.00 Build 0)  -->
<svg version="1.1" id="Layer_1" xmlns="http://www.w3.org/2000/svg" xmlns:xlink="http://www.w3.org/1999/xlink" x="0px" y="0px"
	 viewBox="0 0 7 13" style="enable-background:new 0 0 7 13;" xml:space="preserve">
<path d="M6.8,1.4L1.9,6.5l4.9,5.1c0.3,0.3,0.3,0.8,0,1.1c-0.3,0.3-0.8,0.3-1.1,0L0.3,7.1c0,0-0.1,0-0.1-0.1C0.1,6.9,0,6.7,0,6.5
	c0-0.2,0.1-0.4,0.2-0.6c0,0,0.1,0,0.1-0.1l5.4-5.6c0.3-0.3,0.8-0.3,1.1,0C7.1,0.5,7.1,1.1,6.8,1.4z"/>
</svg>
