<?xml version="1.0" encoding="utf-8"?>
<!-- Generator: Adobe Illustrator 19.0.1, SVG Export Plug-In . SVG Version: 6.00 Build 0)  -->
<svg version="1.1" id="Layer_1" xmlns="http://www.w3.org/2000/svg" xmlns:xlink="http://www.w3.org/1999/xlink" x="0px" y="0px"
	 viewBox="0 0 324 163.1" style="enable-background:new 0 0 324 163.1;" xml:space="preserve">
<path style="fill:#FFFFFF;stroke:#FFFFFF;stroke-miterlimit:10;" d="M78.5,74.6h0.3c0,2.4,0,5.5-0.1,9.6v9.5h13.8V46.6h-1.5
	L67.2,70.2L43.3,46.6h-1.7v46.9h13.8v-19h0.2l10.7,10.6H68L78.5,74.6z"/>
<path style="fill:#FFFFFF;stroke:#FFFFFF;stroke-miterlimit:10;" d="M113.8,83.3v-8.5h17v-9.8h-17v-7.1h19.6V47.6H99.5v45.9h34.8
	V83.2L113.8,83.3L113.8,83.3z"/>
<path style="fill:#FFFFFF;stroke:#FFFFFF;stroke-miterlimit:10;" d="M174.2,57.9V47.7h-34.2v45.9h14.3V57.9H174.2z"/>
<path style="fill:#FFFFFF;stroke:#FFFFFF;stroke-miterlimit:10;" d="M213.2,93.6l-23.4-47h-1.7l-24,47h13.7l2.4-5.2h16.7l2.3,5.2
	H213.2z M188.8,70.5l4.1,9.1h-8.6l4.2-9.1H188.8z"/>
<path style="fill:#FFFFFF;stroke:#FFFFFF;stroke-miterlimit:10;" d="M245.5,47.4h-35.8V51h15.9v42.4h4.3V51h15.7V47.4z"/>
<path style="fill:#FFFFFF;stroke:#FFFFFF;stroke-miterlimit:10;" d="M282.4,80.1c0,2.6-0.9,4.9-2.6,6.8s-4.7,3-8.9,3h-13.8V70.6h13
	C277.6,70.6,282.4,74.4,282.4,80.1z M270.4,51c5.8,0,9.3,3.2,9.3,7.8c0,6.7-6.3,8.1-10,8.1h-12.6V51H270.4z M277.3,68.4
	c4.2-1.9,6.6-5.9,6.6-9.8c0-7.4-5.7-11.1-14.1-11.1h-17v46.1h18.8c4.4,0,7.9-1.1,10.8-3.6c2.8-2.5,4.2-5.6,4.2-9.7
	c0-5.3-2.9-10-9.3-11.7V68.4z"/>
<path style="fill:none;stroke:#FFFFFF;stroke-width:15;stroke-miterlimit:10;" d="M7.5,7.5h309v125.3l-152.7,22.7L7.5,132.8V7.5z"/>
</svg>
