<?xml version="1.0" encoding="utf-8"?>
<!-- Generator: Adobe Illustrator 19.0.1, SVG Export Plug-In . SVG Version: 6.00 Build 0)  -->
<svg version="1.1" id="Layer_1" xmlns="http://www.w3.org/2000/svg" xmlns:xlink="http://www.w3.org/1999/xlink" x="0px" y="0px"
	 viewBox="0 0 18 16" style="enable-background:new 0 0 18 16;" xml:space="preserve">
<path d="M17.9,0.1C17.8,0,17.7,0,17.6,0L0.2,7.8C0.1,7.9,0,7.9,0,8c0,0.1,0.1,0.2,0.2,0.2l4.9,2.3c0.1,0,0.2,0,0.3,0l4.8-3.4
	l-3.8,3.7c-0.1,0.1-0.1,0.1-0.1,0.2l0.4,4.7c0,0.1,0.1,0.2,0.2,0.2c0,0,0.1,0,0.1,0c0.1,0,0.2,0,0.2-0.1L9.8,13l3.2,1.5
	c0.1,0,0.2,0,0.2,0c0.1,0,0.1-0.1,0.1-0.2l4.6-14C18,0.2,18,0.1,17.9,0.1z"/>
</svg>
