<?xml version="1.0" encoding="utf-8"?>
<!-- Generator: Adobe Illustrator 19.0.1, SVG Export Plug-In . SVG Version: 6.00 Build 0)  -->
<svg version="1.1" id="Layer_1" xmlns="http://www.w3.org/2000/svg" xmlns:xlink="http://www.w3.org/1999/xlink" x="0px" y="0px"
	 viewBox="0 0 19 19" style="enable-background:new 0 0 19 19;" xml:space="preserve">
<path d="M9.5,19C4.3,19,0,14.7,0,9.5S4.3,0,9.5,0S19,4.3,19,9.5S14.7,19,9.5,19z M9.5,1.3C5,1.3,1.3,5,1.3,9.5s3.7,8.2,8.2,8.2
	s8.2-3.7,8.2-8.2S14,1.3,9.5,1.3z M12.9,10.7l0.4,3c0,0.2-0.1,0.5-0.3,0.6c-0.1,0.1-0.6,0.1-0.7,0L9.5,13c0,0-2.8,1.2-2.9,1.3
	s-0.6,0.1-0.7,0c-0.2-0.1-0.3-0.4-0.3-0.6l0.4-3L3.9,8.5C3.7,8.3,3.7,8.1,3.7,7.8C3.8,7.6,4,7.4,4.2,7.3l3-0.6L8.7,4l0,0
	c0.1-0.2,0.4-0.4,0.7-0.4l0,0C9.7,3.6,9.9,3.8,10,4l0,0l1.5,2.7l3,0.6c0.2,0,0.4,0.2,0.5,0.5c0.1,0.2,0,0.5-0.2,0.7L12.9,10.7z
	 M10.9,7.7L9.5,5.1l0,0l0,0l0,0l0,0L8.1,7.7L5.3,8.3l1.9,2l-0.4,2.8l2.7-1.2l2.7,1.2l-0.4-2.8l1.9-2L10.9,7.7z"/>
</svg>
