<?xml version="1.0" encoding="utf-8"?>
<!-- Generator: Adobe Illustrator 19.0.1, SVG Export Plug-In . SVG Version: 6.00 Build 0)  -->
<svg version="1.1" id="Layer_1" xmlns="http://www.w3.org/2000/svg" xmlns:xlink="http://www.w3.org/1999/xlink" x="0px" y="0px"
	 viewBox="0 0 17 17" style="enable-background:new 0 0 17 17;" xml:space="preserve">
<path d="M16.7,15.2c0.4,0.4,0.4,1.1,0,1.5c-0.4,0.4-1.1,0.4-1.5,0L12,13.5c0,0,0-0.1-0.1-0.1c-1.3,0.9-2.8,1.5-4.5,1.5
	C3.4,14.9,0,11.6,0,7.4S3.3,0,7.5,0c4.1,0,7.5,3.3,7.5,7.4c0,1.7-0.6,3.2-1.5,4.5c0,0,0.1,0,0.1,0.1L16.7,15.2z M7.5,2
	C4.6,2,2.2,4.4,2.2,7.3s2.4,5.3,5.3,5.3s5.3-2.4,5.3-5.3S10.4,2,7.5,2z"/>
</svg>
