<?xml version="1.0" encoding="utf-8"?>
<!-- Generator: Adobe Illustrator 19.0.1, SVG Export Plug-In . SVG Version: 6.00 Build 0)  -->
<svg version="1.1" id="Layer_1" xmlns="http://www.w3.org/2000/svg" xmlns:xlink="http://www.w3.org/1999/xlink" x="0px" y="0px"
	 viewBox="0 0 20 12" style="enable-background:new 0 0 20 12;" xml:space="preserve">
<path d="M19.3,12H0.7C0.3,12,0,11.7,0,11.3V0.7C0,0.3,0.3,0,0.7,0h18.6C19.7,0,20,0.3,20,0.7v10.6C20,11.7,19.7,12,19.3,12z
	 M18.5,1.7c0-0.3-0.2-0.5-0.5-0.5H1.9c-0.3,0-0.5,0.2-0.5,0.5v8.6c0,0.2,0.2,0.5,0.5,0.5H18c0.3,0,0.5-0.2,0.5-0.5V1.7z M9.9,8.7
	C8.3,8.7,7,7.5,7,6s1.3-2.7,2.9-2.7s2.9,1.2,2.9,2.7S11.6,8.7,9.9,8.7z M9,4.3v3.4l2.8-1.8L9,4.3z"/>
</svg>
