<svg id="Layer_1" xmlns="http://www.w3.org/2000/svg" viewBox="0 0 56 54"><path d="M53.7 11.5c-2.3 0-4.6 2.3-9.3 2.3-4.6 0-7-2.3-9.3-2.3-1.1 0-2.3 1.2-2.3 2.3v16.1c0 5.1 2.3 11.5 11.6 11.5S56 35 56 29.9V13.8c0-1.1-1.3-2.3-2.3-2.3zM36.2 22.4c0-1.6 1.3-2.9 2.9-2.9 1.6 0 2.9 1.3 2.9 2.9s-1.3 2.9-2.9 2.9c-1.6 0-2.9-1.3-2.9-2.9zm8.2 14.4c-5.8 0-7-4.6-7-4.6h13.9s-1.1 4.6-6.9 4.6zm5.2-11.5c-1.6 0-2.9-1.3-2.9-2.9s1.3-2.9 2.9-2.9c1.6 0 2.9 1.3 2.9 2.9 0 1.6-1.3 2.9-2.9 2.9z"/><path d="M26.3 29.8c.6.1 1.2.1 1.8.1.8 0 1.6 0 2.3-.1V23h-9.3s1.2-4.6 7-4.6c1.2 0 1.6.2 2.3.4v-5c0-2.1.9-3.9 2.3-4.6 2.3-1.2 3.3-.7 4.6 0l2.3 1.2V2.3c0-1.2-1.2-2.3-2.3-2.3C35 0 32.7 2.3 28 2.3c-4.6 0-7-2.3-9.3-2.3-1.1 0-2.3 1.2-2.3 2.3v16.1c0 2 .4 4.3 1.4 6.3l1.2.6c3 1.3 5.3 2.9 7.3 4.5zM22.9 8.1c1.6 0 2.9 1.3 2.9 2.9s-1.3 2.9-2.9 2.9c-1.6 0-2.9-1.3-2.9-2.9 0-1.7 1.3-2.9 2.9-2.9zM11.3 25C6.2 25 2 27.5.9 29.7-.7 32.8-.3 36 2.8 37.6s4.3 3.2 3.1 5.5c-1.6 3.1-.4 6.7 2.7 8.3 3.7 1.9 7 2.6 9.9 2.6 5.2 0 8.9-2.5 10.7-6 4.8-9.4-1.5-16.5-10.9-21.3-2.3-1.2-4.7-1.7-7-1.7zm-3.5 8.7c-.4.8-1.2 1.2-2 1.2-.3 0-.7-.1-1-.2-1.1-.6-1.5-1.9-1-2.9.4-.8 1.2-1.2 2-1.2.3 0 .7.1 1 .2 1.2.5 1.6 1.8 1 2.9zm6.1 13.4c-.5.9-1.4 1.4-2.4 1.4-.4 0-.8-.1-1.2-.3-1.3-.6-1.8-2.2-1.2-3.5.5-.9 1.4-1.4 2.4-1.4.4 0 .8.1 1.2.3 1.3.6 1.8 2.2 1.2 3.5zm1.9-15.3c-.4.8-1.2 1.2-2 1.2-.3 0-.7-.1-1-.2-1.1-.6-1.5-1.9-1-2.9.4-.8 1.2-1.2 2-1.2.3 0 .7.1 1 .2 1.1.5 1.5 1.8 1 2.9zm7.1 7.5c.4-.8 1.2-1.2 2-1.2.3 0 .7.1 1 .2 1.1.6 1.5 1.9 1 2.9-.4.8-1.2 1.2-2 1.2-.3 0-.7-.1-1-.2-1.2-.5-1.6-1.8-1-2.9zm-2.8-7.5c.3 0 .7.1 1 .2 1.1.5 1.5 1.9 1 2.9-.4.8-1.2 1.2-2 1.2-.3 0-.7-.1-1-.2-1.1-.6-1.5-1.9-1-2.9.4-.8 1.2-1.2 2-1.2z"/></svg>