<svg id="Layer_1" xmlns="http://www.w3.org/2000/svg" viewBox="0 0 57 58"><path d="M52.7 17.1H28.4l9.2-15.7c.2-.5 0-1.1-.5-1.3-.5-.2-1.1 0-1.3.5l-9.4 16-5.3-10.8c-.2-.5-.8-.7-1.3-.4-.5.2-.7.8-.4 1.3l5.2 10.4H4.3C1.9 17.1 0 19 0 21.4v32.2C0 56 1.9 58 4.3 58h48.3c2.4 0 4.3-2 4.3-4.4V21.4c.1-2.4-1.8-4.3-4.2-4.3zm-5.3 4.7h4.7c.5 0 1 .4 1 1 0 .5-.4 1-1 1h-4.7c-.5 0-1-.4-1-1 0-.5.4-1 1-1zM33.8 37l.4.1c0 .3 0 .5-.1.8-.1 1.5-.5 2.8-1 4-1 2.1-2.7 3.4-4.6 3.4-2.9 0-5.2-3.1-5.6-7.2 0 0 2.3-.4 3.6-.9 0 0 2.4-.8 5.4-3h.1s.1.1.1.2c.3.4.8 1.8-.2 2.4l1.9.2zm-8.9 7.7c1 1 2.3 1.6 3.6 1.6 1.3 0 2.5-.6 3.6-1.6l-.7 1.6c.2-.4 1.2-.5 2.3-.5-.2 1.1-1.4 2-3.1 2.4l-2 3.2-2-3.2c-1.4-.3-2.5-1-3-1.8 1.1.1 2.1.3 2.4.7l-1.1-2.4zM41.2 53c-.4-3.3-2.7-6.1-5.9-7.1 1.4.2 2.7.4 2.7.4-2.9-1.6-2.8-7.4-2.8-7.4.5-11.2-6.8-10.6-6.8-10.6s-7.3-.6-6.8 10.6c0 0 .1 5.8-2.8 7.4 0 0 .8-.1 1.8-.1-2.7 1.2-4.6 3.8-5 6.9H6c-1.4 0-2.6-1.2-2.6-2.6v-26c0-1.4 1.1-2.6 2.6-2.6h34.2c1.4 0 2.6 1.2 2.6 2.6v26.1c.1 1.1-.6 2-1.6 2.4zm4.6-12.1c-.7 0-1.3-.6-1.3-1.3s.6-1.3 1.3-1.3c.7 0 1.3.6 1.3 1.3-.1.7-.6 1.3-1.3 1.3zm3.9 0c-.7 0-1.3-.6-1.3-1.3s.6-1.3 1.3-1.3c.7 0 1.3.6 1.3 1.3 0 .7-.6 1.3-1.3 1.3zm0-6.4c-2 0-3.6-1.6-3.6-3.7 0-2 1.6-3.7 3.6-3.7s3.6 1.6 3.6 3.7c.1 2.1-1.6 3.7-3.6 3.7zm4 6.4c-.7 0-1.3-.6-1.3-1.3s.6-1.3 1.3-1.3 1.3.6 1.3 1.3c0 .7-.6 1.3-1.3 1.3z"/><path d="M11.3 29.6c.8 0 1.6-1.1 1.7-2.1 0 0 0-.8-.5-.8 0 0-2.1.4-2.4-.5 0 0-.4.4-.5 1.2.1 1 .8 2.2 1.7 2.2zm1.6-2.4z"/><path d="M17.4 23.7H5.2c-.5 0-.8.4-.8.8v9.4c0 .5.4.8.8.8h12.2c.5 0 .8-.4.8-.8v-9.4c0-.4-.3-.8-.8-.8zm-6.1 1.5c1.1 0 2 .9 2 2s-.9 2.8-2 2.8-2-1.7-2-2.8c0-1.1.9-2 2-2zm1.2 8.1H10c-1.3 0-2.4.1-2.4-1.3 0-1.3 1-2.3 2.2-2.4 0 .4.7.8 1.4.8.8 0 1.4-.4 1.4-.8 1.2.1 2.2 1.1 2.2 2.4.1 1.4-.9 1.3-2.3 1.3zM29.2 27.2z"/></svg>