<svg id="Layer_1" xmlns="http://www.w3.org/2000/svg" viewBox="0 0 52 58"><path d="M26 25.3c2.1 0 3.7 1.7 3.7 3.7S28 32.7 26 32.7 22.3 31 22.3 29s1.6-3.7 3.7-3.7z"/><path d="M43.9 29c1.3-1.1 2.4-2.2 3.4-3.4 4.2-4.6 5.6-8.5 4.1-11.1-.7-1.2-2.4-2.7-6.5-2.7-2.7 0-6.2.7-10 1.9-.4-1.7-.8-3.2-1.2-4.7-1.9-5.9-4.6-9-7.7-9s-5.8 3.1-7.7 9.1c-.5 1.4-.9 3-1.2 4.7-3.8-1.2-7.2-1.9-10-1.9-4 0-5.8 1.5-6.5 2.7-1.6 2.7-.2 6.5 4.1 11.1 1 1.1 2.2 2.2 3.4 3.4-1.3 1.1-2.4 2.2-3.4 3.4C.5 37-.9 40.8.6 43.5c.7 1.2 2.4 2.7 6.5 2.7 2.7 0 6.2-.7 10-1.9.4 1.7.8 3.2 1.2 4.7 1.9 5.9 4.6 9.1 7.7 9.1s5.8-3.1 7.7-9.1c.5-1.4.9-3 1.2-4.7 3.8 1.2 7.2 1.9 10 1.9 4 0 5.8-1.5 6.5-2.7 1.6-2.7.2-6.5-4.1-11.1-1-1.1-2.2-2.3-3.4-3.4zM7.1 43.4c-2.1 0-3.5-.5-4-1.3-.7-1.1 0-3.8 3.7-7.8 1-1.1 2.2-2.3 3.5-3.4 1.7 1.4 3.5 2.7 5.5 4 .2 2.3.4 4.6.8 6.7-3.7 1.1-7 1.8-9.5 1.8zm8.5-12.1c-1.1-.8-2.1-1.5-3.1-2.3 1-.8 2-1.6 3.1-2.3v4.6zm.2-8.1c-2 1.3-3.8 2.6-5.5 4C9 26 7.8 24.9 6.8 23.8c-3.7-4.1-4.4-6.7-3.7-7.9.5-.8 1.9-1.3 4-1.3 2.6 0 5.8.7 9.5 1.9-.4 2.1-.6 4.3-.8 6.7zm17.4-1.9c-.7-.4-1.3-.8-2-1.2-.7-.4-1.4-.8-2-1.1 1.2-.5 2.4-1.1 3.6-1.5.1 1.2.3 2.4.4 3.8zM26 2.8c2.1 0 4.7 4.3 6.2 11.8-2 .8-4.1 1.7-6.2 2.7-2.1-1-4.2-1.9-6.2-2.7C21.3 7.1 23.9 2.8 26 2.8zm-6.7 14.7c1.2.4 2.4 1 3.6 1.5-.7.4-1.4.7-2 1.1-.7.4-1.3.8-2 1.2 0-1.4.2-2.6.4-3.8zm-.5 19.2c.7.4 1.3.8 2 1.2.7.4 1.4.8 2 1.1-1.2.5-2.4 1.1-3.6 1.5-.1-1.2-.3-2.4-.4-3.8zM26 55.2c-2.1 0-4.7-4.3-6.2-11.8 2-.8 4.1-1.7 6.2-2.7 2.1 1 4.2 1.9 6.2 2.7-1.5 7.5-4.1 11.8-6.2 11.8zm6.7-14.6c-1.2-.4-2.4-1-3.6-1.5.7-.4 1.4-.7 2-1.1.7-.4 1.3-.8 2-1.2 0 1.3-.2 2.5-.4 3.8zm.8-7.3c-1.2.8-2.4 1.5-3.7 2.2-1.3.7-2.5 1.4-3.8 2-1.3-.6-2.5-1.3-3.8-2-1.3-.7-2.5-1.5-3.7-2.2-.1-1.4-.1-2.8-.1-4.3s0-2.9.1-4.3c1.2-.8 2.4-1.5 3.7-2.2 1.3-.7 2.5-1.4 3.8-2 1.3.6 2.5 1.3 3.8 2 1.3.7 2.5 1.5 3.7 2.2.1 1.4.1 2.8.1 4.3s-.1 2.9-.1 4.3zm11.4-18.7c2.1 0 3.5.5 4 1.3.7 1.1 0 3.8-3.7 7.9-1 1.1-2.2 2.3-3.5 3.4-1.7-1.4-3.5-2.7-5.5-4-.2-2.3-.4-4.6-.8-6.7 3.7-1.2 7-1.9 9.5-1.9zm-8.5 12.1c1.1.8 2.1 1.6 3.1 2.3-1 .8-2 1.6-3.1 2.3V29v-2.3zm12.5 15.4c-.5.8-1.9 1.3-4 1.3-2.6 0-5.8-.7-9.5-1.9.3-2.1.6-4.4.8-6.7 2-1.3 3.8-2.7 5.5-4 5.8 5.1 8.3 9.5 7.2 11.3z"/></svg>