<svg id="Layer_1" xmlns="http://www.w3.org/2000/svg" viewBox="0 0 58 56"><path d="M58 22.1c0 .9-.5 2-1.7 2.9l-13.5 9.9s-.1.1-.1.2c-.1.1-.1.3-.1.4v.1l5.2 16c.2.4.2.9.2 1.4 0 .7-.2 1.3-.6 1.8-.5.8-1.4 1.2-2.3 1.2-.8 0-1.6-.3-2.3-.9l-13.5-10h-.4c-.2 0-.4.1-.4.1L15 55.1c-.7.5-1.5.9-2.3.9-.9 0-1.8-.4-2.3-1.2-.4-.5-.6-1.2-.6-1.8 0-.5.1-1 .3-1.5l5.2-16v-.1c0-.2-.2-.6-.2-.6L1.7 24.9C.5 24 0 22.9 0 22.1c0-.3.1-.7.1-.9.2-.7 1.2-2.2 3.4-2.1h16.7s.2 0 .3-.2c.2-.1.3-.3.2-.3l5.1-16C26.6.6 28.2 0 29 0v.9c-.6 0-1.7.3-2.2 2l-5.1 16c-.2.5-.9 1-1.4 1L3.6 20c-1.9 0-2.5 1-2.6 1.5-.2.6-.3 1.7 1.2 2.8l13.5 9.9c.4.3.7 1.2.5 1.7l-5.2 16c-.3 1-.3 1.9.2 2.5.4.5 1 .8 1.6.8.6 0 1.2-.2 1.8-.7l13.5-9.9c.2-.2.5-.2.9-.2.3 0 .7.1.9.2l13.5 9.9c.6.5 1.2.7 1.8.7.6 0 1.2-.3 1.6-.8.5-.6.5-1.5.2-2.5l-5.2-16c-.2-.5.1-1.4.5-1.7l13.5-9.9c1.5-1.1 1.4-2.2 1.2-2.8-.1-.5-.6-1.5-2.5-1.5H37.8c-.5 0-1.2-.5-1.4-1L31.3 3c-.6-1.8-1.6-2-2.2-2V0c.8-.1 2.5.6 3.1 2.6l5.1 16s.1.2.2.3c.2.1.3.2.3.2h16.7c2.2 0 3.2 1.4 3.4 2.1 0 .2.1.5.1.9zm-2.7 1.5l-13.5 9.9c-.7.5-1.1 1.7-.8 2.5l5.2 16c.2.8.2 1.4-.1 1.8-.2.3-.6.5-.9.5-.4 0-.8-.2-1.3-.5l-13.5-9.9c-.3-.3-.8-.4-1.4-.4-.5 0-1 .2-1.3.4l-13.5 9.9c-.5.4-.9.5-1.3.5s-.7-.2-.9-.5c-.3-.4-.3-1-.1-1.8L17 36c.3-.9-.1-2.1-.8-2.6L2.7 23.6c-1-.7-1.1-1.4-.9-1.8.1-.4.6-.9 1.8-.9h16.7c.9 0 1.9-.8 2.2-1.6l5.1-16.1c.4-1.2 1-1.5 1.5-1.5s1.1.3 1.5 1.5l5.1 16c.3.9 1.3 1.6 2.2 1.6h16.7c1.3 0 1.7.5 1.8.9 0 .5 0 1.1-1.1 1.9zm-16.6 7.5c0-5.4-4.3-9.8-9.7-9.8s-9.7 4.4-9.7 9.8 4.3 9.8 9.7 9.8c5.4 0 9.7-4.4 9.7-9.8zm-5.8-.1v4.2c0 .2-.2.3-.3.3h-1v.6c0 .2-.2.3-.3.3h-5.1c-.2 0-.3-.2-.3-.3v-.6h-1c-.2 0-.3-.2-.3-.3V31c-1-.5-1.7-1.6-1.7-2.8 0-1.8 1.4-3.2 3.1-3.2 1.2 0 2.3.7 2.8 1.7.5-1 1.6-1.7 2.8-1.7 1.7 0 3.1 1.4 3.1 3.2-.1 1.2-.8 2.3-1.8 2.8zm3.6.3V34c0 .2-.2.3-.3.3l-2.6-.6c-.2 0-.3-.2-.3-.4v-1.1c0-.2.2-.4.3-.4l2.6-.6c.2-.2.3-.1.3.1zm-12.3 1.2v.9c0 .2-.2.3-.3.3h-.2v.3c0 .2-.2.3-.3.3h-.5c-.2 0-.3-.2-.3-.3v-2c0-.2.2-.3.3-.3h.5c.2 0 .3.2.3.3v.2h.2c.1 0 .3.2.3.3z"/></svg>