<svg id="Layer_1" xmlns="http://www.w3.org/2000/svg" viewBox="0 0 48 54"><path d="M25 7.4c1.5 0 2.7 1.2 2.7 2.7s-1.2 2.7-2.7 2.7-2.7-1.2-2.7-2.7c0-1.5 1.2-2.7 2.7-2.7zM13.4 8.4c1 0 1.8.8 1.8 1.8s-.8 1.8-1.8 1.8-1.8-.8-1.8-1.8.8-1.8 1.8-1.8zM14 21.5l.2 10.4c0 .4.3.7.7.7s.7-.3.7-.7V15.2c0-.3.1-.6.4-.6.3 0 .4.3.4.6v6.4c0 .3.3.6.6.6s.6-.3.6-.6v-7.3c0-.8-.7-1.5-1.5-1.5h-1.2l-1.5 1.6-1.4-1.6h-1.3c-.8 0-1.5.6-1.5 1.5v7.3c0 .3.3.6.6.6s.6-.3.6-.6v-6.4c0-.3 0-.6.3-.6s.3.3.3.6v16.7c0 .4.3.7.7.7s.7-.3.7-.7l.2-10.4c0-.4.2-.8.6-.8.6.1.8.4.8.8zm-.6-3.6c-.1 0-.2-.1-.2-.2s.1-.2.2-.2.2.1.2.2-.1.2-.2.2zm0-1.2c-.1 0-.2-.1-.2-.2s.1-.2.2-.2.2.1.2.2-.1.2-.2.2zm0-1.2c-.1 0-.2-.1-.2-.2s.1-.2.2-.2.2.1.2.2-.1.2-.2.2zM26.7 46.6c.6 0 1.1-.5 1.1-1.1v-14h2c.6 0 1.1-.5 1.1-1.1l-2.4-5.9v-7.1c0-.5.1-.9.6-.9s.6.4.6.9v7.5c0 .5.4.9.9.9s.9-.3.9-1V16c0-1.2-1-2.2-2.2-2.2h-1.4c0 .2-.2.4-.4.4-.1 0-.2 0-.3-.1.1.1.1.2.1.3 0 .2-.2.4-.4.4s-.3-.1-.4-.3c.2.3 0 .5-.2.6-.3.1-.6-.2-.6-.4 0 0 .1.5-.4.5s-.5-.5-.5-.5c0 .2-.2.5-.5.4-.4-.1-.3-.5-.3-.5-.1.2-.2.3-.4.3s-.4-.2-.4-.4c0-.1 0-.1.1-.2-.1.1-.2.1-.3.1-.2 0-.4-.2-.4-.4 0-.1.1-.3.2-.3h-1.5c-1.2 0-2.2 1-2.2 2.2V24.5c0 .5.4.9.9.9.8 0 .9-.7.9-.7v-7.3c0-.5 0-.9.5-.9s.5.4.5.9v7.1l-2.3 5.9c0 .6.5 1.1 1.1 1.1h2.4v14c0 .6.5 1.1 1.1 1.1.6 0 1.1-.5 1.1-1.1v-14h.8v14c-.5.6 0 1.1.6 1.1z"/><path d="M28.4 37.9v7.6c0 1-.8 1.7-1.7 1.7-.6 0-1.2-.3-1.5-.8-.3.5-.9.8-1.5.8-1 0-1.7-.8-1.7-1.7V33.9l-5.7-3.5V32c0 .8-.6 1.4-1.4 1.4-.8 0-1.4-.6-1.4-1.4v-1.9h-.3V32c0 .8-.6 1.4-1.4 1.4-.8 0-1.4-.6-1.4-1.4v-2H6.5l11.6 19.9h29.7l-19.4-12zM1.6 8.8l.5 1 1.1.2-.8.8.2 1.1-1-.5-1 .5.2-1.1L0 10l1.1-.2.5-1zM8.5 0l.7 1.4 1.5.2-1.1 1.1.3 1.5-1.4-.7-1.4.7.3-1.5-1.1-1.1 1.5-.2.7-1.4zM37.8 12.7l.7 1.4 1.5.2-1.1 1.1.3 1.5-1.4-.7-1.4.7.3-1.5-1.1-1.1 1.5-.2.7-1.4zM18.4 50.9H48V54H18.4v-3.1zM6.2 30.8l11.2 19.9v3l-11.2-21v-1.9z"/></svg>