<svg id="Layer_1" xmlns="http://www.w3.org/2000/svg" viewBox="0 0 132 130"><path d="M39.6 0L0 39.7V130h132V0H39.6zM100 95.2c-2.9 5.2-7.1 9.2-12.5 12-5.4 2.8-12.3 4.1-20.8 4.1-6 0-11.2-.6-15.6-1.6-4.3-1.1-8-2.7-11-4.9s-5.5-4.6-7.4-7.4c-1.9-2.8-3.2-8.7-4.5-12.9l25.6-.1c1.3 8.1 4.7 10.4 12.4 10.4s12.3-5.4 12.5-13.7c.1-5.2-1.2-9.1-3.5-11.5-2.3-2.4-5.5-3.6-9.3-3.6-2.5 0-4.9.6-7.1 1.7-1.7.9-2.7 1.4-4.7 3.6l-21.5.1.2-35.6L47.4 22H99v17.3l-44.5.2-.7 13.9c4.1-1.9 14.1-3.6 19-3.6 9.2 0 17.3 3.8 23.1 9.1 5.7 5.3 8.6 12 8.6 20-.1 5.7-1.6 11.1-4.5 16.3z"/></svg>