<svg id="Layer_1" xmlns="http://www.w3.org/2000/svg" viewBox="0 0 469 177"><path d="M41.4 13.2C54.7 4.5 70.6-.2 86.5.2c20.5-.5 40.8 7.1 57 19.4 6.9 5.2 13.7 12 15 20.9 1.4 7.8-3.6 15.8-10.5 19.2-5.2 2.5-11.6 2.6-16.7 0-4.4-2-7.6-5.7-11.4-8.5-7.3-5.6-15.7-10-24.9-11.4-10.4-1.6-21.5.3-30.6 5.7-14 8.3-24.1 23.5-24.7 40-.4 10 1.7 20.3 7.2 28.9 6.6 10.4 17 18.6 29 21.7 10.8 2.8 22.6 2.4 32.7-2.4 7.1-3.1 12.6-8.7 18.5-13.6 2.9-2.5 6.3-4.5 10.1-5.2 7.4-1.3 15.6 1.7 19.9 8.1 3.4 4.6 3.6 10.8 2.2 16.2-2.4 7.7-8.3 13.5-14.5 18.4-14.9 11.3-33.1 18.9-51.9 19.2-9.3.3-18.8-.4-27.8-3-21.2-5.6-39.4-20-51.5-38.2C3.7 120.7-.7 102.6 0 84.8.5 74.4 2.5 64 6.6 54.3c7.2-16.8 19.8-31 34.8-41.1zM259 105.7l.2.1c-.2 16.6 0 33.1-.1 49.8 0 6-1.9 12.3-6.5 16.4-3.7 3.5-8.7 5.4-13.8 5-5.3.3-10.5-2.2-14-6.1-4-4.3-5.4-10.3-5.3-16V84.7 36.4c-10.7-.1-21.4 0-32.1 0-5.2 0-10.6-1.3-14.5-5-7.2-6.5-7.3-19.2-.3-25.9 3.3-3.3 8.1-5 12.7-5.1h107.4c6.9 0 13.8 4.1 16.6 10.5 1.6 3.3 1.4 7.1 1.2 10.7-.8 5.8-5 11-10.4 13.1-3.2 1.3-6.6 1.6-10 1.6H259c0 23 .1 46.1 0 69.4zm89.9-21.3c-.6 10.1 1.4 20.5 6.6 29.2 6.5 10.6 16.8 19 28.9 22.3 11.1 3 23.3 2.6 33.8-2.5 4.9-2.2 9-5.7 13.1-9.2 3.7-3.2 7.3-6.8 12-8.5 10.1-3.9 23 2.3 25.5 13.1.5 4.2.6 8.7-1.2 12.7-2.9 6.7-8.3 11.9-13.9 16.2-15.6 11.8-34.9 19.4-54.6 19-11.1.2-22.2-1.5-32.6-5.5-12.1-4.5-23-12-32.1-21.3-12.6-12.6-21.5-29.1-24.1-46.9-1.1-6.1-1-12.4-1-18.6.3-18 6.8-35.7 18-50 7.8-9.8 17.3-18.4 28.3-24.5C366.1 4 377.9.6 389.9 0c7-.1 14.1-.2 21 1 14 2.3 27.3 8 38.8 16.2 6.3 4.4 12.5 9.5 15.9 16.5 2.8 5.6 3.2 12.7-.2 18.1-3.4 5.9-10 9.7-16.8 9.6-5.4.1-10.4-2.6-14.3-6.1-6.8-6.1-14.6-11.3-23.4-14.1-12.2-3.9-26.1-2.5-37.1 4-13.9 8.4-24 23.1-24.9 39.2z"/></svg>