<svg id="Layer_1" xmlns="http://www.w3.org/2000/svg" viewBox="0 0 83 82"><path d="M0 0h38.6c2.2 0 4.4-.1 6.7.2 9.7.8 19 5.2 25.8 12.2 4.4 4.5 7.9 10 9.8 16 2 6.1 2.5 12.8 1.5 19.1-1 6.1-3.4 11.9-6.9 16.9-3.2 4.5-7.2 8.3-11.9 11.2-5.8 3.7-12.6 5.9-19.6 6.3-1.5.1-3.1.1-4.6.1H0V0zm37.6 24.2c-4.9.3-9.7 2.8-12.7 6.8-2.2 2.9-3.4 6.6-3.4 10.2 0 3.8 1.4 7.6 3.8 10.5 2.6 3.2 6.5 5.4 10.5 6 4 .6 8.2-.2 11.6-2.3 3.2-1.9 5.7-4.9 7.1-8.4 1.2-3.2 1.4-6.8.6-10.1-1-3.7-3.2-7.1-6.3-9.3-3.2-2.5-7.2-3.7-11.2-3.4z"/></svg>