<?xml-stylesheet href="friday-channel.css" type="text/css"?><svg xmlns="http://www.w3.org/2000/svg" width="592.214" height="240.356" viewBox="0 0 15050 6108" shape-rendering="geometricPrecision" text-rendering="geometricPrecision" image-rendering="optimizeQuality" fill-rule="evenodd" clip-rule="evenodd"><path class="fil0" d="M13937 4183c-63 6-112 61-112 124-13 186-1 372-6 558 3 89-7 181 15 269 22 62 96 99 160 82 269-33 536-66 804-98 38-4 79-13 106-43 46-40 38-110 42-165 1-185-1-371 1-556-2-66 4-135-16-199-21-55-81-85-138-79-285 37-570 70-856 107zm-9790-948c-35 4-74 14-101 40-28 30-43 74-38 116-2 222 0 445-1 666-84 15-167 25-252 32-1-184 0-366 0-550-1-61 6-129-28-186-38-49-103-59-161-46-261 32-522 66-784 96-49 6-104 8-140 46-46 40-40 109-43 164 2 753 2 1506 0 2259 4 65-4 134 33 191 23 20 49 42 79 45 71 2 140-11 209-19 224-27 448-55 672-81 48-5 102-14 132-55 35-42 29-103 31-154 0-223-1-445 0-667 85-11 168-20 253-31 0 221-2 441 0 660 1 42-4 93 30 126 31 49 96 54 148 47 267-33 533-66 798-98 45-6 95-10 130-41 35-30 45-78 42-122-1-790 0-1580-1-2370 2-51-2-113-49-145-44-37-107-23-161-20-265 32-532 64-798 97zm2818-344c-51 9-76 60-101 100-146 266-293 531-440 796-7-223 2-447-4-669 4-59-34-121-92-138-80-8-161 8-241 18-216 26-432 52-648 79-41 4-88 19-112 56-22 29-25 68-24 103 1 715 1 1432 0 2148 1 97-4 195 5 293 5 48 47 85 93 98 100 6 198-16 296-27 202-25 405-49 607-75 50 0 100-29 124-74 151-273 300-545 452-817 3 206-1 411 1 617 2 45-3 97 30 132 24 44 78 59 125 51 133-11 264-31 397-48 155-20 311-34 467-58 56-8 100-64 99-121 1-803 0-1605 1-2407 1-50-4-114-53-142-45-35-107-24-160-19-273 39-549 67-822 104zm2750-340c-70 0-153 36-160 114-3 523 3 1045-3 1568-86 13-171 21-257 32-1-487 0-977 0-1466 3-55-6-126-60-156-41-30-92-19-140-16-238 32-475 58-712 88-63 10-133 7-189 42-36 34-53 82-47 130 1 792 0 1580 0 2372 3 38-4 83 24 116 23 25 52 50 87 53 75 1 149-13 223-22 237-29 474-57 712-88 120-11 241-33 361-39 2 120-5 240 5 361 9 69 88 115 155 102 100-10 201-25 302-37 112-16 224-23 336-44 56-13 80-75 97-124 140-409 279-819 422-1229 18-50 30-116-5-161-33-56-107-60-164-63V2658c-1-64 1-139-53-182-47-36-107-24-163-19-256 31-514 63-771 94zm2051-251c-65-1-112 50-129 109-285 836-572 1673-859 2510-15 50-6 111 33 147 37 43 98 43 150 37 307-40 616-74 923-115 52-7 82-56 98-101 18-73 33-146 50-218 147-24 294-41 442-57 20 75 34 151 66 223 35 52 104 67 162 54 239-32 479-59 719-89 74-10 149-14 222-29 64-22 103-98 84-163-17-62-43-124-65-184-259-711-519-1422-778-2131-12-33-25-68-56-86-43-34-103-28-153-18-302 37-606 74-909 111zm2110-261c-54 1-111 22-139 69-36 84-9 175-4 260 46 492 94 984 137 1476 4 44 11 91 34 130 40 52 114 55 174 47 203-26 406-50 607-73 54-9 112-15 159-44 41-37 43-98 50-151 31-361 66-724 99-1085 18-195 32-390 57-584v-61c-22-41-46-91-94-101-99-9-198 9-295 21-263 32-524 64-785 96zM136 877c-41 5-88 19-113 57-24 30-20 73-22 109-1 779 1 1556-1 2334 4 50-9 105 23 148 15 29 46 41 75 50 100 5 198-16 296-27 200-22 398-50 595-70 38-7 78-8 107-36 57-35 52-110 54-169-2-492-2-986-1-1479 84-9 168-20 251-31 2 498-2 997 2 1495-6 68 41 137 110 147 66 2 131-11 196-18 223-26 448-55 672-82 33-4 64-5 94-18 44-17 75-63 74-110 0-814 1-1630 0-2444 8-78-71-149-148-132-121 10-241 31-363 43-633 79-1267 156-1901 233zm3801-466c-300 31-605 126-832 331-195 185-304 456-299 725-5 164 26 335 120 473 59 98 154 168 260 211-178 295-356 589-537 883-31 53-37 123 4 171 29 47 92 57 144 49 309-38 618-77 929-113 51-5 107-19 131-69 59-104 106-214 163-319 1 71-1 141 6 212 3 61 58 114 116 119 37 1 72-4 106-8 248-32 496-60 744-91 45-7 94-11 128-43 28-33 39-78 36-120-1-717-1-1433 0-2149-2-97 4-195-5-294-8-56-64-100-122-98-85 1-169 18-254 27-280 35-559 69-838 103zM7254 0h54c61 14 114 68 114 133 2 196-3 394 0 592 0 84 5 169-9 252-9 63-77 88-133 96-115 18-231 28-347 44v1216c-1 110 5 221-5 330-11 66-79 101-140 103-185 21-369 46-554 68-119 12-237 40-356 27-33-6-58-32-74-59-23-55-17-116-20-172 1-457 1-915 0-1372-99 11-198 26-297 37-51 0-115 6-149-41-42-38-35-100-35-151 2-235-1-469 1-702 3-43-4-95 29-126 47-54 122-50 185-61C6098 144 6676 76 7254 0z" id="Слой_x0020_1"/></svg>