<svg id="Layer_1" xmlns="http://www.w3.org/2000/svg" viewBox="0 0 72 72"><path d="M35.9 0C16.2 0 0 16.2 0 35.8 0 55.9 15.9 72 35.9 72 56 72 72 56.1 72 36.1 72.1 16.2 55.9 0 35.9 0zM20.1 56.6v2.5c-3.5-2.2-5.9-5-7.9-8.1-6.9-10.5-5.5-25.2 3.3-34.2C24.8 7.2 39 5.1 50.2 11.7c.9.5 1.5.8.5 2-7.2 8.7-14.3 17.3-21.6 25.7-.3.3-.4.7-.6 1-.2-.1-.4-.2-.5-.4 0-5.9-.1-11.7 0-17.6 0-1.7-.5-2.1-2.1-2-1.2.1-2.5.1-3.7 0-1.8-.2-2.3.4-2.3 2.2.2 11.4.2 22.6.2 34zm16.2 7.6c-5.3.1-10.2-1.3-14.6-4-.9-.5-1.4-.8-.5-1.9 7.4-8.7 14.7-17.4 22.1-26.2.2-.2.3-.6.5-.9.2.1.3.2.5.3v7.6c0 2.2-.1 4.5 0 6.7.1 1.9-.9 4.6.4 5.6 1.2 1 3.8.2 5.7.4 1.4.1 1.7-.5 1.6-1.7-.1-3.7 0-7.3 0-10.9V15.3 13c5.1 3.5 8.4 7.9 10.5 13.2 6.8 18.2-6.6 37.7-26.2 38z"/></svg>