<svg id="Layer_1" xmlns="http://www.w3.org/2000/svg" viewBox="0 0 200 37"><path d="M84.7 0H4.2C1.9 0 0 1.9 0 4.1v28.7C0 35.1 1.9 37 4.2 37h80.4l.1-37zM26 31H8V7h5v20h13v4zm7 0h-5v-5h5v5zm0-7h-5V7h5v17zm23-13H44v6h10v4H44v10h-5V7h17v4zm9 20h-5V7h18v4H65v6h12v4H65v6h14v4H65z"/><path opacity=".7" d="M195.8 0H84.7l-.1 37h111.2c2.3 0 4.2-1.9 4.2-4.1V4.2c0-2.3-1.9-4.2-4.2-4.2zm-84 30.3h-5.2L96.1 14.9v15.3h-4.9V7.5h5.2l10.4 15.3V7.5h4.9l.1 22.8zm23.8 0h-18.5V7.4H135v3.8h-13v5.6h12v3.8h-12v5.9h13.5v3.8zm27.5 0H157.6l-4.8-16.8-4.8 16.8H142.5l-5.8-22.8h5.1l3.8 15.4L150 7.5H155.7l4.4 15.4 3.8-15.4h5.1l-5.9 22.8zm25.8-3.1c-.8 1.1-1.9 2-3.3 2.5s-3.2.8-5.3.8c-3.1 0-5.5-.7-7.1-2s-2.6-3.5-3-6h4.9c.3 1.5.8 2.4 1.7 3.1.9.7 2.1 1 3.6 1 1.6 0 2.8-.3 3.6-.9.8-.6 1.2-1.3 1.2-2.2 0-.5-.2-1-.5-1.4-.3-.4-.9-.7-1.8-1-.6-.2-1.9-.5-3.9-1-2.6-.6-4.5-1.4-5.6-2.3-1.5-1.2-2.2-2.8-2.2-4.6 0-1.1.4-2.2 1.1-3.2s1.7-1.8 3-2.3c1.3-.5 2.9-.8 4.8-.8 3.1 0 5.4.6 6.9 1.9 1.6 1.3 2.4 2.9 2.4 5h-5c-.2-1.2-.6-1.8-1.3-2.3-.7-.5-1.7-.8-3.1-.8-1.4 0-2.6.3-3.3.8-.5.3-.8.8-.8 1.4 0 .5.3 1 .7 1.4.6.5 2.1 1 4.5 1.5s4.2 1.1 5.3 1.6c1.2.6 2 1.3 2.7 2.3.6 1 1 2.2 1 3.6 0 1.6-.4 2.8-1.2 3.9z"/></svg>