<svg id="svg2" xmlns="http://www.w3.org/2000/svg" viewBox="-179 112.5 600 337.5"><path id="rect3034" d="M82.7 244.1l-21.5 34.7v-34.7h-23l-15.6 20.7-15.9-20.6v-.1h-23.1v73.3H6.7v-39.1l15.8 20.6 15.6-20.3v38.8h23.6l9.6-15.5h24.4v15.5h23.1V265h12.3v52.4h23.1V265h11.6v37h35.3v15.4h23.1v-73.3h-23.1v37h-12.3v-37H82.7zm150.9 0v44.8l23.1-13.9v-30.9h-23.1zM95.7 262.6v18.5H84.3l11.4-18.5z"/><path d="M247.5 304.2h1.5l.5-.5v-2.8h-2z"/><path d="M245 291.8c-7.4 0-13.4 6-13.4 13.4s6 13.4 13.4 13.4 13.4-6 13.4-13.4-6-13.4-13.4-13.4zm-.2 9.1h-2v10.2H241v-10.2h-2v-1.6h5.8v1.6zm6.5 3.2l-1 1 1 1v4.5l-.5.5h-5.1v-11.7h5.1l.5.5v4.2z"/><path d="M247.5 305.8v3.6h2v-3l-.5-.6z"/></svg>