<?xml-stylesheet href="matchtv-channel.css" type="text/css"?><svg xmlns="http://www.w3.org/2000/svg" width="96.18mm" height="98.551" viewBox="0 0 9618 2608" shape-rendering="geometricPrecision" text-rendering="geometricPrecision" image-rendering="optimizeQuality" fill-rule="evenodd" clip-rule="evenodd"><g id="Слой_x0020_1"><path id="rect3034" class="fil0" d="M3469 0l-753 1215V0h-805l-546 725L809 4V0H0v2566h809V1197l553 721 546-710v1358h826l336-543h854v543h808V732h431v1834h808V732h406v1295h1236v539h808V0h-808v1295h-431V0H3469zm5281 0v1568l809-486V0h-809zM3924 648v647h-399l399-647z"/><g id="_861269135632"><path class="fil0" d="M9237 2104h52l18-18v-98h-70z"/><path class="fil0" d="M9149 1670c-259 0-469 210-469 469s210 469 469 469 469-210 469-469-210-469-469-469zm-7 318h-70v357h-63v-357h-70v-56h203v56zm228 112l-35 35 35 35v158l-18 17h-178v-409h178l18 17v147z"/><path class="fil0" d="M9237 2160v126h70v-105l-18-21z"/></g></g></svg>