<svg id="Layer_1" xmlns="http://www.w3.org/2000/svg" viewBox="0 0 246 246"><path d="M75.9 9.4l19.7 47.4c8.5-3.5 17.8-5.5 27.4-5.5s18.9 1.9 27.2 5.4L170 9.3c-14.5-6-30.3-9.3-47-9.3S90.4 3.3 75.9 9.4zM170 236.7l-19.7-47.4c-8.4 3.5-17.6 5.4-27.2 5.4-9.8 0-19.1-2-27.4-5.5L76 236.6c14.6 6.1 30.4 9.4 47.2 9.4 16.5 0 32.3-3.3 46.8-9.3zM9.3 169.8l47.6-19.1c-3.6-8.5-5.6-17.9-5.6-27.8s2-19.3 5.6-27.8L9.5 75.6C3.4 90.2 0 106.2 0 123.1c.1 16.5 3.4 32.2 9.3 46.7zM189.1 150.9l47.6 19.1c6-14.5 9.3-30.3 9.3-46.9 0-16.9-3.4-32.9-9.6-47.6L189 95a72 72 0 0 1 5.6 27.9c.1 10-1.9 19.4-5.5 28z"/><path d="M75.8 236.6l19.7-47.4C78.1 182 64.2 168 56.9 150.7L9.3 169.8c12.5 30.2 36.5 54.3 66.5 66.8zM150.3 189.3l19.7 47.4c30.1-12.5 54.3-36.6 66.8-66.9l-47.6-19c-7.4 17.4-21.4 31.3-38.9 38.5zM9.6 75.5L57 95.1c7.3-17.4 21.3-31.2 38.6-38.4L75.9 9.4C46 21.8 22.2 45.6 9.6 75.5zM189.1 95.1l47.4-19.7C223.9 45.6 200 21.7 170 9.3l-19.7 47.4c17.5 7.2 31.4 21.1 38.8 38.4zM105.2 140.7c0 .3-.1.4-.3.5-.2 0-.4.1-.5.1H94.2c-.2 0-.4-.1-.5-.3-.1-.2-.2-.4-.2-.7v-15.1-.4c0-.1-.1-.1-.3-.1-.1 0-.3.1-.5.4l-3.8 5.3c-.3.4-.5.6-.7.7-.2.1-.4.2-.7.2h-3c-.3 0-.5-.1-.7-.2s-.4-.4-.7-.7l-3.8-5.3c-.2-.3-.4-.4-.5-.4-.2 0-.3 0-.3.1v15.5c0 .3-.1.5-.2.7-.1.2-.3.3-.5.3H67.7c-.2 0-.4 0-.5-.1-.2 0-.3-.2-.3-.5V107c0-.5.2-.8.5-1.2.4-.3.8-.5 1.3-.5h6.8c.8 0 1.4.1 1.8.4.4.3.8.7 1.2 1.2l7.1 10.7c.2.4.4.5.6.5s.4-.2.6-.5l7.1-10.7c.3-.5.7-.9 1.2-1.2.4-.3 1-.4 1.8-.4h6.8c.5 0 .9.2 1.3.5s.5.7.5 1.2v33.6h-.3zm6.3-34.5c0-.3.1-.5.3-.7.2-.2.4-.3.7-.3h9.5c.3 0 .5.1.7.3.2.2.3.4.3.7v13.7c0 .2 0 .4.1.4h.4c.1 0 .2-.2.3-.4l8.7-13.3c.2-.4.5-.7.8-.9.3-.3.7-.4 1.2-.4h8.5c.5 0 .9.2 1.3.5s.5.7.5 1.2v33.1c0 .3-.1.5-.3.7-.2.2-.5.3-.8.3h-9.5c-.3 0-.5-.1-.8-.3-.2-.2-.3-.4-.3-.7v-13.3c0-.3-.1-.4-.3-.4h.1-.2c-.1 0-.1.1-.3.3l-8.6 13.3c-.2.3-.4.5-.7.7-.3.2-.6.3-1 .3h-8.9c-.5 0-.9-.2-1.3-.5s-.5-.7-.5-1.2l.1-33.1zm70.9 11.5c0 2.5-.5 4.6-1.6 6.2-1 1.6-2.4 2.9-4 3.9s-3.4 1.6-5.4 2c-2 .4-3.8.6-5.6.6h-1.4c-.4 0-1 0-1.7-.1v10c0 .3-.1.5-.3.7-.2.2-.4.3-.7.3h-10c-.3 0-.5-.1-.8-.2-.2-.1-.3-.3-.3-.6v-30.8c0-.7.1-1.4.2-1.8.1-.5.3-.9.6-1.2.3-.3.6-.5 1.1-.7.5-.2 1-.3 1.7-.4.7-.1 1.4-.2 2.4-.2.9-.1 1.9-.1 2.9-.2s2.1-.1 3.1-.1h2.9c1.9 0 3.8.2 5.8.6 2 .4 3.8 1 5.4 2 1.6.9 3 2.2 4 3.8 1 1.5 1.6 3.6 1.7 6.2zm-12-.3c0-1.1-.4-1.9-1.2-2.4-.8-.5-1.9-.7-3.2-.7h-3.2v6.5h3.2c1.3 0 2.4-.3 3.2-.8.8-.5 1.2-1.3 1.2-2.3v-.3z"/></svg>