<svg id="Layer_1" xmlns="http://www.w3.org/2000/svg" viewBox="0 0 174 93"><path d="M132.4 50.9c-.5-2.1-1.4-5.5-4-6.4-2.6-1-10.1.6-10.5 4-.5 3.4.3 5.8 1.4 9.4 1.2 3.5 3.1 10.8 4.4 13.9 1.3 2.9 2.2 6.6 2.9 8.4.6 1.8 1.2 4.4 1.8 7.3.3 1.4.8 3.6 2.1 5.4H96.9V63.8l-1.4-.6L74.4 84 55.9 65.5l-1.4.6v26.8H0V0h53.5L74 20.4h1.2L95.6 0h55.8v41.9c-1.4 1.9-2.4 3.7-3.1 5-1.9 3.9-4.5 7.6-6.1 11.9-1.7 4.2-2.7 5.3-3.9 7.4-1.2 2.2-2.4 2.6-3.2.5s-2.3-3.5-2.1-7.6c.1-4.1-.2-6.1-.6-8.2zm12.1 42c.8-1.5.8-3.2.8-4.3 0-2.2.4-7.8 1.8-10.8.9-1.9 2.7-5 4.4-7.9V93l-7-.1zm-45-43.3c.9 2.3 1.6 7 1.6 10.5 0 3.6.9 11.8.4 18.4-.5 3.7-1.9 10.4-1.4 13.3l.2 1h14.4c-.3-1.4-.5-2.9-.5-4.6 0-5.5.8-15.7.1-23.2-.6-7.6-1.2-20.5-1.2-22.6 2.2-1.5 6.5-3 8.4-4.2 1.9-1.3 4-2.6 6.3-3.9 2.2-1.2 6.6-3.7 5-8.7-1.6-5-6-3.4-7.6-2.6-1.7.9-5.2 5-7.5 6.5-2.2 1.4-6.1 3.1-7.4 3.4-1.6-1.7-5.6-4.5-9.6-1.3-4.1 3.2-3 7.5-2.6 9.6-2.6 1.1-7.1 3.2-9.1 4.5s-6.1 4.5-8.4 6c-2.2 1.4-4.2 2.7-8.4 3.5-4.2.8-5.8 6.5-3.4 9.5 2.4 3.1 6.3 4.5 9.6.5 3.2-4 3.4-5.6 5.8-7.1 2.4-1.4 6-4.2 8.7-5.6 2.7-1.4 4.6-2.3 6.6-2.9zM153 .3l10 4.9V26c-1.3 1.4-2.6 2.8-3.7 4.4-1.4 1.9-4 5.5-6.3 8.9V.3zM79.3 14l-4.7 4.7L57.5 1.8l18 8.4 3.8 3.8zM56.1 92.9V68.1l9.1 8.9v16h-9.1v-.1zm33.2-12l-12.4 2.6 18.3-18.1v9.1l-5.9 6.4zm63.7 12V66.8c.4-.7.6-1.4.8-1.9 1-2.7 2.3-4 3.4-5.3 1.2-1.3 2.6-3.7 4.1-7.3.6-1.4 1.1-2.5 1.7-3.4V93l-10-.1zm12.5 0v-4.4h-1.8v-.6h4.3v.6h-1.8v4.4h-.7zm3.2 0v-5h1.1l1.3 3.5c.1.3.2.6.3.7.1-.2.2-.4.3-.8l1.3-3.5h1v5h-.7v-4.2l-1.6 4.2h-.7l-1.6-4.2v4.2h-.7v.1z"/></svg>