<svg id="Layer_1" xmlns="http://www.w3.org/2000/svg" viewBox="0 0 276 276"><path d="M139.7 0C64.1-1 .6 59.3 0 137.1-.6 212.9 60.3 275.8 138.2 276c75.4-.1 137.1-60.6 137.8-136.9.6-75.4-59.7-138-136.3-139.1zM120 169.4v29.9c-.6-.4-1-.6-1.3-.8-5.7-4.3-11.4-8.5-17.2-12.7-.9-.6-1.2-1.3-1.2-2.4.1-13.4.1-26.9.2-40.4 0-1.4-.5-1.8-1.8-2-9-.8-18.1-.9-27.1 0-1.4.1-1.8.7-1.8 2.1.1 8.1 0 16.2 0 24.3v1.7H50.2v-2.6c0-16.8.1-33.7.1-50.6 0-7.3-4.2-12.3-11.5-13.5-1.1-.2-1.1-.2-1.1-1.4h32.1v30.6c0 1.5.5 2.1 1.9 2.2 6.1.2 12.1.5 18.2.6 3.1 0 6.1-.4 9.2-.7 1.1-.1 1.4-.6 1.4-1.7v-26.5c0-6.7-3.8-11.5-10.4-13-.7-.2-1.4-.3-2.2-.4v-1.2H120v32.8c1.2-1.4 2.2-2.5 3.2-3.5 7.3-7.5 16.4-11.3 26.6-12.7 11.2-1.5 22.2-.2 33.1 2.2.4.1.9.7.9 1.1v24.4c0 .1-.1.3-.3 1-.4-.8-.8-1.2-.9-1.7-1-4.6-2.7-8.8-5.7-12.4-9.7-11.6-29.1-10.2-37.3 2.8-5 7.9-6.3 16.8-5.3 25.9.9 8.1 4.3 15.1 10.6 20.5 9.6 8.3 23.4 9.3 35 2.5 2.1-1.2 4.1-2.7 6.3-4.2.4.4 1 .9 1.6 1.3-14.3 21-54.4 19.6-67.8-1.5zm109.1-48.7c0 .5-.4.9-.7 1.4-.2-.5-.6-.9-.7-1.4-.7-3.1-.9-6.3-2.1-9.3-2.5-6.4-9.1-9.8-16.1-8.7V164c-6.5-4.9-12.7-9.4-18.8-14.1-.4-.3-.7-1.2-.7-1.8v-43.5-2c-6.7-.3-13.3.4-20.1 1.1v-7.6h59.8c0 .4.1.8.1 1.2-.2 7.9-.4 15.6-.7 23.4z"/></svg>