<svg id="Layer_1" xmlns="http://www.w3.org/2000/svg" viewBox="0 0 459 77"><path d="M7.8 16.9C18.9 4 41.3 2.4 54.6 16.4c10.7 11.3 11.8 32.7 0 43.7C42.5 71.3 22 72.8 12.4 64-1.1 51.5-5 31.7 7.8 16.9zM385.2 25.4h-2c-4.3 0-7.9 3.5-7.9 7.9v13.9c0 4.3 3.5 7.9 7.9 7.9h2c4.3 0 7.9-3.5 7.9-7.9V33.3c-.1-4.4-3.6-7.9-7.9-7.9zM193.9 25.4h-2c-4.3 0-7.9 3.5-7.9 7.9v13.9c0 4.3 3.5 7.9 7.9 7.9h2c4.3 0 7.9-3.5 7.9-7.9V33.3c0-4.4-3.6-7.9-7.9-7.9zM227 25.3h-7.2v14.5h7.2c4 0 7.3-3.3 7.3-7.3 0-3.9-3.3-7.2-7.3-7.2z"/><path d="M447.8 0h-354c-6.2 0-11.3 5.1-11.3 11.3v54.4c0 6.2 5.1 11.3 11.3 11.3h353.9c6.2 0 11.3-5.1 11.3-11.3V11.3c.1-6.2-5-11.3-11.2-11.3zM120.2 47.1v.1c.2 4.5 4 8.1 8.5 8.1 3.5 0 6.7-.3 10.2-.9l.9 5.3c-2.8.9-8.8 1.4-13 1.4-5.7 0-12.1-5.3-12.7-13V33.9c0-8.3 6.8-14.2 12.8-14.2 4.2 0 10.1.5 13 1.4l-.9 5.3c-3.5-.6-6.6-.9-10.2-.9-4.6 0-8.4 3.7-8.5 8.3V46.8c-.1 0-.1.2-.1.3zm52.5 13.1c0 .5-.4.9-.9.9h-4.9c-.5 0-.9-.4-.9-.9v-34h-16.4v34c0 .5-.4.9-.9.9h-4.9c-.5 0-.9-.4-.9-.9v-35c0-2.7 2.2-4.8 4.8-4.8h20c2.7 0 4.8 2.2 4.8 4.8v35h.2zm35.2-12.5c0 7.3-6 13.3-13.3 13.3h-3.4c-7.3 0-13.3-6-13.3-13.3V32.9c0-7.3 6-13.3 13.3-13.3h3.4c7.3 0 13.3 6 13.3 13.3v14.8zm32.2-15.1c0 6.8-5.5 12.3-12.3 12.3h-7.9v15.2c0 .5-.4.9-.9.9h-5c-.5 0-.9-.4-.9-.9v-39c0-.5.4-.9.9-.9h13.6c6.9.1 12.5 5.6 12.5 12.4zm30.3-7.2c0 .4-.3.8-.8.8h-10v34c0 .5-.4.9-.9.9h-4.9c-.5 0-.9-.4-.9-.9v-34h-10c-.4 0-.8-.3-.8-.8v-4.3c0-.4.3-.8.8-.8h26.7c.4 0 .8.3.8.8v4.3zm46.1 34.8c0 .5-.4.9-.9.9h-4.9c-.5 0-.9-.4-.9-.9v-34h-16.4v34c0 .5-.4.9-.9.9h-4.9c-.5 0-.9-.4-.9-.9v-35c0-2.7 2.2-4.8 4.8-4.8h20c2.7 0 4.8 2.2 4.8 4.8v35h.2zm35.6.9h-5.2c-.5 0-1-.4-1.1-.9l-9.6-35.4-9.6 35.4c-.1.5-.6.9-1.1.9h-5.1c-.5 0-.7-.4-.6-.9l10.5-36.6c.7-3.1 3.8-3.2 5.1-3.2h1.5c1.5 0 4.3.2 5.2 3.6l10.4 36.2c.3.5 0 .9-.4.9zm47.1-13.4c0 7.3-6 13.3-13.3 13.3h-3.4c-7.3 0-13.3-6-13.3-13.3v-4.6h-6.6v17.1c0 .5-.4.9-.9.9h-4.9c-.5 0-.9-.4-.9-.9V21.1c0-.5.4-.9.9-.9h4.9c.5 0 .9.4.9.9v16h6.6v-4.2c0-7.3 6-13.3 13.3-13.3h3.4c7.3 0 13.3 6 13.3 13.3v14.8zm10.4-.6v.1c.2 4.5 4 8.1 8.5 8.1 3.5 0 6.7-.3 10.2-.9l.9 5.3c-2.8.9-8.8 1.4-13 1.4-5.7 0-12.1-5.3-12.7-13V33.9c0-8.3 6.8-14.2 12.8-14.2 4.2 0 10.1.5 13 1.4l-.9 5.3c-3.5-.6-6.6-.9-10.2-.9-4.6 0-8.4 3.7-8.5 8.3V46.8c-.1 0-.1.2-.1.3z"/></svg>