<svg id="Layer_1" xmlns="http://www.w3.org/2000/svg" viewBox="0 0 110 72"><path d="M49.2 46.1c0-1.3 1-2.3 2.3-2.3 1.3 0 2.3 1 2.3 2.3 0 1.3-1 2.3-2.3 2.3-1.3 0-2.3-1.1-2.3-2.3zm38.7-3.7H82V35h6c1.9 0 3.5 1.6 3.5 3.6 0 2.2-1.8 3.8-3.6 3.8zm1 14.5H82v-7.7h6.9c2.3 0 4 1.6 4 3.8 0 2.3-1.6 3.9-4 3.9zm1.5 7.3c7.3 0 11.8-4.2 11.8-10.8 0-3.9-2-7.1-5.6-8.6 2.8-1.9 3.4-4.5 3.4-7.3 0-6.4-4.9-9.6-11.7-9.6H67.5V35h6v21.9h-6v7.3h22.9zM43.7 27.9H29.9v14.5h-8.4V27.9H7.7V35h6v21.9h-6v7.3h13.9v-15H30v15h13.9v-7.3h-5.8V35h5.8v-7.1zm61.6 16.6c2.7 2 4.7 5.4 4.7 9.3 0 6-1.9 9.6-5.2 12.9-3.3 3.2-8.8 5.3-15.3 5.3H59.9v-8.5c4.6-1.7 8-6.2 8-11.4s-3.3-9.7-8-11.4v-27h7.7v6.8h7.5v-13H36.2v13h7.5v-6.8h7.6v27c-4.6 1.7-8 6.2-8 11.4s3.3 9.7 8 11.4V72H0V49.2h6.1v-6.8H0V20.1h28.3V0h54.8v20.1h3.8c5.7 0 11.2 1.3 14.7 3.9 3.8 2.8 6.2 6.9 6.2 12.5 0 2.4-.5 5.9-2.5 8z"/></svg>