<svg id="Layer_1" xmlns="http://www.w3.org/2000/svg" viewBox="0 0 363 86"><path d="M90 1.1h47.8v14.2h-16.3v58.1h-15.1V15.3H90V1.1zm58.5 0h28c12.7 0 23 10.4 23 23V27c0 12.7-10.4 23-23 23h-12.9v23.4h-15.1V1.1zm15.1 13.6v21.7h9.7c6 0 10.8-4.9 10.8-10.8 0-6-4.9-10.8-10.8-10.8h-9.7v-.1z" fill-rule="evenodd" clip-rule="evenodd"/><path d="M37.3 11.3C58 11.3 74.7 28 74.7 48.6 74.7 69.3 58 86 37.3 86 16.7 86 0 69.3 0 48.6 0 28 16.7 11.3 37.3 11.3zm0 16.1c11.7 0 21.2 9.5 21.2 21.2S49 69.8 37.3 69.8s-21.2-9.5-21.2-21.2 9.5-21.2 21.2-21.2z" opacity=".7" fill-rule="evenodd" clip-rule="evenodd"/><path d="M49 0c20.6 0 37.3 16.7 37.3 37.3 0 20.6-16.7 37.3-37.3 37.3S11.6 57.9 11.6 37.3C11.6 16.7 28.3 0 49 0zm0 16.1c11.7 0 21.2 9.5 21.2 21.2S60.7 58.5 49 58.5 27.7 49 27.7 37.3 37.2 16.1 49 16.1z" fill-rule="evenodd" clip-rule="evenodd"/><path d="M68.6 69.1c-5.7 3.5-12.4 5.6-19.6 5.6-9.1 0-17.5-3.3-24-8.7 3.5 2.5 7.7 3.9 12.3 3.9 8.8 0 16.3-5.3 19.5-12.9 7.8-3.1 13.4-10.8 13.4-19.7 0-4.4-1.3-8.5-3.6-11.9 5.1 6.4 8.1 14.4 8.1 23.2 0 7.6-2.3 14.6-6.1 20.5zm-48.9-8.6c-5.1-6.4-8.1-14.4-8.1-23.2 0-7.5 2.2-14.6 6.1-20.4 5.7-3.5 12.4-5.6 19.6-5.6 9.1 0 17.5 3.3 24 8.7-3.5-2.5-7.7-3.9-12.3-3.9-8.8 0-16.3 5.3-19.5 12.9-7.9 3-13.4 10.7-13.4 19.6 0 4.4 1.3 8.5 3.6 11.9z" fill-rule="evenodd" clip-rule="evenodd"/><path d="M345 46.7h-7.5V31.3h7.5v2.3h-3.9V37h3.7v2.3h-3.7v5h3.9v2.4zm-16.2 0h-3.6V31.3h3.6v7.1l1.9-3.8v-3.3h3.6v15.5h-3.6v-7.9l-1.9 3.8v4zm-12.5 0h-3.6V31.3h3.6V37h1.9v-5.7h3.6v15.5h-3.6v-7.3h-1.9v7.2zm-6.7 0h-7.5V31.3h7.5v2.3h-3.9V37h3.7v2.3h-3.7v5h3.9v2.4zm-15.5-2.6V33.9h-1.4c0 .3 0 .9-.1 1.6 0 .7-.1 1.6-.1 2.7-.1 1.1-.1 2.1-.2 3-.1.9-.1 1.4-.1 1.6 0 .3-.1.5-.2.8-.1.3-.3.4-.4.5h2.5zm1.9 2.6h-5.6v2.5h-3v-5.1c.1 0 .3-.1.6-.2s.5-.3.8-.6c.3-.3.4-.7.5-1.2 0-.3.1-1.4.2-3.2.1-1.8.2-3.3.2-4.7.1-1.4.1-2.4.1-3.1h7.9V44h1.4v5.1h-3v-2.4h-.1zm-17.4 0H275V31.3h3.6v7.1l1.9-3.8v-3.3h3.6v15.5h-3.6v-7.9l-1.9 3.8v4zm-12.3-13.2v4.1c.6 0 1-.1 1.2-.1.2 0 .4-.2.5-.5.1-.3.2-.8.2-1.4 0-.5 0-.9-.1-1.2-.1-.3-.2-.5-.5-.6-.3-.3-.8-.3-1.3-.3zm0 6.2v4.8c.6 0 1-.1 1.3-.3.3-.2.4-.5.5-.8.1-.3.1-.8.1-1.4 0-.7-.1-1.2-.2-1.5-.1-.3-.3-.5-.5-.6-.3-.1-.7-.2-1.2-.2zm-3.7 7V31.3h3.6c1.3 0 2.3.1 3 .2.7.1 1.3.5 1.8 1s.7 1.4.7 2.6c0 2.1-.9 3.3-2.6 3.5v.1c.7 0 1.3.2 1.6.5.4.3.6.7.7 1.3.1.5.2 1.2.2 2 0 1.4-.2 2.4-.6 3-.4.6-.9 1-1.6 1.2-.7.2-1.8.2-3.3.2h-3.5v-.2zm-3.1 0H252V31.3h7.5v2.3h-3.9V37h3.7v2.3h-3.7v5h3.9v2.4zm-10.8-15.4v15.5h-3.5V33.9h-1.4c0 .7-.1 1.8-.2 3.2-.1 1.4-.2 3-.3 4.6-.1 1.6-.2 2.6-.3 2.9-.2.9-.6 1.4-1.2 1.7-.7.3-1.4.5-2.1.5h-.8v-2.3c.2 0 .4-.1.7-.3.3-.2.5-.7.6-1.4 0-.4.1-1.3.2-2.7.1-1.4.2-3 .2-4.9.1-1.9.2-3.2.2-3.9h7.9zm-12.6 15.4h-7.5V31.3h7.5v2.3h-3.9V37h3.7v2.3h-3.7v5h3.9v2.4zm-16.5-13.1h-2.5v-2.3h8.6v2.3h-2.5v13.1h-3.6V33.6zM363 21.5h-7.5V6.1h7.5v2.3h-3.9v3.4h3.7v2.3h-3.7v5h3.9v2.4zm-16.2-12v8.7c0 .8.3 1.2 1 1.2s1-.4 1-1.2V9.5c0-.8-.3-1.2-1-1.2s-1 .4-1 1.2zm5.5.8v7c0 3-1.5 4.5-4.6 4.5-3 0-4.6-1.5-4.6-4.5v-7c0-1.1.2-2 .6-2.7.4-.7 1-1.1 1.6-1.4.7-.3 1.5-.4 2.3-.4.9 0 1.6.1 2.3.4.7.3 1.2.7 1.6 1.4.6.7.8 1.6.8 2.7zm-18 11.2h-3.6V6.1h3.6v5.7h1.9V6.1h3.6v15.5h-3.6v-7.3h-1.9v7.2zm-12.5 0h-3.6V6.1h3.6v5.7h1.9V6.1h3.6v15.5h-3.6v-7.3h-1.9v7.2zm-6.7 0h-7.5V6.1h7.5v2.3h-3.9v3.4h3.7v2.3h-3.7v5h3.9v2.4zM298.9 8.3v4.1c.6 0 1-.1 1.2-.1.2 0 .4-.2.5-.5.1-.3.2-.8.2-1.4 0-.5 0-.9-.1-1.2-.1-.3-.2-.5-.5-.6-.3-.2-.7-.3-1.3-.3zm0 6.3v4.8c.6 0 1-.1 1.3-.3.3-.2.4-.5.5-.8.1-.3.1-.8.1-1.4 0-.7-.1-1.2-.2-1.5-.1-.3-.3-.5-.5-.6-.3-.2-.7-.2-1.2-.2zm-3.6 6.9V6.1h3.6c1.3 0 2.3.1 3 .2.7.1 1.3.5 1.8 1s.7 1.4.7 2.6c0 2.1-.9 3.3-2.6 3.5v.1c.7 0 1.3.2 1.6.5.4.3.6.7.7 1.3.1.5.2 1.2.2 2 0 1.4-.2 2.4-.6 3-.4.6-.9 1-1.6 1.2-.7.2-1.8.2-3.3.2h-3.5v-.2zm-9.1-13.1h-2.5V6.1h8.6v2.3h-2.5v13.1h-3.6V8.4zm-8.8 7.1h3.6v2c0 2.9-1.5 4.3-4.6 4.3-3 0-4.5-1.5-4.5-4.5v-7c0-3 1.5-4.5 4.5-4.5 1.5 0 2.6.3 3.4.9.8.6 1.2 1.7 1.2 3.2v1.7h-3.6V9.5c0-.4-.1-.7-.2-.9-.1-.2-.4-.3-.7-.3-.7 0-1 .4-1 1.2v8.7c0 .8.3 1.2.9 1.2.7 0 1-.4 1-1.2v-2.7zm-8.7 6h-7.5V6.1h7.5v2.3h-3.9v3.4h3.7v2.3h-3.7v5h3.9v2.4zm-27 0V6.1h3.6v12.7h1.9V6.1h3.6v12.8h1.9V6.1h3.6V19h1.8v5.1h-3v-2.5l-13.4-.1zm-8.7-6.9v4.8c.6 0 1-.1 1.3-.3.3-.2.4-.5.5-.8.1-.3.1-.8.1-1.4 0-.7-.1-1.2-.2-1.5-.1-.3-.3-.5-.5-.6-.3-.2-.7-.2-1.2-.2zm3.5-6H233v3.7h.7c1.5 0 2.6.2 3.3.7.7.5 1.1 1.1 1.3 1.7.2.7.2 1.4.2 2.4 0 1.4-.2 2.4-.6 3-.4.6-.9 1-1.6 1.2-.7.2-1.8.2-3.3.2h-3.6V6.1h7.2l-.1 2.5zm-15.9.9v8.7c0 .8.3 1.2 1 1.2s1-.4 1-1.2V9.5c0-.8-.3-1.2-1-1.2s-1 .4-1 1.2zm5.5.8v7c0 3-1.5 4.5-4.6 4.5s-4.6-1.5-4.6-4.5v-7c0-1.1.2-2 .6-2.7.4-.7 1-1.1 1.6-1.4.7-.3 1.5-.4 2.3-.4.9 0 1.6.1 2.3.4.7.3 1.2.7 1.6 1.4.6.7.8 1.6.8 2.7zM283 72.7h-3.6V57.3h3.6v7.1l1.9-3.8v-3.3h3.6v15.5h-3.6v-7.9l-1.9 3.8v4zm-12.4 0H267V57.3h3.6v7.1l1.9-3.8v-3.3h3.6v15.5h-3.6v-7.9l-1.9 3.8v4zm-10.3-6h3.6v2c0 2.9-1.5 4.3-4.6 4.3-3 0-4.5-1.5-4.5-4.5v-7c0-3 1.5-4.5 4.5-4.5 1.5 0 2.6.3 3.4.9.8.6 1.2 1.7 1.2 3.2v1.7h-3.6v-2.1c0-.4-.1-.7-.2-.9-.1-.2-.4-.3-.7-.3-.7 0-1 .4-1 1.2v8.7c0 .8.3 1.2.9 1.2.7 0 1-.4 1-1.2v-2.7zm-12.3 0h3.6v2c0 2.9-1.5 4.3-4.6 4.3-3 0-4.5-1.5-4.5-4.5v-7c0-3 1.5-4.5 4.5-4.5 1.5 0 2.6.3 3.4.9.8.6 1.2 1.7 1.2 3.2v1.7H248v-2.1c0-.4-.1-.7-.2-.9-.1-.2-.4-.3-.7-.3-.7 0-1 .4-1 1.2v8.7c0 .8.3 1.2.9 1.2.7 0 1-.4 1-1.2v-2.7zm-14.3-6v8.7c0 .8.3 1.2 1 1.2.6 0 1-.4 1-1.2v-8.7c0-.8-.3-1.2-1-1.2-.7-.1-1 .4-1 1.2zm5.5.8v7c0 3-1.5 4.5-4.6 4.5-3 0-4.6-1.5-4.6-4.5v-7c0-1.1.2-2 .6-2.7.4-.7 1-1.1 1.6-1.4.7-.3 1.5-.4 2.3-.4.9 0 1.6.1 2.3.4.7.3 1.2.7 1.6 1.4.6.7.8 1.6.8 2.7zm-17.8-2v5.1h.6c.4 0 .7-.1.9-.2.2-.2.3-.4.4-.7.1-.3.1-.8.1-1.5s0-1.2-.1-1.5c-.1-.3-.2-.6-.4-.8-.2-.2-.5-.2-.9-.2h-.6v-.2zm0 13.2h-3.6V57.3h4.4c1.6 0 2.7.2 3.5.7.8.5 1.2 1.3 1.2 2.6v2.8c0 1.1-.4 1.9-1.2 2.5-.8.6-1.8.9-3 .9h-1.3v5.9z"/></svg>