<svg id="Layer_1" xmlns="http://www.w3.org/2000/svg" viewBox="0 0 400 189"><path d="M400.3 152.3V151c-1.5-2.6-3.5-4.9-5.6-7.2-2.9-3.1-5.7-6.2-8.6-9.3-9.8-10.5-20.6-19.7-33-27.1-15.3-9.1-31.6-16-48.4-21.8-10-3.5-20.2-6.3-30.6-8.3-7.3-1.3-13.6-.2-19.3 4.4-3.1 2.5-6.4 4.8-9.6 7.1-5.4 3.9-11 7.6-17.5 9.9-11.5 4-23.2 3.8-34.9.7-8.5-2.2-16.2-6-22.4-12.3-4.8-4.9-7.8-10.8-10.7-16.9-1.4-3.1-2.6-6.3-4.5-9.1H144c-.5.1-.9.2-1.4.2-7.8.7-14.9 3.4-21.1 8.3-6 4.7-11.2 10.2-16.6 15.6-1.8 1.8-3.6 3.4-3.1 6.2 0 .2-.1.4-.1.6-1.3 3.4-2.8 6.7-5.2 9.5-4.2 4.9-10 7.2-16 8.7-10.2 2.7-20.7 3.4-31.2 2.6-13.7-1-24.9-6.9-33.4-17.7-4.6-5.9-7.9-12.5-11-19.2-.6-1.4-1.3-2.8-2.3-4-.3-.5-.7-1.1-1.4-.9-.8.2-.8 1-.9 1.6-.1 1-.1 1.9 0 2.9.6 8.2 3.3 15.7 7.3 22.8 6.1 10.9 15.2 18.8 26 24.9 8.6 4.9 18 8 27.3 11.3 7.5 2.6 15.1 4.9 22.5 7.7 7.5 2.9 13.5 7.6 17.2 14.9 1 1.9 1.2 4.1 2.5 5.8 1 1.3 1.8 2.9 2.8 4.3 4.8 7 11 12.4 18.5 16.3 7.8 4.1 16.3 5.5 25 5.8 11.8.5 23.5-.8 35.1-2.8 16.7-2.9 33.1-7.1 49.4-11.5 21.7-5.9 43.3-12.4 65.2-17.6 13.8-3.3 27.7-6 41.9-6.8 16.8-1 33.5-.6 50.2 1.4 3 .3 6 1 9.1.3z"/><path d="M227.6.4c4.7-.4 9.7-.6 14.2 1.2 8.6 2.7 14.9 10.7 16.1 19.6 1.4 7.5-.9 15.7-6.4 21.1-3.5 3.7-8.3 6-13.3 7.1-4.1.8-8.3.7-12.4 1.3.5 5.8.9 11.5 1.3 17.3-5 .2-10 .7-15 1-1.5-22.4-3-44.8-4.6-67.1 6.6-.5 13.3-.9 20.1-1.5zm-4.3 14.4c.6 7.4 1 14.8 1.6 22.2 4.5-.8 9.6.3 13.5-2.6 3.6-2.5 5-7.4 4-11.6-.8-4.3-4.5-8-9-8.4-3.4-.3-6.7.1-10.1.4zM306 1.3c5.2.3 10.4.7 15.5 1.1-1 13.7-2 27.5-2.9 41.3 2.8.3 5.6.4 8.5.6 1.1-13.8 1.9-27.5 3-41.3 5.2.5 10.3.8 15.5 1.1-1 13.7-1.9 27.5-2.9 41.2 2.6.3 5.1.5 7.7.6-1.2 8.6-2.5 17.2-3.7 25.8h-.6c-3.4-.4-6.8-.7-10.2-.8-.3-4.8-.6-9.7-.9-14.5-10.9-1-21.8-1.6-32.7-2.4 1.4-17.6 2.5-35.2 3.7-52.7zM121.6 3.7c13.3-.4 26.6-1.1 39.9-1.4.1 11.7.9 23.4 1.2 35.2.3 5.8.3 11.6.7 17.5-5.4 0-10.7.4-16.1.3-.1-12.6-.9-25.2-1.1-37.8-2.7 0-5.4.2-8.2.2.4 12.7.8 25.4 1.4 38.1-5.3.3-10.6.3-15.8.6-.8-17.6-1.4-35.2-2-52.7zm48 7.1c3.6-5.1 10-7.7 16.2-7.6 6.9-.2 14.2 3.2 17.5 9.5 3.1 5.7 2.2 12.4 2.3 18.6h-28.3c.2 3.4-.7 7.2 1.6 10 2.7 4.3 9.1 4.9 13 1.9 2.3-2 2.2-5.2 2.4-8h11.1c-.1 2.7-.1 5.5-1.1 7.9-1.5 3.6-3.8 7-7.2 8.9-3.6 2.4-8.1 3.1-12.4 3-6.9-.1-13.9-4.1-16.7-10.5-2.7-6.1-1.9-12.9-2-19.4-.2-5 .7-10.2 3.6-14.3zm8.6 7.4c-1.3 2.3-.6 5.1-.8 7.7h17c-.2-2.7.5-5.8-1.1-8.2-1.4-2.8-4.5-4.7-7.7-4.4-3.2-.2-6.2 2-7.4 4.9zM271.7 5c7-3 15.6-2.4 21.7 2.1 3.9 2.8 6.3 7.5 6.9 12.2.4 3.9.2 7.9.2 11.9h-28.3c.2 3.3-.6 7.2 1.7 10 2.7 4.3 9.3 5 13.1 1.8 2.2-1.9 2.2-5.1 2.3-7.9h11.3c-.2 4.3-1 8.8-3.6 12.3-4.2 6-12.1 8.2-19 7.4-4.6-.5-8.9-2.6-12.1-5.9-2.7-3.2-4.5-7.2-4.6-11.4-.2-5.8-.1-11.6 0-17.5.4-6.3 4.3-12.5 10.4-15zm2.1 11.9c-2.1 2.5-1.6 6-1.7 9 5.7 0 11.5.1 17.2-.1-.1-2.2.1-4.4-.5-6.5-.7-2.3-2.3-4.3-4.5-5.3-3.5-1.9-8.4-.5-10.5 2.9z"/></svg>