<svg id="Layer_1" xmlns="http://www.w3.org/2000/svg" viewBox="0 0 495 113"><path d="M306.7 45.9c0 2.4.7 4.4 2 5.8 1.3 1.5 3.1 2.2 5.2 2.2h8.1V37.8h-8.1c-2.1 0-3.8.8-5.1 2.2-1.4 1.6-2.1 3.5-2.1 5.9zM106.7 36.7c-7.1 0-10.6 4.9-10.6 14.6V62c0 9.7 3.5 14.6 10.6 14.6s10.7-4.9 10.7-14.6V51.3c0-9.7-3.6-14.6-10.7-14.6z"/><path d="M0 0v112.8h370.9V0H0zm71.5 59.2c-3.6 3.7-8.3 5.5-14.3 5.5h-8.3v21.9h-13V26.9h21.3c5.8 0 10.6 1.9 14.2 5.6s5.4 8.2 5.4 13.5c.1 5.1-1.7 9.6-5.3 13.2zm58.9 3.8c0 8-2.2 14.1-6.7 18.3-4.5 4.2-10.1 6.4-17 6.4-6.8 0-12.5-2.1-17-6.4C85.2 77 83 70.9 83 63V50.4c0-7.9 2.2-14 6.7-18.3 4.5-4.3 10.1-6.5 17-6.5s12.6 2.2 17 6.5c4.5 4.3 6.7 10.4 6.7 18.3V63zm24.5 10.2c2 2.3 4.8 3.4 8.5 3.4 5.2 0 10.1-.8 14.7-2.4l2.5 10.7c-5.7 1.8-11.4 2.7-17.3 2.7-7.3 0-13.2-2.1-17.7-6.3-4.5-4.2-6.7-10.3-6.7-18.3V50.2c0-8 2.2-14.1 6.7-18.3 4.5-4.2 10.4-6.3 17.7-6.3 5.8 0 11.6.9 17.3 2.8L178.1 39c-5-1.5-9.9-2.3-14.7-2.3-7.7 0-11.5 4.9-11.5 14.6V62c.1 5.1 1 8.8 3 11.2zm49.5 0c2 2.3 4.8 3.4 8.5 3.4 5.2 0 10.1-.8 14.7-2.4l2.5 10.7c-5.7 1.8-11.4 2.7-17.3 2.7-7.3 0-13.2-2.1-17.7-6.3-4.5-4.2-6.7-10.3-6.7-18.3V50.2c0-8 2.2-14.1 6.7-18.3 4.5-4.2 10.4-6.3 17.7-6.3 5.8 0 11.6.9 17.3 2.8L227.6 39c-5-1.5-9.9-2.3-14.7-2.3-7.7 0-11.5 4.9-11.5 14.6V62c.1 5.1 1 8.8 3 11.2zm80.5 13.3h-13V61c0-3.2.1-6.3.4-9.4l-22 34.9h-10.8V26.8h13v25.9c0 2.7-.1 5.8-.3 9.1l22.1-35.1h10.5v59.8h.1zm50.1 0h-13V64.6h-5l-9.6 21.9h-14.5l11.2-23.7c-3.3-1.5-5.9-3.7-7.7-6.8-1.8-3.1-2.7-6.5-2.7-10.2 0-5.2 1.8-9.8 5.4-13.5 3.6-3.8 8.4-5.6 14.2-5.6H335v59.8z"/><path d="M56.8 37.8h-7.9v16.1h7.9c2.1 0 3.7-.7 5-2.2 1.3-1.5 1.9-3.4 1.9-5.8s-.6-4.4-1.9-5.8c-1.2-1.5-2.9-2.3-5-2.3zM380 0v113h115V0H380zm54.6 9.4V31c-4.4.8-7.7 4.1-7.7 8.2 0 .5 0 .9.1 1.4h-22.8c-.1-.8-.1-1.5-.1-2.3 0-15.2 13.4-27.7 30.5-28.9zm35.7 89.7h-44.8l23.4-20.7h21.5v20.7h-.1zm-2.6-46.5c-2.3 4.2-14.1 17.3-23.8 25.9l-23.4 20.7h-17.3V82.6c12.8-11.3 25.9-22.4 38.4-34.1 2.3-2.2 4.5-5 4.5-9.5 0-4.1-3.4-7.5-7.8-8.2V9.2c18.1.4 32.6 13.2 32.6 29-.1 5-.8 10.1-3.2 14.4z"/></svg>