<svg id="Layer_1" xmlns="http://www.w3.org/2000/svg" viewBox="0 0 204 236"><path fill="#050506" d="M163.3 218.2v12c0 4.8-2.7 6.6-7.4 5.1-.9-.3-1.4-.7-1.4-1.7v-3c0-11.1 0-11-11.5-10.2-2.3.2-2.8.9-2.7 3 .1 2.5-.3 5 .1 7.5.5 3.9-1 4.5-4.6 4.6-3.8.1-4.7-1.1-4.5-4.7.3-9 .3-18 0-27-.2-4 1.7-4.2 4.7-4.1 2.7.1 4.6-.1 4.5 3.8-.1 9.9.1 9.8 10.1 9.9 3.3 0 4.5-.9 4-4.1-.2-1.3 0-2.7 0-4 0-5.3 2-6.7 7.2-5.5 2 .5 1.6 1.8 1.6 3-.1 5.1-.1 10.3-.1 15.4z"/><path fill="#060607" d="M20.2 199.1c.7.1 2.8 0 4.6.7 1.7.7 5.3.1 4.2 3.4-.9 2.5-1.9 6-6.6 3.8-4.2-2-8.2-.7-11 3.1-2.9 4-2.7 11.3.5 15 3.3 3.9 7.7 4.4 11.7 2.2 4.4-2.4 4.7 1.1 5.8 3.2 1.7 3.1-1.7 3-3 3.7-7 3.3-15.6 1.9-20.9-3.2-5.2-5-7-14.1-4.1-21.3 2.7-6.7 9.1-10.6 18.8-10.6z"/><path fill="#080809" d="M42 221.1v-6c0-7.4 0-7.6-7.2-7.9-3.4-.1-2.6-2.2-2.7-4-.1-1.9-.2-3.6 2.7-3.5 7.7.2 15.3.1 23 0 3 0 2.5 1.9 2.5 3.7 0 1.7.6 3.5-2.4 3.8-7.2.6-7.2.8-7.2 8.3 0 5.5-.2 11 .1 16.5.2 3.9-2.1 3.3-4.4 3.3-2.2 0-4.8.9-4.4-3.2.3-3.6 0-7.3 0-11z"/><path fill="#050506" d="M104.5 0C55-.9 16.1 39.7 17 85.2c0 46.9 37.6 84.5 83.7 85.4 43.7.9 86.6-33.3 87.4-85.1.5-46-38.2-84.7-83.6-85.5zM180 69.7c2.6 12.1 2.6 12-9.7 12.4-4.3.1-8.6.6-12.9.8-2.3.3-4.7.6-7 1-2 .3-4 .7-6 1l-6 1.2c-2.2.7-4.4 1.4-6.6 2-1.5.4-2.7.1-2.2-1.9-.8-9.2-.8-9.2 8.1-12 .5-.1 1-.1 1.5-.1 2.5-1.6 5.4-2.2 8.2-3 1.5-1.1 3.1-1.8 5-1.9 1-.4 2-.7 2.9-1.1 2.5-1.4 5.2-2.5 8.1-2.9 1.7-.7 3.3-1.5 5-2.1 9.4-3.4 9.4-3.4 11.6 6.6zm-28.6-45.8c2.8 1.4 5 3.7 6.9 6.1 3 2.2 5.1 5.1 6.9 8.3 4.7 4.6 7.2 10.5 10 16.3.9 1.8.1 2.7-1.6 3.3-3.1 1-6.2 2.1-9.4 3.1-1.2.8-2.5 1.3-4 1.3-1.5 1-3.2 1.8-5.1 1.7-1.6.9-3.1 2-5 2-1.7.6-3.3 1.3-5 1.9l-6 2.1c-1.2.8-2.5 1.3-4 1.3-2.2 1.3-4.5 2.2-7 2.7-3.1-.1-2.7-3.3-4.2-4.8-4.9-5.1-4.9-5.1-.8-10.8 2.7-3.7 5.4-7.5 8.1-11.2 1-1.3 1.9-2.7 2.9-4 1-1.3 1.9-2.7 2.9-4 1.1-1.6 2.2-3.3 3.3-4.9.8-1.1 1.6-2.2 2.4-3.2.9-1.3 1.7-2.6 2.6-3.8 2.2-1.3 1.5-7.1 6.1-3.4zm-24.9 99.3c5.7 5.3 5.8 5.4-1.1 8.7-7.9 3.8-16.2 5.9-25.1 5.2-5.9-.3-11.7-1-17-3.8-4.6-1.3-8.7-3.7-12.2-6.9-2.8-1.5-5-3.6-6.9-6-2.1-2-4-4.2-5.2-6.9-2-2-3.1-4.4-3.9-7.1-2.3-4-3.7-8.4-3.9-13-.3-1.1-.6-2.3-.8-3.4-.4-2.2 0-3.3 2.8-2.8 18.9 2.9 36.9 8.5 53 19.3 1.6.6 3 1.4 4.1 2.8 1.3.3 2.3 1 2.9 2.1.7.6 1.4 1.1 2.2 1.7 1.2.5 2.2 1.1 2.8 2.3 1.4 1.3 2.9 2.6 4.3 3.9 1.7.9 3 2.2 4 3.9zM52.4 70.9c.8-2.2 2.2-2.1 3.8-.7 1.7.7 3.3 1.3 5 2 4.2 1.4 8.3 2.7 12.5 4.1 1.9.6 3.2 1.6 2.3 3.9-.3 2.6.6 5.3-.8 7.8-1.4.2-2.9.6-4.1-.6l-6-1.5c-3-.6-6-1.2-8.9-1.8-6.3-.3-6.7-.9-5-6.9-.4-2.3.4-4.3 1.2-6.3zm48.7-15c0 2.1-.9 3-2.9 3.2-.7 0-1.3.2-2 .2-3 .1-5.6 4-8.5 1.7-2.3-1.8-3.7-4.7-5.2-7.2-1.1-1.8-3-3.1-3.4-5.4-6.2-7.2-6-7.7 4.1-11.1 4.7-2.7 10.1-3 15.3-3.9 2-.4 2.6.7 2.6 2.6-.1 6.6-.1 13.2 0 19.9zM75 49.3c2.5 3.4 4.7 7.1 7.6 10.2 3.6 3.8-3 10.6-3.5 11.7-1.5 6-4.5 1.5-6.9 1-2.1-.4-4.2-.8-6-2.1-2.3-.8-4.7-1.6-7-2.4-5.7-1.9-5.9-2-2.6-7.2 1.4-2.2 2.4-4.8 4.6-6.4 1.1-1.8 2.3-3.6 4.1-4.9 2.1-1.7 3.1-5.1 6.8-4 .9 1.4 1.9 2.7 2.9 4.1zm24.8 49.5c-5.4-3-10.9-5.7-16.9-7.4-3.8-1.1-4.4-3.4-4.3-6.6.4-12.7 10.9-23 23.6-23.1 13.2-.1 24.1 11.1 23.8 24.3-.1 2.7-.9 4.3-3.5 5.1-6 1.9-11.8 4.5-17.3 7.5-1.9 1.2-3.4 1.3-5.4.2zm4.3-50c-.1-4 .1-8-.1-11.9-.1-2.8.7-3.8 3.7-3.3 7 1 13.5 2.9 19.4 6.8 4.3.8 3.7 2.7 1.1 5-3.2 4.8-6.6 9.5-9.7 14.3-1.5 2.3-2.9 2.9-5.2 1.4-.4-.3-.9-.5-1.4-.6-2.5-.8-6-.7-7.3-2.4-1.8-2.4-.4-6.1-.5-9.3zm-79.3 21c7.9-37.1 40-63.4 78-63.5 14.1.3 27.9 4 40.6 11.6 2.8 1.7 2.8 2.8.9 5.2-3.3 4.2-6.4 8.5-9.2 13-1.7 2.7-3 2.8-5.7 1.3-32.1-17.9-71.8-.7-80.7 34.9 0 .2-.1.3-.2.5-1 3.3.3 8.2-2.3 9.7-2.5 1.5-6.7-.1-10.2-.4-.7 0-1.3-.1-2-.1-11.7-.3-11.7-.3-9.2-12.2zm110.8 87c-47.4 22.8-105-8.7-111.5-60.9-1.4-11.2-1.4-11.2 9.5-10.9 4.1.4 9-.4 12.2 1.5 3.3 1.9 1.7 7.1 2.6 10.9 8.2 35.9 48.9 54.1 81 35.8 3.6-2.1 5.1-1.3 6.8 1.8 1.3 2.5 2.9 4.8 4.2 7.4 5.6 11.7 6.2 9.1-4.8 14.4zm44.7-60.4c-.1 2 .3 4.1-1 5.9 0 2.5-.6 4.9-2 7.1-1.6 2.4-.6 5.8-3 7.9-.8 2.9-2 5.5-4.1 7.7-3.7 7.8-9.3 14-16.1 19.2-1.3 2.7-4.2 3.6-6.2 5.5-1.6-1.3-1.9-2.9-2.4-4.5-1.2-1.1-1.4-2.6-1.9-4-.7-1.3-1.4-2.7-2.2-4-4.7-7.5-10.3-14.3-16.3-20.8-1.4-.6-2.3-1.6-3.1-2.8-1.1-.5-2.3-1-2.9-2.3-1.3-1.1-2.6-2.1-3.9-3.2-1.4-.9-2.7-1.9-4.1-2.8-1.5-.9-3-1.9-5-3.2 2.4-2 4.7-3 7.1-3.8 4.2-1.9 8.3-4.2 13-5.1 6.7-2.6 13.6-4.5 20.8-5.2 3.2-1.7 6.9-.5 10.2-1.8 1.3-.1 2.5-.2 3.8-.2.2-.1.5-.2.7-.3 3.1-1.1 6.3-.5 9.5-.6h6c4.7-2.1 4.3 1 3.9 3.9.1 2.7.6 5.1-.8 7.4zM190.9 201.8c-1-2.7-3.1-2.1-4.9-2-2 0-4.3-.8-5.4 2.1-4.1 11-8.3 21.9-12.5 33 6.8.9 6.8.9 10.5-4.3.3-.4.6-1 1-1 3.8-.1 7.6-.3 11.4-.1 2.4.1 2 2.7 2.6 4.2.6 1.5 1.7 1.8 3.2 1.7 2.1-.1 4.3 0 7.2 0-4.6-11.7-8.9-22.6-13.1-33.6zm-9.5 20.3c1.4-3.9 2.5-7.2 3.7-10.4.1-.3.4-.5.7-.8 1.2 3.7 2.5 7.4 3.8 11.3-2.9-.1-5.3-.1-8.2-.1zM113.5 201.8c-1.2-3-3.5-1.9-5.4-2s-3.9-.5-4.9 2.2c-4 10.9-8.2 21.7-12.5 33 7.4.5 7.4.5 10.5-4.4.2-.4.6-1 .9-1 3.8-.1 7.6-.3 11.5-.2 2.5.1 2.1 2.6 2.7 4.1.6 1.5 1.6 1.9 3.1 1.8 2.2-.1 4.5 0 7.3 0-4.5-11.6-8.9-22.5-13.2-33.5zm-9.3 20.2c1.2-3.6 2.4-7.1 4-11.7 1.6 4.4 2.8 7.9 4.2 11.7h-8.2zM91.7 210.4c-.3-6-4.2-9.9-11.1-10.5-4.3-.4-8.6 0-12.9-.2-2.4-.1-2.6 1.2-2.6 3.1.1 4.8 0 9.6 0 14.5 0 4.5.3 9-.1 13.5-.3 3.7.7 4.7 4.5 4.7 3.7 0 5.2-1 4.6-4.7-.2-1.5.1-3-.1-4.5-.3-2.4.7-3.2 3.1-3 1.5.1 3 0 4.5-.3 7-1.5 10.5-5.8 10.1-12.6zm-15.1 6.3c-5 .2-1.3-3.8-2.8-5.2.9-2-1.7-5.6 3.1-5.3 3.4.3 6 1.4 6 5.1.1 4.2-2.8 5.2-6.3 5.4z"/></svg>