<svg id="Layer_1" xmlns="http://www.w3.org/2000/svg" viewBox="0 0 500 206"><path d="M499.9 33v58h-51.7V200.1c0 2-.2 4-.3 6h-61V91.7h-50.7c-.2 1.1-.4 1.9-.4 2.7 0 37.3.1 74.6.1 111.7h-61c-.1-2-.2-4-.2-6 0-20-.2-40 .1-59.9.1-4.5-1.4-5.7-5.7-5.6-13.3.2-26.6.2-40-.1-4.1-.1-5 1.4-5 5.2.2 14.8.1 29.6.1 44.5 0 7.3-.2 14.6-.4 21.9h-59V89.6c-15.9 0-30.8.2-45.8-.1-4.5-.1-6 1-5.9 5.8.2 35 .1 70 .1 104.9 0 2-.2 4-.4 5.9h-61c.1-1.7.3-3.3.3-5V93.9c0-1.3-.1-2.5-.3-4.4h-7.7c-14.7-.2-29.5-.4-44.2-.5V31c2.2-.1 4.3-.2 6.5-.2h160.5V0h57c.1 2 .3 4 .4 6v65.8h50.4V66c.1-22 .2-44 .2-65.9h59v32.6h159.5c2.3-.1 4.5.2 6.5.3z"/></svg>