<svg id="Layer_1" xmlns="http://www.w3.org/2000/svg" viewBox="0 0 269 173"><path d="M265.9 39c-.5-4.3-1.6-8.4-3.1-12.2-1.7-4.8-4.4-9-8-12.5-3.5-3.6-7.6-6.4-12.3-8.1-3.7-1.6-7.8-2.7-12-3.2-29.8-3.7-60.7-4.6-93.6 0-3.6.5-7.1 1.4-10.4 2.7-6.2 1.9-11.6 5.6-15.7 10.6-2.6 3-4.7 6.4-6.1 10.2-1.6 3.9-2.7 8.1-3.3 12.5-3.7 30.2-4.6 61.5 0 94.9.5 3.7 1.4 7.3 2.7 10.6 1.6 5.4 4.6 10.1 8.6 14 3.8 4 8.5 7.1 13.8 8.7 3.3 1.3 6.8 2.2 10.5 2.7 32.9 4.6 63.8 3.7 93.6 0 4.3-.5 8.5-1.7 12.3-3.3 3.8-1.4 7.1-3.5 10.1-6.2 4.9-4.2 8.6-9.6 10.4-15.9 1.2-3.3 2.1-6.9 2.6-10.5 4.5-33.5 3.6-64.8-.1-95zm-14.4 94.9c-1.1 5.5-2.2 11.5-5.7 14.9-2.4 2.5-6 3.9-9.8 4.7-4.8 1-11.2 1.7-16.2 2.4-21.2 2.8-48.4 2.8-69.6.5-6.2-.7-14.8-1.6-20.8-3.2-3.1-.8-5.9-2.1-8.3-4.5-1.8-1.7-3-4-3.8-6.5-1.5-4.7-2.6-13-3.2-18.1-2.5-19.7-3-45.6-.8-67.1.7-6.6 1.7-14.5 2.8-21.1.8-4.4 2.1-8.7 5-11.5 3.5-3.6 9.4-4.7 14.9-5.7 20.6-3.9 53.3-5 79-2.1 6.2.4 16.9 1.5 22.9 3.5 2.8.9 5.3 2.3 7.3 4.2 2.7 2.7 4.3 5.8 5.2 9.2 1.5 5.4 2.4 13.9 3.1 19.4 3 26.1 2 59.9-2 81z"/><path d="M207.5 33.1c2.7.2 5.2.4 7.4.5v-.2c9.6.7 14.6 1.3 17.3 4.1 2.8 2.7 3.4 7.7 4.1 17.3h-.2c.2 2.2.3 4.7.5 7.4.3 4.2.5 8.4.7 12.6.2 1-6.3 7-9.7 10.3 2 2.1 9.8 9.5 9.7 11.2-.1 4.5-.4 9.1-.7 13.6-.2 2.7-.4 5.2-.5 7.4h.2c-.7 9.6-1.3 14.6-4.1 17.3-2.7 2.8-7.7 3.4-17.3 4.1v-.2c-2.2.2-4.7.3-7.4.5-16.1 1.2-31.7 1.2-47.8 0-2.7-.2-5.2-.4-7.4-.5v.2c-9.6-.7-14.6-1.3-17.3-4.1-2.8-2.7-3.4-7.7-4.1-17.3h.2c-.2-2.2-.3-4.7-.5-7.4l-.1-1c22.9 2.8 48.4 1.2 74.6-1.7v-7c-16.1-.2-35.3-2.1-43.3-4.2V75.8c12.2-2.1 28.6-3.1 43.3-3.2v-9.1c-25.8-2.5-50.8-3.2-74.5-1.2v-.2c.2-2.7.4-5.2.5-7.4h-.2c.7-9.6 1.3-14.6 4.1-17.3 2.7-2.8 7.7-3.4 17.3-4.1v.2c2.2-.2 4.7-.3 7.4-.5 16.1-1.1 31.7-1.1 47.8.1zM16.5 146.1h10.2V116c11.1 0 16.8-.7 16.5-10H0c-.5 9.7 6.3 10 16.5 10v30.1zm37.8 0H74c6.7 0 12.1-5.5 12.1-12.1 0-4.1-2.1-7.8-5.2-10 1-1.7 1.5-3.8 1.5-5.9 0-6.7-5.5-12.1-12.1-12.1H44.7v40h9.6v.1zm0-15.7h18.2c2 0 3.7 1.6 3.7 3.7 0 2-1.6 3.7-3.7 3.7H54.3v-7.4zm0-15.3H70c2.9 0 4.2 3.6 2 5.5-.5.5-1.3.8-2 .8H54.3v-6.3z"/></svg>