<svg id="Layer_1" xmlns="http://www.w3.org/2000/svg" viewBox="0 0 488 170"><path d="M463.1 24.8c-16-16-37.4-24.8-60-24.8-46.8.1-84.8 38.3-84.7 85.2.1 46.9 38.2 84.9 85 84.8 17.2 0 33.2-5.2 46.6-14.1l-23.4-23.3c-6.1 4.4-14.1 6.9-23.3 6.9-21.4 0-35.7-12.6-35.8-31.4l-.2-69.2h18.2l.2 69.2c0 12 12.3 13.2 17.5 13.2 5.3 0 17.6-1.3 17.5-13.3l-.1-69.2h18.2l.1 69.2c0 3.5-.5 6.8-1.5 9.8l26.5 26.5c-4.2 4.3-8.9 8.2-13.9 11.6 22.9-15.2 38.1-41.4 38-70.9 0-22.8-8.8-44.1-24.9-60.2zM23.8 74.7c0 1.3-.8 2-3.2 2h-1.9v-4.3h2.6c1.9 0 2.5 1 2.5 2.1v.2zm-.1-6.9c0 1-.5 1.8-2.4 1.8h-2.6v-4h1.8c2.4 0 3.2.6 3.2 1.9v.3zm3.9 7v-.3c0-1.6-.8-2.8-2.1-3.4 1.2-.6 1.9-1.9 1.9-3.4v-.4c0-3.7-3-4.8-7.3-4.8-1.5 0-3.4.1-4.1.3-.9.1-1.2.5-1.2 1.5v14.1c0 1 .3 1.4 1.3 1.5.9.2 2.7.3 4.2.3 4.1-.2 7.3-1.4 7.3-5.4zm-15-9.4V63c0-.2-.2-.4-.5-.4H.5c-.3 0-.5.2-.5.4v2.4c0 .2.2.4.5.4h3.8v13.5c0 .2.2.4.5.4h3c.2 0 .5-.2.5-.4V65.8h3.8c.3 0 .5-.2.5-.4zm114.7 46.9v-6.4c0-.8-.7-1.4-1.4-1.4h-14.1c-3.3 0-4.5-1.1-4.6-4.7v-7.4h18.1c.7 0 1.4-.6 1.4-1.4v-6.5c0-.7-.6-1.3-1.4-1.3h-18.1v-6.3c0-3.6 1.3-4.7 4.5-4.7h14.1c.8 0 1.4-.6 1.4-1.4v-6.5c0-.9-.4-1.3-1.4-1.4-2.4-.4-5.9-.9-13.4-.9-9.1 0-17 2.3-16.9 14.9v22.9c0 12.6 7.9 14.9 17 14.9 7.5 0 11.1-.6 13.5-.9.9-.2 1.3-.6 1.3-1.5zm51.1.3l-.1-48.9c0-.8-.6-1.3-1.4-1.3H168c-.8 0-1.4.6-1.4 1.4V82h-17.2V63.7c0-.8-.6-1.4-1.4-1.4h-9c-.8 0-1.4.6-1.4 1.4l.1 48.9c0 .7.6 1.3 1.4 1.3h9c.8 0 1.4-.6 1.4-1.4V92.1h17.1v20.4c0 .8.6 1.4 1.4 1.3h8.9c.9.1 1.5-.5 1.5-1.2zm78.3-33.8c0 4.8-2.8 7.1-9.2 7.1-.8 0-5 0-5.8-.1V71.5c.9-.1 4.8-.2 5.8-.2 6.1 0 9.3 1.9 9.3 6.9v.6h-.1zm11.7 0v-.6c0-13.1-10.3-16.6-21.1-16.6-5.2 0-10.8.4-14.3.9-2.2.3-3.1 1-3.1 3.3l.1 46.8c0 .7.6 1.3 1.4 1.3h9c.8 0 1.4-.6 1.4-1.4v-17c1.8.1 4.1.2 5.8.2 10.6-.1 20.8-3.8 20.8-16.9zm-45.6-8.2v-7.1c0-.7-.7-1.3-1.5-1.3l-34.7.1c-.8 0-1.4.5-1.4 1.3v7.1c0 .8.6 1.3 1.4 1.3h11.5l.1 40.6c0 .7.6 1.4 1.4 1.4h9c.8 0 1.4-.6 1.4-1.4l-.1-40.6h11.4c.8-.1 1.5-.7 1.5-1.4zM89.5 114.7v-8.8c0-.7-.6-1.3-1.4-1.3H84l-.1-40.8c0-.8-.6-1.4-1.3-1.4h-9.2c-.7 0-1.2.6-1.2 1.4l.1 40.8-12.5-.1c-3.3 0-4.6-1.1-4.6-4.7l-.1-35.9c0-.8-.6-1.4-1.4-1.4h-9c-.8 0-1.4.6-1.4 1.4v35.9c0 12.6 7.9 14.9 17 14.9 3 0 14.4-.2 19.8-.4v8.2c0 1 .4 1.7 1.1 1.7h5.7c.7 0 1.3-.6 1.5-1.6.5-1.9.9-4.8.9-7.7v-.2h.2z"/></svg>