<svg id="Capa_1" xmlns="http://www.w3.org/2000/svg" width="96.875" height="96.875" viewBox="0 0 96.875 96.875"><path d="M95.2 25.538c-1.185-5.152-5.4-8.953-10.472-9.52-12.013-1.34-24.172-1.348-36.275-1.34-12.105-.008-24.266 0-36.28 1.34-5.07.567-9.28 4.368-10.466 9.52C.02 32.875 0 40.884 0 48.438 0 55.992 0 64 1.688 71.336c1.184 5.15 5.396 8.952 10.47 9.52 12.01 1.342 24.17 1.35 36.276 1.342 12.107.007 24.264 0 36.275-1.342 5.07-.567 9.284-4.368 10.47-9.52C96.87 64 96.875 55.99 96.875 48.438c0-7.554.014-15.563-1.674-22.9zM35.937 63.474V31.437a497491.15 497491.15 0 0 0 30.798 16.068c-10.3 5.342-20.504 10.63-30.798 15.97z"/></svg>