<?xml-stylesheet href="youtube-channel.css" type="text/css"?><svg xmlns="http://www.w3.org/2000/svg" width="668.031" height="278.769" viewBox="0 0 17427 7272" shape-rendering="geometricPrecision" text-rendering="geometricPrecision" image-rendering="optimizeQuality" fill-rule="evenodd" clip-rule="evenodd"><g id="Слой_x0020_1"><path class="fil0" d="M17323 1569s-101-713-413-1026c-395-412-837-414-1040-438C14416 0 12236 0 12236 0h-4s-2181 0-3634 105c-203 24-646 26-1041 438-311 313-413 1026-413 1026s-103 837-103 1673v785c0 836 103 1673 103 1673s102 713 413 1026c395 412 914 399 1145 442 831 80 3532 104 3532 104s2182-3 3636-108c203-24 645-26 1040-438 312-313 413-1026 413-1026s104-837 104-1673v-785c0-836-104-1673-104-1673zM6504 5885h-660v-382c-251 287-463 432-695 432-203 0-344-96-415-269-43-106-73-270-73-511V2372h661v2852c15 98 57 134 141 134 126 0 241-110 381-308V2372h660v3513zM3513 4842c35 347-73 520-278 520s-313-173-278-520V3450c-35-347 73-511 278-511s313 164 278 511v1392zm661-1322c0-376-75-657-209-835-176-240-452-339-730-339-315 0-555 99-731 339-135 178-208 463-208 838v1249c0 373 64 631 200 807 175 240 461 367 739 367s568-127 744-367c133-176 195-434 195-807V3520zM1565 3972v1913H870V3972S149 1627 0 1189h730l489 1833 485-1833h731l-870 2783z"/><path class="fil1" d="M15304 3345c0-326 90-414 300-414 209 0 292 96 292 418v380h-592v-384zm1254 905v-711c0-371-73-643-205-819-177-238-427-364-743-364-322 0-572 126-755 364-133 176-211 463-211 835v1217c0 369 85 628 219 802 182 237 433 356 762 356s588-124 762-377c77-111 126-238 147-377 6-63 23-207 23-410v-98h-661c0 252 1 403-5 437-36 168-126 253-281 253-216 0-308-162-306-483v-625h1254zM13565 4876c0 348-82 482-263 482-104 0-223-54-329-159l1-2110c105-103 224-158 328-158 181 0 263 102 263 450v1495zm74-2525c-232 0-462 143-666 393l1-1520h-626v4661h626l1-350c210 260 440 395 664 395 250 0 434-134 518-393 42-147 69-374 69-695V3450c0-329-42-554-84-694-84-260-253-405-503-405zM11826 5885h-661v-382c-250 287-463 432-694 432-203 0-344-96-415-269-43-106-73-270-73-511V2407h661v2817c15 98 56 134 140 134 127 0 241-110 381-308V2407h661v3478z"/><path class="fil1" d="M9322 5885h-696V1885h-730v-660l2191-1v661h-765z"/></g></svg>