<svg id="Layer_1" xmlns="http://www.w3.org/2000/svg" viewBox="0 0 473 134"><path d="M70.5 0c5.7 16.9 11.1 34.1 16.8 51h53.2c-1.1 1.3-2.6 2.1-3.9 3.1-3.6 2.6-7.2 5.4-10.8 7.9-15.7-.2-31.5 0-47.2-.1-2.8-8.5-5.3-17.1-8.2-25.6-2.7 8.6-5.7 17-8.4 25.6H15.2c-4.9-3.3-9.4-7-14.2-10.3.4-.1.9-.2 1.3-.3-.8-.1-1.5-.2-2.3-.4 1.4-.1 2.7-.1 4.1-.1h49.6c5.7-16.7 11-33.9 16.8-50.8zm145.9 51c11.7.1 23.4 0 35.1 0 2.7 0 6 .9 6.9 3.8 1.1 3.5.3 7.3.5 11-.1 4 1 9.2-3 11.7 3.8 2.1 3.1 7.1 3.1 10.7-.3 4 .7 8.1-.8 11.9-1.4 2.9-5.1 3.1-7.8 3.3-11.3-.1-22.7.2-34-.1V51zm9.4 8.3c-.1 4.6 0 9.1 0 13.7 7.9-.1 15.9.3 23.8-.2.3-4.3.2-8.6.1-12.9-.8-.3-1.7-.6-2.6-.6h-21.3zm0 22.3V95c7.9-.1 15.9.3 23.8-.2a94 94 0 0 0 0-13c-7.8-.4-15.9-.1-23.8-.2zm44.1-30.5h39.3v8.2c-9.9 0-19.9.1-29.8 0-.1 4.6 0 9.1 0 13.7 8.1.1 16.1 0 24.2 0v8.3h-24.2c-.1 4.5 0 9.1 0 13.6 10 .1 19.9-.1 29.9.1v8.4c-10.4-.1-20.7 0-31.1 0-2.7 0-5.5.1-8.2-.2-.1-17.3-.2-34.7-.1-52.1zm173.7-.1c4.1.1 8.3 0 12.4 0 5.7 17.4 11.3 35 17 52.4-3.3.2-6.7.4-10 0-.9-3.5-2.1-6.8-3.1-10.2h-20.4c-.8 3.4-2.1 6.7-2.9 10.1-3.3.4-6.7.2-10.1.2 5.6-17.6 11.5-35 17.1-52.5zm.2 28.8c-.5 1.6-1.1 3.2-1.3 4.8 5-.1 9.9 0 14.9-.1-2.7-8.1-4.9-16.3-7.6-24.4-2.1 6.6-4 13.2-6 19.7zM165.1 52.4c1.6-1.1 3.7-1.3 5.6-1.3h27c2.7 0 6.2.6 7.3 3.6 1.3 3.8.5 7.9.7 11.8 0 3.8.7 8.7-3 11.2 2.2 1.3 3 3.9 3 6.3v11.7c-.1 2-.3 4.2-1.6 5.8-2 1.9-4.9 2-7.5 2.1h-25.3c-2.8-.2-6.7-.4-7.9-3.5-1.3-3.9-.4-8.1-.7-12.1 3.1-.4 6.3-.3 9.4-.1 0 2.3-.1 4.6.1 6.9 5.1.5 10.3.1 15.4.2 2.9-.1 5.8.2 8.6-.3.2-4.3.1-8.6 0-12.9-5.2-.7-10.5.1-15.8-.4.1-2.8 0-5.7.1-8.5 5.2-.1 10.4.3 15.6-.2.2-4 .2-8 .1-12 .1-1.3-1.5-1.5-2.5-1.5h-19c-.9-.1-1.8.3-2.6.7v6.7c-3.1 0-6.2.1-9.4 0 .1-3.1 0-6.2 0-9.3.1-1.8.8-3.8 2.4-4.9zm151.6 3.1c.7-3.1 4-4.4 6.8-4.4 9.3-.1 18.7 0 28 0 2.7 0 6.2.7 7.2 3.6.8 2.5.3 5.2.4 7.8-.1 3.5.1 7.1-.1 10.6-.1 1.9-1.2 3.5-2.9 4.4 1.8 1.1 3 3 2.9 5.1 0 5 .1 10.1 0 15.1 0 2.1-1.3 4.2-3.3 4.9-1.7.6-3.6.8-5.4.9h-24.7c-2 0-4.1-.3-6-.9-1.9-.7-3-2.8-3.2-4.7-.2-3.3-.1-6.7-.2-10 3.1-.2 6.3-.2 9.4 0 0 2.3-.1 4.7.1 7 2.9.3 5.8.1 8.8.1 5 0 10 .3 15-.1.5-2.1.3-4.3.3-6.5s.1-4.4-.3-6.6c-5.2-.2-10.4 0-15.6-.1 0-2.9-.3-5.8.1-8.7 5.1 0 10.3.4 15.4-.2 0-3.8.1-7.6 0-11.4-.1-.7.1-2.1-1.1-1.9-7.5-.2-15.1-.2-22.6 0-.6 2.4-.1 4.9-.5 7.3H316c.5-3.8.2-7.6.7-11.3zm56 28.8c1.8-11.1 3.4-22.3 5.4-33.3 12.3.2 24.7 0 37 .1v44c1.9 0 3.8 0 5.8.1v18.4c-3.1.3-6.2-.1-9.3 0-.2-3.3-.1-6.6-.1-10-12.6 0-25.2-.1-37.8.1.1 3.3 0 6.5.1 9.8-3.1.4-6.2.1-9.3.1-.3-6.1 0-12.3-.1-18.4 2.2-.2 4.5.2 6.5-.9 1-3.3 1.2-6.7 1.8-10zm13.5-25c-1.7 10.4-3.5 20.8-5.3 31.3-.2 1.5-.7 2.9-1.1 4.4 8.7.1 17.3 0 26 0V59.2c-6.5.1-13 .1-19.6.1zM163.8 21h10.5v1.9c-1.3 0-2.7-.1-4 .1-.2 3.6-.1 7.2-.2 10.8-.7-.1-1.3-.1-2-.2V22.9c-1.4 0-2.9-.1-4.3-.1V21zm34.8.1c3.1-.1 6.3 0 9.4-.1v1.9h-7.3v3.4c1.9.1 3.9.1 5.8 0v2h-5.8v3.4h7.3v1.9h-9.4c0-4.1.1-8.3 0-12.5zm36.3-.1h9v12.7c-.7 0-1.5 0-2.2-.1.1-3.6 0-7.1 0-10.7h-5c-.5 3.5-1 7-1.8 10.5-1.1.3-2.3.4-3.4.2 0-.6 0-1.2.1-1.8.4 0 1.1-.1 1.5-.1.8-3.5 1.3-7.1 1.8-10.7zm34 0h9.4v1.9H271c0 1.1-.1 2.2-.1 3.4l6.1.1c-.1.7-.3 1.3-.4 2-1.9-.1-3.8-.1-5.7 0v3.5h7.2l.1 1.9h-9.5c.2-4.4.2-8.6.2-12.8zm34.2.1h2.1v5.3h2l3.9-5.3h2.5c-1.5 2.1-3.1 4-4.6 6.2l4.7 6.4h-2.6c-1.4-1.7-2.7-3.7-4.2-5.4h-1.8v5.4H303l.1-12.6zm38.5-.1h3c1.2 4.3 2.8 8.5 4 12.7-.8 0-1.5-.1-2.3-.1-.2-.8-.5-1.7-.7-2.5h-5c-.3.9-.6 1.7-.8 2.6h-2.3c1.5-4.2 2.8-8.4 4.1-12.7zm1.5 2.1c-.6 2-1.2 4.1-1.9 6h3.9c-.7-2-1.3-4-2-6zm39.1-2h2.1v12.7c-.7 0-1.4.1-2.1.1v-5.6h-6.9v5.5h-2.1V21h2.2v5.3c2.3.1 4.5.1 6.8.1v-5.3zm30.7-.1h3l4 12.7h-2.3c-.2-.8-.5-1.8-.8-2.6h-5c-.3.9-.5 1.8-.8 2.7h-2.3l4.2-12.8zm1.3 2.4c-.7 1.9-1.2 3.8-1.7 5.7h3.5l-1.8-5.7zm32.9-2.3c3 0 6-.1 9 0v12.7H454c0-3.6.1-7.3 0-10.9h-5c-.4 3.1-.9 6.2-1.5 9.3-.4 1.8-1.4 1.5-3.6 1.4 0-.6 0-1.2.1-1.8.4 0 1.2-.1 1.5-.1.6-3.5 1-7.1 1.6-10.6zm-417 52.1c9.4-.2 18.8-.1 28.2-.1-3.2 10.3-6.8 20.6-10.1 30.9 7.2-4.9 14.2-9.9 21.3-15 .5-.4 1.2-1 1.8-.3 7 5.1 13.7 10.4 20.8 15.3-3.3-10.2-6.5-20.5-9.8-30.7 6.5-.4 13.1-.1 19.6-.2 3 0 6.1-.1 9.1.1-4.2 3.2-8.5 6.4-12.8 9.4.1.6.1 1.3.3 1.9 5.3 16.4 10.5 32.8 15.8 49.4-14.2-10-28.1-20.3-42.2-30.3-.9-.9-2.2-.5-3.1.2-13.9 10.1-27.9 20.1-41.8 30.2 5.2-16.4 10.4-32.7 15.7-49.2.2-.8.9-1.9-.1-2.4-4.4-3.1-8.5-6.3-12.7-9.2z"/></svg>