<svg xmlns="http://www.w3.org/2000/svg" xmlns:xlink="http://www.w3.org/1999/xlink" preserveAspectRatio="xMidYMid" width="6" height="11" viewBox="0 0 6 11">
  <defs>
    <style>
      .cls-1 {
        fill: #fff;
        fill-rule: evenodd;
      }
    </style>
  </defs>
  <path d="M5.791,5.983 C5.769,6.005 5.741,6.014 5.718,6.033 L1.117,10.794 C0.859,11.060 0.440,11.060 0.182,10.794 C-0.076,10.527 -0.076,10.095 0.182,9.829 L4.378,5.488 L0.182,1.146 C-0.076,0.880 -0.076,0.448 0.182,0.181 C0.440,-0.085 0.859,-0.085 1.117,0.181 L5.718,4.943 C5.741,4.961 5.769,4.970 5.791,4.992 C5.923,5.129 5.985,5.309 5.982,5.487 C5.985,5.666 5.923,5.846 5.791,5.983 Z" class="cls-1"/>
</svg>
