<svg xmlns="http://www.w3.org/2000/svg" viewBox="0 0 324 169"><path d="M78.4 78.3h.3c0 2.5 0 5.8-.1 10v9.9h13.8V49.1h-1.5L67.1 73.7 43.2 49.1h-1.7v49.1h13.8V78.3h.2l10.7 11.1h1.7l10.5-11.1zm35.3 9.1v-8.9h17V68.2h-17v-7.4h19.6V50.1H99.5v48h34.9V87.3l-20.7.1zm60.5-26.5V50.2h-34.3v48h14.3V60.9h20zm39.1 37.2L189.9 49h-1.7l-24 49.2h13.7l2.4-5.4H197l2.3 5.4h14zM188.9 74l4.1 9.5h-8.6l4.2-9.5h.3z" fill="#6F41DD"/><path d="M245.6 49.9h-35.9v3.8h15.9V98h4.3V53.7h15.7v-3.8zm36.9 34.2c0 2.7-.9 5.1-2.6 7.1-1.7 2-4.7 3.1-8.9 3.1h-13.8V74.1h13c7.5 0 12.3 4 12.3 10zm-12-30.4c5.8 0 9.3 3.3 9.3 8.2 0 7-6.3 8.5-10 8.5h-12.6V53.7h13.3zm6.9 18.2c4.2-2 6.6-6.2 6.6-10.3 0-7.7-5.7-11.6-14.1-11.6h-17v48.2h18.8c4.4 0 7.9-1.2 10.8-3.8 2.8-2.6 4.2-5.9 4.2-10.1 0-5.5-2.9-10.5-9.3-12.2v-.2z" fill="#1974E3"/><linearGradient id="a" gradientUnits="userSpaceOnUse" x1="-.157" y1="86.417" x2="324.157" y2="86.417" gradientTransform="matrix(1 0 0 -1 0 170.917)"><stop offset="0" stop-color="#6741D6"/><stop offset="1" stop-color="#1E6EDD"/></linearGradient><path d="M7.3 7.1h309.3v131l-152.9 23.7L7.3 138.1V7.1z" fill="none" stroke="url(#a)" stroke-width="15" stroke-miterlimit="10"/><g opacity=".2" fill="#FFF"><path d="M271 94.3c4.2 0 7.2-1 8.9-3.1 1.7-2 2.6-4.4 2.6-7.1 0-1.8-.4-3.4-1.2-4.8-8 .8-16 1.6-24.1 2.2v12.8H271z"/><path d="M270.2 74.1h-13v7.4c8.1-.6 16.1-1.4 24.1-2.2-1.9-3.2-5.9-5.2-11.1-5.2zm-81.6-.1l-4.2 9.6h8.6l-4.1-9.6m90.8-12.1c0-4.9-3.4-8.2-9.3-8.2h-13.3v16.7h12.6c3.7 0 10-1.5 10-8.5zM90.9 49.1L67.1 73.7 43.2 49.1h-1.7V70C58 73.2 75 75.8 92.4 77.9V49.1h-1.5zm39.9 29.4V68.2h-17v-7.4h19.6V50.1H99.6v28.6c4.7.5 9.5 1 14.3 1.5v-1.7h16.9zm43.4-17.6V50.2h-34.3v32.1c4.7.3 9.5.6 14.3.8V60.9h20zm14-11.9l-16.9 34.7c7.2.2 14.4.3 21.7.3 4.5 0 9 0 13.5-.1L189.9 49h-1.7zm-3.8 34.6l4.2-9.5h.3l4.1 9.5h-8.6zm61.2-29.9v-3.8h-35.9v3.8h15.9v29.6c1.4-.1 2.9-.1 4.3-.2V53.7h15.7z"/><path d="M277.4 72.1v-.3c4.2-2 6.6-6.2 6.6-10.3 0-7.7-5.7-11.6-14.1-11.6h-17v31.9l4.2-.3v-7.4h13c5.3 0 9.2 1.9 11.1 5.2 1.4-.2 2.9-.3 4.3-.5-1.3-3.1-4-5.6-8.1-6.7zm-7.7-1.7h-12.6V53.7h13.3c5.8 0 9.3 3.3 9.3 8.2 0 7-6.3 8.5-10 8.5z"/></g><path d="M14.6 64.2s-5.9-1.3-7.9-1.8C5 62 0 60.5 0 60.5V-.2h324v73.7s-5.2 1-6.9 1.3c-1.9.3-7.7 1-7.7 1V14.4H14.6v49.8z" opacity=".2" fill="#FFF"/></svg>