<svg id="Layer_1" xmlns="http://www.w3.org/2000/svg" viewBox="0 0 56 48"><path d="M39.9 8.7c0-.2 0-.4-.1-.5-.4-1.7-1.2-2.9-1.8-3.7C33.8-.8 25 0 24.4 0h-.1c-.7 0-9-.8-13 4.3-1 1.3-1.5 2.6-1.8 3.8-.1.3-.1.6-.1.8l1.9 33.9-.4 4.2c.1.4.4.3.6.4 1 .8 3.1.7 3.8.6.1 0 .2 0 .4-.1.6 0 2.5.1 3.6-.7.3-.2.4-.2.6-.5l-.2-1.9c-.2-1.2.9-2 2.2-2h5.7c1.4 0 2.5.8 2.3 2.1l-.2 2c.1.4.4.3.6.5 1 .8 3.1.7 3.8.6h.4c.6 0 2.5.1 3.6-.7.3-.2.4-.2.6-.5-.1-1.4-.2-2.9-.4-4.3l1.6-33.8zM24.5 22.3c-4.8 0-8.7-3.8-8.7-8.4 0-4.6 3.9-8.4 8.7-8.4s8.7 3.8 8.7 8.4c0 4.6-3.9 8.4-8.7 8.4zm0-13.4c-2.8 0-5.2 2.2-5.2 5s2.3 5 5.2 5 5.2-2.2 5.2-5-2.3-5-5.2-5zm2.1 8.6c-.4 0-.9-.4-.9-.8s.4-.8.9-.8c.4 0 .9.4.9.8-.1.4-.4.8-.9.8zm0-3.2c-1 0-1.9-.8-1.9-1.8s.9-1.8 1.9-1.8c1 0 1.9.8 1.9 1.8s-.9 1.8-1.9 1.8zm-6 7.4c-.2-.1-.5-.2-.9-.2-.6 0-1.2.2-1.7.4-.8.4-1.2 1-1.7 1.7-.3.5-.6 1-1 1.3l-.4.4c-.8.8-1.4 1.9-1.8 3-.5 1-1 2-1.8 2.8-1 1.1-1.8 2.3-2.6 3.5-.8 1.3-1.6 2.5-2.6 3.7A15.9 15.9 0 0 1 .8 42c-.5.1-.9.6-.8 1 0 .5.3.9.8 1.1 1 .4 2 .5 3.1.5h.4c1.6-.1 4.6-.5 6.2-2.3l1-1c.5-.5 1-1 1.2-1.3 1.8-2.2 3.6-3.1 5.9-4 .5-.2.8-.7.8-1.1-.2-4.1.3-9.5 1.2-13.2zM4.4 43.9c-.8.1-1.5-.2-1.5-.7-.1-.4.6-.9 1.4-1 .7.1 1.4.3 1.4.8s-.5.9-1.3.9zm4.2-1.3c-.9.3-1.8.1-2-.4-.1-.5.4-1.2 1.3-1.5.9-.3 1.8-.1 2 .4.2.5-.4 1.2-1.3 1.5zm3.7-2.7c-.4.5-1.1.6-1.7.2-.6-.4-.7-1.1-.3-1.6.4-.5 1.1-.6 1.7-.2.5.4.7 1.1.3 1.6zm43.1-25.1c-1.7-.5-3.3-.7-4.7-.6-2.2.2-4.1 1.3-5 2.8-.5.8-.8 1.7-1 2.6-.2.7-.4 1.5-.7 2.2-.5 1-1.3 1.9-2.3 2.5-1 .7-2.2 1-3.3 1.1H38c-1 0-2.1-.2-3-.7-1-.5-1.9-1.3-2.5-2.2l-3.3 5.7c-.2.4-.5.8-.6 1.3-.2.8.1 2 1.3 3.1.7.6 1.7 1.1 3 1.5 1.8.6 3.9 1.1 6.2 1.4 2 .3 4.3.5 6.1-.6 1.9-1.1 2.8-3.4 3.5-5.7.7-2.2 1.4-4.3 2-6.4.8-2.6 1.9-5.5 4.4-6.6.1-.1.2-.1.4-.2.1 0 .1-.1.2-.1.3-.1.4-.4.4-.7-.3-.1-.5-.3-.7-.4zM41.3 34.6c-1 .1-1.9-.3-2-.9-.1-.6.7-1.3 1.7-1.4 1-.1 1.9.3 2 .9.1.7-.6 1.3-1.7 1.4zm4.3-2.3c-.4.5-1 .6-1.5.2-.5-.4-.6-1.1-.3-1.6.4-.5 1-.6 1.5-.2.5.4.6 1.1.3 1.6zm2.1-3.1c-.4.8-1.1 1.3-1.7 1-.6-.2-.7-1.1-.4-1.9.4-.8 1.1-1.3 1.7-1 .5.2.7 1.1.4 1.9zm1.7-4.4c-.2.8-.9 1.4-1.5 1.3-.6-.2-.9-1-.7-1.8.2-.8.9-1.4 1.5-1.3.6.1.9.9.7 1.8zm0-3.2c-.6.1-1.1-.2-1.2-.7-.1-.4.4-.8 1-.9.6-.1 1.1.2 1.2.7 0 .4-.5.8-1 .9zm2.1-3.5c-.7.7-1.5.8-2 .4-.4-.4-.2-1.3.5-1.9.7-.6 1.5-.8 2-.4s.2 1.2-.5 1.9z"/></svg>