<svg id="Layer_1" xmlns="http://www.w3.org/2000/svg" viewBox="0 0 74 36"><path d="M73.3 2.4c-.7-.7-1.7-1.2-3.1-1.7-1.4-.5-2.8-.7-4-.7-1.6 0-3 .4-4.3 1.3-1.1.7-2 1.8-2.9 3.2-.6.9-1.3 2.3-2.1 4-1 1.9-1.7 3.3-2.2 4-.8 1.2-1.6 2.2-2.4 3-1 .9-2.1 1.7-3.4 2.3-.4.2-.8.3-1.1.4-.3.1-.8.1-1.4.1h-1.1c-1.4 0-3.4-.7-6.1-2.1-2.7-1.4-4.7-2.1-5.9-2.1-.7 0-1.3.1-1.9.2-.6.1-1.2.4-1.7.7-2.9 1.7-5.2 3.6-6.8 5.7-1.6 2.1-3.3 4.9-5 8.2-1.1 1.2-2.9 2.1-5.4 2.6s-6.3.7-11.6.7c-.5 0-.8.2-.8.6 0 .3.2.5.5.6 2.2.8 4.3.8 6.1 1.2 1.8.4 3.5.4 5 .4 2.4 0 4.6-.4 6.8-1.3 1.3-.5 3.1-.6 5.2-1.9.7-.4 1.3-.7 1.8-1 .7-.4 1.3-.7 1.8-.8v4.8l-.3.5c0 .3.2.5.7.5h1.2c.6 0 1.1 0 1.5.1.4 0 .8.1.9.1.4.1.6 0 .7-.3.1-.3.1-.5.1-.7v-1l-.6-2.7v-1.2h3.7c.5 0 1 0 1.7-.1.6-.1 1.3-.2 2-.4v1c0 .1 0 .8.1 2s.1 2 .1 2.4c0 .4.2.7.6.7H43c.5 0 .8-.2.8-.6v-.9c0-.4 0-.8-.1-1L43 30v-1.2c1.6-.3 3-.6 4.3-1.1s2.5-1.1 3.6-1.7c1.4-.9 2.7-1.9 3.8-3 1.1-1.2 2.3-2.6 3.5-4.2.7-.9 1.2-2 1.6-3.5.2-.6.5-2 1-4.2.3-1.5.6-2.6.8-3.2.3-1.1.8-2 1.2-2.7.9-1.1 2.2-1.7 3.8-1.7.5 0 1.2.3 1.9.8 1.6 1.2 2.5 1.8 2.9 1.8.5 0 1-.2 1.5-.6s.8-.9 1-1.5c.2-.6 0-1.2-.6-1.6zm-1.1 1c-.2 0-.3-.2-.3-.3 0-.2.2-.3.3-.3.2 0 .3.2.3.3 0 .2-.1.3-.3.3z"/></svg>