<svg id="Layer_1" xmlns="http://www.w3.org/2000/svg" viewBox="0 0 47 49"><path d="M45.2 0v1.3c0 .8-.6 1.4-1.3 1.4h-2.5c-.7 0-1.3-.6-1.3-1.4V0H6.9v1.3c0 .8-.6 1.4-1.3 1.4H3.1c-.7 0-1.3-.7-1.3-1.4V0H0v49h1.8v-1.3c0-.8.6-1.4 1.3-1.4h2.5c.7 0 1.3.6 1.3 1.4V49h33.2v-1.3c0-.8.6-1.4 1.3-1.4h2.5c.7 0 1.3.6 1.3 1.4V49H47V0h-1.8zM6.9 42.2c0 .8-.6 1.4-1.3 1.4H3.1c-.7 0-1.3-.6-1.3-1.4v-1.3c0-.8.6-1.4 1.3-1.4h2.5c.7 0 1.3.6 1.3 1.4v1.3zm0-6.9c0 .8-.6 1.4-1.3 1.4H3.1c-.7 0-1.3-.6-1.3-1.4V34c0-.8.6-1.4 1.3-1.4h2.5c.7 0 1.3.6 1.3 1.4v1.3zm0-6.8c0 .8-.6 1.4-1.3 1.4H3.1c-.7 0-1.3-.6-1.3-1.4v-1.3c0-.8.6-1.4 1.3-1.4h2.5c.7 0 1.3.6 1.3 1.4v1.3zm0-6.8c0 .8-.6 1.4-1.3 1.4H3.1c-.7 0-1.3-.6-1.3-1.4v-1.3c0-.8.6-1.4 1.3-1.4h2.5c.7 0 1.3.6 1.3 1.4v1.3zm0-6.8c0 .8-.6 1.4-1.3 1.4H3.1c-.7 0-1.3-.6-1.3-1.4v-1.3c0-.8.6-1.4 1.3-1.4h2.5c.7 0 1.3.6 1.3 1.4v1.3zm0-6.8c0 .8-.6 1.4-1.3 1.4H3.1c-.7 0-1.3-.6-1.3-1.4V6.8c0-.8.6-1.4 1.3-1.4h2.5c.7 0 1.3.6 1.3 1.4v1.3zm31.2 36.3c0 .9-.6 1.9-1.5 1.9H10.7c-.9 0-1.8-1.1-1.8-1.9V27.5c0-.9.9-1.3 1.8-1.3h25.9c.9 0 1.5.4 1.5 1.3v16.9zm0-23.3c0 .9-.7 1.7-1.6 1.7h-26c-1 0-1.6-.9-1.6-1.7V4c0-.9.7-1.4 1.6-1.4h25.9c1 0 1.6.5 1.6 1.4v17.1zm7.1 21.1c0 .8-.6 1.4-1.3 1.4h-2.5c-.7 0-1.3-.6-1.3-1.4v-1.3c0-.8.6-1.4 1.3-1.4h2.5c.7 0 1.3.6 1.3 1.4v1.3zm0-6.9c0 .8-.6 1.4-1.3 1.4h-2.5c-.7 0-1.3-.6-1.3-1.4V34c0-.8.6-1.4 1.3-1.4h2.5c.7 0 1.3.6 1.3 1.4v1.3zm0-6.8c0 .8-.6 1.4-1.3 1.4h-2.5c-.7 0-1.3-.6-1.3-1.4v-1.3c0-.8.6-1.4 1.3-1.4h2.5c.7 0 1.3.6 1.3 1.4v1.3zm0-6.8c0 .8-.6 1.4-1.3 1.4h-2.5c-.7 0-1.3-.6-1.3-1.4v-1.3c0-.8.6-1.4 1.3-1.4h2.5c.7 0 1.3.6 1.3 1.4v1.3zm0-6.8c0 .8-.6 1.4-1.3 1.4h-2.5c-.7 0-1.3-.6-1.3-1.4v-1.3c0-.8.6-1.4 1.3-1.4h2.5c.7 0 1.3.6 1.3 1.4v1.3zm0-6.8c0 .8-.6 1.4-1.3 1.4h-2.5c-.7 0-1.3-.6-1.3-1.4V6.8c0-.8.6-1.4 1.3-1.4h2.5c.7 0 1.3.6 1.3 1.4v1.3z"/></svg>