<svg id="Layer_1" xmlns="http://www.w3.org/2000/svg" viewBox="0 0 74 38"><path d="M57.1 13.3l-3.8 1.1h-.1c-.8.1-1.2.1-1.7-.5-.4-.5-1-.8-1.6-.9l-6-1h-.2l-6.9.5v1.7l6.8.3 2.3.4-4.4 2.8c-.1 0-.1.1-.2.1l-6.2 2.1c-.2.1-.4.2-.6.4l-4.3 4.3 2.2 2.2 4-4.1 3-1-3.2 2.8c-.1 0-.1.1-.1.1L31 30.5l2.3 2.1 5.2-5.8L44 22c.1-.1.2-.1.3-.2l6.5-4.2 7-1.9c.1 0 .1 0 .2-.1l6.1-3.2-.7-1.6-6.3 2.5z"/><path d="M55.2 12.9c1.5-.7 2.1-2.4 1.4-3.9-.7-1.5-2.5-2.1-3.9-1.4-1.5.7-2.1 2.4-1.4 3.9.6 1.5 2.4 2.1 3.9 1.4zM66.9 3.1c-1.6.4-2.6 2-2.1 3.5.4 1.6 2 2.5 3.6 2.1 1.6-.4 2.5-2 2.1-3.5-.4-1.5-2-2.5-3.6-2.1zM43.9 15.3c0-.1 0-.1 0 0z"/><path d="M72.8 0H1.2C.5 0 0 .5 0 1.2V38h2.5v-4.1h3.4c0 1 0 1.8.1 2.5V38s0-.6.1-1.6c0-.7 0-1.5.1-2.4 1.3 0 2.8 0 4.6.1 0 .9 0 1.7.1 2.4 0 1 .1 1.6.1 1.6s0-.6.1-1.6c0-.6 0-1.4.1-2.4h4.5c0 .9 0 1.7.1 2.3 0 1 .1 1.6.1 1.6s0-.6.1-1.6c0-.6 0-1.4.1-2.3h4.6c0 .9 0 1.7.1 2.3V38s0-.6.1-1.6c0-.6 0-1.4.1-2.3h4.6c0 .9 0 1.7.1 2.3V38s0-.6.1-1.6c0-.6 0-1.4.1-2.3h4.6c0 .9 0 1.7.1 2.3 0 1 .1 1.6.1 1.6s0-.6.1-1.6c0-.6 0-1.4.1-2.3h4.6c0 .9 0 1.7.1 2.3 0 1 .1 1.6.1 1.6s0-.6.1-1.6c0-.6 0-1.4.1-2.3h4.6c0 .9 0 1.7.1 2.3 0 1 .1 1.6.1 1.6v-1.6c0-.6 0-1.4.1-2.3h4.6c0 .9 0 1.7.1 2.3V38s0-.6.1-1.6c0-.6 0-1.4.1-2.3h4.6c0 .9 0 1.7.1 2.3V38s0-.6.1-1.6c0-.6 0-1.4.1-2.3h4.6c0 .9 0 1.7.1 2.3 0 1 .1 1.6.1 1.6v-1.6c0-.6 0-1.4.1-2.3h4.6c0 .9.1 1.7.1 2.3V38s0-.6.1-1.6c0-.6 0-1.4.1-2.3h4.5c0 .9 0 1.7.1 2.4v1.6s0-.6.1-1.6c0-.6 0-1.4.1-2.4 1.7 0 3.3 0 4.6-.1 0 1 0 1.8.1 2.4v0c0-.7 0-1.5.1-2.4h3.4v4h.6V1.2c0-.7-.5-1.2-1.2-1.2zM2.5 9.4h3.4v4H2.6c-.1 0-.1-4-.1-4zm0 4.1h3.3v4H2.5v-4zm0 4.1h3.3v4H2.5v-4zm0 4.1h3.3v4H2.5v-4zm0 4h3.3v4H2.4v-4zm0 8.2v-4.1h3.4v4c-1.5.1-2.6.1-3.4.1zM5.9 7v2.4H2.5V5.3h3.4V7zM6 2.8c0 .7 0 1.5-.1 2.5H2.5V2.5H6v.3zm.1 31v-1.6-2.4c1.3 0 2.8 0 4.4.1v3.8c-1.6.1-3.1.1-4.4.1zm4.4-12.3c-1.6 0-3.1 0-4.3.1v-2-2c1.2 0 2.7 0 4.3.1v3.8zm-4.3-4v-4c1.3 0 2.7 0 4.3.1v3.9H6.2zm0 4.2c1.2 0 2.7 0 4.3.1v3.9c-1.6 0-3.1 0-4.3.1v-4.1zm4.3 4.1v3.8c-1.7 0-3.2 0-4.4.1v-3.4-.6c1.4.1 2.8.1 4.4.1zm.1-12.9v.5c-1.6 0-3.1 0-4.3.1v-.6-3.4c1.3 0 2.8 0 4.4.1-.1 1-.1 2.1-.1 3.3zM6.2 9.3V6.9 5.3c1.3 0 2.8 0 4.6.1v3.8c-1.9.1-3.3.1-4.6.1zm4.5-6.5c0 .6 0 1.4-.1 2.4-1.7 0-3.2 0-4.6.1 0-1-.1-1.8-.1-2.4v-.4h4.7c.1.1.1.2.1.3zm1.7 31h-1.5v-1.5V30h4.5v3.8c-1-.1-2 0-3 0zm2.9-12.3H11v-1.9-1.9h4.3v3.8zm-2.9-4.1H11v-3.8h4.3v3.8h-2.9zM11 21.8h4.3v3.8H11v-3.8zm1.4-8.5H11v-.5-3.3h4.5v3.8h-3.1zM11 26.4v-.5h4.3v3.8h-4.5c.2-1.1.2-2.2.2-3.3zM15.4 7v2.3h-4.5V7 5.5h4.5V7zm.1-4.2c0 .6 0 1.4-.1 2.3h-4.5c0-.9 0-1.7-.1-2.4v-.4h4.7v.5zm.1 30.9v-1.5-2.3H20v3.7c-1.4.1-2.9.1-4.4.1zm4.5-12.2h-4.3v-1.9-1.9h4.3v3.8zm-4.3-4.1v-3.8h4.3v3.7c-1.5.1-3 .1-4.3.1zm0 4.4h4.3v3.7h-4.3v-3.7zm0-8.5v-.5-3.3h4.4V13.2c-1.6.1-3.1.1-4.4.1zm0 13.1v-.5h4.3V29.6h-4.4c0-1 .1-2.1.1-3.2zm-.1-17.2V6.9 5.4h4.6v3.7c-1.7.1-3.2.1-4.6.1zm4.6-6.4c0 .6 0 1.4-.1 2.3h-4.6c0-.9 0-1.7-.1-2.3v-.4h4.7c.1.2.1.3.1.4zm3.6 30.9h-3.4v-1.5V30h4.4v3.6c-.3.1-.7.1-1 .1zm-3.4-15.9h4.3v3.6h-4.3v-1.9c.1-.5 0-1.1 0-1.7zm3.4 4.1h1v3.7h-4.3v-3.7c1-.1 2.1-.1 3.3 0zm.9-4.6h-4.3v-3.7h4.3c.1 1.3.1 2.5 0 3.7zm-.9-4h-3.3v-.4-3.3H25v3.6c-.5.1-.8.1-1.1.1zm-3.4 13.1V26h4.3v3.6h-4.4c.1-1 .1-2.1.1-3.2zm3.4-17.2h-3.4V7 5.5H25v3.6c-.4.1-.8.1-1.1.1zM25 2.8c0 .6 0 1.4-.1 2.3h-4.6c0-.9 0-1.7-.1-2.3v-.4H25v.4zm38.2-.4v.4c0 .6 0 1.4-.1 2.4h-4.5c0-.9 0-1.7-.1-2.3v-.4l4.7-.1zm-.1 3v3.8h-4.5V6.9 5.4h4.5zm-4.7-3v.4c0 .6 0 1.4-.1 2.3h-4.6c0-.9 0-1.7-.1-2.3v-.4h4.8zm-4.7 0v.4c0 .6 0 1.4-.1 2.3H49c0-.9 0-1.7-.1-2.3v-.4h4.8zm-4.8 0v.4c0 .6 0 1.4-.1 2.3h-4.6c0-.9 0-1.7-.1-2.3v-.4h4.8zm-.1 3.1v3.6h-4.4V6.9 5.5h4.4zm-4.7-3.1v.4c0 .6 0 1.4-.1 2.3h-4.6c0-.9 0-1.7-.1-2.3v-.4h4.8zm0 3.1C44 6 44 6.5 44 7v2.2h-4.4V7 5.6c1.4-.1 3-.1 4.5-.1zm-4.7-3.1v.4c0 .6 0 1.4-.1 2.3h-4.6c0-.9 0-1.7-.1-2.3v-.4h4.8zm-.1 3.1v3.6h-4.4V6.9 5.5h4.4zm-4.7-3.1v.4c0 .6 0 1.4-.1 2.3h-4.6c0-.9 0-1.7-.1-2.3v-.4h4.8zm-4.5 10.8v-.4-3.2h4.4v3.6h-4.4zm4.3.5v3.6h-4.3v-3.6h4.3zM30 9.2V7 5.6h4.5v3.6c-1.5-.1-3 0-4.5 0zm-4.9-6.4v-.4h4.7v.4c0 .6 0 1.4-.1 2.3h-4.6c.1-.9 0-1.7 0-2.3zm4.5 18.6h-4.3v-1.8-1.8h4.3v3.6zm-4.3-4.1v-3.7h4.3v3.6c-1.4.1-2.9.1-4.3.1zm0-4v-.4-3.2h4.4v3.6h-4.4zM29.6 26v3.6h-4.4v-3.2-.4c1.5-.1 3 0 4.4 0zM25.2 9.2V7 5.6h4.5v3.6h-4.5zm0 24.5v-1.4-2.2h4.4v3.6h-4.4zm14.3 0v-1.4-2.2h4.4v3.6h-4.4zm4.8 0v-1.4-2.2h4.4v3.6h-4.4zm0-4.1v-3.2-.4h4.3v3.6h-4.3zm5.9 4.1h-1.1v-1.4-2.2h4.4v3.7c-1-.1-2.2-.1-3.3-.1zm0-7.8h3.4V29.6h-4.4v-3.2-.4c.3-.1.6-.1 1-.1zm-1-.4v-3.7h4.3v3.7h-4.3zm4.6 8.2v-1.5V30h4.4v3.8c-1.3-.1-2.8-.1-4.4-.1zm.2-15.9h4.3v3.8H54v-1.9-1.9zm4.2 4v3.8h-4.3v-3.7c1.5-.1 3-.1 4.3-.1zm.1 4.1v3.8h-4.4v-3.3-.4c1.5-.1 3-.1 4.4-.1zm3.3 7.9h-3v-1.5V30h4.5v3.8h-1.5zm-2.9-16.1H63v3.8h-4.3v-1.9-1.9zm2.9 4.1H63v3.8h-4.3v-3.8h2.9zm0 4.1H63v3.8h-4.5v-3.3-.5h3.1zm1.8 7.9v-1.5V30c1.7 0 3.2 0 4.4-.1v4c-1.2-.1-2.7-.1-4.4-.1zm4.4-12.2c-1.2 0-2.7 0-4.3-.1v-1.9-1.9c1.6 0 3.1 0 4.3-.1v4zm-4.3-4.2v-3.9c1.6 0 3.1 0 4.3-.1v4c-1.3.1-2.7.1-4.3 0zm0 4.4c1.6 0 3.1 0 4.3-.1v4c-1.3 0-2.7 0-4.3-.1v-3.8zm4.3 4v4c-1.3 0-2.8 0-4.4-.1v-3.3-.5c1.7-.1 3.1-.1 4.4-.1zm3.8 8.1h-3.4v-1.6-2.4h3.4v4zm0-4.1h-3.4v-3.4-.6h3.3v4zm0-4.1h-3.3v-4h3.3v4zm0-4.1h-3.3v-2-2h3.3v4zm0-4.1h-3.3v-4h3.3v4zm0-12.2h-.4.4v4.1H69c-.1 0-.2.1-.3.1h2.8v4.1h-3.3V13 9.7h-.4V13.5c-1.2 0-2.5 0-4-.1l-.8.4v3.7h-4.3v-1.4l-.3.2c-.1 0-.1.1-.2.1v1.1h-4l-1.4.4h.5v3.8H49v-1.8-.1l-.5.3v1.6h-2.4l-.7.4h3.1v3.7h-4.3v-2.9l-.3.1v2.5H41l-.5.5h3.4v3.6h-4.4v-2.8l-.4.4v2.5h-2.2-.1l-.4.5h2.7v3.6h-4.6v-1.4-.3l-.3.3v1.4h-4.5v-1.4-1.6l-.1-.1.1-.1v-.3h.3l.4-.5h-.7v-3.2-.4h.6l-.5-.5h-.1v-.1l-.1-.6v.5h-4.3v-3.7h4.3v2.4l.5-.5v-2H32l.5-.5h-2.4v-1.8-1.8h4.3v1.7c.1-.1.3-.2.5-.3v-1.4h4.2l1.4-.5h-.9v-2.3h-.4v2.3H35v-3.6h1.3V13H35v-.4-3.2h4.4v1.9h.4V9.4h4.4V11h.4V9.3H49v2.4l.4.1V9.3h1.1c0-.1.1-.3.1-.4h-1.2V6.7 5.3h4.5v1.1h.3V5.3h4.5v3.8h-.9c0 .1.1.2.1.3h.8v2.5l.4-.2V9.4h4.5v.6l.4-.1v-.5h3.1c-.1 0-.3-.1-.4-.2H64V6.9 5.4h.6v-.2H64c0-.9 0-1.7-.1-2.4v-.4h3.4c.3-.1.6-.1.9-.1.3 0 .7.1 1 .1h3l-.6 2.9z"/></svg>