<svg id="Layer_1" xmlns="http://www.w3.org/2000/svg" viewBox="0 0 57 50"><path d="M52.5 18.7c2.7-1.8 4.5-4.9 4.5-8.5C57 4.6 52.5 0 46.9 0c-.4 0-.7 0-1.1.1-.2-.1-.3-.1-.5-.1H8.7c-.4 0-.7.1-1 .3C3.3 1.4 0 5.4 0 10.2c0 3.5 1.8 6.7 4.5 8.5 1.1.7 2.3 1.2 3.7 1.5v27.9c0 1 .8 1.9 1.9 1.9s1.9-.8 1.9-1.9V20.4h3.6v27.8c0 1 .8 1.9 1.9 1.9s1.9-.8 1.9-1.9V20.4H23v27.8c0 1 .8 1.9 1.9 1.9 1 0 1.9-.8 1.9-1.9V20.4h3.6v27.8c0 1 .8 1.9 1.9 1.9 1 0 1.9-.8 1.9-1.9V20.4h3.6v27.8c0 1 .8 1.9 1.9 1.9 1 0 1.9-.8 1.9-1.9V20.4H45v27.8c0 1 .8 1.9 1.9 1.9 1 0 1.9-.8 1.9-1.9v-28c1.3-.2 2.5-.8 3.7-1.5-.1 0-.1 0 0 0zm-34.6-2.1c1.4-1.8 2.3-4 2.3-6.4s-.9-4.7-2.3-6.4h21.2c-1.4 1.8-2.3 4-2.3 6.4s.9 4.7 2.3 6.4H17.9zM5.6 8c1.3-1.3 3.5-1.3 4.8 0 .9.9.9 2.4 0 3.4-.7.7-.7 1.9 0 2.7.7.7 1.9.7 2.6 0 2.4-2.4 2.4-6.3 0-8.7-.7-.7-1.5-1.2-2.3-1.6 3.2.3 5.8 3.1 5.8 6.4 0 1.8-.7 3.4-1.8 4.5-2.5 2.5-6.5 2.5-9 0-2-1.8-2-4.8-.1-6.7zM44 14c.7.7 1.9.7 2.6 0 .7-.7.7-1.9 0-2.7-.9-.9-.9-2.4 0-3.4 1.3-1.3 3.5-1.3 4.8 0 1.8 1.9 1.8 4.9 0 6.8-2.5 2.5-6.5 2.5-9 0-1.1-1.2-1.8-2.8-1.8-4.5 0-3.3 2.5-6.1 5.8-6.4-.8.4-1.6.9-2.3 1.6-2.5 2.3-2.5 6.2-.1 8.6z"/></svg>