<svg id="Layer_1" xmlns="http://www.w3.org/2000/svg" viewBox="0 0 52 56"><path d="M18.3 14c0-2.3 1.9-4.2 4.2-4.2s4.2 1.9 4.2 4.2-1.9 4.2-4.2 4.2-4.2-1.9-4.2-4.2zm6.2 19c-2 .8-4.1 1.4-6.2 1.7v19.5c0 1 .8 1.8 1.8 1.8s1.8-.8 1.8-1.8V37.7c.3 0 .5.1.8.1.3 0 .5 0 .8-.1V48c0 1 .8 1.8 1.8 1.8s1.8-.8 1.8-1.8V34.5c0-.1 0-.3-.1-.4 0-.2.1-.4.1-.6V32c-.9.3-1.7.6-2.6 1zm-6.7-10.1c.2.2.3.3.5.4v5.3c1.3-.2 2.6-.6 3.8-1.1 1.7-.8 3.3-1.4 4.9-1.9v-2.2-.5l9.2-9.2c.7-.7.7-1.8 0-2.5s-1.8-.7-2.5 0L25 19.6c-.7-.4-1.5-.7-2.4-.7-1.1 0-2.1.4-2.8 1L10.9 11c-.7-.7-1.8-.7-2.5 0s-.7 1.8 0 2.5l9.4 9.4zm20.4.4c-5 .3-9.2 1.6-14.3 4.3-3.4 1.7-7.5 2.4-10.8 1.9-2-.3-3.8-1.7-5.8-3.2l-2.4-1.8-2.3 3.4c.7.5 1.4 1 2.2 1.6 2.2 1.7 4.6 3.6 7.7 4 1.3.2 2.7.3 4.1.2 3.1-.2 6.3-1 9.1-2.5h.1c4.6-2.4 8.2-3.6 12.6-3.8 3.1-.2 4.2.4 6.9 2.1l.8.5 2.1-3.5-.7-.5c-2.9-1.8-4.9-3-9.3-2.7zm7.5-13.7l-1.2-1.1-1.1 1.2 1.2 1.1 1.1-1.2zm-1.1 5.2V14h-.8v.8h.8zm-6.9 3.4l1-1-1-1-1 1 1 1zM0 7.4l1.4.5.6-1.4-1.5-.6L0 7.4zM5 11L4 9.4l-1.7 1 1 1.7L5 11zm3 6.9l-.5-1.5-1.5.5.5 1.5 1.5-.5zm6.5-10.5l.6.5.5-.6-.6-.5-.5.6zm10.3-2.3l-.7-.3-.3.7.7.3.3-.7zm3.6 2.2l.1.5c2.2-.5 3.5-1.3 3.8-2.2.2-.9-.2-1.3-.5-1.7-.2-.2-.3-.4-.4-.6v-.1c-.4-.9-.8-1.9-.1-2.9l-.5-.3c-.8 1.3-.3 2.5.1 3.4.1.3.3.6.5.8.3.4.5.6.4 1.2-.3.8-1.5 1.4-3.4 1.9zM14.7 2.6c1.1.9 2.1 1.9 1.7 2.8l.5.2c.6-1.3-.7-2.4-1.8-3.4-.6-.5-1.1-1-1.4-1.4l-.5.2c.3.6.9 1 1.5 1.6zm34.9 12.1l.5.1v-.1c.2-1.7.4-3 1.9-3v-.5c-2.1.1-2.3 2.2-2.4 3.5z"/></svg>