<svg id="Layer_1" xmlns="http://www.w3.org/2000/svg" viewBox="0 0 50 50"><path d="M26.4 23.6c.8.8.8 2 0 2.8-.8.8-2 .8-2.8 0-.8-.8-.8-2 0-2.8.8-.7 2-.7 2.8 0z"/><path d="M35.7 35.1l-7.7-13c0-.1-.1-.1-.2-.2l-12.9-7.6c-.2-.1-.5-.1-.6.1-.2.2-.2.4-.1.6l7.6 12.9c0 .1.1.1.2.2l13 7.8c.1 0 .2.1.3.1.3 0 .5-.2.5-.5.1-.2 0-.3-.1-.4zm-13-7.8l-6.5-11.1 11.1 6.5 6.6 11.2-11.2-6.6z"/><path d="M26.4 23.6c.8.8.8 2 0 2.8-.8.8-2 .8-2.8 0-.8-.8-.8-2 0-2.8.8-.7 2-.7 2.8 0z"/><path d="M35.7 35.1l-7.7-13c0-.1-.1-.1-.2-.2l-12.9-7.6c-.2-.1-.5-.1-.6.1-.2.2-.2.4-.1.6l7.6 12.9c0 .1.1.1.2.2l13 7.8c.1 0 .2.1.3.1.3 0 .5-.2.5-.5.1-.2 0-.3-.1-.4zm-13-7.8l-6.5-11.1 11.1 6.5 6.6 11.2-11.2-6.6z"/><path d="M26.4 26.4c-.8.8-2 .8-2.8 0-.8-.8-.8-2 0-2.8.8-.8 2-.8 2.8 0 .7.8.7 2 0 2.8z"/><path d="M35.7 35.1l-7.7-13c0-.1-.1-.1-.2-.2l-12.9-7.6c-.2-.1-.5-.1-.6.1-.2.2-.2.4-.1.6l7.6 12.9c0 .1.1.1.2.2l13 7.8c.1 0 .2.1.3.1.3 0 .5-.2.5-.5.1-.2 0-.3-.1-.4zm-13-7.8l-6.5-11.1 11.1 6.5 6.6 11.2-11.2-6.6z"/><path d="M25 0C11.2 0 0 11.2 0 25s11.2 25 25 25 25-11.2 25-25S38.8 0 25 0zm.6 45.3V43c0-.3-.2-.5-.5-.5s-.5.2-.5.5v2.3C13.7 45.1 5 36.4 4.7 25.7h2.6c.3 0 .5-.2.5-.5s-.2-.5-.5-.5H4.7c.2-10.9 9-19.7 19.9-20v2.7c0 .3.2.5.5.5s.5-.2.5-.5V4.7c10.8.3 19.6 9.1 19.8 20h-2.5c-.3 0-.5.2-.5.5s.2.5.5.5h2.5C45 36.4 36.3 45 25.6 45.3z"/></svg>