<?xml version="1.0" encoding="utf-8"?>
<!-- Generator: Adobe Illustrator 19.1.0, SVG Export Plug-In . SVG Version: 6.00 Build 0)  -->
<svg version="1.1" id="Layer_1" xmlns="http://www.w3.org/2000/svg" xmlns:xlink="http://www.w3.org/1999/xlink" x="0px" y="0px"
	 viewBox="0 0 56 44" style="enable-background:new 0 0 56 44;" xml:space="preserve">
<g>
	<path d="M48.1,11.8c2.4,0.3,4.4,1.5,5.8,3.3c1.4,1.8,2.1,3.8,2.1,6c-0.1,1.6-0.2,3.1-0.6,4.7c-0.9,3.4-2.7,6.4-5.3,8.7
		c-1.6,1.4-3.5,1.9-5.6,1.6c-0.9-0.1-1.7-0.4-2.6-0.6c-0.2-0.1-0.3-0.1-0.5,0c-0.6,0.2-1.3,0.3-1.9,0.5c-2.2,0.5-4.2,0.1-6.1-1.3
		c-0.7-0.5-1.2-1.2-1.8-1.9c-1.7-2-2.9-4.3-3.7-6.8c-0.4-1.3-0.6-2.7-0.7-4.1c-0.1-0.9-0.1-1.7,0.1-2.6c0.3-2.2,1.4-4,3-5.4
		c2.1-1.8,4.5-2.5,7.3-2.3c1,0.1,2,0.2,3,0.5c0.2,0.1,0.2,0,0.2-0.2c0-0.3-0.1-0.8-0.1-1.1c-0.3-1.5-1.2-2.6-2.5-3.4
		c-0.3-0.2-0.3-0.2-0.1-0.5c0.2-0.3,0.3-0.7,0.5-1c0.1-0.2,0.2-0.2,0.3-0.1C39,5.9,39.2,6,39.5,6.2c0.9,0.6,1.6,1.5,2.2,2.5
		c0.1,0.2,0.1,0.2,0.2,0c0.2-0.3,0.4-0.5,0.6-0.8c1.5-1.5,3.3-2.3,5.4-2.3c1.2-0.1,2.4,0.3,3.5,0.8c0.1,0.1,0.1,0.1,0.1,0.2
		c-0.6,0.9-1.2,1.7-2,2.4c-1.4,1.1-3,1.8-4.8,1.8c-0.8,0-1.6-0.1-2.4-0.3c-0.1-0.1-0.2-0.1-0.2,0.1c0.1,0.5,0.2,0.9,0.1,1.3
		c0,0.1,0.1,0.1,0.2,0.1c1.3-0.3,2.7-0.5,4.2-0.5C47.1,11.7,47.6,11.7,48.1,11.8z M35.5,15.1c-1.4,0.2-2.5,0.8-3.4,1.8
		c-1,1-1.5,2.3-1.6,3.7c0,0.3,0.1,0.7,0.3,0.9c0.3,0.2,0.6,0.2,0.9,0.1c0.3-0.2,0.5-0.4,0.5-0.8c0-0.5,0.1-0.9,0.2-1.3
		c0.6-1.6,2.1-2.7,3.9-2.7c0.5,0,0.8-0.3,0.8-0.7c0.1-0.5-0.2-0.9-0.6-1c-0.2-0.1-0.3,0-0.5-0.1C36,15.1,35.8,15.1,35.5,15.1z
		 M20.3,35v-0.2c0-1.5-1.2-2.6-2.7-2.6h-15c-1.5,0-2.7,1.2-2.7,2.6V35c0,1.5,1.2,2.6,2.7,2.6h15.1C19.2,37.5,20.3,36.4,20.3,35z
		 M16.9,41.4v-0.2c0-1.5-1.2-2.6-2.7-2.6H6c-1.5,0-2.7,1.2-2.7,2.6v0.2C3.4,42.8,4.5,44,6,44h8.3C15.7,44,16.9,42.8,16.9,41.4z M0,9
		v0.2c0,1.5,1.2,2.6,2.7,2.6h15.1c1.5,0,2.7-1.2,2.7-2.6V9c0-1.5-1.2-2.6-2.7-2.6H2.7C1.2,6.5,0,7.6,0,9z M3.4,2.6v0.2
		c0,1.5,1.2,2.6,2.7,2.6h8.2c1.5,0,2.7-1.2,2.7-2.6V2.6C17,1.2,15.8,0,14.3,0H6.1C4.6,0,3.4,1.2,3.4,2.6z M12.8,28.5v-13
		c0-1.3-1.1-2.3-2.4-2.3H9.9c-1.3,0-2.4,1-2.4,2.3v12.9c0,1.3,1.1,2.3,2.4,2.3h0.5C11.7,30.8,12.8,29.8,12.8,28.5z"/>
</g>
</svg>
