<?xml version="1.0" encoding="utf-8"?>
<!-- Generator: Adobe Illustrator 19.1.0, SVG Export Plug-In . SVG Version: 6.00 Build 0)  -->
<svg version="1.1" id="Layer_1" xmlns="http://www.w3.org/2000/svg" xmlns:xlink="http://www.w3.org/1999/xlink" x="0px" y="0px"
	 viewBox="0 0 56 48" style="enable-background:new 0 0 56 48;" xml:space="preserve">
<g>
	<path d="M39.9,8.7c0-0.2,0-0.4-0.1-0.5c-0.4-1.7-1.2-2.9-1.8-3.7C33.8-0.8,25,0,24.4,0c0,0,0,0-0.1,0c-0.7,0-9-0.8-13,4.3
		c-1,1.3-1.5,2.6-1.8,3.8C9.4,8.4,9.4,8.7,9.4,8.9l1.9,33.9l0,0l-0.4,4.2c0.1,0.4,0.4,0.3,0.6,0.4c1,0.8,3.1,0.7,3.8,0.6
		c0.1,0,0.2,0,0.4-0.1c0.6,0,2.5,0.1,3.6-0.7c0.3-0.2,0.4-0.2,0.6-0.5l-0.2-1.9c-0.2-1.2,0.9-2,2.2-2h5.7c1.4,0,2.5,0.8,2.3,2.1
		l-0.2,2c0.1,0.4,0.4,0.3,0.6,0.5c1,0.8,3.1,0.7,3.8,0.6c0.1,0,0.2,0,0.4,0c0.6,0,2.5,0.1,3.6-0.7c0.3-0.2,0.4-0.2,0.6-0.5
		c-0.1-1.4-0.2-2.9-0.4-4.3L39.9,8.7z M24.5,22.3c-4.8,0-8.7-3.8-8.7-8.4c0-4.6,3.9-8.4,8.7-8.4s8.7,3.8,8.7,8.4
		C33.2,18.5,29.3,22.3,24.5,22.3z M24.5,8.9c-2.8,0-5.2,2.2-5.2,5s2.3,5,5.2,5s5.2-2.2,5.2-5C29.7,11.1,27.4,8.9,24.5,8.9z
		 M26.6,17.5c-0.4,0-0.9-0.4-0.9-0.8c0-0.4,0.4-0.8,0.9-0.8c0.4,0,0.9,0.4,0.9,0.8C27.4,17.1,27.1,17.5,26.6,17.5z M26.6,14.3
		c-1,0-1.9-0.8-1.9-1.8c0-1,0.9-1.8,1.9-1.8c1,0,1.9,0.8,1.9,1.8S27.6,14.3,26.6,14.3z M20.6,21.7c-0.2-0.1-0.5-0.2-0.9-0.2
		c-0.6,0-1.2,0.2-1.7,0.4c-0.8,0.4-1.2,1-1.7,1.7c-0.3,0.5-0.6,1-1,1.3c-0.1,0.1-0.2,0.2-0.4,0.4l0,0c-0.8,0.8-1.4,1.9-1.8,3
		c-0.5,1-1,2-1.8,2.8c-1,1.1-1.8,2.3-2.6,3.5c-0.8,1.3-1.6,2.5-2.6,3.7c-1.5,1.6-3.4,2.9-5.3,3.7C0.3,42.1-0.1,42.6,0,43
		c0,0.5,0.3,0.9,0.8,1.1c1,0.4,2,0.5,3.1,0.5c0.1,0,0.2,0,0.4,0c1.6-0.1,4.6-0.5,6.2-2.3c0.2-0.2,0.6-0.6,1-1c0.5-0.5,1-1,1.2-1.3
		c1.8-2.2,3.6-3.1,5.9-4c0.5-0.2,0.8-0.7,0.8-1.1C19.2,30.8,19.7,25.4,20.6,21.7z M4.4,43.9c-0.8,0.1-1.5-0.2-1.5-0.7
		c-0.1-0.4,0.6-0.9,1.4-1C5,42.3,5.7,42.5,5.7,43C5.7,43.5,5.2,43.9,4.4,43.9z M8.6,42.6c-0.9,0.3-1.8,0.1-2-0.4
		C6.5,41.7,7,41,7.9,40.7c0.9-0.3,1.8-0.1,2,0.4C10.1,41.6,9.5,42.3,8.6,42.6z M12.3,39.9c-0.4,0.5-1.1,0.6-1.7,0.2
		c-0.6-0.4-0.7-1.1-0.3-1.6c0.4-0.5,1.1-0.6,1.7-0.2C12.5,38.7,12.7,39.4,12.3,39.9z M55.4,14.8c-1.7-0.5-3.3-0.7-4.7-0.6
		c-2.2,0.2-4.1,1.3-5,2.8c-0.5,0.8-0.8,1.7-1,2.6c-0.2,0.7-0.4,1.5-0.7,2.2c-0.5,1-1.3,1.9-2.3,2.5c-1,0.7-2.2,1-3.3,1.1
		c-0.1,0-0.2,0-0.4,0c-1,0-2.1-0.2-3-0.7c-1-0.5-1.9-1.3-2.5-2.2c-1.1,1.9-2.2,3.8-3.3,5.7c-0.2,0.4-0.5,0.8-0.6,1.3
		c-0.2,0.8,0.1,2,1.3,3.1c0.7,0.6,1.7,1.1,3,1.5c1.8,0.6,3.9,1.1,6.2,1.4c2,0.3,4.3,0.5,6.1-0.6c1.9-1.1,2.8-3.4,3.5-5.7
		c0.7-2.2,1.4-4.3,2-6.4c0.8-2.6,1.9-5.5,4.4-6.6c0.1-0.1,0.2-0.1,0.4-0.2c0.1,0,0.1-0.1,0.2-0.1c0.3-0.1,0.4-0.4,0.4-0.7
		C55.8,15.1,55.6,14.9,55.4,14.8z M41.3,34.6c-1,0.1-1.9-0.3-2-0.9c-0.1-0.6,0.7-1.3,1.7-1.4c1-0.1,1.9,0.3,2,0.9
		C43.1,33.9,42.4,34.5,41.3,34.6z M45.6,32.3c-0.4,0.5-1,0.6-1.5,0.2c-0.5-0.4-0.6-1.1-0.3-1.6c0.4-0.5,1-0.6,1.5-0.2
		C45.8,31.1,45.9,31.8,45.6,32.3z M47.7,29.2c-0.4,0.8-1.1,1.3-1.7,1c-0.6-0.2-0.7-1.1-0.4-1.9c0.4-0.8,1.1-1.3,1.7-1
		C47.8,27.5,48,28.4,47.7,29.2z M49.4,24.8c-0.2,0.8-0.9,1.4-1.5,1.3c-0.6-0.2-0.9-1-0.7-1.8c0.2-0.8,0.9-1.4,1.5-1.3
		C49.3,23.1,49.6,23.9,49.4,24.8z M49.4,21.6c-0.6,0.1-1.1-0.2-1.2-0.7c-0.1-0.4,0.4-0.8,1-0.9c0.6-0.1,1.1,0.2,1.2,0.7
		C50.4,21.1,49.9,21.5,49.4,21.6z M51.5,18.1c-0.7,0.7-1.5,0.8-2,0.4c-0.4-0.4-0.2-1.3,0.5-1.9c0.7-0.6,1.5-0.8,2-0.4
		C52.5,16.6,52.2,17.4,51.5,18.1z"/>
</g>
</svg>
