<?xml version="1.0" encoding="utf-8"?>
<!-- Generator: Adobe Illustrator 19.1.0, SVG Export Plug-In . SVG Version: 6.00 Build 0)  -->
<svg version="1.1" id="Layer_1" xmlns="http://www.w3.org/2000/svg" xmlns:xlink="http://www.w3.org/1999/xlink" x="0px" y="0px"
	 viewBox="0 0 38 53" style="enable-background:new 0 0 38 53;" xml:space="preserve">
<g>
	<path d="M36,32.5c-1.8-3.3-4.7-5.7-6.9-6.9c-0.5,0.4-1.1,0.7-1.7,1.1c2.1,2,3.7,4.8,4.4,8.1c2.4,1.1,4.3,3.5,5.2,6.5
		c0.3-0.2,0.5-0.5,0.7-0.9C38.5,38.4,37.4,34.9,36,32.5z M6.1,34.7c0.7-3.3,2.3-6.1,4.4-8.1c-0.6-0.3-1.1-0.7-1.7-1.1
		c-2.2,1.2-5,3.6-6.9,6.9c-1.3,2.4-2.5,5.9-1.8,7.8c0.2,0.4,0.4,0.7,0.7,0.9C1.8,38.2,3.7,35.7,6.1,34.7z M19.8,46.8
		c-0.1-0.2-0.1-0.4-0.1-0.6c-0.2-1.4-0.1-2.9,0.3-4.3c0.7-2.2,2-4.1,3.6-5.5c0.2-0.1,0.3-0.3,0.5-0.4c1.6-1.3,3.4-2,5.2-2
		c0.3,0,0.5,0,0.8,0c0.4,0.1,0.8,0.2,1.1,0.3c-0.7-3.1-2.2-5.7-4.3-7.6c-2.4,1.2-5.1,1.9-8,1.9c-2.9,0-5.6-0.7-8-1.9
		c-2,1.9-3.5,4.5-4.3,7.6c0.4-0.1,0.8-0.2,1.1-0.3c2.1-0.3,4.2,0.5,6,2c0.2,0.1,0.3,0.3,0.5,0.4c1.5,1.4,2.8,3.3,3.6,5.5
		c0.5,1.4,0.6,2.9,0.3,4.3c0,0.2-0.1,0.4-0.1,0.6c-0.1,0.5-0.3,1-0.5,1.5c-0.1,0.2-0.2,0.4-0.2,0.5c0.1,0,0.3,0,0.4,0
		c0.4,0,0.8,0,1.1,0c0.5,0,1.1,0,1.6,0c-0.1-0.2-0.2-0.4-0.2-0.5C20.1,47.8,19.9,47.3,19.8,46.8z M3,12.8C3.3,13,3.6,13.2,4,13.3
		c-0.5,3.5,0.8,7.1,3.4,9.8c0.2,0.2,0.3,0.4,0.5,0.5l0,0c0.5,0.5,1.1,1,1.8,1.4l0,0c0.2,0.1,0.4,0.3,0.6,0.4c0,0,0,0,0,0
		c0.2,0.1,0.4,0.3,0.6,0.4c0,0,0,0,0.1,0c0.2,0.1,0.4,0.2,0.6,0.3c0,0,0.1,0,0.1,0c0.2,0.1,0.4,0.2,0.6,0.3c0,0,0.1,0,0.1,0
		c0.2,0.1,0.4,0.2,0.6,0.2c0.1,0,0.1,0,0.1,0.1c0.2,0.1,0.4,0.1,0.6,0.2c0.1,0,0.1,0,0.2,0.1c0.2,0.1,0.4,0.1,0.6,0.2
		c0.1,0,0.1,0,0.2,0.1c0.2,0,0.4,0.1,0.6,0.1c0.1,0,0.2,0,0.2,0c0.2,0,0.4,0.1,0.6,0.1c0.1,0,0.2,0,0.3,0c0.2,0,0.4,0,0.6,0.1
		c0.1,0,0.2,0,0.3,0c0.2,0,0.4,0,0.6,0c0.1,0,0.2,0,0.3,0c0.3,0,0.6,0,0.9,0l0,0l0,0c0.3,0,0.6,0,0.9,0c0.1,0,0.2,0,0.3,0
		c0.2,0,0.4,0,0.6,0c0.1,0,0.2,0,0.3,0c0.2,0,0.4,0,0.6-0.1c0.1,0,0.2,0,0.3,0c0.2,0,0.4-0.1,0.6-0.1c0.1,0,0.2,0,0.2,0
		c0.2,0,0.4-0.1,0.6-0.1c0.1,0,0.1,0,0.2,0c0.2-0.1,0.4-0.1,0.6-0.2c0.1,0,0.1,0,0.2,0c0.2-0.1,0.4-0.1,0.6-0.2c0,0,0.1,0,0.1,0
		c0.2-0.1,0.4-0.2,0.6-0.3c0,0,0.1,0,0.1,0c0.2-0.1,0.4-0.2,0.6-0.3c0,0,0,0,0.1,0c0.2-0.1,0.4-0.2,0.7-0.3c0,0,0,0,0,0
		c0.2-0.1,0.4-0.3,0.7-0.4l0,0c1.1-0.7,2.1-1.5,2.9-2.4l0,0c2.5-2.7,3.8-6.2,3.4-9.8c0.3-0.2,0.6-0.4,0.9-0.6c3-2.3,3.7-6.7,1.5-9.9
		s-6.4-3.9-9.4-1.6c-0.4,0.3-0.7,0.6-1,0.9C23.9,1,21.5,0.4,19,0.4c-2.5,0-4.9,0.7-7.1,1.8c-0.3-0.3-0.6-0.6-1-0.9
		c-3-2.3-7.3-1.5-9.4,1.6C-0.7,6.1,0,10.5,3,12.8z M19,13.9c2.4,0,4.6,0.9,5.9,2.5c0.9,1.1,1.3,2.4,1,3.7c-0.6,2.9-3.6,5.1-6.9,5.2
		c-3.4,0-6.3-2.2-6.9-5.2c-0.3-1.3,0.1-2.5,1-3.7C14.4,14.8,16.6,13.9,19,13.9z M29.3,3.5c1.6-1.2,3.7-0.8,4.9,0.8
		c1.1,1.6,0.8,3.9-0.8,5.1c-0.1,0.1-0.2,0.2-0.4,0.2c-0.9-2.2-2.4-4.2-4.2-5.7C29,3.8,29.1,3.7,29.3,3.5z M23.6,8.9
		c0.7,0,1.2,0.8,1.2,1.7c0,1-0.5,1.7-1.2,1.7c-0.7,0-1.2-0.8-1.2-1.7C22.4,9.7,22.9,8.9,23.6,8.9z M14.4,8.9c0.7,0,1.2,0.8,1.2,1.7
		c0,1-0.5,1.7-1.2,1.7c-0.7,0-1.2-0.8-1.2-1.7C13.2,9.7,13.8,8.9,14.4,8.9z M3.8,4.4c1.1-1.6,3.3-2,4.9-0.8C8.9,3.7,9,3.8,9.2,4
		C7.4,5.5,5.9,7.4,5,9.7C4.9,9.6,4.7,9.5,4.6,9.4C3.1,8.3,2.7,6,3.8,4.4z M30,34.8c-0.2,0-0.5,0-0.7,0c-3.5,0-7.1,3.1-8.6,7.4
		c-0.8,2.4-0.5,4.9,0.8,7c1.3,2.1,3.4,3.4,5.9,3.7c2.7,0.4,5.3-0.5,7.1-2.4c1.6-1.6,2.4-3.9,2.3-6.1C36.7,39.5,33.7,35.4,30,34.8z
		 M27.8,50.1c-1.7-0.2-3.2-1.1-4.1-2.6c-0.9-1.5-1.1-3.2-0.6-4.9c1-3,3.5-5.1,5.9-5.1c0.2,0,0.3,0,0.5,0c2.6,0.4,4.6,3.2,4.8,6.6
		c0.1,1.6-0.5,3.1-1.6,4.3C31.5,49.8,29.7,50.4,27.8,50.1z M17.3,42.2c-1.4-4.3-5-7.4-8.6-7.4c-0.2,0-0.5,0-0.7,0
		c-3.7,0.5-6.7,4.6-6.9,9.5c-0.1,2.3,0.7,4.5,2.3,6.1C5,52.1,7,53,9.3,53l0,0c0.4,0,0.8,0,1.2-0.1c2.5-0.3,4.6-1.7,5.9-3.7
		C17.8,47.1,18.1,44.6,17.3,42.2z M9.3,50.2L9.3,50.2c-1.6,0-3-0.6-4.1-1.7c-1.1-1.1-1.7-2.7-1.6-4.3c0.2-3.4,2.2-6.2,4.8-6.6
		c0.2,0,0.3,0,0.5,0c2.4,0,4.9,2.2,5.9,5.1c0.6,1.6,0.3,3.4-0.6,4.9c-0.9,1.4-2.4,2.3-4.1,2.6C9.9,50.2,9.6,50.2,9.3,50.2z M19,23.4
		c2,0,3.8-0.9,4.5-2.5c0.1-0.1,0-0.3-0.1-0.4c-0.1-0.1-0.3,0-0.4,0.1c-0.6,1.3-2.1,2-3.7,2.1v-3.3c0.9-0.1,1.9-0.9,2.3-1.9
		c0.4-1-0.8-1.9-2.7-1.8c-1.9,0-3,0.9-2.5,1.9c0.5,0.9,1.5,1.6,2.3,1.8v3.3c-1.7-0.1-3.1-0.9-3.7-2.1c-0.1-0.1-0.2-0.2-0.4-0.1
		c-0.1,0.1-0.2,0.2-0.1,0.4C15.2,22.4,17,23.4,19,23.4z"/>
</g>
</svg>
