<?xml version="1.0" encoding="utf-8"?>
<!-- Generator: Adobe Illustrator 19.1.0, SVG Export Plug-In . SVG Version: 6.00 Build 0)  -->
<svg version="1.1" id="Layer_1" xmlns="http://www.w3.org/2000/svg" xmlns:xlink="http://www.w3.org/1999/xlink" x="0px" y="0px"
	 viewBox="0 0 47 49" style="enable-background:new 0 0 47 49;" xml:space="preserve">
<path d="M45.2,0v1.3c0,0.8-0.6,1.4-1.3,1.4h-2.5c-0.7,0-1.3-0.6-1.3-1.4V0H6.9v1.3c0,0.8-0.6,1.4-1.3,1.4H3.1C2.4,2.7,1.8,2,1.8,1.3
	V0H0v49h1.8c0,0,0,0,0,0v-1.3c0-0.8,0.6-1.4,1.3-1.4h2.5c0.7,0,1.3,0.6,1.3,1.4V49c0,0,0,0,0,0h33.2c0,0,0,0,0,0v-1.3
	c0-0.8,0.6-1.4,1.3-1.4h2.5c0.7,0,1.3,0.6,1.3,1.4V49c0,0,0,0,0,0H47V0H45.2z M6.9,42.2c0,0.8-0.6,1.4-1.3,1.4H3.1
	c-0.7,0-1.3-0.6-1.3-1.4v-1.3c0-0.8,0.6-1.4,1.3-1.4h2.5c0.7,0,1.3,0.6,1.3,1.4V42.2z M6.9,35.3c0,0.8-0.6,1.4-1.3,1.4H3.1
	c-0.7,0-1.3-0.6-1.3-1.4V34c0-0.8,0.6-1.4,1.3-1.4h2.5c0.7,0,1.3,0.6,1.3,1.4V35.3z M6.9,28.5c0,0.8-0.6,1.4-1.3,1.4H3.1
	c-0.7,0-1.3-0.6-1.3-1.4v-1.3c0-0.8,0.6-1.4,1.3-1.4h2.5c0.7,0,1.3,0.6,1.3,1.4V28.5z M6.9,21.7c0,0.8-0.6,1.4-1.3,1.4H3.1
	c-0.7,0-1.3-0.6-1.3-1.4v-1.3c0-0.8,0.6-1.4,1.3-1.4h2.5c0.7,0,1.3,0.6,1.3,1.4V21.7z M6.9,14.9c0,0.8-0.6,1.4-1.3,1.4H3.1
	c-0.7,0-1.3-0.6-1.3-1.4v-1.3c0-0.8,0.6-1.4,1.3-1.4h2.5c0.7,0,1.3,0.6,1.3,1.4V14.9z M6.9,8.1c0,0.8-0.6,1.4-1.3,1.4H3.1
	c-0.7,0-1.3-0.6-1.3-1.4V6.8c0-0.8,0.6-1.4,1.3-1.4h2.5c0.7,0,1.3,0.6,1.3,1.4V8.1z M38.1,44.4c0,0.9-0.6,1.9-1.5,1.9H10.7
	c-0.9,0-1.8-1.1-1.8-1.9V27.5c0-0.9,0.9-1.3,1.8-1.3h25.9c0.9,0,1.5,0.4,1.5,1.3V44.4L38.1,44.4z M38.1,21.1c0,0.9-0.7,1.7-1.6,1.7
	H10.5c-1,0-1.6-0.9-1.6-1.7V4c0-0.9,0.7-1.4,1.6-1.4h25.9c1,0,1.6,0.5,1.6,1.4V21.1z M45.2,42.2c0,0.8-0.6,1.4-1.3,1.4h-2.5
	c-0.7,0-1.3-0.6-1.3-1.4v-1.3c0-0.8,0.6-1.4,1.3-1.4h2.5c0.7,0,1.3,0.6,1.3,1.4V42.2z M45.2,35.3c0,0.8-0.6,1.4-1.3,1.4h-2.5
	c-0.7,0-1.3-0.6-1.3-1.4V34c0-0.8,0.6-1.4,1.3-1.4h2.5c0.7,0,1.3,0.6,1.3,1.4V35.3z M45.2,28.5c0,0.8-0.6,1.4-1.3,1.4h-2.5
	c-0.7,0-1.3-0.6-1.3-1.4v-1.3c0-0.8,0.6-1.4,1.3-1.4h2.5c0.7,0,1.3,0.6,1.3,1.4V28.5z M45.2,21.7c0,0.8-0.6,1.4-1.3,1.4h-2.5
	c-0.7,0-1.3-0.6-1.3-1.4v-1.3c0-0.8,0.6-1.4,1.3-1.4h2.5c0.7,0,1.3,0.6,1.3,1.4V21.7z M45.2,14.9c0,0.8-0.6,1.4-1.3,1.4h-2.5
	c-0.7,0-1.3-0.6-1.3-1.4v-1.3c0-0.8,0.6-1.4,1.3-1.4h2.5c0.7,0,1.3,0.6,1.3,1.4V14.9z M45.2,8.1c0,0.8-0.6,1.4-1.3,1.4h-2.5
	c-0.7,0-1.3-0.6-1.3-1.4V6.8c0-0.8,0.6-1.4,1.3-1.4h2.5c0.7,0,1.3,0.6,1.3,1.4V8.1z"/>
</svg>
