<?xml version="1.0" encoding="utf-8"?>
<!-- Generator: Adobe Illustrator 19.1.0, SVG Export Plug-In . SVG Version: 6.00 Build 0)  -->
<svg version="1.1" id="Layer_1" xmlns="http://www.w3.org/2000/svg" xmlns:xlink="http://www.w3.org/1999/xlink" x="0px" y="0px"
	 viewBox="0 0 74 38" style="enable-background:new 0 0 74 38;" xml:space="preserve">
<g>
	<path d="M57.1,13.3l-3.8,1.1c0,0,0,0-0.1,0c-0.8,0.1-1.2,0.1-1.7-0.5h0c-0.4-0.5-1-0.8-1.6-0.9v0l-6-1c-0.1,0-0.1,0-0.2,0l-6.9,0.5
		l0,1.7l6.8,0.3l2.3,0.4l-4.4,2.8c-0.1,0-0.1,0.1-0.2,0.1l-6.2,2.1c-0.2,0.1-0.4,0.2-0.6,0.4l-4.3,4.3l2.2,2.2l4-4.1l3-1l-3.2,2.8
		c-0.1,0-0.1,0.1-0.1,0.1L31,30.5l2.3,2.1l5.2-5.8L44,22c0.1-0.1,0.2-0.1,0.3-0.2l6.5-4.2l7-1.9c0.1,0,0.1,0,0.2-0.1l6.1-3.2
		l-0.7-1.6L57.1,13.3z"/>
	<path d="M55.2,12.9c1.5-0.7,2.1-2.4,1.4-3.9c-0.7-1.5-2.5-2.1-3.9-1.4c-1.5,0.7-2.1,2.4-1.4,3.9C51.9,13,53.7,13.6,55.2,12.9z"/>
	<path d="M66.9,3.1c-1.6,0.4-2.6,2-2.1,3.5c0.4,1.6,2,2.5,3.6,2.1c1.6-0.4,2.5-2,2.1-3.5C70.1,3.7,68.5,2.7,66.9,3.1z"/>
	<path d="M43.9,15.3L43.9,15.3L43.9,15.3C43.9,15.2,43.9,15.2,43.9,15.3z"/>
	<path d="M72.8,0H1.2C0.5,0,0,0.5,0,1.2V38h2.5v-4.1c0.8,0,2,0,3.4,0c0,1,0,1.8,0.1,2.5c0,1,0,1.6,0,1.6s0-0.6,0.1-1.6
		c0-0.7,0-1.5,0.1-2.4c1.3,0,2.8,0,4.6,0.1c0,0.9,0,1.7,0.1,2.4c0,1,0.1,1.6,0.1,1.6s0-0.6,0.1-1.6c0-0.6,0-1.4,0.1-2.4
		c0.5,0,1,0,1.5,0c1,0,2,0,3,0c0,0.9,0,1.7,0.1,2.3c0,1,0.1,1.6,0.1,1.6s0-0.6,0.1-1.6c0-0.6,0-1.4,0.1-2.3c1.5,0,3,0,4.6,0
		c0,0.9,0,1.7,0.1,2.3c0,1,0,1.6,0,1.6s0-0.6,0.1-1.6c0-0.6,0-1.4,0.1-2.3c1.1,0,2.3,0,3.5,0c0.4,0,0.7,0,1.1,0c0,0.9,0,1.7,0.1,2.3
		c0,1,0,1.6,0,1.6s0-0.6,0.1-1.6c0-0.6,0-1.4,0.1-2.3c1.5,0,3,0,4.6,0c0,0.9,0,1.7,0.1,2.3c0,1,0.1,1.6,0.1,1.6s0-0.6,0.1-1.6
		c0-0.6,0-1.4,0.1-2.3c1.5,0,3,0,4.6,0c0,0.9,0,1.7,0.1,2.3c0,1,0.1,1.6,0.1,1.6s0-0.6,0.1-1.6c0-0.6,0-1.4,0.1-2.3
		c0.8,0,1.5,0,2.3,0s1.5,0,2.3,0c0,0.9,0,1.7,0.1,2.3c0,1,0.1,1.6,0.1,1.6s0-0.6,0-1.6c0-0.6,0-1.4,0.1-2.3c1.5,0,3.1,0,4.6,0
		c0,0.9,0,1.7,0.1,2.3c0,1,0,1.6,0,1.6s0-0.6,0.1-1.6c0-0.6,0-1.4,0.1-2.3c1.5,0,3.1,0,4.6,0c0,0.9,0,1.7,0.1,2.3c0,1,0,1.6,0,1.6
		s0-0.6,0.1-1.6c0-0.6,0-1.4,0.1-2.3c0.4,0,0.7,0,1.1,0c1.2,0,2.3,0,3.5,0c0,0.9,0,1.7,0.1,2.3c0,1,0.1,1.6,0.1,1.6s0-0.6,0-1.6
		c0-0.6,0-1.4,0.1-2.3c1.6,0,3.1,0,4.6,0c0,0.9,0.1,1.7,0.1,2.3c0,1,0,1.6,0,1.6s0-0.6,0.1-1.6c0-0.6,0-1.4,0.1-2.3c1.1,0,2.1,0,3,0
		c0.5,0,1,0,1.5,0c0,0.9,0,1.7,0.1,2.4c0,1,0,1.6,0,1.6s0-0.6,0.1-1.6c0-0.6,0-1.4,0.1-2.4c1.7,0,3.3,0,4.6-0.1c0,1,0,1.8,0.1,2.4
		c0,1,0,1.6,0,1.6s0-0.6,0-1.6c0-0.7,0-1.5,0.1-2.4c1.5,0,2.6,0,3.4,0V38H74V1.2C74,0.5,73.5,0,72.8,0z M2.5,9.4c0.8,0,1.9,0,3.4,0
		c0,1.1,0,2.2,0,3.4c0,0.2,0,0.4,0,0.6c-1.4,0-2.5,0-3.3,0C2.5,13.4,2.5,9.4,2.5,9.4z M2.5,13.5c0.8,0,1.9,0,3.3,0c0,1.3,0,2.6,0,4
		c-1.4,0-2.5,0-3.3,0L2.5,13.5L2.5,13.5z M2.5,17.6c0.8,0,1.9,0,3.3,0c0,0.7,0,1.3,0,2c0,0.7,0,1.3,0,2c-1.4,0-2.5,0-3.3,0V17.6z
		 M2.5,21.7c0.8,0,1.9,0,3.3,0c0,1.3,0,2.7,0,4c-1.4,0-2.5,0-3.3,0L2.5,21.7L2.5,21.7z M2.5,25.7c0.8,0,1.9,0,3.3,0
		c0,0.2,0,0.4,0,0.6c0,1.2,0,2.3,0,3.4c-1.4,0-2.6,0-3.4,0V25.7z M2.5,33.9v-4.1c0.8,0,1.9,0,3.4,0c0,0.8,0,1.6,0,2.4
		c0,0.6,0,1.1,0,1.6C4.4,33.9,3.3,33.9,2.5,33.9z M5.9,7c0,0.7,0,1.5,0,2.4c-1.4,0-2.6,0-3.4,0V5.3c0.8,0,2,0,3.4,0
		C5.9,5.9,5.9,6.4,5.9,7z M6,2.8c0,0.7,0,1.5-0.1,2.5c-1.5,0-2.6,0-3.4,0V2.5H6C6,2.6,6,2.7,6,2.8z M6.1,33.8c0-0.5,0-1,0-1.6
		c0-0.7,0-1.5,0-2.4c1.3,0,2.8,0,4.4,0.1c0,0.8,0,1.6,0,2.3c0,0.5,0,1.1,0,1.5C8.9,33.8,7.4,33.8,6.1,33.8z M10.5,21.5
		c-1.6,0-3.1,0-4.3,0.1c0-0.7,0-1.3,0-2c0-0.7,0-1.3,0-2c1.2,0,2.7,0,4.3,0.1c0,0.6,0,1.3,0,1.9C10.5,20.2,10.5,20.9,10.5,21.5z
		 M6.2,17.5c0-1.3,0-2.7,0-4c1.3,0,2.7,0,4.3,0.1c0,1.3,0,2.5,0,3.9C8.9,17.5,7.5,17.5,6.2,17.5z M6.2,21.7c1.2,0,2.7,0,4.3,0.1
		c0,1.3,0,2.6,0,3.9c-1.6,0-3.1,0-4.3,0.1C6.2,24.4,6.2,23,6.2,21.7z M10.5,25.8c0,0.2,0,0.3,0,0.5c0,1.2,0,2.3,0,3.3
		c-1.7,0-3.2,0-4.4,0.1c0-1.1,0-2.2,0-3.4c0-0.2,0-0.4,0-0.6C7.5,25.8,8.9,25.8,10.5,25.8z M10.6,12.9c0,0.2,0,0.3,0,0.5
		c-1.6,0-3.1,0-4.3,0.1c0-0.2,0-0.4,0-0.6c0-1.2,0-2.3,0-3.4c1.3,0,2.8,0,4.4,0.1C10.6,10.6,10.6,11.7,10.6,12.9z M6.2,9.3
		c0-0.8,0-1.6,0-2.4c0-0.6,0-1.1,0-1.6c1.3,0,2.8,0,4.6,0.1c0,0.5,0,1,0,1.5c0,0.7,0,1.5,0,2.3C8.9,9.3,7.5,9.3,6.2,9.3z M10.7,2.8
		c0,0.6,0,1.4-0.1,2.4c-1.7,0-3.2,0-4.6,0.1c0-1-0.1-1.8-0.1-2.4c0-0.1,0-0.2,0-0.4h4.7C10.7,2.6,10.7,2.7,10.7,2.8z M12.4,33.8
		c-0.5,0-1,0-1.5,0c0-0.5,0-1,0-1.5c0-0.7,0-1.5,0-2.3c0.5,0,1,0,1.5,0c0.9,0,1.9,0,3,0c0,0.8,0,1.6,0,2.3c0,0.5,0,1,0,1.5
		C14.4,33.7,13.4,33.8,12.4,33.8z M15.3,21.5c-1,0-2,0-2.9,0c-0.5,0-0.9,0-1.4,0c0-0.6,0-1.3,0-1.9c0-0.6,0-1.3,0-1.9
		c0.5,0,0.9,0,1.4,0c0.9,0,1.9,0,2.9,0c0,0.6,0,1.3,0,1.9C15.3,20.2,15.3,20.9,15.3,21.5z M12.4,17.4c-0.5,0-0.9,0-1.4,0
		c0-1.3,0-2.6,0-3.8c0.5,0,0.9,0,1.4,0c0.9,0,1.9,0,2.9,0c0,1.2,0,2.5,0,3.8C14.3,17.4,13.3,17.4,12.4,17.4z M11,21.8
		c0.5,0,0.9,0,1.4,0c0.9,0,1.9,0,2.9,0c0,1.3,0,2.5,0,3.8c-1,0-2,0-2.9,0c-0.5,0-1,0-1.4,0C11,24.4,11,23.1,11,21.8z M12.4,13.3
		c-0.5,0-1,0-1.4,0c0-0.2,0-0.3,0-0.5c0-1.2,0-2.3,0-3.3c0.5,0,1,0,1.5,0c0.9,0,1.9,0,3,0c0,1.1,0,2.1,0,3.3c0,0.2,0,0.3,0,0.5
		C14.3,13.3,13.3,13.3,12.4,13.3z M11,26.4c0-0.2,0-0.3,0-0.5c0.5,0,0.9,0,1.4,0c0.9,0,1.9,0,2.9,0c0,0.2,0,0.3,0,0.5
		c0,1.1,0,2.3,0,3.3c-1,0-2,0-3,0c-0.5,0-1,0-1.5,0C11,28.6,11,27.5,11,26.4z M15.4,7c0,0.7,0,1.5,0,2.3c-1,0-2,0-3,0
		c-0.5,0-1,0-1.5,0c0-0.8,0-1.6,0-2.3c0-0.5,0-1.1,0-1.5c0.5,0,1,0,1.5,0c1,0,2,0,3,0C15.4,5.9,15.4,6.4,15.4,7z M15.5,2.8
		c0,0.6,0,1.4-0.1,2.3c-1.1,0-2.1,0-3,0c-0.5,0-1,0-1.5,0c0-0.9,0-1.7-0.1-2.4c0-0.1,0-0.2,0-0.4h4.7C15.5,2.6,15.5,2.7,15.5,2.8z
		 M15.6,33.7c0-0.5,0-1,0-1.5c0-0.7,0-1.5,0-2.3c1.4,0,2.9,0,4.4,0c0,0.8,0,1.5,0,2.2c0,0.5,0,1,0,1.5
		C18.6,33.7,17.1,33.7,15.6,33.7z M20.1,21.5c-1.5,0-2.9,0-4.3,0c0-0.6,0-1.3,0-1.9s0-1.3,0-1.9c1.4,0,2.8,0,4.3,0
		c0,0.6,0,1.2,0,1.9C20.1,20.2,20.1,20.8,20.1,21.5z M15.8,17.4c0-1.3,0-2.5,0-3.8c1.4,0,2.8,0,4.3,0c0,1.2,0,2.5,0,3.7
		C18.6,17.4,17.1,17.4,15.8,17.4z M15.8,21.8c1.4,0,2.8,0,4.3,0c0,1.3,0,2.5,0,3.7c-1.5,0-3,0-4.3,0C15.8,24.3,15.8,23.1,15.8,21.8z
		 M15.8,13.3c0-0.2,0-0.3,0-0.5c0-1.1,0-2.3,0-3.3c1.4,0,2.9,0,4.4,0c0,1,0,2.1,0,3.3c0,0.1,0,0.3,0,0.4
		C18.6,13.3,17.1,13.3,15.8,13.3z M15.8,26.4c0-0.1,0-0.3,0-0.5c1.4,0,2.8,0,4.3,0c0,0.1,0,0.3,0,0.4c0,1.1,0,2.2,0,3.3
		c-1.5,0-3,0-4.4,0C15.7,28.6,15.8,27.5,15.8,26.4z M15.7,9.2c0-0.8,0-1.6,0-2.3c0-0.5,0-1,0-1.5c1.5,0,3,0,4.6,0c0,0.5,0,0.9,0,1.5
		c0,0.7,0,1.5,0,2.2C18.6,9.2,17.1,9.2,15.7,9.2z M20.3,2.8c0,0.6,0,1.4-0.1,2.3c-1.6,0-3.1,0-4.6,0c0-0.9,0-1.7-0.1-2.3
		c0-0.1,0-0.2,0-0.4h4.7C20.3,2.6,20.3,2.7,20.3,2.8z M23.9,33.7c-1.2,0-2.3,0-3.4,0c0-0.5,0-0.9,0-1.5c0-0.7,0-1.5,0-2.2
		c1.1,0,2.2,0,3.4,0c0.3,0,0.7,0,1,0c0,0.8,0,1.5,0,2.2c0,0.5,0,1,0,1.4C24.6,33.7,24.2,33.7,23.9,33.7z M20.5,17.8
		c1.1,0,2.2,0,3.3,0c0.3,0,0.7,0,1,0c0,0.6,0,1.2,0,1.8c0,0.6,0,1.2,0,1.8c-0.3,0-0.7,0-1,0c-1.1,0-2.2,0-3.3,0c0-0.6,0-1.2,0-1.9
		C20.6,19,20.5,18.4,20.5,17.8z M23.9,21.9c0.3,0,0.7,0,1,0c0,1.2,0,2.5,0,3.7c-0.3,0-0.7,0-1,0c-1.1,0-2.3,0-3.3,0
		c0-1.2,0-2.4,0-3.7C21.6,21.8,22.7,21.8,23.9,21.9z M24.8,17.3c-0.3,0-0.7,0-1,0c-1.1,0-2.2,0-3.3,0c0-1.3,0-2.5,0-3.7
		c1.1,0,2.2,0,3.3,0c0.3,0,0.7,0,1,0C24.9,14.9,24.9,16.1,24.8,17.3z M23.9,13.3c-1.1,0-2.3,0-3.3,0c0-0.1,0-0.3,0-0.4
		c0-1.1,0-2.2,0-3.3c1.1,0,2.2,0,3.4,0c0.3,0,0.7,0,1,0c0,1,0,2.1,0,3.2c0,0.1,0,0.3,0,0.4C24.5,13.3,24.2,13.3,23.9,13.3z
		 M20.5,26.4c0-0.1,0-0.3,0-0.4c1.1,0,2.2,0,3.3,0c0.3,0,0.7,0,1,0c0,0.1,0,0.3,0,0.4c0,1.1,0,2.2,0,3.2c-0.3,0-0.7,0-1,0
		c-1.1,0-2.3,0-3.4,0C20.5,28.6,20.5,27.5,20.5,26.4z M23.9,9.2c-1.1,0-2.3,0-3.4,0c0-0.8,0-1.5,0-2.2c0-0.5,0-1,0-1.5
		c1.1,0,2.3,0,3.4,0c0.4,0,0.7,0,1.1,0c0,0.5,0,0.9,0,1.4c0,0.7,0,1.4,0,2.2C24.6,9.2,24.2,9.2,23.9,9.2z M25,2.8
		c0,0.6,0,1.4-0.1,2.3c-0.4,0-0.7,0-1.1,0c-1.2,0-2.3,0-3.5,0c0-0.9,0-1.7-0.1-2.3c0-0.1,0-0.2,0-0.4H25C25,2.6,25,2.7,25,2.8z
		 M63.2,2.4c0,0.1,0,0.2,0,0.4c0,0.6,0,1.4-0.1,2.4c-0.5,0-1,0-1.5,0c-1,0-2,0-3,0c0-0.9,0-1.7-0.1-2.3c0-0.1,0-0.2,0-0.4L63.2,2.4
		L63.2,2.4z M63.1,5.4c0,0.5,0,1,0,1.5c0,0.7,0,1.5,0,2.3c-0.5,0-1,0-1.5,0c-0.9,0-1.9,0-3,0c0-0.8,0-1.6,0-2.3c0-0.5,0-1,0-1.5
		c1,0,2.1,0,3,0C62.1,5.4,62.6,5.4,63.1,5.4z M58.4,2.4c0,0.1,0,0.2,0,0.4c0,0.6,0,1.4-0.1,2.3c-1.5,0-3,0-4.6,0
		c0-0.9,0-1.7-0.1-2.3c0-0.1,0-0.2,0-0.4H58.4L58.4,2.4z M53.7,2.4c0,0.1,0,0.2,0,0.4c0,0.6,0,1.4-0.1,2.3c-1.1,0-2.3,0-3.5,0
		c-0.4,0-0.7,0-1.1,0c0-0.9,0-1.7-0.1-2.3c0-0.1,0-0.2,0-0.4L53.7,2.4L53.7,2.4z M48.9,2.4c0,0.1,0,0.2,0,0.4c0,0.6,0,1.4-0.1,2.3
		c-1.5,0-3,0-4.6,0c0-0.9,0-1.7-0.1-2.3c0-0.1,0-0.2,0-0.4H48.9z M48.8,5.5c0,0.5,0,0.9,0,1.4c0,0.7,0,1.4,0,2.2c-1.5,0-2.9,0-4.4,0
		c0-0.8,0-1.5,0-2.2c0-0.5,0-1,0-1.4C45.8,5.5,47.3,5.5,48.8,5.5z M44.1,2.4c0,0.1,0,0.2,0,0.4c0,0.6,0,1.4-0.1,2.3
		c-1.5,0-3,0-4.6,0c0-0.9,0-1.7-0.1-2.3c0-0.1,0-0.2,0-0.4H44.1z M44.1,5.5C44,6,44,6.5,44,7c0,0.7,0,1.4,0,2.2c-1.5,0-2.9,0-4.4,0
		c0-0.8,0-1.5,0-2.2c0-0.5,0-1,0-1.4C41,5.5,42.6,5.5,44.1,5.5z M39.4,2.4c0,0.1,0,0.2,0,0.4c0,0.6,0,1.4-0.1,2.3
		c-0.8,0-1.5,0-2.3,0s-1.5,0-2.3,0c0-0.9,0-1.7-0.1-2.3c0-0.1,0-0.2,0-0.4H39.4z M39.3,5.5c0,0.5,0,0.9,0,1.4c0,0.7,0,1.4,0,2.2
		c-0.7,0-1.5,0-2.2,0s-1.5,0-2.2,0c0-0.8,0-1.5,0-2.2c0-0.5,0-1,0-1.4c0.8,0,1.5,0,2.3,0C37.8,5.5,38.5,5.5,39.3,5.5z M34.6,2.4
		c0,0.1,0,0.2,0,0.4c0,0.6,0,1.4-0.1,2.3c-1.5,0-3.1,0-4.6,0c0-0.9,0-1.7-0.1-2.3c0-0.1,0-0.2,0-0.4H34.6z M30.1,13.2
		c0-0.1,0-0.3,0-0.4c0-1.1,0-2.2,0-3.2c1.5,0,2.9,0,4.4,0c0,1,0,2.1,0,3.2c0,0.1,0,0.3,0,0.4C33,13.2,31.5,13.2,30.1,13.2z
		 M34.4,13.7c0,1.2,0,2.4,0,3.6c-1.4,0-2.9,0-4.3,0c0-1.2,0-2.4,0-3.6C31.5,13.7,33,13.7,34.4,13.7z M30,9.2c0-0.8,0-1.5,0-2.2
		c0-0.5,0-1,0-1.4c1.5,0,3,0,4.5,0c0,0.5,0,0.9,0,1.4c0,0.7,0,1.4,0,2.2C33,9.1,31.5,9.2,30,9.2z M25.1,2.8c0-0.1,0-0.2,0-0.4h4.7
		c0,0.1,0,0.2,0,0.4c0,0.6,0,1.4-0.1,2.3c-1.5,0-3.1,0-4.6,0C25.2,4.2,25.1,3.4,25.1,2.8z M29.6,21.4c-1.5,0-2.9,0-4.3,0
		c0-0.6,0-1.2,0-1.8c0-0.6,0-1.2,0-1.8c1.4,0,2.8,0,4.3,0c0,0.6,0,1.2,0,1.8C29.6,20.2,29.6,20.8,29.6,21.4z M25.3,17.3
		c0-1.2,0-2.5,0-3.7c1.4,0,2.9,0,4.3,0c0,1.2,0,2.4,0,3.6C28.2,17.3,26.7,17.3,25.3,17.3z M25.3,13.3c0-0.1,0-0.3,0-0.4
		c0-1.1,0-2.2,0-3.2c1.4,0,2.9,0,4.4,0c0,1,0,2.1,0,3.2c0,0.1,0,0.3,0,0.4C28.2,13.3,26.7,13.3,25.3,13.3z M29.6,26
		c0,0.1,0,0.3,0,0.4c0,1.1,0,2.2,0,3.2c-1.5,0-3,0-4.4,0c0-1,0-2.1,0-3.2c0-0.1,0-0.3,0-0.4C26.7,25.9,28.2,26,29.6,26z M25.2,9.2
		c0-0.8,0-1.5,0-2.2c0-0.5,0-1,0-1.4c1.5,0,3,0,4.5,0c0,0.5,0,0.9,0,1.4c0,0.7,0,1.4,0,2.2C28.2,9.2,26.7,9.2,25.2,9.2z M25.2,33.7
		c0-0.5,0-0.9,0-1.4c0-0.7,0-1.4,0-2.2c1.5,0,2.9,0,4.4,0c0,0.8,0,1.5,0,2.2c0,0.5,0,1,0,1.4C28.2,33.7,26.7,33.7,25.2,33.7z
		 M39.5,33.7c0-0.5,0-0.9,0-1.4c0-0.7,0-1.4,0-2.2c1.5,0,3,0,4.4,0c0,0.8,0,1.5,0,2.2c0,0.5,0,1,0,1.4C42.6,33.7,41,33.7,39.5,33.7z
		 M44.3,33.7c0-0.5,0-0.9,0-1.4c0-0.7,0-1.4,0-2.2c1.5,0,3,0,4.4,0c0,0.8,0,1.5,0,2.2c0,0.5,0,1,0,1.4
		C47.3,33.7,45.8,33.7,44.3,33.7z M44.3,29.6c0-1,0-2.1,0-3.2c0-0.1,0-0.3,0-0.4c1.5,0,2.9,0,4.3,0c0,0.1,0,0.3,0,0.4
		c0,1.1,0,2.2,0,3.2C47.3,29.6,45.8,29.6,44.3,29.6z M50.2,33.7c-0.4,0-0.7,0-1.1,0c0-0.5,0-0.9,0-1.4c0-0.7,0-1.4,0-2.2
		c0.3,0,0.7,0,1,0c1.1,0,2.3,0,3.4,0c0,0.8,0,1.5,0,2.2c0,0.5,0,1,0,1.5C52.5,33.7,51.3,33.7,50.2,33.7z M50.2,25.9
		c1.1,0,2.3,0,3.4,0c0,0.1,0,0.3,0,0.4c0,1.1,0,2.2,0,3.3c-1.1,0-2.2,0-3.4,0c-0.3,0-0.7,0-1,0c0-1,0-2.1,0-3.2c0-0.1,0-0.3,0-0.4
		C49.5,25.9,49.8,25.9,50.2,25.9z M49.2,25.5c0-1.2,0-2.4,0-3.7c0.3,0,0.7,0,1,0c1.1,0,2.2,0,3.3,0c0,1.3,0,2.5,0,3.7
		c-1.1,0-2.2,0-3.3,0C49.8,25.5,49.5,25.5,49.2,25.5z M53.8,33.7c0-0.5,0-0.9,0-1.5c0-0.7,0-1.5,0-2.2c1.5,0,3,0,4.4,0
		c0,0.8,0,1.6,0,2.3c0,0.5,0,1,0,1.5C56.9,33.7,55.4,33.7,53.8,33.7z M54,17.8c1.5,0,2.9,0,4.3,0c0,0.6,0,1.3,0,1.9
		c0,0.6,0,1.3,0,1.9c-1.4,0-2.8,0-4.3,0c0-0.6,0-1.2,0-1.9C54,19,54,18.4,54,17.8z M58.2,21.8c0,1.3,0,2.5,0,3.8c-1.4,0-2.8,0-4.3,0
		c0-1.2,0-2.5,0-3.7C55.4,21.8,56.9,21.8,58.2,21.8z M58.3,25.9c0,0.1,0,0.3,0,0.5c0,1.1,0,2.3,0,3.3c-1.4,0-2.9,0-4.4,0
		c0-1,0-2.1,0-3.3c0-0.1,0-0.3,0-0.4C55.4,25.9,56.9,25.9,58.3,25.9z M61.6,33.8c-1,0-2,0-3,0c0-0.5,0-1,0-1.5c0-0.7,0-1.5,0-2.3
		c1,0,2,0,3,0c0.5,0,1,0,1.5,0c0,0.8,0,1.6,0,2.3c0,0.5,0,1.1,0,1.5C62.6,33.8,62.1,33.8,61.6,33.8z M58.7,17.7c1,0,2,0,2.9,0
		c0.5,0,0.9,0,1.4,0c0,0.6,0,1.3,0,1.9c0,0.6,0,1.3,0,1.9c-0.5,0-0.9,0-1.4,0c-0.9,0-1.9,0-2.9,0c0-0.6,0-1.3,0-1.9
		C58.7,19,58.7,18.3,58.7,17.7z M61.6,21.8c0.5,0,0.9,0,1.4,0c0,1.3,0,2.6,0,3.8c-0.5,0-0.9,0-1.4,0c-0.9,0-1.9,0-2.9,0
		c0-1.2,0-2.5,0-3.8C59.7,21.8,60.7,21.8,61.6,21.8z M61.6,25.9c0.5,0,1,0,1.4,0c0,0.2,0,0.3,0,0.5c0,1.2,0,2.3,0,3.3
		c-0.5,0-1,0-1.5,0c-0.9,0-1.9,0-3,0c0-1.1,0-2.2,0-3.3c0-0.1,0-0.3,0-0.5C59.7,25.9,60.7,25.9,61.6,25.9z M63.4,33.8
		c0-0.5,0-1,0-1.5c0-0.7,0-1.5,0-2.3c1.7,0,3.2,0,4.4-0.1c0,0.8,0,1.6,0,2.4c0,0.6,0,1.1,0,1.6C66.6,33.8,65.1,33.8,63.4,33.8z
		 M67.8,21.6c-1.2,0-2.7,0-4.3-0.1c0-0.6,0-1.3,0-1.9c0-0.6,0-1.3,0-1.9c1.6,0,3.1,0,4.3-0.1c0,0.7,0,1.3,0,2
		C67.8,20.3,67.8,20.9,67.8,21.6z M63.5,17.4c0-1.3,0-2.6,0-3.9c1.6,0,3.1,0,4.3-0.1c0,1.3,0,2.6,0,4C66.5,17.5,65.1,17.5,63.5,17.4
		z M63.5,21.8c1.6,0,3.1,0,4.3-0.1c0,1.3,0,2.7,0,4c-1.3,0-2.7,0-4.3-0.1C63.5,24.4,63.5,23.1,63.5,21.8z M67.8,25.8
		c0,0.2,0,0.4,0,0.6c0,1.2,0,2.3,0,3.4c-1.3,0-2.8,0-4.4-0.1c0-1.1,0-2.2,0-3.3c0-0.2,0-0.3,0-0.5C65.1,25.8,66.5,25.8,67.8,25.8z
		 M71.6,33.9c-0.8,0-2,0-3.4,0c0-0.5,0-1,0-1.6c0-0.7,0-1.5,0-2.4c1.4,0,2.6,0,3.4,0V33.9z M71.6,29.8c-0.8,0-1.9,0-3.4,0
		c0-1.1,0-2.2,0-3.4c0-0.2,0-0.4,0-0.6c1.4,0,2.5,0,3.3,0V29.8z M71.6,25.7c-0.8,0-1.9,0-3.3,0c0-1.3,0-2.6,0-4c1.4,0,2.5,0,3.3,0
		L71.6,25.7L71.6,25.7z M71.6,21.6c-0.8,0-1.9,0-3.3,0c0-0.7,0-1.3,0-2c0-0.7,0-1.3,0-2c1.4,0,2.5,0,3.3,0V21.6z M71.6,17.5
		c-0.8,0-1.9,0-3.3,0c0-1.3,0-2.7,0-4c1.4,0,2.5,0,3.3,0L71.6,17.5L71.6,17.5z M71.6,5.3c-0.1,0-0.2,0-0.4,0c0,0,0,0,0,0
		C71.3,5.3,71.5,5.3,71.6,5.3l0,4.1c-0.6,0-1.5,0-2.6,0c-0.1,0-0.2,0.1-0.3,0.1c1.2,0,2.1,0,2.8,0v4.1c-0.8,0-1.9,0-3.3,0
		c0-0.2,0-0.4,0-0.6c0-1.1,0-2.2,0-3.3c-0.1,0-0.2,0-0.4,0c0,1,0,2.1,0,3.2c0,0.2,0,0.4,0,0.6c-1.2,0-2.5,0-4-0.1L63,13.8
		c0,1.2,0,2.4,0,3.7c-0.5,0-0.9,0-1.4,0c-0.9,0-1.9,0-2.9,0c0-0.5,0-0.9,0-1.4l-0.3,0.2c-0.1,0-0.1,0.1-0.2,0.1c0,0.4,0,0.7,0,1.1
		c-1.3,0-2.6,0-4,0l-1.4,0.4c0.2,0,0.4,0,0.5,0c0,0.6,0,1.2,0,1.9c0,0.6,0,1.2,0,1.9c-1.1,0-2.2,0-3.3,0c-0.3,0-0.7,0-1,0
		c0-0.6,0-1.2,0-1.8c0,0,0,0,0-0.1l-0.5,0.3c0,0.5,0,1.1,0,1.6c-0.8,0-1.6,0-2.4,0l-0.7,0.4c1,0,2.1,0,3.1,0c0,1.2,0,2.5,0,3.7
		c-1.4,0-2.9,0-4.3,0c0-0.9,0-1.9,0-2.9L43.9,23c0,0.8,0,1.7,0,2.5c-1,0-1.9,0-2.9,0L40.5,26c1.1,0,2.3,0,3.4,0c0,0.1,0,0.3,0,0.4
		c0,1.1,0,2.2,0,3.2c-1.5,0-2.9,0-4.4,0c0-0.9,0-1.9,0-2.8l-0.4,0.4c0,0.9,0,1.7,0,2.5c-0.7,0-1.5,0-2.2,0c0,0-0.1,0-0.1,0l-0.4,0.5
		c0.2,0,0.3,0,0.5,0c0.7,0,1.5,0,2.2,0c0,0.8,0,1.5,0,2.2c0,0.5,0,1,0,1.4c-0.8,0-1.5,0-2.3,0c-0.8,0-1.5,0-2.3,0c0-0.5,0-0.9,0-1.4
		c0-0.1,0-0.2,0-0.3l-0.3,0.3c0,0.5,0,0.9,0,1.4c-1.5,0-3,0-4.5,0c0-0.5,0-0.9,0-1.4c0-0.5,0-1.1,0-1.6l-0.1-0.1l0.1-0.1
		c0-0.1,0-0.2,0-0.3c0.1,0,0.2,0,0.3,0l0.4-0.5c-0.2,0-0.5,0-0.7,0c0-1,0-2.1,0-3.2c0-0.1,0-0.3,0-0.4c0.2,0,0.4,0,0.6,0l-0.5-0.5
		c0,0-0.1,0-0.1,0c0,0,0-0.1,0-0.1L29.6,25c0,0.2,0,0.3,0,0.5c-1.5,0-2.9,0-4.3,0c0-1.2,0-2.4,0-3.7c1.4,0,2.8,0,4.3,0
		c0,0.8,0,1.6,0,2.4l0.5-0.5c0-0.7,0-1.3,0-2c0.6,0,1.3,0,1.9,0l0.5-0.5c-0.8,0-1.6,0-2.4,0c0-0.6,0-1.2,0-1.8c0-0.6,0-1.2,0-1.8
		c1.4,0,2.9,0,4.3,0c0,0.6,0,1.1,0,1.7c0.1-0.1,0.3-0.2,0.5-0.3c0-0.5,0-1,0-1.4c0.7,0,1.4,0,2.1,0c0.7,0,1.4,0,2.1,0l1.4-0.5
		c-0.3,0-0.6,0-0.9,0c0-0.8,0-1.5,0-2.3l-0.4,0c0,0.8,0,1.5,0,2.3c-0.7,0-1.4,0-2.1,0c-0.7,0-1.4,0-2.1,0c0-1.2,0-2.4,0-3.6
		c0.4,0,0.9,0,1.3,0l0-0.5c-0.4,0-0.9,0-1.3,0c0-0.1,0-0.3,0-0.4c0-1.1,0-2.2,0-3.2c0.7,0,1.5,0,2.2,0s1.5,0,2.2,0
		c0,0.6,0,1.3,0,1.9l0.4,0c0-0.6,0-1.3,0-1.9c1.5,0,3,0,4.4,0c0,0.5,0,1.1,0,1.6c0,0,0.1,0,0.1,0l0.3,0c0-0.6,0-1.1,0-1.7
		c1.5,0,3,0,4.4,0c0,0.8,0,1.6,0,2.4l0.4,0.1c0-0.8,0-1.7,0-2.5c0.3,0,0.7,0,1,0c0,0,0.1,0,0.1,0c0-0.1,0.1-0.3,0.1-0.4
		c-0.1,0-0.2,0-0.2,0c-0.3,0-0.7,0-1,0c0-0.8,0-1.5,0-2.2c0-0.5,0-1,0-1.4c0.4,0,0.7,0,1.1,0c1.2,0,2.3,0,3.4,0c0,0.4,0,0.7,0,1.1
		c0.1,0,0.2,0,0.3,0c0-0.4,0-0.8,0-1.1c1.6,0,3.1,0,4.5,0c0,0.5,0,1,0,1.5c0,0.7,0,1.5,0,2.3c-0.3,0-0.6,0-0.9,0
		c0,0.1,0.1,0.2,0.1,0.3c0.3,0,0.5,0,0.8,0c0,0.8,0,1.6,0,2.5l0.4-0.2c0-0.8,0-1.6,0-2.3c1,0,2,0,3,0c0.5,0,1,0,1.5,0
		c0,0.2,0,0.4,0,0.6l0.4-0.1c0-0.1,0-0.3,0-0.5c1.1,0,2.1,0,3.1,0c-0.1,0-0.3-0.1-0.4-0.2c-0.8,0-1.7,0-2.7,0c0-0.8,0-1.6,0-2.3
		c0-0.5,0-1.1,0-1.5c0.2,0,0.4,0,0.6,0c0-0.1,0-0.1,0-0.2c-0.2,0-0.4,0-0.6,0c0-0.9,0-1.7-0.1-2.4c0-0.1,0-0.2,0-0.4h3.3
		c0,0,0.1,0,0.1,0c0.3-0.1,0.6-0.1,0.9-0.1c0.3,0,0.7,0.1,1,0.1h3L71.6,5.3L71.6,5.3L71.6,5.3z"/>
</g>
</svg>
