<?xml version="1.0" encoding="utf-8"?>
<!-- Generator: Adobe Illustrator 19.1.0, SVG Export Plug-In . SVG Version: 6.00 Build 0)  -->
<svg version="1.1" id="Layer_1" xmlns="http://www.w3.org/2000/svg" xmlns:xlink="http://www.w3.org/1999/xlink" x="0px" y="0px"
	 viewBox="0 0 57 50" style="enable-background:new 0 0 57 50;" xml:space="preserve">
<g>
	<path d="M52.5,18.7c2.7-1.8,4.5-4.9,4.5-8.5C57,4.6,52.5,0,46.9,0c-0.4,0-0.7,0-1.1,0.1C45.6,0,45.5,0,45.3,0H8.7
		C8.3,0,8,0.1,7.7,0.3C3.3,1.4,0,5.4,0,10.2c0,3.5,1.8,6.7,4.5,8.5c0,0,0,0,0,0c1.1,0.7,2.3,1.2,3.7,1.5v27.9c0,1,0.8,1.9,1.9,1.9
		s1.9-0.8,1.9-1.9V20.4h3.6v27.8c0,1,0.8,1.9,1.9,1.9s1.9-0.8,1.9-1.9V20.4H23v27.8c0,1,0.8,1.9,1.9,1.9c1,0,1.9-0.8,1.9-1.9V20.4
		h3.6v27.8c0,1,0.8,1.9,1.9,1.9c1,0,1.9-0.8,1.9-1.9V20.4h3.6v27.8c0,1,0.8,1.9,1.9,1.9c1,0,1.9-0.8,1.9-1.9V20.4H45v27.8
		c0,1,0.8,1.9,1.9,1.9c1,0,1.9-0.8,1.9-1.9V20.2C50.1,20,51.3,19.4,52.5,18.7C52.4,18.7,52.4,18.7,52.5,18.7z M17.9,16.6
		c1.4-1.8,2.3-4,2.3-6.4s-0.9-4.7-2.3-6.4h21.2c-1.4,1.8-2.3,4-2.3,6.4s0.9,4.7,2.3,6.4H17.9z M5.6,8c1.3-1.3,3.5-1.3,4.8,0
		c0.9,0.9,0.9,2.4,0,3.4c-0.7,0.7-0.7,1.9,0,2.7c0.7,0.7,1.9,0.7,2.6,0c2.4-2.4,2.4-6.3,0-8.7c-0.7-0.7-1.5-1.2-2.3-1.6
		c3.2,0.3,5.8,3.1,5.8,6.4c0,1.8-0.7,3.4-1.8,4.5c0,0,0,0,0,0c-2.5,2.5-6.5,2.5-9,0C3.7,12.9,3.7,9.9,5.6,8z M44,14
		c0.7,0.7,1.9,0.7,2.6,0c0.7-0.7,0.7-1.9,0-2.7c-0.9-0.9-0.9-2.4,0-3.4c1.3-1.3,3.5-1.3,4.8,0c1.8,1.9,1.8,4.9,0,6.8
		c-2.5,2.5-6.5,2.5-9,0c0,0,0,0,0,0c-1.1-1.2-1.8-2.8-1.8-4.5c0-3.3,2.5-6.1,5.8-6.4c-0.8,0.4-1.6,0.9-2.3,1.6
		C41.6,7.7,41.6,11.6,44,14z"/>
</g>
</svg>
