<?xml version="1.0" encoding="utf-8"?>
<!-- Generator: Adobe Illustrator 19.1.0, SVG Export Plug-In . SVG Version: 6.00 Build 0)  -->
<svg version="1.1" id="Layer_1" xmlns="http://www.w3.org/2000/svg" xmlns:xlink="http://www.w3.org/1999/xlink" x="0px" y="0px"
	 viewBox="0 0 52 58" style="enable-background:new 0 0 52 58;" xml:space="preserve">
<g>
	<path d="M26,25.3c2.1,0,3.7,1.7,3.7,3.7s-1.7,3.7-3.7,3.7S22.3,31,22.3,29S23.9,25.3,26,25.3z"/>
	<path d="M43.9,29c1.3-1.1,2.4-2.2,3.4-3.4c4.2-4.6,5.6-8.5,4.1-11.1c-0.7-1.2-2.4-2.7-6.5-2.7c-2.7,0-6.2,0.7-10,1.9
		c-0.4-1.7-0.8-3.2-1.2-4.7C31.8,3.1,29.1,0,26,0s-5.8,3.1-7.7,9.1c-0.5,1.4-0.9,3-1.2,4.7c-3.8-1.2-7.2-1.9-10-1.9
		c-4,0-5.8,1.5-6.5,2.7c-1.6,2.7-0.2,6.5,4.1,11.1c1,1.1,2.2,2.2,3.4,3.4c-1.3,1.1-2.4,2.2-3.4,3.4C0.5,37-0.9,40.8,0.6,43.5
		c0.7,1.2,2.4,2.7,6.5,2.7c2.7,0,6.2-0.7,10-1.9c0.4,1.7,0.8,3.2,1.2,4.7c1.9,5.9,4.6,9.1,7.7,9.1s5.8-3.1,7.7-9.1
		c0.5-1.4,0.9-3,1.2-4.7c3.8,1.2,7.2,1.9,10,1.9l0,0c4,0,5.8-1.5,6.5-2.7c1.6-2.7,0.2-6.5-4.1-11.1C46.3,31.3,45.1,30.1,43.9,29z
		 M7.1,43.4c-2.1,0-3.5-0.5-4-1.3c-0.7-1.1,0-3.8,3.7-7.8c1-1.1,2.2-2.3,3.5-3.4c1.7,1.4,3.5,2.7,5.5,4c0.2,2.3,0.4,4.6,0.8,6.7
		C12.9,42.7,9.6,43.4,7.1,43.4z M15.6,31.3c-1.1-0.8-2.1-1.5-3.1-2.3c1-0.8,2-1.6,3.1-2.3c0,0.8,0,1.5,0,2.3S15.6,30.6,15.6,31.3z
		 M15.8,23.2c-2,1.3-3.8,2.6-5.5,4C9,26,7.8,24.9,6.8,23.8c-3.7-4.1-4.4-6.7-3.7-7.9c0.5-0.8,1.9-1.3,4-1.3c2.6,0,5.8,0.7,9.5,1.9
		C16.2,18.6,16,20.8,15.8,23.2z M33.2,21.3c-0.7-0.4-1.3-0.8-2-1.2c-0.7-0.4-1.4-0.8-2-1.1c1.2-0.5,2.4-1.1,3.6-1.5
		C32.9,18.7,33.1,19.9,33.2,21.3z M26,2.8c2.1,0,4.7,4.3,6.2,11.8c-2,0.8-4.1,1.7-6.2,2.7c-2.1-1-4.2-1.9-6.2-2.7
		C21.3,7.1,23.9,2.8,26,2.8z M19.3,17.5c1.2,0.4,2.4,1,3.6,1.5c-0.7,0.4-1.4,0.7-2,1.1c-0.7,0.4-1.3,0.8-2,1.2
		C18.9,19.9,19.1,18.7,19.3,17.5z M18.8,36.7c0.7,0.4,1.3,0.8,2,1.2c0.7,0.4,1.4,0.8,2,1.1c-1.2,0.5-2.4,1.1-3.6,1.5
		C19.1,39.3,18.9,38.1,18.8,36.7z M26,55.2c-2.1,0-4.7-4.3-6.2-11.8c2-0.8,4.1-1.7,6.2-2.7c2.1,1,4.2,1.9,6.2,2.7
		C30.7,50.9,28.1,55.2,26,55.2z M32.7,40.6c-1.2-0.4-2.4-1-3.6-1.5c0.7-0.4,1.4-0.7,2-1.1c0.7-0.4,1.3-0.8,2-1.2
		C33.1,38.1,32.9,39.3,32.7,40.6z M33.5,33.3c-1.2,0.8-2.4,1.5-3.7,2.2c-1.3,0.7-2.5,1.4-3.8,2c-1.3-0.6-2.5-1.3-3.8-2
		c-1.3-0.7-2.5-1.5-3.7-2.2c-0.1-1.4-0.1-2.8-0.1-4.3c0-1.5,0-2.9,0.1-4.3c1.2-0.8,2.4-1.5,3.7-2.2c1.3-0.7,2.5-1.4,3.8-2
		c1.3,0.6,2.5,1.3,3.8,2c1.3,0.7,2.5,1.5,3.7,2.2c0.1,1.4,0.1,2.8,0.1,4.3S33.5,31.9,33.5,33.3z M44.9,14.6c2.1,0,3.5,0.5,4,1.3
		c0.7,1.1,0,3.8-3.7,7.9c-1,1.1-2.2,2.3-3.5,3.4c-1.7-1.4-3.5-2.7-5.5-4c-0.2-2.3-0.4-4.6-0.8-6.7C39.1,15.3,42.4,14.6,44.9,14.6z
		 M36.4,26.7c1.1,0.8,2.1,1.6,3.1,2.3c-1,0.8-2,1.6-3.1,2.3c0-0.8,0-1.5,0-2.3S36.4,27.5,36.4,26.7z M48.9,42.1
		c-0.5,0.8-1.9,1.3-4,1.3l0,0c-2.6,0-5.8-0.7-9.5-1.9c0.3-2.1,0.6-4.4,0.8-6.7c2-1.3,3.8-2.7,5.5-4C47.5,35.9,50,40.3,48.9,42.1z"/>
</g>
</svg>
