<?xml version="1.0" encoding="utf-8"?>
<!-- Generator: Adobe Illustrator 19.1.0, SVG Export Plug-In . SVG Version: 6.00 Build 0)  -->
<svg version="1.1" id="Layer_1" xmlns="http://www.w3.org/2000/svg" xmlns:xlink="http://www.w3.org/1999/xlink" x="0px" y="0px"
	 viewBox="0 0 52 56" style="enable-background:new 0 0 52 56;" xml:space="preserve">
<g>
	<path d="M18.3,14c0-2.3,1.9-4.2,4.2-4.2s4.2,1.9,4.2,4.2s-1.9,4.2-4.2,4.2S18.3,16.3,18.3,14z M24.5,33c-2,0.8-4.1,1.4-6.2,1.7
		v19.5c0,1,0.8,1.8,1.8,1.8c1,0,1.8-0.8,1.8-1.8V37.7c0.3,0,0.5,0.1,0.8,0.1c0.3,0,0.5,0,0.8-0.1v10.3c0,1,0.8,1.8,1.8,1.8
		s1.8-0.8,1.8-1.8V34.5c0-0.1,0-0.3-0.1-0.4c0-0.2,0.1-0.4,0.1-0.6V32C26.2,32.3,25.4,32.6,24.5,33L24.5,33z M17.8,22.9
		c0.2,0.2,0.3,0.3,0.5,0.4v5.3c1.3-0.2,2.6-0.6,3.8-1.1c1.7-0.8,3.3-1.4,4.9-1.9v-2.2c0-0.2,0-0.4,0-0.5l9.2-9.2
		c0.7-0.7,0.7-1.8,0-2.5c-0.7-0.7-1.8-0.7-2.5,0L25,19.6c-0.7-0.4-1.5-0.7-2.4-0.7c-1.1,0-2.1,0.4-2.8,1L10.9,11
		c-0.7-0.7-1.8-0.7-2.5,0c-0.7,0.7-0.7,1.8,0,2.5L17.8,22.9z M38.2,23.3c-5,0.3-9.2,1.6-14.3,4.3c-3.4,1.7-7.5,2.4-10.8,1.9
		c-2-0.3-3.8-1.7-5.8-3.2c-0.8-0.6-1.6-1.2-2.4-1.8l-2.3,3.4c0.7,0.5,1.4,1,2.2,1.6c2.2,1.7,4.6,3.6,7.7,4c1.3,0.2,2.7,0.3,4.1,0.2
		c3.1-0.2,6.3-1,9.1-2.5l0.1,0c4.6-2.4,8.2-3.6,12.6-3.8c3.1-0.2,4.2,0.4,6.9,2.1l0.8,0.5l2.1-3.5L47.5,26
		C44.6,24.2,42.6,23,38.2,23.3z M45.7,9.6l-1.2-1.1l-1.1,1.2l1.2,1.1L45.7,9.6z M44.6,14.8V14h-0.8v0.8H44.6z M37.7,18.2l1-1l-1-1
		l-1,1L37.7,18.2z M0,7.4l1.4,0.5L2,6.5L0.5,5.9L0,7.4z M5,11L4,9.4l-1.7,1l1,1.7L5,11z M8,17.9l-0.5-1.5l-1.5,0.5l0.5,1.5L8,17.9z
		 M14.5,7.4l0.6,0.5l0.5-0.6L15,6.8L14.5,7.4z M24.8,5.1l-0.7-0.3l-0.3,0.7l0.7,0.3L24.8,5.1z M28.4,7.3l0.1,0.5
		c2.2-0.5,3.5-1.3,3.8-2.2c0.2-0.9-0.2-1.3-0.5-1.7c-0.2-0.2-0.3-0.4-0.4-0.6l0-0.1c-0.4-0.9-0.8-1.9-0.1-2.9L30.8,0
		c-0.8,1.3-0.3,2.5,0.1,3.4C31,3.7,31.2,4,31.4,4.2c0.3,0.4,0.5,0.6,0.4,1.2C31.5,6.2,30.3,6.8,28.4,7.3z M14.7,2.6
		c1.1,0.9,2.1,1.9,1.7,2.8l0.5,0.2c0.6-1.3-0.7-2.4-1.8-3.4c-0.6-0.5-1.1-1-1.4-1.4L13.2,1C13.5,1.6,14.1,2,14.7,2.6z M49.6,14.7
		L49.6,14.7l0.5,0.1l0-0.1c0.2-1.7,0.4-3,1.9-3v-0.5C49.9,11.3,49.7,13.4,49.6,14.7z"/>
</g>
</svg>
