<?xml version="1.0" encoding="utf-8"?>
<!-- Generator: Adobe Illustrator 19.0.1, SVG Export Plug-In . SVG Version: 6.00 Build 0)  -->
<svg version="1.1" id="Layer_1" xmlns="http://www.w3.org/2000/svg" xmlns:xlink="http://www.w3.org/1999/xlink" x="0px" y="0px"
	 viewBox="0 0 22 22" style="enable-background:new 0 0 22 22;" xml:space="preserve">
<path d="M12.7,11.6L12.7,11.6c-0.6,0-1.2,0.5-1.2,1.2c0,0.6,0.5,1.2,1.2,1.2l0,0c0.6,0,1.2-0.5,1.2-1.2
	C13.9,12.1,13.4,11.6,12.7,11.6z M9.3,10.4c0.6,0,1.2-0.5,1.2-1.2c0-0.6-0.5-1.2-1.2-1.2c-0.6,0-1.2,0.5-1.2,1.2
	C8.1,9.9,8.6,10.4,9.3,10.4z M12.7,8.1L12.7,8.1c-0.6,0-1.2,0.5-1.2,1.2c0,0.6,0.5,1.2,1.2,1.2l0,0c0.6,0,1.2-0.5,1.2-1.2
	C13.9,8.6,13.4,8.1,12.7,8.1z M13.9,2.3H8.1v2.3h5.8V2.3z M16.2,10.4c0.6,0,1.2-0.5,1.2-1.2c0-0.6-0.5-1.2-1.2-1.2
	c-0.6,0-1.2,0.5-1.2,1.2C15.1,9.9,15.6,10.4,16.2,10.4z M16.2,13.9c0.6,0,1.2-0.5,1.2-1.2c0-0.6-0.5-1.2-1.2-1.2
	c-0.6,0-1.2,0.5-1.2,1.2C15.1,13.4,15.6,13.9,16.2,13.9z M9.3,13.9c0.6,0,1.2-0.5,1.2-1.2c0-0.6-0.5-1.2-1.2-1.2
	c-0.6,0-1.2,0.5-1.2,1.2C8.1,13.4,8.6,13.9,9.3,13.9z M5.8,17.4c0.6,0,1.2-0.5,1.2-1.2c0-0.6-0.5-1.2-1.2-1.2s-1.2,0.5-1.2,1.2
	C4.6,16.8,5.2,17.4,5.8,17.4z M19.7,2.3h-1.2v2.3h1.2v15.1H2.3V4.6h1.2V2.3H2.3C1,2.3,0,3.4,0,4.6v15.1C0,21,1,22,2.3,22h17.4
	c1.3,0,2.3-1,2.3-2.3V4.6C22,3.4,21,2.3,19.7,2.3z M5.8,13.9c0.6,0,1.2-0.5,1.2-1.2c0-0.6-0.5-1.2-1.2-1.2s-1.2,0.5-1.2,1.2
	C4.6,13.4,5.2,13.9,5.8,13.9z M5.8,10.4c0.6,0,1.2-0.5,1.2-1.2c0-0.6-0.5-1.2-1.2-1.2S4.6,8.6,4.6,9.3C4.6,9.9,5.2,10.4,5.8,10.4z
	 M9.3,17.4c0.6,0,1.2-0.5,1.2-1.2c0-0.6-0.5-1.2-1.2-1.2c-0.6,0-1.2,0.5-1.2,1.2C8.1,16.8,8.6,17.4,9.3,17.4z M5.8,4.6
	c0.6,0,1.2-0.5,1.2-1.2V1.2C6.9,0.5,6.4,0,5.8,0C5.2,0,4.6,0.5,4.6,1.2v2.3C4.6,4.1,5.2,4.6,5.8,4.6z M16.2,4.6
	c0.6,0,1.2-0.5,1.2-1.2V1.2c0-0.6-0.5-1.2-1.2-1.2c-0.6,0-1.2,0.5-1.2,1.2v2.3C15.1,4.1,15.6,4.6,16.2,4.6z"/>
</svg>
