<?xml version="1.0" encoding="utf-8"?>
<!-- Generator: Adobe Illustrator 19.0.1, SVG Export Plug-In . SVG Version: 6.00 Build 0)  -->
<svg version="1.1" id="Layer_1" xmlns="http://www.w3.org/2000/svg" xmlns:xlink="http://www.w3.org/1999/xlink" x="0px" y="0px"
	 viewBox="0 0 12 12" style="enable-background:new 0 0 12 12;" xml:space="preserve">
<g>
	<path d="M5.5,0.2L0.2,5.5c-0.3,0.3-0.3,0.8,0,1.1s0.8,0.3,1.1,0l5.3-5.2c0.3-0.3,0.3-0.8,0-1.1C6.3-0.1,5.8-0.1,5.5,0.2z"/>
	<path d="M6.5,10.6L1.3,5.5C1,5.2,0.5,5.2,0.2,5.5c-0.3,0.3-0.3,0.8,0,1.1l5.3,5.2c0.3,0.3,0.8,0.3,1.1,0
		C6.8,11.4,6.8,10.9,6.5,10.6z"/>
	<path d="M11.2,5.3H0.8C0.3,5.3,0,5.6,0,6c0,0.4,0.3,0.7,0.8,0.7h10.5C11.7,6.7,12,6.3,12,6C12,5.6,11.7,5.3,11.2,5.3z"/>
</g>
</svg>
