<?xml version="1.0" encoding="utf-8"?>
<!-- Generator: Adobe Illustrator 19.1.0, SVG Export Plug-In . SVG Version: 6.00 Build 0)  -->
<svg version="1.1" id="Layer_1" xmlns="http://www.w3.org/2000/svg" xmlns:xlink="http://www.w3.org/1999/xlink" x="0px" y="0px"
	 viewBox="0 0 15 15" enable-background="new 0 0 15 15" xml:space="preserve">
<path d="M11.2,2.8L11.2,2.8L3,10.9c-0.1,0.1-0.2,0.2-0.2,0.3c-0.8-1-1.2-2.3-1.2-3.7c0-3.4,2.5-6,5.9-6C8.9,1.5,10.2,2,11.2,2.8z
	 M4,12.4c0.1,0,0.2-0.1,0.2-0.2l8.1-8.1l0,0c0.7,1,1.1,2.2,1.1,3.5c0,3.4-2.6,6-6,6C6.2,13.5,5,13.1,4,12.4z M0,7.5
	C0,11.6,3.4,15,7.5,15S15,11.6,15,7.5S11.6,0,7.5,0S0,3.4,0,7.5z"/>
</svg>
