<?xml version="1.0" encoding="utf-8"?>
<!-- Generator: Adobe Illustrator 19.1.0, SVG Export Plug-In . SVG Version: 6.00 Build 0)  -->
<svg version="1.1" id="Layer_1" xmlns="http://www.w3.org/2000/svg" xmlns:xlink="http://www.w3.org/1999/xlink" x="0px" y="0px"
	 viewBox="0 0 13 16" enable-background="new 0 0 13 16" xml:space="preserve">
<path d="M12.7,3.8C12.6,4,12.3,4,12.2,4c-0.2,0-0.4-0.1-0.6-0.2c-1.3-1.3-3.1-2.1-5.1-2.1S2.8,2.4,1.5,3.8c-0.3,0.3-0.8,0.3-1.2,0
	s-0.3-0.8,0-1.2C1.9,1,4.1,0,6.5,0s4.5,0.9,6.2,2.6C13.1,3,13.1,3.4,12.7,3.8z M6.5,3.6c1.6,0,3,0.6,4.1,1.7c0.3,0.3,0.3,0.8,0,1.2
	s-0.8,0.3-1.2,0c-0.8-0.8-1.9-1.2-3-1.2c-1.2,0-2.2,0.5-3,1.2C3.3,6.7,3.1,6.8,2.9,6.8c-0.2,0-0.4-0.1-0.6-0.2
	c-0.3-0.3-0.3-0.8,0-1.2C3.4,4.2,4.9,3.6,6.5,3.6z M3,8.9c0.3-0.3,0.8-0.3,1.2,0l2.3,2.3l2.3-2.3c0.3-0.3,0.8-0.3,1.2,0
	c0.3,0.3,0.3,0.8,0,1.2l-2.3,2.3l2.3,2.3c0.3,0.3,0.3,0.8,0,1.2C9.8,15.9,9.5,16,9.3,16s-0.4-0.1-0.6-0.2l-2.3-2.3l-2.3,2.3
	C4,15.9,3.8,16,3.6,16c-0.2,0-0.4-0.1-0.6-0.2c-0.3-0.3-0.3-0.8,0-1.2l2.3-2.3L3,10.1C2.7,9.7,2.7,9.3,3,8.9z"/>
</svg>
