<?xml version="1.0" encoding="utf-8"?>
<!-- Generator: Adobe Illustrator 19.1.0, SVG Export Plug-In . SVG Version: 6.00 Build 0)  -->
<svg version="1.1" id="Layer_1" xmlns="http://www.w3.org/2000/svg" xmlns:xlink="http://www.w3.org/1999/xlink" x="0px" y="0px"
	 viewBox="0 0 40 40" style="enable-background:new 0 0 40 40;" xml:space="preserve">
<path d="M30,37.3C20.4,42.9,8.2,39.6,2.7,30C-2.8,20.4,0.4,8.2,10,2.7c9.6-5.5,21.8-2.2,27.3,7.3C42.8,19.6,39.6,31.8,30,37.3z
	 M33.9,12C29.4,4.4,19.7,1.7,12,6.2C4.4,10.6,1.7,20.4,6.1,28c4.4,7.7,14.2,10.3,21.9,5.9C35.7,29.4,38.3,19.7,33.9,12z M23.7,17.9
	c-0.9,0-1.7-0.4-2.2-1.1l-4.8,2.4c0.1,0.3,0.1,0.5,0.1,0.8c0,0.3,0,0.5-0.1,0.7l4.8,2.4c0.5-0.6,1.3-1.1,2.2-1.1
	c1.6,0,2.8,1.3,2.8,2.8c0,1.5-1.3,2.8-2.8,2.8c-1.6,0-2.8-1.3-2.8-2.8c0-0.3,0.1-0.5,0.1-0.8l-4.8-2.4c-0.5,0.7-1.3,1.1-2.3,1.1
	c-1.6,0-2.8-1.3-2.8-2.8s1.3-2.8,2.8-2.8c0.9,0,1.7,0.4,2.2,1.1l4.8-2.4c-0.1-0.2-0.1-0.5-0.1-0.7c0-1.5,1.3-2.8,2.8-2.8
	c1.6,0,2.8,1.3,2.8,2.8C26.5,16.7,25.3,17.9,23.7,17.9z"/>
</svg>
