<?xml version="1.0" encoding="utf-8"?>
<!-- Generator: Adobe Illustrator 19.0.1, SVG Export Plug-In . SVG Version: 6.00 Build 0)  -->
<svg version="1.1" id="Layer_1" xmlns="http://www.w3.org/2000/svg" xmlns:xlink="http://www.w3.org/1999/xlink" x="0px" y="0px"
	 viewBox="0 0 22 22" style="enable-background:new 0 0 22 22;" xml:space="preserve">
<path d="M20.5,5.5c-3-5.3-9.8-7.1-15-4c-5.3,3-7.1,9.8-4,15c3,5.3,9.8,7.1,15,4C21.8,17.5,23.6,10.8,20.5,5.5z M15.4,18.6
	c-4.2,2.4-9.6,1-12-3.2s-1-9.6,3.2-12s9.6-1,12,3.2C21.1,10.8,19.6,16.2,15.4,18.6z M15,10.6L9.2,7.2C8.7,6.9,8.3,7.1,8.3,7.7v6.7
	c0,0.6,0.4,0.9,1,0.5l5.7-3.3C15.5,11.4,15.5,10.9,15,10.6z"/>
</svg>
