<?xml version="1.0" encoding="utf-8"?>
<!-- Generator: Adobe Illustrator 19.1.0, SVG Export Plug-In . SVG Version: 6.00 Build 0)  -->
<svg version="1.1" id="Layer_1" xmlns="http://www.w3.org/2000/svg" xmlns:xlink="http://www.w3.org/1999/xlink" x="0px" y="0px"
	 viewBox="0 0 235 270" style="enable-background:new 0 0 235 270;" xml:space="preserve">
<g>
	<path d="M0,128.9h29V0h102.7c17.8,0,31.3,0.8,40.5,2.3c13.4,2.3,24.6,6.6,33.6,12.7c9,6.2,16.2,14.8,21.4,25.9
		c5.3,11.1,7.9,23.3,7.9,36.7c0,23.2-7.2,42.8-21.6,58.8c-14.4,16.1-40.6,24.1-78.7,24.1H64.5v24h149.3v30.9H64.5V270H29v-54.7H0
		v-30.9h29v-24H0L0,128.9L0,128.9z M64.5,128.1h70.7c22.9,0,39.3-4.3,49-12.9c9.8-8.6,14.7-20.8,14.7-36.5c0-11.3-2.9-20.9-8.7-28.8
		c-5.8-7.8-13.3-13.1-22.6-15.6c-6.2-1.8-17.2-2.7-33.2-2.7H64.5V128.1z"/>
</g>
</svg>
