<?xml version="1.0" encoding="utf-8"?>
<!-- Generator: Adobe Illustrator 19.1.0, SVG Export Plug-In . SVG Version: 6.00 Build 0)  -->
<svg version="1.1" id="Layer_1" xmlns="http://www.w3.org/2000/svg" xmlns:xlink="http://www.w3.org/1999/xlink" x="0px" y="0px"
	 viewBox="0 0 74 74" enable-background="new 0 0 74 74" xml:space="preserve">
<path d="M37,74C16.6,74,0,57.4,0,37S16.6,0,37,0s37,16.6,37,37S57.4,74,37,74z M37,3.1C18.3,3.1,3.1,18.3,3.1,37S18.3,70.9,37,70.9
	S70.9,55.7,70.9,37S55.7,3.1,37,3.1z M61.5,22.4c-0.3,0.2-0.6,0.3-0.9,0.3c-0.5,0-1-0.2-1.3-0.7C54.3,14.5,46,10.1,37,10.1
	c-0.9,0-1.5-0.7-1.5-1.5S36.1,7,37,7c10,0,19.3,4.9,24.9,13.2C62.4,20.9,62.2,21.9,61.5,22.4z M49.1,37c0,6.7-5.4,12.1-12.1,12.1
	S24.9,43.7,24.9,37S30.3,24.9,37,24.9S49.1,30.3,49.1,37z M28,37c0,5,4.1,9,9,9s9-4.1,9-9s-4.1-9-9-9S28,32,28,37z M38.5,65.5
	c0,0.9-0.7,1.5-1.5,1.5c-9.8,0-19-4.8-24.6-12.8c-0.5-0.7-0.3-1.7,0.4-2.1c0.7-0.5,1.7-0.3,2.1,0.4c5,7.2,13.3,11.5,22.1,11.5
	C37.9,63.9,38.5,64.6,38.5,65.5z"/>
</svg>
