<?xml version="1.0" encoding="utf-8"?>
<!-- Generator: Adobe Illustrator 19.1.0, SVG Export Plug-In . SVG Version: 6.00 Build 0)  -->
<svg version="1.1" id="Layer_1" xmlns="http://www.w3.org/2000/svg" xmlns:xlink="http://www.w3.org/1999/xlink" x="0px" y="0px"
	 viewBox="0 0 40 40" style="enable-background:new 0 0 40 40;" xml:space="preserve">
<path d="M20,40C9,40,0,31,0,20C0,9,9,0,20,0s20,9,20,20C40,31,31,40,20,40z M20,3.4C10.9,3.4,3.4,10.9,3.4,20
	c0,9.1,7.4,16.6,16.6,16.6S36.6,29.1,36.6,20C36.6,10.9,29.1,3.4,20,3.4z M26.7,28.6c0,0.8-0.6,1.3-1.4,1.3H14.7
	c-0.8,0-1.3-0.6-1.3-1.3V16h-1.2v-1.2v-1c0-0.8,0.6-1.4,1.4-1.4h2.7v-1.7c0-0.3,0.3-0.6,0.6-0.6h0h0h6.2c0,0,0,0,0,0c0,0,0,0,0.1,0
	c0.3,0,0.6,0.3,0.6,0.6v1.7h2.7c0.8,0,1.4,0.6,1.4,1.4v1V16h-1.2V28.6z M14.6,28.6c0,0.1,0,0.1,0.1,0.1h10.7c0.1,0,0.1,0,0.1-0.1V16
	H14.6V28.6z M22.6,11.3h-5.2v1.1h5.2V11.3z M26.6,13.8c0-0.1,0-0.1-0.1-0.1h-13c-0.1,0-0.1,0-0.1,0.1v1h13.2V13.8z M22.3,17.4h1.2
	v10.2h-1.2V17.4z M19.4,17.4h1.2v10.2h-1.2V17.4z M16.5,17.4h1.2v10.2h-1.2V17.4z"/>
</svg>
