<?xml version="1.0" encoding="utf-8"?>
<!-- Generator: Adobe Illustrator 19.0.1, SVG Export Plug-In . SVG Version: 6.00 Build 0)  -->
<svg version="1.1" id="Layer_1" xmlns="http://www.w3.org/2000/svg" xmlns:xlink="http://www.w3.org/1999/xlink" x="0px" y="0px"
	 viewBox="0 0 70 70" style="enable-background:new 0 0 70 70;" xml:space="preserve">
<path d="M35,70C15.7,70,0,54.3,0,35S15.7,0,35,0s35,15.7,35,35S54.3,70,35,70z M35,7.5C19.8,7.5,7.5,19.8,7.5,35S19.8,62.5,35,62.5
	S62.5,50.2,62.5,35S50.2,7.5,35,7.5z M29.7,50.3L29.7,50.3L17.1,37.7l5-5l7.6,7.6l18.2-18.2l5,5L29.7,50.3L29.7,50.3z"/>
</svg>
