<?xml version="1.0" encoding="utf-8"?>
<!-- Generator: Adobe Illustrator 19.0.1, SVG Export Plug-In . SVG Version: 6.00 Build 0)  -->
<svg version="1.1" id="Layer_1" xmlns="http://www.w3.org/2000/svg" xmlns:xlink="http://www.w3.org/1999/xlink" x="0px" y="0px"
	 viewBox="0 0 70 70" style="enable-background:new 0 0 70 70;" xml:space="preserve">
<path d="M65.3,17.5C55.6,0.8,34.2-5,17.5,4.7S-5,35.8,4.7,52.5C14.4,69.2,35.8,75,52.5,65.3C69.2,55.6,75,34.2,65.3,17.5z M49,59.2
	C35.6,66.9,18.5,62.3,10.8,49C3.1,35.6,7.7,18.5,21,10.8C34.4,3.1,51.5,7.7,59.2,21C67,34.4,62.4,51.5,49,59.2z M47.6,33.6
	L29.3,22.9c-1.7-1-3-0.2-3,1.7l0.1,21.2c0,1.9,1.4,2.7,3,1.7L47.6,37C49.3,36.1,49.3,34.6,47.6,33.6z"/>
<path d="M65.3,17.5C55.6,0.8,34.2-5,17.5,4.7S-5,35.8,4.7,52.5C14.4,69.2,35.8,75,52.5,65.3C69.2,55.6,75,34.2,65.3,17.5z M49,59.2
	C35.6,66.9,18.5,62.3,10.8,49C3.1,35.6,7.7,18.5,21,10.8C34.4,3.1,51.5,7.7,59.2,21C67,34.4,62.4,51.5,49,59.2z M47.6,33.6
	L29.3,22.9c-1.7-1-3-0.2-3,1.7l0.1,21.2c0,1.9,1.4,2.7,3,1.7L47.6,37C49.3,36.1,49.3,34.6,47.6,33.6z"/>
</svg>
