<svg id="Layer_1" xmlns="http://www.w3.org/2000/svg" viewBox="0 0 56 52"><path d="M10.2 52c-1.7 0-3.4-1.1-3.9-2.9L.2 28.8c-.7-2.2.6-4.4 2.7-5.1l9.4-2.9v-17C12.3 1.7 14 0 16.1 0h36.1C54.3 0 56 1.7 56 3.8v21.7c0 2.1-1.7 3.8-3.8 3.8h-6.1l2.1 6.9c.3 1 .2 2.1-.3 3.1s-1.4 1.7-2.4 2l-34 10.4c-.5.2-.9.3-1.3.3zM4.1 36.2l3.8 12.4c.4 1.3 1.8 2 3.1 1.6l34-10.4c1.3-.4 2-1.8 1.6-3.1l-2.2-7.2h-4.9l.8 2.5c.1.2 0 .4-.1.6-.1.2-.3.3-.5.4l-28.5 8.8c-.4.1-.9-.1-1-.5l-.9-3c-.1-.2 0-.4.1-.6.1-.2.3-.3.5-.4l25.2-7.8h-9.4L4.1 36.2zm7 2.4l.4 1.5 27-8.3-.4-1.5-27 8.3zm-9-9l1.6 5.1 16.6-5.1h-3.9c-1.1 0-2.1-.5-2.9-1.2-.5-.5-.9-1.2-1.1-2L2.1 29.6zm10.2-7.1l-9 2.7c-1.2.4-1.9 1.6-1.7 2.8l10.7-3.3v-2.2zm2.3 4.7c.4.4.9.6 1.5.6h36.1c1.2 0 2.2-1 2.2-2.2V3.8c0-1.2-1-2.2-2.2-2.2H16.1c-1.2 0-2.2 1-2.2 2.2v21.6c0 .8.3 1.4.7 1.8zm36.7-6h-5.6c-.4 0-.8-.4-.8-.8s.4-.8.8-.8h5.6c.4 0 .8.4.8.8 0 .5-.4.8-.8.8zm-9.5 0h-5.6c-.4 0-.8-.4-.8-.8s.4-.8.8-.8h5.6c.4 0 .8.4.8.8 0 .5-.4.8-.8.8zm-9.5 0h-5.6c-.4 0-.8-.4-.8-.8s.4-.8.8-.8h5.6c.4 0 .8.4.8.8 0 .5-.4.8-.8.8zm-9.5 0h-5.6c-.4 0-.8-.4-.8-.8s.4-.8.8-.8h5.6c.4 0 .8.4.8.8 0 .5-.4.8-.8.8zm-1.3-5.7h-2.9c-1.2 0-2.1-1-2.1-2.1V11c0-1.2 1-2.1 2.1-2.1h2.9c1.2 0 2.1 1 2.1 2.1v2.4c0 1.2-1 2.1-2.1 2.1zm-3-5.1c-.3 0-.5.2-.5.5v2.4c0 .3.2.5.5.5h2.9c.3 0 .5-.2.5-.5V11c0-.3-.2-.5-.5-.5h-2.9z"/></svg>