<svg id="Layer_1" xmlns="http://www.w3.org/2000/svg" viewBox="0 0 110 16"><path d="M52 2.3h-4.1v11.4h1.9v-4H52c3.5 0 4.2-2 4.2-3.7.1-2.4-1.4-3.7-4.2-3.7m0 5.6h-2.2V4.1H52c1.6 0 2.3.6 2.3 1.9 0 1.3-.7 1.9-2.3 1.9M16.8 9.7h-1.5c-1.2 0-2 .3-2 1.2 0 .8.6 1.3 1.8 1.3.8 0 1.2-.1 1.7-.2V9.7zm1.9 3.7c-1 .3-2.1.5-3.6.5-2.1 0-3.6-.9-3.6-3 0-1.7 1.3-2.7 3.8-2.7h1.6v-.5c0-.9-.6-1.2-1.8-1.2-1.1 0-2 .3-2.6.5-.2-.6-.4-1.1-.5-1.7 1-.4 2-.6 3.3-.6 2.1 0 3.5.8 3.5 3.3v5.4zm1.7-2c.7.4 1.6.6 2.6.6s1.6-.2 1.6-.8c0-1.7-4.7-.4-4.7-3.9 0-1.9 1.7-2.7 3.4-2.7 1.1 0 2.1.3 2.8.7L25.6 7c-.6-.4-1.4-.7-2.2-.7-.9 0-1.6.2-1.6.8 0 1.7 4.7.4 4.7 3.7 0 2-1.7 2.8-3.6 2.8-1.2 0-2.2-.3-3-.7l.5-1.5zm41.8-1.7h-1.5c-1.2 0-2 .3-2 1.2 0 .8.6 1.3 1.8 1.3.8 0 1.2-.1 1.7-.2V9.7zm1.8 3.7c-1 .3-2.2.5-3.6.5-2.1 0-3.6-.9-3.6-3 0-1.7 1.3-2.7 3.8-2.7h1.6v-.5c0-.9-.6-1.2-1.8-1.2-1.1 0-2 .3-2.6.5-.2-.6-.4-1.1-.5-1.7.9-.4 1.9-.6 3.3-.6 2 0 3.4.9 3.4 3.3v5.4zm1.8-2c.7.4 1.6.6 2.6.6s1.6-.2 1.6-.8c0-1.7-4.7-.4-4.7-3.9 0-1.9 1.7-2.7 3.4-2.7 1.1 0 2.1.3 2.8.7L71 7.2c-.6-.4-1.4-.7-2.2-.7-.9 0-1.6.2-1.6.8 0 1.7 4.7.4 4.7 3.7 0 2-1.7 2.8-3.6 2.8-1.2 0-2.2-.3-3-.7l.5-1.7zm7.5 0c.7.4 1.6.6 2.6.6s1.6-.2 1.6-.8c0-1.7-4.7-.4-4.7-3.9 0-1.9 1.7-2.7 3.4-2.7 1.1 0 2.1.3 2.8.7L78.5 7c-.6-.4-1.4-.7-2.2-.7-.9 0-1.6.2-1.6.8 0 1.7 4.7.4 4.7 3.7 0 2-1.7 2.8-3.6 2.8-1.2 0-2.2-.3-3-.7l.5-1.5zM34.9 8.6h3.9c0-1.4-.8-2.1-1.9-2.1-1.2 0-2 .6-2 2.1m5.8 1.4h-5.9c.1 1.4.9 2.1 2.4 2.1 1 0 1.8-.2 2.4-.4l.5 1.7c-.8.3-1.8.5-2.9.5-2.6 0-4.3-1.3-4.3-4.6s1.5-4.6 3.9-4.6c2.3 0 3.9 1.3 3.9 4.4v.9zM42 5.3c.9-.3 1.8-.6 3-.6.8 0 1.4.1 2 .2l-.6 1.7c-.4-.1-.9-.2-1.4-.2-.5 0-1 .1-1.3.2v7H42V5.3zm-31.8-3v11.4H8.3V5.8l-3 4.9h-.4l-3-4.9v7.9H0V2.3h1.9l3.3 5.3 3.3-5.3h1.7zm20.5 9.8c.5 0 .9-.1 1.3-.2l.4 1.7c-.5.2-1.1.3-1.7.3-1.8 0-3.1-.8-3.1-3.2V2.3h1.9v2.6h2.9v1.8h-2.9v3.9c-.1 1.1.4 1.5 1.2 1.5m49.1-7.2h.9v.2h-.3v1h-.2v-1h-.4v-.2zm1 0h.2l.3.5.3-.5h.2V6h-.2v-.8l-.3.5-.3-.5V6h-.2V4.9z"/><path d="M84.5 8c0 4.4 3.5 8 7.9 8 4.3 0 7.9-3.6 7.9-8s-3.5-8-7.9-8-7.9 3.6-7.9 8" opacity=".4"/><path id="SVGID_1_" d="M94.3 8c0 4.4 3.5 8 7.9 8 4.3 0 7.9-3.6 7.9-8s-3.5-8-7.9-8-7.9 3.6-7.9 8"/></svg>