<svg id="Layer_1" xmlns="http://www.w3.org/2000/svg" viewBox="0 0 99 19"><path d="M97.6 15.1c-.6 0-1.2-.2-1.6-.8l-4-5.6V15h-2V7.4c0-.9.6-1.5 1.4-1.5.8 0 1.2.3 1.6.8l4 5.5V6h2v7.6c0 1-.6 1.5-1.4 1.5zm-13.8 0h-.7c-3.2 0-4.5-1.5-4.5-4.6 0-3.2 1.3-4.6 4.5-4.6h.7c3.3 0 4.5 1.5 4.5 4.6 0 3.1-1.3 4.6-4.5 4.6zm0-7.4h-.7c-2 0-2.5.9-2.5 2.8 0 1.8.6 2.7 2.4 2.7h.7c1.9 0 2.4-.9 2.4-2.7.1-1.9-.4-2.8-2.3-2.8zm-12.2-.9v2.4H77V11h-5.4v4h-2.1V6.1c0-1 .5-1.5 1.3-1.5h7v2h-6c-.2-.1-.2 0-.2.2zM65.2 13h-4.4l-.8 2h-2.3l3.5-8c.4-.8.9-1.2 1.7-1.2.8 0 1.4.5 1.7 1.3l3.5 7.9H66l-.8-2zm-2.1-5c0-.2-.1-.2-.1-.2-.1 0-.1 0-.2.2l-1.3 3.2h3L63.1 8zm-7.7 7h-3.2c-3.1 0-4.5-1.4-4.5-4.5C47.7 7.3 49 6 52.2 6h4.2v1.9h-4.2c-2 0-2.5.8-2.5 2.6s.7 2.6 2.4 2.6h2.2c.1 0 .2-.1.2-.2v-2.7h2.1v3.4c0 .8-.5 1.4-1.2 1.4zm-16.9-1.5v-6c0-.9.5-1.5 1.2-1.5H46v1.9h-5.4c-.1 0-.2.1-.2.2v1.3h5v1.8h-5v1.6c0 .1 0 .2.2.2h5.5v2h-6.5c-.7 0-1.1-.5-1.1-1.5zm-4.3-6.7l-2.9 6.9c-.4.9-.9 1.4-1.8 1.4-.8 0-1.4-.5-1.8-1.4l-2.9-6.8V15h-2.1V6.6c0-1.5.7-2.2 1.9-2.2 1 0 1.6.6 2.1 1.7l2.8 6.8 2.8-6.8c.5-1.1 1.1-1.7 2.1-1.7 1.2 0 1.9.7 1.9 2.2V15h-2.1V6.8zM11 19H9.1v-8c0-.1 0-.1.1-.1h1.3c.4 0 .7-.3.7-.8V.1c4.6.6 8.2 4.6 8.2 9.4-.1 4.9-3.7 9-8.4 9.5zm5.5-4.6c.5 0 1-.5 1-1 0-.6-.4-1-1-1s-1 .5-1 1c0 .6.4 1 1 1zm-2.7 0c.6 0 1-.5 1-1 0-.6-.4-1-1-1s-1 .5-1 1c0 .6.4 1 1 1zm-2.7-2c-.6 0-1 .5-1 1 0 .6.4 1 1 1s1-.5 1-1-.5-1-1-1zM8.7 9.8c-.4 0-.7.3-.7.8v8.3c-4.6-.7-8-4.6-8-9.4C0 4.3 4.2 0 9.4 0h.6v9.7c0 .1 0 .1-.1.1H8.7zm-.9-3.9c-.6 0-1.1.5-1.1 1.1 0 .6.5 1.1 1.1 1.1S8.9 7.7 8.9 7c0-.6-.5-1.1-1.1-1.1z"/></svg>