<svg id="Layer_1" xmlns="http://www.w3.org/2000/svg" viewBox="0 0 113 28"><path d="M111.3 16.2l-1.5-1.7 1.7-1.5 1.5 1.7-1.7 1.5zm-3.6-6.6l1.7-1.5 1.5 1.7-1.7 1.5-1.5-1.7zm-2.2-4.9l1.7-1.5 1.5 1.7-1.7 1.4-1.5-1.6zM102.6 1l-3.3 2.9-2-2.1-6.1 5.5 3.9 4.3-1.5 1.4 3.9 4.3-1.5 1.3 5.5 6.1 3.3-3 2.8 3.2c-.6.4-1.2.8-1.9 1.2-2.1 1.2-4.4 1.8-7 1.8-7.8 0-14.1-6.3-14.1-14s6.3-14 14.1-14c2.2 0 4.3.5 6.2 1.4.3.1.6.3.9.5L104.5 3l-1.9-2zM69.1 23v-1.3c1.1 0 1.8-.9 2.2-2l-3.1-8H70l2.1 5.9h.1l1.8-5.9h1.7l-2.9 8c-.9 2.1-1.9 3.3-3.7 3.3zm-4.3-4.4c.9 0 1.7-.3 2.6-.8V19c-.7.4-1.7.7-2.9.7-2.7 0-3.8-1.7-3.8-4.2 0-2.4 1.2-4.2 3.7-4.2 2 0 3.3 1.3 3.3 3.9v.6h-5.3c0 2 .8 2.8 2.4 2.8zm1.3-3.8c-.1-1.7-.9-2.3-1.8-2.3-1 0-1.7.8-1.9 2.3h3.7zm-8.6-.7c0-1.3-.6-1.5-1.4-1.5-.6 0-1.5.3-2 .6v6.3h-1.7v-7c.7-.4 2.3-1.2 4.1-1.2 1.9 0 2.7.8 2.7 2.4v5.8h-1.7v-5.4zm-10.3 5.7c-2.2 0-3.7-1.5-3.7-4.2 0-2.8 1.5-4.2 3.7-4.2 2.1 0 3.7 1.4 3.7 4.2 0 2.7-1.5 4.2-3.7 4.2zm0-7.3c-1.1 0-2 .9-2 3.1s.8 3.1 2 3.1 2-.9 2-3.1-.9-3.1-2-3.1zM40 11.3h-.1l-3.3 8.2h-1l-3.3-8h-.1v8h-1.5V8.2h1.9l3.6 8.9h.1l3.4-8.9h2v11.3H40v-8.2zm-14.9 8.5c-.9 0-2.2-.3-3.1-.8V7.8l1.7-.4V12c.5-.3 1.3-.6 2.2-.6 2 0 3.1 1.4 3.1 3.9-.1 3-1.5 4.5-3.9 4.5zm.3-7.2c-.6 0-1.1.2-1.8.5v5.2c.5.2 1.1.3 1.5.3 1.2 0 2.1-.7 2.1-3.3 0-2-.7-2.7-1.8-2.7zm-7.7 6c.9 0 1.7-.3 2.6-.8V19c-.7.4-1.7.7-2.9.7-2.7 0-3.8-1.7-3.8-4.2 0-2.4 1.2-4.2 3.7-4.2 2 0 3.3 1.3 3.3 3.9v.6h-5.3c0 2 .8 2.8 2.4 2.8zm1.3-3.8c-.1-1.7-.9-2.3-1.8-2.3-1 0-1.7.8-1.9 2.3H19zM8.8 19.6l-2.2-8h-.1l-2.1 8H2.6L0 8.2h1.8l1.8 8.4h.1l2.1-8.4h1.4l2.2 8.4h.1l1.6-8.4H13l-2.6 11.3H8.8zm97.9-1l-2.3-2.5 2.5-2.2 2.3 2.5-2.5 2.2zm.4-7.5l-2.5 2.2-2.3-2.5 2.5-2.2 2.3 2.5zm-2.4-5l-2.5 2.2-2.2-2.5 2.5-2.2 2.2 2.5zm-7.6-1.7l3 3.3-3.4 3-3-3.3 3.4-3zm7.9 14.8l-3.4 3-3-3.3 3.4-3 3 3.3zm-5.4-9.1l3 3.3-3.4 3-3-3.3 3.4-3zm9.6 8.8l2.3 2.5-2.5 2.2-2.3-2.5 2.5-2.2z"/></svg>