<svg id="Layer_1" xmlns="http://www.w3.org/2000/svg" viewBox="0 0 105 26"><path d="M97.3 26H44.4V0h52.8l7.7 13-7.6 13zM95.7 2.2H47v21.6h48.8l6.4-10.8-6.5-10.8zm-4.9 11.2L88 16.7v.6h-1.1v-5.8H88v3.9l2.8-3.3v-.6h1.1v5.8h-1.1v-3.9zm-8 3.9h-1.1v-5.8h3.8v.9h-2.8v4.9zm-5.1 0h-2v-5.8h1.1v2h1.1c.8 0 1.5.2 1.9.6.5.4.5 1 .5 1.4 0 .7-.3 1.1-.5 1.3-.5.5-1.3.5-2.1.5zm1.2-2.6c-.3-.2-.8-.2-1.1-.2h-.9v2h1c.3 0 .7 0 1-.2.2-.1.4-.4.4-.8-.1-.5-.3-.7-.4-.8zm-6.2 0h-2.8v2.7h-1.1v-5.8h1.1v2.2h2.8v-2.2h1.1v5.8h-1.1v-2.7zm-9.1 1.4c.4.4.8.4 1.2.4.4 0 1 0 1.7-.6l.7.6c-.5.5-1.1.9-2.3.9-.7 0-1.5-.1-2.1-.8-.5-.5-.9-1.3-.9-2.2 0-.8.3-1.7.9-2.3.5-.5 1.1-.8 1.9-.8.7 0 1.3.2 1.8.6.7.7.9 1.8.9 2.6H63c0 .7.2 1.3.6 1.6zm2.4-2.3c0-.4-.2-.8-.5-1.1-.3-.3-.7-.4-1-.4-.4 0-.7.1-1 .3-.3.2-.5.7-.6 1.1H66zm-6.2 3.5h-6v1.9h-1.1v-2.9h1c.2-.4.7-1.2.9-2.3.2-1 .3-2.2.3-3.9V8.7h5v7.6H61v2.9h-1.1v-1.9zm-1.2-7.6H56v.3c0 2.2-.2 3.4-.4 4.2-.2.8-.4 1.4-.8 2.1h3.8V9.7zm-22.5 9.5c-1.8 0-3-1.5-3-4.1 0-3 1.3-5 3-5 .4 0 .9.1 1.7.4.1.1.2.1.2.2s0 .1-.1.2l-.5.8c-.1.1-.1.1-.2.1s-.1 0-.1-.1c-.5-.4-.8-.5-1-.5-.9 0-1.5 1.8-1.5 3.5 0 2 .7 3.3 2 3.3.7 0 1.2-.2 1.3-.2.1 0 .1 0 .1.1l.1.6c0 .1 0 .1-.1.2-.3.2-1.1.5-1.9.5zm-4.5-.2c-.2 0-.4-.1-.5-.3l-2-4.1c0-.1-.1-.1-.1-.2v4.4c0 .1 0 .1-.1.1h-1.2c-.1 0-.1-.1-.1-.1v-8.5c0-.1.1-.1.1-.1h1.2c.1 0 .1.1.1.1v3.8c.1-.1.2-.2.3-.4l1.6-3.2c.1-.2.2-.3.5-.3h1c.1 0 .1.1.1.1l-2.1 3.8 2.5 4.7c0 .1 0 .1-.1.1h-1.2zm-9.1-4.1v.4c0 1.5.6 2.7 2 2.7.7 0 1.2-.2 1.3-.2.1 0 .1 0 .1.1l.1.6c0 .1 0 .1-.1.2-.4.2-1.2.6-2 .6-1.8 0-3-1.6-3-4.2s.9-4.9 2.8-4.9c1.4 0 2.4 1.4 2.4 4.1v.7h-2.6c-.3 0-1-.1-1-.1zm2.2-1.6c-.1-1.3-.4-2.1-1-2.1s-1 .7-1.2 2.2v.5s.6-.1 1-.1h1.2v-.5zm-5.5 7.4c-.1 0-.1-.1-.1-.1V19h-3.8v1.4c0 .1-.1.3-.3.3h-.9c-.1 0-.1 0-.1-.1V18c0-.1 0-.1.1-.1h.4c1.1-2 1.3-4.8 1.3-6.9v-.6c0-.1.1-.1.1-.1h3.6c.1 0 .1 0 .1.1v7.2c0 .2.1.3.3.3h.2c.1 0 .1.1.1.1v2.4c0 .2-.1.3-.2.3h-.8zm-1-9.3h-1.1c0 .3 0 .8-.1 1.2-.1 2.1-.5 3.8-1.4 5.3h2.6v-6.5zM11.8 19c-.1 0-.1-.1-.1-.1v-4h-2v4c-.1.1-.2.1-.2.1H8.3c-.1 0-.1-.1-.1-.1v-8.4c0-.1.1-.1.1-.1h1.1c.1 0 .1 0 .1.1v3.3h2v-3.3c0-.1.1-.1.1-.1h1.1c.1 0 .1.1.1.1v8.4c0 .1 0 .1-.1.1h-.9zm-6.7 0l-.1-.1v-4.7h-.9l-2.5 4.7c0 .1-.1.1-.2.1H.2c-.2 0-.3-.1-.2-.3l2.7-4.8C1.2 13.3.4 12 .4 10.3.5 7.5 2.2 6 4.2 6h2c.1 0 .2 0 .2.2v12.7c0 .1 0 .1-.1.1H5.1zM5 7.1h-.9C3 7.1 2 8 2 10.2c0 2.1 1.1 2.9 2.3 2.9H5v-6z"/></svg>