<?xml version="1.0" encoding="utf-8"?>
<!-- Generator: Adobe Illustrator 19.0.1, SVG Export Plug-In . SVG Version: 6.00 Build 0)  -->
<svg version="1.1" id="Layer_1" xmlns="http://www.w3.org/2000/svg" xmlns:xlink="http://www.w3.org/1999/xlink" x="0px" y="0px"
	 viewBox="0 0 421 216" style="enable-background:new 0 0 421 216;" xml:space="preserve">
<g>
	<path d="M325,75.2l-21.6,6c-0.1,0-0.2,0-0.4,0c-4.8,0.8-6.9,0.5-9.7-2.7h-0.1c-2.4-2.9-5.7-4.6-9.2-5v-0.1l-33.9-5.5
		c-0.4-0.1-0.8-0.1-1.2-0.1l-39.1,2.7l0.1,9.9l38.6,1.6l13.1,2.1l-24.8,16.2c-0.4,0.3-0.7,0.6-1.1,0.9L200.5,113
		c-1.3,0.4-2.5,1.2-3.5,2.2l-24.4,24.8l12.7,12.3l22.9-23.4l17-5.7l-18.4,15.8c-0.3,0.3-0.6,0.5-0.8,0.8L176.1,173l13.2,11.8
		l29.5-32.8l31.7-27.1c0.6-0.3,1.3-0.6,1.9-1l37-24.1l39.7-11c0.4-0.1,0.8-0.3,1.2-0.4l34.5-18.2l-4.2-9L325,75.2z"/>
	<path d="M313.8,73.3c8.4-3.9,12-13.9,8-22.2c-4-8.3-14-11.9-22.3-7.9c-8.4,3.9-11.9,13.9-8,22.2C295.4,73.7,305.4,77.3,313.8,73.3z
		"/>
	<path d="M380.4,17.6c-9,2.2-14.5,11.3-12.2,20.2c2.2,8.9,11.3,14.4,20.3,12.2c9-2.2,14.5-11.3,12.2-20.2
		C398.5,20.9,389.4,15.4,380.4,17.6z"/>
	<path d="M250.1,86.6l0.3-0.2l-0.3-0.1C250.1,86.4,250.1,86.5,250.1,86.6z"/>
	<path d="M414-0.2H7.2c-3.9,0-7,3.1-7,7v209h14v-23.2c4.6,0.1,11.2,0.1,19.5,0.2c0.1,5.5,0.3,10.2,0.3,13.9c0.2,5.7,0.3,9,0.3,9
		s0.1-3.3,0.3-9c0.1-3.7,0.2-8.4,0.3-13.9c7.4,0.1,16.2,0.2,25.9,0.3c0.1,5.4,0.3,10,0.3,13.6c0.2,5.7,0.3,9,0.3,9s0.1-3.3,0.3-9
		c0.1-3.6,0.2-8.2,0.3-13.6c2.8,0,5.7,0.1,8.7,0.1c5.5,0,11.2,0.1,17.2,0.1c0.1,5.3,0.3,9.8,0.3,13.4c0.2,5.7,0.3,9,0.3,9
		s0.1-3.3,0.3-9c0.1-3.6,0.2-8.1,0.3-13.4c8.3,0.1,16.9,0.1,26,0.2c0.1,5.2,0.3,9.7,0.3,13.2c0.2,5.7,0.3,9,0.3,9s0.1-3.3,0.3-9
		c0.1-3.5,0.2-8,0.3-13.2c6.4,0,13,0.1,19.7,0.1c2.1,0,4.2,0,6.3,0c0.1,5.1,0.2,9.6,0.3,13c0.2,5.7,0.3,9,0.3,9s0.1-3.3,0.3-9
		c0.1-3.5,0.2-7.9,0.3-13c8.5,0,17.2,0,26,0.1c0.1,5.1,0.2,9.5,0.3,13c0.2,5.7,0.3,9,0.3,9s0.1-3.3,0.3-9c0.1-3.5,0.2-7.9,0.3-13
		c8.6,0,17.3,0,26,0.1c0.1,5.1,0.2,9.4,0.3,12.9c0.2,5.7,0.3,9,0.3,9s0.1-3.3,0.3-9c0.1-3.5,0.2-7.8,0.3-12.9c4.3,0,8.7,0,13,0
		s8.7,0,13,0c0.1,5.1,0.3,9.4,0.3,12.9c0.2,5.7,0.3,9,0.3,9s0.1-3.3,0.3-9c0.1-3.5,0.2-7.8,0.3-12.9c8.7,0,17.4-0.1,26-0.1
		c0.1,5.1,0.2,9.5,0.3,13c0.2,5.7,0.3,9,0.3,9s0.1-3.3,0.3-9c0.1-3.5,0.2-7.9,0.3-13c8.8,0,17.5-0.1,26-0.1c0.1,5.1,0.2,9.5,0.3,13
		c0.2,5.7,0.3,9,0.3,9s0.1-3.3,0.3-9c0.1-3.5,0.2-7.9,0.3-13c2.1,0,4.2,0,6.3,0c6.7,0,13.3-0.1,19.7-0.1c0.1,5.2,0.3,9.7,0.3,13.2
		c0.2,5.7,0.3,9,0.3,9s0.1-3.3,0.3-9c0.1-3.5,0.2-8,0.3-13.2c9-0.1,17.7-0.1,26-0.2c0.1,5.3,0.3,9.8,0.3,13.4c0.2,5.7,0.3,9,0.3,9
		s0.1-3.3,0.3-9c0.1-3.6,0.2-8.1,0.3-13.4c6,0,11.7-0.1,17.2-0.1c3,0,5.9-0.1,8.7-0.1c0.1,5.4,0.3,10,0.3,13.6c0.2,5.7,0.3,9,0.3,9
		s0.1-3.3,0.3-9c0.1-3.6,0.2-8.2,0.3-13.6c9.8-0.1,18.5-0.2,25.9-0.3c0.1,5.5,0.3,10.2,0.3,13.9c0.2,5.7,0.3,9,0.3,9s0.1-3.3,0.3-9
		c0.1-3.7,0.2-8.4,0.3-13.9c8.3-0.1,15-0.2,19.5-0.3v23.3h14.1V6.8C421.1,2.9,417.9-0.2,414-0.2z M14.2,53.3
		c4.5,0.1,11,0.1,19.1,0.2c-0.1,6.1-0.2,12.6-0.2,19.4c0,1.1,0,2.2,0,3.2c-8,0.1-14.5,0.2-18.9,0.2V53.3z M14.2,76.6
		c4.4,0.1,10.9,0.1,18.9,0.2c0,7.3-0.1,14.9-0.1,22.6c-8,0.1-14.4,0.2-18.8,0.2V76.6z M14.2,99.8C18.6,99.9,25,99.9,33,100
		c0,3.8,0,7.5-0.1,11.3c0,3.8,0,7.6,0.1,11.3c-8,0.1-14.4,0.2-18.8,0.2V99.8z M14.2,123c4.4,0.1,10.8,0.1,18.8,0.2
		c0,7.7,0.1,15.3,0.1,22.6c-8,0.1-14.5,0.2-18.9,0.2V123z M14.2,146.2c4.4,0.1,10.9,0.1,18.9,0.2c0,1.1,0,2.2,0,3.2
		c0,6.8,0.1,13.3,0.2,19.4c-8.2,0.1-14.7,0.2-19.1,0.2V146.2z M14.2,192.4v-23.1c4.5,0.1,11,0.1,19.1,0.2c0.1,4.7,0.2,9.3,0.2,13.5
		c0,3.2,0.1,6.3,0.2,9.1C25.4,192.3,18.8,192.4,14.2,192.4z M33.6,39.4c-0.1,4.2-0.1,8.8-0.2,13.5c-8.2,0.1-14.7,0.2-19.1,0.2v-23
		c4.5,0.1,11.2,0.1,19.5,0.2C33.7,33.2,33.6,36.2,33.6,39.4z M34.1,15.8c-0.1,3.7-0.2,8.4-0.3,13.9c-8.3,0.1-15,0.2-19.5,0.2V13.7
		h19.9C34.1,14.4,34.1,15.1,34.1,15.8z M35,192.2c0.1-2.8,0.1-5.9,0.2-9.1c0.1-4.2,0.1-8.7,0.2-13.5c7.3,0.1,15.7,0.2,25.2,0.3
		c0.1,4.6,0.1,9.1,0.2,13.2c0,3.1,0.1,6,0.2,8.8C51.2,192,42.4,192.1,35,192.2z M60.2,122.3c-9.1,0.1-17.4,0.2-24.5,0.3
		c0-3.8,0-7.5,0.1-11.3c0-3.8,0-7.5-0.1-11.3c7.1,0.1,15.3,0.2,24.5,0.3c0,3.7,0,7.3-0.1,11C60.1,115,60.2,118.6,60.2,122.3z
		 M35.7,99.3c0-7.7-0.1-15.2-0.1-22.6c7.1,0.1,15.4,0.2,24.7,0.3c0,7.1-0.1,14.5-0.1,22C51,99.1,42.8,99.2,35.7,99.3z M35.7,123.3
		c7.1,0.1,15.3,0.2,24.5,0.3c0,7.5,0.1,14.8,0.1,22c-9.2,0.1-17.5,0.2-24.7,0.3C35.6,138.4,35.7,131,35.7,123.3z M60.3,146.7
		c0,1,0,1.9,0,2.9c0,6.7,0.1,13,0.2,19.1c-9.4,0.1-17.9,0.2-25.1,0.3c0.1-6.1,0.2-12.6,0.2-19.4c0-1,0-2.1,0-3.2
		C42.8,146.5,51.1,146.6,60.3,146.7z M60.3,73c0,0.9,0,1.9,0,2.9c-9.2,0.1-17.5,0.2-24.7,0.3c0-1.1,0-2.1,0-3.2
		c0-6.8-0.1-13.2-0.2-19.4c7.2,0.1,15.7,0.2,25.1,0.3C60.4,59.9,60.3,66.3,60.3,73z M35.4,52.9c-0.1-4.7-0.2-9.3-0.2-13.5
		c0-3.2-0.1-6.3-0.2-9.1c7.4,0.1,16.1,0.2,25.9,0.3c-0.1,2.8-0.1,5.7-0.2,8.8c-0.1,4.1-0.1,8.5-0.2,13.2
		C51.1,52.7,42.6,52.8,35.4,52.9z M61.3,15.8c-0.1,3.6-0.2,8.2-0.3,13.6c-9.8,0.1-18.5,0.2-25.9,0.3c-0.1-5.5-0.3-10.2-0.3-13.9
		c0-0.7,0-1.4-0.1-2h26.7C61.3,14.4,61.3,15.1,61.3,15.8z M70.9,191.7c-3,0-5.9,0.1-8.7,0.1c0.1-2.7,0.1-5.7,0.2-8.8
		c0-4.1,0.1-8.5,0.2-13.1c2.7,0,5.5,0.1,8.4,0.1c5.4,0,11,0.1,16.8,0.1c0.1,4.5,0.1,8.9,0.2,12.9c0,3,0.1,5.9,0.1,8.6
		C82.1,191.7,76.3,191.7,70.9,191.7z M87.2,122c-5.7,0-11.2,0.1-16.5,0.1c-2.7,0-5.4,0.1-8,0.1c0-3.6,0-7.3,0.1-10.9
		c0-3.7,0-7.3-0.1-11c2.6,0,5.2,0.1,8,0.1c5.2,0,10.8,0.1,16.5,0.1c0,3.6,0,7.2-0.1,10.7C87.2,114.9,87.2,118.5,87.2,122z
		 M70.9,98.9c-2.7,0-5.4,0.1-8,0.1c0-7.4-0.1-14.8-0.1-21.9c2.6,0,5.3,0.1,8.1,0.1c5.3,0,10.8,0.1,16.6,0.1c0,7-0.1,14.2-0.1,21.5
		C81.6,98.8,76.1,98.8,70.9,98.9z M62.9,123.6c2.6,0,5.3,0.1,8,0.1c5.3,0,10.8,0.1,16.5,0.1c0,7.3,0.1,14.5,0.1,21.5
		c-5.7,0-11.3,0.1-16.6,0.1c-2.8,0-5.5,0.1-8.1,0.1C62.8,138.3,62.8,131.1,62.9,123.6z M70.9,75.7c-2.8,0-5.5,0.1-8.1,0.1
		c0-0.9,0-1.9,0-2.9c0-6.6-0.1-13-0.2-19c2.7,0,5.5,0.1,8.3,0.1c5.4,0,11,0.1,16.8,0.1c-0.1,6-0.2,12.3-0.2,18.8c0,0.9,0,1.8,0,2.7
		C81.7,75.6,76.1,75.7,70.9,75.7z M62.7,149.6c0-0.9,0-1.9,0-2.9c2.6,0,5.3,0.1,8.1,0.1c5.3,0,10.8,0.1,16.6,0.1c0,0.9,0,1.8,0,2.6
		c0,6.6,0.1,12.9,0.2,18.8c-5.8,0-11.5,0.1-16.8,0.1c-2.9,0-5.6,0.1-8.3,0.1C62.6,162.6,62.7,156.3,62.7,149.6z M87.8,39.4
		c0,4-0.1,8.4-0.2,12.9c-5.8,0-11.5,0.1-16.8,0.1c-2.9,0-5.6,0.1-8.3,0.1c-0.1-4.6-0.1-9-0.2-13.1c0-3.1-0.1-6-0.2-8.8
		c2.8,0,5.7,0.1,8.7,0.1c5.5,0,11.2,0.1,17.2,0.1C87.9,33.6,87.8,36.4,87.8,39.4z M88.3,15.8c-0.1,3.6-0.2,8.1-0.3,13.4
		c-6,0-11.7,0.1-17.2,0.1c-3,0-5.9,0.1-8.7,0.1c-0.1-5.4-0.3-10-0.3-13.6c0-0.7,0-1.4-0.1-2h26.7C88.3,14.4,88.3,15.1,88.3,15.8z
		 M89.2,191.6c0.1-2.7,0.1-5.5,0.2-8.5c0-4,0.1-8.4,0.2-12.9c8,0.1,16.5,0.1,25.2,0.2c0.1,4.5,0.1,8.8,0.2,12.7c0,3,0.1,5.7,0.1,8.4
		C106.1,191.5,97.5,191.6,89.2,191.6z M114.4,121.9c-8.5,0.1-16.6,0.1-24.5,0.2c0-3.6,0-7.1,0.1-10.7c0-3.6,0-7.2-0.1-10.7
		c7.8,0.1,16,0.1,24.5,0.2c0,3.5,0,7-0.1,10.6C114.3,114.8,114.4,118.4,114.4,121.9z M89.9,98.8c0-7.3-0.1-14.5-0.1-21.4
		c7.9,0.1,16.1,0.1,24.7,0.2c0,6.9-0.1,14-0.1,21.1C105.9,98.7,97.7,98.7,89.9,98.8z M89.9,123.8c7.8,0.1,16,0.1,24.5,0.2
		c0,7.2,0.1,14.2,0.1,21.1c-8.6,0.1-16.8,0.1-24.7,0.2C89.8,138.2,89.9,131.1,89.9,123.8z M89.8,75.6c0-0.9,0-1.8,0-2.6
		c0-6.6-0.1-12.8-0.2-18.8c8,0.1,16.4,0.1,25.1,0.2c-0.1,5.9-0.2,12.2-0.2,18.6c0,0.8,0,1.7,0,2.5C105.9,75.5,97.7,75.5,89.8,75.6z
		 M89.8,149.6c0-0.9,0-1.8,0-2.6c7.9,0.1,16.1,0.1,24.7,0.2c0,0.8,0,1.7,0,2.5c0,6.5,0.1,12.7,0.2,18.7c-8.7,0.1-17.1,0.1-25.1,0.2
		C89.7,162.5,89.8,156.2,89.8,149.6z M89.6,52.3c-0.1-4.5-0.1-8.9-0.2-12.9c0-3-0.1-5.9-0.1-8.5c8.2,0.1,16.9,0.1,25.9,0.2
		c-0.1,2.6-0.1,5.4-0.1,8.4c0,4-0.1,8.3-0.2,12.7C106,52.2,97.6,52.3,89.6,52.3z M115.4,15.8c-0.1,3.5-0.2,8-0.3,13.2
		c-9,0.1-17.7,0.1-25.9,0.2c-0.1-5.3-0.3-9.8-0.3-13.4c0-0.7,0-1.4-0.1-2h26.7C115.5,14.4,115.5,15.1,115.4,15.8z M136,191.3
		c-6.7,0-13.2,0.1-19.6,0.1c0.1-2.6,0.1-5.4,0.1-8.4c0-4,0.1-8.3,0.2-12.7c6.3,0,12.7,0.1,19.3,0.1c1.9,0,4,0,5.9,0
		c0.1,4.4,0.1,8.7,0.2,12.6c0,2.9,0.1,5.6,0.1,8.2C140.2,191.3,138,191.3,136,191.3z M117.1,100.8c6.2,0,12.5,0.1,18.9,0.1
		c1.8,0,3.7,0,5.5,0c0,3.5,0,6.9-0.1,10.4c0,3.5,0,7,0.1,10.4c-1.8,0-3.7,0-5.5,0c-6.4,0-12.7,0.1-18.9,0.1c0-3.5,0-7,0.1-10.5
		C117.1,107.8,117.1,104.3,117.1,100.8z M136,124.1c1.8,0,3.7,0,5.6,0c0,7.1,0.1,14,0.1,20.8c-1.9,0-3.8,0-5.7,0
		c-6.5,0-12.8,0.1-19,0.1c0-6.9,0.1-13.9,0.1-21.1C123.2,124.1,129.5,124.1,136,124.1z M141.5,98.4c-1.8,0-3.7,0-5.6,0
		c-6.4,0-12.7,0.1-18.9,0.1c0-7.2-0.1-14.2-0.1-21.1c6.2,0,12.5,0.1,19,0.1c1.9,0,3.8,0,5.7,0C141.6,84.4,141.6,91.4,141.5,98.4z
		 M136,75.3c-6.5,0-12.8,0.1-19,0.1c0-0.8,0-1.7,0-2.5c0-6.5-0.1-12.7-0.2-18.6c6.3,0,12.7,0.1,19.2,0.1c1.9,0,3.9,0,5.9,0
		c-0.1,5.9-0.2,12.1-0.2,18.5c0,0.8,0,1.6,0,2.3C139.8,75.3,137.8,75.3,136,75.3z M116.9,149.6c0-0.8,0-1.6,0-2.5
		c6.2,0,12.6,0.1,19,0.1c1.9,0,3.8,0,5.7,0c0,0.8,0,1.6,0,2.3c0,6.4,0.1,12.6,0.2,18.5c-2,0-4,0-5.9,0c-6.6,0-13,0.1-19.2,0.1
		C116.8,162.4,116.9,156.1,116.9,149.6z M136,52c-6.6,0-13,0.1-19.3,0.1c-0.1-4.5-0.1-8.8-0.2-12.7c0-3-0.1-5.7-0.1-8.4
		c6.4,0,12.9,0.1,19.6,0.1c2.1,0,4.2,0,6.2,0c-0.1,2.6-0.1,5.3-0.1,8.2c0,3.9-0.1,8.2-0.2,12.6C139.9,52,137.9,52,136,52z
		 M142.6,15.8c-0.1,3.5-0.2,7.9-0.3,13c-2.1,0-4.2,0-6.3,0c-6.7,0-13.2,0.1-19.7,0.1c-0.1-5.2-0.3-9.7-0.3-13.2c0-0.7,0-1.4-0.1-2
		h26.7C142.6,14.4,142.6,15.1,142.6,15.8z M359.5,13.8c0,0.6-0.1,1.3-0.1,2c-0.1,3.6-0.2,8.2-0.3,13.6c-2.8,0-5.7-0.1-8.7-0.1
		c-5.5,0-11.2-0.1-17.2-0.1c-0.1-5.3-0.3-9.8-0.3-13.4c0-0.7-0.1-1.4-0.1-2H359.5z M359.1,30.6c-0.1,2.8-0.1,5.7-0.2,8.8
		c-0.1,4.1-0.1,8.5-0.2,13.1c-2.7,0-5.5-0.1-8.3-0.1c-5.4,0-11-0.1-16.8-0.1c-0.1-4.5-0.1-8.9-0.2-12.9c0-3-0.1-5.9-0.1-8.6
		c5.9,0,11.7-0.1,17.2-0.1C353.4,30.7,356.3,30.7,359.1,30.6z M332.5,13.8c0,0.6,0,1.3-0.1,2c-0.1,3.6-0.2,8.1-0.3,13.4
		c-8.3-0.1-16.9-0.1-26-0.2c-0.1-5.2-0.3-9.7-0.3-13.2c0-0.7,0-1.4-0.1-2L332.5,13.8L332.5,13.8z M305.3,13.8c0,0.6,0,1.3-0.1,2
		c-0.1,3.5-0.2,8-0.3,13.2c-6.4,0-13-0.1-19.7-0.1c-2.1,0-4.2,0-6.3,0c-0.1-5.1-0.2-9.5-0.3-13c0-0.7-0.1-1.4-0.1-2L305.3,13.8
		L305.3,13.8z M278.2,13.8c0,0.6,0,1.3-0.1,2c-0.1,3.5-0.2,7.9-0.3,13c-8.5,0-17.2,0-26-0.1c-0.1-5.1-0.3-9.5-0.3-13
		c0-0.7,0-1.4-0.1-2L278.2,13.8L278.2,13.8z M277.8,31.2c-0.1,2.6-0.1,5.3-0.1,8.2c0,3.9-0.1,8.2-0.2,12.6c-8.3,0-16.7,0-25.2-0.1
		c-0.1-4.4-0.1-8.6-0.2-12.5c0-2.9-0.1-5.6-0.1-8.2C260.7,31.2,269.3,31.2,277.8,31.2z M251.1,13.8c0,0.6,0,1.3-0.1,2
		c-0.1,3.5-0.2,7.9-0.3,13c-8.6,0-17.2,0-26-0.1c-0.1-5.1-0.2-9.4-0.3-12.9c0-0.7,0-1.4-0.1-2H251.1z M250.7,31.3
		c-0.1,2.6-0.1,5.3-0.1,8.2c0,3.9-0.1,8.1-0.2,12.5c-8.3,0-16.7,0-25.2-0.1c-0.1-4.4-0.1-8.6-0.2-12.5c0-2.8-0.1-5.5-0.1-8.1
		C233.5,31.3,242.2,31.3,250.7,31.3z M224,13.8c0,0.6,0,1.3-0.1,2c-0.1,3.5-0.2,7.8-0.3,12.9c-4.3,0-8.7,0-13,0s-8.7,0-13,0
		c-0.1-5.1-0.2-9.4-0.3-12.9c0-0.7,0-1.4-0.1-2H224z M223.6,31.3c-0.1,2.6-0.1,5.2-0.1,8.1c-0.1,3.9-0.1,8.1-0.2,12.5
		c-4.2,0-8.4,0-12.6,0s-8.4,0-12.6,0c-0.1-4.4-0.1-8.6-0.2-12.5c0-2.8-0.1-5.5-0.1-8.1c4.3,0,8.6,0,12.9,0
		C214.9,31.4,219.3,31.3,223.6,31.3z M196.9,13.8c0,0.6,0,1.3-0.1,2c-0.1,3.5-0.2,7.8-0.3,12.9c-8.7,0-17.4,0-26,0.1
		c-0.1-5.1-0.2-9.5-0.3-13c0-0.7,0-1.4-0.1-2H196.9z M171.1,75.2c0-0.7,0-1.5,0-2.2c0-6.4-0.1-12.6-0.2-18.4c8.3,0,16.7,0,25.1,0.1
		c-0.1,5.8-0.2,12-0.2,18.4c0,0.7,0,1.5,0,2.2C187.6,75.2,179.3,75.2,171.1,75.2z M195.8,77.9c0,6.7-0.1,13.6-0.1,20.6
		c-8.2,0-16.4,0-24.5,0.1c0-7-0.1-13.9-0.1-20.7C179.3,77.8,187.6,77.8,195.8,77.9z M170.9,51.9c-0.1-4.4-0.1-8.6-0.2-12.5
		c0-2.9-0.1-5.6-0.1-8.2c8.5,0,17.2,0,25.8,0.1c-0.1,2.5-0.1,5.2-0.1,8.1c0,3.9-0.1,8.1-0.2,12.5C187.6,51.9,179.2,51.9,170.9,51.9z
		 M143.1,15.8c0-0.7,0-1.4-0.1-2h26.7c0,0.6,0,1.3-0.1,2c-0.1,3.5-0.2,7.9-0.3,13c-8.8,0-17.5,0-26,0.1
		C143.3,23.7,143.2,19.3,143.1,15.8z M168.6,121.6c-8.3,0-16.4,0-24.4,0.1c0-3.5,0-6.9,0-10.4s0-6.9,0-10.4c8,0,16.2,0,24.4,0.1
		c0,3.4,0,6.9-0.1,10.3C168.6,114.7,168.6,118.2,168.6,121.6z M144.2,98.4c0-7.1-0.1-14-0.1-20.8c8.1,0,16.3,0,24.7,0.1
		c0,6.7-0.1,13.7-0.1,20.7C160.4,98.4,152.2,98.4,144.2,98.4z M144.1,75.3c0-0.8,0-1.6,0-2.3c0-6.4-0.1-12.6-0.2-18.5
		c8.2,0,16.6,0,25.1,0.1c-0.1,5.8-0.2,12-0.2,18.4c0,0.7,0,1.5,0,2.3C160.4,75.2,152.2,75.2,144.1,75.3z M168.7,147.4
		c0,0.7,0,1.5,0,2.3c0,6.4,0.1,12.6,0.2,18.4c-8.5,0-16.9,0-25.1,0.1c0.1-5.9,0.2-12.1,0.2-18.5c0-0.8,0-1.5,0-2.3
		C152.2,147.3,160.4,147.4,168.7,147.4z M143.8,52c-0.1-4.4-0.1-8.7-0.2-12.6c0-2.9-0.1-5.6-0.1-8.2c8.5,0,17.1,0,25.9,0.1
		c-0.1,2.6-0.1,5.3-0.1,8.2c0,3.9-0.1,8.1-0.2,12.5C160.5,52,152.1,52,143.8,52z M143.5,191.3c0.1-2.6,0.1-5.3,0.1-8.2
		c0-3.9,0.1-8.2,0.2-12.6c8.3,0,16.7,0,25.2,0.1c0.1,4.4,0.1,8.6,0.2,12.5c0,2.9,0.1,5.6,0.1,8.2C160.6,191.3,152,191.3,143.5,191.3
		z M224.9,191.2c0.1-2.5,0.1-5.2,0.1-8.1c0-3.9,0.1-8.1,0.2-12.5c8.5,0,16.9,0,25.2-0.1c0.1,4.4,0.1,8.6,0.2,12.5
		c0,2.9,0.1,5.6,0.1,8.2C242.2,191.2,233.5,191.2,224.9,191.2z M252,191.2c0.1-2.6,0.1-5.3,0.1-8.1c0-3.9,0.1-8.1,0.2-12.5
		c8.5,0,16.9,0,25.2-0.1c0.1,4.4,0.1,8.6,0.2,12.6c0,2.9,0.1,5.6,0.1,8.2C269.3,191.3,260.7,191.3,252,191.2z M252.4,168.1
		c0.1-5.9,0.2-12,0.2-18.4c0-0.7,0-1.5,0-2.3c8.4,0,16.6,0,24.7-0.1c0,0.8,0,1.6,0,2.3c0,6.4,0.1,12.6,0.2,18.5
		C269.2,168.1,260.8,168.1,252.4,168.1z M285.3,191.3c-2,0-4.2,0-6.2,0c0.1-2.6,0.1-5.3,0.1-8.2c0.1-3.9,0.1-8.2,0.2-12.6
		c2,0,4,0,5.9,0c6.6,0,13-0.1,19.3-0.1c0.1,4.5,0.1,8.8,0.2,12.7c0,3,0.1,5.7,0.1,8.4C298.5,191.4,292,191.4,285.3,191.3z
		 M285.3,147.3c6.5-0.1,12.8-0.1,19-0.1c0,0.8,0,1.7,0,2.5c0,6.5,0.1,12.7,0.2,18.6c-6.3,0-12.7-0.1-19.2-0.1c-1.9,0-3.9,0-5.9,0
		c0.1-5.9,0.2-12.1,0.2-18.5c0-0.8,0-1.6,0-2.3C281.5,147.3,283.4,147.3,285.3,147.3z M279.6,144.9c0-6.8,0.1-13.8,0.1-20.8
		c1.8,0,3.7,0,5.6,0c6.4,0,12.7-0.1,18.9-0.1c0,7.2,0.1,14.2,0.1,21.1c-6.2,0-12.5-0.1-19-0.1C283.4,144.9,281.5,144.9,279.6,144.9z
		 M306.2,191.4c0.1-2.6,0.1-5.4,0.1-8.4c0-4,0.1-8.3,0.2-12.7c8.7-0.1,17.2-0.1,25.2-0.2c0.1,4.5,0.1,8.9,0.2,12.9
		c0,3,0.1,5.9,0.1,8.5C323.8,191.6,315.2,191.5,306.2,191.4z M306.9,100.7c8.5-0.1,16.6-0.1,24.4-0.2c0,3.6,0,7.1-0.1,10.7
		c0,3.6,0,7.2,0.1,10.7c-7.8-0.1-16-0.1-24.5-0.2c0-3.5,0-7,0.1-10.6C306.9,107.8,306.9,104.2,306.9,100.7z M331.4,123.8
		c0,7.3,0.1,14.5,0.1,21.4c-7.9-0.1-16.1-0.1-24.7-0.2c0-6.9,0.1-13.9,0.1-21.1C315.4,123.9,323.6,123.9,331.4,123.8z M331.5,147
		c0,0.9,0,1.8,0,2.6c0,6.6,0.1,12.8,0.2,18.8c-8-0.1-16.4-0.1-25.1-0.2c0.1-5.9,0.2-12.2,0.2-18.6c0-0.8,0-1.7,0-2.5
		C315.3,147.1,323.6,147.1,331.5,147z M350.4,191.7c-5.5,0-11.2-0.1-17.2-0.1c0.1-2.7,0.1-5.5,0.1-8.6c0.1-4,0.1-8.4,0.2-12.9
		c5.8,0,11.5-0.1,16.8-0.1c2.9,0,5.6-0.1,8.3-0.1c0.1,4.6,0.1,9,0.2,13.1c0,3.1,0.1,6,0.2,8.8C356.3,191.8,353.4,191.8,350.4,191.7z
		 M334,100.6c5.7,0,11.2-0.1,16.5-0.1c2.7,0,5.4-0.1,8-0.1c0,3.6,0,7.3-0.1,10.9c0,3.7,0,7.3,0.1,10.9c-2.6,0-5.2-0.1-8-0.1
		c-5.3,0-10.8-0.1-16.5-0.1c0-3.6,0-7.1,0.1-10.7C334.1,107.7,334.1,104.1,334,100.6z M350.4,123.7c2.7,0,5.4-0.1,8-0.1
		c0,7.4,0.1,14.8,0.1,21.9c-2.6,0-5.3-0.1-8.1-0.1c-5.3,0-10.8-0.1-16.6-0.1c0-7,0.1-14.2,0.1-21.5
		C339.7,123.8,345.2,123.8,350.4,123.7z M350.4,146.9c2.8,0,5.5-0.1,8.1-0.1c0,1,0,1.9,0,2.9c0,6.6,0.1,13,0.2,19
		c-2.7,0-5.5-0.1-8.3-0.1c-5.4,0-11-0.1-16.8-0.1c0.1-6,0.2-12.3,0.2-18.8c0-0.9,0-1.8,0-2.6C339.6,146.9,345.1,146.9,350.4,146.9z
		 M360.4,191.9c0.1-2.7,0.1-5.7,0.2-8.8c0.1-4.1,0.1-8.5,0.2-13.2c9.4-0.1,17.9-0.2,25.2-0.3c0.1,4.7,0.2,9.3,0.2,13.5
		c0,3.2,0.1,6.3,0.2,9.1C378.8,192.1,370.1,192,360.4,191.9z M385.6,122.6c-7.1-0.1-15.3-0.2-24.5-0.3c0-3.7,0-7.3,0.1-11
		c0-3.7,0-7.3-0.1-11c9.1-0.1,17.4-0.2,24.5-0.3c0,3.8,0,7.5-0.1,11.3C385.5,115.1,385.5,118.8,385.6,122.6z M361.1,99
		c0-7.5-0.1-14.8-0.1-22c9.2-0.1,17.5-0.2,24.7-0.3c0,7.3-0.1,14.9-0.1,22.6C378.5,99.2,370.3,99.1,361.1,99z M361.1,123.6
		c9.1-0.1,17.4-0.2,24.5-0.3c0,7.7,0.1,15.2,0.1,22.6c-7.1-0.1-15.4-0.2-24.7-0.3C361,138.3,361.1,131,361.1,123.6z M385.7,146.4
		c0,1.1,0,2.1,0,3.2c0,6.8,0.1,13.2,0.2,19.4c-7.3-0.1-15.7-0.2-25.2-0.3c0.1-6,0.2-12.4,0.2-19.1c0-1,0-1.9,0-2.9
		C370.2,146.6,378.5,146.5,385.7,146.4z M407,192.4c-4.5-0.1-11.2-0.1-19.5-0.2c0.1-2.9,0.1-5.9,0.2-9.1c0.1-4.2,0.1-8.8,0.2-13.5
		c8.2-0.1,14.7-0.2,19.1-0.2L407,192.4L407,192.4z M407,169.3c-4.5-0.1-11-0.1-19.1-0.2c0.1-6.1,0.2-12.6,0.2-19.4
		c0-1.1,0-2.2,0-3.2c8-0.1,14.5-0.2,18.9-0.2V169.3z M407,146c-4.4-0.1-10.9-0.1-18.9-0.2c0-7.3,0.1-14.9,0.1-22.6
		c8-0.1,14.4-0.2,18.8-0.2V146z M407,122.8c-4.4-0.1-10.8-0.1-18.8-0.2c0-3.8,0-7.5,0.1-11.3c0-3.8,0-7.5-0.1-11.3
		c8-0.1,14.4-0.2,18.8-0.2V122.8z M407,99.6c-4.4-0.1-10.8-0.1-18.8-0.2c0-7.7-0.1-15.3-0.1-22.6c8-0.1,14.5-0.2,18.9-0.2V99.6z
		 M407,29.9c-0.6,0-1.3,0-2,0c0,0.1,0,0.1,0,0.2c0.7,0,1.4,0,2,0v23c-3.6,0-8.5-0.1-14.5-0.2c-0.5,0.2-1,0.4-1.5,0.6
		c6.7-0.1,12.1-0.2,16-0.2v23.1c-4.4-0.1-10.8-0.1-18.9-0.2c0-1.1,0-2.2,0-3.2c0-6.5-0.1-12.7-0.2-18.7c-0.7,0.1-1.3,0.2-2,0.2
		c-0.1,5.9-0.2,12-0.2,18.4c0,1,0,2.1,0,3.2c-6.7-0.1-14.4-0.2-22.9-0.3l-4.3,2.3c0,6.8-0.1,13.8-0.1,21c-2.6,0-5.3-0.1-8-0.1
		c-5.3,0-10.8-0.1-16.5-0.1c0-2.6,0-5.2,0-7.7l-1.7,0.9c-0.3,0.2-0.6,0.3-1,0.4c0,2.1,0,4.3,0,6.4c-7.2,0-14.7-0.1-22.5-0.1
		l-7.8,2.2c1,0,2.1,0,3.1,0c0,3.5,0,7-0.1,10.5c0,3.5,0,7,0.1,10.5c-6.2,0-12.5-0.1-18.9-0.1c-1.8,0-3.7,0-5.5,0
		c0-3.5,0-6.9,0.1-10.4c0-0.1,0-0.3,0-0.4l-2.8,1.8c0,3,0,6,0,9c-4.5,0-9.1,0-13.7,0l-3.9,2.5c5.9,0,11.8,0,17.6,0
		c0,7.1,0.1,14,0.1,20.8c-8.1,0-16.3,0-24.7-0.1c0-5.3,0.1-10.8,0.1-16.4l-2.6,2.3c0,4.8,0.1,9.5,0.1,14.1c-5.4,0-11,0-16.5,0
		l-3.1,2.7c6.6,0,13.1,0,19.6,0c0,0.7,0,1.5,0,2.2c0,6.4,0.1,12.6,0.2,18.4c-8.3,0-16.7,0-25.1-0.1c0.1-5.2,0.2-10.6,0.2-16.2
		l-2.4,2c0,4.9,0.1,9.6,0.2,14.1c-4.2,0-8.4,0-12.6,0c-0.2,0-0.3,0-0.5,0l-2.5,2.8c1,0,2,0,3,0c4.2,0,8.4,0,12.6,0
		c0.1,4.3,0.1,8.6,0.2,12.5c0,2.8,0.1,5.5,0.1,8.1c-4.3,0-8.6,0-12.9,0s-8.6,0-12.9,0c0.1-2.5,0.1-5.2,0.1-8.1c0-0.5,0-1,0-1.6
		l-1.6,1.8c0,2.8,0.1,5.4,0.1,7.9c-8.7,0-17.3,0-25.9,0.1c0.1-2.6,0.1-5.3,0.1-8.2s0.1-6.1,0.1-9.3l-0.6-0.5l0.6-0.7
		c0-0.7,0-1.3,0-2c0.6,0,1.2,0,1.8,0l2.3-2.6c-1.3,0-2.7,0-4,0c0.1-5.8,0.2-12,0.2-18.4c0-0.7,0-1.5,0-2.2c1.1,0,2.1,0,3.2,0
		l-2.7-2.6c-0.2,0-0.3,0-0.5,0c0-0.2,0-0.3,0-0.5l-2.5-2.4c0,1,0,2,0,2.9c-8.3,0-16.6,0-24.7,0.1c0-6.8,0.1-13.7,0.1-20.8
		c8,0,16.2,0,24.5,0.1c0,4.7,0,9.3,0.1,13.8l2.6-2.6c0-3.7,0-7.5,0.1-11.2c3.6,0,7.3,0,10.9,0l2.6-2.7c-4.5,0-9.1,0-13.5,0
		c0-3.4,0-6.9,0.1-10.3c0-3.5,0-6.9-0.1-10.3c8.1,0,16.2,0,24.4,0.1c0,3.3,0,6.5,0,9.8c0.9-0.6,1.8-1.1,2.8-1.6c0-2.7,0-5.5,0-8.2
		c4.1,0,8.1,0,12.2,0c4,0,8.1,0,12.1,0l8-2.7c-1.7,0-3.5,0-5.2,0c0-4.5,0-8.8-0.1-13.2L223,85c0,4.4,0,8.8-0.1,13.3
		c-4.1,0-8.2,0-12.2,0c-4.1,0-8.2,0-12.2,0c0-7-0.1-13.9-0.1-20.5c2.5,0,5.1,0,7.6,0v-2.8c-2.5,0-5,0-7.6,0c0-0.7,0-1.5,0-2.2
		c0-6.4-0.1-12.5-0.2-18.4c4.2,0,8.4,0,12.6,0s8.4,0,12.5,0c-0.1,3.5-0.1,7.1-0.1,10.8l2.3-0.2c0-3.6-0.1-7.2-0.1-10.7
		c8.4,0,16.8,0,25.1-0.1c-0.1,3-0.1,6.1-0.1,9.2c0.3,0,0.5,0,0.8,0.1l1.5,0.3c0-3.2-0.1-6.4-0.1-9.5c8.5,0,16.9,0,25.1-0.1
		c-0.1,4.4-0.1,8.9-0.2,13.6l2.4,0.4c0-4.8-0.1-9.5-0.2-14c2,0,4,0,5.9,0c0.2,0,0.5,0,0.7,0c0.2-0.8,0.4-1.6,0.6-2.4
		c-0.4,0-0.9,0-1.3,0c-1.9,0-4,0-5.9,0c-0.1-4.4-0.1-8.7-0.2-12.6c0-2.9-0.1-5.6-0.1-8.2c2.1,0,4.2,0,6.2,0c6.7,0,13.2-0.1,19.6-0.1
		c-0.1,2-0.1,4.2-0.1,6.4c0.5,0,1-0.1,1.5-0.1c0-2.2-0.1-4.3-0.1-6.3c9-0.1,17.6-0.1,25.9-0.2c-0.1,2.7-0.1,5.5-0.1,8.5
		c0,4-0.1,8.4-0.2,12.9c-1.6,0-3.4,0-5,0c0.2,0.6,0.3,1.2,0.5,1.9c1.5,0,3,0,4.5,0c-0.1,4.5-0.1,9.2-0.2,14l2.3-0.9
		c0-4.5-0.1-8.9-0.2-13.1c5.8,0,11.4-0.1,16.8-0.1c2.9,0,5.6-0.1,8.3-0.1c0,1.1,0,2.3,0,3.4l2.1-0.8c0-0.9,0-1.8,0-2.6
		c6.3-0.1,12.2-0.1,17.6-0.2c-0.8-0.3-1.6-0.6-2.4-0.9c-4.7-0.1-9.7-0.1-15.2-0.2c-0.1-4.6-0.1-9.1-0.2-13.2c0-3.1-0.1-6-0.1-8.8
		c1.1,0,2.2,0,3.3,0c0.1-0.4,0.2-0.8,0.3-1.2c-1.2,0-2.3,0-3.5,0c-0.1-5.4-0.3-10-0.3-13.6c0-0.7-0.1-1.4-0.1-2h18.7
		c0.2-0.1,0.4-0.1,0.7-0.2c1.7-0.4,3.4-0.6,5.1-0.6c1.9,0,3.8,0.3,5.6,0.8h17L407,29.9L407,29.9L407,29.9z"/>
</g>
</svg>
