<?xml version="1.0" encoding="utf-8"?>
<!-- Generator: Adobe Illustrator 19.0.1, SVG Export Plug-In . SVG Version: 6.00 Build 0)  -->
<svg version="1.1" id="Layer_1" xmlns="http://www.w3.org/2000/svg" xmlns:xlink="http://www.w3.org/1999/xlink" x="0px" y="0px"
	 viewBox="0 0 353 338" style="enable-background:new 0 0 353 338;" xml:space="preserve">
<g>
	<path d="M239.9,189.3c21.9,0,51-8.1,81.8-39c35-35.3,33.2-65.9,29-80.9c-5.5-19.7-21-35-40.6-39.9c-12.1-3-23.7-2.2-33.7,0.1
		c0.9-18.7-0.3-29.5-0.3-29.5H175.6H76.7c0,0-1.2,10.8-0.2,29.5c-10-2.3-21.6-3.1-33.7-0.1c-19.5,4.9-35,20.2-40.6,39.9
		c-4.2,15-6,45.5,29.1,80.9c30.7,30.9,59.8,39,81.7,39c6.5,0,12.3-0.7,17.5-1.8c16.6,18.3,30.9,30.4,30.9,62.4
		c0,55.7-33.5,60.9-33.5,60.9H90.4V338h85.2h85.2v-27.3H225c0,0-33.5-5.1-33.5-60.9c0-31.9,14.3-44,30.9-62.4
		C227.6,188.6,233.4,189.3,239.9,189.3z M258.6,125.2c7.9-25,12.5-47.6,15.1-66.5c8.1-3.1,18.9-5.6,29.9-2.8
		c10,2.5,18,10.4,20.9,20.7c4.5,16.1-3.4,35.4-22.1,54.2c-23.2,23.4-44.5,30.1-60.2,30.8C248.1,152.1,253.9,140.3,258.6,125.2z
		 M50.6,131c-18.7-18.9-26.6-38.1-22.1-54.2C31.4,66.5,39.3,58.6,49.4,56c11-2.7,21.8-0.3,29.9,2.8c2.6,18.8,7.1,41.3,15.1,66.5
		c4.8,15.1,10.4,26.8,16.4,36.5C95,161.1,73.9,154.3,50.6,131z M175.6,118.4l-34.3,18l6.6-38.2l-27.7-27.1l38.4-5.6l17.1-34.8
		l17.1,34.8l38.4,5.6l-27.7,27.1l6.5,38.2L175.6,118.4z"/>
</g>
</svg>
