<?xml version="1.0" encoding="utf-8"?>
<!-- Generator: Adobe Illustrator 19.0.1, SVG Export Plug-In . SVG Version: 6.00 Build 0)  -->
<svg version="1.1" id="Layer_1" xmlns="http://www.w3.org/2000/svg" xmlns:xlink="http://www.w3.org/1999/xlink" x="0px" y="0px"
	 viewBox="0 0 344 332" style="enable-background:new 0 0 344 332;" xml:space="preserve">
<g>
	<path d="M176.5,251.1L136,236.5c-2.2-1-4.9-0.1-6,2.1c-1.1,2.2-0.1,4.9,2.1,5.9l43.9,16.2l43.7-16c2.3-0.9,3.5-3.4,2.6-5.7
		c-0.9-2.3-3.4-3.5-5.8-2.6L176.5,251.1z"/>
	<path d="M175.7,71.7c-38,0-59.8,23.8-59.8,65.1s47.8,88.6,59.8,88.6s59.8-47.2,59.8-88.6C235.6,95.5,213.7,71.7,175.7,71.7z
		 M175.7,206.3c-11.5-8.8-41.9-40.5-41.9-69.4c0-31.5,14.1-47.3,41.9-47.3s41.9,15.9,41.9,47.3C217.6,165.9,187.2,197.6,175.7,206.3
		z"/>
	<path d="M172.6-0.2c-94.8,0-172,74.5-172,166s77.2,166,172,166s172-74.5,172-166C344.6,74.2,267.5-0.2,172.6-0.2z M283,268.8
		c-4.6-31.1-23.1-59.5-64.4-59.5c-5,0-9.1,4-9.1,9c0,5,4.1,9,9.1,9c41.6,0,47.2,37.9,47.5,56c-25.9,19.2-58.3,30.7-93.4,30.7
		c-35.2,0-67.5-11.5-93.5-30.7c0.3-18.2,5.9-56,47.5-56c5,0,9-4,9-9c0-5-4-9-9-9c-41.3,0-59.9,28.5-64.4,59.5
		c-26.9-26.7-43.5-62.9-43.5-103c0-81.6,69-148,153.9-148s153.9,66.4,153.9,148C326.5,205.8,309.9,242.1,283,268.8z"/>
</g>
</svg>
